<?xml version="1.0" encoding="utf-8" standalone="no"?>
<!DOCTYPE svg PUBLIC "-//W3C//DTD SVG 1.1//EN"
  "http://www.w3.org/Graphics/SVG/1.1/DTD/svg11.dtd">
<svg xmlns:xlink="http://www.w3.org/1999/xlink" width="854.64pt" height="494.957344pt" viewBox="0 0 854.64 494.957344" xmlns="http://www.w3.org/2000/svg" version="1.1">
 <metadata>
  <rdf:RDF xmlns:dc="http://purl.org/dc/elements/1.1/" xmlns:cc="http://creativecommons.org/ns#" xmlns:rdf="http://www.w3.org/1999/02/22-rdf-syntax-ns#">
   <cc:Work>
    <dc:type rdf:resource="http://purl.org/dc/dcmitype/StillImage"/>
    <dc:date>2026-03-20T01:55:31.691803</dc:date>
    <dc:format>image/svg+xml</dc:format>
    <dc:creator>
     <cc:Agent>
      <dc:title>Matplotlib v3.9.0, https://matplotlib.org/</dc:title>
     </cc:Agent>
    </dc:creator>
   </cc:Work>
  </rdf:RDF>
 </metadata>
 <defs>
  <style type="text/css">*{stroke-linejoin: round; stroke-linecap: butt}</style>
 </defs>
 <g id="figure_1">
  <g id="patch_1">
   <path d="M 0 494.957344 
L 854.64 494.957344 
L 854.64 0 
L 0 0 
z
" style="fill: #ffffff"/>
  </g>
  <g id="axes_1">
   <g id="patch_2">
    <path d="M 99.6264 203.224144 
L 250.8696 203.224144 
Q 267.6744 203.224144 267.6744 194.191344 
L 267.6744 149.027344 
Q 267.6744 139.994544 250.8696 139.994544 
L 99.6264 139.994544 
Q 82.8216 139.994544 82.8216 149.027344 
L 82.8216 194.191344 
Q 82.8216 203.224144 99.6264 203.224144 
z
" clip-path="url(#pbc1c8df47e)" style="fill: #eff6ff; stroke: #60a5fa; stroke-width: 1.6; stroke-linejoin: miter"/>
   </g>
   <g id="patch_3">
    <path d="M 351.6984 149.027344 
L 502.9416 149.027344 
Q 519.7464 149.027344 519.7464 139.994544 
L 519.7464 94.830544 
Q 519.7464 85.797744 502.9416 85.797744 
L 351.6984 85.797744 
Q 334.8936 85.797744 334.8936 94.830544 
L 334.8936 139.994544 
Q 334.8936 149.027344 351.6984 149.027344 
z
" clip-path="url(#pbc1c8df47e)" style="fill: #eff6ff; stroke: #60a5fa; stroke-width: 1.6; stroke-linejoin: miter"/>
   </g>
   <g id="patch_4">
    <path d="M 603.7704 203.224144 
L 755.0136 203.224144 
Q 771.8184 203.224144 771.8184 194.191344 
L 771.8184 149.027344 
Q 771.8184 139.994544 755.0136 139.994544 
L 603.7704 139.994544 
Q 586.9656 139.994544 586.9656 149.027344 
L 586.9656 194.191344 
Q 586.9656 203.224144 603.7704 203.224144 
z
" clip-path="url(#pbc1c8df47e)" style="fill: #eff6ff; stroke: #60a5fa; stroke-width: 1.6; stroke-linejoin: miter"/>
   </g>
   <g id="patch_5">
    <path d="M 536.5512 365.814544 
L 687.7944 365.814544 
Q 704.5992 365.814544 704.5992 356.781744 
L 704.5992 311.617744 
Q 704.5992 302.584944 687.7944 302.584944 
L 536.5512 302.584944 
Q 519.7464 302.584944 519.7464 311.617744 
L 519.7464 356.781744 
Q 519.7464 365.814544 536.5512 365.814544 
z
" clip-path="url(#pbc1c8df47e)" style="fill: #eff6ff; stroke: #60a5fa; stroke-width: 1.6; stroke-linejoin: miter"/>
   </g>
   <g id="patch_6">
    <path d="M 166.8456 365.814544 
L 318.0888 365.814544 
Q 334.8936 365.814544 334.8936 356.781744 
L 334.8936 311.617744 
Q 334.8936 302.584944 318.0888 302.584944 
L 166.8456 302.584944 
Q 150.0408 302.584944 150.0408 311.617744 
L 150.0408 356.781744 
Q 150.0408 365.814544 166.8456 365.814544 
z
" clip-path="url(#pbc1c8df47e)" style="fill: #eff6ff; stroke: #60a5fa; stroke-width: 1.6; stroke-linejoin: miter"/>
   </g>
   <g id="patch_7">
    <path d="M 252.798911 153.025229 
Q 301.284349 139.99445 348.042236 127.427962 
" clip-path="url(#pbc1c8df47e)" style="fill: none; stroke: #475569; stroke-width: 1.6; stroke-linecap: round"/>
    <path d="M 341.469213 126.088048 
L 348.042236 127.427962 
L 343.026492 131.882432 
" clip-path="url(#pbc1c8df47e)" style="fill: none; stroke: #475569; stroke-width: 1.6; stroke-linecap: round"/>
   </g>
   <g id="patch_8">
    <path d="M 504.870911 126.963859 
Q 553.356349 139.994638 600.114236 152.561126 
" clip-path="url(#pbc1c8df47e)" style="fill: none; stroke: #475569; stroke-width: 1.6; stroke-linecap: round"/>
    <path d="M 595.098492 148.106655 
L 600.114236 152.561126 
L 593.541213 153.901039 
" clip-path="url(#pbc1c8df47e)" style="fill: none; stroke: #475569; stroke-width: 1.6; stroke-linecap: round"/>
   </g>
   <g id="patch_9">
    <path d="M 678.519656 200.505179 
Q 654.184812 250.646319 630.631021 299.178124 
" clip-path="url(#pbc1c8df47e)" style="fill: none; stroke: #475569; stroke-width: 1.6; stroke-linecap: round"/>
    <path d="M 635.949688 295.090119 
L 630.631021 299.178124 
L 630.551818 292.470387 
" clip-path="url(#pbc1c8df47e)" style="fill: none; stroke: #475569; stroke-width: 1.6; stroke-linecap: round"/>
   </g>
   <g id="patch_10">
    <path d="M 534.55445 347.748944 
Q 427.320784 347.748944 321.875972 347.748944 
" clip-path="url(#pbc1c8df47e)" style="fill: none; stroke: #475569; stroke-width: 1.6; stroke-linecap: round"/>
    <path d="M 327.875972 350.748944 
L 321.875972 347.748944 
L 327.875972 344.748944 
" clip-path="url(#pbc1c8df47e)" style="fill: none; stroke: #475569; stroke-width: 1.6; stroke-linecap: round"/>
   </g>
   <g id="patch_11">
    <path d="M 224.84852 309.794947 
Q 200.456199 255.164981 176.793204 202.168441 
" clip-path="url(#pbc1c8df47e)" style="fill: none; stroke: #475569; stroke-width: 1.6; stroke-linecap: round"/>
    <path d="M 176.500099 208.870239 
L 176.793204 202.168441 
L 181.978779 206.424004 
" clip-path="url(#pbc1c8df47e)" style="fill: none; stroke: #475569; stroke-width: 1.6; stroke-linecap: round"/>
   </g>
   <g id="text_1">
    <!-- Input batch -->
    <g style="fill: #0f172a" transform="translate(139.437844 174.644656) scale(0.11 -0.11)">
     <defs>
      <path id="DejaVuSans-Bold-49" d="M 588 4666 
L 1791 4666 
L 1791 0 
L 588 0 
L 588 4666 
z
" transform="scale(0.015625)"/>
      <path id="DejaVuSans-Bold-6e" d="M 4056 2131 
L 4056 0 
L 2931 0 
L 2931 347 
L 2931 1631 
Q 2931 2084 2911 2256 
Q 2891 2428 2841 2509 
Q 2775 2619 2662 2680 
Q 2550 2741 2406 2741 
Q 2056 2741 1856 2470 
Q 1656 2200 1656 1722 
L 1656 0 
L 538 0 
L 538 3500 
L 1656 3500 
L 1656 2988 
Q 1909 3294 2193 3439 
Q 2478 3584 2822 3584 
Q 3428 3584 3742 3212 
Q 4056 2841 4056 2131 
z
" transform="scale(0.015625)"/>
      <path id="DejaVuSans-Bold-70" d="M 1656 506 
L 1656 -1331 
L 538 -1331 
L 538 3500 
L 1656 3500 
L 1656 2988 
Q 1888 3294 2169 3439 
Q 2450 3584 2816 3584 
Q 3463 3584 3878 3070 
Q 4294 2556 4294 1747 
Q 4294 938 3878 423 
Q 3463 -91 2816 -91 
Q 2450 -91 2169 54 
Q 1888 200 1656 506 
z
M 2400 2772 
Q 2041 2772 1848 2508 
Q 1656 2244 1656 1747 
Q 1656 1250 1848 986 
Q 2041 722 2400 722 
Q 2759 722 2948 984 
Q 3138 1247 3138 1747 
Q 3138 2247 2948 2509 
Q 2759 2772 2400 2772 
z
" transform="scale(0.015625)"/>
      <path id="DejaVuSans-Bold-75" d="M 500 1363 
L 500 3500 
L 1625 3500 
L 1625 3150 
Q 1625 2866 1622 2436 
Q 1619 2006 1619 1863 
Q 1619 1441 1641 1255 
Q 1663 1069 1716 984 
Q 1784 875 1895 815 
Q 2006 756 2150 756 
Q 2500 756 2700 1025 
Q 2900 1294 2900 1772 
L 2900 3500 
L 4019 3500 
L 4019 0 
L 2900 0 
L 2900 506 
Q 2647 200 2364 54 
Q 2081 -91 1741 -91 
Q 1134 -91 817 281 
Q 500 653 500 1363 
z
" transform="scale(0.015625)"/>
      <path id="DejaVuSans-Bold-74" d="M 1759 4494 
L 1759 3500 
L 2913 3500 
L 2913 2700 
L 1759 2700 
L 1759 1216 
Q 1759 972 1856 886 
Q 1953 800 2241 800 
L 2816 800 
L 2816 0 
L 1856 0 
Q 1194 0 917 276 
Q 641 553 641 1216 
L 641 2700 
L 84 2700 
L 84 3500 
L 641 3500 
L 641 4494 
L 1759 4494 
z
" transform="scale(0.015625)"/>
      <path id="DejaVuSans-Bold-20" transform="scale(0.015625)"/>
      <path id="DejaVuSans-Bold-62" d="M 2400 722 
Q 2759 722 2948 984 
Q 3138 1247 3138 1747 
Q 3138 2247 2948 2509 
Q 2759 2772 2400 2772 
Q 2041 2772 1848 2508 
Q 1656 2244 1656 1747 
Q 1656 1250 1848 986 
Q 2041 722 2400 722 
z
M 1656 2988 
Q 1888 3294 2169 3439 
Q 2450 3584 2816 3584 
Q 3463 3584 3878 3070 
Q 4294 2556 4294 1747 
Q 4294 938 3878 423 
Q 3463 -91 2816 -91 
Q 2450 -91 2169 54 
Q 1888 200 1656 506 
L 1656 0 
L 538 0 
L 538 4863 
L 1656 4863 
L 1656 2988 
z
" transform="scale(0.015625)"/>
      <path id="DejaVuSans-Bold-61" d="M 2106 1575 
Q 1756 1575 1579 1456 
Q 1403 1338 1403 1106 
Q 1403 894 1545 773 
Q 1688 653 1941 653 
Q 2256 653 2472 879 
Q 2688 1106 2688 1447 
L 2688 1575 
L 2106 1575 
z
M 3816 1997 
L 3816 0 
L 2688 0 
L 2688 519 
Q 2463 200 2181 54 
Q 1900 -91 1497 -91 
Q 953 -91 614 226 
Q 275 544 275 1050 
Q 275 1666 698 1953 
Q 1122 2241 2028 2241 
L 2688 2241 
L 2688 2328 
Q 2688 2594 2478 2717 
Q 2269 2841 1825 2841 
Q 1466 2841 1156 2769 
Q 847 2697 581 2553 
L 581 3406 
Q 941 3494 1303 3539 
Q 1666 3584 2028 3584 
Q 2975 3584 3395 3211 
Q 3816 2838 3816 1997 
z
" transform="scale(0.015625)"/>
      <path id="DejaVuSans-Bold-63" d="M 3366 3391 
L 3366 2478 
Q 3138 2634 2908 2709 
Q 2678 2784 2431 2784 
Q 1963 2784 1702 2511 
Q 1441 2238 1441 1747 
Q 1441 1256 1702 982 
Q 1963 709 2431 709 
Q 2694 709 2930 787 
Q 3166 866 3366 1019 
L 3366 103 
Q 3103 6 2833 -42 
Q 2563 -91 2291 -91 
Q 1344 -91 809 395 
Q 275 881 275 1747 
Q 275 2613 809 3098 
Q 1344 3584 2291 3584 
Q 2566 3584 2833 3536 
Q 3100 3488 3366 3391 
z
" transform="scale(0.015625)"/>
      <path id="DejaVuSans-Bold-68" d="M 4056 2131 
L 4056 0 
L 2931 0 
L 2931 347 
L 2931 1625 
Q 2931 2084 2911 2256 
Q 2891 2428 2841 2509 
Q 2775 2619 2662 2680 
Q 2550 2741 2406 2741 
Q 2056 2741 1856 2470 
Q 1656 2200 1656 1722 
L 1656 0 
L 538 0 
L 538 4863 
L 1656 4863 
L 1656 2988 
Q 1909 3294 2193 3439 
Q 2478 3584 2822 3584 
Q 3428 3584 3742 3212 
Q 4056 2841 4056 2131 
z
" transform="scale(0.015625)"/>
     </defs>
     <use xlink:href="#DejaVuSans-Bold-49"/>
     <use xlink:href="#DejaVuSans-Bold-6e" x="37.207031"/>
     <use xlink:href="#DejaVuSans-Bold-70" x="108.398438"/>
     <use xlink:href="#DejaVuSans-Bold-75" x="179.980469"/>
     <use xlink:href="#DejaVuSans-Bold-74" x="251.171875"/>
     <use xlink:href="#DejaVuSans-Bold-20" x="298.974609"/>
     <use xlink:href="#DejaVuSans-Bold-62" x="333.789062"/>
     <use xlink:href="#DejaVuSans-Bold-61" x="405.371094"/>
     <use xlink:href="#DejaVuSans-Bold-74" x="472.851562"/>
     <use xlink:href="#DejaVuSans-Bold-63" x="520.654297"/>
     <use xlink:href="#DejaVuSans-Bold-68" x="579.931641"/>
    </g>
   </g>
   <g id="text_2">
    <!-- Forward pass -->
    <g style="fill: #0f172a" transform="translate(385.74 120.447856) scale(0.11 -0.11)">
     <defs>
      <path id="DejaVuSans-Bold-46" d="M 588 4666 
L 3834 4666 
L 3834 3756 
L 1791 3756 
L 1791 2888 
L 3713 2888 
L 3713 1978 
L 1791 1978 
L 1791 0 
L 588 0 
L 588 4666 
z
" transform="scale(0.015625)"/>
      <path id="DejaVuSans-Bold-6f" d="M 2203 2784 
Q 1831 2784 1636 2517 
Q 1441 2250 1441 1747 
Q 1441 1244 1636 976 
Q 1831 709 2203 709 
Q 2569 709 2762 976 
Q 2956 1244 2956 1747 
Q 2956 2250 2762 2517 
Q 2569 2784 2203 2784 
z
M 2203 3584 
Q 3106 3584 3614 3096 
Q 4122 2609 4122 1747 
Q 4122 884 3614 396 
Q 3106 -91 2203 -91 
Q 1297 -91 786 396 
Q 275 884 275 1747 
Q 275 2609 786 3096 
Q 1297 3584 2203 3584 
z
" transform="scale(0.015625)"/>
      <path id="DejaVuSans-Bold-72" d="M 3138 2547 
Q 2991 2616 2845 2648 
Q 2700 2681 2553 2681 
Q 2122 2681 1889 2404 
Q 1656 2128 1656 1613 
L 1656 0 
L 538 0 
L 538 3500 
L 1656 3500 
L 1656 2925 
Q 1872 3269 2151 3426 
Q 2431 3584 2822 3584 
Q 2878 3584 2943 3579 
Q 3009 3575 3134 3559 
L 3138 2547 
z
" transform="scale(0.015625)"/>
      <path id="DejaVuSans-Bold-77" d="M 225 3500 
L 1313 3500 
L 1900 1088 
L 2491 3500 
L 3425 3500 
L 4013 1113 
L 4603 3500 
L 5691 3500 
L 4769 0 
L 3547 0 
L 2956 2406 
L 2369 0 
L 1147 0 
L 225 3500 
z
" transform="scale(0.015625)"/>
      <path id="DejaVuSans-Bold-64" d="M 2919 2988 
L 2919 4863 
L 4044 4863 
L 4044 0 
L 2919 0 
L 2919 506 
Q 2688 197 2409 53 
Q 2131 -91 1766 -91 
Q 1119 -91 703 423 
Q 288 938 288 1747 
Q 288 2556 703 3070 
Q 1119 3584 1766 3584 
Q 2128 3584 2408 3439 
Q 2688 3294 2919 2988 
z
M 2181 722 
Q 2541 722 2730 984 
Q 2919 1247 2919 1747 
Q 2919 2247 2730 2509 
Q 2541 2772 2181 2772 
Q 1825 2772 1636 2509 
Q 1447 2247 1447 1747 
Q 1447 1247 1636 984 
Q 1825 722 2181 722 
z
" transform="scale(0.015625)"/>
      <path id="DejaVuSans-Bold-73" d="M 3272 3391 
L 3272 2541 
Q 2913 2691 2578 2766 
Q 2244 2841 1947 2841 
Q 1628 2841 1473 2761 
Q 1319 2681 1319 2516 
Q 1319 2381 1436 2309 
Q 1553 2238 1856 2203 
L 2053 2175 
Q 2913 2066 3209 1816 
Q 3506 1566 3506 1031 
Q 3506 472 3093 190 
Q 2681 -91 1863 -91 
Q 1516 -91 1145 -36 
Q 775 19 384 128 
L 384 978 
Q 719 816 1070 734 
Q 1422 653 1784 653 
Q 2113 653 2278 743 
Q 2444 834 2444 1013 
Q 2444 1163 2330 1236 
Q 2216 1309 1875 1350 
L 1678 1375 
Q 931 1469 631 1722 
Q 331 1975 331 2491 
Q 331 3047 712 3315 
Q 1094 3584 1881 3584 
Q 2191 3584 2531 3537 
Q 2872 3491 3272 3391 
z
" transform="scale(0.015625)"/>
     </defs>
     <use xlink:href="#DejaVuSans-Bold-46"/>
     <use xlink:href="#DejaVuSans-Bold-6f" x="64.310547"/>
     <use xlink:href="#DejaVuSans-Bold-72" x="133.011719"/>
     <use xlink:href="#DejaVuSans-Bold-77" x="182.328125"/>
     <use xlink:href="#DejaVuSans-Bold-61" x="274.710938"/>
     <use xlink:href="#DejaVuSans-Bold-72" x="342.191406"/>
     <use xlink:href="#DejaVuSans-Bold-64" x="391.507812"/>
     <use xlink:href="#DejaVuSans-Bold-20" x="463.089844"/>
     <use xlink:href="#DejaVuSans-Bold-70" x="497.904297"/>
     <use xlink:href="#DejaVuSans-Bold-61" x="569.486328"/>
     <use xlink:href="#DejaVuSans-Bold-73" x="636.966797"/>
     <use xlink:href="#DejaVuSans-Bold-73" x="696.488281"/>
    </g>
   </g>
   <g id="text_3">
    <!-- Prediction + loss -->
    <g style="fill: #0f172a" transform="translate(626.977859 174.644656) scale(0.11 -0.11)">
     <defs>
      <path id="DejaVuSans-Bold-50" d="M 588 4666 
L 2584 4666 
Q 3475 4666 3951 4270 
Q 4428 3875 4428 3144 
Q 4428 2409 3951 2014 
Q 3475 1619 2584 1619 
L 1791 1619 
L 1791 0 
L 588 0 
L 588 4666 
z
M 1791 3794 
L 1791 2491 
L 2456 2491 
Q 2806 2491 2997 2661 
Q 3188 2831 3188 3144 
Q 3188 3456 2997 3625 
Q 2806 3794 2456 3794 
L 1791 3794 
z
" transform="scale(0.015625)"/>
      <path id="DejaVuSans-Bold-65" d="M 4031 1759 
L 4031 1441 
L 1416 1441 
Q 1456 1047 1700 850 
Q 1944 653 2381 653 
Q 2734 653 3104 758 
Q 3475 863 3866 1075 
L 3866 213 
Q 3469 63 3072 -14 
Q 2675 -91 2278 -91 
Q 1328 -91 801 392 
Q 275 875 275 1747 
Q 275 2603 792 3093 
Q 1309 3584 2216 3584 
Q 3041 3584 3536 3087 
Q 4031 2591 4031 1759 
z
M 2881 2131 
Q 2881 2450 2695 2645 
Q 2509 2841 2209 2841 
Q 1884 2841 1681 2658 
Q 1478 2475 1428 2131 
L 2881 2131 
z
" transform="scale(0.015625)"/>
      <path id="DejaVuSans-Bold-69" d="M 538 3500 
L 1656 3500 
L 1656 0 
L 538 0 
L 538 3500 
z
M 538 4863 
L 1656 4863 
L 1656 3950 
L 538 3950 
L 538 4863 
z
" transform="scale(0.015625)"/>
      <path id="DejaVuSans-Bold-2b" d="M 3053 4013 
L 3053 2375 
L 4684 2375 
L 4684 1638 
L 3053 1638 
L 3053 0 
L 2309 0 
L 2309 1638 
L 678 1638 
L 678 2375 
L 2309 2375 
L 2309 4013 
L 3053 4013 
z
" transform="scale(0.015625)"/>
      <path id="DejaVuSans-Bold-6c" d="M 538 4863 
L 1656 4863 
L 1656 0 
L 538 0 
L 538 4863 
z
" transform="scale(0.015625)"/>
     </defs>
     <use xlink:href="#DejaVuSans-Bold-50"/>
     <use xlink:href="#DejaVuSans-Bold-72" x="73.291016"/>
     <use xlink:href="#DejaVuSans-Bold-65" x="122.607422"/>
     <use xlink:href="#DejaVuSans-Bold-64" x="190.429688"/>
     <use xlink:href="#DejaVuSans-Bold-69" x="262.011719"/>
     <use xlink:href="#DejaVuSans-Bold-63" x="296.289062"/>
     <use xlink:href="#DejaVuSans-Bold-74" x="355.566406"/>
     <use xlink:href="#DejaVuSans-Bold-69" x="403.369141"/>
     <use xlink:href="#DejaVuSans-Bold-6f" x="437.646484"/>
     <use xlink:href="#DejaVuSans-Bold-6e" x="506.347656"/>
     <use xlink:href="#DejaVuSans-Bold-20" x="577.539062"/>
     <use xlink:href="#DejaVuSans-Bold-2b" x="612.353516"/>
     <use xlink:href="#DejaVuSans-Bold-20" x="696.142578"/>
     <use xlink:href="#DejaVuSans-Bold-6c" x="730.957031"/>
     <use xlink:href="#DejaVuSans-Bold-6f" x="765.234375"/>
     <use xlink:href="#DejaVuSans-Bold-73" x="833.935547"/>
     <use xlink:href="#DejaVuSans-Bold-73" x="893.457031"/>
    </g>
   </g>
   <g id="text_4">
    <!-- Backprop gradients -->
    <g style="fill: #0f172a" transform="translate(551.341081 337.192087) scale(0.11 -0.11)">
     <defs>
      <path id="DejaVuSans-Bold-42" d="M 2456 2859 
Q 2741 2859 2887 2984 
Q 3034 3109 3034 3353 
Q 3034 3594 2887 3720 
Q 2741 3847 2456 3847 
L 1791 3847 
L 1791 2859 
L 2456 2859 
z
M 2497 819 
Q 2859 819 3042 972 
Q 3225 1125 3225 1434 
Q 3225 1738 3044 1889 
Q 2863 2041 2497 2041 
L 1791 2041 
L 1791 819 
L 2497 819 
z
M 3616 2497 
Q 4003 2384 4215 2081 
Q 4428 1778 4428 1338 
Q 4428 663 3972 331 
Q 3516 0 2584 0 
L 588 0 
L 588 4666 
L 2394 4666 
Q 3366 4666 3802 4372 
Q 4238 4078 4238 3431 
Q 4238 3091 4078 2852 
Q 3919 2613 3616 2497 
z
" transform="scale(0.015625)"/>
      <path id="DejaVuSans-Bold-6b" d="M 538 4863 
L 1656 4863 
L 1656 2216 
L 2944 3500 
L 4244 3500 
L 2534 1894 
L 4378 0 
L 3022 0 
L 1656 1459 
L 1656 0 
L 538 0 
L 538 4863 
z
" transform="scale(0.015625)"/>
      <path id="DejaVuSans-Bold-67" d="M 2919 594 
Q 2688 288 2409 144 
Q 2131 0 1766 0 
Q 1125 0 706 504 
Q 288 1009 288 1791 
Q 288 2575 706 3076 
Q 1125 3578 1766 3578 
Q 2131 3578 2409 3434 
Q 2688 3291 2919 2981 
L 2919 3500 
L 4044 3500 
L 4044 353 
Q 4044 -491 3511 -936 
Q 2978 -1381 1966 -1381 
Q 1638 -1381 1331 -1331 
Q 1025 -1281 716 -1178 
L 716 -306 
Q 1009 -475 1290 -558 
Q 1572 -641 1856 -641 
Q 2406 -641 2662 -400 
Q 2919 -159 2919 353 
L 2919 594 
z
M 2181 2772 
Q 1834 2772 1640 2515 
Q 1447 2259 1447 1791 
Q 1447 1309 1634 1061 
Q 1822 813 2181 813 
Q 2531 813 2725 1069 
Q 2919 1325 2919 1791 
Q 2919 2259 2725 2515 
Q 2531 2772 2181 2772 
z
" transform="scale(0.015625)"/>
     </defs>
     <use xlink:href="#DejaVuSans-Bold-42"/>
     <use xlink:href="#DejaVuSans-Bold-61" x="76.220703"/>
     <use xlink:href="#DejaVuSans-Bold-63" x="143.701172"/>
     <use xlink:href="#DejaVuSans-Bold-6b" x="202.978516"/>
     <use xlink:href="#DejaVuSans-Bold-70" x="269.482422"/>
     <use xlink:href="#DejaVuSans-Bold-72" x="341.064453"/>
     <use xlink:href="#DejaVuSans-Bold-6f" x="390.380859"/>
     <use xlink:href="#DejaVuSans-Bold-70" x="459.082031"/>
     <use xlink:href="#DejaVuSans-Bold-20" x="530.664062"/>
     <use xlink:href="#DejaVuSans-Bold-67" x="565.478516"/>
     <use xlink:href="#DejaVuSans-Bold-72" x="637.060547"/>
     <use xlink:href="#DejaVuSans-Bold-61" x="686.376953"/>
     <use xlink:href="#DejaVuSans-Bold-64" x="753.857422"/>
     <use xlink:href="#DejaVuSans-Bold-69" x="825.439453"/>
     <use xlink:href="#DejaVuSans-Bold-65" x="859.716797"/>
     <use xlink:href="#DejaVuSans-Bold-6e" x="927.539062"/>
     <use xlink:href="#DejaVuSans-Bold-74" x="998.730469"/>
     <use xlink:href="#DejaVuSans-Bold-73" x="1046.533203"/>
    </g>
   </g>
   <g id="text_5">
    <!-- Optimizer update -->
    <g style="fill: #0f172a" transform="translate(188.305091 337.235056) scale(0.11 -0.11)">
     <defs>
      <path id="DejaVuSans-Bold-4f" d="M 2719 3878 
Q 2169 3878 1866 3472 
Q 1563 3066 1563 2328 
Q 1563 1594 1866 1187 
Q 2169 781 2719 781 
Q 3272 781 3575 1187 
Q 3878 1594 3878 2328 
Q 3878 3066 3575 3472 
Q 3272 3878 2719 3878 
z
M 2719 4750 
Q 3844 4750 4481 4106 
Q 5119 3463 5119 2328 
Q 5119 1197 4481 553 
Q 3844 -91 2719 -91 
Q 1597 -91 958 553 
Q 319 1197 319 2328 
Q 319 3463 958 4106 
Q 1597 4750 2719 4750 
z
" transform="scale(0.015625)"/>
      <path id="DejaVuSans-Bold-6d" d="M 3781 2919 
Q 3994 3244 4286 3414 
Q 4578 3584 4928 3584 
Q 5531 3584 5847 3212 
Q 6163 2841 6163 2131 
L 6163 0 
L 5038 0 
L 5038 1825 
Q 5041 1866 5042 1909 
Q 5044 1953 5044 2034 
Q 5044 2406 4934 2573 
Q 4825 2741 4581 2741 
Q 4263 2741 4089 2478 
Q 3916 2216 3909 1719 
L 3909 0 
L 2784 0 
L 2784 1825 
Q 2784 2406 2684 2573 
Q 2584 2741 2328 2741 
Q 2006 2741 1831 2477 
Q 1656 2213 1656 1722 
L 1656 0 
L 531 0 
L 531 3500 
L 1656 3500 
L 1656 2988 
Q 1863 3284 2130 3434 
Q 2397 3584 2719 3584 
Q 3081 3584 3359 3409 
Q 3638 3234 3781 2919 
z
" transform="scale(0.015625)"/>
      <path id="DejaVuSans-Bold-7a" d="M 366 3500 
L 3419 3500 
L 3419 2719 
L 1575 800 
L 3419 800 
L 3419 0 
L 288 0 
L 288 781 
L 2131 2700 
L 366 2700 
L 366 3500 
z
" transform="scale(0.015625)"/>
     </defs>
     <use xlink:href="#DejaVuSans-Bold-4f"/>
     <use xlink:href="#DejaVuSans-Bold-70" x="85.009766"/>
     <use xlink:href="#DejaVuSans-Bold-74" x="156.591797"/>
     <use xlink:href="#DejaVuSans-Bold-69" x="204.394531"/>
     <use xlink:href="#DejaVuSans-Bold-6d" x="238.671875"/>
     <use xlink:href="#DejaVuSans-Bold-69" x="342.871094"/>
     <use xlink:href="#DejaVuSans-Bold-7a" x="377.148438"/>
     <use xlink:href="#DejaVuSans-Bold-65" x="435.351562"/>
     <use xlink:href="#DejaVuSans-Bold-72" x="503.173828"/>
     <use xlink:href="#DejaVuSans-Bold-20" x="552.490234"/>
     <use xlink:href="#DejaVuSans-Bold-75" x="587.304688"/>
     <use xlink:href="#DejaVuSans-Bold-70" x="658.496094"/>
     <use xlink:href="#DejaVuSans-Bold-64" x="730.078125"/>
     <use xlink:href="#DejaVuSans-Bold-61" x="801.660156"/>
     <use xlink:href="#DejaVuSans-Bold-74" x="869.140625"/>
     <use xlink:href="#DejaVuSans-Bold-65" x="916.943359"/>
    </g>
   </g>
   <g id="text_6">
    <!-- Each step pushes information forward, then gradients backward, then updates parameters for the next batch. -->
    <g style="fill: #334155" transform="translate(96.254063 415.494944) scale(0.12 -0.12)">
     <defs>
      <path id="DejaVuSans-45" d="M 628 4666 
L 3578 4666 
L 3578 4134 
L 1259 4134 
L 1259 2753 
L 3481 2753 
L 3481 2222 
L 1259 2222 
L 1259 531 
L 3634 531 
L 3634 0 
L 628 0 
L 628 4666 
z
" transform="scale(0.015625)"/>
      <path id="DejaVuSans-61" d="M 2194 1759 
Q 1497 1759 1228 1600 
Q 959 1441 959 1056 
Q 959 750 1161 570 
Q 1363 391 1709 391 
Q 2188 391 2477 730 
Q 2766 1069 2766 1631 
L 2766 1759 
L 2194 1759 
z
M 3341 1997 
L 3341 0 
L 2766 0 
L 2766 531 
Q 2569 213 2275 61 
Q 1981 -91 1556 -91 
Q 1019 -91 701 211 
Q 384 513 384 1019 
Q 384 1609 779 1909 
Q 1175 2209 1959 2209 
L 2766 2209 
L 2766 2266 
Q 2766 2663 2505 2880 
Q 2244 3097 1772 3097 
Q 1472 3097 1187 3025 
Q 903 2953 641 2809 
L 641 3341 
Q 956 3463 1253 3523 
Q 1550 3584 1831 3584 
Q 2591 3584 2966 3190 
Q 3341 2797 3341 1997 
z
" transform="scale(0.015625)"/>
      <path id="DejaVuSans-63" d="M 3122 3366 
L 3122 2828 
Q 2878 2963 2633 3030 
Q 2388 3097 2138 3097 
Q 1578 3097 1268 2742 
Q 959 2388 959 1747 
Q 959 1106 1268 751 
Q 1578 397 2138 397 
Q 2388 397 2633 464 
Q 2878 531 3122 666 
L 3122 134 
Q 2881 22 2623 -34 
Q 2366 -91 2075 -91 
Q 1284 -91 818 406 
Q 353 903 353 1747 
Q 353 2603 823 3093 
Q 1294 3584 2113 3584 
Q 2378 3584 2631 3529 
Q 2884 3475 3122 3366 
z
" transform="scale(0.015625)"/>
      <path id="DejaVuSans-68" d="M 3513 2113 
L 3513 0 
L 2938 0 
L 2938 2094 
Q 2938 2591 2744 2837 
Q 2550 3084 2163 3084 
Q 1697 3084 1428 2787 
Q 1159 2491 1159 1978 
L 1159 0 
L 581 0 
L 581 4863 
L 1159 4863 
L 1159 2956 
Q 1366 3272 1645 3428 
Q 1925 3584 2291 3584 
Q 2894 3584 3203 3211 
Q 3513 2838 3513 2113 
z
" transform="scale(0.015625)"/>
      <path id="DejaVuSans-20" transform="scale(0.015625)"/>
      <path id="DejaVuSans-73" d="M 2834 3397 
L 2834 2853 
Q 2591 2978 2328 3040 
Q 2066 3103 1784 3103 
Q 1356 3103 1142 2972 
Q 928 2841 928 2578 
Q 928 2378 1081 2264 
Q 1234 2150 1697 2047 
L 1894 2003 
Q 2506 1872 2764 1633 
Q 3022 1394 3022 966 
Q 3022 478 2636 193 
Q 2250 -91 1575 -91 
Q 1294 -91 989 -36 
Q 684 19 347 128 
L 347 722 
Q 666 556 975 473 
Q 1284 391 1588 391 
Q 1994 391 2212 530 
Q 2431 669 2431 922 
Q 2431 1156 2273 1281 
Q 2116 1406 1581 1522 
L 1381 1569 
Q 847 1681 609 1914 
Q 372 2147 372 2553 
Q 372 3047 722 3315 
Q 1072 3584 1716 3584 
Q 2034 3584 2315 3537 
Q 2597 3491 2834 3397 
z
" transform="scale(0.015625)"/>
      <path id="DejaVuSans-74" d="M 1172 4494 
L 1172 3500 
L 2356 3500 
L 2356 3053 
L 1172 3053 
L 1172 1153 
Q 1172 725 1289 603 
Q 1406 481 1766 481 
L 2356 481 
L 2356 0 
L 1766 0 
Q 1100 0 847 248 
Q 594 497 594 1153 
L 594 3053 
L 172 3053 
L 172 3500 
L 594 3500 
L 594 4494 
L 1172 4494 
z
" transform="scale(0.015625)"/>
      <path id="DejaVuSans-65" d="M 3597 1894 
L 3597 1613 
L 953 1613 
Q 991 1019 1311 708 
Q 1631 397 2203 397 
Q 2534 397 2845 478 
Q 3156 559 3463 722 
L 3463 178 
Q 3153 47 2828 -22 
Q 2503 -91 2169 -91 
Q 1331 -91 842 396 
Q 353 884 353 1716 
Q 353 2575 817 3079 
Q 1281 3584 2069 3584 
Q 2775 3584 3186 3129 
Q 3597 2675 3597 1894 
z
M 3022 2063 
Q 3016 2534 2758 2815 
Q 2500 3097 2075 3097 
Q 1594 3097 1305 2825 
Q 1016 2553 972 2059 
L 3022 2063 
z
" transform="scale(0.015625)"/>
      <path id="DejaVuSans-70" d="M 1159 525 
L 1159 -1331 
L 581 -1331 
L 581 3500 
L 1159 3500 
L 1159 2969 
Q 1341 3281 1617 3432 
Q 1894 3584 2278 3584 
Q 2916 3584 3314 3078 
Q 3713 2572 3713 1747 
Q 3713 922 3314 415 
Q 2916 -91 2278 -91 
Q 1894 -91 1617 61 
Q 1341 213 1159 525 
z
M 3116 1747 
Q 3116 2381 2855 2742 
Q 2594 3103 2138 3103 
Q 1681 3103 1420 2742 
Q 1159 2381 1159 1747 
Q 1159 1113 1420 752 
Q 1681 391 2138 391 
Q 2594 391 2855 752 
Q 3116 1113 3116 1747 
z
" transform="scale(0.015625)"/>
      <path id="DejaVuSans-75" d="M 544 1381 
L 544 3500 
L 1119 3500 
L 1119 1403 
Q 1119 906 1312 657 
Q 1506 409 1894 409 
Q 2359 409 2629 706 
Q 2900 1003 2900 1516 
L 2900 3500 
L 3475 3500 
L 3475 0 
L 2900 0 
L 2900 538 
Q 2691 219 2414 64 
Q 2138 -91 1772 -91 
Q 1169 -91 856 284 
Q 544 659 544 1381 
z
M 1991 3584 
L 1991 3584 
z
" transform="scale(0.015625)"/>
      <path id="DejaVuSans-69" d="M 603 3500 
L 1178 3500 
L 1178 0 
L 603 0 
L 603 3500 
z
M 603 4863 
L 1178 4863 
L 1178 4134 
L 603 4134 
L 603 4863 
z
" transform="scale(0.015625)"/>
      <path id="DejaVuSans-6e" d="M 3513 2113 
L 3513 0 
L 2938 0 
L 2938 2094 
Q 2938 2591 2744 2837 
Q 2550 3084 2163 3084 
Q 1697 3084 1428 2787 
Q 1159 2491 1159 1978 
L 1159 0 
L 581 0 
L 581 3500 
L 1159 3500 
L 1159 2956 
Q 1366 3272 1645 3428 
Q 1925 3584 2291 3584 
Q 2894 3584 3203 3211 
Q 3513 2838 3513 2113 
z
" transform="scale(0.015625)"/>
      <path id="DejaVuSans-66" d="M 2375 4863 
L 2375 4384 
L 1825 4384 
Q 1516 4384 1395 4259 
Q 1275 4134 1275 3809 
L 1275 3500 
L 2222 3500 
L 2222 3053 
L 1275 3053 
L 1275 0 
L 697 0 
L 697 3053 
L 147 3053 
L 147 3500 
L 697 3500 
L 697 3744 
Q 697 4328 969 4595 
Q 1241 4863 1831 4863 
L 2375 4863 
z
" transform="scale(0.015625)"/>
      <path id="DejaVuSans-6f" d="M 1959 3097 
Q 1497 3097 1228 2736 
Q 959 2375 959 1747 
Q 959 1119 1226 758 
Q 1494 397 1959 397 
Q 2419 397 2687 759 
Q 2956 1122 2956 1747 
Q 2956 2369 2687 2733 
Q 2419 3097 1959 3097 
z
M 1959 3584 
Q 2709 3584 3137 3096 
Q 3566 2609 3566 1747 
Q 3566 888 3137 398 
Q 2709 -91 1959 -91 
Q 1206 -91 779 398 
Q 353 888 353 1747 
Q 353 2609 779 3096 
Q 1206 3584 1959 3584 
z
" transform="scale(0.015625)"/>
      <path id="DejaVuSans-72" d="M 2631 2963 
Q 2534 3019 2420 3045 
Q 2306 3072 2169 3072 
Q 1681 3072 1420 2755 
Q 1159 2438 1159 1844 
L 1159 0 
L 581 0 
L 581 3500 
L 1159 3500 
L 1159 2956 
Q 1341 3275 1631 3429 
Q 1922 3584 2338 3584 
Q 2397 3584 2469 3576 
Q 2541 3569 2628 3553 
L 2631 2963 
z
" transform="scale(0.015625)"/>
      <path id="DejaVuSans-6d" d="M 3328 2828 
Q 3544 3216 3844 3400 
Q 4144 3584 4550 3584 
Q 5097 3584 5394 3201 
Q 5691 2819 5691 2113 
L 5691 0 
L 5113 0 
L 5113 2094 
Q 5113 2597 4934 2840 
Q 4756 3084 4391 3084 
Q 3944 3084 3684 2787 
Q 3425 2491 3425 1978 
L 3425 0 
L 2847 0 
L 2847 2094 
Q 2847 2600 2669 2842 
Q 2491 3084 2119 3084 
Q 1678 3084 1418 2786 
Q 1159 2488 1159 1978 
L 1159 0 
L 581 0 
L 581 3500 
L 1159 3500 
L 1159 2956 
Q 1356 3278 1631 3431 
Q 1906 3584 2284 3584 
Q 2666 3584 2933 3390 
Q 3200 3197 3328 2828 
z
" transform="scale(0.015625)"/>
      <path id="DejaVuSans-77" d="M 269 3500 
L 844 3500 
L 1563 769 
L 2278 3500 
L 2956 3500 
L 3675 769 
L 4391 3500 
L 4966 3500 
L 4050 0 
L 3372 0 
L 2619 2869 
L 1863 0 
L 1184 0 
L 269 3500 
z
" transform="scale(0.015625)"/>
      <path id="DejaVuSans-64" d="M 2906 2969 
L 2906 4863 
L 3481 4863 
L 3481 0 
L 2906 0 
L 2906 525 
Q 2725 213 2448 61 
Q 2172 -91 1784 -91 
Q 1150 -91 751 415 
Q 353 922 353 1747 
Q 353 2572 751 3078 
Q 1150 3584 1784 3584 
Q 2172 3584 2448 3432 
Q 2725 3281 2906 2969 
z
M 947 1747 
Q 947 1113 1208 752 
Q 1469 391 1925 391 
Q 2381 391 2643 752 
Q 2906 1113 2906 1747 
Q 2906 2381 2643 2742 
Q 2381 3103 1925 3103 
Q 1469 3103 1208 2742 
Q 947 2381 947 1747 
z
" transform="scale(0.015625)"/>
      <path id="DejaVuSans-2c" d="M 750 794 
L 1409 794 
L 1409 256 
L 897 -744 
L 494 -744 
L 750 256 
L 750 794 
z
" transform="scale(0.015625)"/>
      <path id="DejaVuSans-67" d="M 2906 1791 
Q 2906 2416 2648 2759 
Q 2391 3103 1925 3103 
Q 1463 3103 1205 2759 
Q 947 2416 947 1791 
Q 947 1169 1205 825 
Q 1463 481 1925 481 
Q 2391 481 2648 825 
Q 2906 1169 2906 1791 
z
M 3481 434 
Q 3481 -459 3084 -895 
Q 2688 -1331 1869 -1331 
Q 1566 -1331 1297 -1286 
Q 1028 -1241 775 -1147 
L 775 -588 
Q 1028 -725 1275 -790 
Q 1522 -856 1778 -856 
Q 2344 -856 2625 -561 
Q 2906 -266 2906 331 
L 2906 616 
Q 2728 306 2450 153 
Q 2172 0 1784 0 
Q 1141 0 747 490 
Q 353 981 353 1791 
Q 353 2603 747 3093 
Q 1141 3584 1784 3584 
Q 2172 3584 2450 3431 
Q 2728 3278 2906 2969 
L 2906 3500 
L 3481 3500 
L 3481 434 
z
" transform="scale(0.015625)"/>
      <path id="DejaVuSans-62" d="M 3116 1747 
Q 3116 2381 2855 2742 
Q 2594 3103 2138 3103 
Q 1681 3103 1420 2742 
Q 1159 2381 1159 1747 
Q 1159 1113 1420 752 
Q 1681 391 2138 391 
Q 2594 391 2855 752 
Q 3116 1113 3116 1747 
z
M 1159 2969 
Q 1341 3281 1617 3432 
Q 1894 3584 2278 3584 
Q 2916 3584 3314 3078 
Q 3713 2572 3713 1747 
Q 3713 922 3314 415 
Q 2916 -91 2278 -91 
Q 1894 -91 1617 61 
Q 1341 213 1159 525 
L 1159 0 
L 581 0 
L 581 4863 
L 1159 4863 
L 1159 2969 
z
" transform="scale(0.015625)"/>
      <path id="DejaVuSans-6b" d="M 581 4863 
L 1159 4863 
L 1159 1991 
L 2875 3500 
L 3609 3500 
L 1753 1863 
L 3688 0 
L 2938 0 
L 1159 1709 
L 1159 0 
L 581 0 
L 581 4863 
z
" transform="scale(0.015625)"/>
      <path id="DejaVuSans-78" d="M 3513 3500 
L 2247 1797 
L 3578 0 
L 2900 0 
L 1881 1375 
L 863 0 
L 184 0 
L 1544 1831 
L 300 3500 
L 978 3500 
L 1906 2253 
L 2834 3500 
L 3513 3500 
z
" transform="scale(0.015625)"/>
      <path id="DejaVuSans-2e" d="M 684 794 
L 1344 794 
L 1344 0 
L 684 0 
L 684 794 
z
" transform="scale(0.015625)"/>
     </defs>
     <use xlink:href="#DejaVuSans-45"/>
     <use xlink:href="#DejaVuSans-61" x="63.183594"/>
     <use xlink:href="#DejaVuSans-63" x="124.462891"/>
     <use xlink:href="#DejaVuSans-68" x="179.443359"/>
     <use xlink:href="#DejaVuSans-20" x="242.822266"/>
     <use xlink:href="#DejaVuSans-73" x="274.609375"/>
     <use xlink:href="#DejaVuSans-74" x="326.708984"/>
     <use xlink:href="#DejaVuSans-65" x="365.917969"/>
     <use xlink:href="#DejaVuSans-70" x="427.441406"/>
     <use xlink:href="#DejaVuSans-20" x="490.917969"/>
     <use xlink:href="#DejaVuSans-70" x="522.705078"/>
     <use xlink:href="#DejaVuSans-75" x="586.181641"/>
     <use xlink:href="#DejaVuSans-73" x="649.560547"/>
     <use xlink:href="#DejaVuSans-68" x="701.660156"/>
     <use xlink:href="#DejaVuSans-65" x="765.039062"/>
     <use xlink:href="#DejaVuSans-73" x="826.5625"/>
     <use xlink:href="#DejaVuSans-20" x="878.662109"/>
     <use xlink:href="#DejaVuSans-69" x="910.449219"/>
     <use xlink:href="#DejaVuSans-6e" x="938.232422"/>
     <use xlink:href="#DejaVuSans-66" x="1001.611328"/>
     <use xlink:href="#DejaVuSans-6f" x="1036.816406"/>
     <use xlink:href="#DejaVuSans-72" x="1097.998047"/>
     <use xlink:href="#DejaVuSans-6d" x="1137.361328"/>
     <use xlink:href="#DejaVuSans-61" x="1234.773438"/>
     <use xlink:href="#DejaVuSans-74" x="1296.052734"/>
     <use xlink:href="#DejaVuSans-69" x="1335.261719"/>
     <use xlink:href="#DejaVuSans-6f" x="1363.044922"/>
     <use xlink:href="#DejaVuSans-6e" x="1424.226562"/>
     <use xlink:href="#DejaVuSans-20" x="1487.605469"/>
     <use xlink:href="#DejaVuSans-66" x="1519.392578"/>
     <use xlink:href="#DejaVuSans-6f" x="1554.597656"/>
     <use xlink:href="#DejaVuSans-72" x="1615.779297"/>
     <use xlink:href="#DejaVuSans-77" x="1656.892578"/>
     <use xlink:href="#DejaVuSans-61" x="1738.679688"/>
     <use xlink:href="#DejaVuSans-72" x="1799.958984"/>
     <use xlink:href="#DejaVuSans-64" x="1839.322266"/>
     <use xlink:href="#DejaVuSans-2c" x="1902.798828"/>
     <use xlink:href="#DejaVuSans-20" x="1934.585938"/>
     <use xlink:href="#DejaVuSans-74" x="1966.373047"/>
     <use xlink:href="#DejaVuSans-68" x="2005.582031"/>
     <use xlink:href="#DejaVuSans-65" x="2068.960938"/>
     <use xlink:href="#DejaVuSans-6e" x="2130.484375"/>
     <use xlink:href="#DejaVuSans-20" x="2193.863281"/>
     <use xlink:href="#DejaVuSans-67" x="2225.650391"/>
     <use xlink:href="#DejaVuSans-72" x="2289.126953"/>
     <use xlink:href="#DejaVuSans-61" x="2330.240234"/>
     <use xlink:href="#DejaVuSans-64" x="2391.519531"/>
     <use xlink:href="#DejaVuSans-69" x="2454.996094"/>
     <use xlink:href="#DejaVuSans-65" x="2482.779297"/>
     <use xlink:href="#DejaVuSans-6e" x="2544.302734"/>
     <use xlink:href="#DejaVuSans-74" x="2607.681641"/>
     <use xlink:href="#DejaVuSans-73" x="2646.890625"/>
     <use xlink:href="#DejaVuSans-20" x="2698.990234"/>
     <use xlink:href="#DejaVuSans-62" x="2730.777344"/>
     <use xlink:href="#DejaVuSans-61" x="2794.253906"/>
     <use xlink:href="#DejaVuSans-63" x="2855.533203"/>
     <use xlink:href="#DejaVuSans-6b" x="2910.513672"/>
     <use xlink:href="#DejaVuSans-77" x="2968.423828"/>
     <use xlink:href="#DejaVuSans-61" x="3050.210938"/>
     <use xlink:href="#DejaVuSans-72" x="3111.490234"/>
     <use xlink:href="#DejaVuSans-64" x="3150.853516"/>
     <use xlink:href="#DejaVuSans-2c" x="3214.330078"/>
     <use xlink:href="#DejaVuSans-20" x="3246.117188"/>
     <use xlink:href="#DejaVuSans-74" x="3277.904297"/>
     <use xlink:href="#DejaVuSans-68" x="3317.113281"/>
     <use xlink:href="#DejaVuSans-65" x="3380.492188"/>
     <use xlink:href="#DejaVuSans-6e" x="3442.015625"/>
     <use xlink:href="#DejaVuSans-20" x="3505.394531"/>
     <use xlink:href="#DejaVuSans-75" x="3537.181641"/>
     <use xlink:href="#DejaVuSans-70" x="3600.560547"/>
     <use xlink:href="#DejaVuSans-64" x="3664.037109"/>
     <use xlink:href="#DejaVuSans-61" x="3727.513672"/>
     <use xlink:href="#DejaVuSans-74" x="3788.792969"/>
     <use xlink:href="#DejaVuSans-65" x="3828.001953"/>
     <use xlink:href="#DejaVuSans-73" x="3889.525391"/>
     <use xlink:href="#DejaVuSans-20" x="3941.625"/>
     <use xlink:href="#DejaVuSans-70" x="3973.412109"/>
     <use xlink:href="#DejaVuSans-61" x="4036.888672"/>
     <use xlink:href="#DejaVuSans-72" x="4098.167969"/>
     <use xlink:href="#DejaVuSans-61" x="4139.28125"/>
     <use xlink:href="#DejaVuSans-6d" x="4200.560547"/>
     <use xlink:href="#DejaVuSans-65" x="4297.972656"/>
     <use xlink:href="#DejaVuSans-74" x="4359.496094"/>
     <use xlink:href="#DejaVuSans-65" x="4398.705078"/>
     <use xlink:href="#DejaVuSans-72" x="4460.228516"/>
     <use xlink:href="#DejaVuSans-73" x="4501.341797"/>
     <use xlink:href="#DejaVuSans-20" x="4553.441406"/>
     <use xlink:href="#DejaVuSans-66" x="4585.228516"/>
     <use xlink:href="#DejaVuSans-6f" x="4620.433594"/>
     <use xlink:href="#DejaVuSans-72" x="4681.615234"/>
     <use xlink:href="#DejaVuSans-20" x="4722.728516"/>
     <use xlink:href="#DejaVuSans-74" x="4754.515625"/>
     <use xlink:href="#DejaVuSans-68" x="4793.724609"/>
     <use xlink:href="#DejaVuSans-65" x="4857.103516"/>
     <use xlink:href="#DejaVuSans-20" x="4918.626953"/>
     <use xlink:href="#DejaVuSans-6e" x="4950.414062"/>
     <use xlink:href="#DejaVuSans-65" x="5013.792969"/>
     <use xlink:href="#DejaVuSans-78" x="5073.566406"/>
     <use xlink:href="#DejaVuSans-74" x="5132.746094"/>
     <use xlink:href="#DejaVuSans-20" x="5171.955078"/>
     <use xlink:href="#DejaVuSans-62" x="5203.742188"/>
     <use xlink:href="#DejaVuSans-61" x="5267.21875"/>
     <use xlink:href="#DejaVuSans-74" x="5328.498047"/>
     <use xlink:href="#DejaVuSans-63" x="5367.707031"/>
     <use xlink:href="#DejaVuSans-68" x="5422.6875"/>
     <use xlink:href="#DejaVuSans-2e" x="5486.066406"/>
    </g>
   </g>
   <g id="text_7">
    <!-- theta &lt;- theta - eta * grad(L) -->
    <g style="fill: #7c3aed" transform="translate(321.347656 447.109744) scale(0.13 -0.13)">
     <defs>
      <path id="DejaVuSans-Bold-3c" d="M 4684 3041 
L 1672 2003 
L 4684 972 
L 4684 191 
L 678 1638 
L 678 2375 
L 4684 3822 
L 4684 3041 
z
" transform="scale(0.015625)"/>
      <path id="DejaVuSans-Bold-2d" d="M 347 2297 
L 2309 2297 
L 2309 1388 
L 347 1388 
L 347 2297 
z
" transform="scale(0.015625)"/>
      <path id="DejaVuSans-Bold-2a" d="M 3219 3803 
L 2188 3263 
L 3219 2719 
L 2981 2278 
L 1941 2853 
L 1941 1778 
L 1409 1778 
L 1409 2853 
L 366 2278 
L 128 2719 
L 1172 3263 
L 128 3803 
L 366 4244 
L 1409 3675 
L 1409 4750 
L 1941 4750 
L 1941 3675 
L 2981 4244 
L 3219 3803 
z
" transform="scale(0.015625)"/>
      <path id="DejaVuSans-Bold-28" d="M 2413 -844 
L 1484 -844 
Q 1006 -72 778 623 
Q 550 1319 550 2003 
Q 550 2688 779 3389 
Q 1009 4091 1484 4856 
L 2413 4856 
Q 2013 4116 1813 3408 
Q 1613 2700 1613 2009 
Q 1613 1319 1811 609 
Q 2009 -100 2413 -844 
z
" transform="scale(0.015625)"/>
      <path id="DejaVuSans-Bold-4c" d="M 588 4666 
L 1791 4666 
L 1791 909 
L 3903 909 
L 3903 0 
L 588 0 
L 588 4666 
z
" transform="scale(0.015625)"/>
      <path id="DejaVuSans-Bold-29" d="M 513 -844 
Q 913 -100 1113 609 
Q 1313 1319 1313 2009 
Q 1313 2700 1113 3408 
Q 913 4116 513 4856 
L 1441 4856 
Q 1916 4091 2145 3389 
Q 2375 2688 2375 2003 
Q 2375 1319 2147 623 
Q 1919 -72 1441 -844 
L 513 -844 
z
" transform="scale(0.015625)"/>
     </defs>
     <use xlink:href="#DejaVuSans-Bold-74"/>
     <use xlink:href="#DejaVuSans-Bold-68" x="47.802734"/>
     <use xlink:href="#DejaVuSans-Bold-65" x="118.994141"/>
     <use xlink:href="#DejaVuSans-Bold-74" x="186.816406"/>
     <use xlink:href="#DejaVuSans-Bold-61" x="234.619141"/>
     <use xlink:href="#DejaVuSans-Bold-20" x="302.099609"/>
     <use xlink:href="#DejaVuSans-Bold-3c" x="336.914062"/>
     <use xlink:href="#DejaVuSans-Bold-2d" x="420.703125"/>
     <use xlink:href="#DejaVuSans-Bold-20" x="462.207031"/>
     <use xlink:href="#DejaVuSans-Bold-74" x="497.021484"/>
     <use xlink:href="#DejaVuSans-Bold-68" x="544.824219"/>
     <use xlink:href="#DejaVuSans-Bold-65" x="616.015625"/>
     <use xlink:href="#DejaVuSans-Bold-74" x="683.837891"/>
     <use xlink:href="#DejaVuSans-Bold-61" x="731.640625"/>
     <use xlink:href="#DejaVuSans-Bold-20" x="799.121094"/>
     <use xlink:href="#DejaVuSans-Bold-2d" x="833.935547"/>
     <use xlink:href="#DejaVuSans-Bold-20" x="875.439453"/>
     <use xlink:href="#DejaVuSans-Bold-65" x="910.253906"/>
     <use xlink:href="#DejaVuSans-Bold-74" x="978.076172"/>
     <use xlink:href="#DejaVuSans-Bold-61" x="1025.878906"/>
     <use xlink:href="#DejaVuSans-Bold-20" x="1093.359375"/>
     <use xlink:href="#DejaVuSans-Bold-2a" x="1128.173828"/>
     <use xlink:href="#DejaVuSans-Bold-20" x="1180.46875"/>
     <use xlink:href="#DejaVuSans-Bold-67" x="1215.283203"/>
     <use xlink:href="#DejaVuSans-Bold-72" x="1286.865234"/>
     <use xlink:href="#DejaVuSans-Bold-61" x="1336.181641"/>
     <use xlink:href="#DejaVuSans-Bold-64" x="1403.662109"/>
     <use xlink:href="#DejaVuSans-Bold-28" x="1475.244141"/>
     <use xlink:href="#DejaVuSans-Bold-4c" x="1520.947266"/>
     <use xlink:href="#DejaVuSans-Bold-29" x="1584.667969"/>
    </g>
   </g>
   <g id="text_8">
    <!-- Neural Network Training Loop -->
    <g style="fill: #0f172a" transform="translate(284.207891 20.117344) scale(0.17 -0.17)">
     <defs>
      <path id="DejaVuSans-Bold-4e" d="M 588 4666 
L 1931 4666 
L 3628 1466 
L 3628 4666 
L 4769 4666 
L 4769 0 
L 3425 0 
L 1728 3200 
L 1728 0 
L 588 0 
L 588 4666 
z
" transform="scale(0.015625)"/>
      <path id="DejaVuSans-Bold-54" d="M 31 4666 
L 4331 4666 
L 4331 3756 
L 2784 3756 
L 2784 0 
L 1581 0 
L 1581 3756 
L 31 3756 
L 31 4666 
z
" transform="scale(0.015625)"/>
     </defs>
     <use xlink:href="#DejaVuSans-Bold-4e"/>
     <use xlink:href="#DejaVuSans-Bold-65" x="83.691406"/>
     <use xlink:href="#DejaVuSans-Bold-75" x="151.513672"/>
     <use xlink:href="#DejaVuSans-Bold-72" x="222.705078"/>
     <use xlink:href="#DejaVuSans-Bold-61" x="272.021484"/>
     <use xlink:href="#DejaVuSans-Bold-6c" x="339.501953"/>
     <use xlink:href="#DejaVuSans-Bold-20" x="373.779297"/>
     <use xlink:href="#DejaVuSans-Bold-4e" x="408.59375"/>
     <use xlink:href="#DejaVuSans-Bold-65" x="492.285156"/>
     <use xlink:href="#DejaVuSans-Bold-74" x="560.107422"/>
     <use xlink:href="#DejaVuSans-Bold-77" x="607.910156"/>
     <use xlink:href="#DejaVuSans-Bold-6f" x="700.292969"/>
     <use xlink:href="#DejaVuSans-Bold-72" x="768.994141"/>
     <use xlink:href="#DejaVuSans-Bold-6b" x="818.310547"/>
     <use xlink:href="#DejaVuSans-Bold-20" x="884.814453"/>
     <use xlink:href="#DejaVuSans-Bold-54" x="919.628906"/>
     <use xlink:href="#DejaVuSans-Bold-72" x="976.841797"/>
     <use xlink:href="#DejaVuSans-Bold-61" x="1026.158203"/>
     <use xlink:href="#DejaVuSans-Bold-69" x="1093.638672"/>
     <use xlink:href="#DejaVuSans-Bold-6e" x="1127.916016"/>
     <use xlink:href="#DejaVuSans-Bold-69" x="1199.107422"/>
     <use xlink:href="#DejaVuSans-Bold-6e" x="1233.384766"/>
     <use xlink:href="#DejaVuSans-Bold-67" x="1304.576172"/>
     <use xlink:href="#DejaVuSans-Bold-20" x="1376.158203"/>
     <use xlink:href="#DejaVuSans-Bold-4c" x="1410.972656"/>
     <use xlink:href="#DejaVuSans-Bold-6f" x="1474.693359"/>
     <use xlink:href="#DejaVuSans-Bold-6f" x="1543.394531"/>
     <use xlink:href="#DejaVuSans-Bold-70" x="1612.095703"/>
    </g>
   </g>
  </g>
 </g>
 <defs>
  <clipPath id="pbc1c8df47e">
   <rect x="7.2" y="36.117344" width="840.24" height="451.64"/>
  </clipPath>
 </defs>
</svg>
