<?xml version="1.0" encoding="utf-8" standalone="no"?>
<!DOCTYPE svg PUBLIC "-//W3C//DTD SVG 1.1//EN"
  "http://www.w3.org/Graphics/SVG/1.1/DTD/svg11.dtd">
<svg xmlns:xlink="http://www.w3.org/1999/xlink" width="926.64pt" height="408.24pt" viewBox="0 0 926.64 408.24" xmlns="http://www.w3.org/2000/svg" version="1.1">
 <metadata>
  <rdf:RDF xmlns:dc="http://purl.org/dc/elements/1.1/" xmlns:cc="http://creativecommons.org/ns#" xmlns:rdf="http://www.w3.org/1999/02/22-rdf-syntax-ns#">
   <cc:Work>
    <dc:type rdf:resource="http://purl.org/dc/dcmitype/StillImage"/>
    <dc:date>2026-03-20T01:55:32.286637</dc:date>
    <dc:format>image/svg+xml</dc:format>
    <dc:creator>
     <cc:Agent>
      <dc:title>Matplotlib v3.9.0, https://matplotlib.org/</dc:title>
     </cc:Agent>
    </dc:creator>
   </cc:Work>
  </rdf:RDF>
 </metadata>
 <defs>
  <style type="text/css">*{stroke-linejoin: round; stroke-linecap: butt}</style>
 </defs>
 <g id="figure_1">
  <g id="patch_1">
   <path d="M 0 408.24 
L 926.64 408.24 
L 926.64 0 
L 0 0 
z
" style="fill: #ffffff"/>
  </g>
  <g id="axes_1">
   <g id="patch_2">
    <path d="M 52.812 290.7648 
L 217.0152 290.7648 
Q 235.26 290.7648 235.26 282.888 
L 235.26 172.6128 
Q 235.26 164.736 217.0152 164.736 
L 52.812 164.736 
Q 34.5672 164.736 34.5672 172.6128 
L 34.5672 282.888 
Q 34.5672 290.7648 52.812 290.7648 
z
" clip-path="url(#pac947f863a)" style="fill: #eff6ff; stroke: #60a5fa; stroke-width: 1.6; stroke-linejoin: miter"/>
   </g>
   <g id="patch_3">
    <path d="M 271.7496 290.7648 
L 435.9528 290.7648 
Q 454.1976 290.7648 454.1976 282.888 
L 454.1976 172.6128 
Q 454.1976 164.736 435.9528 164.736 
L 271.7496 164.736 
Q 253.5048 164.736 253.5048 172.6128 
L 253.5048 282.888 
Q 253.5048 290.7648 271.7496 290.7648 
z
" clip-path="url(#pac947f863a)" style="fill: #dbeafe; stroke: #2563eb; stroke-width: 1.6; stroke-linejoin: miter"/>
   </g>
   <g id="patch_4">
    <path d="M 490.6872 290.7648 
L 654.8904 290.7648 
Q 673.1352 290.7648 673.1352 282.888 
L 673.1352 172.6128 
Q 673.1352 164.736 654.8904 164.736 
L 490.6872 164.736 
Q 472.4424 164.736 472.4424 172.6128 
L 472.4424 282.888 
Q 472.4424 290.7648 490.6872 290.7648 
z
" clip-path="url(#pac947f863a)" style="fill: #fef3c7; stroke: #f59e0b; stroke-width: 1.6; stroke-linejoin: miter"/>
   </g>
   <g id="patch_5">
    <path d="M 709.6248 290.7648 
L 873.828 290.7648 
Q 892.0728 290.7648 892.0728 282.888 
L 892.0728 172.6128 
Q 892.0728 164.736 873.828 164.736 
L 709.6248 164.736 
Q 691.38 164.736 691.38 172.6128 
L 691.38 282.888 
Q 691.38 290.7648 709.6248 290.7648 
z
" clip-path="url(#pac947f863a)" style="fill: #dcfce7; stroke: #22c55e; stroke-width: 1.6; stroke-linejoin: miter"/>
   </g>
   <g id="patch_6">
    <path d="M 219.016293 227.7504 
Q 244.383576 227.7504 267.962004 227.7504 
" clip-path="url(#pac947f863a)" style="fill: none; stroke: #475569; stroke-width: 1.6; stroke-linecap: round"/>
    <path d="M 261.962004 224.7504 
L 267.962004 227.7504 
L 261.962004 230.7504 
" clip-path="url(#pac947f863a)" style="fill: none; stroke: #475569; stroke-width: 1.6; stroke-linecap: round"/>
   </g>
   <g id="patch_7">
    <path d="M 437.953893 227.7504 
Q 463.321176 227.7504 486.899604 227.7504 
" clip-path="url(#pac947f863a)" style="fill: none; stroke: #475569; stroke-width: 1.6; stroke-linecap: round"/>
    <path d="M 480.899604 224.7504 
L 486.899604 227.7504 
L 480.899604 230.7504 
" clip-path="url(#pac947f863a)" style="fill: none; stroke: #475569; stroke-width: 1.6; stroke-linecap: round"/>
   </g>
   <g id="patch_8">
    <path d="M 656.891493 227.7504 
Q 682.258776 227.7504 705.837204 227.7504 
" clip-path="url(#pac947f863a)" style="fill: none; stroke: #475569; stroke-width: 1.6; stroke-linecap: round"/>
    <path d="M 699.837204 224.7504 
L 705.837204 227.7504 
L 699.837204 230.7504 
" clip-path="url(#pac947f863a)" style="fill: none; stroke: #475569; stroke-width: 1.6; stroke-linecap: round"/>
   </g>
   <g id="text_1">
    <!-- Apps / Users -->
    <g style="fill: #0f172a" transform="translate(71.0568 197.484525) scale(0.12 -0.12)">
     <defs>
      <path id="DejaVuSans-Bold-41" d="M 3419 850 
L 1538 850 
L 1241 0 
L 31 0 
L 1759 4666 
L 3194 4666 
L 4922 0 
L 3713 0 
L 3419 850 
z
M 1838 1716 
L 3116 1716 
L 2478 3572 
L 1838 1716 
z
" transform="scale(0.015625)"/>
      <path id="DejaVuSans-Bold-70" d="M 1656 506 
L 1656 -1331 
L 538 -1331 
L 538 3500 
L 1656 3500 
L 1656 2988 
Q 1888 3294 2169 3439 
Q 2450 3584 2816 3584 
Q 3463 3584 3878 3070 
Q 4294 2556 4294 1747 
Q 4294 938 3878 423 
Q 3463 -91 2816 -91 
Q 2450 -91 2169 54 
Q 1888 200 1656 506 
z
M 2400 2772 
Q 2041 2772 1848 2508 
Q 1656 2244 1656 1747 
Q 1656 1250 1848 986 
Q 2041 722 2400 722 
Q 2759 722 2948 984 
Q 3138 1247 3138 1747 
Q 3138 2247 2948 2509 
Q 2759 2772 2400 2772 
z
" transform="scale(0.015625)"/>
      <path id="DejaVuSans-Bold-73" d="M 3272 3391 
L 3272 2541 
Q 2913 2691 2578 2766 
Q 2244 2841 1947 2841 
Q 1628 2841 1473 2761 
Q 1319 2681 1319 2516 
Q 1319 2381 1436 2309 
Q 1553 2238 1856 2203 
L 2053 2175 
Q 2913 2066 3209 1816 
Q 3506 1566 3506 1031 
Q 3506 472 3093 190 
Q 2681 -91 1863 -91 
Q 1516 -91 1145 -36 
Q 775 19 384 128 
L 384 978 
Q 719 816 1070 734 
Q 1422 653 1784 653 
Q 2113 653 2278 743 
Q 2444 834 2444 1013 
Q 2444 1163 2330 1236 
Q 2216 1309 1875 1350 
L 1678 1375 
Q 931 1469 631 1722 
Q 331 1975 331 2491 
Q 331 3047 712 3315 
Q 1094 3584 1881 3584 
Q 2191 3584 2531 3537 
Q 2872 3491 3272 3391 
z
" transform="scale(0.015625)"/>
      <path id="DejaVuSans-Bold-20" transform="scale(0.015625)"/>
      <path id="DejaVuSans-Bold-2f" d="M 1644 4666 
L 2338 4666 
L 691 -594 
L 0 -594 
L 1644 4666 
z
" transform="scale(0.015625)"/>
      <path id="DejaVuSans-Bold-55" d="M 588 4666 
L 1791 4666 
L 1791 1869 
Q 1791 1291 1980 1042 
Q 2169 794 2597 794 
Q 3028 794 3217 1042 
Q 3406 1291 3406 1869 
L 3406 4666 
L 4609 4666 
L 4609 1869 
Q 4609 878 4112 393 
Q 3616 -91 2597 -91 
Q 1581 -91 1084 393 
Q 588 878 588 1869 
L 588 4666 
z
" transform="scale(0.015625)"/>
      <path id="DejaVuSans-Bold-65" d="M 4031 1759 
L 4031 1441 
L 1416 1441 
Q 1456 1047 1700 850 
Q 1944 653 2381 653 
Q 2734 653 3104 758 
Q 3475 863 3866 1075 
L 3866 213 
Q 3469 63 3072 -14 
Q 2675 -91 2278 -91 
Q 1328 -91 801 392 
Q 275 875 275 1747 
Q 275 2603 792 3093 
Q 1309 3584 2216 3584 
Q 3041 3584 3536 3087 
Q 4031 2591 4031 1759 
z
M 2881 2131 
Q 2881 2450 2695 2645 
Q 2509 2841 2209 2841 
Q 1884 2841 1681 2658 
Q 1478 2475 1428 2131 
L 2881 2131 
z
" transform="scale(0.015625)"/>
      <path id="DejaVuSans-Bold-72" d="M 3138 2547 
Q 2991 2616 2845 2648 
Q 2700 2681 2553 2681 
Q 2122 2681 1889 2404 
Q 1656 2128 1656 1613 
L 1656 0 
L 538 0 
L 538 3500 
L 1656 3500 
L 1656 2925 
Q 1872 3269 2151 3426 
Q 2431 3584 2822 3584 
Q 2878 3584 2943 3579 
Q 3009 3575 3134 3559 
L 3138 2547 
z
" transform="scale(0.015625)"/>
     </defs>
     <use xlink:href="#DejaVuSans-Bold-41"/>
     <use xlink:href="#DejaVuSans-Bold-70" x="77.392578"/>
     <use xlink:href="#DejaVuSans-Bold-70" x="148.974609"/>
     <use xlink:href="#DejaVuSans-Bold-73" x="220.556641"/>
     <use xlink:href="#DejaVuSans-Bold-20" x="280.078125"/>
     <use xlink:href="#DejaVuSans-Bold-2f" x="314.892578"/>
     <use xlink:href="#DejaVuSans-Bold-20" x="351.416016"/>
     <use xlink:href="#DejaVuSans-Bold-55" x="386.230469"/>
     <use xlink:href="#DejaVuSans-Bold-73" x="467.431641"/>
     <use xlink:href="#DejaVuSans-Bold-65" x="526.953125"/>
     <use xlink:href="#DejaVuSans-Bold-72" x="594.775391"/>
     <use xlink:href="#DejaVuSans-Bold-73" x="644.091797"/>
    </g>
   </g>
   <g id="text_2">
    <!-- transactions -->
    <g style="fill: #334155" transform="translate(71.0568 227.851959) scale(0.105 -0.105)">
     <defs>
      <path id="DejaVuSans-74" d="M 1172 4494 
L 1172 3500 
L 2356 3500 
L 2356 3053 
L 1172 3053 
L 1172 1153 
Q 1172 725 1289 603 
Q 1406 481 1766 481 
L 2356 481 
L 2356 0 
L 1766 0 
Q 1100 0 847 248 
Q 594 497 594 1153 
L 594 3053 
L 172 3053 
L 172 3500 
L 594 3500 
L 594 4494 
L 1172 4494 
z
" transform="scale(0.015625)"/>
      <path id="DejaVuSans-72" d="M 2631 2963 
Q 2534 3019 2420 3045 
Q 2306 3072 2169 3072 
Q 1681 3072 1420 2755 
Q 1159 2438 1159 1844 
L 1159 0 
L 581 0 
L 581 3500 
L 1159 3500 
L 1159 2956 
Q 1341 3275 1631 3429 
Q 1922 3584 2338 3584 
Q 2397 3584 2469 3576 
Q 2541 3569 2628 3553 
L 2631 2963 
z
" transform="scale(0.015625)"/>
      <path id="DejaVuSans-61" d="M 2194 1759 
Q 1497 1759 1228 1600 
Q 959 1441 959 1056 
Q 959 750 1161 570 
Q 1363 391 1709 391 
Q 2188 391 2477 730 
Q 2766 1069 2766 1631 
L 2766 1759 
L 2194 1759 
z
M 3341 1997 
L 3341 0 
L 2766 0 
L 2766 531 
Q 2569 213 2275 61 
Q 1981 -91 1556 -91 
Q 1019 -91 701 211 
Q 384 513 384 1019 
Q 384 1609 779 1909 
Q 1175 2209 1959 2209 
L 2766 2209 
L 2766 2266 
Q 2766 2663 2505 2880 
Q 2244 3097 1772 3097 
Q 1472 3097 1187 3025 
Q 903 2953 641 2809 
L 641 3341 
Q 956 3463 1253 3523 
Q 1550 3584 1831 3584 
Q 2591 3584 2966 3190 
Q 3341 2797 3341 1997 
z
" transform="scale(0.015625)"/>
      <path id="DejaVuSans-6e" d="M 3513 2113 
L 3513 0 
L 2938 0 
L 2938 2094 
Q 2938 2591 2744 2837 
Q 2550 3084 2163 3084 
Q 1697 3084 1428 2787 
Q 1159 2491 1159 1978 
L 1159 0 
L 581 0 
L 581 3500 
L 1159 3500 
L 1159 2956 
Q 1366 3272 1645 3428 
Q 1925 3584 2291 3584 
Q 2894 3584 3203 3211 
Q 3513 2838 3513 2113 
z
" transform="scale(0.015625)"/>
      <path id="DejaVuSans-73" d="M 2834 3397 
L 2834 2853 
Q 2591 2978 2328 3040 
Q 2066 3103 1784 3103 
Q 1356 3103 1142 2972 
Q 928 2841 928 2578 
Q 928 2378 1081 2264 
Q 1234 2150 1697 2047 
L 1894 2003 
Q 2506 1872 2764 1633 
Q 3022 1394 3022 966 
Q 3022 478 2636 193 
Q 2250 -91 1575 -91 
Q 1294 -91 989 -36 
Q 684 19 347 128 
L 347 722 
Q 666 556 975 473 
Q 1284 391 1588 391 
Q 1994 391 2212 530 
Q 2431 669 2431 922 
Q 2431 1156 2273 1281 
Q 2116 1406 1581 1522 
L 1381 1569 
Q 847 1681 609 1914 
Q 372 2147 372 2553 
Q 372 3047 722 3315 
Q 1072 3584 1716 3584 
Q 2034 3584 2315 3537 
Q 2597 3491 2834 3397 
z
" transform="scale(0.015625)"/>
      <path id="DejaVuSans-63" d="M 3122 3366 
L 3122 2828 
Q 2878 2963 2633 3030 
Q 2388 3097 2138 3097 
Q 1578 3097 1268 2742 
Q 959 2388 959 1747 
Q 959 1106 1268 751 
Q 1578 397 2138 397 
Q 2388 397 2633 464 
Q 2878 531 3122 666 
L 3122 134 
Q 2881 22 2623 -34 
Q 2366 -91 2075 -91 
Q 1284 -91 818 406 
Q 353 903 353 1747 
Q 353 2603 823 3093 
Q 1294 3584 2113 3584 
Q 2378 3584 2631 3529 
Q 2884 3475 3122 3366 
z
" transform="scale(0.015625)"/>
      <path id="DejaVuSans-69" d="M 603 3500 
L 1178 3500 
L 1178 0 
L 603 0 
L 603 3500 
z
M 603 4863 
L 1178 4863 
L 1178 4134 
L 603 4134 
L 603 4863 
z
" transform="scale(0.015625)"/>
      <path id="DejaVuSans-6f" d="M 1959 3097 
Q 1497 3097 1228 2736 
Q 959 2375 959 1747 
Q 959 1119 1226 758 
Q 1494 397 1959 397 
Q 2419 397 2687 759 
Q 2956 1122 2956 1747 
Q 2956 2369 2687 2733 
Q 2419 3097 1959 3097 
z
M 1959 3584 
Q 2709 3584 3137 3096 
Q 3566 2609 3566 1747 
Q 3566 888 3137 398 
Q 2709 -91 1959 -91 
Q 1206 -91 779 398 
Q 353 888 353 1747 
Q 353 2609 779 3096 
Q 1206 3584 1959 3584 
z
" transform="scale(0.015625)"/>
     </defs>
     <use xlink:href="#DejaVuSans-74"/>
     <use xlink:href="#DejaVuSans-72" x="39.208984"/>
     <use xlink:href="#DejaVuSans-61" x="80.322266"/>
     <use xlink:href="#DejaVuSans-6e" x="141.601562"/>
     <use xlink:href="#DejaVuSans-73" x="204.980469"/>
     <use xlink:href="#DejaVuSans-61" x="257.080078"/>
     <use xlink:href="#DejaVuSans-63" x="318.359375"/>
     <use xlink:href="#DejaVuSans-74" x="373.339844"/>
     <use xlink:href="#DejaVuSans-69" x="412.548828"/>
     <use xlink:href="#DejaVuSans-6f" x="440.332031"/>
     <use xlink:href="#DejaVuSans-6e" x="501.513672"/>
     <use xlink:href="#DejaVuSans-73" x="564.892578"/>
    </g>
    <!-- reads and writes -->
    <g style="fill: #334155" transform="translate(71.0568 239.609662) scale(0.105 -0.105)">
     <defs>
      <path id="DejaVuSans-65" d="M 3597 1894 
L 3597 1613 
L 953 1613 
Q 991 1019 1311 708 
Q 1631 397 2203 397 
Q 2534 397 2845 478 
Q 3156 559 3463 722 
L 3463 178 
Q 3153 47 2828 -22 
Q 2503 -91 2169 -91 
Q 1331 -91 842 396 
Q 353 884 353 1716 
Q 353 2575 817 3079 
Q 1281 3584 2069 3584 
Q 2775 3584 3186 3129 
Q 3597 2675 3597 1894 
z
M 3022 2063 
Q 3016 2534 2758 2815 
Q 2500 3097 2075 3097 
Q 1594 3097 1305 2825 
Q 1016 2553 972 2059 
L 3022 2063 
z
" transform="scale(0.015625)"/>
      <path id="DejaVuSans-64" d="M 2906 2969 
L 2906 4863 
L 3481 4863 
L 3481 0 
L 2906 0 
L 2906 525 
Q 2725 213 2448 61 
Q 2172 -91 1784 -91 
Q 1150 -91 751 415 
Q 353 922 353 1747 
Q 353 2572 751 3078 
Q 1150 3584 1784 3584 
Q 2172 3584 2448 3432 
Q 2725 3281 2906 2969 
z
M 947 1747 
Q 947 1113 1208 752 
Q 1469 391 1925 391 
Q 2381 391 2643 752 
Q 2906 1113 2906 1747 
Q 2906 2381 2643 2742 
Q 2381 3103 1925 3103 
Q 1469 3103 1208 2742 
Q 947 2381 947 1747 
z
" transform="scale(0.015625)"/>
      <path id="DejaVuSans-20" transform="scale(0.015625)"/>
      <path id="DejaVuSans-77" d="M 269 3500 
L 844 3500 
L 1563 769 
L 2278 3500 
L 2956 3500 
L 3675 769 
L 4391 3500 
L 4966 3500 
L 4050 0 
L 3372 0 
L 2619 2869 
L 1863 0 
L 1184 0 
L 269 3500 
z
" transform="scale(0.015625)"/>
     </defs>
     <use xlink:href="#DejaVuSans-72"/>
     <use xlink:href="#DejaVuSans-65" x="38.863281"/>
     <use xlink:href="#DejaVuSans-61" x="100.386719"/>
     <use xlink:href="#DejaVuSans-64" x="161.666016"/>
     <use xlink:href="#DejaVuSans-73" x="225.142578"/>
     <use xlink:href="#DejaVuSans-20" x="277.242188"/>
     <use xlink:href="#DejaVuSans-61" x="309.029297"/>
     <use xlink:href="#DejaVuSans-6e" x="370.308594"/>
     <use xlink:href="#DejaVuSans-64" x="433.6875"/>
     <use xlink:href="#DejaVuSans-20" x="497.164062"/>
     <use xlink:href="#DejaVuSans-77" x="528.951172"/>
     <use xlink:href="#DejaVuSans-72" x="610.738281"/>
     <use xlink:href="#DejaVuSans-69" x="651.851562"/>
     <use xlink:href="#DejaVuSans-74" x="679.634766"/>
     <use xlink:href="#DejaVuSans-65" x="718.84375"/>
     <use xlink:href="#DejaVuSans-73" x="780.367188"/>
    </g>
    <!-- serving the product -->
    <g style="fill: #334155" transform="translate(71.0568 251.367366) scale(0.105 -0.105)">
     <defs>
      <path id="DejaVuSans-76" d="M 191 3500 
L 800 3500 
L 1894 563 
L 2988 3500 
L 3597 3500 
L 2284 0 
L 1503 0 
L 191 3500 
z
" transform="scale(0.015625)"/>
      <path id="DejaVuSans-67" d="M 2906 1791 
Q 2906 2416 2648 2759 
Q 2391 3103 1925 3103 
Q 1463 3103 1205 2759 
Q 947 2416 947 1791 
Q 947 1169 1205 825 
Q 1463 481 1925 481 
Q 2391 481 2648 825 
Q 2906 1169 2906 1791 
z
M 3481 434 
Q 3481 -459 3084 -895 
Q 2688 -1331 1869 -1331 
Q 1566 -1331 1297 -1286 
Q 1028 -1241 775 -1147 
L 775 -588 
Q 1028 -725 1275 -790 
Q 1522 -856 1778 -856 
Q 2344 -856 2625 -561 
Q 2906 -266 2906 331 
L 2906 616 
Q 2728 306 2450 153 
Q 2172 0 1784 0 
Q 1141 0 747 490 
Q 353 981 353 1791 
Q 353 2603 747 3093 
Q 1141 3584 1784 3584 
Q 2172 3584 2450 3431 
Q 2728 3278 2906 2969 
L 2906 3500 
L 3481 3500 
L 3481 434 
z
" transform="scale(0.015625)"/>
      <path id="DejaVuSans-68" d="M 3513 2113 
L 3513 0 
L 2938 0 
L 2938 2094 
Q 2938 2591 2744 2837 
Q 2550 3084 2163 3084 
Q 1697 3084 1428 2787 
Q 1159 2491 1159 1978 
L 1159 0 
L 581 0 
L 581 4863 
L 1159 4863 
L 1159 2956 
Q 1366 3272 1645 3428 
Q 1925 3584 2291 3584 
Q 2894 3584 3203 3211 
Q 3513 2838 3513 2113 
z
" transform="scale(0.015625)"/>
      <path id="DejaVuSans-70" d="M 1159 525 
L 1159 -1331 
L 581 -1331 
L 581 3500 
L 1159 3500 
L 1159 2969 
Q 1341 3281 1617 3432 
Q 1894 3584 2278 3584 
Q 2916 3584 3314 3078 
Q 3713 2572 3713 1747 
Q 3713 922 3314 415 
Q 2916 -91 2278 -91 
Q 1894 -91 1617 61 
Q 1341 213 1159 525 
z
M 3116 1747 
Q 3116 2381 2855 2742 
Q 2594 3103 2138 3103 
Q 1681 3103 1420 2742 
Q 1159 2381 1159 1747 
Q 1159 1113 1420 752 
Q 1681 391 2138 391 
Q 2594 391 2855 752 
Q 3116 1113 3116 1747 
z
" transform="scale(0.015625)"/>
      <path id="DejaVuSans-75" d="M 544 1381 
L 544 3500 
L 1119 3500 
L 1119 1403 
Q 1119 906 1312 657 
Q 1506 409 1894 409 
Q 2359 409 2629 706 
Q 2900 1003 2900 1516 
L 2900 3500 
L 3475 3500 
L 3475 0 
L 2900 0 
L 2900 538 
Q 2691 219 2414 64 
Q 2138 -91 1772 -91 
Q 1169 -91 856 284 
Q 544 659 544 1381 
z
M 1991 3584 
L 1991 3584 
z
" transform="scale(0.015625)"/>
     </defs>
     <use xlink:href="#DejaVuSans-73"/>
     <use xlink:href="#DejaVuSans-65" x="52.099609"/>
     <use xlink:href="#DejaVuSans-72" x="113.623047"/>
     <use xlink:href="#DejaVuSans-76" x="154.736328"/>
     <use xlink:href="#DejaVuSans-69" x="213.916016"/>
     <use xlink:href="#DejaVuSans-6e" x="241.699219"/>
     <use xlink:href="#DejaVuSans-67" x="305.078125"/>
     <use xlink:href="#DejaVuSans-20" x="368.554688"/>
     <use xlink:href="#DejaVuSans-74" x="400.341797"/>
     <use xlink:href="#DejaVuSans-68" x="439.550781"/>
     <use xlink:href="#DejaVuSans-65" x="502.929688"/>
     <use xlink:href="#DejaVuSans-20" x="564.453125"/>
     <use xlink:href="#DejaVuSans-70" x="596.240234"/>
     <use xlink:href="#DejaVuSans-72" x="659.716797"/>
     <use xlink:href="#DejaVuSans-6f" x="698.580078"/>
     <use xlink:href="#DejaVuSans-64" x="759.761719"/>
     <use xlink:href="#DejaVuSans-75" x="823.238281"/>
     <use xlink:href="#DejaVuSans-63" x="886.617188"/>
     <use xlink:href="#DejaVuSans-74" x="941.597656"/>
    </g>
   </g>
   <g id="text_3">
    <!-- OLTP DB -->
    <g style="fill: #0f172a" transform="translate(289.9944 197.484525) scale(0.12 -0.12)">
     <defs>
      <path id="DejaVuSans-Bold-4f" d="M 2719 3878 
Q 2169 3878 1866 3472 
Q 1563 3066 1563 2328 
Q 1563 1594 1866 1187 
Q 2169 781 2719 781 
Q 3272 781 3575 1187 
Q 3878 1594 3878 2328 
Q 3878 3066 3575 3472 
Q 3272 3878 2719 3878 
z
M 2719 4750 
Q 3844 4750 4481 4106 
Q 5119 3463 5119 2328 
Q 5119 1197 4481 553 
Q 3844 -91 2719 -91 
Q 1597 -91 958 553 
Q 319 1197 319 2328 
Q 319 3463 958 4106 
Q 1597 4750 2719 4750 
z
" transform="scale(0.015625)"/>
      <path id="DejaVuSans-Bold-4c" d="M 588 4666 
L 1791 4666 
L 1791 909 
L 3903 909 
L 3903 0 
L 588 0 
L 588 4666 
z
" transform="scale(0.015625)"/>
      <path id="DejaVuSans-Bold-54" d="M 31 4666 
L 4331 4666 
L 4331 3756 
L 2784 3756 
L 2784 0 
L 1581 0 
L 1581 3756 
L 31 3756 
L 31 4666 
z
" transform="scale(0.015625)"/>
      <path id="DejaVuSans-Bold-50" d="M 588 4666 
L 2584 4666 
Q 3475 4666 3951 4270 
Q 4428 3875 4428 3144 
Q 4428 2409 3951 2014 
Q 3475 1619 2584 1619 
L 1791 1619 
L 1791 0 
L 588 0 
L 588 4666 
z
M 1791 3794 
L 1791 2491 
L 2456 2491 
Q 2806 2491 2997 2661 
Q 3188 2831 3188 3144 
Q 3188 3456 2997 3625 
Q 2806 3794 2456 3794 
L 1791 3794 
z
" transform="scale(0.015625)"/>
      <path id="DejaVuSans-Bold-44" d="M 1791 3756 
L 1791 909 
L 2222 909 
Q 2959 909 3348 1275 
Q 3738 1641 3738 2338 
Q 3738 3031 3350 3393 
Q 2963 3756 2222 3756 
L 1791 3756 
z
M 588 4666 
L 1856 4666 
Q 2919 4666 3439 4514 
Q 3959 4363 4331 4000 
Q 4659 3684 4818 3271 
Q 4978 2859 4978 2338 
Q 4978 1809 4818 1395 
Q 4659 981 4331 666 
Q 3956 303 3431 151 
Q 2906 0 1856 0 
L 588 0 
L 588 4666 
z
" transform="scale(0.015625)"/>
      <path id="DejaVuSans-Bold-42" d="M 2456 2859 
Q 2741 2859 2887 2984 
Q 3034 3109 3034 3353 
Q 3034 3594 2887 3720 
Q 2741 3847 2456 3847 
L 1791 3847 
L 1791 2859 
L 2456 2859 
z
M 2497 819 
Q 2859 819 3042 972 
Q 3225 1125 3225 1434 
Q 3225 1738 3044 1889 
Q 2863 2041 2497 2041 
L 1791 2041 
L 1791 819 
L 2497 819 
z
M 3616 2497 
Q 4003 2384 4215 2081 
Q 4428 1778 4428 1338 
Q 4428 663 3972 331 
Q 3516 0 2584 0 
L 588 0 
L 588 4666 
L 2394 4666 
Q 3366 4666 3802 4372 
Q 4238 4078 4238 3431 
Q 4238 3091 4078 2852 
Q 3919 2613 3616 2497 
z
" transform="scale(0.015625)"/>
     </defs>
     <use xlink:href="#DejaVuSans-Bold-4f"/>
     <use xlink:href="#DejaVuSans-Bold-4c" x="85.009766"/>
     <use xlink:href="#DejaVuSans-Bold-54" x="132.230469"/>
     <use xlink:href="#DejaVuSans-Bold-50" x="200.443359"/>
     <use xlink:href="#DejaVuSans-Bold-20" x="273.734375"/>
     <use xlink:href="#DejaVuSans-Bold-44" x="308.548828"/>
     <use xlink:href="#DejaVuSans-Bold-42" x="391.556641"/>
    </g>
   </g>
   <g id="text_4">
    <!-- current rows -->
    <g style="fill: #334155" transform="translate(289.9944 227.851959) scale(0.105 -0.105)">
     <use xlink:href="#DejaVuSans-63"/>
     <use xlink:href="#DejaVuSans-75" x="54.980469"/>
     <use xlink:href="#DejaVuSans-72" x="118.359375"/>
     <use xlink:href="#DejaVuSans-72" x="157.722656"/>
     <use xlink:href="#DejaVuSans-65" x="196.585938"/>
     <use xlink:href="#DejaVuSans-6e" x="258.109375"/>
     <use xlink:href="#DejaVuSans-74" x="321.488281"/>
     <use xlink:href="#DejaVuSans-20" x="360.697266"/>
     <use xlink:href="#DejaVuSans-72" x="392.484375"/>
     <use xlink:href="#DejaVuSans-6f" x="431.347656"/>
     <use xlink:href="#DejaVuSans-77" x="492.529297"/>
     <use xlink:href="#DejaVuSans-73" x="574.316406"/>
    </g>
    <!-- fast point queries -->
    <g style="fill: #334155" transform="translate(289.9944 239.609662) scale(0.105 -0.105)">
     <defs>
      <path id="DejaVuSans-66" d="M 2375 4863 
L 2375 4384 
L 1825 4384 
Q 1516 4384 1395 4259 
Q 1275 4134 1275 3809 
L 1275 3500 
L 2222 3500 
L 2222 3053 
L 1275 3053 
L 1275 0 
L 697 0 
L 697 3053 
L 147 3053 
L 147 3500 
L 697 3500 
L 697 3744 
Q 697 4328 969 4595 
Q 1241 4863 1831 4863 
L 2375 4863 
z
" transform="scale(0.015625)"/>
      <path id="DejaVuSans-71" d="M 947 1747 
Q 947 1113 1208 752 
Q 1469 391 1925 391 
Q 2381 391 2643 752 
Q 2906 1113 2906 1747 
Q 2906 2381 2643 2742 
Q 2381 3103 1925 3103 
Q 1469 3103 1208 2742 
Q 947 2381 947 1747 
z
M 2906 525 
Q 2725 213 2448 61 
Q 2172 -91 1784 -91 
Q 1150 -91 751 415 
Q 353 922 353 1747 
Q 353 2572 751 3078 
Q 1150 3584 1784 3584 
Q 2172 3584 2448 3432 
Q 2725 3281 2906 2969 
L 2906 3500 
L 3481 3500 
L 3481 -1331 
L 2906 -1331 
L 2906 525 
z
" transform="scale(0.015625)"/>
     </defs>
     <use xlink:href="#DejaVuSans-66"/>
     <use xlink:href="#DejaVuSans-61" x="35.205078"/>
     <use xlink:href="#DejaVuSans-73" x="96.484375"/>
     <use xlink:href="#DejaVuSans-74" x="148.583984"/>
     <use xlink:href="#DejaVuSans-20" x="187.792969"/>
     <use xlink:href="#DejaVuSans-70" x="219.580078"/>
     <use xlink:href="#DejaVuSans-6f" x="283.056641"/>
     <use xlink:href="#DejaVuSans-69" x="344.238281"/>
     <use xlink:href="#DejaVuSans-6e" x="372.021484"/>
     <use xlink:href="#DejaVuSans-74" x="435.400391"/>
     <use xlink:href="#DejaVuSans-20" x="474.609375"/>
     <use xlink:href="#DejaVuSans-71" x="506.396484"/>
     <use xlink:href="#DejaVuSans-75" x="569.873047"/>
     <use xlink:href="#DejaVuSans-65" x="633.251953"/>
     <use xlink:href="#DejaVuSans-72" x="694.775391"/>
     <use xlink:href="#DejaVuSans-69" x="735.888672"/>
     <use xlink:href="#DejaVuSans-65" x="763.671875"/>
     <use xlink:href="#DejaVuSans-73" x="825.195312"/>
    </g>
    <!-- operational workload -->
    <g style="fill: #334155" transform="translate(289.9944 251.367366) scale(0.105 -0.105)">
     <defs>
      <path id="DejaVuSans-6c" d="M 603 4863 
L 1178 4863 
L 1178 0 
L 603 0 
L 603 4863 
z
" transform="scale(0.015625)"/>
      <path id="DejaVuSans-6b" d="M 581 4863 
L 1159 4863 
L 1159 1991 
L 2875 3500 
L 3609 3500 
L 1753 1863 
L 3688 0 
L 2938 0 
L 1159 1709 
L 1159 0 
L 581 0 
L 581 4863 
z
" transform="scale(0.015625)"/>
     </defs>
     <use xlink:href="#DejaVuSans-6f"/>
     <use xlink:href="#DejaVuSans-70" x="61.181641"/>
     <use xlink:href="#DejaVuSans-65" x="124.658203"/>
     <use xlink:href="#DejaVuSans-72" x="186.181641"/>
     <use xlink:href="#DejaVuSans-61" x="227.294922"/>
     <use xlink:href="#DejaVuSans-74" x="288.574219"/>
     <use xlink:href="#DejaVuSans-69" x="327.783203"/>
     <use xlink:href="#DejaVuSans-6f" x="355.566406"/>
     <use xlink:href="#DejaVuSans-6e" x="416.748047"/>
     <use xlink:href="#DejaVuSans-61" x="480.126953"/>
     <use xlink:href="#DejaVuSans-6c" x="541.40625"/>
     <use xlink:href="#DejaVuSans-20" x="569.189453"/>
     <use xlink:href="#DejaVuSans-77" x="600.976562"/>
     <use xlink:href="#DejaVuSans-6f" x="682.763672"/>
     <use xlink:href="#DejaVuSans-72" x="743.945312"/>
     <use xlink:href="#DejaVuSans-6b" x="785.058594"/>
     <use xlink:href="#DejaVuSans-6c" x="842.96875"/>
     <use xlink:href="#DejaVuSans-6f" x="870.751953"/>
     <use xlink:href="#DejaVuSans-61" x="931.933594"/>
     <use xlink:href="#DejaVuSans-64" x="993.212891"/>
    </g>
   </g>
   <g id="text_5">
    <!-- ETL / ELT -->
    <g style="fill: #0f172a" transform="translate(508.932 197.484525) scale(0.12 -0.12)">
     <defs>
      <path id="DejaVuSans-Bold-45" d="M 588 4666 
L 3834 4666 
L 3834 3756 
L 1791 3756 
L 1791 2888 
L 3713 2888 
L 3713 1978 
L 1791 1978 
L 1791 909 
L 3903 909 
L 3903 0 
L 588 0 
L 588 4666 
z
" transform="scale(0.015625)"/>
     </defs>
     <use xlink:href="#DejaVuSans-Bold-45"/>
     <use xlink:href="#DejaVuSans-Bold-54" x="68.310547"/>
     <use xlink:href="#DejaVuSans-Bold-4c" x="136.523438"/>
     <use xlink:href="#DejaVuSans-Bold-20" x="200.244141"/>
     <use xlink:href="#DejaVuSans-Bold-2f" x="235.058594"/>
     <use xlink:href="#DejaVuSans-Bold-20" x="271.582031"/>
     <use xlink:href="#DejaVuSans-Bold-45" x="306.396484"/>
     <use xlink:href="#DejaVuSans-Bold-4c" x="374.707031"/>
     <use xlink:href="#DejaVuSans-Bold-54" x="421.927734"/>
    </g>
   </g>
   <g id="text_6">
    <!-- move and reshape data -->
    <g style="fill: #334155" transform="translate(508.932 227.851959) scale(0.105 -0.105)">
     <defs>
      <path id="DejaVuSans-6d" d="M 3328 2828 
Q 3544 3216 3844 3400 
Q 4144 3584 4550 3584 
Q 5097 3584 5394 3201 
Q 5691 2819 5691 2113 
L 5691 0 
L 5113 0 
L 5113 2094 
Q 5113 2597 4934 2840 
Q 4756 3084 4391 3084 
Q 3944 3084 3684 2787 
Q 3425 2491 3425 1978 
L 3425 0 
L 2847 0 
L 2847 2094 
Q 2847 2600 2669 2842 
Q 2491 3084 2119 3084 
Q 1678 3084 1418 2786 
Q 1159 2488 1159 1978 
L 1159 0 
L 581 0 
L 581 3500 
L 1159 3500 
L 1159 2956 
Q 1356 3278 1631 3431 
Q 1906 3584 2284 3584 
Q 2666 3584 2933 3390 
Q 3200 3197 3328 2828 
z
" transform="scale(0.015625)"/>
     </defs>
     <use xlink:href="#DejaVuSans-6d"/>
     <use xlink:href="#DejaVuSans-6f" x="97.412109"/>
     <use xlink:href="#DejaVuSans-76" x="158.59375"/>
     <use xlink:href="#DejaVuSans-65" x="217.773438"/>
     <use xlink:href="#DejaVuSans-20" x="279.296875"/>
     <use xlink:href="#DejaVuSans-61" x="311.083984"/>
     <use xlink:href="#DejaVuSans-6e" x="372.363281"/>
     <use xlink:href="#DejaVuSans-64" x="435.742188"/>
     <use xlink:href="#DejaVuSans-20" x="499.21875"/>
     <use xlink:href="#DejaVuSans-72" x="531.005859"/>
     <use xlink:href="#DejaVuSans-65" x="569.869141"/>
     <use xlink:href="#DejaVuSans-73" x="631.392578"/>
     <use xlink:href="#DejaVuSans-68" x="683.492188"/>
     <use xlink:href="#DejaVuSans-61" x="746.871094"/>
     <use xlink:href="#DejaVuSans-70" x="808.150391"/>
     <use xlink:href="#DejaVuSans-65" x="871.626953"/>
     <use xlink:href="#DejaVuSans-20" x="933.150391"/>
     <use xlink:href="#DejaVuSans-64" x="964.9375"/>
     <use xlink:href="#DejaVuSans-61" x="1028.414062"/>
     <use xlink:href="#DejaVuSans-74" x="1089.693359"/>
     <use xlink:href="#DejaVuSans-61" x="1128.902344"/>
    </g>
    <!-- quality checks -->
    <g style="fill: #334155" transform="translate(508.932 239.609662) scale(0.105 -0.105)">
     <defs>
      <path id="DejaVuSans-79" d="M 2059 -325 
Q 1816 -950 1584 -1140 
Q 1353 -1331 966 -1331 
L 506 -1331 
L 506 -850 
L 844 -850 
Q 1081 -850 1212 -737 
Q 1344 -625 1503 -206 
L 1606 56 
L 191 3500 
L 800 3500 
L 1894 763 
L 2988 3500 
L 3597 3500 
L 2059 -325 
z
" transform="scale(0.015625)"/>
     </defs>
     <use xlink:href="#DejaVuSans-71"/>
     <use xlink:href="#DejaVuSans-75" x="63.476562"/>
     <use xlink:href="#DejaVuSans-61" x="126.855469"/>
     <use xlink:href="#DejaVuSans-6c" x="188.134766"/>
     <use xlink:href="#DejaVuSans-69" x="215.917969"/>
     <use xlink:href="#DejaVuSans-74" x="243.701172"/>
     <use xlink:href="#DejaVuSans-79" x="282.910156"/>
     <use xlink:href="#DejaVuSans-20" x="342.089844"/>
     <use xlink:href="#DejaVuSans-63" x="373.876953"/>
     <use xlink:href="#DejaVuSans-68" x="428.857422"/>
     <use xlink:href="#DejaVuSans-65" x="492.236328"/>
     <use xlink:href="#DejaVuSans-63" x="553.759766"/>
     <use xlink:href="#DejaVuSans-6b" x="608.740234"/>
     <use xlink:href="#DejaVuSans-73" x="666.650391"/>
    </g>
    <!-- historical snapshots -->
    <g style="fill: #334155" transform="translate(508.932 251.367366) scale(0.105 -0.105)">
     <use xlink:href="#DejaVuSans-68"/>
     <use xlink:href="#DejaVuSans-69" x="63.378906"/>
     <use xlink:href="#DejaVuSans-73" x="91.162109"/>
     <use xlink:href="#DejaVuSans-74" x="143.261719"/>
     <use xlink:href="#DejaVuSans-6f" x="182.470703"/>
     <use xlink:href="#DejaVuSans-72" x="243.652344"/>
     <use xlink:href="#DejaVuSans-69" x="284.765625"/>
     <use xlink:href="#DejaVuSans-63" x="312.548828"/>
     <use xlink:href="#DejaVuSans-61" x="367.529297"/>
     <use xlink:href="#DejaVuSans-6c" x="428.808594"/>
     <use xlink:href="#DejaVuSans-20" x="456.591797"/>
     <use xlink:href="#DejaVuSans-73" x="488.378906"/>
     <use xlink:href="#DejaVuSans-6e" x="540.478516"/>
     <use xlink:href="#DejaVuSans-61" x="603.857422"/>
     <use xlink:href="#DejaVuSans-70" x="665.136719"/>
     <use xlink:href="#DejaVuSans-73" x="728.613281"/>
     <use xlink:href="#DejaVuSans-68" x="780.712891"/>
     <use xlink:href="#DejaVuSans-6f" x="844.091797"/>
     <use xlink:href="#DejaVuSans-74" x="905.273438"/>
     <use xlink:href="#DejaVuSans-73" x="944.482422"/>
    </g>
   </g>
   <g id="text_7">
    <!-- Warehouse -->
    <g style="fill: #0f172a" transform="translate(727.8696 197.484525) scale(0.12 -0.12)">
     <defs>
      <path id="DejaVuSans-Bold-57" d="M 191 4666 
L 1344 4666 
L 2150 1275 
L 2950 4666 
L 4109 4666 
L 4909 1275 
L 5716 4666 
L 6859 4666 
L 5759 0 
L 4372 0 
L 3525 3547 
L 2688 0 
L 1300 0 
L 191 4666 
z
" transform="scale(0.015625)"/>
      <path id="DejaVuSans-Bold-61" d="M 2106 1575 
Q 1756 1575 1579 1456 
Q 1403 1338 1403 1106 
Q 1403 894 1545 773 
Q 1688 653 1941 653 
Q 2256 653 2472 879 
Q 2688 1106 2688 1447 
L 2688 1575 
L 2106 1575 
z
M 3816 1997 
L 3816 0 
L 2688 0 
L 2688 519 
Q 2463 200 2181 54 
Q 1900 -91 1497 -91 
Q 953 -91 614 226 
Q 275 544 275 1050 
Q 275 1666 698 1953 
Q 1122 2241 2028 2241 
L 2688 2241 
L 2688 2328 
Q 2688 2594 2478 2717 
Q 2269 2841 1825 2841 
Q 1466 2841 1156 2769 
Q 847 2697 581 2553 
L 581 3406 
Q 941 3494 1303 3539 
Q 1666 3584 2028 3584 
Q 2975 3584 3395 3211 
Q 3816 2838 3816 1997 
z
" transform="scale(0.015625)"/>
      <path id="DejaVuSans-Bold-68" d="M 4056 2131 
L 4056 0 
L 2931 0 
L 2931 347 
L 2931 1625 
Q 2931 2084 2911 2256 
Q 2891 2428 2841 2509 
Q 2775 2619 2662 2680 
Q 2550 2741 2406 2741 
Q 2056 2741 1856 2470 
Q 1656 2200 1656 1722 
L 1656 0 
L 538 0 
L 538 4863 
L 1656 4863 
L 1656 2988 
Q 1909 3294 2193 3439 
Q 2478 3584 2822 3584 
Q 3428 3584 3742 3212 
Q 4056 2841 4056 2131 
z
" transform="scale(0.015625)"/>
      <path id="DejaVuSans-Bold-6f" d="M 2203 2784 
Q 1831 2784 1636 2517 
Q 1441 2250 1441 1747 
Q 1441 1244 1636 976 
Q 1831 709 2203 709 
Q 2569 709 2762 976 
Q 2956 1244 2956 1747 
Q 2956 2250 2762 2517 
Q 2569 2784 2203 2784 
z
M 2203 3584 
Q 3106 3584 3614 3096 
Q 4122 2609 4122 1747 
Q 4122 884 3614 396 
Q 3106 -91 2203 -91 
Q 1297 -91 786 396 
Q 275 884 275 1747 
Q 275 2609 786 3096 
Q 1297 3584 2203 3584 
z
" transform="scale(0.015625)"/>
      <path id="DejaVuSans-Bold-75" d="M 500 1363 
L 500 3500 
L 1625 3500 
L 1625 3150 
Q 1625 2866 1622 2436 
Q 1619 2006 1619 1863 
Q 1619 1441 1641 1255 
Q 1663 1069 1716 984 
Q 1784 875 1895 815 
Q 2006 756 2150 756 
Q 2500 756 2700 1025 
Q 2900 1294 2900 1772 
L 2900 3500 
L 4019 3500 
L 4019 0 
L 2900 0 
L 2900 506 
Q 2647 200 2364 54 
Q 2081 -91 1741 -91 
Q 1134 -91 817 281 
Q 500 653 500 1363 
z
" transform="scale(0.015625)"/>
     </defs>
     <use xlink:href="#DejaVuSans-Bold-57"/>
     <use xlink:href="#DejaVuSans-Bold-61" x="106.677734"/>
     <use xlink:href="#DejaVuSans-Bold-72" x="174.158203"/>
     <use xlink:href="#DejaVuSans-Bold-65" x="223.474609"/>
     <use xlink:href="#DejaVuSans-Bold-68" x="291.296875"/>
     <use xlink:href="#DejaVuSans-Bold-6f" x="362.488281"/>
     <use xlink:href="#DejaVuSans-Bold-75" x="431.189453"/>
     <use xlink:href="#DejaVuSans-Bold-73" x="502.380859"/>
     <use xlink:href="#DejaVuSans-Bold-65" x="561.902344"/>
    </g>
   </g>
   <g id="text_8">
    <!-- long scans and joins -->
    <g style="fill: #334155" transform="translate(727.8696 227.851959) scale(0.105 -0.105)">
     <defs>
      <path id="DejaVuSans-6a" d="M 603 3500 
L 1178 3500 
L 1178 -63 
Q 1178 -731 923 -1031 
Q 669 -1331 103 -1331 
L -116 -1331 
L -116 -844 
L 38 -844 
Q 366 -844 484 -692 
Q 603 -541 603 -63 
L 603 3500 
z
M 603 4863 
L 1178 4863 
L 1178 4134 
L 603 4134 
L 603 4863 
z
" transform="scale(0.015625)"/>
     </defs>
     <use xlink:href="#DejaVuSans-6c"/>
     <use xlink:href="#DejaVuSans-6f" x="27.783203"/>
     <use xlink:href="#DejaVuSans-6e" x="88.964844"/>
     <use xlink:href="#DejaVuSans-67" x="152.34375"/>
     <use xlink:href="#DejaVuSans-20" x="215.820312"/>
     <use xlink:href="#DejaVuSans-73" x="247.607422"/>
     <use xlink:href="#DejaVuSans-63" x="299.707031"/>
     <use xlink:href="#DejaVuSans-61" x="354.6875"/>
     <use xlink:href="#DejaVuSans-6e" x="415.966797"/>
     <use xlink:href="#DejaVuSans-73" x="479.345703"/>
     <use xlink:href="#DejaVuSans-20" x="531.445312"/>
     <use xlink:href="#DejaVuSans-61" x="563.232422"/>
     <use xlink:href="#DejaVuSans-6e" x="624.511719"/>
     <use xlink:href="#DejaVuSans-64" x="687.890625"/>
     <use xlink:href="#DejaVuSans-20" x="751.367188"/>
     <use xlink:href="#DejaVuSans-6a" x="783.154297"/>
     <use xlink:href="#DejaVuSans-6f" x="810.9375"/>
     <use xlink:href="#DejaVuSans-69" x="872.119141"/>
     <use xlink:href="#DejaVuSans-6e" x="899.902344"/>
     <use xlink:href="#DejaVuSans-73" x="963.28125"/>
    </g>
    <!-- analytics and BI -->
    <g style="fill: #334155" transform="translate(727.8696 239.609662) scale(0.105 -0.105)">
     <defs>
      <path id="DejaVuSans-42" d="M 1259 2228 
L 1259 519 
L 2272 519 
Q 2781 519 3026 730 
Q 3272 941 3272 1375 
Q 3272 1813 3026 2020 
Q 2781 2228 2272 2228 
L 1259 2228 
z
M 1259 4147 
L 1259 2741 
L 2194 2741 
Q 2656 2741 2882 2914 
Q 3109 3088 3109 3444 
Q 3109 3797 2882 3972 
Q 2656 4147 2194 4147 
L 1259 4147 
z
M 628 4666 
L 2241 4666 
Q 2963 4666 3353 4366 
Q 3744 4066 3744 3513 
Q 3744 3084 3544 2831 
Q 3344 2578 2956 2516 
Q 3422 2416 3680 2098 
Q 3938 1781 3938 1306 
Q 3938 681 3513 340 
Q 3088 0 2303 0 
L 628 0 
L 628 4666 
z
" transform="scale(0.015625)"/>
      <path id="DejaVuSans-49" d="M 628 4666 
L 1259 4666 
L 1259 0 
L 628 0 
L 628 4666 
z
" transform="scale(0.015625)"/>
     </defs>
     <use xlink:href="#DejaVuSans-61"/>
     <use xlink:href="#DejaVuSans-6e" x="61.279297"/>
     <use xlink:href="#DejaVuSans-61" x="124.658203"/>
     <use xlink:href="#DejaVuSans-6c" x="185.9375"/>
     <use xlink:href="#DejaVuSans-79" x="213.720703"/>
     <use xlink:href="#DejaVuSans-74" x="272.900391"/>
     <use xlink:href="#DejaVuSans-69" x="312.109375"/>
     <use xlink:href="#DejaVuSans-63" x="339.892578"/>
     <use xlink:href="#DejaVuSans-73" x="394.873047"/>
     <use xlink:href="#DejaVuSans-20" x="446.972656"/>
     <use xlink:href="#DejaVuSans-61" x="478.759766"/>
     <use xlink:href="#DejaVuSans-6e" x="540.039062"/>
     <use xlink:href="#DejaVuSans-64" x="603.417969"/>
     <use xlink:href="#DejaVuSans-20" x="666.894531"/>
     <use xlink:href="#DejaVuSans-42" x="698.681641"/>
     <use xlink:href="#DejaVuSans-49" x="767.285156"/>
    </g>
    <!-- ML training data -->
    <g style="fill: #334155" transform="translate(727.8696 251.367366) scale(0.105 -0.105)">
     <defs>
      <path id="DejaVuSans-4d" d="M 628 4666 
L 1569 4666 
L 2759 1491 
L 3956 4666 
L 4897 4666 
L 4897 0 
L 4281 0 
L 4281 4097 
L 3078 897 
L 2444 897 
L 1241 4097 
L 1241 0 
L 628 0 
L 628 4666 
z
" transform="scale(0.015625)"/>
      <path id="DejaVuSans-4c" d="M 628 4666 
L 1259 4666 
L 1259 531 
L 3531 531 
L 3531 0 
L 628 0 
L 628 4666 
z
" transform="scale(0.015625)"/>
     </defs>
     <use xlink:href="#DejaVuSans-4d"/>
     <use xlink:href="#DejaVuSans-4c" x="86.279297"/>
     <use xlink:href="#DejaVuSans-20" x="141.992188"/>
     <use xlink:href="#DejaVuSans-74" x="173.779297"/>
     <use xlink:href="#DejaVuSans-72" x="212.988281"/>
     <use xlink:href="#DejaVuSans-61" x="254.101562"/>
     <use xlink:href="#DejaVuSans-69" x="315.380859"/>
     <use xlink:href="#DejaVuSans-6e" x="343.164062"/>
     <use xlink:href="#DejaVuSans-69" x="406.542969"/>
     <use xlink:href="#DejaVuSans-6e" x="434.326172"/>
     <use xlink:href="#DejaVuSans-67" x="497.705078"/>
     <use xlink:href="#DejaVuSans-20" x="561.181641"/>
     <use xlink:href="#DejaVuSans-64" x="592.96875"/>
     <use xlink:href="#DejaVuSans-61" x="656.445312"/>
     <use xlink:href="#DejaVuSans-74" x="717.724609"/>
     <use xlink:href="#DejaVuSans-61" x="756.933594"/>
    </g>
   </g>
   <g id="text_9">
    <!-- Dashboards / BI / ML -->
    <g style="fill: #334155" transform="translate(732.544525 322.272) scale(0.115 -0.115)">
     <defs>
      <path id="DejaVuSans-44" d="M 1259 4147 
L 1259 519 
L 2022 519 
Q 2988 519 3436 956 
Q 3884 1394 3884 2338 
Q 3884 3275 3436 3711 
Q 2988 4147 2022 4147 
L 1259 4147 
z
M 628 4666 
L 1925 4666 
Q 3281 4666 3915 4102 
Q 4550 3538 4550 2338 
Q 4550 1131 3912 565 
Q 3275 0 1925 0 
L 628 0 
L 628 4666 
z
" transform="scale(0.015625)"/>
      <path id="DejaVuSans-62" d="M 3116 1747 
Q 3116 2381 2855 2742 
Q 2594 3103 2138 3103 
Q 1681 3103 1420 2742 
Q 1159 2381 1159 1747 
Q 1159 1113 1420 752 
Q 1681 391 2138 391 
Q 2594 391 2855 752 
Q 3116 1113 3116 1747 
z
M 1159 2969 
Q 1341 3281 1617 3432 
Q 1894 3584 2278 3584 
Q 2916 3584 3314 3078 
Q 3713 2572 3713 1747 
Q 3713 922 3314 415 
Q 2916 -91 2278 -91 
Q 1894 -91 1617 61 
Q 1341 213 1159 525 
L 1159 0 
L 581 0 
L 581 4863 
L 1159 4863 
L 1159 2969 
z
" transform="scale(0.015625)"/>
      <path id="DejaVuSans-2f" d="M 1625 4666 
L 2156 4666 
L 531 -594 
L 0 -594 
L 1625 4666 
z
" transform="scale(0.015625)"/>
     </defs>
     <use xlink:href="#DejaVuSans-44"/>
     <use xlink:href="#DejaVuSans-61" x="77.001953"/>
     <use xlink:href="#DejaVuSans-73" x="138.28125"/>
     <use xlink:href="#DejaVuSans-68" x="190.380859"/>
     <use xlink:href="#DejaVuSans-62" x="253.759766"/>
     <use xlink:href="#DejaVuSans-6f" x="317.236328"/>
     <use xlink:href="#DejaVuSans-61" x="378.417969"/>
     <use xlink:href="#DejaVuSans-72" x="439.697266"/>
     <use xlink:href="#DejaVuSans-64" x="479.060547"/>
     <use xlink:href="#DejaVuSans-73" x="542.537109"/>
     <use xlink:href="#DejaVuSans-20" x="594.636719"/>
     <use xlink:href="#DejaVuSans-2f" x="626.423828"/>
     <use xlink:href="#DejaVuSans-20" x="660.115234"/>
     <use xlink:href="#DejaVuSans-42" x="691.902344"/>
     <use xlink:href="#DejaVuSans-49" x="760.505859"/>
     <use xlink:href="#DejaVuSans-20" x="789.998047"/>
     <use xlink:href="#DejaVuSans-2f" x="821.785156"/>
     <use xlink:href="#DejaVuSans-20" x="855.476562"/>
     <use xlink:href="#DejaVuSans-4d" x="887.263672"/>
     <use xlink:href="#DejaVuSans-4c" x="973.542969"/>
    </g>
   </g>
   <g id="text_10">
    <!-- OLTP runs the business. OLAP helps analyze the business. -->
    <g style="fill: #0f172a" transform="translate(217.489922 93.8448) scale(0.15 -0.15)">
     <defs>
      <path id="DejaVuSans-Bold-6e" d="M 4056 2131 
L 4056 0 
L 2931 0 
L 2931 347 
L 2931 1631 
Q 2931 2084 2911 2256 
Q 2891 2428 2841 2509 
Q 2775 2619 2662 2680 
Q 2550 2741 2406 2741 
Q 2056 2741 1856 2470 
Q 1656 2200 1656 1722 
L 1656 0 
L 538 0 
L 538 3500 
L 1656 3500 
L 1656 2988 
Q 1909 3294 2193 3439 
Q 2478 3584 2822 3584 
Q 3428 3584 3742 3212 
Q 4056 2841 4056 2131 
z
" transform="scale(0.015625)"/>
      <path id="DejaVuSans-Bold-74" d="M 1759 4494 
L 1759 3500 
L 2913 3500 
L 2913 2700 
L 1759 2700 
L 1759 1216 
Q 1759 972 1856 886 
Q 1953 800 2241 800 
L 2816 800 
L 2816 0 
L 1856 0 
Q 1194 0 917 276 
Q 641 553 641 1216 
L 641 2700 
L 84 2700 
L 84 3500 
L 641 3500 
L 641 4494 
L 1759 4494 
z
" transform="scale(0.015625)"/>
      <path id="DejaVuSans-Bold-62" d="M 2400 722 
Q 2759 722 2948 984 
Q 3138 1247 3138 1747 
Q 3138 2247 2948 2509 
Q 2759 2772 2400 2772 
Q 2041 2772 1848 2508 
Q 1656 2244 1656 1747 
Q 1656 1250 1848 986 
Q 2041 722 2400 722 
z
M 1656 2988 
Q 1888 3294 2169 3439 
Q 2450 3584 2816 3584 
Q 3463 3584 3878 3070 
Q 4294 2556 4294 1747 
Q 4294 938 3878 423 
Q 3463 -91 2816 -91 
Q 2450 -91 2169 54 
Q 1888 200 1656 506 
L 1656 0 
L 538 0 
L 538 4863 
L 1656 4863 
L 1656 2988 
z
" transform="scale(0.015625)"/>
      <path id="DejaVuSans-Bold-69" d="M 538 3500 
L 1656 3500 
L 1656 0 
L 538 0 
L 538 3500 
z
M 538 4863 
L 1656 4863 
L 1656 3950 
L 538 3950 
L 538 4863 
z
" transform="scale(0.015625)"/>
      <path id="DejaVuSans-Bold-2e" d="M 653 1209 
L 1778 1209 
L 1778 0 
L 653 0 
L 653 1209 
z
" transform="scale(0.015625)"/>
      <path id="DejaVuSans-Bold-6c" d="M 538 4863 
L 1656 4863 
L 1656 0 
L 538 0 
L 538 4863 
z
" transform="scale(0.015625)"/>
      <path id="DejaVuSans-Bold-79" d="M 78 3500 
L 1197 3500 
L 2138 1125 
L 2938 3500 
L 4056 3500 
L 2584 -331 
Q 2363 -916 2067 -1148 
Q 1772 -1381 1288 -1381 
L 641 -1381 
L 641 -647 
L 991 -647 
Q 1275 -647 1404 -556 
Q 1534 -466 1606 -231 
L 1638 -134 
L 78 3500 
z
" transform="scale(0.015625)"/>
      <path id="DejaVuSans-Bold-7a" d="M 366 3500 
L 3419 3500 
L 3419 2719 
L 1575 800 
L 3419 800 
L 3419 0 
L 288 0 
L 288 781 
L 2131 2700 
L 366 2700 
L 366 3500 
z
" transform="scale(0.015625)"/>
     </defs>
     <use xlink:href="#DejaVuSans-Bold-4f"/>
     <use xlink:href="#DejaVuSans-Bold-4c" x="85.009766"/>
     <use xlink:href="#DejaVuSans-Bold-54" x="132.230469"/>
     <use xlink:href="#DejaVuSans-Bold-50" x="200.443359"/>
     <use xlink:href="#DejaVuSans-Bold-20" x="273.734375"/>
     <use xlink:href="#DejaVuSans-Bold-72" x="308.548828"/>
     <use xlink:href="#DejaVuSans-Bold-75" x="357.865234"/>
     <use xlink:href="#DejaVuSans-Bold-6e" x="429.056641"/>
     <use xlink:href="#DejaVuSans-Bold-73" x="500.248047"/>
     <use xlink:href="#DejaVuSans-Bold-20" x="559.769531"/>
     <use xlink:href="#DejaVuSans-Bold-74" x="594.583984"/>
     <use xlink:href="#DejaVuSans-Bold-68" x="642.386719"/>
     <use xlink:href="#DejaVuSans-Bold-65" x="713.578125"/>
     <use xlink:href="#DejaVuSans-Bold-20" x="781.400391"/>
     <use xlink:href="#DejaVuSans-Bold-62" x="816.214844"/>
     <use xlink:href="#DejaVuSans-Bold-75" x="887.796875"/>
     <use xlink:href="#DejaVuSans-Bold-73" x="958.988281"/>
     <use xlink:href="#DejaVuSans-Bold-69" x="1018.509766"/>
     <use xlink:href="#DejaVuSans-Bold-6e" x="1052.787109"/>
     <use xlink:href="#DejaVuSans-Bold-65" x="1123.978516"/>
     <use xlink:href="#DejaVuSans-Bold-73" x="1191.800781"/>
     <use xlink:href="#DejaVuSans-Bold-73" x="1251.322266"/>
     <use xlink:href="#DejaVuSans-Bold-2e" x="1310.84375"/>
     <use xlink:href="#DejaVuSans-Bold-20" x="1348.832031"/>
     <use xlink:href="#DejaVuSans-Bold-4f" x="1383.646484"/>
     <use xlink:href="#DejaVuSans-Bold-4c" x="1468.65625"/>
     <use xlink:href="#DejaVuSans-Bold-41" x="1532.376953"/>
     <use xlink:href="#DejaVuSans-Bold-50" x="1609.769531"/>
     <use xlink:href="#DejaVuSans-Bold-20" x="1683.060547"/>
     <use xlink:href="#DejaVuSans-Bold-68" x="1717.875"/>
     <use xlink:href="#DejaVuSans-Bold-65" x="1789.066406"/>
     <use xlink:href="#DejaVuSans-Bold-6c" x="1856.888672"/>
     <use xlink:href="#DejaVuSans-Bold-70" x="1891.166016"/>
     <use xlink:href="#DejaVuSans-Bold-73" x="1962.748047"/>
     <use xlink:href="#DejaVuSans-Bold-20" x="2022.269531"/>
     <use xlink:href="#DejaVuSans-Bold-61" x="2057.083984"/>
     <use xlink:href="#DejaVuSans-Bold-6e" x="2124.564453"/>
     <use xlink:href="#DejaVuSans-Bold-61" x="2195.755859"/>
     <use xlink:href="#DejaVuSans-Bold-6c" x="2263.236328"/>
     <use xlink:href="#DejaVuSans-Bold-79" x="2297.513672"/>
     <use xlink:href="#DejaVuSans-Bold-7a" x="2362.699219"/>
     <use xlink:href="#DejaVuSans-Bold-65" x="2420.902344"/>
     <use xlink:href="#DejaVuSans-Bold-20" x="2488.724609"/>
     <use xlink:href="#DejaVuSans-Bold-74" x="2523.539062"/>
     <use xlink:href="#DejaVuSans-Bold-68" x="2571.341797"/>
     <use xlink:href="#DejaVuSans-Bold-65" x="2642.533203"/>
     <use xlink:href="#DejaVuSans-Bold-20" x="2710.355469"/>
     <use xlink:href="#DejaVuSans-Bold-62" x="2745.169922"/>
     <use xlink:href="#DejaVuSans-Bold-75" x="2816.751953"/>
     <use xlink:href="#DejaVuSans-Bold-73" x="2887.943359"/>
     <use xlink:href="#DejaVuSans-Bold-69" x="2947.464844"/>
     <use xlink:href="#DejaVuSans-Bold-6e" x="2981.742188"/>
     <use xlink:href="#DejaVuSans-Bold-65" x="3052.933594"/>
     <use xlink:href="#DejaVuSans-Bold-73" x="3120.755859"/>
     <use xlink:href="#DejaVuSans-Bold-73" x="3180.277344"/>
     <use xlink:href="#DejaVuSans-Bold-2e" x="3239.798828"/>
    </g>
   </g>
  </g>
 </g>
 <defs>
  <clipPath id="pac947f863a">
   <rect x="7.2" y="7.2" width="912.24" height="393.84"/>
  </clipPath>
 </defs>
</svg>
