<?xml version="1.0" encoding="utf-8" standalone="no"?>
<!DOCTYPE svg PUBLIC "-//W3C//DTD SVG 1.1//EN"
  "http://www.w3.org/Graphics/SVG/1.1/DTD/svg11.dtd">
<svg xmlns:xlink="http://www.w3.org/1999/xlink" width="388.339375pt" height="281.57325pt" viewBox="0 0 388.339375 281.57325" xmlns="http://www.w3.org/2000/svg" version="1.1">
 <metadata>
  <rdf:RDF xmlns:dc="http://purl.org/dc/elements/1.1/" xmlns:cc="http://creativecommons.org/ns#" xmlns:rdf="http://www.w3.org/1999/02/22-rdf-syntax-ns#">
   <cc:Work>
    <dc:type rdf:resource="http://purl.org/dc/dcmitype/StillImage"/>
    <dc:date>2026-04-12T05:46:15.337366</dc:date>
    <dc:format>image/svg+xml</dc:format>
    <dc:creator>
     <cc:Agent>
      <dc:title>Matplotlib v3.10.8, https://matplotlib.org/</dc:title>
     </cc:Agent>
    </dc:creator>
   </cc:Work>
  </rdf:RDF>
 </metadata>
 <defs>
  <style type="text/css">*{stroke-linejoin: round; stroke-linecap: butt}</style>
 </defs>
 <g id="figure_1">
  <g id="patch_1">
   <path d="M 0 281.57325 
L 388.339375 281.57325 
L 388.339375 0 
L 0 0 
z
" style="fill: #ffffff"/>
  </g>
  <g id="axes_1">
   <g id="patch_2">
    <path d="M 46.339375 242.081375 
L 381.139375 242.081375 
L 381.139375 31.409375 
L 46.339375 31.409375 
z
" style="fill: #ffffff"/>
   </g>
   <g id="FillBetweenPolyCollection_1">
    <defs>
     <path id="m7901f6c211" d="M 61.557557 -49.067875 
L 61.557557 -49.067875 
L 62.167504 -53.715595 
L 62.777451 -58.288877 
L 63.387398 -62.788393 
L 63.997345 -67.214812 
L 64.607293 -71.568799 
L 65.21724 -75.851014 
L 65.827187 -80.062116 
L 66.437134 -84.202758 
L 67.047081 -88.27359 
L 67.657028 -92.27526 
L 68.266976 -96.208412 
L 68.876923 -100.073684 
L 69.48687 -103.871714 
L 70.096817 -107.603133 
L 70.706764 -111.268573 
L 71.316711 -114.868657 
L 71.926659 -118.404009 
L 72.536606 -121.875248 
L 73.146553 -125.282989 
L 73.7565 -128.627843 
L 74.366447 -131.91042 
L 74.976394 -135.131324 
L 75.586342 -138.291158 
L 76.196289 -141.390518 
L 76.806236 -144.430001 
L 77.416183 -147.410198 
L 78.02613 -150.331696 
L 78.636077 -153.19508 
L 79.246025 -156.000931 
L 79.855972 -158.749828 
L 80.465919 -161.442345 
L 81.075866 -164.079053 
L 81.685813 -166.660519 
L 82.29576 -169.187309 
L 82.905708 -171.659984 
L 83.515655 -174.079101 
L 84.125602 -176.445215 
L 84.735549 -178.758878 
L 85.345496 -181.020637 
L 85.955444 -183.231037 
L 86.565391 -185.390619 
L 87.175338 -187.499922 
L 87.785285 -189.559481 
L 88.395232 -191.569827 
L 89.005179 -193.531489 
L 89.615127 -195.444992 
L 90.225074 -197.310859 
L 90.835021 -199.129607 
L 91.444968 -200.901753 
L 92.054915 -202.62781 
L 92.664862 -204.308285 
L 93.27481 -205.943687 
L 93.884757 -207.534517 
L 94.494704 -209.081275 
L 95.104651 -210.584459 
L 95.714598 -212.044561 
L 96.324545 -213.462072 
L 96.934493 -214.83748 
L 97.54444 -216.171268 
L 98.154387 -217.463918 
L 98.764334 -218.715908 
L 99.374281 -219.927712 
L 99.984228 -221.099803 
L 100.594176 -222.23265 
L 101.204123 -223.326718 
L 101.81407 -224.382469 
L 102.424017 -225.400365 
L 103.033964 -226.380861 
L 103.643911 -227.324411 
L 104.253859 -228.231466 
L 104.863806 -229.102474 
L 105.473753 -229.937878 
L 106.0837 -230.738122 
L 106.693647 -231.503643 
L 107.303594 -232.234878 
L 107.913542 -232.932259 
L 108.523489 -233.596217 
L 109.133436 -234.227178 
L 109.743383 -234.825566 
L 110.35333 -235.391802 
L 110.963277 -235.926305 
L 111.573225 -236.429491 
L 112.183172 -236.90177 
L 112.793119 -237.343554 
L 113.403066 -237.755249 
L 114.013013 -238.137259 
L 114.62296 -238.489984 
L 115.232908 -238.813823 
L 115.842855 -239.109171 
L 116.452802 -239.376421 
L 117.062749 -239.615963 
L 117.672696 -239.828183 
L 118.282643 -240.013465 
L 118.892591 -240.172192 
L 119.502538 -240.30474 
L 120.112485 -240.411487 
L 120.722432 -240.492805 
L 121.332379 -240.549064 
L 121.942326 -240.580633 
L 122.552274 -240.587875 
L 123.162221 -240.571153 
L 123.772168 -240.530826 
L 124.382115 -240.467252 
L 124.992062 -240.380783 
L 125.602009 -240.271771 
L 126.211957 -240.140565 
L 126.821904 -239.98751 
L 127.431851 -239.812951 
L 128.041798 -239.617227 
L 128.651745 -239.400677 
L 129.261692 -239.163636 
L 129.87164 -238.906436 
L 130.481587 -238.629408 
L 131.091534 -238.33288 
L 131.701481 -238.017175 
L 132.311428 -237.682618 
L 132.921375 -237.329526 
L 133.531323 -236.958218 
L 134.14127 -236.569009 
L 134.751217 -236.162209 
L 135.361164 -235.73813 
L 135.971111 -235.297077 
L 136.581058 -234.839355 
L 137.191006 -234.365267 
L 137.800953 -233.875111 
L 138.4109 -233.369185 
L 139.020847 -232.847783 
L 139.630794 -232.311198 
L 140.240741 -231.759718 
L 140.850689 -231.193631 
L 141.460636 -230.613221 
L 142.070583 -230.018771 
L 142.68053 -229.410561 
L 143.290477 -228.788867 
L 143.900424 -228.153965 
L 144.510372 -227.506126 
L 145.120319 -226.845623 
L 145.730266 -226.172721 
L 146.340213 -225.487686 
L 146.95016 -224.790782 
L 147.560107 -224.082269 
L 148.170055 -223.362406 
L 148.780002 -222.631447 
L 149.389949 -221.889647 
L 149.999896 -221.137258 
L 150.609843 -220.374527 
L 151.21979 -219.601702 
L 151.829738 -218.819028 
L 152.439685 -218.026745 
L 153.049632 -217.225094 
L 153.659579 -216.414313 
L 154.269526 -215.594637 
L 154.879473 -214.766298 
L 155.489421 -213.929529 
L 156.099368 -213.084556 
L 156.709315 -212.231606 
L 157.319262 -211.370905 
L 157.929209 -210.502672 
L 158.539156 -209.627129 
L 159.149104 -208.744493 
L 159.759051 -207.854979 
L 160.368998 -206.9588 
L 160.978945 -206.056167 
L 161.588892 -205.147289 
L 162.198839 -204.232373 
L 162.808787 -203.311624 
L 163.418734 -202.385243 
L 164.028681 -201.453432 
L 164.638628 -200.516388 
L 165.248575 -199.574308 
L 165.858522 -198.627386 
L 166.46847 -197.675813 
L 167.078417 -196.71978 
L 167.688364 -195.759474 
L 168.298311 -194.795082 
L 168.908258 -193.826786 
L 169.518205 -192.854769 
L 170.128153 -191.879211 
L 170.7381 -190.900289 
L 171.348047 -189.918179 
L 171.957994 -188.933054 
L 172.567941 -187.945086 
L 173.177888 -186.954446 
L 173.787836 -185.9613 
L 174.397783 -184.965814 
L 175.00773 -183.968153 
L 175.617677 -182.968478 
L 176.227624 -181.966949 
L 176.837571 -180.963725 
L 177.447519 -179.95896 
L 178.057466 -178.952811 
L 178.667413 -177.945428 
L 179.27736 -176.936962 
L 179.887307 -175.927563 
L 180.497254 -174.917375 
L 181.107202 -173.906546 
L 181.717149 -172.895216 
L 182.327096 -171.883528 
L 182.937043 -170.871621 
L 183.54699 -169.859632 
L 184.156937 -168.847697 
L 184.766885 -167.83595 
L 185.376832 -166.824522 
L 185.986779 -165.813545 
L 186.596726 -164.803146 
L 187.206673 -163.793452 
L 187.81662 -162.784589 
L 188.426568 -161.776679 
L 189.036515 -160.769844 
L 189.646462 -159.764203 
L 190.256409 -158.759875 
L 190.866356 -157.756976 
L 191.476303 -156.755621 
L 192.086251 -155.755922 
L 192.696198 -154.75799 
L 193.306145 -153.761935 
L 193.916092 -152.767866 
L 194.526039 -151.775887 
L 195.135986 -150.786104 
L 195.745934 -149.79862 
L 196.355881 -148.813535 
L 196.965828 -147.830949 
L 197.575775 -146.850962 
L 198.185722 -145.873667 
L 198.795669 -144.899162 
L 199.405617 -143.927538 
L 200.015564 -142.958888 
L 200.625511 -141.993301 
L 201.235458 -141.030866 
L 201.845405 -140.071671 
L 202.455352 -139.115799 
L 203.0653 -138.163336 
L 203.675247 -137.214364 
L 204.285194 -136.268963 
L 204.895141 -135.327213 
L 205.505088 -134.389191 
L 206.115035 -133.454975 
L 206.724983 -132.524638 
L 207.33493 -131.598255 
L 207.944877 -130.675896 
L 208.554824 -129.757634 
L 209.164771 -128.843536 
L 209.774718 -127.93367 
L 210.384666 -127.028103 
L 210.994613 -126.126898 
L 211.60456 -125.230121 
L 212.214507 -124.337832 
L 212.824454 -123.450092 
L 213.434401 -122.56696 
L 214.044349 -121.688494 
L 214.654296 -120.814751 
L 215.264243 -119.945785 
L 215.87419 -119.081651 
L 216.484137 -118.2224 
L 217.094084 -117.368085 
L 217.704032 -116.518753 
L 218.313979 -115.674455 
L 218.923926 -114.835238 
L 219.533873 -114.001146 
L 220.14382 -113.172225 
L 220.753767 -112.348518 
L 221.363715 -111.530068 
L 221.973662 -110.716914 
L 222.583609 -109.909097 
L 223.193556 -109.106654 
L 223.803503 -108.309624 
L 224.41345 -107.518041 
L 225.023398 -106.731941 
L 225.633345 -105.951357 
L 226.243292 -105.176321 
L 226.853239 -104.406865 
L 227.463186 -103.643018 
L 228.073133 -102.884809 
L 228.683081 -102.132266 
L 229.293028 -101.385415 
L 229.902975 -100.644282 
L 230.512922 -99.908891 
L 231.122869 -99.179264 
L 231.732816 -98.455424 
L 232.342764 -97.737393 
L 232.952711 -97.025188 
L 233.562658 -96.31883 
L 234.172605 -95.618336 
L 234.782552 -94.923723 
L 235.392499 -94.235006 
L 236.002447 -93.552199 
L 236.612394 -92.875317 
L 237.222341 -92.204371 
L 237.832288 -91.539372 
L 238.442235 -90.880332 
L 239.052182 -90.22726 
L 239.66213 -89.580164 
L 240.272077 -88.939052 
L 240.882024 -88.303929 
L 241.491971 -87.674802 
L 242.101918 -87.051675 
L 242.711865 -86.434552 
L 243.321813 -85.823435 
L 243.93176 -85.218326 
L 244.541707 -84.619226 
L 245.151654 -84.026135 
L 245.761601 -83.439051 
L 246.371548 -82.857974 
L 246.981496 -82.2829 
L 247.591443 -81.713825 
L 248.20139 -81.150745 
L 248.811337 -80.593655 
L 249.421284 -80.042548 
L 250.031231 -79.497418 
L 250.641179 -78.958257 
L 251.251126 -78.425055 
L 251.861073 -77.897804 
L 252.47102 -77.376493 
L 253.080967 -76.861111 
L 253.690914 -76.351646 
L 254.300862 -75.848086 
L 254.910809 -75.350417 
L 255.520756 -74.858625 
L 256.130703 -74.372695 
L 256.74065 -73.892612 
L 257.350597 -73.418359 
L 257.960545 -72.949919 
L 258.570492 -72.487274 
L 259.180439 -72.030406 
L 259.790386 -71.579296 
L 260.400333 -71.133923 
L 261.01028 -70.694268 
L 261.620228 -70.260309 
L 262.230175 -69.832024 
L 262.840122 -69.409391 
L 263.450069 -68.992386 
L 264.060016 -68.580986 
L 264.669963 -68.175167 
L 265.279911 -67.774903 
L 265.889858 -67.380169 
L 266.499805 -66.990939 
L 267.109752 -66.607185 
L 267.719699 -66.228881 
L 268.329646 -65.855999 
L 268.939594 -65.488511 
L 269.549541 -65.126386 
L 270.159488 -64.769596 
L 270.769435 -64.418111 
L 271.379382 -64.0719 
L 271.989329 -63.730932 
L 272.599277 -63.395176 
L 273.209224 -63.064598 
L 273.819171 -62.739168 
L 274.429118 -62.418851 
L 275.039065 -62.103614 
L 275.649012 -61.793424 
L 276.25896 -61.488246 
L 276.868907 -61.188044 
L 277.478854 -60.892784 
L 278.088801 -60.602431 
L 278.698748 -60.316947 
L 279.308695 -60.036297 
L 279.918643 -59.760443 
L 280.52859 -59.489349 
L 281.138537 -59.222976 
L 281.748484 -58.961287 
L 282.358431 -58.704243 
L 282.968378 -58.451806 
L 283.578326 -58.203936 
L 284.188273 -57.960595 
L 284.79822 -57.721742 
L 285.408167 -57.487337 
L 286.018114 -57.25734 
L 286.628061 -57.031711 
L 287.238009 -56.810409 
L 287.847956 -56.593392 
L 288.457903 -56.380619 
L 289.06785 -56.172049 
L 289.677797 -55.967638 
L 290.287744 -55.767347 
L 290.897692 -55.571131 
L 291.507639 -55.378948 
L 292.117586 -55.190756 
L 292.727533 -55.006512 
L 293.33748 -54.826171 
L 293.947427 -54.649692 
L 294.557375 -54.477029 
L 295.167322 -54.30814 
L 295.777269 -54.142981 
L 296.387216 -53.981508 
L 296.997163 -53.823676 
L 297.60711 -53.66944 
L 298.217058 -53.518758 
L 298.827005 -53.371584 
L 299.436952 -53.227873 
L 300.046899 -53.087581 
L 300.656846 -52.950663 
L 301.266793 -52.817075 
L 301.876741 -52.68677 
L 302.486688 -52.559704 
L 303.096635 -52.435833 
L 303.706582 -52.31511 
L 304.316529 -52.197491 
L 304.926476 -52.082931 
L 305.536424 -51.971385 
L 306.146371 -51.862807 
L 306.756318 -51.757152 
L 307.366265 -51.654375 
L 307.976212 -51.554432 
L 308.586159 -51.457276 
L 309.196107 -51.362863 
L 309.806054 -51.271148 
L 310.416001 -51.182086 
L 311.025948 -51.095632 
L 311.635895 -51.011741 
L 312.245842 -50.93037 
L 312.85579 -50.851472 
L 313.465737 -50.775004 
L 314.075684 -50.700922 
L 314.685631 -50.62918 
L 315.295578 -50.559736 
L 315.905525 -50.492544 
L 316.515473 -50.427562 
L 317.12542 -50.364745 
L 317.735367 -50.304051 
L 318.345314 -50.245435 
L 318.955261 -50.188855 
L 319.565208 -50.134268 
L 320.175156 -50.081631 
L 320.785103 -50.030902 
L 321.39505 -49.982038 
L 322.004997 -49.934997 
L 322.614944 -49.889739 
L 323.224891 -49.84622 
L 323.834839 -49.8044 
L 324.444786 -49.764238 
L 325.054733 -49.725693 
L 325.66468 -49.688724 
L 326.274627 -49.653293 
L 326.884574 -49.619357 
L 327.494522 -49.58688 
L 328.104469 -49.55582 
L 328.714416 -49.526139 
L 329.324363 -49.497799 
L 329.93431 -49.470762 
L 330.544257 -49.444989 
L 331.154205 -49.420444 
L 331.764152 -49.397089 
L 332.374099 -49.374888 
L 332.984046 -49.353804 
L 333.593993 -49.333801 
L 334.20394 -49.314845 
L 334.813888 -49.296899 
L 335.423835 -49.27993 
L 336.033782 -49.263904 
L 336.643729 -49.248786 
L 337.253676 -49.234543 
L 337.863623 -49.221143 
L 338.473571 -49.208554 
L 339.083518 -49.196743 
L 339.693465 -49.185679 
L 340.303412 -49.175332 
L 340.913359 -49.165672 
L 341.523306 -49.156667 
L 342.133254 -49.14829 
L 342.743201 -49.140512 
L 343.353148 -49.133304 
L 343.963095 -49.126639 
L 344.573042 -49.12049 
L 345.18299 -49.114831 
L 345.792937 -49.109635 
L 346.402884 -49.104878 
L 347.012831 -49.100535 
L 347.622778 -49.096582 
L 348.232725 -49.092995 
L 348.842673 -49.089751 
L 349.45262 -49.08683 
L 350.062567 -49.084208 
L 350.672514 -49.081866 
L 351.282461 -49.079784 
L 351.892408 -49.077941 
L 352.502356 -49.076319 
L 353.112303 -49.0749 
L 353.72225 -49.073666 
L 354.332197 -49.072602 
L 354.942144 -49.071691 
L 355.552091 -49.070917 
L 356.162039 -49.070267 
L 356.771986 -49.069727 
L 357.381933 -49.069283 
L 357.99188 -49.068924 
L 358.601827 -49.068638 
L 359.211774 -49.068415 
L 359.821722 -49.068245 
L 360.431669 -49.068118 
L 361.041616 -49.068027 
L 361.651563 -49.067964 
L 362.26151 -49.067923 
L 362.871457 -49.067898 
L 363.481405 -49.067885 
L 364.091352 -49.067878 
L 364.701299 -49.067876 
L 365.311246 -49.067875 
L 365.921193 -49.067875 
L 365.921193 -49.067875 
L 365.921193 -49.067875 
L 365.311246 -49.067875 
L 364.701299 -49.067875 
L 364.091352 -49.067875 
L 363.481405 -49.067875 
L 362.871457 -49.067875 
L 362.26151 -49.067875 
L 361.651563 -49.067875 
L 361.041616 -49.067875 
L 360.431669 -49.067875 
L 359.821722 -49.067875 
L 359.211774 -49.067875 
L 358.601827 -49.067875 
L 357.99188 -49.067875 
L 357.381933 -49.067875 
L 356.771986 -49.067875 
L 356.162039 -49.067875 
L 355.552091 -49.067875 
L 354.942144 -49.067875 
L 354.332197 -49.067875 
L 353.72225 -49.067875 
L 353.112303 -49.067875 
L 352.502356 -49.067875 
L 351.892408 -49.067875 
L 351.282461 -49.067875 
L 350.672514 -49.067875 
L 350.062567 -49.067875 
L 349.45262 -49.067875 
L 348.842673 -49.067875 
L 348.232725 -49.067875 
L 347.622778 -49.067875 
L 347.012831 -49.067875 
L 346.402884 -49.067875 
L 345.792937 -49.067875 
L 345.18299 -49.067875 
L 344.573042 -49.067875 
L 343.963095 -49.067875 
L 343.353148 -49.067875 
L 342.743201 -49.067875 
L 342.133254 -49.067875 
L 341.523306 -49.067875 
L 340.913359 -49.067875 
L 340.303412 -49.067875 
L 339.693465 -49.067875 
L 339.083518 -49.067875 
L 338.473571 -49.067875 
L 337.863623 -49.067875 
L 337.253676 -49.067875 
L 336.643729 -49.067875 
L 336.033782 -49.067875 
L 335.423835 -49.067875 
L 334.813888 -49.067875 
L 334.20394 -49.067875 
L 333.593993 -49.067875 
L 332.984046 -49.067875 
L 332.374099 -49.067875 
L 331.764152 -49.067875 
L 331.154205 -49.067875 
L 330.544257 -49.067875 
L 329.93431 -49.067875 
L 329.324363 -49.067875 
L 328.714416 -49.067875 
L 328.104469 -49.067875 
L 327.494522 -49.067875 
L 326.884574 -49.067875 
L 326.274627 -49.067875 
L 325.66468 -49.067875 
L 325.054733 -49.067875 
L 324.444786 -49.067875 
L 323.834839 -49.067875 
L 323.224891 -49.067875 
L 322.614944 -49.067875 
L 322.004997 -49.067875 
L 321.39505 -49.067875 
L 320.785103 -49.067875 
L 320.175156 -49.067875 
L 319.565208 -49.067875 
L 318.955261 -49.067875 
L 318.345314 -49.067875 
L 317.735367 -49.067875 
L 317.12542 -49.067875 
L 316.515473 -49.067875 
L 315.905525 -49.067875 
L 315.295578 -49.067875 
L 314.685631 -49.067875 
L 314.075684 -49.067875 
L 313.465737 -49.067875 
L 312.85579 -49.067875 
L 312.245842 -49.067875 
L 311.635895 -49.067875 
L 311.025948 -49.067875 
L 310.416001 -49.067875 
L 309.806054 -49.067875 
L 309.196107 -49.067875 
L 308.586159 -49.067875 
L 307.976212 -49.067875 
L 307.366265 -49.067875 
L 306.756318 -49.067875 
L 306.146371 -49.067875 
L 305.536424 -49.067875 
L 304.926476 -49.067875 
L 304.316529 -49.067875 
L 303.706582 -49.067875 
L 303.096635 -49.067875 
L 302.486688 -49.067875 
L 301.876741 -49.067875 
L 301.266793 -49.067875 
L 300.656846 -49.067875 
L 300.046899 -49.067875 
L 299.436952 -49.067875 
L 298.827005 -49.067875 
L 298.217058 -49.067875 
L 297.60711 -49.067875 
L 296.997163 -49.067875 
L 296.387216 -49.067875 
L 295.777269 -49.067875 
L 295.167322 -49.067875 
L 294.557375 -49.067875 
L 293.947427 -49.067875 
L 293.33748 -49.067875 
L 292.727533 -49.067875 
L 292.117586 -49.067875 
L 291.507639 -49.067875 
L 290.897692 -49.067875 
L 290.287744 -49.067875 
L 289.677797 -49.067875 
L 289.06785 -49.067875 
L 288.457903 -49.067875 
L 287.847956 -49.067875 
L 287.238009 -49.067875 
L 286.628061 -49.067875 
L 286.018114 -49.067875 
L 285.408167 -49.067875 
L 284.79822 -49.067875 
L 284.188273 -49.067875 
L 283.578326 -49.067875 
L 282.968378 -49.067875 
L 282.358431 -49.067875 
L 281.748484 -49.067875 
L 281.138537 -49.067875 
L 280.52859 -49.067875 
L 279.918643 -49.067875 
L 279.308695 -49.067875 
L 278.698748 -49.067875 
L 278.088801 -49.067875 
L 277.478854 -49.067875 
L 276.868907 -49.067875 
L 276.25896 -49.067875 
L 275.649012 -49.067875 
L 275.039065 -49.067875 
L 274.429118 -49.067875 
L 273.819171 -49.067875 
L 273.209224 -49.067875 
L 272.599277 -49.067875 
L 271.989329 -49.067875 
L 271.379382 -49.067875 
L 270.769435 -49.067875 
L 270.159488 -49.067875 
L 269.549541 -49.067875 
L 268.939594 -49.067875 
L 268.329646 -49.067875 
L 267.719699 -49.067875 
L 267.109752 -49.067875 
L 266.499805 -49.067875 
L 265.889858 -49.067875 
L 265.279911 -49.067875 
L 264.669963 -49.067875 
L 264.060016 -49.067875 
L 263.450069 -49.067875 
L 262.840122 -49.067875 
L 262.230175 -49.067875 
L 261.620228 -49.067875 
L 261.01028 -49.067875 
L 260.400333 -49.067875 
L 259.790386 -49.067875 
L 259.180439 -49.067875 
L 258.570492 -49.067875 
L 257.960545 -49.067875 
L 257.350597 -49.067875 
L 256.74065 -49.067875 
L 256.130703 -49.067875 
L 255.520756 -49.067875 
L 254.910809 -49.067875 
L 254.300862 -49.067875 
L 253.690914 -49.067875 
L 253.080967 -49.067875 
L 252.47102 -49.067875 
L 251.861073 -49.067875 
L 251.251126 -49.067875 
L 250.641179 -49.067875 
L 250.031231 -49.067875 
L 249.421284 -49.067875 
L 248.811337 -49.067875 
L 248.20139 -49.067875 
L 247.591443 -49.067875 
L 246.981496 -49.067875 
L 246.371548 -49.067875 
L 245.761601 -49.067875 
L 245.151654 -49.067875 
L 244.541707 -49.067875 
L 243.93176 -49.067875 
L 243.321813 -49.067875 
L 242.711865 -49.067875 
L 242.101918 -49.067875 
L 241.491971 -49.067875 
L 240.882024 -49.067875 
L 240.272077 -49.067875 
L 239.66213 -49.067875 
L 239.052182 -49.067875 
L 238.442235 -49.067875 
L 237.832288 -49.067875 
L 237.222341 -49.067875 
L 236.612394 -49.067875 
L 236.002447 -49.067875 
L 235.392499 -49.067875 
L 234.782552 -49.067875 
L 234.172605 -49.067875 
L 233.562658 -49.067875 
L 232.952711 -49.067875 
L 232.342764 -49.067875 
L 231.732816 -49.067875 
L 231.122869 -49.067875 
L 230.512922 -49.067875 
L 229.902975 -49.067875 
L 229.293028 -49.067875 
L 228.683081 -49.067875 
L 228.073133 -49.067875 
L 227.463186 -49.067875 
L 226.853239 -49.067875 
L 226.243292 -49.067875 
L 225.633345 -49.067875 
L 225.023398 -49.067875 
L 224.41345 -49.067875 
L 223.803503 -49.067875 
L 223.193556 -49.067875 
L 222.583609 -49.067875 
L 221.973662 -49.067875 
L 221.363715 -49.067875 
L 220.753767 -49.067875 
L 220.14382 -49.067875 
L 219.533873 -49.067875 
L 218.923926 -49.067875 
L 218.313979 -49.067875 
L 217.704032 -49.067875 
L 217.094084 -49.067875 
L 216.484137 -49.067875 
L 215.87419 -49.067875 
L 215.264243 -49.067875 
L 214.654296 -49.067875 
L 214.044349 -49.067875 
L 213.434401 -49.067875 
L 212.824454 -49.067875 
L 212.214507 -49.067875 
L 211.60456 -49.067875 
L 210.994613 -49.067875 
L 210.384666 -49.067875 
L 209.774718 -49.067875 
L 209.164771 -49.067875 
L 208.554824 -49.067875 
L 207.944877 -49.067875 
L 207.33493 -49.067875 
L 206.724983 -49.067875 
L 206.115035 -49.067875 
L 205.505088 -49.067875 
L 204.895141 -49.067875 
L 204.285194 -49.067875 
L 203.675247 -49.067875 
L 203.0653 -49.067875 
L 202.455352 -49.067875 
L 201.845405 -49.067875 
L 201.235458 -49.067875 
L 200.625511 -49.067875 
L 200.015564 -49.067875 
L 199.405617 -49.067875 
L 198.795669 -49.067875 
L 198.185722 -49.067875 
L 197.575775 -49.067875 
L 196.965828 -49.067875 
L 196.355881 -49.067875 
L 195.745934 -49.067875 
L 195.135986 -49.067875 
L 194.526039 -49.067875 
L 193.916092 -49.067875 
L 193.306145 -49.067875 
L 192.696198 -49.067875 
L 192.086251 -49.067875 
L 191.476303 -49.067875 
L 190.866356 -49.067875 
L 190.256409 -49.067875 
L 189.646462 -49.067875 
L 189.036515 -49.067875 
L 188.426568 -49.067875 
L 187.81662 -49.067875 
L 187.206673 -49.067875 
L 186.596726 -49.067875 
L 185.986779 -49.067875 
L 185.376832 -49.067875 
L 184.766885 -49.067875 
L 184.156937 -49.067875 
L 183.54699 -49.067875 
L 182.937043 -49.067875 
L 182.327096 -49.067875 
L 181.717149 -49.067875 
L 181.107202 -49.067875 
L 180.497254 -49.067875 
L 179.887307 -49.067875 
L 179.27736 -49.067875 
L 178.667413 -49.067875 
L 178.057466 -49.067875 
L 177.447519 -49.067875 
L 176.837571 -49.067875 
L 176.227624 -49.067875 
L 175.617677 -49.067875 
L 175.00773 -49.067875 
L 174.397783 -49.067875 
L 173.787836 -49.067875 
L 173.177888 -49.067875 
L 172.567941 -49.067875 
L 171.957994 -49.067875 
L 171.348047 -49.067875 
L 170.7381 -49.067875 
L 170.128153 -49.067875 
L 169.518205 -49.067875 
L 168.908258 -49.067875 
L 168.298311 -49.067875 
L 167.688364 -49.067875 
L 167.078417 -49.067875 
L 166.46847 -49.067875 
L 165.858522 -49.067875 
L 165.248575 -49.067875 
L 164.638628 -49.067875 
L 164.028681 -49.067875 
L 163.418734 -49.067875 
L 162.808787 -49.067875 
L 162.198839 -49.067875 
L 161.588892 -49.067875 
L 160.978945 -49.067875 
L 160.368998 -49.067875 
L 159.759051 -49.067875 
L 159.149104 -49.067875 
L 158.539156 -49.067875 
L 157.929209 -49.067875 
L 157.319262 -49.067875 
L 156.709315 -49.067875 
L 156.099368 -49.067875 
L 155.489421 -49.067875 
L 154.879473 -49.067875 
L 154.269526 -49.067875 
L 153.659579 -49.067875 
L 153.049632 -49.067875 
L 152.439685 -49.067875 
L 151.829738 -49.067875 
L 151.21979 -49.067875 
L 150.609843 -49.067875 
L 149.999896 -49.067875 
L 149.389949 -49.067875 
L 148.780002 -49.067875 
L 148.170055 -49.067875 
L 147.560107 -49.067875 
L 146.95016 -49.067875 
L 146.340213 -49.067875 
L 145.730266 -49.067875 
L 145.120319 -49.067875 
L 144.510372 -49.067875 
L 143.900424 -49.067875 
L 143.290477 -49.067875 
L 142.68053 -49.067875 
L 142.070583 -49.067875 
L 141.460636 -49.067875 
L 140.850689 -49.067875 
L 140.240741 -49.067875 
L 139.630794 -49.067875 
L 139.020847 -49.067875 
L 138.4109 -49.067875 
L 137.800953 -49.067875 
L 137.191006 -49.067875 
L 136.581058 -49.067875 
L 135.971111 -49.067875 
L 135.361164 -49.067875 
L 134.751217 -49.067875 
L 134.14127 -49.067875 
L 133.531323 -49.067875 
L 132.921375 -49.067875 
L 132.311428 -49.067875 
L 131.701481 -49.067875 
L 131.091534 -49.067875 
L 130.481587 -49.067875 
L 129.87164 -49.067875 
L 129.261692 -49.067875 
L 128.651745 -49.067875 
L 128.041798 -49.067875 
L 127.431851 -49.067875 
L 126.821904 -49.067875 
L 126.211957 -49.067875 
L 125.602009 -49.067875 
L 124.992062 -49.067875 
L 124.382115 -49.067875 
L 123.772168 -49.067875 
L 123.162221 -49.067875 
L 122.552274 -49.067875 
L 121.942326 -49.067875 
L 121.332379 -49.067875 
L 120.722432 -49.067875 
L 120.112485 -49.067875 
L 119.502538 -49.067875 
L 118.892591 -49.067875 
L 118.282643 -49.067875 
L 117.672696 -49.067875 
L 117.062749 -49.067875 
L 116.452802 -49.067875 
L 115.842855 -49.067875 
L 115.232908 -49.067875 
L 114.62296 -49.067875 
L 114.013013 -49.067875 
L 113.403066 -49.067875 
L 112.793119 -49.067875 
L 112.183172 -49.067875 
L 111.573225 -49.067875 
L 110.963277 -49.067875 
L 110.35333 -49.067875 
L 109.743383 -49.067875 
L 109.133436 -49.067875 
L 108.523489 -49.067875 
L 107.913542 -49.067875 
L 107.303594 -49.067875 
L 106.693647 -49.067875 
L 106.0837 -49.067875 
L 105.473753 -49.067875 
L 104.863806 -49.067875 
L 104.253859 -49.067875 
L 103.643911 -49.067875 
L 103.033964 -49.067875 
L 102.424017 -49.067875 
L 101.81407 -49.067875 
L 101.204123 -49.067875 
L 100.594176 -49.067875 
L 99.984228 -49.067875 
L 99.374281 -49.067875 
L 98.764334 -49.067875 
L 98.154387 -49.067875 
L 97.54444 -49.067875 
L 96.934493 -49.067875 
L 96.324545 -49.067875 
L 95.714598 -49.067875 
L 95.104651 -49.067875 
L 94.494704 -49.067875 
L 93.884757 -49.067875 
L 93.27481 -49.067875 
L 92.664862 -49.067875 
L 92.054915 -49.067875 
L 91.444968 -49.067875 
L 90.835021 -49.067875 
L 90.225074 -49.067875 
L 89.615127 -49.067875 
L 89.005179 -49.067875 
L 88.395232 -49.067875 
L 87.785285 -49.067875 
L 87.175338 -49.067875 
L 86.565391 -49.067875 
L 85.955444 -49.067875 
L 85.345496 -49.067875 
L 84.735549 -49.067875 
L 84.125602 -49.067875 
L 83.515655 -49.067875 
L 82.905708 -49.067875 
L 82.29576 -49.067875 
L 81.685813 -49.067875 
L 81.075866 -49.067875 
L 80.465919 -49.067875 
L 79.855972 -49.067875 
L 79.246025 -49.067875 
L 78.636077 -49.067875 
L 78.02613 -49.067875 
L 77.416183 -49.067875 
L 76.806236 -49.067875 
L 76.196289 -49.067875 
L 75.586342 -49.067875 
L 74.976394 -49.067875 
L 74.366447 -49.067875 
L 73.7565 -49.067875 
L 73.146553 -49.067875 
L 72.536606 -49.067875 
L 71.926659 -49.067875 
L 71.316711 -49.067875 
L 70.706764 -49.067875 
L 70.096817 -49.067875 
L 69.48687 -49.067875 
L 68.876923 -49.067875 
L 68.266976 -49.067875 
L 67.657028 -49.067875 
L 67.047081 -49.067875 
L 66.437134 -49.067875 
L 65.827187 -49.067875 
L 65.21724 -49.067875 
L 64.607293 -49.067875 
L 63.997345 -49.067875 
L 63.387398 -49.067875 
L 62.777451 -49.067875 
L 62.167504 -49.067875 
L 61.557557 -49.067875 
z
" style="stroke: #4c72b0; stroke-opacity: 0.25"/>
    </defs>
    <g clip-path="url(#pfee9310f24)">
     <use xlink:href="#m7901f6c211" x="0" y="281.57325" style="fill: #4c72b0; fill-opacity: 0.25; stroke: #4c72b0; stroke-opacity: 0.25"/>
    </g>
   </g>
   <g id="matplotlib.axis_1">
    <g id="xtick_1">
     <g id="line2d_1">
      <defs>
       <path id="m2562a1f727" d="M 0 0 
L 0 3.5 
" style="stroke: #000000; stroke-width: 0.8"/>
      </defs>
      <g>
       <use xlink:href="#m2562a1f727" x="61.557557" y="242.081375" style="stroke: #000000; stroke-width: 0.8"/>
      </g>
     </g>
     <g id="text_1">
      <!-- 0.0 -->
      <g transform="translate(52.810838 257.439656) scale(0.11 -0.11)">
       <defs>
        <path id="DejaVuSans-30" d="M 2034 4250 
Q 1547 4250 1301 3770 
Q 1056 3291 1056 2328 
Q 1056 1369 1301 889 
Q 1547 409 2034 409 
Q 2525 409 2770 889 
Q 3016 1369 3016 2328 
Q 3016 3291 2770 3770 
Q 2525 4250 2034 4250 
z
M 2034 4750 
Q 2819 4750 3233 4129 
Q 3647 3509 3647 2328 
Q 3647 1150 3233 529 
Q 2819 -91 2034 -91 
Q 1250 -91 836 529 
Q 422 1150 422 2328 
Q 422 3509 836 4129 
Q 1250 4750 2034 4750 
z
" transform="scale(0.015625)"/>
        <path id="DejaVuSans-2e" d="M 684 794 
L 1344 794 
L 1344 0 
L 684 0 
L 684 794 
z
" transform="scale(0.015625)"/>
       </defs>
       <use xlink:href="#DejaVuSans-30"/>
       <use xlink:href="#DejaVuSans-2e" transform="translate(63.623047 0)"/>
       <use xlink:href="#DejaVuSans-30" transform="translate(95.410156 0)"/>
      </g>
     </g>
    </g>
    <g id="xtick_2">
     <g id="line2d_2">
      <g>
       <use xlink:href="#m2562a1f727" x="122.430284" y="242.081375" style="stroke: #000000; stroke-width: 0.8"/>
      </g>
     </g>
     <g id="text_2">
      <!-- 0.2 -->
      <g transform="translate(113.683565 257.439656) scale(0.11 -0.11)">
       <defs>
        <path id="DejaVuSans-32" d="M 1228 531 
L 3431 531 
L 3431 0 
L 469 0 
L 469 531 
Q 828 903 1448 1529 
Q 2069 2156 2228 2338 
Q 2531 2678 2651 2914 
Q 2772 3150 2772 3378 
Q 2772 3750 2511 3984 
Q 2250 4219 1831 4219 
Q 1534 4219 1204 4116 
Q 875 4013 500 3803 
L 500 4441 
Q 881 4594 1212 4672 
Q 1544 4750 1819 4750 
Q 2544 4750 2975 4387 
Q 3406 4025 3406 3419 
Q 3406 3131 3298 2873 
Q 3191 2616 2906 2266 
Q 2828 2175 2409 1742 
Q 1991 1309 1228 531 
z
" transform="scale(0.015625)"/>
       </defs>
       <use xlink:href="#DejaVuSans-30"/>
       <use xlink:href="#DejaVuSans-2e" transform="translate(63.623047 0)"/>
       <use xlink:href="#DejaVuSans-32" transform="translate(95.410156 0)"/>
      </g>
     </g>
    </g>
    <g id="xtick_3">
     <g id="line2d_3">
      <g>
       <use xlink:href="#m2562a1f727" x="183.303011" y="242.081375" style="stroke: #000000; stroke-width: 0.8"/>
      </g>
     </g>
     <g id="text_3">
      <!-- 0.4 -->
      <g transform="translate(174.556293 257.439656) scale(0.11 -0.11)">
       <defs>
        <path id="DejaVuSans-34" d="M 2419 4116 
L 825 1625 
L 2419 1625 
L 2419 4116 
z
M 2253 4666 
L 3047 4666 
L 3047 1625 
L 3713 1625 
L 3713 1100 
L 3047 1100 
L 3047 0 
L 2419 0 
L 2419 1100 
L 313 1100 
L 313 1709 
L 2253 4666 
z
" transform="scale(0.015625)"/>
       </defs>
       <use xlink:href="#DejaVuSans-30"/>
       <use xlink:href="#DejaVuSans-2e" transform="translate(63.623047 0)"/>
       <use xlink:href="#DejaVuSans-34" transform="translate(95.410156 0)"/>
      </g>
     </g>
    </g>
    <g id="xtick_4">
     <g id="line2d_4">
      <g>
       <use xlink:href="#m2562a1f727" x="244.175739" y="242.081375" style="stroke: #000000; stroke-width: 0.8"/>
      </g>
     </g>
     <g id="text_4">
      <!-- 0.6 -->
      <g transform="translate(235.42902 257.439656) scale(0.11 -0.11)">
       <defs>
        <path id="DejaVuSans-36" d="M 2113 2584 
Q 1688 2584 1439 2293 
Q 1191 2003 1191 1497 
Q 1191 994 1439 701 
Q 1688 409 2113 409 
Q 2538 409 2786 701 
Q 3034 994 3034 1497 
Q 3034 2003 2786 2293 
Q 2538 2584 2113 2584 
z
M 3366 4563 
L 3366 3988 
Q 3128 4100 2886 4159 
Q 2644 4219 2406 4219 
Q 1781 4219 1451 3797 
Q 1122 3375 1075 2522 
Q 1259 2794 1537 2939 
Q 1816 3084 2150 3084 
Q 2853 3084 3261 2657 
Q 3669 2231 3669 1497 
Q 3669 778 3244 343 
Q 2819 -91 2113 -91 
Q 1303 -91 875 529 
Q 447 1150 447 2328 
Q 447 3434 972 4092 
Q 1497 4750 2381 4750 
Q 2619 4750 2861 4703 
Q 3103 4656 3366 4563 
z
" transform="scale(0.015625)"/>
       </defs>
       <use xlink:href="#DejaVuSans-30"/>
       <use xlink:href="#DejaVuSans-2e" transform="translate(63.623047 0)"/>
       <use xlink:href="#DejaVuSans-36" transform="translate(95.410156 0)"/>
      </g>
     </g>
    </g>
    <g id="xtick_5">
     <g id="line2d_5">
      <g>
       <use xlink:href="#m2562a1f727" x="305.048466" y="242.081375" style="stroke: #000000; stroke-width: 0.8"/>
      </g>
     </g>
     <g id="text_5">
      <!-- 0.8 -->
      <g transform="translate(296.301747 257.439656) scale(0.11 -0.11)">
       <defs>
        <path id="DejaVuSans-38" d="M 2034 2216 
Q 1584 2216 1326 1975 
Q 1069 1734 1069 1313 
Q 1069 891 1326 650 
Q 1584 409 2034 409 
Q 2484 409 2743 651 
Q 3003 894 3003 1313 
Q 3003 1734 2745 1975 
Q 2488 2216 2034 2216 
z
M 1403 2484 
Q 997 2584 770 2862 
Q 544 3141 544 3541 
Q 544 4100 942 4425 
Q 1341 4750 2034 4750 
Q 2731 4750 3128 4425 
Q 3525 4100 3525 3541 
Q 3525 3141 3298 2862 
Q 3072 2584 2669 2484 
Q 3125 2378 3379 2068 
Q 3634 1759 3634 1313 
Q 3634 634 3220 271 
Q 2806 -91 2034 -91 
Q 1263 -91 848 271 
Q 434 634 434 1313 
Q 434 1759 690 2068 
Q 947 2378 1403 2484 
z
M 1172 3481 
Q 1172 3119 1398 2916 
Q 1625 2713 2034 2713 
Q 2441 2713 2670 2916 
Q 2900 3119 2900 3481 
Q 2900 3844 2670 4047 
Q 2441 4250 2034 4250 
Q 1625 4250 1398 4047 
Q 1172 3844 1172 3481 
z
" transform="scale(0.015625)"/>
       </defs>
       <use xlink:href="#DejaVuSans-30"/>
       <use xlink:href="#DejaVuSans-2e" transform="translate(63.623047 0)"/>
       <use xlink:href="#DejaVuSans-38" transform="translate(95.410156 0)"/>
      </g>
     </g>
    </g>
    <g id="xtick_6">
     <g id="line2d_6">
      <g>
       <use xlink:href="#m2562a1f727" x="365.921193" y="242.081375" style="stroke: #000000; stroke-width: 0.8"/>
      </g>
     </g>
     <g id="text_6">
      <!-- 1.0 -->
      <g transform="translate(357.174474 257.439656) scale(0.11 -0.11)">
       <defs>
        <path id="DejaVuSans-31" d="M 794 531 
L 1825 531 
L 1825 4091 
L 703 3866 
L 703 4441 
L 1819 4666 
L 2450 4666 
L 2450 531 
L 3481 531 
L 3481 0 
L 794 0 
L 794 531 
z
" transform="scale(0.015625)"/>
       </defs>
       <use xlink:href="#DejaVuSans-31"/>
       <use xlink:href="#DejaVuSans-2e" transform="translate(63.623047 0)"/>
       <use xlink:href="#DejaVuSans-30" transform="translate(95.410156 0)"/>
      </g>
     </g>
    </g>
    <g id="text_7">
     <!-- p (probability) -->
     <g transform="translate(174.864688 272.085594) scale(0.11 -0.11)">
      <defs>
       <path id="DejaVuSans-70" d="M 1159 525 
L 1159 -1331 
L 581 -1331 
L 581 3500 
L 1159 3500 
L 1159 2969 
Q 1341 3281 1617 3432 
Q 1894 3584 2278 3584 
Q 2916 3584 3314 3078 
Q 3713 2572 3713 1747 
Q 3713 922 3314 415 
Q 2916 -91 2278 -91 
Q 1894 -91 1617 61 
Q 1341 213 1159 525 
z
M 3116 1747 
Q 3116 2381 2855 2742 
Q 2594 3103 2138 3103 
Q 1681 3103 1420 2742 
Q 1159 2381 1159 1747 
Q 1159 1113 1420 752 
Q 1681 391 2138 391 
Q 2594 391 2855 752 
Q 3116 1113 3116 1747 
z
" transform="scale(0.015625)"/>
       <path id="DejaVuSans-20" transform="scale(0.015625)"/>
       <path id="DejaVuSans-28" d="M 1984 4856 
Q 1566 4138 1362 3434 
Q 1159 2731 1159 2009 
Q 1159 1288 1364 580 
Q 1569 -128 1984 -844 
L 1484 -844 
Q 1016 -109 783 600 
Q 550 1309 550 2009 
Q 550 2706 781 3412 
Q 1013 4119 1484 4856 
L 1984 4856 
z
" transform="scale(0.015625)"/>
       <path id="DejaVuSans-72" d="M 2631 2963 
Q 2534 3019 2420 3045 
Q 2306 3072 2169 3072 
Q 1681 3072 1420 2755 
Q 1159 2438 1159 1844 
L 1159 0 
L 581 0 
L 581 3500 
L 1159 3500 
L 1159 2956 
Q 1341 3275 1631 3429 
Q 1922 3584 2338 3584 
Q 2397 3584 2469 3576 
Q 2541 3569 2628 3553 
L 2631 2963 
z
" transform="scale(0.015625)"/>
       <path id="DejaVuSans-6f" d="M 1959 3097 
Q 1497 3097 1228 2736 
Q 959 2375 959 1747 
Q 959 1119 1226 758 
Q 1494 397 1959 397 
Q 2419 397 2687 759 
Q 2956 1122 2956 1747 
Q 2956 2369 2687 2733 
Q 2419 3097 1959 3097 
z
M 1959 3584 
Q 2709 3584 3137 3096 
Q 3566 2609 3566 1747 
Q 3566 888 3137 398 
Q 2709 -91 1959 -91 
Q 1206 -91 779 398 
Q 353 888 353 1747 
Q 353 2609 779 3096 
Q 1206 3584 1959 3584 
z
" transform="scale(0.015625)"/>
       <path id="DejaVuSans-62" d="M 3116 1747 
Q 3116 2381 2855 2742 
Q 2594 3103 2138 3103 
Q 1681 3103 1420 2742 
Q 1159 2381 1159 1747 
Q 1159 1113 1420 752 
Q 1681 391 2138 391 
Q 2594 391 2855 752 
Q 3116 1113 3116 1747 
z
M 1159 2969 
Q 1341 3281 1617 3432 
Q 1894 3584 2278 3584 
Q 2916 3584 3314 3078 
Q 3713 2572 3713 1747 
Q 3713 922 3314 415 
Q 2916 -91 2278 -91 
Q 1894 -91 1617 61 
Q 1341 213 1159 525 
L 1159 0 
L 581 0 
L 581 4863 
L 1159 4863 
L 1159 2969 
z
" transform="scale(0.015625)"/>
       <path id="DejaVuSans-61" d="M 2194 1759 
Q 1497 1759 1228 1600 
Q 959 1441 959 1056 
Q 959 750 1161 570 
Q 1363 391 1709 391 
Q 2188 391 2477 730 
Q 2766 1069 2766 1631 
L 2766 1759 
L 2194 1759 
z
M 3341 1997 
L 3341 0 
L 2766 0 
L 2766 531 
Q 2569 213 2275 61 
Q 1981 -91 1556 -91 
Q 1019 -91 701 211 
Q 384 513 384 1019 
Q 384 1609 779 1909 
Q 1175 2209 1959 2209 
L 2766 2209 
L 2766 2266 
Q 2766 2663 2505 2880 
Q 2244 3097 1772 3097 
Q 1472 3097 1187 3025 
Q 903 2953 641 2809 
L 641 3341 
Q 956 3463 1253 3523 
Q 1550 3584 1831 3584 
Q 2591 3584 2966 3190 
Q 3341 2797 3341 1997 
z
" transform="scale(0.015625)"/>
       <path id="DejaVuSans-69" d="M 603 3500 
L 1178 3500 
L 1178 0 
L 603 0 
L 603 3500 
z
M 603 4863 
L 1178 4863 
L 1178 4134 
L 603 4134 
L 603 4863 
z
" transform="scale(0.015625)"/>
       <path id="DejaVuSans-6c" d="M 603 4863 
L 1178 4863 
L 1178 0 
L 603 0 
L 603 4863 
z
" transform="scale(0.015625)"/>
       <path id="DejaVuSans-74" d="M 1172 4494 
L 1172 3500 
L 2356 3500 
L 2356 3053 
L 1172 3053 
L 1172 1153 
Q 1172 725 1289 603 
Q 1406 481 1766 481 
L 2356 481 
L 2356 0 
L 1766 0 
Q 1100 0 847 248 
Q 594 497 594 1153 
L 594 3053 
L 172 3053 
L 172 3500 
L 594 3500 
L 594 4494 
L 1172 4494 
z
" transform="scale(0.015625)"/>
       <path id="DejaVuSans-79" d="M 2059 -325 
Q 1816 -950 1584 -1140 
Q 1353 -1331 966 -1331 
L 506 -1331 
L 506 -850 
L 844 -850 
Q 1081 -850 1212 -737 
Q 1344 -625 1503 -206 
L 1606 56 
L 191 3500 
L 800 3500 
L 1894 763 
L 2988 3500 
L 3597 3500 
L 2059 -325 
z
" transform="scale(0.015625)"/>
       <path id="DejaVuSans-29" d="M 513 4856 
L 1013 4856 
Q 1481 4119 1714 3412 
Q 1947 2706 1947 2009 
Q 1947 1309 1714 600 
Q 1481 -109 1013 -844 
L 513 -844 
Q 928 -128 1133 580 
Q 1338 1288 1338 2009 
Q 1338 2731 1133 3434 
Q 928 4138 513 4856 
z
" transform="scale(0.015625)"/>
      </defs>
      <use xlink:href="#DejaVuSans-70"/>
      <use xlink:href="#DejaVuSans-20" transform="translate(63.476562 0)"/>
      <use xlink:href="#DejaVuSans-28" transform="translate(95.263672 0)"/>
      <use xlink:href="#DejaVuSans-70" transform="translate(134.277344 0)"/>
      <use xlink:href="#DejaVuSans-72" transform="translate(197.753906 0)"/>
      <use xlink:href="#DejaVuSans-6f" transform="translate(236.617188 0)"/>
      <use xlink:href="#DejaVuSans-62" transform="translate(297.798828 0)"/>
      <use xlink:href="#DejaVuSans-61" transform="translate(361.275391 0)"/>
      <use xlink:href="#DejaVuSans-62" transform="translate(422.554688 0)"/>
      <use xlink:href="#DejaVuSans-69" transform="translate(486.03125 0)"/>
      <use xlink:href="#DejaVuSans-6c" transform="translate(513.814453 0)"/>
      <use xlink:href="#DejaVuSans-69" transform="translate(541.597656 0)"/>
      <use xlink:href="#DejaVuSans-74" transform="translate(569.380859 0)"/>
      <use xlink:href="#DejaVuSans-79" transform="translate(608.589844 0)"/>
      <use xlink:href="#DejaVuSans-29" transform="translate(667.769531 0)"/>
     </g>
    </g>
   </g>
   <g id="matplotlib.axis_2">
    <g id="ytick_1">
     <g id="line2d_7">
      <defs>
       <path id="m92fad418fe" d="M 0 0 
L -3.5 0 
" style="stroke: #000000; stroke-width: 0.8"/>
      </defs>
      <g>
       <use xlink:href="#m92fad418fe" x="46.339375" y="232.505375" style="stroke: #000000; stroke-width: 0.8"/>
      </g>
     </g>
     <g id="text_8">
      <!-- 0.0 -->
      <g transform="translate(21.845938 236.684516) scale(0.11 -0.11)">
       <use xlink:href="#DejaVuSans-30"/>
       <use xlink:href="#DejaVuSans-2e" transform="translate(63.623047 0)"/>
       <use xlink:href="#DejaVuSans-30" transform="translate(95.410156 0)"/>
      </g>
     </g>
    </g>
    <g id="ytick_2">
     <g id="line2d_8">
      <g>
       <use xlink:href="#m92fad418fe" x="46.339375" y="193.540434" style="stroke: #000000; stroke-width: 0.8"/>
      </g>
     </g>
     <g id="text_9">
      <!-- 0.5 -->
      <g transform="translate(21.845938 197.719574) scale(0.11 -0.11)">
       <defs>
        <path id="DejaVuSans-35" d="M 691 4666 
L 3169 4666 
L 3169 4134 
L 1269 4134 
L 1269 2991 
Q 1406 3038 1543 3061 
Q 1681 3084 1819 3084 
Q 2600 3084 3056 2656 
Q 3513 2228 3513 1497 
Q 3513 744 3044 326 
Q 2575 -91 1722 -91 
Q 1428 -91 1123 -41 
Q 819 9 494 109 
L 494 744 
Q 775 591 1075 516 
Q 1375 441 1709 441 
Q 2250 441 2565 725 
Q 2881 1009 2881 1497 
Q 2881 1984 2565 2268 
Q 2250 2553 1709 2553 
Q 1456 2553 1204 2497 
Q 953 2441 691 2322 
L 691 4666 
z
" transform="scale(0.015625)"/>
       </defs>
       <use xlink:href="#DejaVuSans-30"/>
       <use xlink:href="#DejaVuSans-2e" transform="translate(63.623047 0)"/>
       <use xlink:href="#DejaVuSans-35" transform="translate(95.410156 0)"/>
      </g>
     </g>
    </g>
    <g id="ytick_3">
     <g id="line2d_9">
      <g>
       <use xlink:href="#m92fad418fe" x="46.339375" y="154.575492" style="stroke: #000000; stroke-width: 0.8"/>
      </g>
     </g>
     <g id="text_10">
      <!-- 1.0 -->
      <g transform="translate(21.845938 158.754633) scale(0.11 -0.11)">
       <use xlink:href="#DejaVuSans-31"/>
       <use xlink:href="#DejaVuSans-2e" transform="translate(63.623047 0)"/>
       <use xlink:href="#DejaVuSans-30" transform="translate(95.410156 0)"/>
      </g>
     </g>
    </g>
    <g id="ytick_4">
     <g id="line2d_10">
      <g>
       <use xlink:href="#m92fad418fe" x="46.339375" y="115.610551" style="stroke: #000000; stroke-width: 0.8"/>
      </g>
     </g>
     <g id="text_11">
      <!-- 1.5 -->
      <g transform="translate(21.845938 119.789691) scale(0.11 -0.11)">
       <use xlink:href="#DejaVuSans-31"/>
       <use xlink:href="#DejaVuSans-2e" transform="translate(63.623047 0)"/>
       <use xlink:href="#DejaVuSans-35" transform="translate(95.410156 0)"/>
      </g>
     </g>
    </g>
    <g id="ytick_5">
     <g id="line2d_11">
      <g>
       <use xlink:href="#m92fad418fe" x="46.339375" y="76.645609" style="stroke: #000000; stroke-width: 0.8"/>
      </g>
     </g>
     <g id="text_12">
      <!-- 2.0 -->
      <g transform="translate(21.845938 80.82475) scale(0.11 -0.11)">
       <use xlink:href="#DejaVuSans-32"/>
       <use xlink:href="#DejaVuSans-2e" transform="translate(63.623047 0)"/>
       <use xlink:href="#DejaVuSans-30" transform="translate(95.410156 0)"/>
      </g>
     </g>
    </g>
    <g id="ytick_6">
     <g id="line2d_12">
      <g>
       <use xlink:href="#m92fad418fe" x="46.339375" y="37.680668" style="stroke: #000000; stroke-width: 0.8"/>
      </g>
     </g>
     <g id="text_13">
      <!-- 2.5 -->
      <g transform="translate(21.845938 41.859808) scale(0.11 -0.11)">
       <use xlink:href="#DejaVuSans-32"/>
       <use xlink:href="#DejaVuSans-2e" transform="translate(63.623047 0)"/>
       <use xlink:href="#DejaVuSans-35" transform="translate(95.410156 0)"/>
      </g>
     </g>
    </g>
    <g id="text_14">
     <!-- f(p) -->
     <g transform="translate(15.558281 146.464906) rotate(-90) scale(0.11 -0.11)">
      <defs>
       <path id="DejaVuSans-66" d="M 2375 4863 
L 2375 4384 
L 1825 4384 
Q 1516 4384 1395 4259 
Q 1275 4134 1275 3809 
L 1275 3500 
L 2222 3500 
L 2222 3053 
L 1275 3053 
L 1275 0 
L 697 0 
L 697 3053 
L 147 3053 
L 147 3500 
L 697 3500 
L 697 3744 
Q 697 4328 969 4595 
Q 1241 4863 1831 4863 
L 2375 4863 
z
" transform="scale(0.015625)"/>
      </defs>
      <use xlink:href="#DejaVuSans-66"/>
      <use xlink:href="#DejaVuSans-28" transform="translate(35.205078 0)"/>
      <use xlink:href="#DejaVuSans-70" transform="translate(74.21875 0)"/>
      <use xlink:href="#DejaVuSans-29" transform="translate(137.695312 0)"/>
     </g>
    </g>
   </g>
   <g id="line2d_13">
    <path d="M 61.557557 232.505375 
L 64.607293 210.004451 
L 67.657028 189.29799 
L 70.706764 170.304677 
L 73.7565 152.945407 
L 76.196289 140.182732 
L 78.636077 128.37817 
L 81.075866 117.494197 
L 83.515655 107.494149 
L 85.955444 98.342213 
L 88.395232 90.003423 
L 90.835021 82.443643 
L 93.27481 75.629563 
L 95.714598 69.528689 
L 98.154387 64.109332 
L 100.594176 59.3406 
L 103.033964 55.192389 
L 104.863806 52.470776 
L 106.693647 50.069607 
L 108.523489 47.977033 
L 110.35333 46.181448 
L 112.183172 44.67148 
L 114.013013 43.435991 
L 115.842855 42.464079 
L 117.672696 41.745067 
L 119.502538 41.26851 
L 121.332379 41.024186 
L 123.162221 41.002097 
L 124.992062 41.192467 
L 126.821904 41.58574 
L 128.651745 42.172573 
L 130.481587 42.943842 
L 132.921375 44.243724 
L 135.361164 45.83512 
L 137.800953 47.698139 
L 140.240741 49.813532 
L 143.290477 52.784383 
L 146.340213 56.085564 
L 149.389949 59.683603 
L 153.049632 64.348156 
L 157.319262 70.202345 
L 162.198839 77.340877 
L 167.688364 85.813776 
L 174.397783 96.607436 
L 186.596726 116.770104 
L 196.965828 133.742301 
L 204.285194 145.304287 
L 210.384666 154.545147 
L 215.87419 162.491599 
L 221.363715 170.043182 
L 226.243292 176.396929 
L 231.122869 182.393986 
L 236.002447 188.021051 
L 240.272077 192.634198 
L 244.541707 196.954024 
L 248.811337 200.979595 
L 253.080967 204.712139 
L 257.350597 208.154891 
L 261.620228 211.312941 
L 265.889858 214.193081 
L 270.159488 216.803654 
L 274.429118 219.154399 
L 278.698748 221.256303 
L 282.968378 223.121444 
L 287.238009 224.762841 
L 292.117586 226.382494 
L 296.997163 227.749574 
L 301.876741 228.88648 
L 307.366265 229.918875 
L 312.85579 230.721778 
L 318.955261 231.384395 
L 325.66468 231.884526 
L 333.593993 232.239449 
L 343.353148 232.439946 
L 359.211774 232.504835 
L 365.921193 232.505375 
L 365.921193 232.505375 
" clip-path="url(#pfee9310f24)" style="fill: none; stroke: #4c72b0; stroke-width: 2.2; stroke-linecap: square"/>
   </g>
   <g id="line2d_14">
    <path d="M 148.518596 242.081375 
L 148.518596 31.409375 
" clip-path="url(#pfee9310f24)" style="fill: none; stroke-dasharray: 4.44,1.92; stroke-dashoffset: 0; stroke: #dc2626; stroke-opacity: 0.8; stroke-width: 1.2"/>
   </g>
   <g id="patch_3">
    <path d="M 46.339375 242.081375 
L 46.339375 31.409375 
" style="fill: none; stroke: #000000; stroke-width: 0.8; stroke-linejoin: miter; stroke-linecap: square"/>
   </g>
   <g id="patch_4">
    <path d="M 46.339375 242.081375 
L 381.139375 242.081375 
" style="fill: none; stroke: #000000; stroke-width: 0.8; stroke-linejoin: miter; stroke-linecap: square"/>
   </g>
   <g id="text_15">
    <!-- Mean = α/(α+β) = 0.29 -->
    <g style="fill: #dc2626" transform="translate(160.693141 69.713375) scale(0.09 -0.09)">
     <defs>
      <path id="DejaVuSans-Bold-4d" d="M 588 4666 
L 2119 4666 
L 3181 2169 
L 4250 4666 
L 5778 4666 
L 5778 0 
L 4641 0 
L 4641 3413 
L 3566 897 
L 2803 897 
L 1728 3413 
L 1728 0 
L 588 0 
L 588 4666 
z
" transform="scale(0.015625)"/>
      <path id="DejaVuSans-Bold-65" d="M 4031 1759 
L 4031 1441 
L 1416 1441 
Q 1456 1047 1700 850 
Q 1944 653 2381 653 
Q 2734 653 3104 758 
Q 3475 863 3866 1075 
L 3866 213 
Q 3469 63 3072 -14 
Q 2675 -91 2278 -91 
Q 1328 -91 801 392 
Q 275 875 275 1747 
Q 275 2603 792 3093 
Q 1309 3584 2216 3584 
Q 3041 3584 3536 3087 
Q 4031 2591 4031 1759 
z
M 2881 2131 
Q 2881 2450 2695 2645 
Q 2509 2841 2209 2841 
Q 1884 2841 1681 2658 
Q 1478 2475 1428 2131 
L 2881 2131 
z
" transform="scale(0.015625)"/>
      <path id="DejaVuSans-Bold-61" d="M 2106 1575 
Q 1756 1575 1579 1456 
Q 1403 1338 1403 1106 
Q 1403 894 1545 773 
Q 1688 653 1941 653 
Q 2256 653 2472 879 
Q 2688 1106 2688 1447 
L 2688 1575 
L 2106 1575 
z
M 3816 1997 
L 3816 0 
L 2688 0 
L 2688 519 
Q 2463 200 2181 54 
Q 1900 -91 1497 -91 
Q 953 -91 614 226 
Q 275 544 275 1050 
Q 275 1666 698 1953 
Q 1122 2241 2028 2241 
L 2688 2241 
L 2688 2328 
Q 2688 2594 2478 2717 
Q 2269 2841 1825 2841 
Q 1466 2841 1156 2769 
Q 847 2697 581 2553 
L 581 3406 
Q 941 3494 1303 3539 
Q 1666 3584 2028 3584 
Q 2975 3584 3395 3211 
Q 3816 2838 3816 1997 
z
" transform="scale(0.015625)"/>
      <path id="DejaVuSans-Bold-6e" d="M 4056 2131 
L 4056 0 
L 2931 0 
L 2931 347 
L 2931 1631 
Q 2931 2084 2911 2256 
Q 2891 2428 2841 2509 
Q 2775 2619 2662 2680 
Q 2550 2741 2406 2741 
Q 2056 2741 1856 2470 
Q 1656 2200 1656 1722 
L 1656 0 
L 538 0 
L 538 3500 
L 1656 3500 
L 1656 2988 
Q 1909 3294 2193 3439 
Q 2478 3584 2822 3584 
Q 3428 3584 3742 3212 
Q 4056 2841 4056 2131 
z
" transform="scale(0.015625)"/>
      <path id="DejaVuSans-Bold-20" transform="scale(0.015625)"/>
      <path id="DejaVuSans-Bold-3d" d="M 678 3084 
L 4684 3084 
L 4684 2350 
L 678 2350 
L 678 3084 
z
M 678 1663 
L 4684 1663 
L 4684 922 
L 678 922 
L 678 1663 
z
" transform="scale(0.015625)"/>
      <path id="DejaVuSans-Bold-3b1" d="M 3006 3163 
L 3119 3500 
L 4088 3500 
L 3484 1697 
L 3569 1219 
Q 3659 703 3872 703 
L 4128 703 
L 4128 0 
L 3809 0 
Q 3313 0 3059 263 
Q 3003 322 2988 353 
Q 2838 163 2689 39 
Q 2541 -84 1763 -78 
Q 988 -72 648 400 
Q 309 872 309 1794 
Q 309 2713 663 3088 
Q 1109 3569 1966 3578 
Q 2688 3588 3006 3163 
z
M 2575 1841 
L 2481 2350 
Q 2394 2825 1981 2828 
Q 1772 2828 1598 2558 
Q 1425 2288 1425 1741 
Q 1425 1191 1581 944 
Q 1738 697 1969 691 
Q 2213 684 2363 1163 
L 2575 1841 
z
" transform="scale(0.015625)"/>
      <path id="DejaVuSans-Bold-2f" d="M 1644 4666 
L 2338 4666 
L 691 -594 
L 0 -594 
L 1644 4666 
z
" transform="scale(0.015625)"/>
      <path id="DejaVuSans-Bold-28" d="M 2413 -844 
L 1484 -844 
Q 1006 -72 778 623 
Q 550 1319 550 2003 
Q 550 2688 779 3389 
Q 1009 4091 1484 4856 
L 2413 4856 
Q 2013 4116 1813 3408 
Q 1613 2700 1613 2009 
Q 1613 1319 1811 609 
Q 2009 -100 2413 -844 
z
" transform="scale(0.015625)"/>
      <path id="DejaVuSans-Bold-2b" d="M 3053 4013 
L 3053 2375 
L 4684 2375 
L 4684 1638 
L 3053 1638 
L 3053 0 
L 2309 0 
L 2309 1638 
L 678 1638 
L 678 2375 
L 2309 2375 
L 2309 4013 
L 3053 4013 
z
" transform="scale(0.015625)"/>
      <path id="DejaVuSans-Bold-3b2" d="M 2575 3038 
Q 2772 3309 2772 3503 
Q 2772 3769 2648 3948 
Q 2525 4128 2241 4128 
Q 1900 4128 1778 3864 
Q 1656 3600 1656 3103 
L 1656 1747 
Q 1656 1250 1848 986 
Q 2041 722 2400 722 
Q 2800 722 2953 934 
Q 3106 1147 3106 1275 
Q 3106 1722 2738 1988 
Q 2538 2122 1988 2134 
L 1988 2847 
Q 2497 2925 2575 3038 
z
M 538 -1331 
L 538 3044 
Q 538 3922 969 4369 
Q 1325 4741 1672 4845 
Q 2019 4950 2259 4950 
Q 2500 4947 2538 4941 
Q 3178 4841 3538 4438 
Q 3788 4163 3788 3600 
Q 3788 3313 3616 3053 
Q 3406 2734 3094 2709 
Q 3556 2584 3844 2322 
Q 4294 1919 4294 1288 
Q 4294 731 3903 320 
Q 3513 -91 2809 -91 
Q 2106 -91 1656 506 
L 1656 -1331 
L 538 -1331 
z
" transform="scale(0.015625)"/>
      <path id="DejaVuSans-Bold-29" d="M 513 -844 
Q 913 -100 1113 609 
Q 1313 1319 1313 2009 
Q 1313 2700 1113 3408 
Q 913 4116 513 4856 
L 1441 4856 
Q 1916 4091 2145 3389 
Q 2375 2688 2375 2003 
Q 2375 1319 2147 623 
Q 1919 -72 1441 -844 
L 513 -844 
z
" transform="scale(0.015625)"/>
      <path id="DejaVuSans-Bold-30" d="M 2944 2338 
Q 2944 3213 2780 3570 
Q 2616 3928 2228 3928 
Q 1841 3928 1675 3570 
Q 1509 3213 1509 2338 
Q 1509 1453 1675 1090 
Q 1841 728 2228 728 
Q 2613 728 2778 1090 
Q 2944 1453 2944 2338 
z
M 4147 2328 
Q 4147 1169 3647 539 
Q 3147 -91 2228 -91 
Q 1306 -91 806 539 
Q 306 1169 306 2328 
Q 306 3491 806 4120 
Q 1306 4750 2228 4750 
Q 3147 4750 3647 4120 
Q 4147 3491 4147 2328 
z
" transform="scale(0.015625)"/>
      <path id="DejaVuSans-Bold-2e" d="M 653 1209 
L 1778 1209 
L 1778 0 
L 653 0 
L 653 1209 
z
" transform="scale(0.015625)"/>
      <path id="DejaVuSans-Bold-32" d="M 1844 884 
L 3897 884 
L 3897 0 
L 506 0 
L 506 884 
L 2209 2388 
Q 2438 2594 2547 2791 
Q 2656 2988 2656 3200 
Q 2656 3528 2436 3728 
Q 2216 3928 1850 3928 
Q 1569 3928 1234 3808 
Q 900 3688 519 3450 
L 519 4475 
Q 925 4609 1322 4679 
Q 1719 4750 2100 4750 
Q 2938 4750 3402 4381 
Q 3866 4013 3866 3353 
Q 3866 2972 3669 2642 
Q 3472 2313 2841 1759 
L 1844 884 
z
" transform="scale(0.015625)"/>
      <path id="DejaVuSans-Bold-39" d="M 641 103 
L 641 966 
Q 928 831 1190 764 
Q 1453 697 1709 697 
Q 2247 697 2547 995 
Q 2847 1294 2900 1881 
Q 2688 1725 2447 1647 
Q 2206 1569 1925 1569 
Q 1209 1569 770 1986 
Q 331 2403 331 3084 
Q 331 3838 820 4291 
Q 1309 4744 2131 4744 
Q 3044 4744 3544 4128 
Q 4044 3513 4044 2388 
Q 4044 1231 3459 570 
Q 2875 -91 1856 -91 
Q 1528 -91 1228 -42 
Q 928 6 641 103 
z
M 2125 2350 
Q 2441 2350 2600 2554 
Q 2759 2759 2759 3169 
Q 2759 3575 2600 3781 
Q 2441 3988 2125 3988 
Q 1809 3988 1650 3781 
Q 1491 3575 1491 3169 
Q 1491 2759 1650 2554 
Q 1809 2350 2125 2350 
z
" transform="scale(0.015625)"/>
     </defs>
     <use xlink:href="#DejaVuSans-Bold-4d"/>
     <use xlink:href="#DejaVuSans-Bold-65" transform="translate(99.511719 0)"/>
     <use xlink:href="#DejaVuSans-Bold-61" transform="translate(167.333984 0)"/>
     <use xlink:href="#DejaVuSans-Bold-6e" transform="translate(234.814453 0)"/>
     <use xlink:href="#DejaVuSans-Bold-20" transform="translate(306.005859 0)"/>
     <use xlink:href="#DejaVuSans-Bold-3d" transform="translate(340.820312 0)"/>
     <use xlink:href="#DejaVuSans-Bold-20" transform="translate(424.609375 0)"/>
     <use xlink:href="#DejaVuSans-Bold-3b1" transform="translate(459.423828 0)"/>
     <use xlink:href="#DejaVuSans-Bold-2f" transform="translate(528.125 0)"/>
     <use xlink:href="#DejaVuSans-Bold-28" transform="translate(564.648438 0)"/>
     <use xlink:href="#DejaVuSans-Bold-3b1" transform="translate(610.351562 0)"/>
     <use xlink:href="#DejaVuSans-Bold-2b" transform="translate(679.052734 0)"/>
     <use xlink:href="#DejaVuSans-Bold-3b2" transform="translate(762.841797 0)"/>
     <use xlink:href="#DejaVuSans-Bold-29" transform="translate(834.423828 0)"/>
     <use xlink:href="#DejaVuSans-Bold-20" transform="translate(880.126953 0)"/>
     <use xlink:href="#DejaVuSans-Bold-3d" transform="translate(914.941406 0)"/>
     <use xlink:href="#DejaVuSans-Bold-20" transform="translate(998.730469 0)"/>
     <use xlink:href="#DejaVuSans-Bold-30" transform="translate(1033.544922 0)"/>
     <use xlink:href="#DejaVuSans-Bold-2e" transform="translate(1103.125 0)"/>
     <use xlink:href="#DejaVuSans-Bold-32" transform="translate(1141.113281 0)"/>
     <use xlink:href="#DejaVuSans-Bold-39" transform="translate(1210.693359 0)"/>
    </g>
   </g>
   <g id="text_16">
    <g id="patch_5">
     <path d="M 231.822906 74.40935 
L 374.443375 74.40935 
Q 378.043375 74.40935 378.043375 70.80935 
L 378.043375 41.942975 
Q 378.043375 38.342975 374.443375 38.342975 
L 231.822906 38.342975 
Q 228.222906 38.342975 228.222906 41.942975 
L 228.222906 70.80935 
Q 228.222906 74.40935 231.822906 74.40935 
z
" style="fill: #f0f0f0; stroke: #cccccc; stroke-linejoin: miter"/>
    </g>
    <!-- Defined on [0, 1] -->
    <g style="fill: #555555" transform="translate(298.224625 48.781569) scale(0.09 -0.09)">
     <defs>
      <path id="DejaVuSans-44" d="M 1259 4147 
L 1259 519 
L 2022 519 
Q 2988 519 3436 956 
Q 3884 1394 3884 2338 
Q 3884 3275 3436 3711 
Q 2988 4147 2022 4147 
L 1259 4147 
z
M 628 4666 
L 1925 4666 
Q 3281 4666 3915 4102 
Q 4550 3538 4550 2338 
Q 4550 1131 3912 565 
Q 3275 0 1925 0 
L 628 0 
L 628 4666 
z
" transform="scale(0.015625)"/>
      <path id="DejaVuSans-65" d="M 3597 1894 
L 3597 1613 
L 953 1613 
Q 991 1019 1311 708 
Q 1631 397 2203 397 
Q 2534 397 2845 478 
Q 3156 559 3463 722 
L 3463 178 
Q 3153 47 2828 -22 
Q 2503 -91 2169 -91 
Q 1331 -91 842 396 
Q 353 884 353 1716 
Q 353 2575 817 3079 
Q 1281 3584 2069 3584 
Q 2775 3584 3186 3129 
Q 3597 2675 3597 1894 
z
M 3022 2063 
Q 3016 2534 2758 2815 
Q 2500 3097 2075 3097 
Q 1594 3097 1305 2825 
Q 1016 2553 972 2059 
L 3022 2063 
z
" transform="scale(0.015625)"/>
      <path id="DejaVuSans-6e" d="M 3513 2113 
L 3513 0 
L 2938 0 
L 2938 2094 
Q 2938 2591 2744 2837 
Q 2550 3084 2163 3084 
Q 1697 3084 1428 2787 
Q 1159 2491 1159 1978 
L 1159 0 
L 581 0 
L 581 3500 
L 1159 3500 
L 1159 2956 
Q 1366 3272 1645 3428 
Q 1925 3584 2291 3584 
Q 2894 3584 3203 3211 
Q 3513 2838 3513 2113 
z
" transform="scale(0.015625)"/>
      <path id="DejaVuSans-64" d="M 2906 2969 
L 2906 4863 
L 3481 4863 
L 3481 0 
L 2906 0 
L 2906 525 
Q 2725 213 2448 61 
Q 2172 -91 1784 -91 
Q 1150 -91 751 415 
Q 353 922 353 1747 
Q 353 2572 751 3078 
Q 1150 3584 1784 3584 
Q 2172 3584 2448 3432 
Q 2725 3281 2906 2969 
z
M 947 1747 
Q 947 1113 1208 752 
Q 1469 391 1925 391 
Q 2381 391 2643 752 
Q 2906 1113 2906 1747 
Q 2906 2381 2643 2742 
Q 2381 3103 1925 3103 
Q 1469 3103 1208 2742 
Q 947 2381 947 1747 
z
" transform="scale(0.015625)"/>
      <path id="DejaVuSans-5b" d="M 550 4863 
L 1875 4863 
L 1875 4416 
L 1125 4416 
L 1125 -397 
L 1875 -397 
L 1875 -844 
L 550 -844 
L 550 4863 
z
" transform="scale(0.015625)"/>
      <path id="DejaVuSans-2c" d="M 750 794 
L 1409 794 
L 1409 256 
L 897 -744 
L 494 -744 
L 750 256 
L 750 794 
z
" transform="scale(0.015625)"/>
      <path id="DejaVuSans-5d" d="M 1947 4863 
L 1947 -844 
L 622 -844 
L 622 -397 
L 1369 -397 
L 1369 4416 
L 622 4416 
L 622 4863 
L 1947 4863 
z
" transform="scale(0.015625)"/>
     </defs>
     <use xlink:href="#DejaVuSans-44"/>
     <use xlink:href="#DejaVuSans-65" transform="translate(77.001953 0)"/>
     <use xlink:href="#DejaVuSans-66" transform="translate(138.525391 0)"/>
     <use xlink:href="#DejaVuSans-69" transform="translate(173.730469 0)"/>
     <use xlink:href="#DejaVuSans-6e" transform="translate(201.513672 0)"/>
     <use xlink:href="#DejaVuSans-65" transform="translate(264.892578 0)"/>
     <use xlink:href="#DejaVuSans-64" transform="translate(326.416016 0)"/>
     <use xlink:href="#DejaVuSans-20" transform="translate(389.892578 0)"/>
     <use xlink:href="#DejaVuSans-6f" transform="translate(421.679688 0)"/>
     <use xlink:href="#DejaVuSans-6e" transform="translate(482.861328 0)"/>
     <use xlink:href="#DejaVuSans-20" transform="translate(546.240234 0)"/>
     <use xlink:href="#DejaVuSans-5b" transform="translate(578.027344 0)"/>
     <use xlink:href="#DejaVuSans-30" transform="translate(617.041016 0)"/>
     <use xlink:href="#DejaVuSans-2c" transform="translate(680.664062 0)"/>
     <use xlink:href="#DejaVuSans-20" transform="translate(712.451172 0)"/>
     <use xlink:href="#DejaVuSans-31" transform="translate(744.238281 0)"/>
     <use xlink:href="#DejaVuSans-5d" transform="translate(807.861328 0)"/>
    </g>
    <!-- Natural prior for probabilities -->
    <g style="fill: #555555" transform="translate(243.754938 58.8596) scale(0.09 -0.09)">
     <defs>
      <path id="DejaVuSans-4e" d="M 628 4666 
L 1478 4666 
L 3547 763 
L 3547 4666 
L 4159 4666 
L 4159 0 
L 3309 0 
L 1241 3903 
L 1241 0 
L 628 0 
L 628 4666 
z
" transform="scale(0.015625)"/>
      <path id="DejaVuSans-75" d="M 544 1381 
L 544 3500 
L 1119 3500 
L 1119 1403 
Q 1119 906 1312 657 
Q 1506 409 1894 409 
Q 2359 409 2629 706 
Q 2900 1003 2900 1516 
L 2900 3500 
L 3475 3500 
L 3475 0 
L 2900 0 
L 2900 538 
Q 2691 219 2414 64 
Q 2138 -91 1772 -91 
Q 1169 -91 856 284 
Q 544 659 544 1381 
z
M 1991 3584 
L 1991 3584 
z
" transform="scale(0.015625)"/>
      <path id="DejaVuSans-73" d="M 2834 3397 
L 2834 2853 
Q 2591 2978 2328 3040 
Q 2066 3103 1784 3103 
Q 1356 3103 1142 2972 
Q 928 2841 928 2578 
Q 928 2378 1081 2264 
Q 1234 2150 1697 2047 
L 1894 2003 
Q 2506 1872 2764 1633 
Q 3022 1394 3022 966 
Q 3022 478 2636 193 
Q 2250 -91 1575 -91 
Q 1294 -91 989 -36 
Q 684 19 347 128 
L 347 722 
Q 666 556 975 473 
Q 1284 391 1588 391 
Q 1994 391 2212 530 
Q 2431 669 2431 922 
Q 2431 1156 2273 1281 
Q 2116 1406 1581 1522 
L 1381 1569 
Q 847 1681 609 1914 
Q 372 2147 372 2553 
Q 372 3047 722 3315 
Q 1072 3584 1716 3584 
Q 2034 3584 2315 3537 
Q 2597 3491 2834 3397 
z
" transform="scale(0.015625)"/>
     </defs>
     <use xlink:href="#DejaVuSans-4e"/>
     <use xlink:href="#DejaVuSans-61" transform="translate(74.804688 0)"/>
     <use xlink:href="#DejaVuSans-74" transform="translate(136.083984 0)"/>
     <use xlink:href="#DejaVuSans-75" transform="translate(175.292969 0)"/>
     <use xlink:href="#DejaVuSans-72" transform="translate(238.671875 0)"/>
     <use xlink:href="#DejaVuSans-61" transform="translate(279.785156 0)"/>
     <use xlink:href="#DejaVuSans-6c" transform="translate(341.064453 0)"/>
     <use xlink:href="#DejaVuSans-20" transform="translate(368.847656 0)"/>
     <use xlink:href="#DejaVuSans-70" transform="translate(400.634766 0)"/>
     <use xlink:href="#DejaVuSans-72" transform="translate(464.111328 0)"/>
     <use xlink:href="#DejaVuSans-69" transform="translate(505.224609 0)"/>
     <use xlink:href="#DejaVuSans-6f" transform="translate(533.007812 0)"/>
     <use xlink:href="#DejaVuSans-72" transform="translate(594.189453 0)"/>
     <use xlink:href="#DejaVuSans-20" transform="translate(635.302734 0)"/>
     <use xlink:href="#DejaVuSans-66" transform="translate(667.089844 0)"/>
     <use xlink:href="#DejaVuSans-6f" transform="translate(702.294922 0)"/>
     <use xlink:href="#DejaVuSans-72" transform="translate(763.476562 0)"/>
     <use xlink:href="#DejaVuSans-20" transform="translate(804.589844 0)"/>
     <use xlink:href="#DejaVuSans-70" transform="translate(836.376953 0)"/>
     <use xlink:href="#DejaVuSans-72" transform="translate(899.853516 0)"/>
     <use xlink:href="#DejaVuSans-6f" transform="translate(938.716797 0)"/>
     <use xlink:href="#DejaVuSans-62" transform="translate(999.898438 0)"/>
     <use xlink:href="#DejaVuSans-61" transform="translate(1063.375 0)"/>
     <use xlink:href="#DejaVuSans-62" transform="translate(1124.654297 0)"/>
     <use xlink:href="#DejaVuSans-69" transform="translate(1188.130859 0)"/>
     <use xlink:href="#DejaVuSans-6c" transform="translate(1215.914062 0)"/>
     <use xlink:href="#DejaVuSans-69" transform="translate(1243.697266 0)"/>
     <use xlink:href="#DejaVuSans-74" transform="translate(1271.480469 0)"/>
     <use xlink:href="#DejaVuSans-69" transform="translate(1310.689453 0)"/>
     <use xlink:href="#DejaVuSans-65" transform="translate(1338.472656 0)"/>
     <use xlink:href="#DejaVuSans-73" transform="translate(1399.996094 0)"/>
    </g>
    <!-- Conjugate to Bernoulli/Binomial -->
    <g style="fill: #555555" transform="translate(231.822906 68.937631) scale(0.09 -0.09)">
     <defs>
      <path id="DejaVuSans-43" d="M 4122 4306 
L 4122 3641 
Q 3803 3938 3442 4084 
Q 3081 4231 2675 4231 
Q 1875 4231 1450 3742 
Q 1025 3253 1025 2328 
Q 1025 1406 1450 917 
Q 1875 428 2675 428 
Q 3081 428 3442 575 
Q 3803 722 4122 1019 
L 4122 359 
Q 3791 134 3420 21 
Q 3050 -91 2638 -91 
Q 1578 -91 968 557 
Q 359 1206 359 2328 
Q 359 3453 968 4101 
Q 1578 4750 2638 4750 
Q 3056 4750 3426 4639 
Q 3797 4528 4122 4306 
z
" transform="scale(0.015625)"/>
      <path id="DejaVuSans-6a" d="M 603 3500 
L 1178 3500 
L 1178 -63 
Q 1178 -731 923 -1031 
Q 669 -1331 103 -1331 
L -116 -1331 
L -116 -844 
L 38 -844 
Q 366 -844 484 -692 
Q 603 -541 603 -63 
L 603 3500 
z
M 603 4863 
L 1178 4863 
L 1178 4134 
L 603 4134 
L 603 4863 
z
" transform="scale(0.015625)"/>
      <path id="DejaVuSans-67" d="M 2906 1791 
Q 2906 2416 2648 2759 
Q 2391 3103 1925 3103 
Q 1463 3103 1205 2759 
Q 947 2416 947 1791 
Q 947 1169 1205 825 
Q 1463 481 1925 481 
Q 2391 481 2648 825 
Q 2906 1169 2906 1791 
z
M 3481 434 
Q 3481 -459 3084 -895 
Q 2688 -1331 1869 -1331 
Q 1566 -1331 1297 -1286 
Q 1028 -1241 775 -1147 
L 775 -588 
Q 1028 -725 1275 -790 
Q 1522 -856 1778 -856 
Q 2344 -856 2625 -561 
Q 2906 -266 2906 331 
L 2906 616 
Q 2728 306 2450 153 
Q 2172 0 1784 0 
Q 1141 0 747 490 
Q 353 981 353 1791 
Q 353 2603 747 3093 
Q 1141 3584 1784 3584 
Q 2172 3584 2450 3431 
Q 2728 3278 2906 2969 
L 2906 3500 
L 3481 3500 
L 3481 434 
z
" transform="scale(0.015625)"/>
      <path id="DejaVuSans-42" d="M 1259 2228 
L 1259 519 
L 2272 519 
Q 2781 519 3026 730 
Q 3272 941 3272 1375 
Q 3272 1813 3026 2020 
Q 2781 2228 2272 2228 
L 1259 2228 
z
M 1259 4147 
L 1259 2741 
L 2194 2741 
Q 2656 2741 2882 2914 
Q 3109 3088 3109 3444 
Q 3109 3797 2882 3972 
Q 2656 4147 2194 4147 
L 1259 4147 
z
M 628 4666 
L 2241 4666 
Q 2963 4666 3353 4366 
Q 3744 4066 3744 3513 
Q 3744 3084 3544 2831 
Q 3344 2578 2956 2516 
Q 3422 2416 3680 2098 
Q 3938 1781 3938 1306 
Q 3938 681 3513 340 
Q 3088 0 2303 0 
L 628 0 
L 628 4666 
z
" transform="scale(0.015625)"/>
      <path id="DejaVuSans-2f" d="M 1625 4666 
L 2156 4666 
L 531 -594 
L 0 -594 
L 1625 4666 
z
" transform="scale(0.015625)"/>
      <path id="DejaVuSans-6d" d="M 3328 2828 
Q 3544 3216 3844 3400 
Q 4144 3584 4550 3584 
Q 5097 3584 5394 3201 
Q 5691 2819 5691 2113 
L 5691 0 
L 5113 0 
L 5113 2094 
Q 5113 2597 4934 2840 
Q 4756 3084 4391 3084 
Q 3944 3084 3684 2787 
Q 3425 2491 3425 1978 
L 3425 0 
L 2847 0 
L 2847 2094 
Q 2847 2600 2669 2842 
Q 2491 3084 2119 3084 
Q 1678 3084 1418 2786 
Q 1159 2488 1159 1978 
L 1159 0 
L 581 0 
L 581 3500 
L 1159 3500 
L 1159 2956 
Q 1356 3278 1631 3431 
Q 1906 3584 2284 3584 
Q 2666 3584 2933 3390 
Q 3200 3197 3328 2828 
z
" transform="scale(0.015625)"/>
     </defs>
     <use xlink:href="#DejaVuSans-43"/>
     <use xlink:href="#DejaVuSans-6f" transform="translate(69.824219 0)"/>
     <use xlink:href="#DejaVuSans-6e" transform="translate(131.005859 0)"/>
     <use xlink:href="#DejaVuSans-6a" transform="translate(194.384766 0)"/>
     <use xlink:href="#DejaVuSans-75" transform="translate(222.167969 0)"/>
     <use xlink:href="#DejaVuSans-67" transform="translate(285.546875 0)"/>
     <use xlink:href="#DejaVuSans-61" transform="translate(349.023438 0)"/>
     <use xlink:href="#DejaVuSans-74" transform="translate(410.302734 0)"/>
     <use xlink:href="#DejaVuSans-65" transform="translate(449.511719 0)"/>
     <use xlink:href="#DejaVuSans-20" transform="translate(511.035156 0)"/>
     <use xlink:href="#DejaVuSans-74" transform="translate(542.822266 0)"/>
     <use xlink:href="#DejaVuSans-6f" transform="translate(582.03125 0)"/>
     <use xlink:href="#DejaVuSans-20" transform="translate(643.212891 0)"/>
     <use xlink:href="#DejaVuSans-42" transform="translate(675 0)"/>
     <use xlink:href="#DejaVuSans-65" transform="translate(743.603516 0)"/>
     <use xlink:href="#DejaVuSans-72" transform="translate(805.126953 0)"/>
     <use xlink:href="#DejaVuSans-6e" transform="translate(844.490234 0)"/>
     <use xlink:href="#DejaVuSans-6f" transform="translate(907.869141 0)"/>
     <use xlink:href="#DejaVuSans-75" transform="translate(969.050781 0)"/>
     <use xlink:href="#DejaVuSans-6c" transform="translate(1032.429688 0)"/>
     <use xlink:href="#DejaVuSans-6c" transform="translate(1060.212891 0)"/>
     <use xlink:href="#DejaVuSans-69" transform="translate(1087.996094 0)"/>
     <use xlink:href="#DejaVuSans-2f" transform="translate(1115.779297 0)"/>
     <use xlink:href="#DejaVuSans-42" transform="translate(1149.470703 0)"/>
     <use xlink:href="#DejaVuSans-69" transform="translate(1218.074219 0)"/>
     <use xlink:href="#DejaVuSans-6e" transform="translate(1245.857422 0)"/>
     <use xlink:href="#DejaVuSans-6f" transform="translate(1309.236328 0)"/>
     <use xlink:href="#DejaVuSans-6d" transform="translate(1370.417969 0)"/>
     <use xlink:href="#DejaVuSans-69" transform="translate(1467.830078 0)"/>
     <use xlink:href="#DejaVuSans-61" transform="translate(1495.613281 0)"/>
     <use xlink:href="#DejaVuSans-6c" transform="translate(1556.892578 0)"/>
    </g>
   </g>
   <g id="text_17">
    <!-- Beta(α=2, β=5) -->
    <g transform="translate(156.28225 17.409375) scale(0.132 -0.132)">
     <defs>
      <path id="DejaVuSans-Bold-42" d="M 2456 2859 
Q 2741 2859 2887 2984 
Q 3034 3109 3034 3353 
Q 3034 3594 2887 3720 
Q 2741 3847 2456 3847 
L 1791 3847 
L 1791 2859 
L 2456 2859 
z
M 2497 819 
Q 2859 819 3042 972 
Q 3225 1125 3225 1434 
Q 3225 1738 3044 1889 
Q 2863 2041 2497 2041 
L 1791 2041 
L 1791 819 
L 2497 819 
z
M 3616 2497 
Q 4003 2384 4215 2081 
Q 4428 1778 4428 1338 
Q 4428 663 3972 331 
Q 3516 0 2584 0 
L 588 0 
L 588 4666 
L 2394 4666 
Q 3366 4666 3802 4372 
Q 4238 4078 4238 3431 
Q 4238 3091 4078 2852 
Q 3919 2613 3616 2497 
z
" transform="scale(0.015625)"/>
      <path id="DejaVuSans-Bold-74" d="M 1759 4494 
L 1759 3500 
L 2913 3500 
L 2913 2700 
L 1759 2700 
L 1759 1216 
Q 1759 972 1856 886 
Q 1953 800 2241 800 
L 2816 800 
L 2816 0 
L 1856 0 
Q 1194 0 917 276 
Q 641 553 641 1216 
L 641 2700 
L 84 2700 
L 84 3500 
L 641 3500 
L 641 4494 
L 1759 4494 
z
" transform="scale(0.015625)"/>
      <path id="DejaVuSans-Bold-2c" d="M 653 1209 
L 1778 1209 
L 1778 256 
L 1006 -909 
L 341 -909 
L 653 256 
L 653 1209 
z
" transform="scale(0.015625)"/>
      <path id="DejaVuSans-Bold-35" d="M 678 4666 
L 3669 4666 
L 3669 3781 
L 1638 3781 
L 1638 3059 
Q 1775 3097 1914 3117 
Q 2053 3138 2203 3138 
Q 3056 3138 3531 2711 
Q 4006 2284 4006 1522 
Q 4006 766 3489 337 
Q 2972 -91 2053 -91 
Q 1656 -91 1267 -14 
Q 878 63 494 219 
L 494 1166 
Q 875 947 1217 837 
Q 1559 728 1863 728 
Q 2300 728 2551 942 
Q 2803 1156 2803 1522 
Q 2803 1891 2551 2103 
Q 2300 2316 1863 2316 
Q 1603 2316 1309 2248 
Q 1016 2181 678 2041 
L 678 4666 
z
" transform="scale(0.015625)"/>
     </defs>
     <use xlink:href="#DejaVuSans-Bold-42"/>
     <use xlink:href="#DejaVuSans-Bold-65" transform="translate(76.220703 0)"/>
     <use xlink:href="#DejaVuSans-Bold-74" transform="translate(144.042969 0)"/>
     <use xlink:href="#DejaVuSans-Bold-61" transform="translate(191.845703 0)"/>
     <use xlink:href="#DejaVuSans-Bold-28" transform="translate(259.326172 0)"/>
     <use xlink:href="#DejaVuSans-Bold-3b1" transform="translate(305.029297 0)"/>
     <use xlink:href="#DejaVuSans-Bold-3d" transform="translate(373.730469 0)"/>
     <use xlink:href="#DejaVuSans-Bold-32" transform="translate(457.519531 0)"/>
     <use xlink:href="#DejaVuSans-Bold-2c" transform="translate(527.099609 0)"/>
     <use xlink:href="#DejaVuSans-Bold-20" transform="translate(565.087891 0)"/>
     <use xlink:href="#DejaVuSans-Bold-3b2" transform="translate(599.902344 0)"/>
     <use xlink:href="#DejaVuSans-Bold-3d" transform="translate(671.484375 0)"/>
     <use xlink:href="#DejaVuSans-Bold-35" transform="translate(755.273438 0)"/>
     <use xlink:href="#DejaVuSans-Bold-29" transform="translate(824.853516 0)"/>
    </g>
   </g>
  </g>
 </g>
 <defs>
  <clipPath id="pfee9310f24">
   <rect x="46.339375" y="31.409375" width="334.8" height="210.672"/>
  </clipPath>
 </defs>
</svg>
