<?xml version="1.0" encoding="utf-8" standalone="no"?>
<!DOCTYPE svg PUBLIC "-//W3C//DTD SVG 1.1//EN"
  "http://www.w3.org/Graphics/SVG/1.1/DTD/svg11.dtd">
<svg xmlns:xlink="http://www.w3.org/1999/xlink" width="818.396875pt" height="314.339375pt" viewBox="0 0 818.396875 314.339375" xmlns="http://www.w3.org/2000/svg" version="1.1">
 <metadata>
  <rdf:RDF xmlns:dc="http://purl.org/dc/elements/1.1/" xmlns:cc="http://creativecommons.org/ns#" xmlns:rdf="http://www.w3.org/1999/02/22-rdf-syntax-ns#">
   <cc:Work>
    <dc:type rdf:resource="http://purl.org/dc/dcmitype/StillImage"/>
    <dc:date>2026-03-20T01:55:26.012427</dc:date>
    <dc:format>image/svg+xml</dc:format>
    <dc:creator>
     <cc:Agent>
      <dc:title>Matplotlib v3.9.0, https://matplotlib.org/</dc:title>
     </cc:Agent>
    </dc:creator>
   </cc:Work>
  </rdf:RDF>
 </metadata>
 <defs>
  <style type="text/css">*{stroke-linejoin: round; stroke-linecap: butt}</style>
 </defs>
 <g id="figure_1">
  <g id="patch_1">
   <path d="M 0 314.339375 
L 818.396875 314.339375 
L 818.396875 0 
L 0 0 
z
" style="fill: #ffffff"/>
  </g>
  <g id="axes_1">
   <g id="patch_2">
    <path d="M 53.338125 274.8475 
L 811.196875 274.8475 
L 811.196875 33.3575 
L 53.338125 33.3575 
z
" style="fill: #ffffff"/>
   </g>
   <g id="PolyCollection_1">
    <defs>
     <path id="m7821765898" d="M 363.923525 -39.491875 
L 363.923525 -192.439828 
L 365.304211 -194.450191 
L 366.684897 -196.453633 
L 368.065584 -198.449208 
L 369.44627 -200.435963 
L 370.826956 -202.412939 
L 372.207643 -204.37917 
L 373.588329 -206.333686 
L 374.969016 -208.275515 
L 376.349702 -210.203677 
L 377.730388 -212.117193 
L 379.111075 -214.015083 
L 380.491761 -215.896362 
L 381.872447 -217.760049 
L 383.253134 -219.605163 
L 384.63382 -221.430722 
L 386.014507 -223.235749 
L 387.395193 -225.019271 
L 388.775879 -226.780317 
L 390.156566 -228.517921 
L 391.537252 -230.231126 
L 392.917938 -231.918978 
L 394.298625 -233.580534 
L 395.679311 -235.214857 
L 397.059997 -236.821021 
L 398.440684 -238.39811 
L 399.82137 -239.945218 
L 401.202057 -241.461453 
L 402.582743 -242.945935 
L 403.963429 -244.397798 
L 405.344116 -245.816189 
L 406.724802 -247.200272 
L 408.105488 -248.549228 
L 409.486175 -249.862253 
L 410.866861 -251.138563 
L 412.247548 -252.377389 
L 413.628234 -253.577987 
L 415.00892 -254.739627 
L 416.389607 -255.861605 
L 417.770293 -256.943236 
L 419.150979 -257.983856 
L 420.531666 -258.982828 
L 421.912352 -259.939534 
L 423.293039 -260.853385 
L 424.673725 -261.723812 
L 426.054411 -262.550275 
L 427.435098 -263.332259 
L 428.815784 -264.069274 
L 430.19647 -264.76086 
L 431.577157 -265.406582 
L 432.957843 -266.006033 
L 434.33853 -266.558837 
L 435.719216 -267.064644 
L 437.099902 -267.523134 
L 438.480589 -267.934018 
L 439.861275 -268.297034 
L 441.241961 -268.611952 
L 442.622648 -268.878572 
L 444.003334 -269.096725 
L 445.384021 -269.266272 
L 446.764707 -269.387105 
L 448.145393 -269.459147 
L 449.52608 -269.482351 
L 450.906766 -269.456704 
L 452.287452 -269.382222 
L 453.668139 -269.258951 
L 455.048825 -269.086971 
L 456.429512 -268.866391 
L 457.810198 -268.597352 
L 459.190884 -268.280023 
L 460.571571 -267.914608 
L 461.952257 -267.501338 
L 463.332943 -267.040475 
L 464.71363 -266.53231 
L 466.094316 -265.977166 
L 467.475003 -265.375391 
L 468.855689 -264.727367 
L 470.236375 -264.033499 
L 471.617062 -263.294224 
L 472.997748 -262.510004 
L 474.378434 -261.681331 
L 475.759121 -260.808719 
L 477.139807 -259.892712 
L 478.520493 -258.933878 
L 479.90118 -257.932809 
L 481.281866 -256.890123 
L 482.662553 -255.806459 
L 484.043239 -254.682482 
L 485.423925 -253.518876 
L 486.804612 -252.31635 
L 488.185298 -251.075631 
L 489.565984 -249.797468 
L 490.946671 -248.482627 
L 492.327357 -247.131896 
L 493.708044 -245.746077 
L 495.08873 -244.325992 
L 496.469416 -242.872479 
L 497.850103 -241.386388 
L 499.230789 -239.868589 
L 500.611475 -238.31996 
L 501.992162 -236.741396 
L 503.372848 -235.133802 
L 504.753535 -233.498095 
L 506.134221 -231.835202 
L 507.514907 -230.14606 
L 508.895594 -228.431613 
L 510.27628 -226.692813 
L 511.656966 -224.930621 
L 513.037653 -223.146001 
L 514.418339 -221.339923 
L 515.799026 -219.513363 
L 517.179712 -217.667298 
L 518.560398 -215.802708 
L 519.941085 -213.920575 
L 521.321771 -212.021881 
L 522.702457 -210.107608 
L 524.083144 -208.17874 
L 525.46383 -206.236254 
L 526.844517 -204.281128 
L 526.844517 -39.491875 
L 526.844517 -39.491875 
L 525.46383 -39.491875 
L 524.083144 -39.491875 
L 522.702457 -39.491875 
L 521.321771 -39.491875 
L 519.941085 -39.491875 
L 518.560398 -39.491875 
L 517.179712 -39.491875 
L 515.799026 -39.491875 
L 514.418339 -39.491875 
L 513.037653 -39.491875 
L 511.656966 -39.491875 
L 510.27628 -39.491875 
L 508.895594 -39.491875 
L 507.514907 -39.491875 
L 506.134221 -39.491875 
L 504.753535 -39.491875 
L 503.372848 -39.491875 
L 501.992162 -39.491875 
L 500.611475 -39.491875 
L 499.230789 -39.491875 
L 497.850103 -39.491875 
L 496.469416 -39.491875 
L 495.08873 -39.491875 
L 493.708044 -39.491875 
L 492.327357 -39.491875 
L 490.946671 -39.491875 
L 489.565984 -39.491875 
L 488.185298 -39.491875 
L 486.804612 -39.491875 
L 485.423925 -39.491875 
L 484.043239 -39.491875 
L 482.662553 -39.491875 
L 481.281866 -39.491875 
L 479.90118 -39.491875 
L 478.520493 -39.491875 
L 477.139807 -39.491875 
L 475.759121 -39.491875 
L 474.378434 -39.491875 
L 472.997748 -39.491875 
L 471.617062 -39.491875 
L 470.236375 -39.491875 
L 468.855689 -39.491875 
L 467.475003 -39.491875 
L 466.094316 -39.491875 
L 464.71363 -39.491875 
L 463.332943 -39.491875 
L 461.952257 -39.491875 
L 460.571571 -39.491875 
L 459.190884 -39.491875 
L 457.810198 -39.491875 
L 456.429512 -39.491875 
L 455.048825 -39.491875 
L 453.668139 -39.491875 
L 452.287452 -39.491875 
L 450.906766 -39.491875 
L 449.52608 -39.491875 
L 448.145393 -39.491875 
L 446.764707 -39.491875 
L 445.384021 -39.491875 
L 444.003334 -39.491875 
L 442.622648 -39.491875 
L 441.241961 -39.491875 
L 439.861275 -39.491875 
L 438.480589 -39.491875 
L 437.099902 -39.491875 
L 435.719216 -39.491875 
L 434.33853 -39.491875 
L 432.957843 -39.491875 
L 431.577157 -39.491875 
L 430.19647 -39.491875 
L 428.815784 -39.491875 
L 427.435098 -39.491875 
L 426.054411 -39.491875 
L 424.673725 -39.491875 
L 423.293039 -39.491875 
L 421.912352 -39.491875 
L 420.531666 -39.491875 
L 419.150979 -39.491875 
L 417.770293 -39.491875 
L 416.389607 -39.491875 
L 415.00892 -39.491875 
L 413.628234 -39.491875 
L 412.247548 -39.491875 
L 410.866861 -39.491875 
L 409.486175 -39.491875 
L 408.105488 -39.491875 
L 406.724802 -39.491875 
L 405.344116 -39.491875 
L 403.963429 -39.491875 
L 402.582743 -39.491875 
L 401.202057 -39.491875 
L 399.82137 -39.491875 
L 398.440684 -39.491875 
L 397.059997 -39.491875 
L 395.679311 -39.491875 
L 394.298625 -39.491875 
L 392.917938 -39.491875 
L 391.537252 -39.491875 
L 390.156566 -39.491875 
L 388.775879 -39.491875 
L 387.395193 -39.491875 
L 386.014507 -39.491875 
L 384.63382 -39.491875 
L 383.253134 -39.491875 
L 381.872447 -39.491875 
L 380.491761 -39.491875 
L 379.111075 -39.491875 
L 377.730388 -39.491875 
L 376.349702 -39.491875 
L 374.969016 -39.491875 
L 373.588329 -39.491875 
L 372.207643 -39.491875 
L 370.826956 -39.491875 
L 369.44627 -39.491875 
L 368.065584 -39.491875 
L 366.684897 -39.491875 
L 365.304211 -39.491875 
L 363.923525 -39.491875 
z
" style="stroke: #38bdf8; stroke-opacity: 0.35"/>
    </defs>
    <g clip-path="url(#p5624936c4e)">
     <use xlink:href="#m7821765898" x="0" y="314.339375" style="fill: #38bdf8; fill-opacity: 0.35; stroke: #38bdf8; stroke-opacity: 0.35"/>
    </g>
   </g>
   <g id="matplotlib.axis_1">
    <g id="xtick_1">
     <g id="line2d_1">
      <path d="M 87.78625 274.8475 
L 87.78625 33.3575 
" clip-path="url(#p5624936c4e)" style="fill: none; stroke: #94a3b8; stroke-opacity: 0.22; stroke-width: 0.8; stroke-linecap: square"/>
     </g>
     <g id="line2d_2">
      <defs>
       <path id="mc2d188c3af" d="M 0 0 
L 0 3.5 
" style="stroke: #475569; stroke-width: 0.8"/>
      </defs>
      <g>
       <use xlink:href="#mc2d188c3af" x="87.78625" y="274.8475" style="fill: #475569; stroke: #475569; stroke-width: 0.8"/>
      </g>
     </g>
     <g id="text_1">
      <!-- −4 -->
      <g style="fill: #475569" transform="translate(79.678047 290.205781) scale(0.11 -0.11)">
       <defs>
        <path id="DejaVuSans-2212" d="M 678 2272 
L 4684 2272 
L 4684 1741 
L 678 1741 
L 678 2272 
z
" transform="scale(0.015625)"/>
        <path id="DejaVuSans-34" d="M 2419 4116 
L 825 1625 
L 2419 1625 
L 2419 4116 
z
M 2253 4666 
L 3047 4666 
L 3047 1625 
L 3713 1625 
L 3713 1100 
L 3047 1100 
L 3047 0 
L 2419 0 
L 2419 1100 
L 313 1100 
L 313 1709 
L 2253 4666 
z
" transform="scale(0.015625)"/>
       </defs>
       <use xlink:href="#DejaVuSans-2212"/>
       <use xlink:href="#DejaVuSans-34" x="83.789062"/>
      </g>
     </g>
    </g>
    <g id="xtick_2">
     <g id="line2d_3">
      <path d="M 173.906563 274.8475 
L 173.906563 33.3575 
" clip-path="url(#p5624936c4e)" style="fill: none; stroke: #94a3b8; stroke-opacity: 0.22; stroke-width: 0.8; stroke-linecap: square"/>
     </g>
     <g id="line2d_4">
      <g>
       <use xlink:href="#mc2d188c3af" x="173.906563" y="274.8475" style="fill: #475569; stroke: #475569; stroke-width: 0.8"/>
      </g>
     </g>
     <g id="text_2">
      <!-- −3 -->
      <g style="fill: #475569" transform="translate(165.798359 290.205781) scale(0.11 -0.11)">
       <defs>
        <path id="DejaVuSans-33" d="M 2597 2516 
Q 3050 2419 3304 2112 
Q 3559 1806 3559 1356 
Q 3559 666 3084 287 
Q 2609 -91 1734 -91 
Q 1441 -91 1130 -33 
Q 819 25 488 141 
L 488 750 
Q 750 597 1062 519 
Q 1375 441 1716 441 
Q 2309 441 2620 675 
Q 2931 909 2931 1356 
Q 2931 1769 2642 2001 
Q 2353 2234 1838 2234 
L 1294 2234 
L 1294 2753 
L 1863 2753 
Q 2328 2753 2575 2939 
Q 2822 3125 2822 3475 
Q 2822 3834 2567 4026 
Q 2313 4219 1838 4219 
Q 1578 4219 1281 4162 
Q 984 4106 628 3988 
L 628 4550 
Q 988 4650 1302 4700 
Q 1616 4750 1894 4750 
Q 2613 4750 3031 4423 
Q 3450 4097 3450 3541 
Q 3450 3153 3228 2886 
Q 3006 2619 2597 2516 
z
" transform="scale(0.015625)"/>
       </defs>
       <use xlink:href="#DejaVuSans-2212"/>
       <use xlink:href="#DejaVuSans-33" x="83.789062"/>
      </g>
     </g>
    </g>
    <g id="xtick_3">
     <g id="line2d_5">
      <path d="M 260.026875 274.8475 
L 260.026875 33.3575 
" clip-path="url(#p5624936c4e)" style="fill: none; stroke: #94a3b8; stroke-opacity: 0.22; stroke-width: 0.8; stroke-linecap: square"/>
     </g>
     <g id="line2d_6">
      <g>
       <use xlink:href="#mc2d188c3af" x="260.026875" y="274.8475" style="fill: #475569; stroke: #475569; stroke-width: 0.8"/>
      </g>
     </g>
     <g id="text_3">
      <!-- −2 -->
      <g style="fill: #475569" transform="translate(251.918672 290.205781) scale(0.11 -0.11)">
       <defs>
        <path id="DejaVuSans-32" d="M 1228 531 
L 3431 531 
L 3431 0 
L 469 0 
L 469 531 
Q 828 903 1448 1529 
Q 2069 2156 2228 2338 
Q 2531 2678 2651 2914 
Q 2772 3150 2772 3378 
Q 2772 3750 2511 3984 
Q 2250 4219 1831 4219 
Q 1534 4219 1204 4116 
Q 875 4013 500 3803 
L 500 4441 
Q 881 4594 1212 4672 
Q 1544 4750 1819 4750 
Q 2544 4750 2975 4387 
Q 3406 4025 3406 3419 
Q 3406 3131 3298 2873 
Q 3191 2616 2906 2266 
Q 2828 2175 2409 1742 
Q 1991 1309 1228 531 
z
" transform="scale(0.015625)"/>
       </defs>
       <use xlink:href="#DejaVuSans-2212"/>
       <use xlink:href="#DejaVuSans-32" x="83.789062"/>
      </g>
     </g>
    </g>
    <g id="xtick_4">
     <g id="line2d_7">
      <path d="M 346.147187 274.8475 
L 346.147187 33.3575 
" clip-path="url(#p5624936c4e)" style="fill: none; stroke: #94a3b8; stroke-opacity: 0.22; stroke-width: 0.8; stroke-linecap: square"/>
     </g>
     <g id="line2d_8">
      <g>
       <use xlink:href="#mc2d188c3af" x="346.147187" y="274.8475" style="fill: #475569; stroke: #475569; stroke-width: 0.8"/>
      </g>
     </g>
     <g id="text_4">
      <!-- −1 -->
      <g style="fill: #475569" transform="translate(338.038984 290.205781) scale(0.11 -0.11)">
       <defs>
        <path id="DejaVuSans-31" d="M 794 531 
L 1825 531 
L 1825 4091 
L 703 3866 
L 703 4441 
L 1819 4666 
L 2450 4666 
L 2450 531 
L 3481 531 
L 3481 0 
L 794 0 
L 794 531 
z
" transform="scale(0.015625)"/>
       </defs>
       <use xlink:href="#DejaVuSans-2212"/>
       <use xlink:href="#DejaVuSans-31" x="83.789062"/>
      </g>
     </g>
    </g>
    <g id="xtick_5">
     <g id="line2d_9">
      <path d="M 432.2675 274.8475 
L 432.2675 33.3575 
" clip-path="url(#p5624936c4e)" style="fill: none; stroke: #94a3b8; stroke-opacity: 0.22; stroke-width: 0.8; stroke-linecap: square"/>
     </g>
     <g id="line2d_10">
      <g>
       <use xlink:href="#mc2d188c3af" x="432.2675" y="274.8475" style="fill: #475569; stroke: #475569; stroke-width: 0.8"/>
      </g>
     </g>
     <g id="text_5">
      <!-- 0 -->
      <g style="fill: #475569" transform="translate(428.768125 290.205781) scale(0.11 -0.11)">
       <defs>
        <path id="DejaVuSans-30" d="M 2034 4250 
Q 1547 4250 1301 3770 
Q 1056 3291 1056 2328 
Q 1056 1369 1301 889 
Q 1547 409 2034 409 
Q 2525 409 2770 889 
Q 3016 1369 3016 2328 
Q 3016 3291 2770 3770 
Q 2525 4250 2034 4250 
z
M 2034 4750 
Q 2819 4750 3233 4129 
Q 3647 3509 3647 2328 
Q 3647 1150 3233 529 
Q 2819 -91 2034 -91 
Q 1250 -91 836 529 
Q 422 1150 422 2328 
Q 422 3509 836 4129 
Q 1250 4750 2034 4750 
z
" transform="scale(0.015625)"/>
       </defs>
       <use xlink:href="#DejaVuSans-30"/>
      </g>
     </g>
    </g>
    <g id="xtick_6">
     <g id="line2d_11">
      <path d="M 518.387812 274.8475 
L 518.387812 33.3575 
" clip-path="url(#p5624936c4e)" style="fill: none; stroke: #94a3b8; stroke-opacity: 0.22; stroke-width: 0.8; stroke-linecap: square"/>
     </g>
     <g id="line2d_12">
      <g>
       <use xlink:href="#mc2d188c3af" x="518.387812" y="274.8475" style="fill: #475569; stroke: #475569; stroke-width: 0.8"/>
      </g>
     </g>
     <g id="text_6">
      <!-- 1 -->
      <g style="fill: #475569" transform="translate(514.888438 290.205781) scale(0.11 -0.11)">
       <use xlink:href="#DejaVuSans-31"/>
      </g>
     </g>
    </g>
    <g id="xtick_7">
     <g id="line2d_13">
      <path d="M 604.508125 274.8475 
L 604.508125 33.3575 
" clip-path="url(#p5624936c4e)" style="fill: none; stroke: #94a3b8; stroke-opacity: 0.22; stroke-width: 0.8; stroke-linecap: square"/>
     </g>
     <g id="line2d_14">
      <g>
       <use xlink:href="#mc2d188c3af" x="604.508125" y="274.8475" style="fill: #475569; stroke: #475569; stroke-width: 0.8"/>
      </g>
     </g>
     <g id="text_7">
      <!-- 2 -->
      <g style="fill: #475569" transform="translate(601.00875 290.205781) scale(0.11 -0.11)">
       <use xlink:href="#DejaVuSans-32"/>
      </g>
     </g>
    </g>
    <g id="xtick_8">
     <g id="line2d_15">
      <path d="M 690.628438 274.8475 
L 690.628438 33.3575 
" clip-path="url(#p5624936c4e)" style="fill: none; stroke: #94a3b8; stroke-opacity: 0.22; stroke-width: 0.8; stroke-linecap: square"/>
     </g>
     <g id="line2d_16">
      <g>
       <use xlink:href="#mc2d188c3af" x="690.628438" y="274.8475" style="fill: #475569; stroke: #475569; stroke-width: 0.8"/>
      </g>
     </g>
     <g id="text_8">
      <!-- 3 -->
      <g style="fill: #475569" transform="translate(687.129063 290.205781) scale(0.11 -0.11)">
       <use xlink:href="#DejaVuSans-33"/>
      </g>
     </g>
    </g>
    <g id="xtick_9">
     <g id="line2d_17">
      <path d="M 776.74875 274.8475 
L 776.74875 33.3575 
" clip-path="url(#p5624936c4e)" style="fill: none; stroke: #94a3b8; stroke-opacity: 0.22; stroke-width: 0.8; stroke-linecap: square"/>
     </g>
     <g id="line2d_18">
      <g>
       <use xlink:href="#mc2d188c3af" x="776.74875" y="274.8475" style="fill: #475569; stroke: #475569; stroke-width: 0.8"/>
      </g>
     </g>
     <g id="text_9">
      <!-- 4 -->
      <g style="fill: #475569" transform="translate(773.249375 290.205781) scale(0.11 -0.11)">
       <use xlink:href="#DejaVuSans-34"/>
      </g>
     </g>
    </g>
    <g id="text_10">
     <!-- x -->
     <g style="fill: #334155" transform="translate(429.012187 304.851719) scale(0.11 -0.11)">
      <defs>
       <path id="DejaVuSans-78" d="M 3513 3500 
L 2247 1797 
L 3578 0 
L 2900 0 
L 1881 1375 
L 863 0 
L 184 0 
L 1544 1831 
L 300 3500 
L 978 3500 
L 1906 2253 
L 2834 3500 
L 3513 3500 
z
" transform="scale(0.015625)"/>
      </defs>
      <use xlink:href="#DejaVuSans-78"/>
     </g>
    </g>
   </g>
   <g id="matplotlib.axis_2">
    <g id="ytick_1">
     <g id="line2d_19">
      <path d="M 53.338125 274.8475 
L 811.196875 274.8475 
" clip-path="url(#p5624936c4e)" style="fill: none; stroke: #94a3b8; stroke-opacity: 0.22; stroke-width: 0.8; stroke-linecap: square"/>
     </g>
     <g id="line2d_20">
      <defs>
       <path id="macb8c539e2" d="M 0 0 
L -3.5 0 
" style="stroke: #475569; stroke-width: 0.8"/>
      </defs>
      <g>
       <use xlink:href="#macb8c539e2" x="53.338125" y="274.8475" style="fill: #475569; stroke: #475569; stroke-width: 0.8"/>
      </g>
     </g>
     <g id="text_11">
      <!-- 0.00 -->
      <g style="fill: #475569" transform="translate(21.845938 279.026641) scale(0.11 -0.11)">
       <defs>
        <path id="DejaVuSans-2e" d="M 684 794 
L 1344 794 
L 1344 0 
L 684 0 
L 684 794 
z
" transform="scale(0.015625)"/>
       </defs>
       <use xlink:href="#DejaVuSans-30"/>
       <use xlink:href="#DejaVuSans-2e" x="63.623047"/>
       <use xlink:href="#DejaVuSans-30" x="95.410156"/>
       <use xlink:href="#DejaVuSans-30" x="159.033203"/>
      </g>
     </g>
    </g>
    <g id="ytick_2">
     <g id="line2d_21">
      <path d="M 53.338125 243.139963 
L 811.196875 243.139963 
" clip-path="url(#p5624936c4e)" style="fill: none; stroke: #94a3b8; stroke-opacity: 0.22; stroke-width: 0.8; stroke-linecap: square"/>
     </g>
     <g id="line2d_22">
      <g>
       <use xlink:href="#macb8c539e2" x="53.338125" y="243.139963" style="fill: #475569; stroke: #475569; stroke-width: 0.8"/>
      </g>
     </g>
     <g id="text_12">
      <!-- 0.05 -->
      <g style="fill: #475569" transform="translate(21.845938 247.319104) scale(0.11 -0.11)">
       <defs>
        <path id="DejaVuSans-35" d="M 691 4666 
L 3169 4666 
L 3169 4134 
L 1269 4134 
L 1269 2991 
Q 1406 3038 1543 3061 
Q 1681 3084 1819 3084 
Q 2600 3084 3056 2656 
Q 3513 2228 3513 1497 
Q 3513 744 3044 326 
Q 2575 -91 1722 -91 
Q 1428 -91 1123 -41 
Q 819 9 494 109 
L 494 744 
Q 775 591 1075 516 
Q 1375 441 1709 441 
Q 2250 441 2565 725 
Q 2881 1009 2881 1497 
Q 2881 1984 2565 2268 
Q 2250 2553 1709 2553 
Q 1456 2553 1204 2497 
Q 953 2441 691 2322 
L 691 4666 
z
" transform="scale(0.015625)"/>
       </defs>
       <use xlink:href="#DejaVuSans-30"/>
       <use xlink:href="#DejaVuSans-2e" x="63.623047"/>
       <use xlink:href="#DejaVuSans-30" x="95.410156"/>
       <use xlink:href="#DejaVuSans-35" x="159.033203"/>
      </g>
     </g>
    </g>
    <g id="ytick_3">
     <g id="line2d_23">
      <path d="M 53.338125 211.432426 
L 811.196875 211.432426 
" clip-path="url(#p5624936c4e)" style="fill: none; stroke: #94a3b8; stroke-opacity: 0.22; stroke-width: 0.8; stroke-linecap: square"/>
     </g>
     <g id="line2d_24">
      <g>
       <use xlink:href="#macb8c539e2" x="53.338125" y="211.432426" style="fill: #475569; stroke: #475569; stroke-width: 0.8"/>
      </g>
     </g>
     <g id="text_13">
      <!-- 0.10 -->
      <g style="fill: #475569" transform="translate(21.845938 215.611567) scale(0.11 -0.11)">
       <use xlink:href="#DejaVuSans-30"/>
       <use xlink:href="#DejaVuSans-2e" x="63.623047"/>
       <use xlink:href="#DejaVuSans-31" x="95.410156"/>
       <use xlink:href="#DejaVuSans-30" x="159.033203"/>
      </g>
     </g>
    </g>
    <g id="ytick_4">
     <g id="line2d_25">
      <path d="M 53.338125 179.72489 
L 811.196875 179.72489 
" clip-path="url(#p5624936c4e)" style="fill: none; stroke: #94a3b8; stroke-opacity: 0.22; stroke-width: 0.8; stroke-linecap: square"/>
     </g>
     <g id="line2d_26">
      <g>
       <use xlink:href="#macb8c539e2" x="53.338125" y="179.72489" style="fill: #475569; stroke: #475569; stroke-width: 0.8"/>
      </g>
     </g>
     <g id="text_14">
      <!-- 0.15 -->
      <g style="fill: #475569" transform="translate(21.845938 183.90403) scale(0.11 -0.11)">
       <use xlink:href="#DejaVuSans-30"/>
       <use xlink:href="#DejaVuSans-2e" x="63.623047"/>
       <use xlink:href="#DejaVuSans-31" x="95.410156"/>
       <use xlink:href="#DejaVuSans-35" x="159.033203"/>
      </g>
     </g>
    </g>
    <g id="ytick_5">
     <g id="line2d_27">
      <path d="M 53.338125 148.017353 
L 811.196875 148.017353 
" clip-path="url(#p5624936c4e)" style="fill: none; stroke: #94a3b8; stroke-opacity: 0.22; stroke-width: 0.8; stroke-linecap: square"/>
     </g>
     <g id="line2d_28">
      <g>
       <use xlink:href="#macb8c539e2" x="53.338125" y="148.017353" style="fill: #475569; stroke: #475569; stroke-width: 0.8"/>
      </g>
     </g>
     <g id="text_15">
      <!-- 0.20 -->
      <g style="fill: #475569" transform="translate(21.845938 152.196493) scale(0.11 -0.11)">
       <use xlink:href="#DejaVuSans-30"/>
       <use xlink:href="#DejaVuSans-2e" x="63.623047"/>
       <use xlink:href="#DejaVuSans-32" x="95.410156"/>
       <use xlink:href="#DejaVuSans-30" x="159.033203"/>
      </g>
     </g>
    </g>
    <g id="ytick_6">
     <g id="line2d_29">
      <path d="M 53.338125 116.309816 
L 811.196875 116.309816 
" clip-path="url(#p5624936c4e)" style="fill: none; stroke: #94a3b8; stroke-opacity: 0.22; stroke-width: 0.8; stroke-linecap: square"/>
     </g>
     <g id="line2d_30">
      <g>
       <use xlink:href="#macb8c539e2" x="53.338125" y="116.309816" style="fill: #475569; stroke: #475569; stroke-width: 0.8"/>
      </g>
     </g>
     <g id="text_16">
      <!-- 0.25 -->
      <g style="fill: #475569" transform="translate(21.845938 120.488957) scale(0.11 -0.11)">
       <use xlink:href="#DejaVuSans-30"/>
       <use xlink:href="#DejaVuSans-2e" x="63.623047"/>
       <use xlink:href="#DejaVuSans-32" x="95.410156"/>
       <use xlink:href="#DejaVuSans-35" x="159.033203"/>
      </g>
     </g>
    </g>
    <g id="ytick_7">
     <g id="line2d_31">
      <path d="M 53.338125 84.602279 
L 811.196875 84.602279 
" clip-path="url(#p5624936c4e)" style="fill: none; stroke: #94a3b8; stroke-opacity: 0.22; stroke-width: 0.8; stroke-linecap: square"/>
     </g>
     <g id="line2d_32">
      <g>
       <use xlink:href="#macb8c539e2" x="53.338125" y="84.602279" style="fill: #475569; stroke: #475569; stroke-width: 0.8"/>
      </g>
     </g>
     <g id="text_17">
      <!-- 0.30 -->
      <g style="fill: #475569" transform="translate(21.845938 88.78142) scale(0.11 -0.11)">
       <use xlink:href="#DejaVuSans-30"/>
       <use xlink:href="#DejaVuSans-2e" x="63.623047"/>
       <use xlink:href="#DejaVuSans-33" x="95.410156"/>
       <use xlink:href="#DejaVuSans-30" x="159.033203"/>
      </g>
     </g>
    </g>
    <g id="ytick_8">
     <g id="line2d_33">
      <path d="M 53.338125 52.894743 
L 811.196875 52.894743 
" clip-path="url(#p5624936c4e)" style="fill: none; stroke: #94a3b8; stroke-opacity: 0.22; stroke-width: 0.8; stroke-linecap: square"/>
     </g>
     <g id="line2d_34">
      <g>
       <use xlink:href="#macb8c539e2" x="53.338125" y="52.894743" style="fill: #475569; stroke: #475569; stroke-width: 0.8"/>
      </g>
     </g>
     <g id="text_18">
      <!-- 0.35 -->
      <g style="fill: #475569" transform="translate(21.845938 57.073883) scale(0.11 -0.11)">
       <use xlink:href="#DejaVuSans-30"/>
       <use xlink:href="#DejaVuSans-2e" x="63.623047"/>
       <use xlink:href="#DejaVuSans-33" x="95.410156"/>
       <use xlink:href="#DejaVuSans-35" x="159.033203"/>
      </g>
     </g>
    </g>
    <g id="text_19">
     <!-- Density f(x) -->
     <g style="fill: #334155" transform="translate(15.558281 186.243125) rotate(-90) scale(0.11 -0.11)">
      <defs>
       <path id="DejaVuSans-44" d="M 1259 4147 
L 1259 519 
L 2022 519 
Q 2988 519 3436 956 
Q 3884 1394 3884 2338 
Q 3884 3275 3436 3711 
Q 2988 4147 2022 4147 
L 1259 4147 
z
M 628 4666 
L 1925 4666 
Q 3281 4666 3915 4102 
Q 4550 3538 4550 2338 
Q 4550 1131 3912 565 
Q 3275 0 1925 0 
L 628 0 
L 628 4666 
z
" transform="scale(0.015625)"/>
       <path id="DejaVuSans-65" d="M 3597 1894 
L 3597 1613 
L 953 1613 
Q 991 1019 1311 708 
Q 1631 397 2203 397 
Q 2534 397 2845 478 
Q 3156 559 3463 722 
L 3463 178 
Q 3153 47 2828 -22 
Q 2503 -91 2169 -91 
Q 1331 -91 842 396 
Q 353 884 353 1716 
Q 353 2575 817 3079 
Q 1281 3584 2069 3584 
Q 2775 3584 3186 3129 
Q 3597 2675 3597 1894 
z
M 3022 2063 
Q 3016 2534 2758 2815 
Q 2500 3097 2075 3097 
Q 1594 3097 1305 2825 
Q 1016 2553 972 2059 
L 3022 2063 
z
" transform="scale(0.015625)"/>
       <path id="DejaVuSans-6e" d="M 3513 2113 
L 3513 0 
L 2938 0 
L 2938 2094 
Q 2938 2591 2744 2837 
Q 2550 3084 2163 3084 
Q 1697 3084 1428 2787 
Q 1159 2491 1159 1978 
L 1159 0 
L 581 0 
L 581 3500 
L 1159 3500 
L 1159 2956 
Q 1366 3272 1645 3428 
Q 1925 3584 2291 3584 
Q 2894 3584 3203 3211 
Q 3513 2838 3513 2113 
z
" transform="scale(0.015625)"/>
       <path id="DejaVuSans-73" d="M 2834 3397 
L 2834 2853 
Q 2591 2978 2328 3040 
Q 2066 3103 1784 3103 
Q 1356 3103 1142 2972 
Q 928 2841 928 2578 
Q 928 2378 1081 2264 
Q 1234 2150 1697 2047 
L 1894 2003 
Q 2506 1872 2764 1633 
Q 3022 1394 3022 966 
Q 3022 478 2636 193 
Q 2250 -91 1575 -91 
Q 1294 -91 989 -36 
Q 684 19 347 128 
L 347 722 
Q 666 556 975 473 
Q 1284 391 1588 391 
Q 1994 391 2212 530 
Q 2431 669 2431 922 
Q 2431 1156 2273 1281 
Q 2116 1406 1581 1522 
L 1381 1569 
Q 847 1681 609 1914 
Q 372 2147 372 2553 
Q 372 3047 722 3315 
Q 1072 3584 1716 3584 
Q 2034 3584 2315 3537 
Q 2597 3491 2834 3397 
z
" transform="scale(0.015625)"/>
       <path id="DejaVuSans-69" d="M 603 3500 
L 1178 3500 
L 1178 0 
L 603 0 
L 603 3500 
z
M 603 4863 
L 1178 4863 
L 1178 4134 
L 603 4134 
L 603 4863 
z
" transform="scale(0.015625)"/>
       <path id="DejaVuSans-74" d="M 1172 4494 
L 1172 3500 
L 2356 3500 
L 2356 3053 
L 1172 3053 
L 1172 1153 
Q 1172 725 1289 603 
Q 1406 481 1766 481 
L 2356 481 
L 2356 0 
L 1766 0 
Q 1100 0 847 248 
Q 594 497 594 1153 
L 594 3053 
L 172 3053 
L 172 3500 
L 594 3500 
L 594 4494 
L 1172 4494 
z
" transform="scale(0.015625)"/>
       <path id="DejaVuSans-79" d="M 2059 -325 
Q 1816 -950 1584 -1140 
Q 1353 -1331 966 -1331 
L 506 -1331 
L 506 -850 
L 844 -850 
Q 1081 -850 1212 -737 
Q 1344 -625 1503 -206 
L 1606 56 
L 191 3500 
L 800 3500 
L 1894 763 
L 2988 3500 
L 3597 3500 
L 2059 -325 
z
" transform="scale(0.015625)"/>
       <path id="DejaVuSans-20" transform="scale(0.015625)"/>
       <path id="DejaVuSans-66" d="M 2375 4863 
L 2375 4384 
L 1825 4384 
Q 1516 4384 1395 4259 
Q 1275 4134 1275 3809 
L 1275 3500 
L 2222 3500 
L 2222 3053 
L 1275 3053 
L 1275 0 
L 697 0 
L 697 3053 
L 147 3053 
L 147 3500 
L 697 3500 
L 697 3744 
Q 697 4328 969 4595 
Q 1241 4863 1831 4863 
L 2375 4863 
z
" transform="scale(0.015625)"/>
       <path id="DejaVuSans-28" d="M 1984 4856 
Q 1566 4138 1362 3434 
Q 1159 2731 1159 2009 
Q 1159 1288 1364 580 
Q 1569 -128 1984 -844 
L 1484 -844 
Q 1016 -109 783 600 
Q 550 1309 550 2009 
Q 550 2706 781 3412 
Q 1013 4119 1484 4856 
L 1984 4856 
z
" transform="scale(0.015625)"/>
       <path id="DejaVuSans-29" d="M 513 4856 
L 1013 4856 
Q 1481 4119 1714 3412 
Q 1947 2706 1947 2009 
Q 1947 1309 1714 600 
Q 1481 -109 1013 -844 
L 513 -844 
Q 928 -128 1133 580 
Q 1338 1288 1338 2009 
Q 1338 2731 1133 3434 
Q 928 4138 513 4856 
z
" transform="scale(0.015625)"/>
      </defs>
      <use xlink:href="#DejaVuSans-44"/>
      <use xlink:href="#DejaVuSans-65" x="77.001953"/>
      <use xlink:href="#DejaVuSans-6e" x="138.525391"/>
      <use xlink:href="#DejaVuSans-73" x="201.904297"/>
      <use xlink:href="#DejaVuSans-69" x="254.003906"/>
      <use xlink:href="#DejaVuSans-74" x="281.787109"/>
      <use xlink:href="#DejaVuSans-79" x="320.996094"/>
      <use xlink:href="#DejaVuSans-20" x="380.175781"/>
      <use xlink:href="#DejaVuSans-66" x="411.962891"/>
      <use xlink:href="#DejaVuSans-28" x="447.167969"/>
      <use xlink:href="#DejaVuSans-78" x="486.181641"/>
      <use xlink:href="#DejaVuSans-29" x="545.361328"/>
     </g>
    </g>
   </g>
   <g id="line2d_35">
    <path d="M 87.78625 274.690454 
L 114.019291 274.412426 
L 131.968214 274.011582 
L 145.775078 273.499443 
L 158.201255 272.812281 
L 167.86606 272.076786 
L 177.530864 271.114553 
L 185.814982 270.067588 
L 194.099101 268.773612 
L 201.002533 267.474647 
L 207.905964 265.945285 
L 214.809396 264.155615 
L 220.332142 262.515353 
L 225.854887 260.671717 
L 231.377633 258.607748 
L 236.900378 256.306392 
L 242.423124 253.750731 
L 247.945869 250.924251 
L 253.468615 247.811133 
L 258.99136 244.396577 
L 264.514106 240.667145 
L 270.036851 236.611133 
L 275.559597 232.218942 
L 281.082342 227.483473 
L 286.605088 222.40051 
L 292.127833 216.969106 
L 297.650579 211.191941 
L 303.173324 205.075663 
L 308.69607 198.631185 
L 314.218815 191.873946 
L 321.122247 183.018745 
L 328.025679 173.756756 
L 336.309797 162.193584 
L 345.974602 148.250661 
L 373.588329 108.005689 
L 380.491761 98.443013 
L 386.014507 91.103626 
L 391.537252 84.108249 
L 397.059997 77.518354 
L 401.202057 72.877922 
L 405.344116 68.523186 
L 409.486175 64.477122 
L 413.628234 60.761388 
L 417.770293 57.396139 
L 421.912352 54.399841 
L 426.054411 51.7891 
L 428.815784 50.270101 
L 431.577157 48.932793 
L 434.33853 47.780538 
L 437.099902 46.816241 
L 439.861275 46.042341 
L 442.622648 45.460803 
L 445.384021 45.073103 
L 448.145393 44.880228 
L 450.906766 44.882671 
L 453.668139 45.080424 
L 456.429512 45.472984 
L 459.190884 46.059352 
L 461.952257 46.838037 
L 464.71363 47.807065 
L 467.475003 48.963984 
L 470.236375 50.305876 
L 472.997748 51.829371 
L 475.759121 53.530656 
L 479.90118 56.406566 
L 484.043239 59.656893 
L 488.185298 63.263744 
L 492.327357 67.207479 
L 496.469416 71.466896 
L 500.611475 76.019415 
L 504.753535 80.84128 
L 510.27628 87.646562 
L 515.799026 94.826012 
L 522.702457 104.231767 
L 530.986576 115.989744 
L 542.032067 132.124244 
L 559.980989 158.349743 
L 568.265108 170.047323 
L 575.16854 179.451803 
L 582.071971 188.472265 
L 587.594717 195.374966 
L 593.117462 201.974132 
L 598.640208 208.252045 
L 604.162953 214.195616 
L 609.685699 219.796152 
L 615.208444 225.049078 
L 620.73119 229.953617 
L 626.253935 234.512439 
L 631.776681 238.731285 
L 637.299426 242.618584 
L 642.822172 246.185061 
L 648.344917 249.443358 
L 653.867663 252.407653 
L 659.390408 255.093311 
L 664.913154 257.516546 
L 670.435899 259.694113 
L 675.958645 261.643032 
L 681.48139 263.380335 
L 687.004136 264.92285 
L 693.907568 266.602068 
L 700.810999 268.03345 
L 707.714431 269.246173 
L 715.99855 270.450977 
L 724.282668 271.422926 
L 733.947472 272.313406 
L 744.992963 273.074045 
L 757.419141 273.679656 
L 771.226005 274.128007 
L 776.74875 274.25825 
L 776.74875 274.25825 
" clip-path="url(#p5624936c4e)" style="fill: none; stroke: #1d4ed8; stroke-width: 2.5; stroke-linecap: square"/>
   </g>
   <g id="line2d_36">
    <path d="M 363.37125 274.8475 
L 363.37125 33.3575 
" clip-path="url(#p5624936c4e)" style="fill: none; stroke-dasharray: 5.55,2.4; stroke-dashoffset: 0; stroke: #0f766e; stroke-width: 1.5"/>
   </g>
   <g id="line2d_37">
    <path d="M 526.999844 274.8475 
L 526.999844 33.3575 
" clip-path="url(#p5624936c4e)" style="fill: none; stroke-dasharray: 5.55,2.4; stroke-dashoffset: 0; stroke: #0f766e; stroke-width: 1.5"/>
   </g>
   <g id="patch_3">
    <path d="M 53.338125 274.8475 
L 53.338125 33.3575 
" style="fill: none; stroke: #94a3b8; stroke-width: 0.8; stroke-linejoin: miter; stroke-linecap: square"/>
   </g>
   <g id="patch_4">
    <path d="M 53.338125 274.8475 
L 811.196875 274.8475 
" style="fill: none; stroke: #94a3b8; stroke-width: 0.8; stroke-linejoin: miter; stroke-linecap: square"/>
   </g>
   <g id="text_20">
    <!-- a -->
    <g style="fill: #0f766e" transform="translate(359.694375 290.307132) scale(0.12 -0.12)">
     <defs>
      <path id="DejaVuSans-61" d="M 2194 1759 
Q 1497 1759 1228 1600 
Q 959 1441 959 1056 
Q 959 750 1161 570 
Q 1363 391 1709 391 
Q 2188 391 2477 730 
Q 2766 1069 2766 1631 
L 2766 1759 
L 2194 1759 
z
M 3341 1997 
L 3341 0 
L 2766 0 
L 2766 531 
Q 2569 213 2275 61 
Q 1981 -91 1556 -91 
Q 1019 -91 701 211 
Q 384 513 384 1019 
Q 384 1609 779 1909 
Q 1175 2209 1959 2209 
L 2766 2209 
L 2766 2266 
Q 2766 2663 2505 2880 
Q 2244 3097 1772 3097 
Q 1472 3097 1187 3025 
Q 903 2953 641 2809 
L 641 3341 
Q 956 3463 1253 3523 
Q 1550 3584 1831 3584 
Q 2591 3584 2966 3190 
Q 3341 2797 3341 1997 
z
" transform="scale(0.015625)"/>
     </defs>
     <use xlink:href="#DejaVuSans-61"/>
    </g>
   </g>
   <g id="text_21">
    <!-- b -->
    <g style="fill: #0f766e" transform="translate(523.190781 290.307132) scale(0.12 -0.12)">
     <defs>
      <path id="DejaVuSans-62" d="M 3116 1747 
Q 3116 2381 2855 2742 
Q 2594 3103 2138 3103 
Q 1681 3103 1420 2742 
Q 1159 2381 1159 1747 
Q 1159 1113 1420 752 
Q 1681 391 2138 391 
Q 2594 391 2855 752 
Q 3116 1113 3116 1747 
z
M 1159 2969 
Q 1341 3281 1617 3432 
Q 1894 3584 2278 3584 
Q 2916 3584 3314 3078 
Q 3713 2572 3713 1747 
Q 3713 922 3314 415 
Q 2916 -91 2278 -91 
Q 1894 -91 1617 61 
Q 1341 213 1159 525 
L 1159 0 
L 581 0 
L 581 4863 
L 1159 4863 
L 1159 2969 
z
" transform="scale(0.015625)"/>
     </defs>
     <use xlink:href="#DejaVuSans-62"/>
    </g>
   </g>
   <g id="text_22">
    <g id="patch_5">
     <path d="M 182.174113 109.528294 
L 450.819112 109.528294 
Q 456.669112 109.528294 456.669112 103.678294 
L 456.669112 76.33645 
Q 456.669112 70.48645 450.819112 70.48645 
L 182.174113 70.48645 
Q 176.324113 70.48645 176.324113 76.33645 
L 176.324113 103.678294 
Q 176.324113 109.528294 182.174113 109.528294 
z
" style="fill: #eff6ff; stroke: #93c5fd; stroke-linejoin: miter"/>
    </g>
    <!-- Probability for a continuous variable -->
    <g style="fill: #0f172a" transform="translate(182.174113 86.315981) scale(0.13 -0.13)">
     <defs>
      <path id="DejaVuSans-Bold-50" d="M 588 4666 
L 2584 4666 
Q 3475 4666 3951 4270 
Q 4428 3875 4428 3144 
Q 4428 2409 3951 2014 
Q 3475 1619 2584 1619 
L 1791 1619 
L 1791 0 
L 588 0 
L 588 4666 
z
M 1791 3794 
L 1791 2491 
L 2456 2491 
Q 2806 2491 2997 2661 
Q 3188 2831 3188 3144 
Q 3188 3456 2997 3625 
Q 2806 3794 2456 3794 
L 1791 3794 
z
" transform="scale(0.015625)"/>
      <path id="DejaVuSans-Bold-72" d="M 3138 2547 
Q 2991 2616 2845 2648 
Q 2700 2681 2553 2681 
Q 2122 2681 1889 2404 
Q 1656 2128 1656 1613 
L 1656 0 
L 538 0 
L 538 3500 
L 1656 3500 
L 1656 2925 
Q 1872 3269 2151 3426 
Q 2431 3584 2822 3584 
Q 2878 3584 2943 3579 
Q 3009 3575 3134 3559 
L 3138 2547 
z
" transform="scale(0.015625)"/>
      <path id="DejaVuSans-Bold-6f" d="M 2203 2784 
Q 1831 2784 1636 2517 
Q 1441 2250 1441 1747 
Q 1441 1244 1636 976 
Q 1831 709 2203 709 
Q 2569 709 2762 976 
Q 2956 1244 2956 1747 
Q 2956 2250 2762 2517 
Q 2569 2784 2203 2784 
z
M 2203 3584 
Q 3106 3584 3614 3096 
Q 4122 2609 4122 1747 
Q 4122 884 3614 396 
Q 3106 -91 2203 -91 
Q 1297 -91 786 396 
Q 275 884 275 1747 
Q 275 2609 786 3096 
Q 1297 3584 2203 3584 
z
" transform="scale(0.015625)"/>
      <path id="DejaVuSans-Bold-62" d="M 2400 722 
Q 2759 722 2948 984 
Q 3138 1247 3138 1747 
Q 3138 2247 2948 2509 
Q 2759 2772 2400 2772 
Q 2041 2772 1848 2508 
Q 1656 2244 1656 1747 
Q 1656 1250 1848 986 
Q 2041 722 2400 722 
z
M 1656 2988 
Q 1888 3294 2169 3439 
Q 2450 3584 2816 3584 
Q 3463 3584 3878 3070 
Q 4294 2556 4294 1747 
Q 4294 938 3878 423 
Q 3463 -91 2816 -91 
Q 2450 -91 2169 54 
Q 1888 200 1656 506 
L 1656 0 
L 538 0 
L 538 4863 
L 1656 4863 
L 1656 2988 
z
" transform="scale(0.015625)"/>
      <path id="DejaVuSans-Bold-61" d="M 2106 1575 
Q 1756 1575 1579 1456 
Q 1403 1338 1403 1106 
Q 1403 894 1545 773 
Q 1688 653 1941 653 
Q 2256 653 2472 879 
Q 2688 1106 2688 1447 
L 2688 1575 
L 2106 1575 
z
M 3816 1997 
L 3816 0 
L 2688 0 
L 2688 519 
Q 2463 200 2181 54 
Q 1900 -91 1497 -91 
Q 953 -91 614 226 
Q 275 544 275 1050 
Q 275 1666 698 1953 
Q 1122 2241 2028 2241 
L 2688 2241 
L 2688 2328 
Q 2688 2594 2478 2717 
Q 2269 2841 1825 2841 
Q 1466 2841 1156 2769 
Q 847 2697 581 2553 
L 581 3406 
Q 941 3494 1303 3539 
Q 1666 3584 2028 3584 
Q 2975 3584 3395 3211 
Q 3816 2838 3816 1997 
z
" transform="scale(0.015625)"/>
      <path id="DejaVuSans-Bold-69" d="M 538 3500 
L 1656 3500 
L 1656 0 
L 538 0 
L 538 3500 
z
M 538 4863 
L 1656 4863 
L 1656 3950 
L 538 3950 
L 538 4863 
z
" transform="scale(0.015625)"/>
      <path id="DejaVuSans-Bold-6c" d="M 538 4863 
L 1656 4863 
L 1656 0 
L 538 0 
L 538 4863 
z
" transform="scale(0.015625)"/>
      <path id="DejaVuSans-Bold-74" d="M 1759 4494 
L 1759 3500 
L 2913 3500 
L 2913 2700 
L 1759 2700 
L 1759 1216 
Q 1759 972 1856 886 
Q 1953 800 2241 800 
L 2816 800 
L 2816 0 
L 1856 0 
Q 1194 0 917 276 
Q 641 553 641 1216 
L 641 2700 
L 84 2700 
L 84 3500 
L 641 3500 
L 641 4494 
L 1759 4494 
z
" transform="scale(0.015625)"/>
      <path id="DejaVuSans-Bold-79" d="M 78 3500 
L 1197 3500 
L 2138 1125 
L 2938 3500 
L 4056 3500 
L 2584 -331 
Q 2363 -916 2067 -1148 
Q 1772 -1381 1288 -1381 
L 641 -1381 
L 641 -647 
L 991 -647 
Q 1275 -647 1404 -556 
Q 1534 -466 1606 -231 
L 1638 -134 
L 78 3500 
z
" transform="scale(0.015625)"/>
      <path id="DejaVuSans-Bold-20" transform="scale(0.015625)"/>
      <path id="DejaVuSans-Bold-66" d="M 2841 4863 
L 2841 4128 
L 2222 4128 
Q 1984 4128 1890 4042 
Q 1797 3956 1797 3744 
L 1797 3500 
L 2753 3500 
L 2753 2700 
L 1797 2700 
L 1797 0 
L 678 0 
L 678 2700 
L 122 2700 
L 122 3500 
L 678 3500 
L 678 3744 
Q 678 4316 997 4589 
Q 1316 4863 1984 4863 
L 2841 4863 
z
" transform="scale(0.015625)"/>
      <path id="DejaVuSans-Bold-63" d="M 3366 3391 
L 3366 2478 
Q 3138 2634 2908 2709 
Q 2678 2784 2431 2784 
Q 1963 2784 1702 2511 
Q 1441 2238 1441 1747 
Q 1441 1256 1702 982 
Q 1963 709 2431 709 
Q 2694 709 2930 787 
Q 3166 866 3366 1019 
L 3366 103 
Q 3103 6 2833 -42 
Q 2563 -91 2291 -91 
Q 1344 -91 809 395 
Q 275 881 275 1747 
Q 275 2613 809 3098 
Q 1344 3584 2291 3584 
Q 2566 3584 2833 3536 
Q 3100 3488 3366 3391 
z
" transform="scale(0.015625)"/>
      <path id="DejaVuSans-Bold-6e" d="M 4056 2131 
L 4056 0 
L 2931 0 
L 2931 347 
L 2931 1631 
Q 2931 2084 2911 2256 
Q 2891 2428 2841 2509 
Q 2775 2619 2662 2680 
Q 2550 2741 2406 2741 
Q 2056 2741 1856 2470 
Q 1656 2200 1656 1722 
L 1656 0 
L 538 0 
L 538 3500 
L 1656 3500 
L 1656 2988 
Q 1909 3294 2193 3439 
Q 2478 3584 2822 3584 
Q 3428 3584 3742 3212 
Q 4056 2841 4056 2131 
z
" transform="scale(0.015625)"/>
      <path id="DejaVuSans-Bold-75" d="M 500 1363 
L 500 3500 
L 1625 3500 
L 1625 3150 
Q 1625 2866 1622 2436 
Q 1619 2006 1619 1863 
Q 1619 1441 1641 1255 
Q 1663 1069 1716 984 
Q 1784 875 1895 815 
Q 2006 756 2150 756 
Q 2500 756 2700 1025 
Q 2900 1294 2900 1772 
L 2900 3500 
L 4019 3500 
L 4019 0 
L 2900 0 
L 2900 506 
Q 2647 200 2364 54 
Q 2081 -91 1741 -91 
Q 1134 -91 817 281 
Q 500 653 500 1363 
z
" transform="scale(0.015625)"/>
      <path id="DejaVuSans-Bold-73" d="M 3272 3391 
L 3272 2541 
Q 2913 2691 2578 2766 
Q 2244 2841 1947 2841 
Q 1628 2841 1473 2761 
Q 1319 2681 1319 2516 
Q 1319 2381 1436 2309 
Q 1553 2238 1856 2203 
L 2053 2175 
Q 2913 2066 3209 1816 
Q 3506 1566 3506 1031 
Q 3506 472 3093 190 
Q 2681 -91 1863 -91 
Q 1516 -91 1145 -36 
Q 775 19 384 128 
L 384 978 
Q 719 816 1070 734 
Q 1422 653 1784 653 
Q 2113 653 2278 743 
Q 2444 834 2444 1013 
Q 2444 1163 2330 1236 
Q 2216 1309 1875 1350 
L 1678 1375 
Q 931 1469 631 1722 
Q 331 1975 331 2491 
Q 331 3047 712 3315 
Q 1094 3584 1881 3584 
Q 2191 3584 2531 3537 
Q 2872 3491 3272 3391 
z
" transform="scale(0.015625)"/>
      <path id="DejaVuSans-Bold-76" d="M 97 3500 
L 1216 3500 
L 2088 1081 
L 2956 3500 
L 4078 3500 
L 2700 0 
L 1472 0 
L 97 3500 
z
" transform="scale(0.015625)"/>
      <path id="DejaVuSans-Bold-65" d="M 4031 1759 
L 4031 1441 
L 1416 1441 
Q 1456 1047 1700 850 
Q 1944 653 2381 653 
Q 2734 653 3104 758 
Q 3475 863 3866 1075 
L 3866 213 
Q 3469 63 3072 -14 
Q 2675 -91 2278 -91 
Q 1328 -91 801 392 
Q 275 875 275 1747 
Q 275 2603 792 3093 
Q 1309 3584 2216 3584 
Q 3041 3584 3536 3087 
Q 4031 2591 4031 1759 
z
M 2881 2131 
Q 2881 2450 2695 2645 
Q 2509 2841 2209 2841 
Q 1884 2841 1681 2658 
Q 1478 2475 1428 2131 
L 2881 2131 
z
" transform="scale(0.015625)"/>
     </defs>
     <use xlink:href="#DejaVuSans-Bold-50"/>
     <use xlink:href="#DejaVuSans-Bold-72" x="73.291016"/>
     <use xlink:href="#DejaVuSans-Bold-6f" x="122.607422"/>
     <use xlink:href="#DejaVuSans-Bold-62" x="191.308594"/>
     <use xlink:href="#DejaVuSans-Bold-61" x="262.890625"/>
     <use xlink:href="#DejaVuSans-Bold-62" x="330.371094"/>
     <use xlink:href="#DejaVuSans-Bold-69" x="401.953125"/>
     <use xlink:href="#DejaVuSans-Bold-6c" x="436.230469"/>
     <use xlink:href="#DejaVuSans-Bold-69" x="470.507812"/>
     <use xlink:href="#DejaVuSans-Bold-74" x="504.785156"/>
     <use xlink:href="#DejaVuSans-Bold-79" x="552.587891"/>
     <use xlink:href="#DejaVuSans-Bold-20" x="617.773438"/>
     <use xlink:href="#DejaVuSans-Bold-66" x="652.587891"/>
     <use xlink:href="#DejaVuSans-Bold-6f" x="696.09375"/>
     <use xlink:href="#DejaVuSans-Bold-72" x="764.794922"/>
     <use xlink:href="#DejaVuSans-Bold-20" x="814.111328"/>
     <use xlink:href="#DejaVuSans-Bold-61" x="848.925781"/>
     <use xlink:href="#DejaVuSans-Bold-20" x="916.40625"/>
     <use xlink:href="#DejaVuSans-Bold-63" x="951.220703"/>
     <use xlink:href="#DejaVuSans-Bold-6f" x="1010.498047"/>
     <use xlink:href="#DejaVuSans-Bold-6e" x="1079.199219"/>
     <use xlink:href="#DejaVuSans-Bold-74" x="1150.390625"/>
     <use xlink:href="#DejaVuSans-Bold-69" x="1198.193359"/>
     <use xlink:href="#DejaVuSans-Bold-6e" x="1232.470703"/>
     <use xlink:href="#DejaVuSans-Bold-75" x="1303.662109"/>
     <use xlink:href="#DejaVuSans-Bold-6f" x="1374.853516"/>
     <use xlink:href="#DejaVuSans-Bold-75" x="1443.554688"/>
     <use xlink:href="#DejaVuSans-Bold-73" x="1514.746094"/>
     <use xlink:href="#DejaVuSans-Bold-20" x="1574.267578"/>
     <use xlink:href="#DejaVuSans-Bold-76" x="1609.082031"/>
     <use xlink:href="#DejaVuSans-Bold-61" x="1674.267578"/>
     <use xlink:href="#DejaVuSans-Bold-72" x="1741.748047"/>
     <use xlink:href="#DejaVuSans-Bold-69" x="1791.064453"/>
     <use xlink:href="#DejaVuSans-Bold-61" x="1825.341797"/>
     <use xlink:href="#DejaVuSans-Bold-62" x="1892.822266"/>
     <use xlink:href="#DejaVuSans-Bold-6c" x="1964.404297"/>
     <use xlink:href="#DejaVuSans-Bold-65" x="1998.681641"/>
    </g>
    <!-- comes from area under the curve -->
    <g style="fill: #0f172a" transform="translate(182.174113 100.9747) scale(0.13 -0.13)">
     <defs>
      <path id="DejaVuSans-Bold-6d" d="M 3781 2919 
Q 3994 3244 4286 3414 
Q 4578 3584 4928 3584 
Q 5531 3584 5847 3212 
Q 6163 2841 6163 2131 
L 6163 0 
L 5038 0 
L 5038 1825 
Q 5041 1866 5042 1909 
Q 5044 1953 5044 2034 
Q 5044 2406 4934 2573 
Q 4825 2741 4581 2741 
Q 4263 2741 4089 2478 
Q 3916 2216 3909 1719 
L 3909 0 
L 2784 0 
L 2784 1825 
Q 2784 2406 2684 2573 
Q 2584 2741 2328 2741 
Q 2006 2741 1831 2477 
Q 1656 2213 1656 1722 
L 1656 0 
L 531 0 
L 531 3500 
L 1656 3500 
L 1656 2988 
Q 1863 3284 2130 3434 
Q 2397 3584 2719 3584 
Q 3081 3584 3359 3409 
Q 3638 3234 3781 2919 
z
" transform="scale(0.015625)"/>
      <path id="DejaVuSans-Bold-64" d="M 2919 2988 
L 2919 4863 
L 4044 4863 
L 4044 0 
L 2919 0 
L 2919 506 
Q 2688 197 2409 53 
Q 2131 -91 1766 -91 
Q 1119 -91 703 423 
Q 288 938 288 1747 
Q 288 2556 703 3070 
Q 1119 3584 1766 3584 
Q 2128 3584 2408 3439 
Q 2688 3294 2919 2988 
z
M 2181 722 
Q 2541 722 2730 984 
Q 2919 1247 2919 1747 
Q 2919 2247 2730 2509 
Q 2541 2772 2181 2772 
Q 1825 2772 1636 2509 
Q 1447 2247 1447 1747 
Q 1447 1247 1636 984 
Q 1825 722 2181 722 
z
" transform="scale(0.015625)"/>
      <path id="DejaVuSans-Bold-68" d="M 4056 2131 
L 4056 0 
L 2931 0 
L 2931 347 
L 2931 1625 
Q 2931 2084 2911 2256 
Q 2891 2428 2841 2509 
Q 2775 2619 2662 2680 
Q 2550 2741 2406 2741 
Q 2056 2741 1856 2470 
Q 1656 2200 1656 1722 
L 1656 0 
L 538 0 
L 538 4863 
L 1656 4863 
L 1656 2988 
Q 1909 3294 2193 3439 
Q 2478 3584 2822 3584 
Q 3428 3584 3742 3212 
Q 4056 2841 4056 2131 
z
" transform="scale(0.015625)"/>
     </defs>
     <use xlink:href="#DejaVuSans-Bold-63"/>
     <use xlink:href="#DejaVuSans-Bold-6f" x="59.277344"/>
     <use xlink:href="#DejaVuSans-Bold-6d" x="127.978516"/>
     <use xlink:href="#DejaVuSans-Bold-65" x="232.177734"/>
     <use xlink:href="#DejaVuSans-Bold-73" x="300"/>
     <use xlink:href="#DejaVuSans-Bold-20" x="359.521484"/>
     <use xlink:href="#DejaVuSans-Bold-66" x="394.335938"/>
     <use xlink:href="#DejaVuSans-Bold-72" x="437.841797"/>
     <use xlink:href="#DejaVuSans-Bold-6f" x="487.158203"/>
     <use xlink:href="#DejaVuSans-Bold-6d" x="555.859375"/>
     <use xlink:href="#DejaVuSans-Bold-20" x="660.058594"/>
     <use xlink:href="#DejaVuSans-Bold-61" x="694.873047"/>
     <use xlink:href="#DejaVuSans-Bold-72" x="762.353516"/>
     <use xlink:href="#DejaVuSans-Bold-65" x="811.669922"/>
     <use xlink:href="#DejaVuSans-Bold-61" x="879.492188"/>
     <use xlink:href="#DejaVuSans-Bold-20" x="946.972656"/>
     <use xlink:href="#DejaVuSans-Bold-75" x="981.787109"/>
     <use xlink:href="#DejaVuSans-Bold-6e" x="1052.978516"/>
     <use xlink:href="#DejaVuSans-Bold-64" x="1124.169922"/>
     <use xlink:href="#DejaVuSans-Bold-65" x="1195.751953"/>
     <use xlink:href="#DejaVuSans-Bold-72" x="1263.574219"/>
     <use xlink:href="#DejaVuSans-Bold-20" x="1312.890625"/>
     <use xlink:href="#DejaVuSans-Bold-74" x="1347.705078"/>
     <use xlink:href="#DejaVuSans-Bold-68" x="1395.507812"/>
     <use xlink:href="#DejaVuSans-Bold-65" x="1466.699219"/>
     <use xlink:href="#DejaVuSans-Bold-20" x="1534.521484"/>
     <use xlink:href="#DejaVuSans-Bold-63" x="1569.335938"/>
     <use xlink:href="#DejaVuSans-Bold-75" x="1628.613281"/>
     <use xlink:href="#DejaVuSans-Bold-72" x="1699.804688"/>
     <use xlink:href="#DejaVuSans-Bold-76" x="1749.121094"/>
     <use xlink:href="#DejaVuSans-Bold-65" x="1814.306641"/>
    </g>
   </g>
   <g id="patch_6">
    <path d="M 574.671055 117.823495 
Q 510.926076 115.951246 448.96918 114.131514 
" style="fill: none; stroke: #0369a1; stroke-width: 1.6; stroke-linecap: round"/>
    <path d="M 453.696651 116.6714 
L 448.96918 114.131514 
L 453.837571 111.873469 
" style="fill: none; stroke: #0369a1; stroke-width: 1.6; stroke-linecap: round"/>
   </g>
   <g id="text_23">
    <!-- P(a &lt;= X &lt;= b) -->
    <g style="fill: #0369a1" transform="translate(578.672031 122.651323) scale(0.12 -0.12)">
     <defs>
      <path id="DejaVuSans-50" d="M 1259 4147 
L 1259 2394 
L 2053 2394 
Q 2494 2394 2734 2622 
Q 2975 2850 2975 3272 
Q 2975 3691 2734 3919 
Q 2494 4147 2053 4147 
L 1259 4147 
z
M 628 4666 
L 2053 4666 
Q 2838 4666 3239 4311 
Q 3641 3956 3641 3272 
Q 3641 2581 3239 2228 
Q 2838 1875 2053 1875 
L 1259 1875 
L 1259 0 
L 628 0 
L 628 4666 
z
" transform="scale(0.015625)"/>
      <path id="DejaVuSans-3c" d="M 4684 3150 
L 1459 2003 
L 4684 863 
L 4684 294 
L 678 1747 
L 678 2266 
L 4684 3719 
L 4684 3150 
z
" transform="scale(0.015625)"/>
      <path id="DejaVuSans-3d" d="M 678 2906 
L 4684 2906 
L 4684 2381 
L 678 2381 
L 678 2906 
z
M 678 1631 
L 4684 1631 
L 4684 1100 
L 678 1100 
L 678 1631 
z
" transform="scale(0.015625)"/>
      <path id="DejaVuSans-58" d="M 403 4666 
L 1081 4666 
L 2241 2931 
L 3406 4666 
L 4084 4666 
L 2584 2425 
L 4184 0 
L 3506 0 
L 2194 1984 
L 872 0 
L 191 0 
L 1856 2491 
L 403 4666 
z
" transform="scale(0.015625)"/>
     </defs>
     <use xlink:href="#DejaVuSans-50"/>
     <use xlink:href="#DejaVuSans-28" x="60.302734"/>
     <use xlink:href="#DejaVuSans-61" x="99.316406"/>
     <use xlink:href="#DejaVuSans-20" x="160.595703"/>
     <use xlink:href="#DejaVuSans-3c" x="192.382812"/>
     <use xlink:href="#DejaVuSans-3d" x="276.171875"/>
     <use xlink:href="#DejaVuSans-20" x="359.960938"/>
     <use xlink:href="#DejaVuSans-58" x="391.748047"/>
     <use xlink:href="#DejaVuSans-20" x="460.253906"/>
     <use xlink:href="#DejaVuSans-3c" x="492.041016"/>
     <use xlink:href="#DejaVuSans-3d" x="575.830078"/>
     <use xlink:href="#DejaVuSans-20" x="659.619141"/>
     <use xlink:href="#DejaVuSans-62" x="691.40625"/>
     <use xlink:href="#DejaVuSans-29" x="754.882812"/>
    </g>
   </g>
   <g id="text_24">
    <!-- Continuous Distributions: Area Encodes Probability -->
    <g style="fill: #0f172a" transform="translate(200.665 19.3575) scale(0.16 -0.16)">
     <defs>
      <path id="DejaVuSans-Bold-43" d="M 4288 256 
Q 3956 84 3597 -3 
Q 3238 -91 2847 -91 
Q 1681 -91 1000 561 
Q 319 1213 319 2328 
Q 319 3447 1000 4098 
Q 1681 4750 2847 4750 
Q 3238 4750 3597 4662 
Q 3956 4575 4288 4403 
L 4288 3438 
Q 3953 3666 3628 3772 
Q 3303 3878 2944 3878 
Q 2300 3878 1931 3465 
Q 1563 3053 1563 2328 
Q 1563 1606 1931 1193 
Q 2300 781 2944 781 
Q 3303 781 3628 887 
Q 3953 994 4288 1222 
L 4288 256 
z
" transform="scale(0.015625)"/>
      <path id="DejaVuSans-Bold-44" d="M 1791 3756 
L 1791 909 
L 2222 909 
Q 2959 909 3348 1275 
Q 3738 1641 3738 2338 
Q 3738 3031 3350 3393 
Q 2963 3756 2222 3756 
L 1791 3756 
z
M 588 4666 
L 1856 4666 
Q 2919 4666 3439 4514 
Q 3959 4363 4331 4000 
Q 4659 3684 4818 3271 
Q 4978 2859 4978 2338 
Q 4978 1809 4818 1395 
Q 4659 981 4331 666 
Q 3956 303 3431 151 
Q 2906 0 1856 0 
L 588 0 
L 588 4666 
z
" transform="scale(0.015625)"/>
      <path id="DejaVuSans-Bold-3a" d="M 716 3500 
L 1844 3500 
L 1844 2291 
L 716 2291 
L 716 3500 
z
M 716 1209 
L 1844 1209 
L 1844 0 
L 716 0 
L 716 1209 
z
" transform="scale(0.015625)"/>
      <path id="DejaVuSans-Bold-41" d="M 3419 850 
L 1538 850 
L 1241 0 
L 31 0 
L 1759 4666 
L 3194 4666 
L 4922 0 
L 3713 0 
L 3419 850 
z
M 1838 1716 
L 3116 1716 
L 2478 3572 
L 1838 1716 
z
" transform="scale(0.015625)"/>
      <path id="DejaVuSans-Bold-45" d="M 588 4666 
L 3834 4666 
L 3834 3756 
L 1791 3756 
L 1791 2888 
L 3713 2888 
L 3713 1978 
L 1791 1978 
L 1791 909 
L 3903 909 
L 3903 0 
L 588 0 
L 588 4666 
z
" transform="scale(0.015625)"/>
     </defs>
     <use xlink:href="#DejaVuSans-Bold-43"/>
     <use xlink:href="#DejaVuSans-Bold-6f" x="73.388672"/>
     <use xlink:href="#DejaVuSans-Bold-6e" x="142.089844"/>
     <use xlink:href="#DejaVuSans-Bold-74" x="213.28125"/>
     <use xlink:href="#DejaVuSans-Bold-69" x="261.083984"/>
     <use xlink:href="#DejaVuSans-Bold-6e" x="295.361328"/>
     <use xlink:href="#DejaVuSans-Bold-75" x="366.552734"/>
     <use xlink:href="#DejaVuSans-Bold-6f" x="437.744141"/>
     <use xlink:href="#DejaVuSans-Bold-75" x="506.445312"/>
     <use xlink:href="#DejaVuSans-Bold-73" x="577.636719"/>
     <use xlink:href="#DejaVuSans-Bold-20" x="637.158203"/>
     <use xlink:href="#DejaVuSans-Bold-44" x="671.972656"/>
     <use xlink:href="#DejaVuSans-Bold-69" x="754.980469"/>
     <use xlink:href="#DejaVuSans-Bold-73" x="789.257812"/>
     <use xlink:href="#DejaVuSans-Bold-74" x="848.779297"/>
     <use xlink:href="#DejaVuSans-Bold-72" x="896.582031"/>
     <use xlink:href="#DejaVuSans-Bold-69" x="945.898438"/>
     <use xlink:href="#DejaVuSans-Bold-62" x="980.175781"/>
     <use xlink:href="#DejaVuSans-Bold-75" x="1051.757812"/>
     <use xlink:href="#DejaVuSans-Bold-74" x="1122.949219"/>
     <use xlink:href="#DejaVuSans-Bold-69" x="1170.751953"/>
     <use xlink:href="#DejaVuSans-Bold-6f" x="1205.029297"/>
     <use xlink:href="#DejaVuSans-Bold-6e" x="1273.730469"/>
     <use xlink:href="#DejaVuSans-Bold-73" x="1344.921875"/>
     <use xlink:href="#DejaVuSans-Bold-3a" x="1404.443359"/>
     <use xlink:href="#DejaVuSans-Bold-20" x="1444.433594"/>
     <use xlink:href="#DejaVuSans-Bold-41" x="1479.248047"/>
     <use xlink:href="#DejaVuSans-Bold-72" x="1556.640625"/>
     <use xlink:href="#DejaVuSans-Bold-65" x="1605.957031"/>
     <use xlink:href="#DejaVuSans-Bold-61" x="1673.779297"/>
     <use xlink:href="#DejaVuSans-Bold-20" x="1741.259766"/>
     <use xlink:href="#DejaVuSans-Bold-45" x="1776.074219"/>
     <use xlink:href="#DejaVuSans-Bold-6e" x="1844.384766"/>
     <use xlink:href="#DejaVuSans-Bold-63" x="1915.576172"/>
     <use xlink:href="#DejaVuSans-Bold-6f" x="1974.853516"/>
     <use xlink:href="#DejaVuSans-Bold-64" x="2043.554688"/>
     <use xlink:href="#DejaVuSans-Bold-65" x="2115.136719"/>
     <use xlink:href="#DejaVuSans-Bold-73" x="2182.958984"/>
     <use xlink:href="#DejaVuSans-Bold-20" x="2242.480469"/>
     <use xlink:href="#DejaVuSans-Bold-50" x="2277.294922"/>
     <use xlink:href="#DejaVuSans-Bold-72" x="2350.585938"/>
     <use xlink:href="#DejaVuSans-Bold-6f" x="2399.902344"/>
     <use xlink:href="#DejaVuSans-Bold-62" x="2468.603516"/>
     <use xlink:href="#DejaVuSans-Bold-61" x="2540.185547"/>
     <use xlink:href="#DejaVuSans-Bold-62" x="2607.666016"/>
     <use xlink:href="#DejaVuSans-Bold-69" x="2679.248047"/>
     <use xlink:href="#DejaVuSans-Bold-6c" x="2713.525391"/>
     <use xlink:href="#DejaVuSans-Bold-69" x="2747.802734"/>
     <use xlink:href="#DejaVuSans-Bold-74" x="2782.080078"/>
     <use xlink:href="#DejaVuSans-Bold-79" x="2829.882812"/>
    </g>
   </g>
  </g>
 </g>
 <defs>
  <clipPath id="p5624936c4e">
   <rect x="53.338125" y="33.3575" width="757.85875" height="241.49"/>
  </clipPath>
 </defs>
</svg>
