<?xml version="1.0" encoding="utf-8" standalone="no"?>
<!DOCTYPE svg PUBLIC "-//W3C//DTD SVG 1.1//EN"
  "http://www.w3.org/Graphics/SVG/1.1/DTD/svg11.dtd">
<svg xmlns:xlink="http://www.w3.org/1999/xlink" width="360.439375pt" height="240.129812pt" viewBox="0 0 360.439375 240.129812" xmlns="http://www.w3.org/2000/svg" version="1.1">
 <metadata>
  <rdf:RDF xmlns:dc="http://purl.org/dc/elements/1.1/" xmlns:cc="http://creativecommons.org/ns#" xmlns:rdf="http://www.w3.org/1999/02/22-rdf-syntax-ns#">
   <cc:Work>
    <dc:type rdf:resource="http://purl.org/dc/dcmitype/StillImage"/>
    <dc:date>2026-04-12T00:52:10.840569</dc:date>
    <dc:format>image/svg+xml</dc:format>
    <dc:creator>
     <cc:Agent>
      <dc:title>Matplotlib v3.10.8, https://matplotlib.org/</dc:title>
     </cc:Agent>
    </dc:creator>
   </cc:Work>
  </rdf:RDF>
 </metadata>
 <defs>
  <style type="text/css">*{stroke-linejoin: round; stroke-linecap: butt}</style>
 </defs>
 <g id="figure_1">
  <g id="patch_1">
   <path d="M 0 240.129812 
L 360.439375 240.129812 
L 360.439375 0 
L 0 0 
z
" style="fill: #ffffff"/>
  </g>
  <g id="axes_1">
   <g id="patch_2">
    <path d="M 46.339375 200.637937 
L 353.239375 200.637937 
L 353.239375 23.229937 
L 46.339375 23.229937 
z
" style="fill: #ffffff"/>
   </g>
   <g id="FillBetweenPolyCollection_1">
    <defs>
     <path id="m2c6fd58032" d="M 60.289375 -47.555875 
L 60.289375 -208.835875 
L 60.848493 -207.227912 
L 61.407611 -205.635981 
L 61.96673 -204.059921 
L 62.525848 -202.499575 
L 63.084966 -200.954785 
L 63.644084 -199.425397 
L 64.203203 -197.911257 
L 64.762321 -196.412213 
L 65.321439 -194.928114 
L 65.880557 -193.458812 
L 66.439676 -192.004159 
L 66.998794 -190.564008 
L 67.557912 -189.138216 
L 68.11703 -187.726639 
L 68.676149 -186.329136 
L 69.235267 -184.945565 
L 69.794385 -183.575789 
L 70.353503 -182.21967 
L 70.912621 -180.877071 
L 71.47174 -179.547858 
L 72.030858 -178.231897 
L 72.589976 -176.929056 
L 73.149094 -175.639204 
L 73.708213 -174.362213 
L 74.267331 -173.097953 
L 74.826449 -171.846297 
L 75.385567 -170.607121 
L 75.944686 -169.380299 
L 76.503804 -168.165709 
L 77.062922 -166.963228 
L 77.62204 -165.772736 
L 78.181159 -164.594113 
L 78.740277 -163.427241 
L 79.299395 -162.272003 
L 79.858513 -161.128282 
L 80.417632 -159.995964 
L 80.97675 -158.874936 
L 81.535868 -157.765084 
L 82.094986 -156.666298 
L 82.654104 -155.578466 
L 83.213223 -154.50148 
L 83.772341 -153.435232 
L 84.331459 -152.379614 
L 84.890577 -151.33452 
L 85.449696 -150.299847 
L 86.008814 -149.275489 
L 86.567932 -148.261343 
L 87.12705 -147.257309 
L 87.686169 -146.263285 
L 88.245287 -145.279172 
L 88.804405 -144.30487 
L 89.363523 -143.340282 
L 89.922642 -142.38531 
L 90.48176 -141.43986 
L 91.040878 -140.503836 
L 91.599996 -139.577144 
L 92.159114 -138.659692 
L 92.718233 -137.751386 
L 93.277351 -136.852136 
L 93.836469 -135.961852 
L 94.395587 -135.080444 
L 94.954706 -134.207823 
L 95.513824 -133.343903 
L 96.072942 -132.488596 
L 96.63206 -131.641816 
L 97.191179 -130.803478 
L 97.750297 -129.973499 
L 98.309415 -129.151795 
L 98.868533 -128.338283 
L 99.427652 -127.532882 
L 99.98677 -126.735511 
L 100.545888 -125.946089 
L 101.105006 -125.164538 
L 101.664124 -124.390779 
L 102.223243 -123.624735 
L 102.782361 -122.866328 
L 103.341479 -122.115482 
L 103.900597 -121.372122 
L 104.459716 -120.636174 
L 105.018834 -119.907563 
L 105.577952 -119.186216 
L 106.13707 -118.472061 
L 106.696189 -117.765026 
L 107.255307 -117.06504 
L 107.814425 -116.372033 
L 108.373543 -115.685936 
L 108.932662 -115.006679 
L 109.49178 -114.334194 
L 110.050898 -113.668413 
L 110.610016 -113.009271 
L 111.169135 -112.3567 
L 111.728253 -111.710636 
L 112.287371 -111.071012 
L 112.846489 -110.437766 
L 113.405607 -109.810833 
L 113.964726 -109.190151 
L 114.523844 -108.575656 
L 115.082962 -107.967289 
L 115.64208 -107.364987 
L 116.201199 -106.768689 
L 116.760317 -106.178337 
L 117.319435 -105.593871 
L 117.878553 -105.015232 
L 118.437672 -104.442361 
L 118.99679 -103.875203 
L 119.555908 -103.313699 
L 120.115026 -102.757793 
L 120.674145 -102.207429 
L 121.233263 -101.662553 
L 121.792381 -101.123109 
L 122.351499 -100.589043 
L 122.910617 -100.060302 
L 123.469736 -99.536833 
L 124.028854 -99.018582 
L 124.587972 -98.505499 
L 125.14709 -97.997531 
L 125.706209 -97.494627 
L 126.265327 -96.996737 
L 126.824445 -96.503812 
L 127.383563 -96.0158 
L 127.942682 -95.532655 
L 128.5018 -95.054326 
L 129.060918 -94.580766 
L 129.620036 -94.111927 
L 130.179155 -93.647763 
L 130.738273 -93.188227 
L 131.297391 -92.733272 
L 131.856509 -92.282853 
L 132.415628 -91.836925 
L 132.974746 -91.395442 
L 133.533864 -90.958362 
L 134.092982 -90.525639 
L 134.6521 -90.09723 
L 135.211219 -89.673092 
L 135.770337 -89.253183 
L 136.329455 -88.837461 
L 136.888573 -88.425883 
L 137.447692 -88.018409 
L 138.00681 -87.614997 
L 138.565928 -87.215607 
L 139.125046 -86.8202 
L 139.684165 -86.428734 
L 140.243283 -86.041171 
L 140.802401 -85.657473 
L 141.361519 -85.277599 
L 141.920638 -84.901514 
L 142.479756 -84.529177 
L 143.038874 -84.160553 
L 143.597992 -83.795604 
L 144.15711 -83.434294 
L 144.716229 -83.076586 
L 145.275347 -82.722444 
L 145.834465 -82.371833 
L 146.393583 -82.024718 
L 146.952702 -81.681063 
L 147.51182 -81.340835 
L 148.070938 -81.003999 
L 148.630056 -80.670521 
L 149.189175 -80.340367 
L 149.748293 -80.013506 
L 150.307411 -79.689903 
L 150.866529 -79.369527 
L 151.425648 -79.052344 
L 151.984766 -78.738324 
L 152.543884 -78.427435 
L 153.103002 -78.119645 
L 153.66212 -77.814924 
L 154.221239 -77.513241 
L 154.780357 -77.214566 
L 155.339475 -76.918869 
L 155.898593 -76.62612 
L 156.457712 -76.336289 
L 157.01683 -76.049348 
L 157.575948 -75.765268 
L 158.135066 -75.48402 
L 158.694185 -75.205576 
L 159.253303 -74.929909 
L 159.812421 -74.656989 
L 160.371539 -74.386791 
L 160.930658 -74.119287 
L 161.489776 -73.854449 
L 162.048894 -73.592252 
L 162.608012 -73.33267 
L 163.167131 -73.075675 
L 163.726249 -72.821242 
L 164.285367 -72.569346 
L 164.844485 -72.319962 
L 165.403603 -72.073064 
L 165.962722 -71.828627 
L 166.52184 -71.586628 
L 167.080958 -71.347041 
L 167.640076 -71.109843 
L 168.199195 -70.87501 
L 168.758313 -70.642518 
L 169.317431 -70.412344 
L 169.876549 -70.184465 
L 170.435668 -69.958857 
L 170.994786 -69.735499 
L 171.553904 -69.514368 
L 172.113022 -69.295442 
L 172.672141 -69.078698 
L 173.231259 -68.864116 
L 173.790377 -68.651672 
L 174.349495 -68.441347 
L 174.908613 -68.233119 
L 175.467732 -68.026967 
L 176.02685 -67.82287 
L 176.585968 -67.620808 
L 177.145086 -67.42076 
L 177.704205 -67.222707 
L 178.263323 -67.026629 
L 178.822441 -66.832505 
L 179.381559 -66.640317 
L 179.940678 -66.450045 
L 180.499796 -66.26167 
L 181.058914 -66.075173 
L 181.618032 -65.890536 
L 182.177151 -65.707739 
L 182.736269 -65.526765 
L 183.295387 -65.347595 
L 183.854505 -65.170211 
L 184.413623 -64.994596 
L 184.972742 -64.820732 
L 185.53186 -64.648601 
L 186.090978 -64.478187 
L 186.650096 -64.309471 
L 187.209215 -64.142438 
L 187.768333 -63.977069 
L 188.327451 -63.81335 
L 188.886569 -63.651263 
L 189.445688 -63.490792 
L 190.004806 -63.331921 
L 190.563924 -63.174633 
L 191.123042 -63.018914 
L 191.682161 -62.864748 
L 192.241279 -62.712118 
L 192.800397 -62.56101 
L 193.359515 -62.411409 
L 193.918634 -62.263299 
L 194.477752 -62.116666 
L 195.03687 -61.971495 
L 195.595988 -61.827771 
L 196.155106 -61.68548 
L 196.714225 -61.544608 
L 197.273343 -61.40514 
L 197.832461 -61.267063 
L 198.391579 -61.130362 
L 198.950698 -60.995024 
L 199.509816 -60.861036 
L 200.068934 -60.728383 
L 200.628052 -60.597053 
L 201.187171 -60.467033 
L 201.746289 -60.338308 
L 202.305407 -60.210868 
L 202.864525 -60.084697 
L 203.423644 -59.959785 
L 203.982762 -59.836118 
L 204.54188 -59.713684 
L 205.100998 -59.59247 
L 205.660116 -59.472465 
L 206.219235 -59.353657 
L 206.778353 -59.236033 
L 207.337471 -59.119582 
L 207.896589 -59.004291 
L 208.455708 -58.89015 
L 209.014826 -58.777148 
L 209.573944 -58.665272 
L 210.133062 -58.554511 
L 210.692181 -58.444854 
L 211.251299 -58.336291 
L 211.810417 -58.22881 
L 212.369535 -58.122401 
L 212.928654 -58.017053 
L 213.487772 -57.912755 
L 214.04689 -57.809497 
L 214.606008 -57.707268 
L 215.165127 -57.606058 
L 215.724245 -57.505858 
L 216.283363 -57.406657 
L 216.842481 -57.308444 
L 217.401599 -57.211211 
L 217.960718 -57.114947 
L 218.519836 -57.019643 
L 219.078954 -56.925289 
L 219.638072 -56.831876 
L 220.197191 -56.739395 
L 220.756309 -56.647835 
L 221.315427 -56.557188 
L 221.874545 -56.467445 
L 222.433664 -56.378596 
L 222.992782 -56.290634 
L 223.5519 -56.203548 
L 224.111018 -56.117331 
L 224.670137 -56.031973 
L 225.229255 -55.947466 
L 225.788373 -55.863802 
L 226.347491 -55.780972 
L 226.906609 -55.698968 
L 227.465728 -55.617781 
L 228.024846 -55.537404 
L 228.583964 -55.457828 
L 229.143082 -55.379045 
L 229.702201 -55.301048 
L 230.261319 -55.223829 
L 230.820437 -55.147379 
L 231.379555 -55.071692 
L 231.938674 -54.996759 
L 232.497792 -54.922573 
L 233.05691 -54.849127 
L 233.616028 -54.776414 
L 234.175147 -54.704425 
L 234.734265 -54.633154 
L 235.293383 -54.562593 
L 235.852501 -54.492736 
L 236.411619 -54.423576 
L 236.970738 -54.355105 
L 237.529856 -54.287316 
L 238.088974 -54.220204 
L 238.648092 -54.15376 
L 239.207211 -54.087979 
L 239.766329 -54.022854 
L 240.325447 -53.958378 
L 240.884565 -53.894545 
L 241.443684 -53.831349 
L 242.002802 -53.768782 
L 242.56192 -53.70684 
L 243.121038 -53.645514 
L 243.680157 -53.584801 
L 244.239275 -53.524692 
L 244.798393 -53.465183 
L 245.357511 -53.406267 
L 245.91663 -53.347939 
L 246.475748 -53.290192 
L 247.034866 -53.233021 
L 247.593984 -53.17642 
L 248.153102 -53.120383 
L 248.712221 -53.064905 
L 249.271339 -53.009979 
L 249.830457 -52.955602 
L 250.389575 -52.901767 
L 250.948694 -52.848468 
L 251.507812 -52.795701 
L 252.06693 -52.74346 
L 252.626048 -52.69174 
L 253.185167 -52.640535 
L 253.744285 -52.589841 
L 254.303403 -52.539652 
L 254.862521 -52.489964 
L 255.42164 -52.440771 
L 255.980758 -52.392069 
L 256.539876 -52.343852 
L 257.098994 -52.296116 
L 257.658112 -52.248855 
L 258.217231 -52.202066 
L 258.776349 -52.155744 
L 259.335467 -52.109883 
L 259.894585 -52.064479 
L 260.453704 -52.019529 
L 261.012822 -51.975026 
L 261.57194 -51.930967 
L 262.131058 -51.887347 
L 262.690177 -51.844163 
L 263.249295 -51.801408 
L 263.808413 -51.75908 
L 264.367531 -51.717174 
L 264.92665 -51.675686 
L 265.485768 -51.634612 
L 266.044886 -51.593947 
L 266.604004 -51.553687 
L 267.163122 -51.513829 
L 267.722241 -51.474368 
L 268.281359 -51.4353 
L 268.840477 -51.396623 
L 269.399595 -51.35833 
L 269.958714 -51.32042 
L 270.517832 -51.282887 
L 271.07695 -51.245729 
L 271.636068 -51.208941 
L 272.195187 -51.17252 
L 272.754305 -51.136462 
L 273.313423 -51.100764 
L 273.872541 -51.065421 
L 274.43166 -51.030431 
L 274.990778 -50.995789 
L 275.549896 -50.961493 
L 276.109014 -50.927539 
L 276.668133 -50.893924 
L 277.227251 -50.860644 
L 277.786369 -50.827695 
L 278.345487 -50.795075 
L 278.904605 -50.76278 
L 279.463724 -50.730807 
L 280.022842 -50.699153 
L 280.58196 -50.667815 
L 281.141078 -50.636789 
L 281.700197 -50.606072 
L 282.259315 -50.575661 
L 282.818433 -50.545554 
L 283.377551 -50.515747 
L 283.93667 -50.486237 
L 284.495788 -50.457021 
L 285.054906 -50.428097 
L 285.614024 -50.399461 
L 286.173143 -50.37111 
L 286.732261 -50.343042 
L 287.291379 -50.315254 
L 287.850497 -50.287743 
L 288.409615 -50.260506 
L 288.968734 -50.233541 
L 289.527852 -50.206845 
L 290.08697 -50.180415 
L 290.646088 -50.154248 
L 291.205207 -50.128342 
L 291.764325 -50.102695 
L 292.323443 -50.077303 
L 292.882561 -50.052164 
L 293.44168 -50.027276 
L 294.000798 -50.002636 
L 294.559916 -49.978242 
L 295.119034 -49.954091 
L 295.678153 -49.930181 
L 296.237271 -49.906509 
L 296.796389 -49.883073 
L 297.355507 -49.859871 
L 297.914626 -49.8369 
L 298.473744 -49.814158 
L 299.032862 -49.791643 
L 299.59198 -49.769353 
L 300.151098 -49.747284 
L 300.710217 -49.725436 
L 301.269335 -49.703805 
L 301.828453 -49.68239 
L 302.387571 -49.661189 
L 302.94669 -49.640199 
L 303.505808 -49.619418 
L 304.064926 -49.598845 
L 304.624044 -49.578476 
L 305.183163 -49.558311 
L 305.742281 -49.538347 
L 306.301399 -49.518581 
L 306.860517 -49.499013 
L 307.419636 -49.47964 
L 307.978754 -49.46046 
L 308.537872 -49.441471 
L 309.09699 -49.422672 
L 309.656108 -49.40406 
L 310.215227 -49.385634 
L 310.774345 -49.367391 
L 311.333463 -49.34933 
L 311.892581 -49.331449 
L 312.4517 -49.313747 
L 313.010818 -49.296221 
L 313.569936 -49.27887 
L 314.129054 -49.261691 
L 314.688173 -49.244684 
L 315.247291 -49.227847 
L 315.806409 -49.211177 
L 316.365527 -49.194674 
L 316.924646 -49.178335 
L 317.483764 -49.162159 
L 318.042882 -49.146145 
L 318.602 -49.13029 
L 319.161118 -49.114593 
L 319.720237 -49.099052 
L 320.279355 -49.083667 
L 320.838473 -49.068435 
L 321.397591 -49.053354 
L 321.95671 -49.038424 
L 322.515828 -49.023643 
L 323.074946 -49.00901 
L 323.634064 -48.994522 
L 324.193183 -48.980179 
L 324.752301 -48.965978 
L 325.311419 -48.95192 
L 325.870537 -48.938001 
L 326.429656 -48.924221 
L 326.988774 -48.910579 
L 327.547892 -48.897072 
L 328.10701 -48.883701 
L 328.666129 -48.870462 
L 329.225247 -48.857356 
L 329.784365 -48.84438 
L 330.343483 -48.831534 
L 330.902601 -48.818815 
L 331.46172 -48.806224 
L 332.020838 -48.793758 
L 332.579956 -48.781416 
L 333.139074 -48.769197 
L 333.698193 -48.757101 
L 334.257311 -48.745124 
L 334.816429 -48.733268 
L 335.375547 -48.721529 
L 335.934666 -48.709907 
L 336.493784 -48.698402 
L 337.052902 -48.687011 
L 337.61202 -48.675733 
L 338.171139 -48.664568 
L 338.730257 -48.653515 
L 339.289375 -48.642571 
L 339.289375 -47.555875 
L 339.289375 -47.555875 
L 338.730257 -47.555875 
L 338.171139 -47.555875 
L 337.61202 -47.555875 
L 337.052902 -47.555875 
L 336.493784 -47.555875 
L 335.934666 -47.555875 
L 335.375547 -47.555875 
L 334.816429 -47.555875 
L 334.257311 -47.555875 
L 333.698193 -47.555875 
L 333.139074 -47.555875 
L 332.579956 -47.555875 
L 332.020838 -47.555875 
L 331.46172 -47.555875 
L 330.902601 -47.555875 
L 330.343483 -47.555875 
L 329.784365 -47.555875 
L 329.225247 -47.555875 
L 328.666129 -47.555875 
L 328.10701 -47.555875 
L 327.547892 -47.555875 
L 326.988774 -47.555875 
L 326.429656 -47.555875 
L 325.870537 -47.555875 
L 325.311419 -47.555875 
L 324.752301 -47.555875 
L 324.193183 -47.555875 
L 323.634064 -47.555875 
L 323.074946 -47.555875 
L 322.515828 -47.555875 
L 321.95671 -47.555875 
L 321.397591 -47.555875 
L 320.838473 -47.555875 
L 320.279355 -47.555875 
L 319.720237 -47.555875 
L 319.161118 -47.555875 
L 318.602 -47.555875 
L 318.042882 -47.555875 
L 317.483764 -47.555875 
L 316.924646 -47.555875 
L 316.365527 -47.555875 
L 315.806409 -47.555875 
L 315.247291 -47.555875 
L 314.688173 -47.555875 
L 314.129054 -47.555875 
L 313.569936 -47.555875 
L 313.010818 -47.555875 
L 312.4517 -47.555875 
L 311.892581 -47.555875 
L 311.333463 -47.555875 
L 310.774345 -47.555875 
L 310.215227 -47.555875 
L 309.656108 -47.555875 
L 309.09699 -47.555875 
L 308.537872 -47.555875 
L 307.978754 -47.555875 
L 307.419636 -47.555875 
L 306.860517 -47.555875 
L 306.301399 -47.555875 
L 305.742281 -47.555875 
L 305.183163 -47.555875 
L 304.624044 -47.555875 
L 304.064926 -47.555875 
L 303.505808 -47.555875 
L 302.94669 -47.555875 
L 302.387571 -47.555875 
L 301.828453 -47.555875 
L 301.269335 -47.555875 
L 300.710217 -47.555875 
L 300.151098 -47.555875 
L 299.59198 -47.555875 
L 299.032862 -47.555875 
L 298.473744 -47.555875 
L 297.914626 -47.555875 
L 297.355507 -47.555875 
L 296.796389 -47.555875 
L 296.237271 -47.555875 
L 295.678153 -47.555875 
L 295.119034 -47.555875 
L 294.559916 -47.555875 
L 294.000798 -47.555875 
L 293.44168 -47.555875 
L 292.882561 -47.555875 
L 292.323443 -47.555875 
L 291.764325 -47.555875 
L 291.205207 -47.555875 
L 290.646088 -47.555875 
L 290.08697 -47.555875 
L 289.527852 -47.555875 
L 288.968734 -47.555875 
L 288.409615 -47.555875 
L 287.850497 -47.555875 
L 287.291379 -47.555875 
L 286.732261 -47.555875 
L 286.173143 -47.555875 
L 285.614024 -47.555875 
L 285.054906 -47.555875 
L 284.495788 -47.555875 
L 283.93667 -47.555875 
L 283.377551 -47.555875 
L 282.818433 -47.555875 
L 282.259315 -47.555875 
L 281.700197 -47.555875 
L 281.141078 -47.555875 
L 280.58196 -47.555875 
L 280.022842 -47.555875 
L 279.463724 -47.555875 
L 278.904605 -47.555875 
L 278.345487 -47.555875 
L 277.786369 -47.555875 
L 277.227251 -47.555875 
L 276.668133 -47.555875 
L 276.109014 -47.555875 
L 275.549896 -47.555875 
L 274.990778 -47.555875 
L 274.43166 -47.555875 
L 273.872541 -47.555875 
L 273.313423 -47.555875 
L 272.754305 -47.555875 
L 272.195187 -47.555875 
L 271.636068 -47.555875 
L 271.07695 -47.555875 
L 270.517832 -47.555875 
L 269.958714 -47.555875 
L 269.399595 -47.555875 
L 268.840477 -47.555875 
L 268.281359 -47.555875 
L 267.722241 -47.555875 
L 267.163122 -47.555875 
L 266.604004 -47.555875 
L 266.044886 -47.555875 
L 265.485768 -47.555875 
L 264.92665 -47.555875 
L 264.367531 -47.555875 
L 263.808413 -47.555875 
L 263.249295 -47.555875 
L 262.690177 -47.555875 
L 262.131058 -47.555875 
L 261.57194 -47.555875 
L 261.012822 -47.555875 
L 260.453704 -47.555875 
L 259.894585 -47.555875 
L 259.335467 -47.555875 
L 258.776349 -47.555875 
L 258.217231 -47.555875 
L 257.658112 -47.555875 
L 257.098994 -47.555875 
L 256.539876 -47.555875 
L 255.980758 -47.555875 
L 255.42164 -47.555875 
L 254.862521 -47.555875 
L 254.303403 -47.555875 
L 253.744285 -47.555875 
L 253.185167 -47.555875 
L 252.626048 -47.555875 
L 252.06693 -47.555875 
L 251.507812 -47.555875 
L 250.948694 -47.555875 
L 250.389575 -47.555875 
L 249.830457 -47.555875 
L 249.271339 -47.555875 
L 248.712221 -47.555875 
L 248.153102 -47.555875 
L 247.593984 -47.555875 
L 247.034866 -47.555875 
L 246.475748 -47.555875 
L 245.91663 -47.555875 
L 245.357511 -47.555875 
L 244.798393 -47.555875 
L 244.239275 -47.555875 
L 243.680157 -47.555875 
L 243.121038 -47.555875 
L 242.56192 -47.555875 
L 242.002802 -47.555875 
L 241.443684 -47.555875 
L 240.884565 -47.555875 
L 240.325447 -47.555875 
L 239.766329 -47.555875 
L 239.207211 -47.555875 
L 238.648092 -47.555875 
L 238.088974 -47.555875 
L 237.529856 -47.555875 
L 236.970738 -47.555875 
L 236.411619 -47.555875 
L 235.852501 -47.555875 
L 235.293383 -47.555875 
L 234.734265 -47.555875 
L 234.175147 -47.555875 
L 233.616028 -47.555875 
L 233.05691 -47.555875 
L 232.497792 -47.555875 
L 231.938674 -47.555875 
L 231.379555 -47.555875 
L 230.820437 -47.555875 
L 230.261319 -47.555875 
L 229.702201 -47.555875 
L 229.143082 -47.555875 
L 228.583964 -47.555875 
L 228.024846 -47.555875 
L 227.465728 -47.555875 
L 226.906609 -47.555875 
L 226.347491 -47.555875 
L 225.788373 -47.555875 
L 225.229255 -47.555875 
L 224.670137 -47.555875 
L 224.111018 -47.555875 
L 223.5519 -47.555875 
L 222.992782 -47.555875 
L 222.433664 -47.555875 
L 221.874545 -47.555875 
L 221.315427 -47.555875 
L 220.756309 -47.555875 
L 220.197191 -47.555875 
L 219.638072 -47.555875 
L 219.078954 -47.555875 
L 218.519836 -47.555875 
L 217.960718 -47.555875 
L 217.401599 -47.555875 
L 216.842481 -47.555875 
L 216.283363 -47.555875 
L 215.724245 -47.555875 
L 215.165127 -47.555875 
L 214.606008 -47.555875 
L 214.04689 -47.555875 
L 213.487772 -47.555875 
L 212.928654 -47.555875 
L 212.369535 -47.555875 
L 211.810417 -47.555875 
L 211.251299 -47.555875 
L 210.692181 -47.555875 
L 210.133062 -47.555875 
L 209.573944 -47.555875 
L 209.014826 -47.555875 
L 208.455708 -47.555875 
L 207.896589 -47.555875 
L 207.337471 -47.555875 
L 206.778353 -47.555875 
L 206.219235 -47.555875 
L 205.660116 -47.555875 
L 205.100998 -47.555875 
L 204.54188 -47.555875 
L 203.982762 -47.555875 
L 203.423644 -47.555875 
L 202.864525 -47.555875 
L 202.305407 -47.555875 
L 201.746289 -47.555875 
L 201.187171 -47.555875 
L 200.628052 -47.555875 
L 200.068934 -47.555875 
L 199.509816 -47.555875 
L 198.950698 -47.555875 
L 198.391579 -47.555875 
L 197.832461 -47.555875 
L 197.273343 -47.555875 
L 196.714225 -47.555875 
L 196.155106 -47.555875 
L 195.595988 -47.555875 
L 195.03687 -47.555875 
L 194.477752 -47.555875 
L 193.918634 -47.555875 
L 193.359515 -47.555875 
L 192.800397 -47.555875 
L 192.241279 -47.555875 
L 191.682161 -47.555875 
L 191.123042 -47.555875 
L 190.563924 -47.555875 
L 190.004806 -47.555875 
L 189.445688 -47.555875 
L 188.886569 -47.555875 
L 188.327451 -47.555875 
L 187.768333 -47.555875 
L 187.209215 -47.555875 
L 186.650096 -47.555875 
L 186.090978 -47.555875 
L 185.53186 -47.555875 
L 184.972742 -47.555875 
L 184.413623 -47.555875 
L 183.854505 -47.555875 
L 183.295387 -47.555875 
L 182.736269 -47.555875 
L 182.177151 -47.555875 
L 181.618032 -47.555875 
L 181.058914 -47.555875 
L 180.499796 -47.555875 
L 179.940678 -47.555875 
L 179.381559 -47.555875 
L 178.822441 -47.555875 
L 178.263323 -47.555875 
L 177.704205 -47.555875 
L 177.145086 -47.555875 
L 176.585968 -47.555875 
L 176.02685 -47.555875 
L 175.467732 -47.555875 
L 174.908613 -47.555875 
L 174.349495 -47.555875 
L 173.790377 -47.555875 
L 173.231259 -47.555875 
L 172.672141 -47.555875 
L 172.113022 -47.555875 
L 171.553904 -47.555875 
L 170.994786 -47.555875 
L 170.435668 -47.555875 
L 169.876549 -47.555875 
L 169.317431 -47.555875 
L 168.758313 -47.555875 
L 168.199195 -47.555875 
L 167.640076 -47.555875 
L 167.080958 -47.555875 
L 166.52184 -47.555875 
L 165.962722 -47.555875 
L 165.403603 -47.555875 
L 164.844485 -47.555875 
L 164.285367 -47.555875 
L 163.726249 -47.555875 
L 163.167131 -47.555875 
L 162.608012 -47.555875 
L 162.048894 -47.555875 
L 161.489776 -47.555875 
L 160.930658 -47.555875 
L 160.371539 -47.555875 
L 159.812421 -47.555875 
L 159.253303 -47.555875 
L 158.694185 -47.555875 
L 158.135066 -47.555875 
L 157.575948 -47.555875 
L 157.01683 -47.555875 
L 156.457712 -47.555875 
L 155.898593 -47.555875 
L 155.339475 -47.555875 
L 154.780357 -47.555875 
L 154.221239 -47.555875 
L 153.66212 -47.555875 
L 153.103002 -47.555875 
L 152.543884 -47.555875 
L 151.984766 -47.555875 
L 151.425648 -47.555875 
L 150.866529 -47.555875 
L 150.307411 -47.555875 
L 149.748293 -47.555875 
L 149.189175 -47.555875 
L 148.630056 -47.555875 
L 148.070938 -47.555875 
L 147.51182 -47.555875 
L 146.952702 -47.555875 
L 146.393583 -47.555875 
L 145.834465 -47.555875 
L 145.275347 -47.555875 
L 144.716229 -47.555875 
L 144.15711 -47.555875 
L 143.597992 -47.555875 
L 143.038874 -47.555875 
L 142.479756 -47.555875 
L 141.920638 -47.555875 
L 141.361519 -47.555875 
L 140.802401 -47.555875 
L 140.243283 -47.555875 
L 139.684165 -47.555875 
L 139.125046 -47.555875 
L 138.565928 -47.555875 
L 138.00681 -47.555875 
L 137.447692 -47.555875 
L 136.888573 -47.555875 
L 136.329455 -47.555875 
L 135.770337 -47.555875 
L 135.211219 -47.555875 
L 134.6521 -47.555875 
L 134.092982 -47.555875 
L 133.533864 -47.555875 
L 132.974746 -47.555875 
L 132.415628 -47.555875 
L 131.856509 -47.555875 
L 131.297391 -47.555875 
L 130.738273 -47.555875 
L 130.179155 -47.555875 
L 129.620036 -47.555875 
L 129.060918 -47.555875 
L 128.5018 -47.555875 
L 127.942682 -47.555875 
L 127.383563 -47.555875 
L 126.824445 -47.555875 
L 126.265327 -47.555875 
L 125.706209 -47.555875 
L 125.14709 -47.555875 
L 124.587972 -47.555875 
L 124.028854 -47.555875 
L 123.469736 -47.555875 
L 122.910617 -47.555875 
L 122.351499 -47.555875 
L 121.792381 -47.555875 
L 121.233263 -47.555875 
L 120.674145 -47.555875 
L 120.115026 -47.555875 
L 119.555908 -47.555875 
L 118.99679 -47.555875 
L 118.437672 -47.555875 
L 117.878553 -47.555875 
L 117.319435 -47.555875 
L 116.760317 -47.555875 
L 116.201199 -47.555875 
L 115.64208 -47.555875 
L 115.082962 -47.555875 
L 114.523844 -47.555875 
L 113.964726 -47.555875 
L 113.405607 -47.555875 
L 112.846489 -47.555875 
L 112.287371 -47.555875 
L 111.728253 -47.555875 
L 111.169135 -47.555875 
L 110.610016 -47.555875 
L 110.050898 -47.555875 
L 109.49178 -47.555875 
L 108.932662 -47.555875 
L 108.373543 -47.555875 
L 107.814425 -47.555875 
L 107.255307 -47.555875 
L 106.696189 -47.555875 
L 106.13707 -47.555875 
L 105.577952 -47.555875 
L 105.018834 -47.555875 
L 104.459716 -47.555875 
L 103.900597 -47.555875 
L 103.341479 -47.555875 
L 102.782361 -47.555875 
L 102.223243 -47.555875 
L 101.664124 -47.555875 
L 101.105006 -47.555875 
L 100.545888 -47.555875 
L 99.98677 -47.555875 
L 99.427652 -47.555875 
L 98.868533 -47.555875 
L 98.309415 -47.555875 
L 97.750297 -47.555875 
L 97.191179 -47.555875 
L 96.63206 -47.555875 
L 96.072942 -47.555875 
L 95.513824 -47.555875 
L 94.954706 -47.555875 
L 94.395587 -47.555875 
L 93.836469 -47.555875 
L 93.277351 -47.555875 
L 92.718233 -47.555875 
L 92.159114 -47.555875 
L 91.599996 -47.555875 
L 91.040878 -47.555875 
L 90.48176 -47.555875 
L 89.922642 -47.555875 
L 89.363523 -47.555875 
L 88.804405 -47.555875 
L 88.245287 -47.555875 
L 87.686169 -47.555875 
L 87.12705 -47.555875 
L 86.567932 -47.555875 
L 86.008814 -47.555875 
L 85.449696 -47.555875 
L 84.890577 -47.555875 
L 84.331459 -47.555875 
L 83.772341 -47.555875 
L 83.213223 -47.555875 
L 82.654104 -47.555875 
L 82.094986 -47.555875 
L 81.535868 -47.555875 
L 80.97675 -47.555875 
L 80.417632 -47.555875 
L 79.858513 -47.555875 
L 79.299395 -47.555875 
L 78.740277 -47.555875 
L 78.181159 -47.555875 
L 77.62204 -47.555875 
L 77.062922 -47.555875 
L 76.503804 -47.555875 
L 75.944686 -47.555875 
L 75.385567 -47.555875 
L 74.826449 -47.555875 
L 74.267331 -47.555875 
L 73.708213 -47.555875 
L 73.149094 -47.555875 
L 72.589976 -47.555875 
L 72.030858 -47.555875 
L 71.47174 -47.555875 
L 70.912621 -47.555875 
L 70.353503 -47.555875 
L 69.794385 -47.555875 
L 69.235267 -47.555875 
L 68.676149 -47.555875 
L 68.11703 -47.555875 
L 67.557912 -47.555875 
L 66.998794 -47.555875 
L 66.439676 -47.555875 
L 65.880557 -47.555875 
L 65.321439 -47.555875 
L 64.762321 -47.555875 
L 64.203203 -47.555875 
L 63.644084 -47.555875 
L 63.084966 -47.555875 
L 62.525848 -47.555875 
L 61.96673 -47.555875 
L 61.407611 -47.555875 
L 60.848493 -47.555875 
L 60.289375 -47.555875 
z
" style="stroke: #4c72b0; stroke-opacity: 0.3"/>
    </defs>
    <g clip-path="url(#pdf88a4a2d5)">
     <use xlink:href="#m2c6fd58032" x="0" y="240.129812" style="fill: #4c72b0; fill-opacity: 0.3; stroke: #4c72b0; stroke-opacity: 0.3"/>
    </g>
   </g>
   <g id="matplotlib.axis_1">
    <g id="xtick_1">
     <g id="line2d_1">
      <defs>
       <path id="m05c58763a6" d="M 0 0 
L 0 3.5 
" style="stroke: #000000; stroke-width: 0.8"/>
      </defs>
      <g>
       <use xlink:href="#m05c58763a6" x="60.289375" y="200.637937" style="stroke: #000000; stroke-width: 0.8"/>
      </g>
     </g>
     <g id="text_1">
      <!-- 0 -->
      <g transform="translate(56.79 215.996219) scale(0.11 -0.11)">
       <defs>
        <path id="DejaVuSans-30" d="M 2034 4250 
Q 1547 4250 1301 3770 
Q 1056 3291 1056 2328 
Q 1056 1369 1301 889 
Q 1547 409 2034 409 
Q 2525 409 2770 889 
Q 3016 1369 3016 2328 
Q 3016 3291 2770 3770 
Q 2525 4250 2034 4250 
z
M 2034 4750 
Q 2819 4750 3233 4129 
Q 3647 3509 3647 2328 
Q 3647 1150 3233 529 
Q 2819 -91 2034 -91 
Q 1250 -91 836 529 
Q 422 1150 422 2328 
Q 422 3509 836 4129 
Q 1250 4750 2034 4750 
z
" transform="scale(0.015625)"/>
       </defs>
       <use xlink:href="#DejaVuSans-30"/>
      </g>
     </g>
    </g>
    <g id="xtick_2">
     <g id="line2d_2">
      <g>
       <use xlink:href="#m05c58763a6" x="116.089375" y="200.637937" style="stroke: #000000; stroke-width: 0.8"/>
      </g>
     </g>
     <g id="text_2">
      <!-- 1 -->
      <g transform="translate(112.59 215.996219) scale(0.11 -0.11)">
       <defs>
        <path id="DejaVuSans-31" d="M 794 531 
L 1825 531 
L 1825 4091 
L 703 3866 
L 703 4441 
L 1819 4666 
L 2450 4666 
L 2450 531 
L 3481 531 
L 3481 0 
L 794 0 
L 794 531 
z
" transform="scale(0.015625)"/>
       </defs>
       <use xlink:href="#DejaVuSans-31"/>
      </g>
     </g>
    </g>
    <g id="xtick_3">
     <g id="line2d_3">
      <g>
       <use xlink:href="#m05c58763a6" x="171.889375" y="200.637937" style="stroke: #000000; stroke-width: 0.8"/>
      </g>
     </g>
     <g id="text_3">
      <!-- 2 -->
      <g transform="translate(168.39 215.996219) scale(0.11 -0.11)">
       <defs>
        <path id="DejaVuSans-32" d="M 1228 531 
L 3431 531 
L 3431 0 
L 469 0 
L 469 531 
Q 828 903 1448 1529 
Q 2069 2156 2228 2338 
Q 2531 2678 2651 2914 
Q 2772 3150 2772 3378 
Q 2772 3750 2511 3984 
Q 2250 4219 1831 4219 
Q 1534 4219 1204 4116 
Q 875 4013 500 3803 
L 500 4441 
Q 881 4594 1212 4672 
Q 1544 4750 1819 4750 
Q 2544 4750 2975 4387 
Q 3406 4025 3406 3419 
Q 3406 3131 3298 2873 
Q 3191 2616 2906 2266 
Q 2828 2175 2409 1742 
Q 1991 1309 1228 531 
z
" transform="scale(0.015625)"/>
       </defs>
       <use xlink:href="#DejaVuSans-32"/>
      </g>
     </g>
    </g>
    <g id="xtick_4">
     <g id="line2d_4">
      <g>
       <use xlink:href="#m05c58763a6" x="227.689375" y="200.637937" style="stroke: #000000; stroke-width: 0.8"/>
      </g>
     </g>
     <g id="text_4">
      <!-- 3 -->
      <g transform="translate(224.19 215.996219) scale(0.11 -0.11)">
       <defs>
        <path id="DejaVuSans-33" d="M 2597 2516 
Q 3050 2419 3304 2112 
Q 3559 1806 3559 1356 
Q 3559 666 3084 287 
Q 2609 -91 1734 -91 
Q 1441 -91 1130 -33 
Q 819 25 488 141 
L 488 750 
Q 750 597 1062 519 
Q 1375 441 1716 441 
Q 2309 441 2620 675 
Q 2931 909 2931 1356 
Q 2931 1769 2642 2001 
Q 2353 2234 1838 2234 
L 1294 2234 
L 1294 2753 
L 1863 2753 
Q 2328 2753 2575 2939 
Q 2822 3125 2822 3475 
Q 2822 3834 2567 4026 
Q 2313 4219 1838 4219 
Q 1578 4219 1281 4162 
Q 984 4106 628 3988 
L 628 4550 
Q 988 4650 1302 4700 
Q 1616 4750 1894 4750 
Q 2613 4750 3031 4423 
Q 3450 4097 3450 3541 
Q 3450 3153 3228 2886 
Q 3006 2619 2597 2516 
z
" transform="scale(0.015625)"/>
       </defs>
       <use xlink:href="#DejaVuSans-33"/>
      </g>
     </g>
    </g>
    <g id="xtick_5">
     <g id="line2d_5">
      <g>
       <use xlink:href="#m05c58763a6" x="283.489375" y="200.637937" style="stroke: #000000; stroke-width: 0.8"/>
      </g>
     </g>
     <g id="text_5">
      <!-- 4 -->
      <g transform="translate(279.99 215.996219) scale(0.11 -0.11)">
       <defs>
        <path id="DejaVuSans-34" d="M 2419 4116 
L 825 1625 
L 2419 1625 
L 2419 4116 
z
M 2253 4666 
L 3047 4666 
L 3047 1625 
L 3713 1625 
L 3713 1100 
L 3047 1100 
L 3047 0 
L 2419 0 
L 2419 1100 
L 313 1100 
L 313 1709 
L 2253 4666 
z
" transform="scale(0.015625)"/>
       </defs>
       <use xlink:href="#DejaVuSans-34"/>
      </g>
     </g>
    </g>
    <g id="xtick_6">
     <g id="line2d_6">
      <g>
       <use xlink:href="#m05c58763a6" x="339.289375" y="200.637937" style="stroke: #000000; stroke-width: 0.8"/>
      </g>
     </g>
     <g id="text_6">
      <!-- 5 -->
      <g transform="translate(335.79 215.996219) scale(0.11 -0.11)">
       <defs>
        <path id="DejaVuSans-35" d="M 691 4666 
L 3169 4666 
L 3169 4134 
L 1269 4134 
L 1269 2991 
Q 1406 3038 1543 3061 
Q 1681 3084 1819 3084 
Q 2600 3084 3056 2656 
Q 3513 2228 3513 1497 
Q 3513 744 3044 326 
Q 2575 -91 1722 -91 
Q 1428 -91 1123 -41 
Q 819 9 494 109 
L 494 744 
Q 775 591 1075 516 
Q 1375 441 1709 441 
Q 2250 441 2565 725 
Q 2881 1009 2881 1497 
Q 2881 1984 2565 2268 
Q 2250 2553 1709 2553 
Q 1456 2553 1204 2497 
Q 953 2441 691 2322 
L 691 4666 
z
" transform="scale(0.015625)"/>
       </defs>
       <use xlink:href="#DejaVuSans-35"/>
      </g>
     </g>
    </g>
    <g id="text_7">
     <!-- x (waiting time) -->
     <g transform="translate(156.262891 230.642156) scale(0.11 -0.11)">
      <defs>
       <path id="DejaVuSans-78" d="M 3513 3500 
L 2247 1797 
L 3578 0 
L 2900 0 
L 1881 1375 
L 863 0 
L 184 0 
L 1544 1831 
L 300 3500 
L 978 3500 
L 1906 2253 
L 2834 3500 
L 3513 3500 
z
" transform="scale(0.015625)"/>
       <path id="DejaVuSans-20" transform="scale(0.015625)"/>
       <path id="DejaVuSans-28" d="M 1984 4856 
Q 1566 4138 1362 3434 
Q 1159 2731 1159 2009 
Q 1159 1288 1364 580 
Q 1569 -128 1984 -844 
L 1484 -844 
Q 1016 -109 783 600 
Q 550 1309 550 2009 
Q 550 2706 781 3412 
Q 1013 4119 1484 4856 
L 1984 4856 
z
" transform="scale(0.015625)"/>
       <path id="DejaVuSans-77" d="M 269 3500 
L 844 3500 
L 1563 769 
L 2278 3500 
L 2956 3500 
L 3675 769 
L 4391 3500 
L 4966 3500 
L 4050 0 
L 3372 0 
L 2619 2869 
L 1863 0 
L 1184 0 
L 269 3500 
z
" transform="scale(0.015625)"/>
       <path id="DejaVuSans-61" d="M 2194 1759 
Q 1497 1759 1228 1600 
Q 959 1441 959 1056 
Q 959 750 1161 570 
Q 1363 391 1709 391 
Q 2188 391 2477 730 
Q 2766 1069 2766 1631 
L 2766 1759 
L 2194 1759 
z
M 3341 1997 
L 3341 0 
L 2766 0 
L 2766 531 
Q 2569 213 2275 61 
Q 1981 -91 1556 -91 
Q 1019 -91 701 211 
Q 384 513 384 1019 
Q 384 1609 779 1909 
Q 1175 2209 1959 2209 
L 2766 2209 
L 2766 2266 
Q 2766 2663 2505 2880 
Q 2244 3097 1772 3097 
Q 1472 3097 1187 3025 
Q 903 2953 641 2809 
L 641 3341 
Q 956 3463 1253 3523 
Q 1550 3584 1831 3584 
Q 2591 3584 2966 3190 
Q 3341 2797 3341 1997 
z
" transform="scale(0.015625)"/>
       <path id="DejaVuSans-69" d="M 603 3500 
L 1178 3500 
L 1178 0 
L 603 0 
L 603 3500 
z
M 603 4863 
L 1178 4863 
L 1178 4134 
L 603 4134 
L 603 4863 
z
" transform="scale(0.015625)"/>
       <path id="DejaVuSans-74" d="M 1172 4494 
L 1172 3500 
L 2356 3500 
L 2356 3053 
L 1172 3053 
L 1172 1153 
Q 1172 725 1289 603 
Q 1406 481 1766 481 
L 2356 481 
L 2356 0 
L 1766 0 
Q 1100 0 847 248 
Q 594 497 594 1153 
L 594 3053 
L 172 3053 
L 172 3500 
L 594 3500 
L 594 4494 
L 1172 4494 
z
" transform="scale(0.015625)"/>
       <path id="DejaVuSans-6e" d="M 3513 2113 
L 3513 0 
L 2938 0 
L 2938 2094 
Q 2938 2591 2744 2837 
Q 2550 3084 2163 3084 
Q 1697 3084 1428 2787 
Q 1159 2491 1159 1978 
L 1159 0 
L 581 0 
L 581 3500 
L 1159 3500 
L 1159 2956 
Q 1366 3272 1645 3428 
Q 1925 3584 2291 3584 
Q 2894 3584 3203 3211 
Q 3513 2838 3513 2113 
z
" transform="scale(0.015625)"/>
       <path id="DejaVuSans-67" d="M 2906 1791 
Q 2906 2416 2648 2759 
Q 2391 3103 1925 3103 
Q 1463 3103 1205 2759 
Q 947 2416 947 1791 
Q 947 1169 1205 825 
Q 1463 481 1925 481 
Q 2391 481 2648 825 
Q 2906 1169 2906 1791 
z
M 3481 434 
Q 3481 -459 3084 -895 
Q 2688 -1331 1869 -1331 
Q 1566 -1331 1297 -1286 
Q 1028 -1241 775 -1147 
L 775 -588 
Q 1028 -725 1275 -790 
Q 1522 -856 1778 -856 
Q 2344 -856 2625 -561 
Q 2906 -266 2906 331 
L 2906 616 
Q 2728 306 2450 153 
Q 2172 0 1784 0 
Q 1141 0 747 490 
Q 353 981 353 1791 
Q 353 2603 747 3093 
Q 1141 3584 1784 3584 
Q 2172 3584 2450 3431 
Q 2728 3278 2906 2969 
L 2906 3500 
L 3481 3500 
L 3481 434 
z
" transform="scale(0.015625)"/>
       <path id="DejaVuSans-6d" d="M 3328 2828 
Q 3544 3216 3844 3400 
Q 4144 3584 4550 3584 
Q 5097 3584 5394 3201 
Q 5691 2819 5691 2113 
L 5691 0 
L 5113 0 
L 5113 2094 
Q 5113 2597 4934 2840 
Q 4756 3084 4391 3084 
Q 3944 3084 3684 2787 
Q 3425 2491 3425 1978 
L 3425 0 
L 2847 0 
L 2847 2094 
Q 2847 2600 2669 2842 
Q 2491 3084 2119 3084 
Q 1678 3084 1418 2786 
Q 1159 2488 1159 1978 
L 1159 0 
L 581 0 
L 581 3500 
L 1159 3500 
L 1159 2956 
Q 1356 3278 1631 3431 
Q 1906 3584 2284 3584 
Q 2666 3584 2933 3390 
Q 3200 3197 3328 2828 
z
" transform="scale(0.015625)"/>
       <path id="DejaVuSans-65" d="M 3597 1894 
L 3597 1613 
L 953 1613 
Q 991 1019 1311 708 
Q 1631 397 2203 397 
Q 2534 397 2845 478 
Q 3156 559 3463 722 
L 3463 178 
Q 3153 47 2828 -22 
Q 2503 -91 2169 -91 
Q 1331 -91 842 396 
Q 353 884 353 1716 
Q 353 2575 817 3079 
Q 1281 3584 2069 3584 
Q 2775 3584 3186 3129 
Q 3597 2675 3597 1894 
z
M 3022 2063 
Q 3016 2534 2758 2815 
Q 2500 3097 2075 3097 
Q 1594 3097 1305 2825 
Q 1016 2553 972 2059 
L 3022 2063 
z
" transform="scale(0.015625)"/>
       <path id="DejaVuSans-29" d="M 513 4856 
L 1013 4856 
Q 1481 4119 1714 3412 
Q 1947 2706 1947 2009 
Q 1947 1309 1714 600 
Q 1481 -109 1013 -844 
L 513 -844 
Q 928 -128 1133 580 
Q 1338 1288 1338 2009 
Q 1338 2731 1133 3434 
Q 928 4138 513 4856 
z
" transform="scale(0.015625)"/>
      </defs>
      <use xlink:href="#DejaVuSans-78"/>
      <use xlink:href="#DejaVuSans-20" transform="translate(59.179688 0)"/>
      <use xlink:href="#DejaVuSans-28" transform="translate(90.966797 0)"/>
      <use xlink:href="#DejaVuSans-77" transform="translate(129.980469 0)"/>
      <use xlink:href="#DejaVuSans-61" transform="translate(211.767578 0)"/>
      <use xlink:href="#DejaVuSans-69" transform="translate(273.046875 0)"/>
      <use xlink:href="#DejaVuSans-74" transform="translate(300.830078 0)"/>
      <use xlink:href="#DejaVuSans-69" transform="translate(340.039062 0)"/>
      <use xlink:href="#DejaVuSans-6e" transform="translate(367.822266 0)"/>
      <use xlink:href="#DejaVuSans-67" transform="translate(431.201172 0)"/>
      <use xlink:href="#DejaVuSans-20" transform="translate(494.677734 0)"/>
      <use xlink:href="#DejaVuSans-74" transform="translate(526.464844 0)"/>
      <use xlink:href="#DejaVuSans-69" transform="translate(565.673828 0)"/>
      <use xlink:href="#DejaVuSans-6d" transform="translate(593.457031 0)"/>
      <use xlink:href="#DejaVuSans-65" transform="translate(690.869141 0)"/>
      <use xlink:href="#DejaVuSans-29" transform="translate(752.392578 0)"/>
     </g>
    </g>
   </g>
   <g id="matplotlib.axis_2">
    <g id="ytick_1">
     <g id="line2d_7">
      <defs>
       <path id="mbe33b6930d" d="M 0 0 
L -3.5 0 
" style="stroke: #000000; stroke-width: 0.8"/>
      </defs>
      <g>
       <use xlink:href="#mbe33b6930d" x="46.339375" y="192.573937" style="stroke: #000000; stroke-width: 0.8"/>
      </g>
     </g>
     <g id="text_8">
      <!-- 0.0 -->
      <g transform="translate(21.845937 196.753078) scale(0.11 -0.11)">
       <defs>
        <path id="DejaVuSans-2e" d="M 684 794 
L 1344 794 
L 1344 0 
L 684 0 
L 684 794 
z
" transform="scale(0.015625)"/>
       </defs>
       <use xlink:href="#DejaVuSans-30"/>
       <use xlink:href="#DejaVuSans-2e" transform="translate(63.623047 0)"/>
       <use xlink:href="#DejaVuSans-30" transform="translate(95.410156 0)"/>
      </g>
     </g>
    </g>
    <g id="ytick_2">
     <g id="line2d_8">
      <g>
       <use xlink:href="#mbe33b6930d" x="46.339375" y="160.317937" style="stroke: #000000; stroke-width: 0.8"/>
      </g>
     </g>
     <g id="text_9">
      <!-- 0.2 -->
      <g transform="translate(21.845937 164.497078) scale(0.11 -0.11)">
       <use xlink:href="#DejaVuSans-30"/>
       <use xlink:href="#DejaVuSans-2e" transform="translate(63.623047 0)"/>
       <use xlink:href="#DejaVuSans-32" transform="translate(95.410156 0)"/>
      </g>
     </g>
    </g>
    <g id="ytick_3">
     <g id="line2d_9">
      <g>
       <use xlink:href="#mbe33b6930d" x="46.339375" y="128.061937" style="stroke: #000000; stroke-width: 0.8"/>
      </g>
     </g>
     <g id="text_10">
      <!-- 0.4 -->
      <g transform="translate(21.845937 132.241078) scale(0.11 -0.11)">
       <use xlink:href="#DejaVuSans-30"/>
       <use xlink:href="#DejaVuSans-2e" transform="translate(63.623047 0)"/>
       <use xlink:href="#DejaVuSans-34" transform="translate(95.410156 0)"/>
      </g>
     </g>
    </g>
    <g id="ytick_4">
     <g id="line2d_10">
      <g>
       <use xlink:href="#mbe33b6930d" x="46.339375" y="95.805937" style="stroke: #000000; stroke-width: 0.8"/>
      </g>
     </g>
     <g id="text_11">
      <!-- 0.6 -->
      <g transform="translate(21.845937 99.985078) scale(0.11 -0.11)">
       <defs>
        <path id="DejaVuSans-36" d="M 2113 2584 
Q 1688 2584 1439 2293 
Q 1191 2003 1191 1497 
Q 1191 994 1439 701 
Q 1688 409 2113 409 
Q 2538 409 2786 701 
Q 3034 994 3034 1497 
Q 3034 2003 2786 2293 
Q 2538 2584 2113 2584 
z
M 3366 4563 
L 3366 3988 
Q 3128 4100 2886 4159 
Q 2644 4219 2406 4219 
Q 1781 4219 1451 3797 
Q 1122 3375 1075 2522 
Q 1259 2794 1537 2939 
Q 1816 3084 2150 3084 
Q 2853 3084 3261 2657 
Q 3669 2231 3669 1497 
Q 3669 778 3244 343 
Q 2819 -91 2113 -91 
Q 1303 -91 875 529 
Q 447 1150 447 2328 
Q 447 3434 972 4092 
Q 1497 4750 2381 4750 
Q 2619 4750 2861 4703 
Q 3103 4656 3366 4563 
z
" transform="scale(0.015625)"/>
       </defs>
       <use xlink:href="#DejaVuSans-30"/>
       <use xlink:href="#DejaVuSans-2e" transform="translate(63.623047 0)"/>
       <use xlink:href="#DejaVuSans-36" transform="translate(95.410156 0)"/>
      </g>
     </g>
    </g>
    <g id="ytick_5">
     <g id="line2d_11">
      <g>
       <use xlink:href="#mbe33b6930d" x="46.339375" y="63.549937" style="stroke: #000000; stroke-width: 0.8"/>
      </g>
     </g>
     <g id="text_12">
      <!-- 0.8 -->
      <g transform="translate(21.845937 67.729078) scale(0.11 -0.11)">
       <defs>
        <path id="DejaVuSans-38" d="M 2034 2216 
Q 1584 2216 1326 1975 
Q 1069 1734 1069 1313 
Q 1069 891 1326 650 
Q 1584 409 2034 409 
Q 2484 409 2743 651 
Q 3003 894 3003 1313 
Q 3003 1734 2745 1975 
Q 2488 2216 2034 2216 
z
M 1403 2484 
Q 997 2584 770 2862 
Q 544 3141 544 3541 
Q 544 4100 942 4425 
Q 1341 4750 2034 4750 
Q 2731 4750 3128 4425 
Q 3525 4100 3525 3541 
Q 3525 3141 3298 2862 
Q 3072 2584 2669 2484 
Q 3125 2378 3379 2068 
Q 3634 1759 3634 1313 
Q 3634 634 3220 271 
Q 2806 -91 2034 -91 
Q 1263 -91 848 271 
Q 434 634 434 1313 
Q 434 1759 690 2068 
Q 947 2378 1403 2484 
z
M 1172 3481 
Q 1172 3119 1398 2916 
Q 1625 2713 2034 2713 
Q 2441 2713 2670 2916 
Q 2900 3119 2900 3481 
Q 2900 3844 2670 4047 
Q 2441 4250 2034 4250 
Q 1625 4250 1398 4047 
Q 1172 3844 1172 3481 
z
" transform="scale(0.015625)"/>
       </defs>
       <use xlink:href="#DejaVuSans-30"/>
       <use xlink:href="#DejaVuSans-2e" transform="translate(63.623047 0)"/>
       <use xlink:href="#DejaVuSans-38" transform="translate(95.410156 0)"/>
      </g>
     </g>
    </g>
    <g id="ytick_6">
     <g id="line2d_12">
      <g>
       <use xlink:href="#mbe33b6930d" x="46.339375" y="31.293937" style="stroke: #000000; stroke-width: 0.8"/>
      </g>
     </g>
     <g id="text_13">
      <!-- 1.0 -->
      <g transform="translate(21.845937 35.473078) scale(0.11 -0.11)">
       <use xlink:href="#DejaVuSans-31"/>
       <use xlink:href="#DejaVuSans-2e" transform="translate(63.623047 0)"/>
       <use xlink:href="#DejaVuSans-30" transform="translate(95.410156 0)"/>
      </g>
     </g>
    </g>
    <g id="text_14">
     <!-- f(x) -->
     <g transform="translate(15.558281 121.417141) rotate(-90) scale(0.11 -0.11)">
      <defs>
       <path id="DejaVuSans-66" d="M 2375 4863 
L 2375 4384 
L 1825 4384 
Q 1516 4384 1395 4259 
Q 1275 4134 1275 3809 
L 1275 3500 
L 2222 3500 
L 2222 3053 
L 1275 3053 
L 1275 0 
L 697 0 
L 697 3053 
L 147 3053 
L 147 3500 
L 697 3500 
L 697 3744 
Q 697 4328 969 4595 
Q 1241 4863 1831 4863 
L 2375 4863 
z
" transform="scale(0.015625)"/>
      </defs>
      <use xlink:href="#DejaVuSans-66"/>
      <use xlink:href="#DejaVuSans-28" transform="translate(35.205078 0)"/>
      <use xlink:href="#DejaVuSans-78" transform="translate(74.21875 0)"/>
      <use xlink:href="#DejaVuSans-29" transform="translate(133.398438 0)"/>
     </g>
    </g>
   </g>
   <g id="line2d_13">
    <path d="M 60.289375 31.293937 
L 64.203203 42.218556 
L 68.11703 52.403173 
L 72.030858 61.897916 
L 75.944686 70.749513 
L 79.858513 79.00153 
L 83.772341 86.694581 
L 87.686169 93.866527 
L 91.599996 100.552668 
L 95.513824 106.78591 
L 99.427652 112.596931 
L 103.341479 118.014331 
L 107.255307 123.064772 
L 111.169135 127.773112 
L 115.082962 132.162524 
L 118.99679 136.25461 
L 123.469736 140.59298 
L 127.942682 144.597158 
L 132.415628 148.292888 
L 136.888573 151.703929 
L 141.361519 154.852213 
L 146.393583 158.105095 
L 151.425648 161.077468 
L 156.457712 163.793523 
L 161.489776 166.275363 
L 167.080958 168.782772 
L 172.672141 171.051114 
L 178.822441 173.297307 
L 184.972742 175.309081 
L 191.682161 177.265065 
L 198.950698 179.134788 
L 206.219235 180.776156 
L 214.04689 182.320316 
L 222.433664 183.751216 
L 231.379555 185.058121 
L 241.443684 186.298464 
L 252.626048 187.438073 
L 264.92665 188.454126 
L 278.345487 189.334738 
L 293.44168 190.102536 
L 311.333463 190.780482 
L 332.020838 191.336055 
L 339.289375 191.487241 
L 339.289375 191.487241 
" clip-path="url(#pdf88a4a2d5)" style="fill: none; stroke: #4c72b0; stroke-width: 2; stroke-linecap: square"/>
   </g>
   <g id="line2d_14">
    <path d="M 116.089375 200.637937 
L 116.089375 23.229937 
" clip-path="url(#pdf88a4a2d5)" style="fill: none; stroke-dasharray: 3.7,1.6; stroke-dashoffset: 0; stroke: #ff0000; stroke-opacity: 0.7"/>
   </g>
   <g id="patch_3">
    <path d="M 46.339375 200.637937 
L 46.339375 23.229937 
" style="fill: none; stroke: #000000; stroke-width: 0.8; stroke-linejoin: miter; stroke-linecap: square"/>
   </g>
   <g id="patch_4">
    <path d="M 46.339375 200.637937 
L 353.239375 200.637937 
" style="fill: none; stroke: #000000; stroke-width: 0.8; stroke-linejoin: miter; stroke-linecap: square"/>
   </g>
   <g id="text_15">
    <!-- E[X] = 1/λ = 1 -->
    <g style="fill: #ff0000" transform="translate(121.669375 95.805937) scale(0.1 -0.1)">
     <defs>
      <path id="DejaVuSans-45" d="M 628 4666 
L 3578 4666 
L 3578 4134 
L 1259 4134 
L 1259 2753 
L 3481 2753 
L 3481 2222 
L 1259 2222 
L 1259 531 
L 3634 531 
L 3634 0 
L 628 0 
L 628 4666 
z
" transform="scale(0.015625)"/>
      <path id="DejaVuSans-5b" d="M 550 4863 
L 1875 4863 
L 1875 4416 
L 1125 4416 
L 1125 -397 
L 1875 -397 
L 1875 -844 
L 550 -844 
L 550 4863 
z
" transform="scale(0.015625)"/>
      <path id="DejaVuSans-58" d="M 403 4666 
L 1081 4666 
L 2241 2931 
L 3406 4666 
L 4084 4666 
L 2584 2425 
L 4184 0 
L 3506 0 
L 2194 1984 
L 872 0 
L 191 0 
L 1856 2491 
L 403 4666 
z
" transform="scale(0.015625)"/>
      <path id="DejaVuSans-5d" d="M 1947 4863 
L 1947 -844 
L 622 -844 
L 622 -397 
L 1369 -397 
L 1369 4416 
L 622 4416 
L 622 4863 
L 1947 4863 
z
" transform="scale(0.015625)"/>
      <path id="DejaVuSans-3d" d="M 678 2906 
L 4684 2906 
L 4684 2381 
L 678 2381 
L 678 2906 
z
M 678 1631 
L 4684 1631 
L 4684 1100 
L 678 1100 
L 678 1631 
z
" transform="scale(0.015625)"/>
      <path id="DejaVuSans-2f" d="M 1625 4666 
L 2156 4666 
L 531 -594 
L 0 -594 
L 1625 4666 
z
" transform="scale(0.015625)"/>
      <path id="DejaVuSans-3bb" d="M 1981 4316 
L 3597 0 
L 2988 0 
L 2006 2588 
L 800 0 
L 191 0 
L 1725 3356 
L 1494 3975 
Q 1347 4369 1013 4369 
L 713 4369 
L 713 4863 
L 1078 4856 
Q 1784 4847 1981 4316 
z
" transform="scale(0.015625)"/>
     </defs>
     <use xlink:href="#DejaVuSans-45"/>
     <use xlink:href="#DejaVuSans-5b" transform="translate(63.183594 0)"/>
     <use xlink:href="#DejaVuSans-58" transform="translate(102.197266 0)"/>
     <use xlink:href="#DejaVuSans-5d" transform="translate(170.703125 0)"/>
     <use xlink:href="#DejaVuSans-20" transform="translate(209.716797 0)"/>
     <use xlink:href="#DejaVuSans-3d" transform="translate(241.503906 0)"/>
     <use xlink:href="#DejaVuSans-20" transform="translate(325.292969 0)"/>
     <use xlink:href="#DejaVuSans-31" transform="translate(357.080078 0)"/>
     <use xlink:href="#DejaVuSans-2f" transform="translate(420.703125 0)"/>
     <use xlink:href="#DejaVuSans-3bb" transform="translate(454.394531 0)"/>
     <use xlink:href="#DejaVuSans-20" transform="translate(513.574219 0)"/>
     <use xlink:href="#DejaVuSans-3d" transform="translate(545.361328 0)"/>
     <use xlink:href="#DejaVuSans-20" transform="translate(629.150391 0)"/>
     <use xlink:href="#DejaVuSans-31" transform="translate(660.9375 0)"/>
    </g>
   </g>
   <g id="text_16">
    <g id="patch_5">
     <path d="M 245.98075 73.744744 
L 347.101375 73.744744 
Q 349.801375 73.744744 349.801375 71.044744 
L 349.801375 32.100337 
Q 349.801375 29.400337 347.101375 29.400337 
L 245.98075 29.400337 
Q 243.28075 29.400337 243.28075 32.100337 
L 243.28075 71.044744 
Q 243.28075 73.744744 245.98075 73.744744 
z
" style="fill: #f0f0f0; stroke: #cccccc; stroke-linejoin: miter"/>
    </g>
    <!-- E[X] = 1/λ = 1 -->
    <g style="fill: #555555" transform="translate(281.89075 38.938931) scale(0.09 -0.09)">
     <use xlink:href="#DejaVuSans-45"/>
     <use xlink:href="#DejaVuSans-5b" transform="translate(63.183594 0)"/>
     <use xlink:href="#DejaVuSans-58" transform="translate(102.197266 0)"/>
     <use xlink:href="#DejaVuSans-5d" transform="translate(170.703125 0)"/>
     <use xlink:href="#DejaVuSans-20" transform="translate(209.716797 0)"/>
     <use xlink:href="#DejaVuSans-3d" transform="translate(241.503906 0)"/>
     <use xlink:href="#DejaVuSans-20" transform="translate(325.292969 0)"/>
     <use xlink:href="#DejaVuSans-31" transform="translate(357.080078 0)"/>
     <use xlink:href="#DejaVuSans-2f" transform="translate(420.703125 0)"/>
     <use xlink:href="#DejaVuSans-3bb" transform="translate(454.394531 0)"/>
     <use xlink:href="#DejaVuSans-20" transform="translate(513.574219 0)"/>
     <use xlink:href="#DejaVuSans-3d" transform="translate(545.361328 0)"/>
     <use xlink:href="#DejaVuSans-20" transform="translate(629.150391 0)"/>
     <use xlink:href="#DejaVuSans-31" transform="translate(660.9375 0)"/>
    </g>
    <!-- Var[X] = 1/λ² = 1 -->
    <g style="fill: #555555" transform="translate(269.294969 49.016963) scale(0.09 -0.09)">
     <defs>
      <path id="DejaVuSans-56" d="M 1831 0 
L 50 4666 
L 709 4666 
L 2188 738 
L 3669 4666 
L 4325 4666 
L 2547 0 
L 1831 0 
z
" transform="scale(0.015625)"/>
      <path id="DejaVuSans-72" d="M 2631 2963 
Q 2534 3019 2420 3045 
Q 2306 3072 2169 3072 
Q 1681 3072 1420 2755 
Q 1159 2438 1159 1844 
L 1159 0 
L 581 0 
L 581 3500 
L 1159 3500 
L 1159 2956 
Q 1341 3275 1631 3429 
Q 1922 3584 2338 3584 
Q 2397 3584 2469 3576 
Q 2541 3569 2628 3553 
L 2631 2963 
z
" transform="scale(0.015625)"/>
      <path id="DejaVuSans-b2" d="M 838 2444 
L 2163 2444 
L 2163 2088 
L 294 2088 
L 294 2431 
Q 400 2528 597 2703 
Q 1672 3656 1672 3950 
Q 1672 4156 1509 4282 
Q 1347 4409 1081 4409 
Q 919 4409 728 4354 
Q 538 4300 313 4191 
L 313 4575 
Q 553 4663 761 4706 
Q 969 4750 1147 4750 
Q 1600 4750 1872 4544 
Q 2144 4338 2144 4000 
Q 2144 3566 1109 2678 
Q 934 2528 838 2444 
z
" transform="scale(0.015625)"/>
     </defs>
     <use xlink:href="#DejaVuSans-56"/>
     <use xlink:href="#DejaVuSans-61" transform="translate(60.658203 0)"/>
     <use xlink:href="#DejaVuSans-72" transform="translate(121.9375 0)"/>
     <use xlink:href="#DejaVuSans-5b" transform="translate(163.050781 0)"/>
     <use xlink:href="#DejaVuSans-58" transform="translate(202.064453 0)"/>
     <use xlink:href="#DejaVuSans-5d" transform="translate(270.570312 0)"/>
     <use xlink:href="#DejaVuSans-20" transform="translate(309.583984 0)"/>
     <use xlink:href="#DejaVuSans-3d" transform="translate(341.371094 0)"/>
     <use xlink:href="#DejaVuSans-20" transform="translate(425.160156 0)"/>
     <use xlink:href="#DejaVuSans-31" transform="translate(456.947266 0)"/>
     <use xlink:href="#DejaVuSans-2f" transform="translate(520.570312 0)"/>
     <use xlink:href="#DejaVuSans-3bb" transform="translate(554.261719 0)"/>
     <use xlink:href="#DejaVuSans-b2" transform="translate(613.441406 0)"/>
     <use xlink:href="#DejaVuSans-20" transform="translate(653.529297 0)"/>
     <use xlink:href="#DejaVuSans-3d" transform="translate(685.316406 0)"/>
     <use xlink:href="#DejaVuSans-20" transform="translate(769.105469 0)"/>
     <use xlink:href="#DejaVuSans-31" transform="translate(800.892578 0)"/>
    </g>
    <!-- Memoryless: past wait -->
    <g style="fill: #555555" transform="translate(245.98075 59.094994) scale(0.09 -0.09)">
     <defs>
      <path id="DejaVuSans-4d" d="M 628 4666 
L 1569 4666 
L 2759 1491 
L 3956 4666 
L 4897 4666 
L 4897 0 
L 4281 0 
L 4281 4097 
L 3078 897 
L 2444 897 
L 1241 4097 
L 1241 0 
L 628 0 
L 628 4666 
z
" transform="scale(0.015625)"/>
      <path id="DejaVuSans-6f" d="M 1959 3097 
Q 1497 3097 1228 2736 
Q 959 2375 959 1747 
Q 959 1119 1226 758 
Q 1494 397 1959 397 
Q 2419 397 2687 759 
Q 2956 1122 2956 1747 
Q 2956 2369 2687 2733 
Q 2419 3097 1959 3097 
z
M 1959 3584 
Q 2709 3584 3137 3096 
Q 3566 2609 3566 1747 
Q 3566 888 3137 398 
Q 2709 -91 1959 -91 
Q 1206 -91 779 398 
Q 353 888 353 1747 
Q 353 2609 779 3096 
Q 1206 3584 1959 3584 
z
" transform="scale(0.015625)"/>
      <path id="DejaVuSans-79" d="M 2059 -325 
Q 1816 -950 1584 -1140 
Q 1353 -1331 966 -1331 
L 506 -1331 
L 506 -850 
L 844 -850 
Q 1081 -850 1212 -737 
Q 1344 -625 1503 -206 
L 1606 56 
L 191 3500 
L 800 3500 
L 1894 763 
L 2988 3500 
L 3597 3500 
L 2059 -325 
z
" transform="scale(0.015625)"/>
      <path id="DejaVuSans-6c" d="M 603 4863 
L 1178 4863 
L 1178 0 
L 603 0 
L 603 4863 
z
" transform="scale(0.015625)"/>
      <path id="DejaVuSans-73" d="M 2834 3397 
L 2834 2853 
Q 2591 2978 2328 3040 
Q 2066 3103 1784 3103 
Q 1356 3103 1142 2972 
Q 928 2841 928 2578 
Q 928 2378 1081 2264 
Q 1234 2150 1697 2047 
L 1894 2003 
Q 2506 1872 2764 1633 
Q 3022 1394 3022 966 
Q 3022 478 2636 193 
Q 2250 -91 1575 -91 
Q 1294 -91 989 -36 
Q 684 19 347 128 
L 347 722 
Q 666 556 975 473 
Q 1284 391 1588 391 
Q 1994 391 2212 530 
Q 2431 669 2431 922 
Q 2431 1156 2273 1281 
Q 2116 1406 1581 1522 
L 1381 1569 
Q 847 1681 609 1914 
Q 372 2147 372 2553 
Q 372 3047 722 3315 
Q 1072 3584 1716 3584 
Q 2034 3584 2315 3537 
Q 2597 3491 2834 3397 
z
" transform="scale(0.015625)"/>
      <path id="DejaVuSans-3a" d="M 750 794 
L 1409 794 
L 1409 0 
L 750 0 
L 750 794 
z
M 750 3309 
L 1409 3309 
L 1409 2516 
L 750 2516 
L 750 3309 
z
" transform="scale(0.015625)"/>
      <path id="DejaVuSans-70" d="M 1159 525 
L 1159 -1331 
L 581 -1331 
L 581 3500 
L 1159 3500 
L 1159 2969 
Q 1341 3281 1617 3432 
Q 1894 3584 2278 3584 
Q 2916 3584 3314 3078 
Q 3713 2572 3713 1747 
Q 3713 922 3314 415 
Q 2916 -91 2278 -91 
Q 1894 -91 1617 61 
Q 1341 213 1159 525 
z
M 3116 1747 
Q 3116 2381 2855 2742 
Q 2594 3103 2138 3103 
Q 1681 3103 1420 2742 
Q 1159 2381 1159 1747 
Q 1159 1113 1420 752 
Q 1681 391 2138 391 
Q 2594 391 2855 752 
Q 3116 1113 3116 1747 
z
" transform="scale(0.015625)"/>
     </defs>
     <use xlink:href="#DejaVuSans-4d"/>
     <use xlink:href="#DejaVuSans-65" transform="translate(86.279297 0)"/>
     <use xlink:href="#DejaVuSans-6d" transform="translate(147.802734 0)"/>
     <use xlink:href="#DejaVuSans-6f" transform="translate(245.214844 0)"/>
     <use xlink:href="#DejaVuSans-72" transform="translate(306.396484 0)"/>
     <use xlink:href="#DejaVuSans-79" transform="translate(347.509766 0)"/>
     <use xlink:href="#DejaVuSans-6c" transform="translate(406.689453 0)"/>
     <use xlink:href="#DejaVuSans-65" transform="translate(434.472656 0)"/>
     <use xlink:href="#DejaVuSans-73" transform="translate(495.996094 0)"/>
     <use xlink:href="#DejaVuSans-73" transform="translate(548.095703 0)"/>
     <use xlink:href="#DejaVuSans-3a" transform="translate(600.195312 0)"/>
     <use xlink:href="#DejaVuSans-20" transform="translate(633.886719 0)"/>
     <use xlink:href="#DejaVuSans-70" transform="translate(665.673828 0)"/>
     <use xlink:href="#DejaVuSans-61" transform="translate(729.150391 0)"/>
     <use xlink:href="#DejaVuSans-73" transform="translate(790.429688 0)"/>
     <use xlink:href="#DejaVuSans-74" transform="translate(842.529297 0)"/>
     <use xlink:href="#DejaVuSans-20" transform="translate(881.738281 0)"/>
     <use xlink:href="#DejaVuSans-77" transform="translate(913.525391 0)"/>
     <use xlink:href="#DejaVuSans-61" transform="translate(995.3125 0)"/>
     <use xlink:href="#DejaVuSans-69" transform="translate(1056.591797 0)"/>
     <use xlink:href="#DejaVuSans-74" transform="translate(1084.375 0)"/>
    </g>
    <!-- does not affect future -->
    <g style="fill: #555555" transform="translate(249.329031 69.173025) scale(0.09 -0.09)">
     <defs>
      <path id="DejaVuSans-64" d="M 2906 2969 
L 2906 4863 
L 3481 4863 
L 3481 0 
L 2906 0 
L 2906 525 
Q 2725 213 2448 61 
Q 2172 -91 1784 -91 
Q 1150 -91 751 415 
Q 353 922 353 1747 
Q 353 2572 751 3078 
Q 1150 3584 1784 3584 
Q 2172 3584 2448 3432 
Q 2725 3281 2906 2969 
z
M 947 1747 
Q 947 1113 1208 752 
Q 1469 391 1925 391 
Q 2381 391 2643 752 
Q 2906 1113 2906 1747 
Q 2906 2381 2643 2742 
Q 2381 3103 1925 3103 
Q 1469 3103 1208 2742 
Q 947 2381 947 1747 
z
" transform="scale(0.015625)"/>
      <path id="DejaVuSans-63" d="M 3122 3366 
L 3122 2828 
Q 2878 2963 2633 3030 
Q 2388 3097 2138 3097 
Q 1578 3097 1268 2742 
Q 959 2388 959 1747 
Q 959 1106 1268 751 
Q 1578 397 2138 397 
Q 2388 397 2633 464 
Q 2878 531 3122 666 
L 3122 134 
Q 2881 22 2623 -34 
Q 2366 -91 2075 -91 
Q 1284 -91 818 406 
Q 353 903 353 1747 
Q 353 2603 823 3093 
Q 1294 3584 2113 3584 
Q 2378 3584 2631 3529 
Q 2884 3475 3122 3366 
z
" transform="scale(0.015625)"/>
      <path id="DejaVuSans-75" d="M 544 1381 
L 544 3500 
L 1119 3500 
L 1119 1403 
Q 1119 906 1312 657 
Q 1506 409 1894 409 
Q 2359 409 2629 706 
Q 2900 1003 2900 1516 
L 2900 3500 
L 3475 3500 
L 3475 0 
L 2900 0 
L 2900 538 
Q 2691 219 2414 64 
Q 2138 -91 1772 -91 
Q 1169 -91 856 284 
Q 544 659 544 1381 
z
M 1991 3584 
L 1991 3584 
z
" transform="scale(0.015625)"/>
     </defs>
     <use xlink:href="#DejaVuSans-64"/>
     <use xlink:href="#DejaVuSans-6f" transform="translate(63.476562 0)"/>
     <use xlink:href="#DejaVuSans-65" transform="translate(124.658203 0)"/>
     <use xlink:href="#DejaVuSans-73" transform="translate(186.181641 0)"/>
     <use xlink:href="#DejaVuSans-20" transform="translate(238.28125 0)"/>
     <use xlink:href="#DejaVuSans-6e" transform="translate(270.068359 0)"/>
     <use xlink:href="#DejaVuSans-6f" transform="translate(333.447266 0)"/>
     <use xlink:href="#DejaVuSans-74" transform="translate(394.628906 0)"/>
     <use xlink:href="#DejaVuSans-20" transform="translate(433.837891 0)"/>
     <use xlink:href="#DejaVuSans-61" transform="translate(465.625 0)"/>
     <use xlink:href="#DejaVuSans-66" transform="translate(526.904297 0)"/>
     <use xlink:href="#DejaVuSans-66" transform="translate(562.109375 0)"/>
     <use xlink:href="#DejaVuSans-65" transform="translate(597.314453 0)"/>
     <use xlink:href="#DejaVuSans-63" transform="translate(658.837891 0)"/>
     <use xlink:href="#DejaVuSans-74" transform="translate(713.818359 0)"/>
     <use xlink:href="#DejaVuSans-20" transform="translate(753.027344 0)"/>
     <use xlink:href="#DejaVuSans-66" transform="translate(784.814453 0)"/>
     <use xlink:href="#DejaVuSans-75" transform="translate(820.019531 0)"/>
     <use xlink:href="#DejaVuSans-74" transform="translate(883.398438 0)"/>
     <use xlink:href="#DejaVuSans-75" transform="translate(922.607422 0)"/>
     <use xlink:href="#DejaVuSans-72" transform="translate(985.986328 0)"/>
     <use xlink:href="#DejaVuSans-65" transform="translate(1024.849609 0)"/>
    </g>
   </g>
   <g id="text_17">
    <!-- Exponential(λ = 1) -->
    <g transform="translate(130.830719 17.229937) scale(0.132 -0.132)">
     <defs>
      <path id="DejaVuSans-Bold-45" d="M 588 4666 
L 3834 4666 
L 3834 3756 
L 1791 3756 
L 1791 2888 
L 3713 2888 
L 3713 1978 
L 1791 1978 
L 1791 909 
L 3903 909 
L 3903 0 
L 588 0 
L 588 4666 
z
" transform="scale(0.015625)"/>
      <path id="DejaVuSans-Bold-78" d="M 1422 1791 
L 159 3500 
L 1344 3500 
L 2059 2463 
L 2784 3500 
L 3969 3500 
L 2706 1797 
L 4031 0 
L 2847 0 
L 2059 1106 
L 1281 0 
L 97 0 
L 1422 1791 
z
" transform="scale(0.015625)"/>
      <path id="DejaVuSans-Bold-70" d="M 1656 506 
L 1656 -1331 
L 538 -1331 
L 538 3500 
L 1656 3500 
L 1656 2988 
Q 1888 3294 2169 3439 
Q 2450 3584 2816 3584 
Q 3463 3584 3878 3070 
Q 4294 2556 4294 1747 
Q 4294 938 3878 423 
Q 3463 -91 2816 -91 
Q 2450 -91 2169 54 
Q 1888 200 1656 506 
z
M 2400 2772 
Q 2041 2772 1848 2508 
Q 1656 2244 1656 1747 
Q 1656 1250 1848 986 
Q 2041 722 2400 722 
Q 2759 722 2948 984 
Q 3138 1247 3138 1747 
Q 3138 2247 2948 2509 
Q 2759 2772 2400 2772 
z
" transform="scale(0.015625)"/>
      <path id="DejaVuSans-Bold-6f" d="M 2203 2784 
Q 1831 2784 1636 2517 
Q 1441 2250 1441 1747 
Q 1441 1244 1636 976 
Q 1831 709 2203 709 
Q 2569 709 2762 976 
Q 2956 1244 2956 1747 
Q 2956 2250 2762 2517 
Q 2569 2784 2203 2784 
z
M 2203 3584 
Q 3106 3584 3614 3096 
Q 4122 2609 4122 1747 
Q 4122 884 3614 396 
Q 3106 -91 2203 -91 
Q 1297 -91 786 396 
Q 275 884 275 1747 
Q 275 2609 786 3096 
Q 1297 3584 2203 3584 
z
" transform="scale(0.015625)"/>
      <path id="DejaVuSans-Bold-6e" d="M 4056 2131 
L 4056 0 
L 2931 0 
L 2931 347 
L 2931 1631 
Q 2931 2084 2911 2256 
Q 2891 2428 2841 2509 
Q 2775 2619 2662 2680 
Q 2550 2741 2406 2741 
Q 2056 2741 1856 2470 
Q 1656 2200 1656 1722 
L 1656 0 
L 538 0 
L 538 3500 
L 1656 3500 
L 1656 2988 
Q 1909 3294 2193 3439 
Q 2478 3584 2822 3584 
Q 3428 3584 3742 3212 
Q 4056 2841 4056 2131 
z
" transform="scale(0.015625)"/>
      <path id="DejaVuSans-Bold-65" d="M 4031 1759 
L 4031 1441 
L 1416 1441 
Q 1456 1047 1700 850 
Q 1944 653 2381 653 
Q 2734 653 3104 758 
Q 3475 863 3866 1075 
L 3866 213 
Q 3469 63 3072 -14 
Q 2675 -91 2278 -91 
Q 1328 -91 801 392 
Q 275 875 275 1747 
Q 275 2603 792 3093 
Q 1309 3584 2216 3584 
Q 3041 3584 3536 3087 
Q 4031 2591 4031 1759 
z
M 2881 2131 
Q 2881 2450 2695 2645 
Q 2509 2841 2209 2841 
Q 1884 2841 1681 2658 
Q 1478 2475 1428 2131 
L 2881 2131 
z
" transform="scale(0.015625)"/>
      <path id="DejaVuSans-Bold-74" d="M 1759 4494 
L 1759 3500 
L 2913 3500 
L 2913 2700 
L 1759 2700 
L 1759 1216 
Q 1759 972 1856 886 
Q 1953 800 2241 800 
L 2816 800 
L 2816 0 
L 1856 0 
Q 1194 0 917 276 
Q 641 553 641 1216 
L 641 2700 
L 84 2700 
L 84 3500 
L 641 3500 
L 641 4494 
L 1759 4494 
z
" transform="scale(0.015625)"/>
      <path id="DejaVuSans-Bold-69" d="M 538 3500 
L 1656 3500 
L 1656 0 
L 538 0 
L 538 3500 
z
M 538 4863 
L 1656 4863 
L 1656 3950 
L 538 3950 
L 538 4863 
z
" transform="scale(0.015625)"/>
      <path id="DejaVuSans-Bold-61" d="M 2106 1575 
Q 1756 1575 1579 1456 
Q 1403 1338 1403 1106 
Q 1403 894 1545 773 
Q 1688 653 1941 653 
Q 2256 653 2472 879 
Q 2688 1106 2688 1447 
L 2688 1575 
L 2106 1575 
z
M 3816 1997 
L 3816 0 
L 2688 0 
L 2688 519 
Q 2463 200 2181 54 
Q 1900 -91 1497 -91 
Q 953 -91 614 226 
Q 275 544 275 1050 
Q 275 1666 698 1953 
Q 1122 2241 2028 2241 
L 2688 2241 
L 2688 2328 
Q 2688 2594 2478 2717 
Q 2269 2841 1825 2841 
Q 1466 2841 1156 2769 
Q 847 2697 581 2553 
L 581 3406 
Q 941 3494 1303 3539 
Q 1666 3584 2028 3584 
Q 2975 3584 3395 3211 
Q 3816 2838 3816 1997 
z
" transform="scale(0.015625)"/>
      <path id="DejaVuSans-Bold-6c" d="M 538 4863 
L 1656 4863 
L 1656 0 
L 538 0 
L 538 4863 
z
" transform="scale(0.015625)"/>
      <path id="DejaVuSans-Bold-28" d="M 2413 -844 
L 1484 -844 
Q 1006 -72 778 623 
Q 550 1319 550 2003 
Q 550 2688 779 3389 
Q 1009 4091 1484 4856 
L 2413 4856 
Q 2013 4116 1813 3408 
Q 1613 2700 1613 2009 
Q 1613 1319 1811 609 
Q 2009 -100 2413 -844 
z
" transform="scale(0.015625)"/>
      <path id="DejaVuSans-Bold-3bb" d="M 1544 3188 
L 1350 3713 
Q 1263 3953 1145 4040 
Q 1028 4128 734 4128 
L 384 4128 
L 384 4863 
L 1031 4863 
Q 1600 4863 1908 4622 
Q 2216 4381 2428 3813 
L 3859 0 
L 2741 0 
L 2044 1838 
L 1309 0 
L 191 0 
L 1544 3188 
z
" transform="scale(0.015625)"/>
      <path id="DejaVuSans-Bold-20" transform="scale(0.015625)"/>
      <path id="DejaVuSans-Bold-3d" d="M 678 3084 
L 4684 3084 
L 4684 2350 
L 678 2350 
L 678 3084 
z
M 678 1663 
L 4684 1663 
L 4684 922 
L 678 922 
L 678 1663 
z
" transform="scale(0.015625)"/>
      <path id="DejaVuSans-Bold-31" d="M 750 831 
L 1813 831 
L 1813 3847 
L 722 3622 
L 722 4441 
L 1806 4666 
L 2950 4666 
L 2950 831 
L 4013 831 
L 4013 0 
L 750 0 
L 750 831 
z
" transform="scale(0.015625)"/>
      <path id="DejaVuSans-Bold-29" d="M 513 -844 
Q 913 -100 1113 609 
Q 1313 1319 1313 2009 
Q 1313 2700 1113 3408 
Q 913 4116 513 4856 
L 1441 4856 
Q 1916 4091 2145 3389 
Q 2375 2688 2375 2003 
Q 2375 1319 2147 623 
Q 1919 -72 1441 -844 
L 513 -844 
z
" transform="scale(0.015625)"/>
     </defs>
     <use xlink:href="#DejaVuSans-Bold-45"/>
     <use xlink:href="#DejaVuSans-Bold-78" transform="translate(68.310547 0)"/>
     <use xlink:href="#DejaVuSans-Bold-70" transform="translate(132.8125 0)"/>
     <use xlink:href="#DejaVuSans-Bold-6f" transform="translate(204.394531 0)"/>
     <use xlink:href="#DejaVuSans-Bold-6e" transform="translate(273.095703 0)"/>
     <use xlink:href="#DejaVuSans-Bold-65" transform="translate(344.287109 0)"/>
     <use xlink:href="#DejaVuSans-Bold-6e" transform="translate(412.109375 0)"/>
     <use xlink:href="#DejaVuSans-Bold-74" transform="translate(483.300781 0)"/>
     <use xlink:href="#DejaVuSans-Bold-69" transform="translate(531.103516 0)"/>
     <use xlink:href="#DejaVuSans-Bold-61" transform="translate(565.380859 0)"/>
     <use xlink:href="#DejaVuSans-Bold-6c" transform="translate(632.861328 0)"/>
     <use xlink:href="#DejaVuSans-Bold-28" transform="translate(667.138672 0)"/>
     <use xlink:href="#DejaVuSans-Bold-3bb" transform="translate(712.841797 0)"/>
     <use xlink:href="#DejaVuSans-Bold-20" transform="translate(776.123047 0)"/>
     <use xlink:href="#DejaVuSans-Bold-3d" transform="translate(810.9375 0)"/>
     <use xlink:href="#DejaVuSans-Bold-20" transform="translate(894.726562 0)"/>
     <use xlink:href="#DejaVuSans-Bold-31" transform="translate(929.541016 0)"/>
     <use xlink:href="#DejaVuSans-Bold-29" transform="translate(999.121094 0)"/>
    </g>
   </g>
  </g>
 </g>
 <defs>
  <clipPath id="pdf88a4a2d5">
   <rect x="46.339375" y="23.229937" width="306.9" height="177.408"/>
  </clipPath>
 </defs>
</svg>
