<?xml version="1.0" encoding="utf-8" standalone="no"?>
<!DOCTYPE svg PUBLIC "-//W3C//DTD SVG 1.1//EN"
  "http://www.w3.org/Graphics/SVG/1.1/DTD/svg11.dtd">
<svg xmlns:xlink="http://www.w3.org/1999/xlink" width="926.429375pt" height="340.899875pt" viewBox="0 0 926.429375 340.899875" xmlns="http://www.w3.org/2000/svg" version="1.1">
 <metadata>
  <rdf:RDF xmlns:dc="http://purl.org/dc/elements/1.1/" xmlns:cc="http://creativecommons.org/ns#" xmlns:rdf="http://www.w3.org/1999/02/22-rdf-syntax-ns#">
   <cc:Work>
    <dc:type rdf:resource="http://purl.org/dc/dcmitype/StillImage"/>
    <dc:date>2026-03-20T01:55:26.328753</dc:date>
    <dc:format>image/svg+xml</dc:format>
    <dc:creator>
     <cc:Agent>
      <dc:title>Matplotlib v3.9.0, https://matplotlib.org/</dc:title>
     </cc:Agent>
    </dc:creator>
   </cc:Work>
  </rdf:RDF>
 </metadata>
 <defs>
  <style type="text/css">*{stroke-linejoin: round; stroke-linecap: butt}</style>
 </defs>
 <g id="figure_1">
  <g id="patch_1">
   <path d="M 0 340.899875 
L 926.429375 340.899875 
L 926.429375 -0 
L 0 -0 
z
" style="fill: #ffffff"/>
  </g>
  <g id="axes_1">
   <g id="patch_2">
    <path d="M 46.339375 301.408 
L 506.879608 301.408 
L 506.879608 54.348 
L 46.339375 54.348 
z
" style="fill: #ffffff"/>
   </g>
   <g id="PolyCollection_1">
    <defs>
     <path id="m6e37dad4dd" d="M 67.273022 -50.721875 
L 67.273022 -275.321875 
L 68.322328 -271.305292 
L 69.371633 -267.360538 
L 70.420939 -263.486329 
L 71.470244 -259.681404 
L 72.51955 -255.944523 
L 73.568856 -252.27447 
L 74.618161 -248.67005 
L 75.667467 -245.130088 
L 76.716772 -241.653433 
L 77.766078 -238.238951 
L 78.815384 -234.885532 
L 79.864689 -231.592083 
L 80.913995 -228.357531 
L 81.9633 -225.180824 
L 83.012606 -222.060926 
L 84.061912 -218.996823 
L 85.111217 -215.987516 
L 86.160523 -213.032025 
L 87.209829 -210.129388 
L 88.259134 -207.27866 
L 89.30844 -204.478912 
L 90.357745 -201.729233 
L 91.407051 -199.028726 
L 92.456357 -196.376514 
L 93.505662 -193.771732 
L 94.554968 -191.213533 
L 95.604273 -188.701082 
L 96.653579 -186.233562 
L 97.702885 -183.810169 
L 98.75219 -181.430114 
L 99.801496 -179.092623 
L 100.850801 -176.796934 
L 101.900107 -174.542299 
L 102.949413 -172.327984 
L 103.998718 -170.153269 
L 105.048024 -168.017444 
L 106.09733 -165.919815 
L 107.146635 -163.859699 
L 108.195941 -161.836424 
L 109.245246 -159.849332 
L 110.294552 -157.897776 
L 111.343858 -155.98112 
L 112.393163 -154.09874 
L 113.442469 -152.250023 
L 114.491774 -150.434367 
L 115.54108 -148.651181 
L 116.590386 -146.899885 
L 117.639691 -145.179907 
L 118.688997 -143.490688 
L 119.738302 -141.831678 
L 120.787608 -140.202336 
L 121.836914 -138.602132 
L 122.886219 -137.030546 
L 123.935525 -135.487064 
L 124.984831 -133.971185 
L 126.034136 -132.482415 
L 127.083442 -131.020268 
L 128.132747 -129.58427 
L 129.182053 -128.173952 
L 130.231359 -126.788856 
L 131.280664 -125.428529 
L 132.32997 -124.092529 
L 133.379275 -122.780422 
L 134.428581 -121.491779 
L 135.477887 -120.226181 
L 136.527192 -118.983217 
L 137.576498 -117.76248 
L 138.625803 -116.563575 
L 139.675109 -115.38611 
L 140.724415 -114.229701 
L 141.77372 -113.093973 
L 142.823026 -111.978556 
L 143.872332 -110.883086 
L 144.921637 -109.807207 
L 145.970943 -108.750567 
L 147.020248 -107.712824 
L 148.069554 -106.693639 
L 149.11886 -105.692681 
L 150.168165 -104.709623 
L 151.217471 -103.744145 
L 152.266776 -102.795933 
L 153.316082 -101.864679 
L 154.365388 -100.950078 
L 155.414693 -100.051833 
L 156.463999 -99.169652 
L 157.513304 -98.303247 
L 158.56261 -97.452336 
L 159.611916 -96.616643 
L 160.661221 -95.795894 
L 161.710527 -94.989823 
L 162.759833 -94.198167 
L 163.809138 -93.420669 
L 164.858444 -92.657074 
L 165.907749 -91.907136 
L 166.957055 -91.170608 
L 168.006361 -90.447253 
L 169.055666 -89.736833 
L 170.104972 -89.039117 
L 171.154277 -88.35388 
L 172.203583 -87.680896 
L 173.252889 -87.019948 
L 174.302194 -86.370819 
L 175.3515 -85.7333 
L 176.400805 -85.107181 
L 177.450111 -84.492259 
L 178.499417 -83.888334 
L 179.548722 -83.295209 
L 180.598028 -82.712691 
L 181.647334 -82.14059 
L 182.696639 -81.578721 
L 183.745945 -81.026899 
L 184.79525 -80.484946 
L 185.844556 -79.952685 
L 186.893862 -79.429943 
L 187.943167 -78.916548 
L 188.992473 -78.412335 
L 190.041778 -77.917139 
L 191.091084 -77.430799 
L 192.14039 -76.953156 
L 193.189695 -76.484055 
L 194.239001 -76.023342 
L 195.288306 -75.570869 
L 196.337612 -75.126488 
L 197.386918 -74.690054 
L 198.436223 -74.261424 
L 199.485529 -73.84046 
L 200.534834 -73.427024 
L 201.58414 -73.020981 
L 202.633446 -72.6222 
L 203.682751 -72.230551 
L 204.732057 -71.845905 
L 205.781363 -71.468138 
L 206.830668 -71.097127 
L 207.879974 -70.732751 
L 208.929279 -70.374891 
L 209.978585 -70.023431 
L 211.027891 -69.678256 
L 212.077196 -69.339254 
L 213.126502 -69.006314 
L 214.175807 -68.679328 
L 215.225113 -68.35819 
L 216.274419 -68.042795 
L 217.323724 -67.73304 
L 218.37303 -67.428825 
L 219.422335 -67.13005 
L 220.471641 -66.836618 
L 221.520947 -66.548434 
L 222.570252 -66.265403 
L 223.619558 -65.987434 
L 224.668864 -65.714436 
L 225.718169 -65.44632 
L 226.767475 -65.182998 
L 227.81678 -64.924386 
L 228.866086 -64.670399 
L 229.915392 -64.420953 
L 230.964697 -64.175969 
L 232.014003 -63.935366 
L 233.063308 -63.699065 
L 234.112614 -63.466991 
L 235.16192 -63.239066 
L 236.211225 -63.015218 
L 237.260531 -62.795373 
L 238.309836 -62.579459 
L 239.359142 -62.367407 
L 240.408448 -62.159146 
L 241.457753 -61.95461 
L 242.507059 -61.753732 
L 243.556365 -61.556447 
L 244.60567 -61.362689 
L 245.654976 -61.172396 
L 246.704281 -60.985507 
L 247.753587 -60.801959 
L 248.802893 -60.621695 
L 249.852198 -60.444653 
L 250.901504 -60.270778 
L 251.950809 -60.100013 
L 253.000115 -59.932301 
L 254.049421 -59.767588 
L 255.098726 -59.605821 
L 256.148032 -59.446947 
L 257.197337 -59.290914 
L 258.246643 -59.137672 
L 259.295949 -58.98717 
L 260.345254 -58.839359 
L 261.39456 -58.694192 
L 262.443866 -58.551621 
L 263.493171 -58.411599 
L 264.542477 -58.274082 
L 265.591782 -58.139024 
L 266.641088 -58.006381 
L 267.690394 -57.87611 
L 268.739699 -57.748169 
L 269.789005 -57.622516 
L 270.83831 -57.49911 
L 271.887616 -57.377911 
L 272.936922 -57.258879 
L 273.986227 -57.141976 
L 275.035533 -57.027163 
L 276.084838 -56.914404 
L 277.134144 -56.803662 
L 278.18345 -56.694899 
L 279.232755 -56.588082 
L 280.282061 -56.483175 
L 281.331367 -56.380144 
L 282.380672 -56.278956 
L 283.429978 -56.179577 
L 284.479283 -56.081975 
L 285.528589 -55.986119 
L 286.577895 -55.891977 
L 287.6272 -55.799519 
L 288.676506 -55.708714 
L 289.725811 -55.619533 
L 290.775117 -55.531947 
L 291.824423 -55.445927 
L 292.873728 -55.361445 
L 293.923034 -55.278475 
L 294.972339 -55.196988 
L 296.021645 -55.116958 
L 297.070951 -55.03836 
L 298.120256 -54.961167 
L 299.169562 -54.885354 
L 300.218868 -54.810898 
L 301.268173 -54.737773 
L 302.317479 -54.665955 
L 303.366784 -54.595422 
L 304.41609 -54.52615 
L 305.465396 -54.458118 
L 306.514701 -54.391301 
L 307.564007 -54.32568 
L 308.613312 -54.261232 
L 309.662618 -54.197937 
L 310.711924 -54.135773 
L 311.761229 -54.074722 
L 312.810535 -54.014762 
L 313.85984 -53.955874 
L 314.909146 -53.89804 
L 315.958452 -53.84124 
L 317.007757 -53.785455 
L 318.057063 -53.730668 
L 319.106369 -53.676861 
L 320.155674 -53.624016 
L 321.20498 -53.572117 
L 322.254285 -53.521145 
L 323.303591 -53.471085 
L 324.352897 -53.42192 
L 325.402202 -53.373634 
L 326.451508 -53.326212 
L 327.500813 -53.279638 
L 328.550119 -53.233897 
L 329.599425 -53.188974 
L 330.64873 -53.144854 
L 331.698036 -53.101523 
L 332.747341 -53.058967 
L 333.796647 -53.017172 
L 334.845953 -52.976125 
L 335.895258 -52.935812 
L 336.944564 -52.896219 
L 337.99387 -52.857335 
L 339.043175 -52.819146 
L 340.092481 -52.78164 
L 341.141786 -52.744804 
L 342.191092 -52.708628 
L 343.240398 -52.673098 
L 344.289703 -52.638204 
L 345.339009 -52.603934 
L 346.388314 -52.570276 
L 347.43762 -52.537221 
L 348.486926 -52.504756 
L 349.536231 -52.472873 
L 350.585537 -52.441559 
L 351.634842 -52.410805 
L 352.684148 -52.380602 
L 353.733454 -52.350938 
L 354.782759 -52.321805 
L 355.832065 -52.293193 
L 356.881371 -52.265093 
L 357.930676 -52.237495 
L 358.979982 -52.210391 
L 360.029287 -52.183772 
L 361.078593 -52.157628 
L 362.127899 -52.131952 
L 363.177204 -52.106735 
L 364.22651 -52.081969 
L 365.275815 -52.057646 
L 366.325121 -52.033759 
L 367.374427 -52.010298 
L 368.423732 -51.987257 
L 369.473038 -51.964627 
L 370.522343 -51.942403 
L 371.571649 -51.920576 
L 372.620955 -51.899139 
L 373.67026 -51.878086 
L 374.719566 -51.857409 
L 375.768871 -51.837102 
L 376.818177 -51.817158 
L 377.867483 -51.797571 
L 378.916788 -51.778334 
L 379.966094 -51.759441 
L 381.0154 -51.740886 
L 382.064705 -51.722663 
L 383.114011 -51.704765 
L 384.163316 -51.687188 
L 385.212622 -51.669925 
L 386.261928 -51.652971 
L 387.311233 -51.63632 
L 388.360539 -51.619966 
L 389.409844 -51.603906 
L 390.45915 -51.588132 
L 391.508456 -51.57264 
L 392.557761 -51.557426 
L 393.607067 -51.542484 
L 394.656372 -51.527808 
L 395.705678 -51.513396 
L 396.754984 -51.499241 
L 397.804289 -51.485339 
L 398.853595 -51.471686 
L 399.902901 -51.458277 
L 400.952206 -51.445107 
L 402.001512 -51.432174 
L 403.050817 -51.419471 
L 404.100123 -51.406996 
L 405.149429 -51.394744 
L 406.198734 -51.38271 
L 407.24804 -51.370893 
L 408.297345 -51.359286 
L 409.346651 -51.347887 
L 410.395957 -51.336692 
L 411.445262 -51.325697 
L 412.494568 -51.314899 
L 413.543873 -51.304293 
L 414.593179 -51.293878 
L 415.642485 -51.283649 
L 416.69179 -51.273602 
L 417.741096 -51.263736 
L 418.790402 -51.254045 
L 419.839707 -51.244528 
L 420.889013 -51.235182 
L 421.938318 -51.226002 
L 422.987624 -51.216987 
L 424.03693 -51.208132 
L 425.086235 -51.199436 
L 426.135541 -51.190896 
L 427.184846 -51.182508 
L 428.234152 -51.174271 
L 429.283458 -51.166181 
L 430.332763 -51.158235 
L 431.382069 -51.150431 
L 432.431374 -51.142767 
L 433.48068 -51.13524 
L 434.529986 -51.127848 
L 435.579291 -51.120588 
L 436.628597 -51.113458 
L 437.677903 -51.106455 
L 438.727208 -51.099577 
L 439.776514 -51.092823 
L 440.825819 -51.086189 
L 441.875125 -51.079674 
L 442.924431 -51.073275 
L 443.973736 -51.066991 
L 445.023042 -51.060819 
L 446.072347 -51.054758 
L 447.121653 -51.048805 
L 448.170959 -51.042958 
L 449.220264 -51.037216 
L 450.26957 -51.031577 
L 451.318875 -51.026038 
L 452.368181 -51.020599 
L 453.417487 -51.015257 
L 454.466792 -51.01001 
L 455.516098 -51.004857 
L 456.565404 -50.999797 
L 457.614709 -50.994827 
L 458.664015 -50.989945 
L 459.71332 -50.985151 
L 460.762626 -50.980443 
L 461.811932 -50.975819 
L 462.861237 -50.971278 
L 463.910543 -50.966818 
L 464.959848 -50.962437 
L 466.009154 -50.958135 
L 467.05846 -50.95391 
L 468.107765 -50.94976 
L 469.157071 -50.945685 
L 470.206376 -50.941683 
L 471.255682 -50.937752 
L 472.304988 -50.933891 
L 473.354293 -50.9301 
L 474.403599 -50.926376 
L 475.452905 -50.922719 
L 476.50221 -50.919127 
L 477.551516 -50.9156 
L 478.600821 -50.912135 
L 479.650127 -50.908733 
L 480.699433 -50.905391 
L 481.748738 -50.902109 
L 482.798044 -50.898886 
L 483.847349 -50.89572 
L 484.896655 -50.892612 
L 485.945961 -50.889558 
L 485.945961 -50.721875 
L 485.945961 -50.721875 
L 484.896655 -50.721875 
L 483.847349 -50.721875 
L 482.798044 -50.721875 
L 481.748738 -50.721875 
L 480.699433 -50.721875 
L 479.650127 -50.721875 
L 478.600821 -50.721875 
L 477.551516 -50.721875 
L 476.50221 -50.721875 
L 475.452905 -50.721875 
L 474.403599 -50.721875 
L 473.354293 -50.721875 
L 472.304988 -50.721875 
L 471.255682 -50.721875 
L 470.206376 -50.721875 
L 469.157071 -50.721875 
L 468.107765 -50.721875 
L 467.05846 -50.721875 
L 466.009154 -50.721875 
L 464.959848 -50.721875 
L 463.910543 -50.721875 
L 462.861237 -50.721875 
L 461.811932 -50.721875 
L 460.762626 -50.721875 
L 459.71332 -50.721875 
L 458.664015 -50.721875 
L 457.614709 -50.721875 
L 456.565404 -50.721875 
L 455.516098 -50.721875 
L 454.466792 -50.721875 
L 453.417487 -50.721875 
L 452.368181 -50.721875 
L 451.318875 -50.721875 
L 450.26957 -50.721875 
L 449.220264 -50.721875 
L 448.170959 -50.721875 
L 447.121653 -50.721875 
L 446.072347 -50.721875 
L 445.023042 -50.721875 
L 443.973736 -50.721875 
L 442.924431 -50.721875 
L 441.875125 -50.721875 
L 440.825819 -50.721875 
L 439.776514 -50.721875 
L 438.727208 -50.721875 
L 437.677903 -50.721875 
L 436.628597 -50.721875 
L 435.579291 -50.721875 
L 434.529986 -50.721875 
L 433.48068 -50.721875 
L 432.431374 -50.721875 
L 431.382069 -50.721875 
L 430.332763 -50.721875 
L 429.283458 -50.721875 
L 428.234152 -50.721875 
L 427.184846 -50.721875 
L 426.135541 -50.721875 
L 425.086235 -50.721875 
L 424.03693 -50.721875 
L 422.987624 -50.721875 
L 421.938318 -50.721875 
L 420.889013 -50.721875 
L 419.839707 -50.721875 
L 418.790402 -50.721875 
L 417.741096 -50.721875 
L 416.69179 -50.721875 
L 415.642485 -50.721875 
L 414.593179 -50.721875 
L 413.543873 -50.721875 
L 412.494568 -50.721875 
L 411.445262 -50.721875 
L 410.395957 -50.721875 
L 409.346651 -50.721875 
L 408.297345 -50.721875 
L 407.24804 -50.721875 
L 406.198734 -50.721875 
L 405.149429 -50.721875 
L 404.100123 -50.721875 
L 403.050817 -50.721875 
L 402.001512 -50.721875 
L 400.952206 -50.721875 
L 399.902901 -50.721875 
L 398.853595 -50.721875 
L 397.804289 -50.721875 
L 396.754984 -50.721875 
L 395.705678 -50.721875 
L 394.656372 -50.721875 
L 393.607067 -50.721875 
L 392.557761 -50.721875 
L 391.508456 -50.721875 
L 390.45915 -50.721875 
L 389.409844 -50.721875 
L 388.360539 -50.721875 
L 387.311233 -50.721875 
L 386.261928 -50.721875 
L 385.212622 -50.721875 
L 384.163316 -50.721875 
L 383.114011 -50.721875 
L 382.064705 -50.721875 
L 381.0154 -50.721875 
L 379.966094 -50.721875 
L 378.916788 -50.721875 
L 377.867483 -50.721875 
L 376.818177 -50.721875 
L 375.768871 -50.721875 
L 374.719566 -50.721875 
L 373.67026 -50.721875 
L 372.620955 -50.721875 
L 371.571649 -50.721875 
L 370.522343 -50.721875 
L 369.473038 -50.721875 
L 368.423732 -50.721875 
L 367.374427 -50.721875 
L 366.325121 -50.721875 
L 365.275815 -50.721875 
L 364.22651 -50.721875 
L 363.177204 -50.721875 
L 362.127899 -50.721875 
L 361.078593 -50.721875 
L 360.029287 -50.721875 
L 358.979982 -50.721875 
L 357.930676 -50.721875 
L 356.881371 -50.721875 
L 355.832065 -50.721875 
L 354.782759 -50.721875 
L 353.733454 -50.721875 
L 352.684148 -50.721875 
L 351.634842 -50.721875 
L 350.585537 -50.721875 
L 349.536231 -50.721875 
L 348.486926 -50.721875 
L 347.43762 -50.721875 
L 346.388314 -50.721875 
L 345.339009 -50.721875 
L 344.289703 -50.721875 
L 343.240398 -50.721875 
L 342.191092 -50.721875 
L 341.141786 -50.721875 
L 340.092481 -50.721875 
L 339.043175 -50.721875 
L 337.99387 -50.721875 
L 336.944564 -50.721875 
L 335.895258 -50.721875 
L 334.845953 -50.721875 
L 333.796647 -50.721875 
L 332.747341 -50.721875 
L 331.698036 -50.721875 
L 330.64873 -50.721875 
L 329.599425 -50.721875 
L 328.550119 -50.721875 
L 327.500813 -50.721875 
L 326.451508 -50.721875 
L 325.402202 -50.721875 
L 324.352897 -50.721875 
L 323.303591 -50.721875 
L 322.254285 -50.721875 
L 321.20498 -50.721875 
L 320.155674 -50.721875 
L 319.106369 -50.721875 
L 318.057063 -50.721875 
L 317.007757 -50.721875 
L 315.958452 -50.721875 
L 314.909146 -50.721875 
L 313.85984 -50.721875 
L 312.810535 -50.721875 
L 311.761229 -50.721875 
L 310.711924 -50.721875 
L 309.662618 -50.721875 
L 308.613312 -50.721875 
L 307.564007 -50.721875 
L 306.514701 -50.721875 
L 305.465396 -50.721875 
L 304.41609 -50.721875 
L 303.366784 -50.721875 
L 302.317479 -50.721875 
L 301.268173 -50.721875 
L 300.218868 -50.721875 
L 299.169562 -50.721875 
L 298.120256 -50.721875 
L 297.070951 -50.721875 
L 296.021645 -50.721875 
L 294.972339 -50.721875 
L 293.923034 -50.721875 
L 292.873728 -50.721875 
L 291.824423 -50.721875 
L 290.775117 -50.721875 
L 289.725811 -50.721875 
L 288.676506 -50.721875 
L 287.6272 -50.721875 
L 286.577895 -50.721875 
L 285.528589 -50.721875 
L 284.479283 -50.721875 
L 283.429978 -50.721875 
L 282.380672 -50.721875 
L 281.331367 -50.721875 
L 280.282061 -50.721875 
L 279.232755 -50.721875 
L 278.18345 -50.721875 
L 277.134144 -50.721875 
L 276.084838 -50.721875 
L 275.035533 -50.721875 
L 273.986227 -50.721875 
L 272.936922 -50.721875 
L 271.887616 -50.721875 
L 270.83831 -50.721875 
L 269.789005 -50.721875 
L 268.739699 -50.721875 
L 267.690394 -50.721875 
L 266.641088 -50.721875 
L 265.591782 -50.721875 
L 264.542477 -50.721875 
L 263.493171 -50.721875 
L 262.443866 -50.721875 
L 261.39456 -50.721875 
L 260.345254 -50.721875 
L 259.295949 -50.721875 
L 258.246643 -50.721875 
L 257.197337 -50.721875 
L 256.148032 -50.721875 
L 255.098726 -50.721875 
L 254.049421 -50.721875 
L 253.000115 -50.721875 
L 251.950809 -50.721875 
L 250.901504 -50.721875 
L 249.852198 -50.721875 
L 248.802893 -50.721875 
L 247.753587 -50.721875 
L 246.704281 -50.721875 
L 245.654976 -50.721875 
L 244.60567 -50.721875 
L 243.556365 -50.721875 
L 242.507059 -50.721875 
L 241.457753 -50.721875 
L 240.408448 -50.721875 
L 239.359142 -50.721875 
L 238.309836 -50.721875 
L 237.260531 -50.721875 
L 236.211225 -50.721875 
L 235.16192 -50.721875 
L 234.112614 -50.721875 
L 233.063308 -50.721875 
L 232.014003 -50.721875 
L 230.964697 -50.721875 
L 229.915392 -50.721875 
L 228.866086 -50.721875 
L 227.81678 -50.721875 
L 226.767475 -50.721875 
L 225.718169 -50.721875 
L 224.668864 -50.721875 
L 223.619558 -50.721875 
L 222.570252 -50.721875 
L 221.520947 -50.721875 
L 220.471641 -50.721875 
L 219.422335 -50.721875 
L 218.37303 -50.721875 
L 217.323724 -50.721875 
L 216.274419 -50.721875 
L 215.225113 -50.721875 
L 214.175807 -50.721875 
L 213.126502 -50.721875 
L 212.077196 -50.721875 
L 211.027891 -50.721875 
L 209.978585 -50.721875 
L 208.929279 -50.721875 
L 207.879974 -50.721875 
L 206.830668 -50.721875 
L 205.781363 -50.721875 
L 204.732057 -50.721875 
L 203.682751 -50.721875 
L 202.633446 -50.721875 
L 201.58414 -50.721875 
L 200.534834 -50.721875 
L 199.485529 -50.721875 
L 198.436223 -50.721875 
L 197.386918 -50.721875 
L 196.337612 -50.721875 
L 195.288306 -50.721875 
L 194.239001 -50.721875 
L 193.189695 -50.721875 
L 192.14039 -50.721875 
L 191.091084 -50.721875 
L 190.041778 -50.721875 
L 188.992473 -50.721875 
L 187.943167 -50.721875 
L 186.893862 -50.721875 
L 185.844556 -50.721875 
L 184.79525 -50.721875 
L 183.745945 -50.721875 
L 182.696639 -50.721875 
L 181.647334 -50.721875 
L 180.598028 -50.721875 
L 179.548722 -50.721875 
L 178.499417 -50.721875 
L 177.450111 -50.721875 
L 176.400805 -50.721875 
L 175.3515 -50.721875 
L 174.302194 -50.721875 
L 173.252889 -50.721875 
L 172.203583 -50.721875 
L 171.154277 -50.721875 
L 170.104972 -50.721875 
L 169.055666 -50.721875 
L 168.006361 -50.721875 
L 166.957055 -50.721875 
L 165.907749 -50.721875 
L 164.858444 -50.721875 
L 163.809138 -50.721875 
L 162.759833 -50.721875 
L 161.710527 -50.721875 
L 160.661221 -50.721875 
L 159.611916 -50.721875 
L 158.56261 -50.721875 
L 157.513304 -50.721875 
L 156.463999 -50.721875 
L 155.414693 -50.721875 
L 154.365388 -50.721875 
L 153.316082 -50.721875 
L 152.266776 -50.721875 
L 151.217471 -50.721875 
L 150.168165 -50.721875 
L 149.11886 -50.721875 
L 148.069554 -50.721875 
L 147.020248 -50.721875 
L 145.970943 -50.721875 
L 144.921637 -50.721875 
L 143.872332 -50.721875 
L 142.823026 -50.721875 
L 141.77372 -50.721875 
L 140.724415 -50.721875 
L 139.675109 -50.721875 
L 138.625803 -50.721875 
L 137.576498 -50.721875 
L 136.527192 -50.721875 
L 135.477887 -50.721875 
L 134.428581 -50.721875 
L 133.379275 -50.721875 
L 132.32997 -50.721875 
L 131.280664 -50.721875 
L 130.231359 -50.721875 
L 129.182053 -50.721875 
L 128.132747 -50.721875 
L 127.083442 -50.721875 
L 126.034136 -50.721875 
L 124.984831 -50.721875 
L 123.935525 -50.721875 
L 122.886219 -50.721875 
L 121.836914 -50.721875 
L 120.787608 -50.721875 
L 119.738302 -50.721875 
L 118.688997 -50.721875 
L 117.639691 -50.721875 
L 116.590386 -50.721875 
L 115.54108 -50.721875 
L 114.491774 -50.721875 
L 113.442469 -50.721875 
L 112.393163 -50.721875 
L 111.343858 -50.721875 
L 110.294552 -50.721875 
L 109.245246 -50.721875 
L 108.195941 -50.721875 
L 107.146635 -50.721875 
L 106.09733 -50.721875 
L 105.048024 -50.721875 
L 103.998718 -50.721875 
L 102.949413 -50.721875 
L 101.900107 -50.721875 
L 100.850801 -50.721875 
L 99.801496 -50.721875 
L 98.75219 -50.721875 
L 97.702885 -50.721875 
L 96.653579 -50.721875 
L 95.604273 -50.721875 
L 94.554968 -50.721875 
L 93.505662 -50.721875 
L 92.456357 -50.721875 
L 91.407051 -50.721875 
L 90.357745 -50.721875 
L 89.30844 -50.721875 
L 88.259134 -50.721875 
L 87.209829 -50.721875 
L 86.160523 -50.721875 
L 85.111217 -50.721875 
L 84.061912 -50.721875 
L 83.012606 -50.721875 
L 81.9633 -50.721875 
L 80.913995 -50.721875 
L 79.864689 -50.721875 
L 78.815384 -50.721875 
L 77.766078 -50.721875 
L 76.716772 -50.721875 
L 75.667467 -50.721875 
L 74.618161 -50.721875 
L 73.568856 -50.721875 
L 72.51955 -50.721875 
L 71.470244 -50.721875 
L 70.420939 -50.721875 
L 69.371633 -50.721875 
L 68.322328 -50.721875 
L 67.273022 -50.721875 
z
" style="stroke: #c4b5fd; stroke-opacity: 0.4"/>
    </defs>
    <g clip-path="url(#p3f39646af8)">
     <use xlink:href="#m6e37dad4dd" x="0" y="340.899875" style="fill: #c4b5fd; fill-opacity: 0.4; stroke: #c4b5fd; stroke-opacity: 0.4"/>
    </g>
   </g>
   <g id="matplotlib.axis_1">
    <g id="xtick_1">
     <g id="line2d_1">
      <path d="M 67.273022 301.408 
L 67.273022 54.348 
" clip-path="url(#p3f39646af8)" style="fill: none; stroke: #94a3b8; stroke-opacity: 0.22; stroke-width: 0.8; stroke-linecap: square"/>
     </g>
     <g id="line2d_2">
      <defs>
       <path id="m08586c22dd" d="M 0 0 
L 0 3.5 
" style="stroke: #475569; stroke-width: 0.8"/>
      </defs>
      <g>
       <use xlink:href="#m08586c22dd" x="67.273022" y="301.408" style="fill: #475569; stroke: #475569; stroke-width: 0.8"/>
      </g>
     </g>
     <g id="text_1">
      <!-- 0 -->
      <g style="fill: #475569" transform="translate(63.773647 316.766281) scale(0.11 -0.11)">
       <defs>
        <path id="DejaVuSans-30" d="M 2034 4250 
Q 1547 4250 1301 3770 
Q 1056 3291 1056 2328 
Q 1056 1369 1301 889 
Q 1547 409 2034 409 
Q 2525 409 2770 889 
Q 3016 1369 3016 2328 
Q 3016 3291 2770 3770 
Q 2525 4250 2034 4250 
z
M 2034 4750 
Q 2819 4750 3233 4129 
Q 3647 3509 3647 2328 
Q 3647 1150 3233 529 
Q 2819 -91 2034 -91 
Q 1250 -91 836 529 
Q 422 1150 422 2328 
Q 422 3509 836 4129 
Q 1250 4750 2034 4750 
z
" transform="scale(0.015625)"/>
       </defs>
       <use xlink:href="#DejaVuSans-30"/>
      </g>
     </g>
    </g>
    <g id="xtick_2">
     <g id="line2d_3">
      <path d="M 137.051845 301.408 
L 137.051845 54.348 
" clip-path="url(#p3f39646af8)" style="fill: none; stroke: #94a3b8; stroke-opacity: 0.22; stroke-width: 0.8; stroke-linecap: square"/>
     </g>
     <g id="line2d_4">
      <g>
       <use xlink:href="#m08586c22dd" x="137.051845" y="301.408" style="fill: #475569; stroke: #475569; stroke-width: 0.8"/>
      </g>
     </g>
     <g id="text_2">
      <!-- 1 -->
      <g style="fill: #475569" transform="translate(133.55247 316.766281) scale(0.11 -0.11)">
       <defs>
        <path id="DejaVuSans-31" d="M 794 531 
L 1825 531 
L 1825 4091 
L 703 3866 
L 703 4441 
L 1819 4666 
L 2450 4666 
L 2450 531 
L 3481 531 
L 3481 0 
L 794 0 
L 794 531 
z
" transform="scale(0.015625)"/>
       </defs>
       <use xlink:href="#DejaVuSans-31"/>
      </g>
     </g>
    </g>
    <g id="xtick_3">
     <g id="line2d_5">
      <path d="M 206.830668 301.408 
L 206.830668 54.348 
" clip-path="url(#p3f39646af8)" style="fill: none; stroke: #94a3b8; stroke-opacity: 0.22; stroke-width: 0.8; stroke-linecap: square"/>
     </g>
     <g id="line2d_6">
      <g>
       <use xlink:href="#m08586c22dd" x="206.830668" y="301.408" style="fill: #475569; stroke: #475569; stroke-width: 0.8"/>
      </g>
     </g>
     <g id="text_3">
      <!-- 2 -->
      <g style="fill: #475569" transform="translate(203.331293 316.766281) scale(0.11 -0.11)">
       <defs>
        <path id="DejaVuSans-32" d="M 1228 531 
L 3431 531 
L 3431 0 
L 469 0 
L 469 531 
Q 828 903 1448 1529 
Q 2069 2156 2228 2338 
Q 2531 2678 2651 2914 
Q 2772 3150 2772 3378 
Q 2772 3750 2511 3984 
Q 2250 4219 1831 4219 
Q 1534 4219 1204 4116 
Q 875 4013 500 3803 
L 500 4441 
Q 881 4594 1212 4672 
Q 1544 4750 1819 4750 
Q 2544 4750 2975 4387 
Q 3406 4025 3406 3419 
Q 3406 3131 3298 2873 
Q 3191 2616 2906 2266 
Q 2828 2175 2409 1742 
Q 1991 1309 1228 531 
z
" transform="scale(0.015625)"/>
       </defs>
       <use xlink:href="#DejaVuSans-32"/>
      </g>
     </g>
    </g>
    <g id="xtick_4">
     <g id="line2d_7">
      <path d="M 276.609491 301.408 
L 276.609491 54.348 
" clip-path="url(#p3f39646af8)" style="fill: none; stroke: #94a3b8; stroke-opacity: 0.22; stroke-width: 0.8; stroke-linecap: square"/>
     </g>
     <g id="line2d_8">
      <g>
       <use xlink:href="#m08586c22dd" x="276.609491" y="301.408" style="fill: #475569; stroke: #475569; stroke-width: 0.8"/>
      </g>
     </g>
     <g id="text_4">
      <!-- 3 -->
      <g style="fill: #475569" transform="translate(273.110116 316.766281) scale(0.11 -0.11)">
       <defs>
        <path id="DejaVuSans-33" d="M 2597 2516 
Q 3050 2419 3304 2112 
Q 3559 1806 3559 1356 
Q 3559 666 3084 287 
Q 2609 -91 1734 -91 
Q 1441 -91 1130 -33 
Q 819 25 488 141 
L 488 750 
Q 750 597 1062 519 
Q 1375 441 1716 441 
Q 2309 441 2620 675 
Q 2931 909 2931 1356 
Q 2931 1769 2642 2001 
Q 2353 2234 1838 2234 
L 1294 2234 
L 1294 2753 
L 1863 2753 
Q 2328 2753 2575 2939 
Q 2822 3125 2822 3475 
Q 2822 3834 2567 4026 
Q 2313 4219 1838 4219 
Q 1578 4219 1281 4162 
Q 984 4106 628 3988 
L 628 4550 
Q 988 4650 1302 4700 
Q 1616 4750 1894 4750 
Q 2613 4750 3031 4423 
Q 3450 4097 3450 3541 
Q 3450 3153 3228 2886 
Q 3006 2619 2597 2516 
z
" transform="scale(0.015625)"/>
       </defs>
       <use xlink:href="#DejaVuSans-33"/>
      </g>
     </g>
    </g>
    <g id="xtick_5">
     <g id="line2d_9">
      <path d="M 346.388314 301.408 
L 346.388314 54.348 
" clip-path="url(#p3f39646af8)" style="fill: none; stroke: #94a3b8; stroke-opacity: 0.22; stroke-width: 0.8; stroke-linecap: square"/>
     </g>
     <g id="line2d_10">
      <g>
       <use xlink:href="#m08586c22dd" x="346.388314" y="301.408" style="fill: #475569; stroke: #475569; stroke-width: 0.8"/>
      </g>
     </g>
     <g id="text_5">
      <!-- 4 -->
      <g style="fill: #475569" transform="translate(342.888939 316.766281) scale(0.11 -0.11)">
       <defs>
        <path id="DejaVuSans-34" d="M 2419 4116 
L 825 1625 
L 2419 1625 
L 2419 4116 
z
M 2253 4666 
L 3047 4666 
L 3047 1625 
L 3713 1625 
L 3713 1100 
L 3047 1100 
L 3047 0 
L 2419 0 
L 2419 1100 
L 313 1100 
L 313 1709 
L 2253 4666 
z
" transform="scale(0.015625)"/>
       </defs>
       <use xlink:href="#DejaVuSans-34"/>
      </g>
     </g>
    </g>
    <g id="xtick_6">
     <g id="line2d_11">
      <path d="M 416.167138 301.408 
L 416.167138 54.348 
" clip-path="url(#p3f39646af8)" style="fill: none; stroke: #94a3b8; stroke-opacity: 0.22; stroke-width: 0.8; stroke-linecap: square"/>
     </g>
     <g id="line2d_12">
      <g>
       <use xlink:href="#m08586c22dd" x="416.167138" y="301.408" style="fill: #475569; stroke: #475569; stroke-width: 0.8"/>
      </g>
     </g>
     <g id="text_6">
      <!-- 5 -->
      <g style="fill: #475569" transform="translate(412.667763 316.766281) scale(0.11 -0.11)">
       <defs>
        <path id="DejaVuSans-35" d="M 691 4666 
L 3169 4666 
L 3169 4134 
L 1269 4134 
L 1269 2991 
Q 1406 3038 1543 3061 
Q 1681 3084 1819 3084 
Q 2600 3084 3056 2656 
Q 3513 2228 3513 1497 
Q 3513 744 3044 326 
Q 2575 -91 1722 -91 
Q 1428 -91 1123 -41 
Q 819 9 494 109 
L 494 744 
Q 775 591 1075 516 
Q 1375 441 1709 441 
Q 2250 441 2565 725 
Q 2881 1009 2881 1497 
Q 2881 1984 2565 2268 
Q 2250 2553 1709 2553 
Q 1456 2553 1204 2497 
Q 953 2441 691 2322 
L 691 4666 
z
" transform="scale(0.015625)"/>
       </defs>
       <use xlink:href="#DejaVuSans-35"/>
      </g>
     </g>
    </g>
    <g id="xtick_7">
     <g id="line2d_13">
      <path d="M 485.945961 301.408 
L 485.945961 54.348 
" clip-path="url(#p3f39646af8)" style="fill: none; stroke: #94a3b8; stroke-opacity: 0.22; stroke-width: 0.8; stroke-linecap: square"/>
     </g>
     <g id="line2d_14">
      <g>
       <use xlink:href="#m08586c22dd" x="485.945961" y="301.408" style="fill: #475569; stroke: #475569; stroke-width: 0.8"/>
      </g>
     </g>
     <g id="text_7">
      <!-- 6 -->
      <g style="fill: #475569" transform="translate(482.446586 316.766281) scale(0.11 -0.11)">
       <defs>
        <path id="DejaVuSans-36" d="M 2113 2584 
Q 1688 2584 1439 2293 
Q 1191 2003 1191 1497 
Q 1191 994 1439 701 
Q 1688 409 2113 409 
Q 2538 409 2786 701 
Q 3034 994 3034 1497 
Q 3034 2003 2786 2293 
Q 2538 2584 2113 2584 
z
M 3366 4563 
L 3366 3988 
Q 3128 4100 2886 4159 
Q 2644 4219 2406 4219 
Q 1781 4219 1451 3797 
Q 1122 3375 1075 2522 
Q 1259 2794 1537 2939 
Q 1816 3084 2150 3084 
Q 2853 3084 3261 2657 
Q 3669 2231 3669 1497 
Q 3669 778 3244 343 
Q 2819 -91 2113 -91 
Q 1303 -91 875 529 
Q 447 1150 447 2328 
Q 447 3434 972 4092 
Q 1497 4750 2381 4750 
Q 2619 4750 2861 4703 
Q 3103 4656 3366 4563 
z
" transform="scale(0.015625)"/>
       </defs>
       <use xlink:href="#DejaVuSans-36"/>
      </g>
     </g>
    </g>
    <g id="text_8">
     <!-- Time until next event -->
     <g style="fill: #334155" transform="translate(217.874648 331.412219) scale(0.11 -0.11)">
      <defs>
       <path id="DejaVuSans-54" d="M -19 4666 
L 3928 4666 
L 3928 4134 
L 2272 4134 
L 2272 0 
L 1638 0 
L 1638 4134 
L -19 4134 
L -19 4666 
z
" transform="scale(0.015625)"/>
       <path id="DejaVuSans-69" d="M 603 3500 
L 1178 3500 
L 1178 0 
L 603 0 
L 603 3500 
z
M 603 4863 
L 1178 4863 
L 1178 4134 
L 603 4134 
L 603 4863 
z
" transform="scale(0.015625)"/>
       <path id="DejaVuSans-6d" d="M 3328 2828 
Q 3544 3216 3844 3400 
Q 4144 3584 4550 3584 
Q 5097 3584 5394 3201 
Q 5691 2819 5691 2113 
L 5691 0 
L 5113 0 
L 5113 2094 
Q 5113 2597 4934 2840 
Q 4756 3084 4391 3084 
Q 3944 3084 3684 2787 
Q 3425 2491 3425 1978 
L 3425 0 
L 2847 0 
L 2847 2094 
Q 2847 2600 2669 2842 
Q 2491 3084 2119 3084 
Q 1678 3084 1418 2786 
Q 1159 2488 1159 1978 
L 1159 0 
L 581 0 
L 581 3500 
L 1159 3500 
L 1159 2956 
Q 1356 3278 1631 3431 
Q 1906 3584 2284 3584 
Q 2666 3584 2933 3390 
Q 3200 3197 3328 2828 
z
" transform="scale(0.015625)"/>
       <path id="DejaVuSans-65" d="M 3597 1894 
L 3597 1613 
L 953 1613 
Q 991 1019 1311 708 
Q 1631 397 2203 397 
Q 2534 397 2845 478 
Q 3156 559 3463 722 
L 3463 178 
Q 3153 47 2828 -22 
Q 2503 -91 2169 -91 
Q 1331 -91 842 396 
Q 353 884 353 1716 
Q 353 2575 817 3079 
Q 1281 3584 2069 3584 
Q 2775 3584 3186 3129 
Q 3597 2675 3597 1894 
z
M 3022 2063 
Q 3016 2534 2758 2815 
Q 2500 3097 2075 3097 
Q 1594 3097 1305 2825 
Q 1016 2553 972 2059 
L 3022 2063 
z
" transform="scale(0.015625)"/>
       <path id="DejaVuSans-20" transform="scale(0.015625)"/>
       <path id="DejaVuSans-75" d="M 544 1381 
L 544 3500 
L 1119 3500 
L 1119 1403 
Q 1119 906 1312 657 
Q 1506 409 1894 409 
Q 2359 409 2629 706 
Q 2900 1003 2900 1516 
L 2900 3500 
L 3475 3500 
L 3475 0 
L 2900 0 
L 2900 538 
Q 2691 219 2414 64 
Q 2138 -91 1772 -91 
Q 1169 -91 856 284 
Q 544 659 544 1381 
z
M 1991 3584 
L 1991 3584 
z
" transform="scale(0.015625)"/>
       <path id="DejaVuSans-6e" d="M 3513 2113 
L 3513 0 
L 2938 0 
L 2938 2094 
Q 2938 2591 2744 2837 
Q 2550 3084 2163 3084 
Q 1697 3084 1428 2787 
Q 1159 2491 1159 1978 
L 1159 0 
L 581 0 
L 581 3500 
L 1159 3500 
L 1159 2956 
Q 1366 3272 1645 3428 
Q 1925 3584 2291 3584 
Q 2894 3584 3203 3211 
Q 3513 2838 3513 2113 
z
" transform="scale(0.015625)"/>
       <path id="DejaVuSans-74" d="M 1172 4494 
L 1172 3500 
L 2356 3500 
L 2356 3053 
L 1172 3053 
L 1172 1153 
Q 1172 725 1289 603 
Q 1406 481 1766 481 
L 2356 481 
L 2356 0 
L 1766 0 
Q 1100 0 847 248 
Q 594 497 594 1153 
L 594 3053 
L 172 3053 
L 172 3500 
L 594 3500 
L 594 4494 
L 1172 4494 
z
" transform="scale(0.015625)"/>
       <path id="DejaVuSans-6c" d="M 603 4863 
L 1178 4863 
L 1178 0 
L 603 0 
L 603 4863 
z
" transform="scale(0.015625)"/>
       <path id="DejaVuSans-78" d="M 3513 3500 
L 2247 1797 
L 3578 0 
L 2900 0 
L 1881 1375 
L 863 0 
L 184 0 
L 1544 1831 
L 300 3500 
L 978 3500 
L 1906 2253 
L 2834 3500 
L 3513 3500 
z
" transform="scale(0.015625)"/>
       <path id="DejaVuSans-76" d="M 191 3500 
L 800 3500 
L 1894 563 
L 2988 3500 
L 3597 3500 
L 2284 0 
L 1503 0 
L 191 3500 
z
" transform="scale(0.015625)"/>
      </defs>
      <use xlink:href="#DejaVuSans-54"/>
      <use xlink:href="#DejaVuSans-69" x="57.958984"/>
      <use xlink:href="#DejaVuSans-6d" x="85.742188"/>
      <use xlink:href="#DejaVuSans-65" x="183.154297"/>
      <use xlink:href="#DejaVuSans-20" x="244.677734"/>
      <use xlink:href="#DejaVuSans-75" x="276.464844"/>
      <use xlink:href="#DejaVuSans-6e" x="339.84375"/>
      <use xlink:href="#DejaVuSans-74" x="403.222656"/>
      <use xlink:href="#DejaVuSans-69" x="442.431641"/>
      <use xlink:href="#DejaVuSans-6c" x="470.214844"/>
      <use xlink:href="#DejaVuSans-20" x="497.998047"/>
      <use xlink:href="#DejaVuSans-6e" x="529.785156"/>
      <use xlink:href="#DejaVuSans-65" x="593.164062"/>
      <use xlink:href="#DejaVuSans-78" x="652.9375"/>
      <use xlink:href="#DejaVuSans-74" x="712.117188"/>
      <use xlink:href="#DejaVuSans-20" x="751.326172"/>
      <use xlink:href="#DejaVuSans-65" x="783.113281"/>
      <use xlink:href="#DejaVuSans-76" x="844.636719"/>
      <use xlink:href="#DejaVuSans-65" x="903.816406"/>
      <use xlink:href="#DejaVuSans-6e" x="965.339844"/>
      <use xlink:href="#DejaVuSans-74" x="1028.71875"/>
     </g>
    </g>
   </g>
   <g id="matplotlib.axis_2">
    <g id="ytick_1">
     <g id="line2d_15">
      <path d="M 46.339375 290.178 
L 506.879608 290.178 
" clip-path="url(#p3f39646af8)" style="fill: none; stroke: #94a3b8; stroke-opacity: 0.22; stroke-width: 0.8; stroke-linecap: square"/>
     </g>
     <g id="line2d_16">
      <defs>
       <path id="m02300af652" d="M 0 0 
L -3.5 0 
" style="stroke: #475569; stroke-width: 0.8"/>
      </defs>
      <g>
       <use xlink:href="#m02300af652" x="46.339375" y="290.178" style="fill: #475569; stroke: #475569; stroke-width: 0.8"/>
      </g>
     </g>
     <g id="text_9">
      <!-- 0.0 -->
      <g style="fill: #475569" transform="translate(21.845938 294.357141) scale(0.11 -0.11)">
       <defs>
        <path id="DejaVuSans-2e" d="M 684 794 
L 1344 794 
L 1344 0 
L 684 0 
L 684 794 
z
" transform="scale(0.015625)"/>
       </defs>
       <use xlink:href="#DejaVuSans-30"/>
       <use xlink:href="#DejaVuSans-2e" x="63.623047"/>
       <use xlink:href="#DejaVuSans-30" x="95.410156"/>
      </g>
     </g>
    </g>
    <g id="ytick_2">
     <g id="line2d_17">
      <path d="M 46.339375 252.744667 
L 506.879608 252.744667 
" clip-path="url(#p3f39646af8)" style="fill: none; stroke: #94a3b8; stroke-opacity: 0.22; stroke-width: 0.8; stroke-linecap: square"/>
     </g>
     <g id="line2d_18">
      <g>
       <use xlink:href="#m02300af652" x="46.339375" y="252.744667" style="fill: #475569; stroke: #475569; stroke-width: 0.8"/>
      </g>
     </g>
     <g id="text_10">
      <!-- 0.2 -->
      <g style="fill: #475569" transform="translate(21.845938 256.923807) scale(0.11 -0.11)">
       <use xlink:href="#DejaVuSans-30"/>
       <use xlink:href="#DejaVuSans-2e" x="63.623047"/>
       <use xlink:href="#DejaVuSans-32" x="95.410156"/>
      </g>
     </g>
    </g>
    <g id="ytick_3">
     <g id="line2d_19">
      <path d="M 46.339375 215.311333 
L 506.879608 215.311333 
" clip-path="url(#p3f39646af8)" style="fill: none; stroke: #94a3b8; stroke-opacity: 0.22; stroke-width: 0.8; stroke-linecap: square"/>
     </g>
     <g id="line2d_20">
      <g>
       <use xlink:href="#m02300af652" x="46.339375" y="215.311333" style="fill: #475569; stroke: #475569; stroke-width: 0.8"/>
      </g>
     </g>
     <g id="text_11">
      <!-- 0.4 -->
      <g style="fill: #475569" transform="translate(21.845938 219.490474) scale(0.11 -0.11)">
       <use xlink:href="#DejaVuSans-30"/>
       <use xlink:href="#DejaVuSans-2e" x="63.623047"/>
       <use xlink:href="#DejaVuSans-34" x="95.410156"/>
      </g>
     </g>
    </g>
    <g id="ytick_4">
     <g id="line2d_21">
      <path d="M 46.339375 177.878 
L 506.879608 177.878 
" clip-path="url(#p3f39646af8)" style="fill: none; stroke: #94a3b8; stroke-opacity: 0.22; stroke-width: 0.8; stroke-linecap: square"/>
     </g>
     <g id="line2d_22">
      <g>
       <use xlink:href="#m02300af652" x="46.339375" y="177.878" style="fill: #475569; stroke: #475569; stroke-width: 0.8"/>
      </g>
     </g>
     <g id="text_12">
      <!-- 0.6 -->
      <g style="fill: #475569" transform="translate(21.845938 182.057141) scale(0.11 -0.11)">
       <use xlink:href="#DejaVuSans-30"/>
       <use xlink:href="#DejaVuSans-2e" x="63.623047"/>
       <use xlink:href="#DejaVuSans-36" x="95.410156"/>
      </g>
     </g>
    </g>
    <g id="ytick_5">
     <g id="line2d_23">
      <path d="M 46.339375 140.444667 
L 506.879608 140.444667 
" clip-path="url(#p3f39646af8)" style="fill: none; stroke: #94a3b8; stroke-opacity: 0.22; stroke-width: 0.8; stroke-linecap: square"/>
     </g>
     <g id="line2d_24">
      <g>
       <use xlink:href="#m02300af652" x="46.339375" y="140.444667" style="fill: #475569; stroke: #475569; stroke-width: 0.8"/>
      </g>
     </g>
     <g id="text_13">
      <!-- 0.8 -->
      <g style="fill: #475569" transform="translate(21.845938 144.623807) scale(0.11 -0.11)">
       <defs>
        <path id="DejaVuSans-38" d="M 2034 2216 
Q 1584 2216 1326 1975 
Q 1069 1734 1069 1313 
Q 1069 891 1326 650 
Q 1584 409 2034 409 
Q 2484 409 2743 651 
Q 3003 894 3003 1313 
Q 3003 1734 2745 1975 
Q 2488 2216 2034 2216 
z
M 1403 2484 
Q 997 2584 770 2862 
Q 544 3141 544 3541 
Q 544 4100 942 4425 
Q 1341 4750 2034 4750 
Q 2731 4750 3128 4425 
Q 3525 4100 3525 3541 
Q 3525 3141 3298 2862 
Q 3072 2584 2669 2484 
Q 3125 2378 3379 2068 
Q 3634 1759 3634 1313 
Q 3634 634 3220 271 
Q 2806 -91 2034 -91 
Q 1263 -91 848 271 
Q 434 634 434 1313 
Q 434 1759 690 2068 
Q 947 2378 1403 2484 
z
M 1172 3481 
Q 1172 3119 1398 2916 
Q 1625 2713 2034 2713 
Q 2441 2713 2670 2916 
Q 2900 3119 2900 3481 
Q 2900 3844 2670 4047 
Q 2441 4250 2034 4250 
Q 1625 4250 1398 4047 
Q 1172 3844 1172 3481 
z
" transform="scale(0.015625)"/>
       </defs>
       <use xlink:href="#DejaVuSans-30"/>
       <use xlink:href="#DejaVuSans-2e" x="63.623047"/>
       <use xlink:href="#DejaVuSans-38" x="95.410156"/>
      </g>
     </g>
    </g>
    <g id="ytick_6">
     <g id="line2d_25">
      <path d="M 46.339375 103.011333 
L 506.879608 103.011333 
" clip-path="url(#p3f39646af8)" style="fill: none; stroke: #94a3b8; stroke-opacity: 0.22; stroke-width: 0.8; stroke-linecap: square"/>
     </g>
     <g id="line2d_26">
      <g>
       <use xlink:href="#m02300af652" x="46.339375" y="103.011333" style="fill: #475569; stroke: #475569; stroke-width: 0.8"/>
      </g>
     </g>
     <g id="text_14">
      <!-- 1.0 -->
      <g style="fill: #475569" transform="translate(21.845938 107.190474) scale(0.11 -0.11)">
       <use xlink:href="#DejaVuSans-31"/>
       <use xlink:href="#DejaVuSans-2e" x="63.623047"/>
       <use xlink:href="#DejaVuSans-30" x="95.410156"/>
      </g>
     </g>
    </g>
    <g id="ytick_7">
     <g id="line2d_27">
      <path d="M 46.339375 65.578 
L 506.879608 65.578 
" clip-path="url(#p3f39646af8)" style="fill: none; stroke: #94a3b8; stroke-opacity: 0.22; stroke-width: 0.8; stroke-linecap: square"/>
     </g>
     <g id="line2d_28">
      <g>
       <use xlink:href="#m02300af652" x="46.339375" y="65.578" style="fill: #475569; stroke: #475569; stroke-width: 0.8"/>
      </g>
     </g>
     <g id="text_15">
      <!-- 1.2 -->
      <g style="fill: #475569" transform="translate(21.845938 69.757141) scale(0.11 -0.11)">
       <use xlink:href="#DejaVuSans-31"/>
       <use xlink:href="#DejaVuSans-2e" x="63.623047"/>
       <use xlink:href="#DejaVuSans-32" x="95.410156"/>
      </g>
     </g>
    </g>
    <g id="text_16">
     <!-- Density -->
     <g style="fill: #334155" transform="translate(15.558281 198.787453) rotate(-90) scale(0.11 -0.11)">
      <defs>
       <path id="DejaVuSans-44" d="M 1259 4147 
L 1259 519 
L 2022 519 
Q 2988 519 3436 956 
Q 3884 1394 3884 2338 
Q 3884 3275 3436 3711 
Q 2988 4147 2022 4147 
L 1259 4147 
z
M 628 4666 
L 1925 4666 
Q 3281 4666 3915 4102 
Q 4550 3538 4550 2338 
Q 4550 1131 3912 565 
Q 3275 0 1925 0 
L 628 0 
L 628 4666 
z
" transform="scale(0.015625)"/>
       <path id="DejaVuSans-73" d="M 2834 3397 
L 2834 2853 
Q 2591 2978 2328 3040 
Q 2066 3103 1784 3103 
Q 1356 3103 1142 2972 
Q 928 2841 928 2578 
Q 928 2378 1081 2264 
Q 1234 2150 1697 2047 
L 1894 2003 
Q 2506 1872 2764 1633 
Q 3022 1394 3022 966 
Q 3022 478 2636 193 
Q 2250 -91 1575 -91 
Q 1294 -91 989 -36 
Q 684 19 347 128 
L 347 722 
Q 666 556 975 473 
Q 1284 391 1588 391 
Q 1994 391 2212 530 
Q 2431 669 2431 922 
Q 2431 1156 2273 1281 
Q 2116 1406 1581 1522 
L 1381 1569 
Q 847 1681 609 1914 
Q 372 2147 372 2553 
Q 372 3047 722 3315 
Q 1072 3584 1716 3584 
Q 2034 3584 2315 3537 
Q 2597 3491 2834 3397 
z
" transform="scale(0.015625)"/>
       <path id="DejaVuSans-79" d="M 2059 -325 
Q 1816 -950 1584 -1140 
Q 1353 -1331 966 -1331 
L 506 -1331 
L 506 -850 
L 844 -850 
Q 1081 -850 1212 -737 
Q 1344 -625 1503 -206 
L 1606 56 
L 191 3500 
L 800 3500 
L 1894 763 
L 2988 3500 
L 3597 3500 
L 2059 -325 
z
" transform="scale(0.015625)"/>
      </defs>
      <use xlink:href="#DejaVuSans-44"/>
      <use xlink:href="#DejaVuSans-65" x="77.001953"/>
      <use xlink:href="#DejaVuSans-6e" x="138.525391"/>
      <use xlink:href="#DejaVuSans-73" x="201.904297"/>
      <use xlink:href="#DejaVuSans-69" x="254.003906"/>
      <use xlink:href="#DejaVuSans-74" x="281.787109"/>
      <use xlink:href="#DejaVuSans-79" x="320.996094"/>
     </g>
    </g>
   </g>
   <g id="line2d_29">
    <path d="M 67.273022 65.578 
L 71.470244 81.218471 
L 75.667467 95.769787 
L 79.864689 109.307792 
L 84.061912 121.903052 
L 88.259134 133.621215 
L 92.456357 144.523361 
L 96.653579 154.666313 
L 100.850801 164.102941 
L 105.048024 172.882431 
L 109.245246 181.050543 
L 113.442469 188.649852 
L 117.639691 195.719968 
L 121.836914 202.297743 
L 126.034136 208.41746 
L 130.231359 214.111019 
L 134.428581 219.408096 
L 138.625803 224.3363 
L 142.823026 228.921319 
L 147.020248 233.187051 
L 151.217471 237.15573 
L 155.414693 240.848042 
L 159.611916 244.283232 
L 163.809138 247.479206 
L 169.055666 251.163042 
L 174.302194 254.529056 
L 179.548722 257.604666 
L 184.79525 260.414929 
L 190.041778 262.982736 
L 195.288306 265.329006 
L 201.58414 267.878894 
L 207.879974 270.167124 
L 214.175807 272.220547 
L 220.471641 274.063257 
L 227.81678 275.975489 
L 235.16192 277.660809 
L 243.556365 279.343428 
L 251.950809 280.799862 
L 261.39456 282.205683 
L 271.887616 283.521964 
L 283.429978 284.720298 
L 296.021645 285.782917 
L 309.662618 286.701938 
L 325.402202 287.526241 
L 343.240398 288.226777 
L 364.22651 288.817906 
L 389.409844 289.295969 
L 421.938318 289.673873 
L 466.009154 289.94174 
L 485.945961 290.010317 
L 485.945961 290.010317 
" clip-path="url(#p3f39646af8)" style="fill: none; stroke: #7c3aed; stroke-width: 2.6; stroke-linecap: square"/>
   </g>
   <g id="patch_3">
    <path d="M 46.339375 301.408 
L 46.339375 54.348 
" style="fill: none; stroke: #94a3b8; stroke-width: 0.8; stroke-linejoin: miter; stroke-linecap: square"/>
   </g>
   <g id="patch_4">
    <path d="M 46.339375 301.408 
L 506.879608 301.408 
" style="fill: none; stroke: #94a3b8; stroke-width: 0.8; stroke-linejoin: miter; stroke-linecap: square"/>
   </g>
   <g id="patch_5">
    <path d="M 254.999591 166.351165 
Q 190.007888 184.990374 126.73572 203.136432 
" style="fill: none; stroke: #6d28d9; stroke-width: 1.6; stroke-linecap: round"/>
    <path d="M 131.571714 204.038188 
L 126.73572 203.136432 
L 130.358721 199.80869 
" style="fill: none; stroke: #6d28d9; stroke-width: 1.6; stroke-linecap: round"/>
   </g>
   <g id="text_17">
    <g id="patch_6">
     <path d="M 224.275374 165.29899 
L 399.979749 165.29899 
Q 403.829749 165.29899 403.829749 161.44899 
L 403.829749 138.485458 
Q 403.829749 134.635458 399.979749 134.635458 
L 224.275374 134.635458 
Q 220.425374 134.635458 220.425374 138.485458 
L 220.425374 161.44899 
Q 220.425374 165.29899 224.275374 165.29899 
z
" style="fill: #f5f3ff; stroke: #c4b5fd; stroke-linejoin: miter"/>
    </g>
    <!-- Larger lambda means -->
    <g style="fill: #5b21b6" transform="translate(224.275374 146.84374) scale(0.11 -0.11)">
     <defs>
      <path id="DejaVuSans-4c" d="M 628 4666 
L 1259 4666 
L 1259 531 
L 3531 531 
L 3531 0 
L 628 0 
L 628 4666 
z
" transform="scale(0.015625)"/>
      <path id="DejaVuSans-61" d="M 2194 1759 
Q 1497 1759 1228 1600 
Q 959 1441 959 1056 
Q 959 750 1161 570 
Q 1363 391 1709 391 
Q 2188 391 2477 730 
Q 2766 1069 2766 1631 
L 2766 1759 
L 2194 1759 
z
M 3341 1997 
L 3341 0 
L 2766 0 
L 2766 531 
Q 2569 213 2275 61 
Q 1981 -91 1556 -91 
Q 1019 -91 701 211 
Q 384 513 384 1019 
Q 384 1609 779 1909 
Q 1175 2209 1959 2209 
L 2766 2209 
L 2766 2266 
Q 2766 2663 2505 2880 
Q 2244 3097 1772 3097 
Q 1472 3097 1187 3025 
Q 903 2953 641 2809 
L 641 3341 
Q 956 3463 1253 3523 
Q 1550 3584 1831 3584 
Q 2591 3584 2966 3190 
Q 3341 2797 3341 1997 
z
" transform="scale(0.015625)"/>
      <path id="DejaVuSans-72" d="M 2631 2963 
Q 2534 3019 2420 3045 
Q 2306 3072 2169 3072 
Q 1681 3072 1420 2755 
Q 1159 2438 1159 1844 
L 1159 0 
L 581 0 
L 581 3500 
L 1159 3500 
L 1159 2956 
Q 1341 3275 1631 3429 
Q 1922 3584 2338 3584 
Q 2397 3584 2469 3576 
Q 2541 3569 2628 3553 
L 2631 2963 
z
" transform="scale(0.015625)"/>
      <path id="DejaVuSans-67" d="M 2906 1791 
Q 2906 2416 2648 2759 
Q 2391 3103 1925 3103 
Q 1463 3103 1205 2759 
Q 947 2416 947 1791 
Q 947 1169 1205 825 
Q 1463 481 1925 481 
Q 2391 481 2648 825 
Q 2906 1169 2906 1791 
z
M 3481 434 
Q 3481 -459 3084 -895 
Q 2688 -1331 1869 -1331 
Q 1566 -1331 1297 -1286 
Q 1028 -1241 775 -1147 
L 775 -588 
Q 1028 -725 1275 -790 
Q 1522 -856 1778 -856 
Q 2344 -856 2625 -561 
Q 2906 -266 2906 331 
L 2906 616 
Q 2728 306 2450 153 
Q 2172 0 1784 0 
Q 1141 0 747 490 
Q 353 981 353 1791 
Q 353 2603 747 3093 
Q 1141 3584 1784 3584 
Q 2172 3584 2450 3431 
Q 2728 3278 2906 2969 
L 2906 3500 
L 3481 3500 
L 3481 434 
z
" transform="scale(0.015625)"/>
      <path id="DejaVuSans-62" d="M 3116 1747 
Q 3116 2381 2855 2742 
Q 2594 3103 2138 3103 
Q 1681 3103 1420 2742 
Q 1159 2381 1159 1747 
Q 1159 1113 1420 752 
Q 1681 391 2138 391 
Q 2594 391 2855 752 
Q 3116 1113 3116 1747 
z
M 1159 2969 
Q 1341 3281 1617 3432 
Q 1894 3584 2278 3584 
Q 2916 3584 3314 3078 
Q 3713 2572 3713 1747 
Q 3713 922 3314 415 
Q 2916 -91 2278 -91 
Q 1894 -91 1617 61 
Q 1341 213 1159 525 
L 1159 0 
L 581 0 
L 581 4863 
L 1159 4863 
L 1159 2969 
z
" transform="scale(0.015625)"/>
      <path id="DejaVuSans-64" d="M 2906 2969 
L 2906 4863 
L 3481 4863 
L 3481 0 
L 2906 0 
L 2906 525 
Q 2725 213 2448 61 
Q 2172 -91 1784 -91 
Q 1150 -91 751 415 
Q 353 922 353 1747 
Q 353 2572 751 3078 
Q 1150 3584 1784 3584 
Q 2172 3584 2448 3432 
Q 2725 3281 2906 2969 
z
M 947 1747 
Q 947 1113 1208 752 
Q 1469 391 1925 391 
Q 2381 391 2643 752 
Q 2906 1113 2906 1747 
Q 2906 2381 2643 2742 
Q 2381 3103 1925 3103 
Q 1469 3103 1208 2742 
Q 947 2381 947 1747 
z
" transform="scale(0.015625)"/>
     </defs>
     <use xlink:href="#DejaVuSans-4c"/>
     <use xlink:href="#DejaVuSans-61" x="55.712891"/>
     <use xlink:href="#DejaVuSans-72" x="116.992188"/>
     <use xlink:href="#DejaVuSans-67" x="156.355469"/>
     <use xlink:href="#DejaVuSans-65" x="219.832031"/>
     <use xlink:href="#DejaVuSans-72" x="281.355469"/>
     <use xlink:href="#DejaVuSans-20" x="322.46875"/>
     <use xlink:href="#DejaVuSans-6c" x="354.255859"/>
     <use xlink:href="#DejaVuSans-61" x="382.039062"/>
     <use xlink:href="#DejaVuSans-6d" x="443.318359"/>
     <use xlink:href="#DejaVuSans-62" x="540.730469"/>
     <use xlink:href="#DejaVuSans-64" x="604.207031"/>
     <use xlink:href="#DejaVuSans-61" x="667.683594"/>
     <use xlink:href="#DejaVuSans-20" x="728.962891"/>
     <use xlink:href="#DejaVuSans-6d" x="760.75"/>
     <use xlink:href="#DejaVuSans-65" x="858.162109"/>
     <use xlink:href="#DejaVuSans-61" x="919.685547"/>
     <use xlink:href="#DejaVuSans-6e" x="980.964844"/>
     <use xlink:href="#DejaVuSans-73" x="1044.34375"/>
    </g>
    <!-- faster arrivals and shorter waits -->
    <g style="fill: #5b21b6" transform="translate(224.275374 159.161333) scale(0.11 -0.11)">
     <defs>
      <path id="DejaVuSans-66" d="M 2375 4863 
L 2375 4384 
L 1825 4384 
Q 1516 4384 1395 4259 
Q 1275 4134 1275 3809 
L 1275 3500 
L 2222 3500 
L 2222 3053 
L 1275 3053 
L 1275 0 
L 697 0 
L 697 3053 
L 147 3053 
L 147 3500 
L 697 3500 
L 697 3744 
Q 697 4328 969 4595 
Q 1241 4863 1831 4863 
L 2375 4863 
z
" transform="scale(0.015625)"/>
      <path id="DejaVuSans-68" d="M 3513 2113 
L 3513 0 
L 2938 0 
L 2938 2094 
Q 2938 2591 2744 2837 
Q 2550 3084 2163 3084 
Q 1697 3084 1428 2787 
Q 1159 2491 1159 1978 
L 1159 0 
L 581 0 
L 581 4863 
L 1159 4863 
L 1159 2956 
Q 1366 3272 1645 3428 
Q 1925 3584 2291 3584 
Q 2894 3584 3203 3211 
Q 3513 2838 3513 2113 
z
" transform="scale(0.015625)"/>
      <path id="DejaVuSans-6f" d="M 1959 3097 
Q 1497 3097 1228 2736 
Q 959 2375 959 1747 
Q 959 1119 1226 758 
Q 1494 397 1959 397 
Q 2419 397 2687 759 
Q 2956 1122 2956 1747 
Q 2956 2369 2687 2733 
Q 2419 3097 1959 3097 
z
M 1959 3584 
Q 2709 3584 3137 3096 
Q 3566 2609 3566 1747 
Q 3566 888 3137 398 
Q 2709 -91 1959 -91 
Q 1206 -91 779 398 
Q 353 888 353 1747 
Q 353 2609 779 3096 
Q 1206 3584 1959 3584 
z
" transform="scale(0.015625)"/>
      <path id="DejaVuSans-77" d="M 269 3500 
L 844 3500 
L 1563 769 
L 2278 3500 
L 2956 3500 
L 3675 769 
L 4391 3500 
L 4966 3500 
L 4050 0 
L 3372 0 
L 2619 2869 
L 1863 0 
L 1184 0 
L 269 3500 
z
" transform="scale(0.015625)"/>
     </defs>
     <use xlink:href="#DejaVuSans-66"/>
     <use xlink:href="#DejaVuSans-61" x="35.205078"/>
     <use xlink:href="#DejaVuSans-73" x="96.484375"/>
     <use xlink:href="#DejaVuSans-74" x="148.583984"/>
     <use xlink:href="#DejaVuSans-65" x="187.792969"/>
     <use xlink:href="#DejaVuSans-72" x="249.316406"/>
     <use xlink:href="#DejaVuSans-20" x="290.429688"/>
     <use xlink:href="#DejaVuSans-61" x="322.216797"/>
     <use xlink:href="#DejaVuSans-72" x="383.496094"/>
     <use xlink:href="#DejaVuSans-72" x="422.859375"/>
     <use xlink:href="#DejaVuSans-69" x="463.972656"/>
     <use xlink:href="#DejaVuSans-76" x="491.755859"/>
     <use xlink:href="#DejaVuSans-61" x="550.935547"/>
     <use xlink:href="#DejaVuSans-6c" x="612.214844"/>
     <use xlink:href="#DejaVuSans-73" x="639.998047"/>
     <use xlink:href="#DejaVuSans-20" x="692.097656"/>
     <use xlink:href="#DejaVuSans-61" x="723.884766"/>
     <use xlink:href="#DejaVuSans-6e" x="785.164062"/>
     <use xlink:href="#DejaVuSans-64" x="848.542969"/>
     <use xlink:href="#DejaVuSans-20" x="912.019531"/>
     <use xlink:href="#DejaVuSans-73" x="943.806641"/>
     <use xlink:href="#DejaVuSans-68" x="995.90625"/>
     <use xlink:href="#DejaVuSans-6f" x="1059.285156"/>
     <use xlink:href="#DejaVuSans-72" x="1120.466797"/>
     <use xlink:href="#DejaVuSans-74" x="1161.580078"/>
     <use xlink:href="#DejaVuSans-65" x="1200.789062"/>
     <use xlink:href="#DejaVuSans-72" x="1262.3125"/>
     <use xlink:href="#DejaVuSans-20" x="1303.425781"/>
     <use xlink:href="#DejaVuSans-77" x="1335.212891"/>
     <use xlink:href="#DejaVuSans-61" x="1417"/>
     <use xlink:href="#DejaVuSans-69" x="1478.279297"/>
     <use xlink:href="#DejaVuSans-74" x="1506.0625"/>
     <use xlink:href="#DejaVuSans-73" x="1545.271484"/>
    </g>
   </g>
   <g id="text_18">
    <!-- Exponential Waiting-Time Density -->
    <g style="fill: #0f172a" transform="translate(162.601054 48.348) scale(0.12 -0.12)">
     <defs>
      <path id="DejaVuSans-Bold-45" d="M 588 4666 
L 3834 4666 
L 3834 3756 
L 1791 3756 
L 1791 2888 
L 3713 2888 
L 3713 1978 
L 1791 1978 
L 1791 909 
L 3903 909 
L 3903 0 
L 588 0 
L 588 4666 
z
" transform="scale(0.015625)"/>
      <path id="DejaVuSans-Bold-78" d="M 1422 1791 
L 159 3500 
L 1344 3500 
L 2059 2463 
L 2784 3500 
L 3969 3500 
L 2706 1797 
L 4031 0 
L 2847 0 
L 2059 1106 
L 1281 0 
L 97 0 
L 1422 1791 
z
" transform="scale(0.015625)"/>
      <path id="DejaVuSans-Bold-70" d="M 1656 506 
L 1656 -1331 
L 538 -1331 
L 538 3500 
L 1656 3500 
L 1656 2988 
Q 1888 3294 2169 3439 
Q 2450 3584 2816 3584 
Q 3463 3584 3878 3070 
Q 4294 2556 4294 1747 
Q 4294 938 3878 423 
Q 3463 -91 2816 -91 
Q 2450 -91 2169 54 
Q 1888 200 1656 506 
z
M 2400 2772 
Q 2041 2772 1848 2508 
Q 1656 2244 1656 1747 
Q 1656 1250 1848 986 
Q 2041 722 2400 722 
Q 2759 722 2948 984 
Q 3138 1247 3138 1747 
Q 3138 2247 2948 2509 
Q 2759 2772 2400 2772 
z
" transform="scale(0.015625)"/>
      <path id="DejaVuSans-Bold-6f" d="M 2203 2784 
Q 1831 2784 1636 2517 
Q 1441 2250 1441 1747 
Q 1441 1244 1636 976 
Q 1831 709 2203 709 
Q 2569 709 2762 976 
Q 2956 1244 2956 1747 
Q 2956 2250 2762 2517 
Q 2569 2784 2203 2784 
z
M 2203 3584 
Q 3106 3584 3614 3096 
Q 4122 2609 4122 1747 
Q 4122 884 3614 396 
Q 3106 -91 2203 -91 
Q 1297 -91 786 396 
Q 275 884 275 1747 
Q 275 2609 786 3096 
Q 1297 3584 2203 3584 
z
" transform="scale(0.015625)"/>
      <path id="DejaVuSans-Bold-6e" d="M 4056 2131 
L 4056 0 
L 2931 0 
L 2931 347 
L 2931 1631 
Q 2931 2084 2911 2256 
Q 2891 2428 2841 2509 
Q 2775 2619 2662 2680 
Q 2550 2741 2406 2741 
Q 2056 2741 1856 2470 
Q 1656 2200 1656 1722 
L 1656 0 
L 538 0 
L 538 3500 
L 1656 3500 
L 1656 2988 
Q 1909 3294 2193 3439 
Q 2478 3584 2822 3584 
Q 3428 3584 3742 3212 
Q 4056 2841 4056 2131 
z
" transform="scale(0.015625)"/>
      <path id="DejaVuSans-Bold-65" d="M 4031 1759 
L 4031 1441 
L 1416 1441 
Q 1456 1047 1700 850 
Q 1944 653 2381 653 
Q 2734 653 3104 758 
Q 3475 863 3866 1075 
L 3866 213 
Q 3469 63 3072 -14 
Q 2675 -91 2278 -91 
Q 1328 -91 801 392 
Q 275 875 275 1747 
Q 275 2603 792 3093 
Q 1309 3584 2216 3584 
Q 3041 3584 3536 3087 
Q 4031 2591 4031 1759 
z
M 2881 2131 
Q 2881 2450 2695 2645 
Q 2509 2841 2209 2841 
Q 1884 2841 1681 2658 
Q 1478 2475 1428 2131 
L 2881 2131 
z
" transform="scale(0.015625)"/>
      <path id="DejaVuSans-Bold-74" d="M 1759 4494 
L 1759 3500 
L 2913 3500 
L 2913 2700 
L 1759 2700 
L 1759 1216 
Q 1759 972 1856 886 
Q 1953 800 2241 800 
L 2816 800 
L 2816 0 
L 1856 0 
Q 1194 0 917 276 
Q 641 553 641 1216 
L 641 2700 
L 84 2700 
L 84 3500 
L 641 3500 
L 641 4494 
L 1759 4494 
z
" transform="scale(0.015625)"/>
      <path id="DejaVuSans-Bold-69" d="M 538 3500 
L 1656 3500 
L 1656 0 
L 538 0 
L 538 3500 
z
M 538 4863 
L 1656 4863 
L 1656 3950 
L 538 3950 
L 538 4863 
z
" transform="scale(0.015625)"/>
      <path id="DejaVuSans-Bold-61" d="M 2106 1575 
Q 1756 1575 1579 1456 
Q 1403 1338 1403 1106 
Q 1403 894 1545 773 
Q 1688 653 1941 653 
Q 2256 653 2472 879 
Q 2688 1106 2688 1447 
L 2688 1575 
L 2106 1575 
z
M 3816 1997 
L 3816 0 
L 2688 0 
L 2688 519 
Q 2463 200 2181 54 
Q 1900 -91 1497 -91 
Q 953 -91 614 226 
Q 275 544 275 1050 
Q 275 1666 698 1953 
Q 1122 2241 2028 2241 
L 2688 2241 
L 2688 2328 
Q 2688 2594 2478 2717 
Q 2269 2841 1825 2841 
Q 1466 2841 1156 2769 
Q 847 2697 581 2553 
L 581 3406 
Q 941 3494 1303 3539 
Q 1666 3584 2028 3584 
Q 2975 3584 3395 3211 
Q 3816 2838 3816 1997 
z
" transform="scale(0.015625)"/>
      <path id="DejaVuSans-Bold-6c" d="M 538 4863 
L 1656 4863 
L 1656 0 
L 538 0 
L 538 4863 
z
" transform="scale(0.015625)"/>
      <path id="DejaVuSans-Bold-20" transform="scale(0.015625)"/>
      <path id="DejaVuSans-Bold-57" d="M 191 4666 
L 1344 4666 
L 2150 1275 
L 2950 4666 
L 4109 4666 
L 4909 1275 
L 5716 4666 
L 6859 4666 
L 5759 0 
L 4372 0 
L 3525 3547 
L 2688 0 
L 1300 0 
L 191 4666 
z
" transform="scale(0.015625)"/>
      <path id="DejaVuSans-Bold-67" d="M 2919 594 
Q 2688 288 2409 144 
Q 2131 0 1766 0 
Q 1125 0 706 504 
Q 288 1009 288 1791 
Q 288 2575 706 3076 
Q 1125 3578 1766 3578 
Q 2131 3578 2409 3434 
Q 2688 3291 2919 2981 
L 2919 3500 
L 4044 3500 
L 4044 353 
Q 4044 -491 3511 -936 
Q 2978 -1381 1966 -1381 
Q 1638 -1381 1331 -1331 
Q 1025 -1281 716 -1178 
L 716 -306 
Q 1009 -475 1290 -558 
Q 1572 -641 1856 -641 
Q 2406 -641 2662 -400 
Q 2919 -159 2919 353 
L 2919 594 
z
M 2181 2772 
Q 1834 2772 1640 2515 
Q 1447 2259 1447 1791 
Q 1447 1309 1634 1061 
Q 1822 813 2181 813 
Q 2531 813 2725 1069 
Q 2919 1325 2919 1791 
Q 2919 2259 2725 2515 
Q 2531 2772 2181 2772 
z
" transform="scale(0.015625)"/>
      <path id="DejaVuSans-Bold-2d" d="M 347 2297 
L 2309 2297 
L 2309 1388 
L 347 1388 
L 347 2297 
z
" transform="scale(0.015625)"/>
      <path id="DejaVuSans-Bold-54" d="M 31 4666 
L 4331 4666 
L 4331 3756 
L 2784 3756 
L 2784 0 
L 1581 0 
L 1581 3756 
L 31 3756 
L 31 4666 
z
" transform="scale(0.015625)"/>
      <path id="DejaVuSans-Bold-6d" d="M 3781 2919 
Q 3994 3244 4286 3414 
Q 4578 3584 4928 3584 
Q 5531 3584 5847 3212 
Q 6163 2841 6163 2131 
L 6163 0 
L 5038 0 
L 5038 1825 
Q 5041 1866 5042 1909 
Q 5044 1953 5044 2034 
Q 5044 2406 4934 2573 
Q 4825 2741 4581 2741 
Q 4263 2741 4089 2478 
Q 3916 2216 3909 1719 
L 3909 0 
L 2784 0 
L 2784 1825 
Q 2784 2406 2684 2573 
Q 2584 2741 2328 2741 
Q 2006 2741 1831 2477 
Q 1656 2213 1656 1722 
L 1656 0 
L 531 0 
L 531 3500 
L 1656 3500 
L 1656 2988 
Q 1863 3284 2130 3434 
Q 2397 3584 2719 3584 
Q 3081 3584 3359 3409 
Q 3638 3234 3781 2919 
z
" transform="scale(0.015625)"/>
      <path id="DejaVuSans-Bold-44" d="M 1791 3756 
L 1791 909 
L 2222 909 
Q 2959 909 3348 1275 
Q 3738 1641 3738 2338 
Q 3738 3031 3350 3393 
Q 2963 3756 2222 3756 
L 1791 3756 
z
M 588 4666 
L 1856 4666 
Q 2919 4666 3439 4514 
Q 3959 4363 4331 4000 
Q 4659 3684 4818 3271 
Q 4978 2859 4978 2338 
Q 4978 1809 4818 1395 
Q 4659 981 4331 666 
Q 3956 303 3431 151 
Q 2906 0 1856 0 
L 588 0 
L 588 4666 
z
" transform="scale(0.015625)"/>
      <path id="DejaVuSans-Bold-73" d="M 3272 3391 
L 3272 2541 
Q 2913 2691 2578 2766 
Q 2244 2841 1947 2841 
Q 1628 2841 1473 2761 
Q 1319 2681 1319 2516 
Q 1319 2381 1436 2309 
Q 1553 2238 1856 2203 
L 2053 2175 
Q 2913 2066 3209 1816 
Q 3506 1566 3506 1031 
Q 3506 472 3093 190 
Q 2681 -91 1863 -91 
Q 1516 -91 1145 -36 
Q 775 19 384 128 
L 384 978 
Q 719 816 1070 734 
Q 1422 653 1784 653 
Q 2113 653 2278 743 
Q 2444 834 2444 1013 
Q 2444 1163 2330 1236 
Q 2216 1309 1875 1350 
L 1678 1375 
Q 931 1469 631 1722 
Q 331 1975 331 2491 
Q 331 3047 712 3315 
Q 1094 3584 1881 3584 
Q 2191 3584 2531 3537 
Q 2872 3491 3272 3391 
z
" transform="scale(0.015625)"/>
      <path id="DejaVuSans-Bold-79" d="M 78 3500 
L 1197 3500 
L 2138 1125 
L 2938 3500 
L 4056 3500 
L 2584 -331 
Q 2363 -916 2067 -1148 
Q 1772 -1381 1288 -1381 
L 641 -1381 
L 641 -647 
L 991 -647 
Q 1275 -647 1404 -556 
Q 1534 -466 1606 -231 
L 1638 -134 
L 78 3500 
z
" transform="scale(0.015625)"/>
     </defs>
     <use xlink:href="#DejaVuSans-Bold-45"/>
     <use xlink:href="#DejaVuSans-Bold-78" x="68.310547"/>
     <use xlink:href="#DejaVuSans-Bold-70" x="132.8125"/>
     <use xlink:href="#DejaVuSans-Bold-6f" x="204.394531"/>
     <use xlink:href="#DejaVuSans-Bold-6e" x="273.095703"/>
     <use xlink:href="#DejaVuSans-Bold-65" x="344.287109"/>
     <use xlink:href="#DejaVuSans-Bold-6e" x="412.109375"/>
     <use xlink:href="#DejaVuSans-Bold-74" x="483.300781"/>
     <use xlink:href="#DejaVuSans-Bold-69" x="531.103516"/>
     <use xlink:href="#DejaVuSans-Bold-61" x="565.380859"/>
     <use xlink:href="#DejaVuSans-Bold-6c" x="632.861328"/>
     <use xlink:href="#DejaVuSans-Bold-20" x="667.138672"/>
     <use xlink:href="#DejaVuSans-Bold-57" x="701.953125"/>
     <use xlink:href="#DejaVuSans-Bold-61" x="808.630859"/>
     <use xlink:href="#DejaVuSans-Bold-69" x="876.111328"/>
     <use xlink:href="#DejaVuSans-Bold-74" x="910.388672"/>
     <use xlink:href="#DejaVuSans-Bold-69" x="958.191406"/>
     <use xlink:href="#DejaVuSans-Bold-6e" x="992.46875"/>
     <use xlink:href="#DejaVuSans-Bold-67" x="1063.660156"/>
     <use xlink:href="#DejaVuSans-Bold-2d" x="1135.242188"/>
     <use xlink:href="#DejaVuSans-Bold-54" x="1161.996094"/>
     <use xlink:href="#DejaVuSans-Bold-69" x="1230.208984"/>
     <use xlink:href="#DejaVuSans-Bold-6d" x="1264.486328"/>
     <use xlink:href="#DejaVuSans-Bold-65" x="1368.685547"/>
     <use xlink:href="#DejaVuSans-Bold-20" x="1436.507812"/>
     <use xlink:href="#DejaVuSans-Bold-44" x="1471.322266"/>
     <use xlink:href="#DejaVuSans-Bold-65" x="1554.330078"/>
     <use xlink:href="#DejaVuSans-Bold-6e" x="1622.152344"/>
     <use xlink:href="#DejaVuSans-Bold-73" x="1693.34375"/>
     <use xlink:href="#DejaVuSans-Bold-69" x="1752.865234"/>
     <use xlink:href="#DejaVuSans-Bold-74" x="1787.142578"/>
     <use xlink:href="#DejaVuSans-Bold-79" x="1834.945312"/>
    </g>
   </g>
  </g>
  <g id="axes_2">
   <g id="line2d_30">
    <path d="M 550.797189 170.4662 
L 550.797189 148.2308 
" clip-path="url(#p0c6a9fe81d)" style="fill: none; stroke: #334155; stroke-width: 1.4; stroke-linecap: square"/>
   </g>
   <g id="line2d_31">
    <path d="M 646.909933 170.4662 
L 646.909933 148.2308 
" clip-path="url(#p0c6a9fe81d)" style="fill: none; stroke: #334155; stroke-width: 1.4; stroke-linecap: square"/>
   </g>
   <g id="line2d_32">
    <path d="M 743.022677 170.4662 
L 743.022677 148.2308 
" clip-path="url(#p0c6a9fe81d)" style="fill: none; stroke: #334155; stroke-width: 1.4; stroke-linecap: square"/>
   </g>
   <g id="patch_7">
    <path d="M 544.785498 159.3485 
Q 718.992133 159.3485 890.9627 159.3485 
" style="fill: none; stroke: #334155; stroke-width: 2; stroke-linecap: round"/>
    <path d="M 886.5627 157.1485 
L 890.9627 159.3485 
L 886.5627 161.5485 
" style="fill: none; stroke: #334155; stroke-width: 2; stroke-linecap: round"/>
   </g>
   <g id="text_19">
    <!-- Time -->
    <g style="fill: #0f172a" transform="translate(536.780747 134.6425) scale(0.12 -0.12)">
     <use xlink:href="#DejaVuSans-Bold-54"/>
     <use xlink:href="#DejaVuSans-Bold-69" x="68.212891"/>
     <use xlink:href="#DejaVuSans-Bold-6d" x="102.490234"/>
     <use xlink:href="#DejaVuSans-Bold-65" x="206.689453"/>
    </g>
   </g>
   <g id="text_20">
    <!-- 0 -->
    <g style="fill: #0f172a" transform="translate(547.297814 187.14275) scale(0.11 -0.11)">
     <use xlink:href="#DejaVuSans-30"/>
    </g>
   </g>
   <g id="text_21">
    <!-- s -->
    <g style="fill: #0f172a" transform="translate(644.044777 187.14275) scale(0.11 -0.11)">
     <use xlink:href="#DejaVuSans-73"/>
    </g>
   </g>
   <g id="text_22">
    <!-- s+t -->
    <g style="fill: #0f172a" transform="translate(733.392521 187.14275) scale(0.11 -0.11)">
     <defs>
      <path id="DejaVuSans-2b" d="M 2944 4013 
L 2944 2272 
L 4684 2272 
L 4684 1741 
L 2944 1741 
L 2944 0 
L 2419 0 
L 2419 1741 
L 678 1741 
L 678 2272 
L 2419 2272 
L 2419 4013 
L 2944 4013 
z
" transform="scale(0.015625)"/>
     </defs>
     <use xlink:href="#DejaVuSans-73"/>
     <use xlink:href="#DejaVuSans-2b" x="52.099609"/>
     <use xlink:href="#DejaVuSans-74" x="135.888672"/>
    </g>
   </g>
   <g id="patch_8">
    <path d="M 554.695307 113.02475 
Q 598.85134 113.02475 643.007372 113.02475 
" style="fill: none; stroke: #0f766e; stroke-width: 1.7; stroke-linecap: round"/>
    <path d="M 559.095307 115.22475 
L 554.695307 113.02475 
L 559.095307 110.82475 
" style="fill: none; stroke: #0f766e; stroke-width: 1.7; stroke-linecap: round"/>
    <path d="M 638.607372 110.82475 
L 643.007372 113.02475 
L 638.607372 115.22475 
" style="fill: none; stroke: #0f766e; stroke-width: 1.7; stroke-linecap: round"/>
   </g>
   <g id="text_23">
    <!-- Already waited s -->
    <g style="fill: #0f766e" transform="translate(553.134811 96.3482) scale(0.11 -0.11)">
     <defs>
      <path id="DejaVuSans-41" d="M 2188 4044 
L 1331 1722 
L 3047 1722 
L 2188 4044 
z
M 1831 4666 
L 2547 4666 
L 4325 0 
L 3669 0 
L 3244 1197 
L 1141 1197 
L 716 0 
L 50 0 
L 1831 4666 
z
" transform="scale(0.015625)"/>
     </defs>
     <use xlink:href="#DejaVuSans-41"/>
     <use xlink:href="#DejaVuSans-6c" x="68.408203"/>
     <use xlink:href="#DejaVuSans-72" x="96.191406"/>
     <use xlink:href="#DejaVuSans-65" x="135.054688"/>
     <use xlink:href="#DejaVuSans-61" x="196.578125"/>
     <use xlink:href="#DejaVuSans-64" x="257.857422"/>
     <use xlink:href="#DejaVuSans-79" x="321.333984"/>
     <use xlink:href="#DejaVuSans-20" x="380.513672"/>
     <use xlink:href="#DejaVuSans-77" x="412.300781"/>
     <use xlink:href="#DejaVuSans-61" x="494.087891"/>
     <use xlink:href="#DejaVuSans-69" x="555.367188"/>
     <use xlink:href="#DejaVuSans-74" x="583.150391"/>
     <use xlink:href="#DejaVuSans-65" x="622.359375"/>
     <use xlink:href="#DejaVuSans-64" x="683.882812"/>
     <use xlink:href="#DejaVuSans-20" x="747.359375"/>
     <use xlink:href="#DejaVuSans-73" x="779.146484"/>
    </g>
   </g>
   <g id="patch_9">
    <path d="M 650.808051 113.02475 
Q 694.964084 113.02475 739.120117 113.02475 
" style="fill: none; stroke: #0369a1; stroke-width: 1.7; stroke-linecap: round"/>
    <path d="M 655.208051 115.22475 
L 650.808051 113.02475 
L 655.208051 110.82475 
" style="fill: none; stroke: #0369a1; stroke-width: 1.7; stroke-linecap: round"/>
    <path d="M 734.720117 110.82475 
L 739.120117 113.02475 
L 734.720117 115.22475 
" style="fill: none; stroke: #0369a1; stroke-width: 1.7; stroke-linecap: round"/>
   </g>
   <g id="text_24">
    <!-- Need to wait t more -->
    <g style="fill: #0369a1" transform="translate(640.12529 96.3482) scale(0.11 -0.11)">
     <defs>
      <path id="DejaVuSans-4e" d="M 628 4666 
L 1478 4666 
L 3547 763 
L 3547 4666 
L 4159 4666 
L 4159 0 
L 3309 0 
L 1241 3903 
L 1241 0 
L 628 0 
L 628 4666 
z
" transform="scale(0.015625)"/>
     </defs>
     <use xlink:href="#DejaVuSans-4e"/>
     <use xlink:href="#DejaVuSans-65" x="74.804688"/>
     <use xlink:href="#DejaVuSans-65" x="136.328125"/>
     <use xlink:href="#DejaVuSans-64" x="197.851562"/>
     <use xlink:href="#DejaVuSans-20" x="261.328125"/>
     <use xlink:href="#DejaVuSans-74" x="293.115234"/>
     <use xlink:href="#DejaVuSans-6f" x="332.324219"/>
     <use xlink:href="#DejaVuSans-20" x="393.505859"/>
     <use xlink:href="#DejaVuSans-77" x="425.292969"/>
     <use xlink:href="#DejaVuSans-61" x="507.080078"/>
     <use xlink:href="#DejaVuSans-69" x="568.359375"/>
     <use xlink:href="#DejaVuSans-74" x="596.142578"/>
     <use xlink:href="#DejaVuSans-20" x="635.351562"/>
     <use xlink:href="#DejaVuSans-74" x="667.138672"/>
     <use xlink:href="#DejaVuSans-20" x="706.347656"/>
     <use xlink:href="#DejaVuSans-6d" x="738.134766"/>
     <use xlink:href="#DejaVuSans-6f" x="835.546875"/>
     <use xlink:href="#DejaVuSans-72" x="896.728516"/>
     <use xlink:href="#DejaVuSans-65" x="935.591797"/>
    </g>
   </g>
   <g id="text_25">
    <g id="patch_10">
     <path d="M 587.441679 253.808875 
L 850.547304 253.808875 
Q 855.947304 253.808875 855.947304 248.408875 
L 855.947304 222.63775 
Q 855.947304 217.23775 850.547304 217.23775 
L 587.441679 217.23775 
Q 582.041679 217.23775 582.041679 222.63775 
L 582.041679 248.408875 
Q 582.041679 253.808875 587.441679 253.808875 
z
" style="fill: #ecfeff; stroke: #67e8f9; stroke-linejoin: miter"/>
    </g>
    <!-- P(X &gt; s+t | X &gt; s) = P(X &gt; t) -->
    <g style="fill: #0f172a" transform="translate(624.257304 232.048375) scale(0.12 -0.12)">
     <defs>
      <path id="DejaVuSans-Bold-50" d="M 588 4666 
L 2584 4666 
Q 3475 4666 3951 4270 
Q 4428 3875 4428 3144 
Q 4428 2409 3951 2014 
Q 3475 1619 2584 1619 
L 1791 1619 
L 1791 0 
L 588 0 
L 588 4666 
z
M 1791 3794 
L 1791 2491 
L 2456 2491 
Q 2806 2491 2997 2661 
Q 3188 2831 3188 3144 
Q 3188 3456 2997 3625 
Q 2806 3794 2456 3794 
L 1791 3794 
z
" transform="scale(0.015625)"/>
      <path id="DejaVuSans-Bold-28" d="M 2413 -844 
L 1484 -844 
Q 1006 -72 778 623 
Q 550 1319 550 2003 
Q 550 2688 779 3389 
Q 1009 4091 1484 4856 
L 2413 4856 
Q 2013 4116 1813 3408 
Q 1613 2700 1613 2009 
Q 1613 1319 1811 609 
Q 2009 -100 2413 -844 
z
" transform="scale(0.015625)"/>
      <path id="DejaVuSans-Bold-58" d="M 3188 2381 
L 4806 0 
L 3553 0 
L 2463 1594 
L 1381 0 
L 122 0 
L 1741 2381 
L 184 4666 
L 1441 4666 
L 2463 3163 
L 3481 4666 
L 4744 4666 
L 3188 2381 
z
" transform="scale(0.015625)"/>
      <path id="DejaVuSans-Bold-3e" d="M 678 3041 
L 678 3822 
L 4684 2375 
L 4684 1638 
L 678 191 
L 678 972 
L 3694 2003 
L 678 3041 
z
" transform="scale(0.015625)"/>
      <path id="DejaVuSans-Bold-2b" d="M 3053 4013 
L 3053 2375 
L 4684 2375 
L 4684 1638 
L 3053 1638 
L 3053 0 
L 2309 0 
L 2309 1638 
L 678 1638 
L 678 2375 
L 2309 2375 
L 2309 4013 
L 3053 4013 
z
" transform="scale(0.015625)"/>
      <path id="DejaVuSans-Bold-7c" d="M 1522 4891 
L 1522 -1509 
L 813 -1509 
L 813 4891 
L 1522 4891 
z
" transform="scale(0.015625)"/>
      <path id="DejaVuSans-Bold-29" d="M 513 -844 
Q 913 -100 1113 609 
Q 1313 1319 1313 2009 
Q 1313 2700 1113 3408 
Q 913 4116 513 4856 
L 1441 4856 
Q 1916 4091 2145 3389 
Q 2375 2688 2375 2003 
Q 2375 1319 2147 623 
Q 1919 -72 1441 -844 
L 513 -844 
z
" transform="scale(0.015625)"/>
      <path id="DejaVuSans-Bold-3d" d="M 678 3084 
L 4684 3084 
L 4684 2350 
L 678 2350 
L 678 3084 
z
M 678 1663 
L 4684 1663 
L 4684 922 
L 678 922 
L 678 1663 
z
" transform="scale(0.015625)"/>
     </defs>
     <use xlink:href="#DejaVuSans-Bold-50"/>
     <use xlink:href="#DejaVuSans-Bold-28" x="73.291016"/>
     <use xlink:href="#DejaVuSans-Bold-58" x="118.994141"/>
     <use xlink:href="#DejaVuSans-Bold-20" x="196.09375"/>
     <use xlink:href="#DejaVuSans-Bold-3e" x="230.908203"/>
     <use xlink:href="#DejaVuSans-Bold-20" x="314.697266"/>
     <use xlink:href="#DejaVuSans-Bold-73" x="349.511719"/>
     <use xlink:href="#DejaVuSans-Bold-2b" x="409.033203"/>
     <use xlink:href="#DejaVuSans-Bold-74" x="492.822266"/>
     <use xlink:href="#DejaVuSans-Bold-20" x="540.625"/>
     <use xlink:href="#DejaVuSans-Bold-7c" x="575.439453"/>
     <use xlink:href="#DejaVuSans-Bold-20" x="611.962891"/>
     <use xlink:href="#DejaVuSans-Bold-58" x="646.777344"/>
     <use xlink:href="#DejaVuSans-Bold-20" x="723.876953"/>
     <use xlink:href="#DejaVuSans-Bold-3e" x="758.691406"/>
     <use xlink:href="#DejaVuSans-Bold-20" x="842.480469"/>
     <use xlink:href="#DejaVuSans-Bold-73" x="877.294922"/>
     <use xlink:href="#DejaVuSans-Bold-29" x="936.816406"/>
     <use xlink:href="#DejaVuSans-Bold-20" x="982.519531"/>
     <use xlink:href="#DejaVuSans-Bold-3d" x="1017.333984"/>
     <use xlink:href="#DejaVuSans-Bold-20" x="1101.123047"/>
     <use xlink:href="#DejaVuSans-Bold-50" x="1135.9375"/>
     <use xlink:href="#DejaVuSans-Bold-28" x="1209.228516"/>
     <use xlink:href="#DejaVuSans-Bold-58" x="1254.931641"/>
     <use xlink:href="#DejaVuSans-Bold-20" x="1332.03125"/>
     <use xlink:href="#DejaVuSans-Bold-3e" x="1366.845703"/>
     <use xlink:href="#DejaVuSans-Bold-20" x="1450.634766"/>
     <use xlink:href="#DejaVuSans-Bold-74" x="1485.449219"/>
     <use xlink:href="#DejaVuSans-Bold-29" x="1533.251953"/>
    </g>
    <!-- The clock resets every time you check. -->
    <g style="fill: #0f172a" transform="translate(587.441679 245.8195) scale(0.12 -0.12)">
     <defs>
      <path id="DejaVuSans-Bold-68" d="M 4056 2131 
L 4056 0 
L 2931 0 
L 2931 347 
L 2931 1625 
Q 2931 2084 2911 2256 
Q 2891 2428 2841 2509 
Q 2775 2619 2662 2680 
Q 2550 2741 2406 2741 
Q 2056 2741 1856 2470 
Q 1656 2200 1656 1722 
L 1656 0 
L 538 0 
L 538 4863 
L 1656 4863 
L 1656 2988 
Q 1909 3294 2193 3439 
Q 2478 3584 2822 3584 
Q 3428 3584 3742 3212 
Q 4056 2841 4056 2131 
z
" transform="scale(0.015625)"/>
      <path id="DejaVuSans-Bold-63" d="M 3366 3391 
L 3366 2478 
Q 3138 2634 2908 2709 
Q 2678 2784 2431 2784 
Q 1963 2784 1702 2511 
Q 1441 2238 1441 1747 
Q 1441 1256 1702 982 
Q 1963 709 2431 709 
Q 2694 709 2930 787 
Q 3166 866 3366 1019 
L 3366 103 
Q 3103 6 2833 -42 
Q 2563 -91 2291 -91 
Q 1344 -91 809 395 
Q 275 881 275 1747 
Q 275 2613 809 3098 
Q 1344 3584 2291 3584 
Q 2566 3584 2833 3536 
Q 3100 3488 3366 3391 
z
" transform="scale(0.015625)"/>
      <path id="DejaVuSans-Bold-6b" d="M 538 4863 
L 1656 4863 
L 1656 2216 
L 2944 3500 
L 4244 3500 
L 2534 1894 
L 4378 0 
L 3022 0 
L 1656 1459 
L 1656 0 
L 538 0 
L 538 4863 
z
" transform="scale(0.015625)"/>
      <path id="DejaVuSans-Bold-72" d="M 3138 2547 
Q 2991 2616 2845 2648 
Q 2700 2681 2553 2681 
Q 2122 2681 1889 2404 
Q 1656 2128 1656 1613 
L 1656 0 
L 538 0 
L 538 3500 
L 1656 3500 
L 1656 2925 
Q 1872 3269 2151 3426 
Q 2431 3584 2822 3584 
Q 2878 3584 2943 3579 
Q 3009 3575 3134 3559 
L 3138 2547 
z
" transform="scale(0.015625)"/>
      <path id="DejaVuSans-Bold-76" d="M 97 3500 
L 1216 3500 
L 2088 1081 
L 2956 3500 
L 4078 3500 
L 2700 0 
L 1472 0 
L 97 3500 
z
" transform="scale(0.015625)"/>
      <path id="DejaVuSans-Bold-75" d="M 500 1363 
L 500 3500 
L 1625 3500 
L 1625 3150 
Q 1625 2866 1622 2436 
Q 1619 2006 1619 1863 
Q 1619 1441 1641 1255 
Q 1663 1069 1716 984 
Q 1784 875 1895 815 
Q 2006 756 2150 756 
Q 2500 756 2700 1025 
Q 2900 1294 2900 1772 
L 2900 3500 
L 4019 3500 
L 4019 0 
L 2900 0 
L 2900 506 
Q 2647 200 2364 54 
Q 2081 -91 1741 -91 
Q 1134 -91 817 281 
Q 500 653 500 1363 
z
" transform="scale(0.015625)"/>
      <path id="DejaVuSans-Bold-2e" d="M 653 1209 
L 1778 1209 
L 1778 0 
L 653 0 
L 653 1209 
z
" transform="scale(0.015625)"/>
     </defs>
     <use xlink:href="#DejaVuSans-Bold-54"/>
     <use xlink:href="#DejaVuSans-Bold-68" x="68.212891"/>
     <use xlink:href="#DejaVuSans-Bold-65" x="139.404297"/>
     <use xlink:href="#DejaVuSans-Bold-20" x="207.226562"/>
     <use xlink:href="#DejaVuSans-Bold-63" x="242.041016"/>
     <use xlink:href="#DejaVuSans-Bold-6c" x="301.318359"/>
     <use xlink:href="#DejaVuSans-Bold-6f" x="335.595703"/>
     <use xlink:href="#DejaVuSans-Bold-63" x="404.296875"/>
     <use xlink:href="#DejaVuSans-Bold-6b" x="463.574219"/>
     <use xlink:href="#DejaVuSans-Bold-20" x="530.078125"/>
     <use xlink:href="#DejaVuSans-Bold-72" x="564.892578"/>
     <use xlink:href="#DejaVuSans-Bold-65" x="614.208984"/>
     <use xlink:href="#DejaVuSans-Bold-73" x="682.03125"/>
     <use xlink:href="#DejaVuSans-Bold-65" x="741.552734"/>
     <use xlink:href="#DejaVuSans-Bold-74" x="809.375"/>
     <use xlink:href="#DejaVuSans-Bold-73" x="857.177734"/>
     <use xlink:href="#DejaVuSans-Bold-20" x="916.699219"/>
     <use xlink:href="#DejaVuSans-Bold-65" x="951.513672"/>
     <use xlink:href="#DejaVuSans-Bold-76" x="1019.335938"/>
     <use xlink:href="#DejaVuSans-Bold-65" x="1084.521484"/>
     <use xlink:href="#DejaVuSans-Bold-72" x="1152.34375"/>
     <use xlink:href="#DejaVuSans-Bold-79" x="1201.660156"/>
     <use xlink:href="#DejaVuSans-Bold-20" x="1266.845703"/>
     <use xlink:href="#DejaVuSans-Bold-74" x="1301.660156"/>
     <use xlink:href="#DejaVuSans-Bold-69" x="1349.462891"/>
     <use xlink:href="#DejaVuSans-Bold-6d" x="1383.740234"/>
     <use xlink:href="#DejaVuSans-Bold-65" x="1487.939453"/>
     <use xlink:href="#DejaVuSans-Bold-20" x="1555.761719"/>
     <use xlink:href="#DejaVuSans-Bold-79" x="1590.576172"/>
     <use xlink:href="#DejaVuSans-Bold-6f" x="1655.761719"/>
     <use xlink:href="#DejaVuSans-Bold-75" x="1724.462891"/>
     <use xlink:href="#DejaVuSans-Bold-20" x="1795.654297"/>
     <use xlink:href="#DejaVuSans-Bold-63" x="1830.46875"/>
     <use xlink:href="#DejaVuSans-Bold-68" x="1889.746094"/>
     <use xlink:href="#DejaVuSans-Bold-65" x="1960.9375"/>
     <use xlink:href="#DejaVuSans-Bold-63" x="2028.759766"/>
     <use xlink:href="#DejaVuSans-Bold-6b" x="2088.037109"/>
     <use xlink:href="#DejaVuSans-Bold-2e" x="2154.541016"/>
    </g>
   </g>
   <g id="text_26">
    <!-- Memoryless Property -->
    <g style="fill: #0f172a" transform="translate(646.771366 48.348) scale(0.12 -0.12)">
     <defs>
      <path id="DejaVuSans-Bold-4d" d="M 588 4666 
L 2119 4666 
L 3181 2169 
L 4250 4666 
L 5778 4666 
L 5778 0 
L 4641 0 
L 4641 3413 
L 3566 897 
L 2803 897 
L 1728 3413 
L 1728 0 
L 588 0 
L 588 4666 
z
" transform="scale(0.015625)"/>
     </defs>
     <use xlink:href="#DejaVuSans-Bold-4d"/>
     <use xlink:href="#DejaVuSans-Bold-65" x="99.511719"/>
     <use xlink:href="#DejaVuSans-Bold-6d" x="167.333984"/>
     <use xlink:href="#DejaVuSans-Bold-6f" x="271.533203"/>
     <use xlink:href="#DejaVuSans-Bold-72" x="340.234375"/>
     <use xlink:href="#DejaVuSans-Bold-79" x="389.550781"/>
     <use xlink:href="#DejaVuSans-Bold-6c" x="454.736328"/>
     <use xlink:href="#DejaVuSans-Bold-65" x="489.013672"/>
     <use xlink:href="#DejaVuSans-Bold-73" x="556.835938"/>
     <use xlink:href="#DejaVuSans-Bold-73" x="616.357422"/>
     <use xlink:href="#DejaVuSans-Bold-20" x="675.878906"/>
     <use xlink:href="#DejaVuSans-Bold-50" x="710.693359"/>
     <use xlink:href="#DejaVuSans-Bold-72" x="783.984375"/>
     <use xlink:href="#DejaVuSans-Bold-6f" x="833.300781"/>
     <use xlink:href="#DejaVuSans-Bold-70" x="902.001953"/>
     <use xlink:href="#DejaVuSans-Bold-65" x="973.583984"/>
     <use xlink:href="#DejaVuSans-Bold-72" x="1041.40625"/>
     <use xlink:href="#DejaVuSans-Bold-74" x="1090.722656"/>
     <use xlink:href="#DejaVuSans-Bold-79" x="1138.525391"/>
    </g>
   </g>
  </g>
  <g id="text_27">
   <!-- Exponential Distribution: Waiting Time and Memorylessness -->
   <g style="fill: #0f172a" transform="translate(190.619375 19.3575) scale(0.16 -0.16)">
    <defs>
     <path id="DejaVuSans-Bold-62" d="M 2400 722 
Q 2759 722 2948 984 
Q 3138 1247 3138 1747 
Q 3138 2247 2948 2509 
Q 2759 2772 2400 2772 
Q 2041 2772 1848 2508 
Q 1656 2244 1656 1747 
Q 1656 1250 1848 986 
Q 2041 722 2400 722 
z
M 1656 2988 
Q 1888 3294 2169 3439 
Q 2450 3584 2816 3584 
Q 3463 3584 3878 3070 
Q 4294 2556 4294 1747 
Q 4294 938 3878 423 
Q 3463 -91 2816 -91 
Q 2450 -91 2169 54 
Q 1888 200 1656 506 
L 1656 0 
L 538 0 
L 538 4863 
L 1656 4863 
L 1656 2988 
z
" transform="scale(0.015625)"/>
     <path id="DejaVuSans-Bold-3a" d="M 716 3500 
L 1844 3500 
L 1844 2291 
L 716 2291 
L 716 3500 
z
M 716 1209 
L 1844 1209 
L 1844 0 
L 716 0 
L 716 1209 
z
" transform="scale(0.015625)"/>
     <path id="DejaVuSans-Bold-64" d="M 2919 2988 
L 2919 4863 
L 4044 4863 
L 4044 0 
L 2919 0 
L 2919 506 
Q 2688 197 2409 53 
Q 2131 -91 1766 -91 
Q 1119 -91 703 423 
Q 288 938 288 1747 
Q 288 2556 703 3070 
Q 1119 3584 1766 3584 
Q 2128 3584 2408 3439 
Q 2688 3294 2919 2988 
z
M 2181 722 
Q 2541 722 2730 984 
Q 2919 1247 2919 1747 
Q 2919 2247 2730 2509 
Q 2541 2772 2181 2772 
Q 1825 2772 1636 2509 
Q 1447 2247 1447 1747 
Q 1447 1247 1636 984 
Q 1825 722 2181 722 
z
" transform="scale(0.015625)"/>
    </defs>
    <use xlink:href="#DejaVuSans-Bold-45"/>
    <use xlink:href="#DejaVuSans-Bold-78" x="68.310547"/>
    <use xlink:href="#DejaVuSans-Bold-70" x="132.8125"/>
    <use xlink:href="#DejaVuSans-Bold-6f" x="204.394531"/>
    <use xlink:href="#DejaVuSans-Bold-6e" x="273.095703"/>
    <use xlink:href="#DejaVuSans-Bold-65" x="344.287109"/>
    <use xlink:href="#DejaVuSans-Bold-6e" x="412.109375"/>
    <use xlink:href="#DejaVuSans-Bold-74" x="483.300781"/>
    <use xlink:href="#DejaVuSans-Bold-69" x="531.103516"/>
    <use xlink:href="#DejaVuSans-Bold-61" x="565.380859"/>
    <use xlink:href="#DejaVuSans-Bold-6c" x="632.861328"/>
    <use xlink:href="#DejaVuSans-Bold-20" x="667.138672"/>
    <use xlink:href="#DejaVuSans-Bold-44" x="701.953125"/>
    <use xlink:href="#DejaVuSans-Bold-69" x="784.960938"/>
    <use xlink:href="#DejaVuSans-Bold-73" x="819.238281"/>
    <use xlink:href="#DejaVuSans-Bold-74" x="878.759766"/>
    <use xlink:href="#DejaVuSans-Bold-72" x="926.5625"/>
    <use xlink:href="#DejaVuSans-Bold-69" x="975.878906"/>
    <use xlink:href="#DejaVuSans-Bold-62" x="1010.15625"/>
    <use xlink:href="#DejaVuSans-Bold-75" x="1081.738281"/>
    <use xlink:href="#DejaVuSans-Bold-74" x="1152.929688"/>
    <use xlink:href="#DejaVuSans-Bold-69" x="1200.732422"/>
    <use xlink:href="#DejaVuSans-Bold-6f" x="1235.009766"/>
    <use xlink:href="#DejaVuSans-Bold-6e" x="1303.710938"/>
    <use xlink:href="#DejaVuSans-Bold-3a" x="1374.902344"/>
    <use xlink:href="#DejaVuSans-Bold-20" x="1414.892578"/>
    <use xlink:href="#DejaVuSans-Bold-57" x="1449.707031"/>
    <use xlink:href="#DejaVuSans-Bold-61" x="1556.384766"/>
    <use xlink:href="#DejaVuSans-Bold-69" x="1623.865234"/>
    <use xlink:href="#DejaVuSans-Bold-74" x="1658.142578"/>
    <use xlink:href="#DejaVuSans-Bold-69" x="1705.945312"/>
    <use xlink:href="#DejaVuSans-Bold-6e" x="1740.222656"/>
    <use xlink:href="#DejaVuSans-Bold-67" x="1811.414062"/>
    <use xlink:href="#DejaVuSans-Bold-20" x="1882.996094"/>
    <use xlink:href="#DejaVuSans-Bold-54" x="1917.810547"/>
    <use xlink:href="#DejaVuSans-Bold-69" x="1986.023438"/>
    <use xlink:href="#DejaVuSans-Bold-6d" x="2020.300781"/>
    <use xlink:href="#DejaVuSans-Bold-65" x="2124.5"/>
    <use xlink:href="#DejaVuSans-Bold-20" x="2192.322266"/>
    <use xlink:href="#DejaVuSans-Bold-61" x="2227.136719"/>
    <use xlink:href="#DejaVuSans-Bold-6e" x="2294.617188"/>
    <use xlink:href="#DejaVuSans-Bold-64" x="2365.808594"/>
    <use xlink:href="#DejaVuSans-Bold-20" x="2437.390625"/>
    <use xlink:href="#DejaVuSans-Bold-4d" x="2472.205078"/>
    <use xlink:href="#DejaVuSans-Bold-65" x="2571.716797"/>
    <use xlink:href="#DejaVuSans-Bold-6d" x="2639.539062"/>
    <use xlink:href="#DejaVuSans-Bold-6f" x="2743.738281"/>
    <use xlink:href="#DejaVuSans-Bold-72" x="2812.439453"/>
    <use xlink:href="#DejaVuSans-Bold-79" x="2861.755859"/>
    <use xlink:href="#DejaVuSans-Bold-6c" x="2926.941406"/>
    <use xlink:href="#DejaVuSans-Bold-65" x="2961.21875"/>
    <use xlink:href="#DejaVuSans-Bold-73" x="3029.041016"/>
    <use xlink:href="#DejaVuSans-Bold-73" x="3088.5625"/>
    <use xlink:href="#DejaVuSans-Bold-6e" x="3148.083984"/>
    <use xlink:href="#DejaVuSans-Bold-65" x="3219.275391"/>
    <use xlink:href="#DejaVuSans-Bold-73" x="3287.097656"/>
    <use xlink:href="#DejaVuSans-Bold-73" x="3346.619141"/>
   </g>
  </g>
 </g>
 <defs>
  <clipPath id="p3f39646af8">
   <rect x="46.339375" y="54.348" width="460.540233" height="247.06"/>
  </clipPath>
  <clipPath id="p0c6a9fe81d">
   <rect x="518.759608" y="54.348" width="400.469767" height="247.06"/>
  </clipPath>
 </defs>
</svg>
