<?xml version="1.0" encoding="utf-8" standalone="no"?>
<!DOCTYPE svg PUBLIC "-//W3C//DTD SVG 1.1//EN"
  "http://www.w3.org/Graphics/SVG/1.1/DTD/svg11.dtd">
<svg xmlns:xlink="http://www.w3.org/1999/xlink" width="397.557031pt" height="281.393813pt" viewBox="0 0 397.557031 281.393813" xmlns="http://www.w3.org/2000/svg" version="1.1">
 <metadata>
  <rdf:RDF xmlns:dc="http://purl.org/dc/elements/1.1/" xmlns:cc="http://creativecommons.org/ns#" xmlns:rdf="http://www.w3.org/1999/02/22-rdf-syntax-ns#">
   <cc:Work>
    <dc:type rdf:resource="http://purl.org/dc/dcmitype/StillImage"/>
    <dc:date>2026-04-12T05:46:14.288938</dc:date>
    <dc:format>image/svg+xml</dc:format>
    <dc:creator>
     <cc:Agent>
      <dc:title>Matplotlib v3.10.8, https://matplotlib.org/</dc:title>
     </cc:Agent>
    </dc:creator>
   </cc:Work>
  </rdf:RDF>
 </metadata>
 <defs>
  <style type="text/css">*{stroke-linejoin: round; stroke-linecap: butt}</style>
 </defs>
 <g id="figure_1">
  <g id="patch_1">
   <path d="M 0 281.393813 
L 397.557031 281.393813 
L 397.557031 0 
L 0 0 
z
" style="fill: #ffffff"/>
  </g>
  <g id="axes_1">
   <g id="patch_2">
    <path d="M 55.557031 241.901938 
L 390.357031 241.901938 
L 390.357031 31.229938 
L 55.557031 31.229938 
z
" style="fill: #ffffff"/>
   </g>
   <g id="FillBetweenPolyCollection_1">
    <defs>
     <path id="m23709b6ecc" d="M 143.402494 -77.795875 
L 143.402494 -98.642851 
L 144.041486 -99.317974 
L 144.680478 -100.00925 
L 145.31947 -100.716837 
L 145.958463 -101.440886 
L 146.597455 -102.181539 
L 147.236447 -102.938928 
L 147.875439 -103.713178 
L 148.514432 -104.504405 
L 149.153424 -105.312714 
L 149.792416 -106.138199 
L 150.431409 -106.980947 
L 151.070401 -107.841029 
L 151.709393 -108.71851 
L 152.348385 -109.613438 
L 152.987378 -110.525853 
L 153.62637 -111.45578 
L 154.265362 -112.403232 
L 154.904354 -113.368209 
L 155.543347 -114.350695 
L 156.182339 -115.350664 
L 156.821331 -116.368072 
L 157.460324 -117.402861 
L 158.099316 -118.454959 
L 158.738308 -119.524277 
L 159.3773 -120.610713 
L 160.016293 -121.714144 
L 160.655285 -122.834437 
L 161.294277 -123.971436 
L 161.933269 -125.124972 
L 162.572262 -126.294859 
L 163.211254 -127.480891 
L 163.850246 -128.682846 
L 164.489239 -129.900484 
L 165.128231 -131.133547 
L 165.767223 -132.381758 
L 166.406215 -133.644824 
L 167.045208 -134.922432 
L 167.6842 -136.214248 
L 168.323192 -137.519925 
L 168.962184 -138.839092 
L 169.601177 -140.171362 
L 170.240169 -141.516329 
L 170.879161 -142.873568 
L 171.518153 -144.242635 
L 172.157146 -145.623068 
L 172.796138 -147.014386 
L 173.43513 -148.41609 
L 174.074123 -149.827663 
L 174.713115 -151.248569 
L 175.352107 -152.678255 
L 175.991099 -154.116149 
L 176.630092 -155.561663 
L 177.269084 -157.014192 
L 177.908076 -158.473112 
L 178.547068 -159.937785 
L 179.186061 -161.407556 
L 179.825053 -162.881753 
L 180.464045 -164.35969 
L 181.103038 -165.840666 
L 181.74203 -167.323965 
L 182.381022 -168.808858 
L 183.020014 -170.294601 
L 183.659007 -171.780439 
L 184.297999 -173.265602 
L 184.936991 -174.749312 
L 185.575983 -176.230776 
L 186.214976 -177.709194 
L 186.853968 -179.183753 
L 187.49296 -180.653634 
L 188.131953 -182.118008 
L 188.770945 -183.576038 
L 189.409937 -185.026881 
L 190.048929 -186.469688 
L 190.687922 -187.903603 
L 191.326914 -189.327768 
L 191.965906 -190.74132 
L 192.604898 -192.143393 
L 193.243891 -193.533119 
L 193.882883 -194.909631 
L 194.521875 -196.272058 
L 195.160867 -197.619533 
L 195.79986 -198.951189 
L 196.438852 -200.266162 
L 197.077844 -201.563592 
L 197.716837 -202.842621 
L 198.355829 -204.1024 
L 198.994821 -205.342084 
L 199.633813 -206.560835 
L 200.272806 -207.757823 
L 200.911798 -208.932228 
L 201.55079 -210.083241 
L 202.189782 -211.21006 
L 202.828775 -212.311899 
L 203.467767 -213.387982 
L 204.106759 -214.437549 
L 204.745752 -215.459852 
L 205.384744 -216.45416 
L 206.023736 -217.419758 
L 206.662728 -218.355948 
L 207.301721 -219.262049 
L 207.940713 -220.137402 
L 208.579705 -220.981363 
L 209.218697 -221.793313 
L 209.85769 -222.57265 
L 210.496682 -223.318797 
L 211.135674 -224.031199 
L 211.774667 -224.709322 
L 212.413659 -225.352659 
L 213.052651 -225.960726 
L 213.691643 -226.533064 
L 214.330636 -227.069241 
L 214.969628 -227.56885 
L 215.60862 -228.031512 
L 216.247612 -228.456874 
L 216.886605 -228.844611 
L 217.525597 -229.194428 
L 218.164589 -229.506057 
L 218.803581 -229.779258 
L 219.442574 -230.013822 
L 220.081566 -230.209568 
L 220.720558 -230.366347 
L 221.359551 -230.484036 
L 221.998543 -230.562546 
L 222.637535 -230.601817 
L 223.276527 -230.601817 
L 223.91552 -230.562546 
L 224.554512 -230.484036 
L 225.193504 -230.366347 
L 225.832496 -230.209568 
L 226.471489 -230.013822 
L 227.110481 -229.779258 
L 227.749473 -229.506057 
L 228.388466 -229.194428 
L 229.027458 -228.844611 
L 229.66645 -228.456874 
L 230.305442 -228.031512 
L 230.944435 -227.56885 
L 231.583427 -227.069241 
L 232.222419 -226.533064 
L 232.861411 -225.960726 
L 233.500404 -225.352659 
L 234.139396 -224.709322 
L 234.778388 -224.031199 
L 235.417381 -223.318797 
L 236.056373 -222.57265 
L 236.695365 -221.793313 
L 237.334357 -220.981363 
L 237.97335 -220.137402 
L 238.612342 -219.262049 
L 239.251334 -218.355948 
L 239.890326 -217.419758 
L 240.529319 -216.45416 
L 241.168311 -215.459852 
L 241.807303 -214.437549 
L 242.446295 -213.387982 
L 243.085288 -212.311899 
L 243.72428 -211.21006 
L 244.363272 -210.083241 
L 245.002265 -208.932228 
L 245.641257 -207.757823 
L 246.280249 -206.560835 
L 246.919241 -205.342084 
L 247.558234 -204.1024 
L 248.197226 -202.842621 
L 248.836218 -201.563592 
L 249.47521 -200.266162 
L 250.114203 -198.951189 
L 250.753195 -197.619533 
L 251.392187 -196.272058 
L 252.03118 -194.909631 
L 252.670172 -193.533119 
L 253.309164 -192.143393 
L 253.948156 -190.74132 
L 254.587149 -189.327768 
L 255.226141 -187.903603 
L 255.865133 -186.469688 
L 256.504125 -185.026881 
L 257.143118 -183.576038 
L 257.78211 -182.118008 
L 258.421102 -180.653634 
L 259.060095 -179.183753 
L 259.699087 -177.709194 
L 260.338079 -176.230776 
L 260.977071 -174.749312 
L 261.616064 -173.265602 
L 262.255056 -171.780439 
L 262.894048 -170.294601 
L 263.53304 -168.808858 
L 264.172033 -167.323965 
L 264.811025 -165.840666 
L 265.450017 -164.35969 
L 266.089009 -162.881753 
L 266.728002 -161.407556 
L 267.366994 -159.937785 
L 268.005986 -158.473112 
L 268.644979 -157.014192 
L 269.283971 -155.561663 
L 269.922963 -154.116149 
L 270.561955 -152.678255 
L 271.200948 -151.248569 
L 271.83994 -149.827663 
L 272.478932 -148.41609 
L 273.117924 -147.014386 
L 273.756917 -145.623068 
L 274.395909 -144.242635 
L 275.034901 -142.873568 
L 275.673894 -141.516329 
L 276.312886 -140.171362 
L 276.951878 -138.839092 
L 277.59087 -137.519925 
L 278.229863 -136.214248 
L 278.868855 -134.922432 
L 279.507847 -133.644824 
L 280.146839 -132.381758 
L 280.785832 -131.133547 
L 281.424824 -129.900484 
L 282.063816 -128.682846 
L 282.702809 -127.480891 
L 283.341801 -126.294859 
L 283.980793 -125.124972 
L 284.619785 -123.971436 
L 285.258778 -122.834437 
L 285.89777 -121.714144 
L 286.536762 -120.610713 
L 287.175754 -119.524277 
L 287.814747 -118.454959 
L 288.453739 -117.402861 
L 289.092731 -116.368072 
L 289.731723 -115.350664 
L 290.370716 -114.350695 
L 291.009708 -113.368209 
L 291.6487 -112.403232 
L 292.287693 -111.45578 
L 292.926685 -110.525853 
L 293.565677 -109.613438 
L 294.204669 -108.71851 
L 294.843662 -107.841029 
L 295.482654 -106.980947 
L 296.121646 -106.138199 
L 296.760638 -105.312714 
L 297.399631 -104.504405 
L 298.038623 -103.713178 
L 298.677615 -102.938928 
L 299.316608 -102.181539 
L 299.9556 -101.440886 
L 300.594592 -100.716837 
L 301.233584 -100.00925 
L 301.872577 -99.317974 
L 302.511569 -98.642851 
L 302.511569 -77.795875 
L 302.511569 -77.795875 
L 301.872577 -77.795875 
L 301.233584 -77.795875 
L 300.594592 -77.795875 
L 299.9556 -77.795875 
L 299.316608 -77.795875 
L 298.677615 -77.795875 
L 298.038623 -77.795875 
L 297.399631 -77.795875 
L 296.760638 -77.795875 
L 296.121646 -77.795875 
L 295.482654 -77.795875 
L 294.843662 -77.795875 
L 294.204669 -77.795875 
L 293.565677 -77.795875 
L 292.926685 -77.795875 
L 292.287693 -77.795875 
L 291.6487 -77.795875 
L 291.009708 -77.795875 
L 290.370716 -77.795875 
L 289.731723 -77.795875 
L 289.092731 -77.795875 
L 288.453739 -77.795875 
L 287.814747 -77.795875 
L 287.175754 -77.795875 
L 286.536762 -77.795875 
L 285.89777 -77.795875 
L 285.258778 -77.795875 
L 284.619785 -77.795875 
L 283.980793 -77.795875 
L 283.341801 -77.795875 
L 282.702809 -77.795875 
L 282.063816 -77.795875 
L 281.424824 -77.795875 
L 280.785832 -77.795875 
L 280.146839 -77.795875 
L 279.507847 -77.795875 
L 278.868855 -77.795875 
L 278.229863 -77.795875 
L 277.59087 -77.795875 
L 276.951878 -77.795875 
L 276.312886 -77.795875 
L 275.673894 -77.795875 
L 275.034901 -77.795875 
L 274.395909 -77.795875 
L 273.756917 -77.795875 
L 273.117924 -77.795875 
L 272.478932 -77.795875 
L 271.83994 -77.795875 
L 271.200948 -77.795875 
L 270.561955 -77.795875 
L 269.922963 -77.795875 
L 269.283971 -77.795875 
L 268.644979 -77.795875 
L 268.005986 -77.795875 
L 267.366994 -77.795875 
L 266.728002 -77.795875 
L 266.089009 -77.795875 
L 265.450017 -77.795875 
L 264.811025 -77.795875 
L 264.172033 -77.795875 
L 263.53304 -77.795875 
L 262.894048 -77.795875 
L 262.255056 -77.795875 
L 261.616064 -77.795875 
L 260.977071 -77.795875 
L 260.338079 -77.795875 
L 259.699087 -77.795875 
L 259.060095 -77.795875 
L 258.421102 -77.795875 
L 257.78211 -77.795875 
L 257.143118 -77.795875 
L 256.504125 -77.795875 
L 255.865133 -77.795875 
L 255.226141 -77.795875 
L 254.587149 -77.795875 
L 253.948156 -77.795875 
L 253.309164 -77.795875 
L 252.670172 -77.795875 
L 252.03118 -77.795875 
L 251.392187 -77.795875 
L 250.753195 -77.795875 
L 250.114203 -77.795875 
L 249.47521 -77.795875 
L 248.836218 -77.795875 
L 248.197226 -77.795875 
L 247.558234 -77.795875 
L 246.919241 -77.795875 
L 246.280249 -77.795875 
L 245.641257 -77.795875 
L 245.002265 -77.795875 
L 244.363272 -77.795875 
L 243.72428 -77.795875 
L 243.085288 -77.795875 
L 242.446295 -77.795875 
L 241.807303 -77.795875 
L 241.168311 -77.795875 
L 240.529319 -77.795875 
L 239.890326 -77.795875 
L 239.251334 -77.795875 
L 238.612342 -77.795875 
L 237.97335 -77.795875 
L 237.334357 -77.795875 
L 236.695365 -77.795875 
L 236.056373 -77.795875 
L 235.417381 -77.795875 
L 234.778388 -77.795875 
L 234.139396 -77.795875 
L 233.500404 -77.795875 
L 232.861411 -77.795875 
L 232.222419 -77.795875 
L 231.583427 -77.795875 
L 230.944435 -77.795875 
L 230.305442 -77.795875 
L 229.66645 -77.795875 
L 229.027458 -77.795875 
L 228.388466 -77.795875 
L 227.749473 -77.795875 
L 227.110481 -77.795875 
L 226.471489 -77.795875 
L 225.832496 -77.795875 
L 225.193504 -77.795875 
L 224.554512 -77.795875 
L 223.91552 -77.795875 
L 223.276527 -77.795875 
L 222.637535 -77.795875 
L 221.998543 -77.795875 
L 221.359551 -77.795875 
L 220.720558 -77.795875 
L 220.081566 -77.795875 
L 219.442574 -77.795875 
L 218.803581 -77.795875 
L 218.164589 -77.795875 
L 217.525597 -77.795875 
L 216.886605 -77.795875 
L 216.247612 -77.795875 
L 215.60862 -77.795875 
L 214.969628 -77.795875 
L 214.330636 -77.795875 
L 213.691643 -77.795875 
L 213.052651 -77.795875 
L 212.413659 -77.795875 
L 211.774667 -77.795875 
L 211.135674 -77.795875 
L 210.496682 -77.795875 
L 209.85769 -77.795875 
L 209.218697 -77.795875 
L 208.579705 -77.795875 
L 207.940713 -77.795875 
L 207.301721 -77.795875 
L 206.662728 -77.795875 
L 206.023736 -77.795875 
L 205.384744 -77.795875 
L 204.745752 -77.795875 
L 204.106759 -77.795875 
L 203.467767 -77.795875 
L 202.828775 -77.795875 
L 202.189782 -77.795875 
L 201.55079 -77.795875 
L 200.911798 -77.795875 
L 200.272806 -77.795875 
L 199.633813 -77.795875 
L 198.994821 -77.795875 
L 198.355829 -77.795875 
L 197.716837 -77.795875 
L 197.077844 -77.795875 
L 196.438852 -77.795875 
L 195.79986 -77.795875 
L 195.160867 -77.795875 
L 194.521875 -77.795875 
L 193.882883 -77.795875 
L 193.243891 -77.795875 
L 192.604898 -77.795875 
L 191.965906 -77.795875 
L 191.326914 -77.795875 
L 190.687922 -77.795875 
L 190.048929 -77.795875 
L 189.409937 -77.795875 
L 188.770945 -77.795875 
L 188.131953 -77.795875 
L 187.49296 -77.795875 
L 186.853968 -77.795875 
L 186.214976 -77.795875 
L 185.575983 -77.795875 
L 184.936991 -77.795875 
L 184.297999 -77.795875 
L 183.659007 -77.795875 
L 183.020014 -77.795875 
L 182.381022 -77.795875 
L 181.74203 -77.795875 
L 181.103038 -77.795875 
L 180.464045 -77.795875 
L 179.825053 -77.795875 
L 179.186061 -77.795875 
L 178.547068 -77.795875 
L 177.908076 -77.795875 
L 177.269084 -77.795875 
L 176.630092 -77.795875 
L 175.991099 -77.795875 
L 175.352107 -77.795875 
L 174.713115 -77.795875 
L 174.074123 -77.795875 
L 173.43513 -77.795875 
L 172.796138 -77.795875 
L 172.157146 -77.795875 
L 171.518153 -77.795875 
L 170.879161 -77.795875 
L 170.240169 -77.795875 
L 169.601177 -77.795875 
L 168.962184 -77.795875 
L 168.323192 -77.795875 
L 167.6842 -77.795875 
L 167.045208 -77.795875 
L 166.406215 -77.795875 
L 165.767223 -77.795875 
L 165.128231 -77.795875 
L 164.489239 -77.795875 
L 163.850246 -77.795875 
L 163.211254 -77.795875 
L 162.572262 -77.795875 
L 161.933269 -77.795875 
L 161.294277 -77.795875 
L 160.655285 -77.795875 
L 160.016293 -77.795875 
L 159.3773 -77.795875 
L 158.738308 -77.795875 
L 158.099316 -77.795875 
L 157.460324 -77.795875 
L 156.821331 -77.795875 
L 156.182339 -77.795875 
L 155.543347 -77.795875 
L 154.904354 -77.795875 
L 154.265362 -77.795875 
L 153.62637 -77.795875 
L 152.987378 -77.795875 
L 152.348385 -77.795875 
L 151.709393 -77.795875 
L 151.070401 -77.795875 
L 150.431409 -77.795875 
L 149.792416 -77.795875 
L 149.153424 -77.795875 
L 148.514432 -77.795875 
L 147.875439 -77.795875 
L 147.236447 -77.795875 
L 146.597455 -77.795875 
L 145.958463 -77.795875 
L 145.31947 -77.795875 
L 144.680478 -77.795875 
L 144.041486 -77.795875 
L 143.402494 -77.795875 
z
" style="stroke: #4c72b0; stroke-opacity: 0.15"/>
    </defs>
    <g clip-path="url(#pf49ee52b8d)">
     <use xlink:href="#m23709b6ecc" x="0" y="281.393813" style="fill: #4c72b0; fill-opacity: 0.15; stroke: #4c72b0; stroke-opacity: 0.15"/>
    </g>
   </g>
   <g id="FillBetweenPolyCollection_2">
    <defs>
     <path id="m0064bbb87c" d="M 183.659007 -77.795875 
L 183.659007 -171.780439 
L 184.297999 -173.265602 
L 184.936991 -174.749312 
L 185.575983 -176.230776 
L 186.214976 -177.709194 
L 186.853968 -179.183753 
L 187.49296 -180.653634 
L 188.131953 -182.118008 
L 188.770945 -183.576038 
L 189.409937 -185.026881 
L 190.048929 -186.469688 
L 190.687922 -187.903603 
L 191.326914 -189.327768 
L 191.965906 -190.74132 
L 192.604898 -192.143393 
L 193.243891 -193.533119 
L 193.882883 -194.909631 
L 194.521875 -196.272058 
L 195.160867 -197.619533 
L 195.79986 -198.951189 
L 196.438852 -200.266162 
L 197.077844 -201.563592 
L 197.716837 -202.842621 
L 198.355829 -204.1024 
L 198.994821 -205.342084 
L 199.633813 -206.560835 
L 200.272806 -207.757823 
L 200.911798 -208.932228 
L 201.55079 -210.083241 
L 202.189782 -211.21006 
L 202.828775 -212.311899 
L 203.467767 -213.387982 
L 204.106759 -214.437549 
L 204.745752 -215.459852 
L 205.384744 -216.45416 
L 206.023736 -217.419758 
L 206.662728 -218.355948 
L 207.301721 -219.262049 
L 207.940713 -220.137402 
L 208.579705 -220.981363 
L 209.218697 -221.793313 
L 209.85769 -222.57265 
L 210.496682 -223.318797 
L 211.135674 -224.031199 
L 211.774667 -224.709322 
L 212.413659 -225.352659 
L 213.052651 -225.960726 
L 213.691643 -226.533064 
L 214.330636 -227.069241 
L 214.969628 -227.56885 
L 215.60862 -228.031512 
L 216.247612 -228.456874 
L 216.886605 -228.844611 
L 217.525597 -229.194428 
L 218.164589 -229.506057 
L 218.803581 -229.779258 
L 219.442574 -230.013822 
L 220.081566 -230.209568 
L 220.720558 -230.366347 
L 221.359551 -230.484036 
L 221.998543 -230.562546 
L 222.637535 -230.601817 
L 223.276527 -230.601817 
L 223.91552 -230.562546 
L 224.554512 -230.484036 
L 225.193504 -230.366347 
L 225.832496 -230.209568 
L 226.471489 -230.013822 
L 227.110481 -229.779258 
L 227.749473 -229.506057 
L 228.388466 -229.194428 
L 229.027458 -228.844611 
L 229.66645 -228.456874 
L 230.305442 -228.031512 
L 230.944435 -227.56885 
L 231.583427 -227.069241 
L 232.222419 -226.533064 
L 232.861411 -225.960726 
L 233.500404 -225.352659 
L 234.139396 -224.709322 
L 234.778388 -224.031199 
L 235.417381 -223.318797 
L 236.056373 -222.57265 
L 236.695365 -221.793313 
L 237.334357 -220.981363 
L 237.97335 -220.137402 
L 238.612342 -219.262049 
L 239.251334 -218.355948 
L 239.890326 -217.419758 
L 240.529319 -216.45416 
L 241.168311 -215.459852 
L 241.807303 -214.437549 
L 242.446295 -213.387982 
L 243.085288 -212.311899 
L 243.72428 -211.21006 
L 244.363272 -210.083241 
L 245.002265 -208.932228 
L 245.641257 -207.757823 
L 246.280249 -206.560835 
L 246.919241 -205.342084 
L 247.558234 -204.1024 
L 248.197226 -202.842621 
L 248.836218 -201.563592 
L 249.47521 -200.266162 
L 250.114203 -198.951189 
L 250.753195 -197.619533 
L 251.392187 -196.272058 
L 252.03118 -194.909631 
L 252.670172 -193.533119 
L 253.309164 -192.143393 
L 253.948156 -190.74132 
L 254.587149 -189.327768 
L 255.226141 -187.903603 
L 255.865133 -186.469688 
L 256.504125 -185.026881 
L 257.143118 -183.576038 
L 257.78211 -182.118008 
L 258.421102 -180.653634 
L 259.060095 -179.183753 
L 259.699087 -177.709194 
L 260.338079 -176.230776 
L 260.977071 -174.749312 
L 261.616064 -173.265602 
L 262.255056 -171.780439 
L 262.255056 -77.795875 
L 262.255056 -77.795875 
L 261.616064 -77.795875 
L 260.977071 -77.795875 
L 260.338079 -77.795875 
L 259.699087 -77.795875 
L 259.060095 -77.795875 
L 258.421102 -77.795875 
L 257.78211 -77.795875 
L 257.143118 -77.795875 
L 256.504125 -77.795875 
L 255.865133 -77.795875 
L 255.226141 -77.795875 
L 254.587149 -77.795875 
L 253.948156 -77.795875 
L 253.309164 -77.795875 
L 252.670172 -77.795875 
L 252.03118 -77.795875 
L 251.392187 -77.795875 
L 250.753195 -77.795875 
L 250.114203 -77.795875 
L 249.47521 -77.795875 
L 248.836218 -77.795875 
L 248.197226 -77.795875 
L 247.558234 -77.795875 
L 246.919241 -77.795875 
L 246.280249 -77.795875 
L 245.641257 -77.795875 
L 245.002265 -77.795875 
L 244.363272 -77.795875 
L 243.72428 -77.795875 
L 243.085288 -77.795875 
L 242.446295 -77.795875 
L 241.807303 -77.795875 
L 241.168311 -77.795875 
L 240.529319 -77.795875 
L 239.890326 -77.795875 
L 239.251334 -77.795875 
L 238.612342 -77.795875 
L 237.97335 -77.795875 
L 237.334357 -77.795875 
L 236.695365 -77.795875 
L 236.056373 -77.795875 
L 235.417381 -77.795875 
L 234.778388 -77.795875 
L 234.139396 -77.795875 
L 233.500404 -77.795875 
L 232.861411 -77.795875 
L 232.222419 -77.795875 
L 231.583427 -77.795875 
L 230.944435 -77.795875 
L 230.305442 -77.795875 
L 229.66645 -77.795875 
L 229.027458 -77.795875 
L 228.388466 -77.795875 
L 227.749473 -77.795875 
L 227.110481 -77.795875 
L 226.471489 -77.795875 
L 225.832496 -77.795875 
L 225.193504 -77.795875 
L 224.554512 -77.795875 
L 223.91552 -77.795875 
L 223.276527 -77.795875 
L 222.637535 -77.795875 
L 221.998543 -77.795875 
L 221.359551 -77.795875 
L 220.720558 -77.795875 
L 220.081566 -77.795875 
L 219.442574 -77.795875 
L 218.803581 -77.795875 
L 218.164589 -77.795875 
L 217.525597 -77.795875 
L 216.886605 -77.795875 
L 216.247612 -77.795875 
L 215.60862 -77.795875 
L 214.969628 -77.795875 
L 214.330636 -77.795875 
L 213.691643 -77.795875 
L 213.052651 -77.795875 
L 212.413659 -77.795875 
L 211.774667 -77.795875 
L 211.135674 -77.795875 
L 210.496682 -77.795875 
L 209.85769 -77.795875 
L 209.218697 -77.795875 
L 208.579705 -77.795875 
L 207.940713 -77.795875 
L 207.301721 -77.795875 
L 206.662728 -77.795875 
L 206.023736 -77.795875 
L 205.384744 -77.795875 
L 204.745752 -77.795875 
L 204.106759 -77.795875 
L 203.467767 -77.795875 
L 202.828775 -77.795875 
L 202.189782 -77.795875 
L 201.55079 -77.795875 
L 200.911798 -77.795875 
L 200.272806 -77.795875 
L 199.633813 -77.795875 
L 198.994821 -77.795875 
L 198.355829 -77.795875 
L 197.716837 -77.795875 
L 197.077844 -77.795875 
L 196.438852 -77.795875 
L 195.79986 -77.795875 
L 195.160867 -77.795875 
L 194.521875 -77.795875 
L 193.882883 -77.795875 
L 193.243891 -77.795875 
L 192.604898 -77.795875 
L 191.965906 -77.795875 
L 191.326914 -77.795875 
L 190.687922 -77.795875 
L 190.048929 -77.795875 
L 189.409937 -77.795875 
L 188.770945 -77.795875 
L 188.131953 -77.795875 
L 187.49296 -77.795875 
L 186.853968 -77.795875 
L 186.214976 -77.795875 
L 185.575983 -77.795875 
L 184.936991 -77.795875 
L 184.297999 -77.795875 
L 183.659007 -77.795875 
z
" style="stroke: #4c72b0; stroke-opacity: 0.25"/>
    </defs>
    <g clip-path="url(#pf49ee52b8d)">
     <use xlink:href="#m0064bbb87c" x="0" y="281.393813" style="fill: #4c72b0; fill-opacity: 0.25; stroke: #4c72b0; stroke-opacity: 0.25"/>
    </g>
   </g>
   <g id="matplotlib.axis_1">
    <g id="xtick_1">
     <g id="line2d_1">
      <defs>
       <path id="m5e19a07c67" d="M 0 0 
L 0 3.5 
" style="stroke: #000000; stroke-width: 0.8"/>
      </defs>
      <g>
       <use xlink:href="#m5e19a07c67" x="63.52846" y="241.901938" style="stroke: #000000; stroke-width: 0.8"/>
      </g>
     </g>
     <g id="text_1">
      <!-- −4 -->
      <g transform="translate(55.420257 257.260219) scale(0.11 -0.11)">
       <defs>
        <path id="DejaVuSans-2212" d="M 678 2272 
L 4684 2272 
L 4684 1741 
L 678 1741 
L 678 2272 
z
" transform="scale(0.015625)"/>
        <path id="DejaVuSans-34" d="M 2419 4116 
L 825 1625 
L 2419 1625 
L 2419 4116 
z
M 2253 4666 
L 3047 4666 
L 3047 1625 
L 3713 1625 
L 3713 1100 
L 3047 1100 
L 3047 0 
L 2419 0 
L 2419 1100 
L 313 1100 
L 313 1709 
L 2253 4666 
z
" transform="scale(0.015625)"/>
       </defs>
       <use xlink:href="#DejaVuSans-2212"/>
       <use xlink:href="#DejaVuSans-34" transform="translate(83.789062 0)"/>
      </g>
     </g>
    </g>
    <g id="xtick_2">
     <g id="line2d_2">
      <g>
       <use xlink:href="#m5e19a07c67" x="103.385603" y="241.901938" style="stroke: #000000; stroke-width: 0.8"/>
      </g>
     </g>
     <g id="text_2">
      <!-- −3 -->
      <g transform="translate(95.2774 257.260219) scale(0.11 -0.11)">
       <defs>
        <path id="DejaVuSans-33" d="M 2597 2516 
Q 3050 2419 3304 2112 
Q 3559 1806 3559 1356 
Q 3559 666 3084 287 
Q 2609 -91 1734 -91 
Q 1441 -91 1130 -33 
Q 819 25 488 141 
L 488 750 
Q 750 597 1062 519 
Q 1375 441 1716 441 
Q 2309 441 2620 675 
Q 2931 909 2931 1356 
Q 2931 1769 2642 2001 
Q 2353 2234 1838 2234 
L 1294 2234 
L 1294 2753 
L 1863 2753 
Q 2328 2753 2575 2939 
Q 2822 3125 2822 3475 
Q 2822 3834 2567 4026 
Q 2313 4219 1838 4219 
Q 1578 4219 1281 4162 
Q 984 4106 628 3988 
L 628 4550 
Q 988 4650 1302 4700 
Q 1616 4750 1894 4750 
Q 2613 4750 3031 4423 
Q 3450 4097 3450 3541 
Q 3450 3153 3228 2886 
Q 3006 2619 2597 2516 
z
" transform="scale(0.015625)"/>
       </defs>
       <use xlink:href="#DejaVuSans-2212"/>
       <use xlink:href="#DejaVuSans-33" transform="translate(83.789062 0)"/>
      </g>
     </g>
    </g>
    <g id="xtick_3">
     <g id="line2d_3">
      <g>
       <use xlink:href="#m5e19a07c67" x="143.242746" y="241.901938" style="stroke: #000000; stroke-width: 0.8"/>
      </g>
     </g>
     <g id="text_3">
      <!-- −2 -->
      <g transform="translate(135.134542 257.260219) scale(0.11 -0.11)">
       <defs>
        <path id="DejaVuSans-32" d="M 1228 531 
L 3431 531 
L 3431 0 
L 469 0 
L 469 531 
Q 828 903 1448 1529 
Q 2069 2156 2228 2338 
Q 2531 2678 2651 2914 
Q 2772 3150 2772 3378 
Q 2772 3750 2511 3984 
Q 2250 4219 1831 4219 
Q 1534 4219 1204 4116 
Q 875 4013 500 3803 
L 500 4441 
Q 881 4594 1212 4672 
Q 1544 4750 1819 4750 
Q 2544 4750 2975 4387 
Q 3406 4025 3406 3419 
Q 3406 3131 3298 2873 
Q 3191 2616 2906 2266 
Q 2828 2175 2409 1742 
Q 1991 1309 1228 531 
z
" transform="scale(0.015625)"/>
       </defs>
       <use xlink:href="#DejaVuSans-2212"/>
       <use xlink:href="#DejaVuSans-32" transform="translate(83.789062 0)"/>
      </g>
     </g>
    </g>
    <g id="xtick_4">
     <g id="line2d_4">
      <g>
       <use xlink:href="#m5e19a07c67" x="183.099888" y="241.901938" style="stroke: #000000; stroke-width: 0.8"/>
      </g>
     </g>
     <g id="text_4">
      <!-- −1 -->
      <g transform="translate(174.991685 257.260219) scale(0.11 -0.11)">
       <defs>
        <path id="DejaVuSans-31" d="M 794 531 
L 1825 531 
L 1825 4091 
L 703 3866 
L 703 4441 
L 1819 4666 
L 2450 4666 
L 2450 531 
L 3481 531 
L 3481 0 
L 794 0 
L 794 531 
z
" transform="scale(0.015625)"/>
       </defs>
       <use xlink:href="#DejaVuSans-2212"/>
       <use xlink:href="#DejaVuSans-31" transform="translate(83.789062 0)"/>
      </g>
     </g>
    </g>
    <g id="xtick_5">
     <g id="line2d_5">
      <g>
       <use xlink:href="#m5e19a07c67" x="222.957031" y="241.901938" style="stroke: #000000; stroke-width: 0.8"/>
      </g>
     </g>
     <g id="text_5">
      <!-- 0 -->
      <g transform="translate(219.457656 257.260219) scale(0.11 -0.11)">
       <defs>
        <path id="DejaVuSans-30" d="M 2034 4250 
Q 1547 4250 1301 3770 
Q 1056 3291 1056 2328 
Q 1056 1369 1301 889 
Q 1547 409 2034 409 
Q 2525 409 2770 889 
Q 3016 1369 3016 2328 
Q 3016 3291 2770 3770 
Q 2525 4250 2034 4250 
z
M 2034 4750 
Q 2819 4750 3233 4129 
Q 3647 3509 3647 2328 
Q 3647 1150 3233 529 
Q 2819 -91 2034 -91 
Q 1250 -91 836 529 
Q 422 1150 422 2328 
Q 422 3509 836 4129 
Q 1250 4750 2034 4750 
z
" transform="scale(0.015625)"/>
       </defs>
       <use xlink:href="#DejaVuSans-30"/>
      </g>
     </g>
    </g>
    <g id="xtick_6">
     <g id="line2d_6">
      <g>
       <use xlink:href="#m5e19a07c67" x="262.814174" y="241.901938" style="stroke: #000000; stroke-width: 0.8"/>
      </g>
     </g>
     <g id="text_6">
      <!-- 1 -->
      <g transform="translate(259.314799 257.260219) scale(0.11 -0.11)">
       <use xlink:href="#DejaVuSans-31"/>
      </g>
     </g>
    </g>
    <g id="xtick_7">
     <g id="line2d_7">
      <g>
       <use xlink:href="#m5e19a07c67" x="302.671317" y="241.901938" style="stroke: #000000; stroke-width: 0.8"/>
      </g>
     </g>
     <g id="text_7">
      <!-- 2 -->
      <g transform="translate(299.171942 257.260219) scale(0.11 -0.11)">
       <use xlink:href="#DejaVuSans-32"/>
      </g>
     </g>
    </g>
    <g id="xtick_8">
     <g id="line2d_8">
      <g>
       <use xlink:href="#m5e19a07c67" x="342.52846" y="241.901938" style="stroke: #000000; stroke-width: 0.8"/>
      </g>
     </g>
     <g id="text_8">
      <!-- 3 -->
      <g transform="translate(339.029085 257.260219) scale(0.11 -0.11)">
       <use xlink:href="#DejaVuSans-33"/>
      </g>
     </g>
    </g>
    <g id="xtick_9">
     <g id="line2d_9">
      <g>
       <use xlink:href="#m5e19a07c67" x="382.385603" y="241.901938" style="stroke: #000000; stroke-width: 0.8"/>
      </g>
     </g>
     <g id="text_9">
      <!-- 4 -->
      <g transform="translate(378.886228 257.260219) scale(0.11 -0.11)">
       <use xlink:href="#DejaVuSans-34"/>
      </g>
     </g>
    </g>
    <g id="text_10">
     <!-- x -->
     <g transform="translate(219.701719 271.906156) scale(0.11 -0.11)">
      <defs>
       <path id="DejaVuSans-78" d="M 3513 3500 
L 2247 1797 
L 3578 0 
L 2900 0 
L 1881 1375 
L 863 0 
L 184 0 
L 1544 1831 
L 300 3500 
L 978 3500 
L 1906 2253 
L 2834 3500 
L 3513 3500 
z
" transform="scale(0.015625)"/>
      </defs>
      <use xlink:href="#DejaVuSans-78"/>
     </g>
    </g>
   </g>
   <g id="matplotlib.axis_2">
    <g id="ytick_1">
     <g id="line2d_10">
      <defs>
       <path id="m3355021d2a" d="M 0 0 
L -3.5 0 
" style="stroke: #000000; stroke-width: 0.8"/>
      </defs>
      <g>
       <use xlink:href="#m3355021d2a" x="55.557031" y="241.901938" style="stroke: #000000; stroke-width: 0.8"/>
      </g>
     </g>
     <g id="text_11">
      <!-- −0.1 -->
      <g transform="translate(21.845938 246.081078) scale(0.11 -0.11)">
       <defs>
        <path id="DejaVuSans-2e" d="M 684 794 
L 1344 794 
L 1344 0 
L 684 0 
L 684 794 
z
" transform="scale(0.015625)"/>
       </defs>
       <use xlink:href="#DejaVuSans-2212"/>
       <use xlink:href="#DejaVuSans-30" transform="translate(83.789062 0)"/>
       <use xlink:href="#DejaVuSans-2e" transform="translate(147.412109 0)"/>
       <use xlink:href="#DejaVuSans-31" transform="translate(179.199219 0)"/>
      </g>
     </g>
    </g>
    <g id="ytick_2">
     <g id="line2d_11">
      <g>
       <use xlink:href="#m3355021d2a" x="55.557031" y="203.597938" style="stroke: #000000; stroke-width: 0.8"/>
      </g>
     </g>
     <g id="text_12">
      <!-- 0.0 -->
      <g transform="translate(31.063594 207.777078) scale(0.11 -0.11)">
       <use xlink:href="#DejaVuSans-30"/>
       <use xlink:href="#DejaVuSans-2e" transform="translate(63.623047 0)"/>
       <use xlink:href="#DejaVuSans-30" transform="translate(95.410156 0)"/>
      </g>
     </g>
    </g>
    <g id="ytick_3">
     <g id="line2d_12">
      <g>
       <use xlink:href="#m3355021d2a" x="55.557031" y="165.293938" style="stroke: #000000; stroke-width: 0.8"/>
      </g>
     </g>
     <g id="text_13">
      <!-- 0.1 -->
      <g transform="translate(31.063594 169.473078) scale(0.11 -0.11)">
       <use xlink:href="#DejaVuSans-30"/>
       <use xlink:href="#DejaVuSans-2e" transform="translate(63.623047 0)"/>
       <use xlink:href="#DejaVuSans-31" transform="translate(95.410156 0)"/>
      </g>
     </g>
    </g>
    <g id="ytick_4">
     <g id="line2d_13">
      <g>
       <use xlink:href="#m3355021d2a" x="55.557031" y="126.989938" style="stroke: #000000; stroke-width: 0.8"/>
      </g>
     </g>
     <g id="text_14">
      <!-- 0.2 -->
      <g transform="translate(31.063594 131.169078) scale(0.11 -0.11)">
       <use xlink:href="#DejaVuSans-30"/>
       <use xlink:href="#DejaVuSans-2e" transform="translate(63.623047 0)"/>
       <use xlink:href="#DejaVuSans-32" transform="translate(95.410156 0)"/>
      </g>
     </g>
    </g>
    <g id="ytick_5">
     <g id="line2d_14">
      <g>
       <use xlink:href="#m3355021d2a" x="55.557031" y="88.685938" style="stroke: #000000; stroke-width: 0.8"/>
      </g>
     </g>
     <g id="text_15">
      <!-- 0.3 -->
      <g transform="translate(31.063594 92.865078) scale(0.11 -0.11)">
       <use xlink:href="#DejaVuSans-30"/>
       <use xlink:href="#DejaVuSans-2e" transform="translate(63.623047 0)"/>
       <use xlink:href="#DejaVuSans-33" transform="translate(95.410156 0)"/>
      </g>
     </g>
    </g>
    <g id="ytick_6">
     <g id="line2d_15">
      <g>
       <use xlink:href="#m3355021d2a" x="55.557031" y="50.381938" style="stroke: #000000; stroke-width: 0.8"/>
      </g>
     </g>
     <g id="text_16">
      <!-- 0.4 -->
      <g transform="translate(31.063594 54.561078) scale(0.11 -0.11)">
       <use xlink:href="#DejaVuSans-30"/>
       <use xlink:href="#DejaVuSans-2e" transform="translate(63.623047 0)"/>
       <use xlink:href="#DejaVuSans-34" transform="translate(95.410156 0)"/>
      </g>
     </g>
    </g>
    <g id="text_17">
     <!-- f(x) -->
     <g transform="translate(15.558281 146.049141) rotate(-90) scale(0.11 -0.11)">
      <defs>
       <path id="DejaVuSans-66" d="M 2375 4863 
L 2375 4384 
L 1825 4384 
Q 1516 4384 1395 4259 
Q 1275 4134 1275 3809 
L 1275 3500 
L 2222 3500 
L 2222 3053 
L 1275 3053 
L 1275 0 
L 697 0 
L 697 3053 
L 147 3053 
L 147 3500 
L 697 3500 
L 697 3744 
Q 697 4328 969 4595 
Q 1241 4863 1831 4863 
L 2375 4863 
z
" transform="scale(0.015625)"/>
       <path id="DejaVuSans-28" d="M 1984 4856 
Q 1566 4138 1362 3434 
Q 1159 2731 1159 2009 
Q 1159 1288 1364 580 
Q 1569 -128 1984 -844 
L 1484 -844 
Q 1016 -109 783 600 
Q 550 1309 550 2009 
Q 550 2706 781 3412 
Q 1013 4119 1484 4856 
L 1984 4856 
z
" transform="scale(0.015625)"/>
       <path id="DejaVuSans-29" d="M 513 4856 
L 1013 4856 
Q 1481 4119 1714 3412 
Q 1947 2706 1947 2009 
Q 1947 1309 1714 600 
Q 1481 -109 1013 -844 
L 513 -844 
Q 928 -128 1133 580 
Q 1338 1288 1338 2009 
Q 1338 2731 1133 3434 
Q 928 4138 513 4856 
z
" transform="scale(0.015625)"/>
      </defs>
      <use xlink:href="#DejaVuSans-66"/>
      <use xlink:href="#DejaVuSans-28" transform="translate(35.205078 0)"/>
      <use xlink:href="#DejaVuSans-78" transform="translate(74.21875 0)"/>
      <use xlink:href="#DejaVuSans-29" transform="translate(133.398438 0)"/>
     </g>
    </g>
   </g>
   <g id="line2d_16">
    <path d="M 63.52846 203.546675 
L 80.142259 203.348947 
L 89.727143 203.02534 
L 96.756058 202.581433 
L 102.506988 202.009381 
L 107.618926 201.276474 
L 112.091872 200.405917 
L 115.925826 199.445926 
L 119.75978 198.246963 
L 122.954741 197.033839 
L 126.149702 195.597262 
L 129.344664 193.908744 
L 132.539625 191.939028 
L 135.734586 189.658745 
L 138.929548 187.039221 
L 141.485517 184.681095 
L 144.041486 182.075839 
L 146.597455 179.212274 
L 149.792416 175.255613 
L 152.987378 170.86796 
L 156.182339 166.043149 
L 159.3773 160.7831 
L 162.572262 155.098954 
L 166.406215 147.748988 
L 170.240169 139.877484 
L 174.713115 130.145243 
L 180.464045 117.034123 
L 191.965906 90.652493 
L 195.79986 82.442624 
L 198.994821 76.051728 
L 202.189782 70.183752 
L 204.745752 65.933961 
L 207.301721 62.131763 
L 209.218697 59.6005 
L 211.135674 57.362614 
L 213.052651 55.433087 
L 214.969628 53.824962 
L 216.886605 52.549201 
L 218.803581 51.614555 
L 220.720558 51.027466 
L 221.998543 50.831266 
L 223.276527 50.791996 
L 224.554512 50.909776 
L 225.832496 51.184244 
L 227.110481 51.614555 
L 229.027458 52.549201 
L 230.944435 53.824962 
L 232.861411 55.433087 
L 234.778388 57.362614 
L 236.695365 59.6005 
L 238.612342 62.131763 
L 241.168311 65.933961 
L 243.72428 70.183752 
L 246.280249 74.832978 
L 249.47521 81.127651 
L 253.309164 89.25042 
L 257.78211 99.275804 
L 274.395909 137.151178 
L 278.229863 145.179564 
L 282.063816 152.710967 
L 285.258778 158.559376 
L 288.453739 163.990952 
L 291.6487 168.99058 
L 294.843662 173.552783 
L 298.038623 177.680634 
L 301.233584 181.384563 
L 304.428546 184.681095 
L 307.623507 187.591595 
L 310.818468 190.14104 
L 314.01343 192.356881 
L 317.208391 194.268001 
L 320.403352 195.903806 
L 323.598314 197.293449 
L 326.793275 198.465194 
L 330.627229 199.621397 
L 334.461182 200.545527 
L 338.934128 201.382 
L 344.046066 202.084706 
L 349.796997 202.63187 
L 356.825912 203.055287 
L 365.771804 203.348947 
L 378.551649 203.522967 
L 382.385603 203.546675 
L 382.385603 203.546675 
" clip-path="url(#pf49ee52b8d)" style="fill: none; stroke: #4c72b0; stroke-width: 2.2; stroke-linecap: square"/>
   </g>
   <g id="patch_3">
    <path d="M 55.557031 241.901938 
L 55.557031 31.229938 
" style="fill: none; stroke: #000000; stroke-width: 0.8; stroke-linejoin: miter; stroke-linecap: square"/>
   </g>
   <g id="patch_4">
    <path d="M 55.557031 241.901938 
L 390.357031 241.901938 
" style="fill: none; stroke: #000000; stroke-width: 0.8; stroke-linejoin: miter; stroke-linecap: square"/>
   </g>
   <g id="patch_5">
    <path d="M 259.137454 209.343538 
Q 222.955667 209.343538 186.773879 209.343538 
" style="fill: none; stroke: #2563eb; stroke-width: 1.5; stroke-linecap: round"/>
    <path d="M 254.737454 207.143538 
L 259.137454 209.343538 
L 254.737454 211.543538 
" style="fill: none; stroke: #2563eb; stroke-width: 1.5; stroke-linecap: round"/>
    <path d="M 191.173879 211.543538 
L 186.773879 209.343538 
L 191.173879 207.143538 
" style="fill: none; stroke: #2563eb; stroke-width: 1.5; stroke-linecap: round"/>
   </g>
   <g id="text_18">
    <!-- 68%  (±1σ) -->
    <g style="fill: #2563eb" transform="translate(194.533203 223.076851) scale(0.09 -0.09)">
     <defs>
      <path id="DejaVuSans-Bold-36" d="M 2316 2303 
Q 2000 2303 1842 2098 
Q 1684 1894 1684 1484 
Q 1684 1075 1842 870 
Q 2000 666 2316 666 
Q 2634 666 2792 870 
Q 2950 1075 2950 1484 
Q 2950 1894 2792 2098 
Q 2634 2303 2316 2303 
z
M 3803 4544 
L 3803 3681 
Q 3506 3822 3243 3889 
Q 2981 3956 2731 3956 
Q 2194 3956 1894 3657 
Q 1594 3359 1544 2772 
Q 1750 2925 1990 3001 
Q 2231 3078 2516 3078 
Q 3231 3078 3670 2659 
Q 4109 2241 4109 1563 
Q 4109 813 3618 361 
Q 3128 -91 2303 -91 
Q 1394 -91 895 523 
Q 397 1138 397 2266 
Q 397 3422 980 4083 
Q 1563 4744 2578 4744 
Q 2900 4744 3203 4694 
Q 3506 4644 3803 4544 
z
" transform="scale(0.015625)"/>
      <path id="DejaVuSans-Bold-38" d="M 2228 2088 
Q 1891 2088 1709 1903 
Q 1528 1719 1528 1375 
Q 1528 1031 1709 848 
Q 1891 666 2228 666 
Q 2563 666 2741 848 
Q 2919 1031 2919 1375 
Q 2919 1722 2741 1905 
Q 2563 2088 2228 2088 
z
M 1350 2484 
Q 925 2613 709 2878 
Q 494 3144 494 3541 
Q 494 4131 934 4440 
Q 1375 4750 2228 4750 
Q 3075 4750 3515 4442 
Q 3956 4134 3956 3541 
Q 3956 3144 3739 2878 
Q 3522 2613 3097 2484 
Q 3572 2353 3814 2058 
Q 4056 1763 4056 1313 
Q 4056 619 3595 264 
Q 3134 -91 2228 -91 
Q 1319 -91 855 264 
Q 391 619 391 1313 
Q 391 1763 633 2058 
Q 875 2353 1350 2484 
z
M 1631 3419 
Q 1631 3141 1786 2991 
Q 1941 2841 2228 2841 
Q 2509 2841 2662 2991 
Q 2816 3141 2816 3419 
Q 2816 3697 2662 3845 
Q 2509 3994 2228 3994 
Q 1941 3994 1786 3844 
Q 1631 3694 1631 3419 
z
" transform="scale(0.015625)"/>
      <path id="DejaVuSans-Bold-25" d="M 4959 1925 
Q 4738 1925 4616 1733 
Q 4494 1541 4494 1184 
Q 4494 825 4614 633 
Q 4734 441 4959 441 
Q 5184 441 5303 633 
Q 5422 825 5422 1184 
Q 5422 1541 5301 1733 
Q 5181 1925 4959 1925 
z
M 4959 2450 
Q 5541 2450 5875 2112 
Q 6209 1775 6209 1184 
Q 6209 594 5875 251 
Q 5541 -91 4959 -91 
Q 4378 -91 4042 251 
Q 3706 594 3706 1184 
Q 3706 1772 4042 2111 
Q 4378 2450 4959 2450 
z
M 2094 -91 
L 1403 -91 
L 4319 4750 
L 5013 4750 
L 2094 -91 
z
M 1453 4750 
Q 2034 4750 2367 4411 
Q 2700 4072 2700 3481 
Q 2700 2891 2367 2550 
Q 2034 2209 1453 2209 
Q 872 2209 539 2550 
Q 206 2891 206 3481 
Q 206 4072 539 4411 
Q 872 4750 1453 4750 
z
M 1453 4225 
Q 1228 4225 1106 4031 
Q 984 3838 984 3481 
Q 984 3122 1106 2926 
Q 1228 2731 1453 2731 
Q 1678 2731 1798 2926 
Q 1919 3122 1919 3481 
Q 1919 3838 1797 4031 
Q 1675 4225 1453 4225 
z
" transform="scale(0.015625)"/>
      <path id="DejaVuSans-Bold-20" transform="scale(0.015625)"/>
      <path id="DejaVuSans-Bold-28" d="M 2413 -844 
L 1484 -844 
Q 1006 -72 778 623 
Q 550 1319 550 2003 
Q 550 2688 779 3389 
Q 1009 4091 1484 4856 
L 2413 4856 
Q 2013 4116 1813 3408 
Q 1613 2700 1613 2009 
Q 1613 1319 1811 609 
Q 2009 -100 2413 -844 
z
" transform="scale(0.015625)"/>
      <path id="DejaVuSans-Bold-b1" d="M 3053 4013 
L 3053 2906 
L 4684 2906 
L 4684 2169 
L 3053 2169 
L 3053 1063 
L 2309 1063 
L 2309 2169 
L 678 2169 
L 678 2906 
L 2309 2906 
L 2309 4013 
L 3053 4013 
z
M 678 744 
L 4684 744 
L 4684 0 
L 678 0 
L 678 744 
z
" transform="scale(0.015625)"/>
      <path id="DejaVuSans-Bold-31" d="M 750 831 
L 1813 831 
L 1813 3847 
L 722 3622 
L 722 4441 
L 1806 4666 
L 2950 4666 
L 2950 831 
L 4013 831 
L 4013 0 
L 750 0 
L 750 831 
z
" transform="scale(0.015625)"/>
      <path id="DejaVuSans-Bold-3c3" d="M 2200 2784 
Q 1831 2784 1636 2517 
Q 1441 2250 1441 1747 
Q 1441 1244 1636 976 
Q 1831 709 2200 709 
Q 2569 709 2762 976 
Q 2956 1244 2956 1747 
Q 2956 2250 2762 2517 
Q 2569 2784 2200 2784 
z
M 4650 2700 
L 3916 2700 
Q 4122 2291 4122 1747 
Q 4122 884 3614 396 
Q 3106 -91 2203 -91 
Q 1297 -91 786 396 
Q 275 884 275 1747 
Q 275 2609 788 3097 
Q 1209 3500 2203 3500 
L 4650 3500 
L 4650 2700 
z
" transform="scale(0.015625)"/>
      <path id="DejaVuSans-Bold-29" d="M 513 -844 
Q 913 -100 1113 609 
Q 1313 1319 1313 2009 
Q 1313 2700 1113 3408 
Q 913 4116 513 4856 
L 1441 4856 
Q 1916 4091 2145 3389 
Q 2375 2688 2375 2003 
Q 2375 1319 2147 623 
Q 1919 -72 1441 -844 
L 513 -844 
z
" transform="scale(0.015625)"/>
     </defs>
     <use xlink:href="#DejaVuSans-Bold-36"/>
     <use xlink:href="#DejaVuSans-Bold-38" transform="translate(69.580078 0)"/>
     <use xlink:href="#DejaVuSans-Bold-25" transform="translate(139.160156 0)"/>
     <use xlink:href="#DejaVuSans-Bold-20" transform="translate(239.355469 0)"/>
     <use xlink:href="#DejaVuSans-Bold-20" transform="translate(274.169922 0)"/>
     <use xlink:href="#DejaVuSans-Bold-28" transform="translate(308.984375 0)"/>
     <use xlink:href="#DejaVuSans-Bold-b1" transform="translate(354.6875 0)"/>
     <use xlink:href="#DejaVuSans-Bold-31" transform="translate(438.476562 0)"/>
     <use xlink:href="#DejaVuSans-Bold-3c3" transform="translate(508.056641 0)"/>
     <use xlink:href="#DejaVuSans-Bold-29" transform="translate(585.9375 0)"/>
    </g>
   </g>
   <g id="patch_6">
    <path d="M 298.994597 226.580338 
Q 222.958904 226.580338 146.92321 226.580338 
" style="fill: none; stroke: #7c3aed; stroke-width: 1.5; stroke-linecap: round"/>
    <path d="M 294.594597 224.380338 
L 298.994597 226.580338 
L 294.594597 228.780338 
" style="fill: none; stroke: #7c3aed; stroke-width: 1.5; stroke-linecap: round"/>
    <path d="M 151.32321 228.780338 
L 146.92321 226.580338 
L 151.32321 224.380338 
" style="fill: none; stroke: #7c3aed; stroke-width: 1.5; stroke-linecap: round"/>
   </g>
   <g id="text_19">
    <!-- 95%  (±2σ) -->
    <g style="fill: #7c3aed" transform="translate(194.533203 240.313651) scale(0.09 -0.09)">
     <defs>
      <path id="DejaVuSans-Bold-39" d="M 641 103 
L 641 966 
Q 928 831 1190 764 
Q 1453 697 1709 697 
Q 2247 697 2547 995 
Q 2847 1294 2900 1881 
Q 2688 1725 2447 1647 
Q 2206 1569 1925 1569 
Q 1209 1569 770 1986 
Q 331 2403 331 3084 
Q 331 3838 820 4291 
Q 1309 4744 2131 4744 
Q 3044 4744 3544 4128 
Q 4044 3513 4044 2388 
Q 4044 1231 3459 570 
Q 2875 -91 1856 -91 
Q 1528 -91 1228 -42 
Q 928 6 641 103 
z
M 2125 2350 
Q 2441 2350 2600 2554 
Q 2759 2759 2759 3169 
Q 2759 3575 2600 3781 
Q 2441 3988 2125 3988 
Q 1809 3988 1650 3781 
Q 1491 3575 1491 3169 
Q 1491 2759 1650 2554 
Q 1809 2350 2125 2350 
z
" transform="scale(0.015625)"/>
      <path id="DejaVuSans-Bold-35" d="M 678 4666 
L 3669 4666 
L 3669 3781 
L 1638 3781 
L 1638 3059 
Q 1775 3097 1914 3117 
Q 2053 3138 2203 3138 
Q 3056 3138 3531 2711 
Q 4006 2284 4006 1522 
Q 4006 766 3489 337 
Q 2972 -91 2053 -91 
Q 1656 -91 1267 -14 
Q 878 63 494 219 
L 494 1166 
Q 875 947 1217 837 
Q 1559 728 1863 728 
Q 2300 728 2551 942 
Q 2803 1156 2803 1522 
Q 2803 1891 2551 2103 
Q 2300 2316 1863 2316 
Q 1603 2316 1309 2248 
Q 1016 2181 678 2041 
L 678 4666 
z
" transform="scale(0.015625)"/>
      <path id="DejaVuSans-Bold-32" d="M 1844 884 
L 3897 884 
L 3897 0 
L 506 0 
L 506 884 
L 2209 2388 
Q 2438 2594 2547 2791 
Q 2656 2988 2656 3200 
Q 2656 3528 2436 3728 
Q 2216 3928 1850 3928 
Q 1569 3928 1234 3808 
Q 900 3688 519 3450 
L 519 4475 
Q 925 4609 1322 4679 
Q 1719 4750 2100 4750 
Q 2938 4750 3402 4381 
Q 3866 4013 3866 3353 
Q 3866 2972 3669 2642 
Q 3472 2313 2841 1759 
L 1844 884 
z
" transform="scale(0.015625)"/>
     </defs>
     <use xlink:href="#DejaVuSans-Bold-39"/>
     <use xlink:href="#DejaVuSans-Bold-35" transform="translate(69.580078 0)"/>
     <use xlink:href="#DejaVuSans-Bold-25" transform="translate(139.160156 0)"/>
     <use xlink:href="#DejaVuSans-Bold-20" transform="translate(239.355469 0)"/>
     <use xlink:href="#DejaVuSans-Bold-20" transform="translate(274.169922 0)"/>
     <use xlink:href="#DejaVuSans-Bold-28" transform="translate(308.984375 0)"/>
     <use xlink:href="#DejaVuSans-Bold-b1" transform="translate(354.6875 0)"/>
     <use xlink:href="#DejaVuSans-Bold-32" transform="translate(438.476562 0)"/>
     <use xlink:href="#DejaVuSans-Bold-3c3" transform="translate(508.056641 0)"/>
     <use xlink:href="#DejaVuSans-Bold-29" transform="translate(585.9375 0)"/>
    </g>
   </g>
   <g id="text_20">
    <g id="patch_7">
     <path d="M 287.683063 74.229913 
L 383.661031 74.229913 
Q 387.261031 74.229913 387.261031 70.629913 
L 387.261031 41.763538 
Q 387.261031 38.163538 383.661031 38.163538 
L 287.683063 38.163538 
Q 284.083062 38.163538 284.083062 41.763538 
L 284.083062 70.629913 
Q 284.083062 74.229913 287.683063 74.229913 
z
" style="fill: #f0f0f0; stroke: #cccccc; stroke-linejoin: miter"/>
    </g>
    <!-- E[X] = μ -->
    <g style="fill: #555555" transform="translate(345.79775 48.602131) scale(0.09 -0.09)">
     <defs>
      <path id="DejaVuSans-45" d="M 628 4666 
L 3578 4666 
L 3578 4134 
L 1259 4134 
L 1259 2753 
L 3481 2753 
L 3481 2222 
L 1259 2222 
L 1259 531 
L 3634 531 
L 3634 0 
L 628 0 
L 628 4666 
z
" transform="scale(0.015625)"/>
      <path id="DejaVuSans-5b" d="M 550 4863 
L 1875 4863 
L 1875 4416 
L 1125 4416 
L 1125 -397 
L 1875 -397 
L 1875 -844 
L 550 -844 
L 550 4863 
z
" transform="scale(0.015625)"/>
      <path id="DejaVuSans-58" d="M 403 4666 
L 1081 4666 
L 2241 2931 
L 3406 4666 
L 4084 4666 
L 2584 2425 
L 4184 0 
L 3506 0 
L 2194 1984 
L 872 0 
L 191 0 
L 1856 2491 
L 403 4666 
z
" transform="scale(0.015625)"/>
      <path id="DejaVuSans-5d" d="M 1947 4863 
L 1947 -844 
L 622 -844 
L 622 -397 
L 1369 -397 
L 1369 4416 
L 622 4416 
L 622 4863 
L 1947 4863 
z
" transform="scale(0.015625)"/>
      <path id="DejaVuSans-20" transform="scale(0.015625)"/>
      <path id="DejaVuSans-3d" d="M 678 2906 
L 4684 2906 
L 4684 2381 
L 678 2381 
L 678 2906 
z
M 678 1631 
L 4684 1631 
L 4684 1100 
L 678 1100 
L 678 1631 
z
" transform="scale(0.015625)"/>
      <path id="DejaVuSans-3bc" d="M 544 -1331 
L 544 3500 
L 1119 3500 
L 1119 1325 
Q 1119 872 1334 640 
Q 1550 409 1972 409 
Q 2434 409 2667 671 
Q 2900 934 2900 1459 
L 2900 3500 
L 3475 3500 
L 3475 806 
Q 3475 619 3529 530 
Q 3584 441 3700 441 
Q 3728 441 3778 458 
Q 3828 475 3916 513 
L 3916 50 
Q 3788 -22 3673 -56 
Q 3559 -91 3450 -91 
Q 3234 -91 3106 31 
Q 2978 153 2931 403 
Q 2775 156 2548 32 
Q 2322 -91 2016 -91 
Q 1697 -91 1473 31 
Q 1250 153 1119 397 
L 1119 -1331 
L 544 -1331 
z
" transform="scale(0.015625)"/>
     </defs>
     <use xlink:href="#DejaVuSans-45"/>
     <use xlink:href="#DejaVuSans-5b" transform="translate(63.183594 0)"/>
     <use xlink:href="#DejaVuSans-58" transform="translate(102.197266 0)"/>
     <use xlink:href="#DejaVuSans-5d" transform="translate(170.703125 0)"/>
     <use xlink:href="#DejaVuSans-20" transform="translate(209.716797 0)"/>
     <use xlink:href="#DejaVuSans-3d" transform="translate(241.503906 0)"/>
     <use xlink:href="#DejaVuSans-20" transform="translate(325.292969 0)"/>
     <use xlink:href="#DejaVuSans-3bc" transform="translate(357.080078 0)"/>
    </g>
    <!-- Var[X] = σ² -->
    <g style="fill: #555555" transform="translate(333.224469 58.680163) scale(0.09 -0.09)">
     <defs>
      <path id="DejaVuSans-56" d="M 1831 0 
L 50 4666 
L 709 4666 
L 2188 738 
L 3669 4666 
L 4325 4666 
L 2547 0 
L 1831 0 
z
" transform="scale(0.015625)"/>
      <path id="DejaVuSans-61" d="M 2194 1759 
Q 1497 1759 1228 1600 
Q 959 1441 959 1056 
Q 959 750 1161 570 
Q 1363 391 1709 391 
Q 2188 391 2477 730 
Q 2766 1069 2766 1631 
L 2766 1759 
L 2194 1759 
z
M 3341 1997 
L 3341 0 
L 2766 0 
L 2766 531 
Q 2569 213 2275 61 
Q 1981 -91 1556 -91 
Q 1019 -91 701 211 
Q 384 513 384 1019 
Q 384 1609 779 1909 
Q 1175 2209 1959 2209 
L 2766 2209 
L 2766 2266 
Q 2766 2663 2505 2880 
Q 2244 3097 1772 3097 
Q 1472 3097 1187 3025 
Q 903 2953 641 2809 
L 641 3341 
Q 956 3463 1253 3523 
Q 1550 3584 1831 3584 
Q 2591 3584 2966 3190 
Q 3341 2797 3341 1997 
z
" transform="scale(0.015625)"/>
      <path id="DejaVuSans-72" d="M 2631 2963 
Q 2534 3019 2420 3045 
Q 2306 3072 2169 3072 
Q 1681 3072 1420 2755 
Q 1159 2438 1159 1844 
L 1159 0 
L 581 0 
L 581 3500 
L 1159 3500 
L 1159 2956 
Q 1341 3275 1631 3429 
Q 1922 3584 2338 3584 
Q 2397 3584 2469 3576 
Q 2541 3569 2628 3553 
L 2631 2963 
z
" transform="scale(0.015625)"/>
      <path id="DejaVuSans-3c3" d="M 1959 3044 
Q 1484 3044 1228 2700 
Q 959 2341 959 1747 
Q 959 1119 1226 758 
Q 1494 397 1959 397 
Q 2419 397 2687 759 
Q 2956 1122 2956 1747 
Q 2956 2319 2688 2700 
Q 2441 3044 1959 3044 
z
M 1959 3500 
L 3869 3500 
L 3869 2925 
L 3225 2925 
Q 3566 2438 3566 1747 
Q 3566 888 3138 400 
Q 2709 -91 1959 -91 
Q 1206 -91 781 400 
Q 353 888 353 1747 
Q 353 2613 781 3097 
Q 1134 3500 1959 3500 
z
" transform="scale(0.015625)"/>
      <path id="DejaVuSans-b2" d="M 838 2444 
L 2163 2444 
L 2163 2088 
L 294 2088 
L 294 2431 
Q 400 2528 597 2703 
Q 1672 3656 1672 3950 
Q 1672 4156 1509 4282 
Q 1347 4409 1081 4409 
Q 919 4409 728 4354 
Q 538 4300 313 4191 
L 313 4575 
Q 553 4663 761 4706 
Q 969 4750 1147 4750 
Q 1600 4750 1872 4544 
Q 2144 4338 2144 4000 
Q 2144 3566 1109 2678 
Q 934 2528 838 2444 
z
" transform="scale(0.015625)"/>
     </defs>
     <use xlink:href="#DejaVuSans-56"/>
     <use xlink:href="#DejaVuSans-61" transform="translate(60.658203 0)"/>
     <use xlink:href="#DejaVuSans-72" transform="translate(121.9375 0)"/>
     <use xlink:href="#DejaVuSans-5b" transform="translate(163.050781 0)"/>
     <use xlink:href="#DejaVuSans-58" transform="translate(202.064453 0)"/>
     <use xlink:href="#DejaVuSans-5d" transform="translate(270.570312 0)"/>
     <use xlink:href="#DejaVuSans-20" transform="translate(309.583984 0)"/>
     <use xlink:href="#DejaVuSans-3d" transform="translate(341.371094 0)"/>
     <use xlink:href="#DejaVuSans-20" transform="translate(425.160156 0)"/>
     <use xlink:href="#DejaVuSans-3c3" transform="translate(456.947266 0)"/>
     <use xlink:href="#DejaVuSans-b2" transform="translate(520.326172 0)"/>
    </g>
    <!-- Symmetric bell curve -->
    <g style="fill: #555555" transform="translate(287.683063 68.758194) scale(0.09 -0.09)">
     <defs>
      <path id="DejaVuSans-53" d="M 3425 4513 
L 3425 3897 
Q 3066 4069 2747 4153 
Q 2428 4238 2131 4238 
Q 1616 4238 1336 4038 
Q 1056 3838 1056 3469 
Q 1056 3159 1242 3001 
Q 1428 2844 1947 2747 
L 2328 2669 
Q 3034 2534 3370 2195 
Q 3706 1856 3706 1288 
Q 3706 609 3251 259 
Q 2797 -91 1919 -91 
Q 1588 -91 1214 -16 
Q 841 59 441 206 
L 441 856 
Q 825 641 1194 531 
Q 1563 422 1919 422 
Q 2459 422 2753 634 
Q 3047 847 3047 1241 
Q 3047 1584 2836 1778 
Q 2625 1972 2144 2069 
L 1759 2144 
Q 1053 2284 737 2584 
Q 422 2884 422 3419 
Q 422 4038 858 4394 
Q 1294 4750 2059 4750 
Q 2388 4750 2728 4690 
Q 3069 4631 3425 4513 
z
" transform="scale(0.015625)"/>
      <path id="DejaVuSans-79" d="M 2059 -325 
Q 1816 -950 1584 -1140 
Q 1353 -1331 966 -1331 
L 506 -1331 
L 506 -850 
L 844 -850 
Q 1081 -850 1212 -737 
Q 1344 -625 1503 -206 
L 1606 56 
L 191 3500 
L 800 3500 
L 1894 763 
L 2988 3500 
L 3597 3500 
L 2059 -325 
z
" transform="scale(0.015625)"/>
      <path id="DejaVuSans-6d" d="M 3328 2828 
Q 3544 3216 3844 3400 
Q 4144 3584 4550 3584 
Q 5097 3584 5394 3201 
Q 5691 2819 5691 2113 
L 5691 0 
L 5113 0 
L 5113 2094 
Q 5113 2597 4934 2840 
Q 4756 3084 4391 3084 
Q 3944 3084 3684 2787 
Q 3425 2491 3425 1978 
L 3425 0 
L 2847 0 
L 2847 2094 
Q 2847 2600 2669 2842 
Q 2491 3084 2119 3084 
Q 1678 3084 1418 2786 
Q 1159 2488 1159 1978 
L 1159 0 
L 581 0 
L 581 3500 
L 1159 3500 
L 1159 2956 
Q 1356 3278 1631 3431 
Q 1906 3584 2284 3584 
Q 2666 3584 2933 3390 
Q 3200 3197 3328 2828 
z
" transform="scale(0.015625)"/>
      <path id="DejaVuSans-65" d="M 3597 1894 
L 3597 1613 
L 953 1613 
Q 991 1019 1311 708 
Q 1631 397 2203 397 
Q 2534 397 2845 478 
Q 3156 559 3463 722 
L 3463 178 
Q 3153 47 2828 -22 
Q 2503 -91 2169 -91 
Q 1331 -91 842 396 
Q 353 884 353 1716 
Q 353 2575 817 3079 
Q 1281 3584 2069 3584 
Q 2775 3584 3186 3129 
Q 3597 2675 3597 1894 
z
M 3022 2063 
Q 3016 2534 2758 2815 
Q 2500 3097 2075 3097 
Q 1594 3097 1305 2825 
Q 1016 2553 972 2059 
L 3022 2063 
z
" transform="scale(0.015625)"/>
      <path id="DejaVuSans-74" d="M 1172 4494 
L 1172 3500 
L 2356 3500 
L 2356 3053 
L 1172 3053 
L 1172 1153 
Q 1172 725 1289 603 
Q 1406 481 1766 481 
L 2356 481 
L 2356 0 
L 1766 0 
Q 1100 0 847 248 
Q 594 497 594 1153 
L 594 3053 
L 172 3053 
L 172 3500 
L 594 3500 
L 594 4494 
L 1172 4494 
z
" transform="scale(0.015625)"/>
      <path id="DejaVuSans-69" d="M 603 3500 
L 1178 3500 
L 1178 0 
L 603 0 
L 603 3500 
z
M 603 4863 
L 1178 4863 
L 1178 4134 
L 603 4134 
L 603 4863 
z
" transform="scale(0.015625)"/>
      <path id="DejaVuSans-63" d="M 3122 3366 
L 3122 2828 
Q 2878 2963 2633 3030 
Q 2388 3097 2138 3097 
Q 1578 3097 1268 2742 
Q 959 2388 959 1747 
Q 959 1106 1268 751 
Q 1578 397 2138 397 
Q 2388 397 2633 464 
Q 2878 531 3122 666 
L 3122 134 
Q 2881 22 2623 -34 
Q 2366 -91 2075 -91 
Q 1284 -91 818 406 
Q 353 903 353 1747 
Q 353 2603 823 3093 
Q 1294 3584 2113 3584 
Q 2378 3584 2631 3529 
Q 2884 3475 3122 3366 
z
" transform="scale(0.015625)"/>
      <path id="DejaVuSans-62" d="M 3116 1747 
Q 3116 2381 2855 2742 
Q 2594 3103 2138 3103 
Q 1681 3103 1420 2742 
Q 1159 2381 1159 1747 
Q 1159 1113 1420 752 
Q 1681 391 2138 391 
Q 2594 391 2855 752 
Q 3116 1113 3116 1747 
z
M 1159 2969 
Q 1341 3281 1617 3432 
Q 1894 3584 2278 3584 
Q 2916 3584 3314 3078 
Q 3713 2572 3713 1747 
Q 3713 922 3314 415 
Q 2916 -91 2278 -91 
Q 1894 -91 1617 61 
Q 1341 213 1159 525 
L 1159 0 
L 581 0 
L 581 4863 
L 1159 4863 
L 1159 2969 
z
" transform="scale(0.015625)"/>
      <path id="DejaVuSans-6c" d="M 603 4863 
L 1178 4863 
L 1178 0 
L 603 0 
L 603 4863 
z
" transform="scale(0.015625)"/>
      <path id="DejaVuSans-75" d="M 544 1381 
L 544 3500 
L 1119 3500 
L 1119 1403 
Q 1119 906 1312 657 
Q 1506 409 1894 409 
Q 2359 409 2629 706 
Q 2900 1003 2900 1516 
L 2900 3500 
L 3475 3500 
L 3475 0 
L 2900 0 
L 2900 538 
Q 2691 219 2414 64 
Q 2138 -91 1772 -91 
Q 1169 -91 856 284 
Q 544 659 544 1381 
z
M 1991 3584 
L 1991 3584 
z
" transform="scale(0.015625)"/>
      <path id="DejaVuSans-76" d="M 191 3500 
L 800 3500 
L 1894 563 
L 2988 3500 
L 3597 3500 
L 2284 0 
L 1503 0 
L 191 3500 
z
" transform="scale(0.015625)"/>
     </defs>
     <use xlink:href="#DejaVuSans-53"/>
     <use xlink:href="#DejaVuSans-79" transform="translate(63.476562 0)"/>
     <use xlink:href="#DejaVuSans-6d" transform="translate(122.65625 0)"/>
     <use xlink:href="#DejaVuSans-6d" transform="translate(220.068359 0)"/>
     <use xlink:href="#DejaVuSans-65" transform="translate(317.480469 0)"/>
     <use xlink:href="#DejaVuSans-74" transform="translate(379.003906 0)"/>
     <use xlink:href="#DejaVuSans-72" transform="translate(418.212891 0)"/>
     <use xlink:href="#DejaVuSans-69" transform="translate(459.326172 0)"/>
     <use xlink:href="#DejaVuSans-63" transform="translate(487.109375 0)"/>
     <use xlink:href="#DejaVuSans-20" transform="translate(542.089844 0)"/>
     <use xlink:href="#DejaVuSans-62" transform="translate(573.876953 0)"/>
     <use xlink:href="#DejaVuSans-65" transform="translate(637.353516 0)"/>
     <use xlink:href="#DejaVuSans-6c" transform="translate(698.876953 0)"/>
     <use xlink:href="#DejaVuSans-6c" transform="translate(726.660156 0)"/>
     <use xlink:href="#DejaVuSans-20" transform="translate(754.443359 0)"/>
     <use xlink:href="#DejaVuSans-63" transform="translate(786.230469 0)"/>
     <use xlink:href="#DejaVuSans-75" transform="translate(841.210938 0)"/>
     <use xlink:href="#DejaVuSans-72" transform="translate(904.589844 0)"/>
     <use xlink:href="#DejaVuSans-76" transform="translate(945.703125 0)"/>
     <use xlink:href="#DejaVuSans-65" transform="translate(1004.882812 0)"/>
    </g>
   </g>
   <g id="text_21">
    <!-- Normal(μ = 0, σ² = 1) -->
    <g transform="translate(142.890781 17.229938) scale(0.132 -0.132)">
     <defs>
      <path id="DejaVuSans-Bold-4e" d="M 588 4666 
L 1931 4666 
L 3628 1466 
L 3628 4666 
L 4769 4666 
L 4769 0 
L 3425 0 
L 1728 3200 
L 1728 0 
L 588 0 
L 588 4666 
z
" transform="scale(0.015625)"/>
      <path id="DejaVuSans-Bold-6f" d="M 2203 2784 
Q 1831 2784 1636 2517 
Q 1441 2250 1441 1747 
Q 1441 1244 1636 976 
Q 1831 709 2203 709 
Q 2569 709 2762 976 
Q 2956 1244 2956 1747 
Q 2956 2250 2762 2517 
Q 2569 2784 2203 2784 
z
M 2203 3584 
Q 3106 3584 3614 3096 
Q 4122 2609 4122 1747 
Q 4122 884 3614 396 
Q 3106 -91 2203 -91 
Q 1297 -91 786 396 
Q 275 884 275 1747 
Q 275 2609 786 3096 
Q 1297 3584 2203 3584 
z
" transform="scale(0.015625)"/>
      <path id="DejaVuSans-Bold-72" d="M 3138 2547 
Q 2991 2616 2845 2648 
Q 2700 2681 2553 2681 
Q 2122 2681 1889 2404 
Q 1656 2128 1656 1613 
L 1656 0 
L 538 0 
L 538 3500 
L 1656 3500 
L 1656 2925 
Q 1872 3269 2151 3426 
Q 2431 3584 2822 3584 
Q 2878 3584 2943 3579 
Q 3009 3575 3134 3559 
L 3138 2547 
z
" transform="scale(0.015625)"/>
      <path id="DejaVuSans-Bold-6d" d="M 3781 2919 
Q 3994 3244 4286 3414 
Q 4578 3584 4928 3584 
Q 5531 3584 5847 3212 
Q 6163 2841 6163 2131 
L 6163 0 
L 5038 0 
L 5038 1825 
Q 5041 1866 5042 1909 
Q 5044 1953 5044 2034 
Q 5044 2406 4934 2573 
Q 4825 2741 4581 2741 
Q 4263 2741 4089 2478 
Q 3916 2216 3909 1719 
L 3909 0 
L 2784 0 
L 2784 1825 
Q 2784 2406 2684 2573 
Q 2584 2741 2328 2741 
Q 2006 2741 1831 2477 
Q 1656 2213 1656 1722 
L 1656 0 
L 531 0 
L 531 3500 
L 1656 3500 
L 1656 2988 
Q 1863 3284 2130 3434 
Q 2397 3584 2719 3584 
Q 3081 3584 3359 3409 
Q 3638 3234 3781 2919 
z
" transform="scale(0.015625)"/>
      <path id="DejaVuSans-Bold-61" d="M 2106 1575 
Q 1756 1575 1579 1456 
Q 1403 1338 1403 1106 
Q 1403 894 1545 773 
Q 1688 653 1941 653 
Q 2256 653 2472 879 
Q 2688 1106 2688 1447 
L 2688 1575 
L 2106 1575 
z
M 3816 1997 
L 3816 0 
L 2688 0 
L 2688 519 
Q 2463 200 2181 54 
Q 1900 -91 1497 -91 
Q 953 -91 614 226 
Q 275 544 275 1050 
Q 275 1666 698 1953 
Q 1122 2241 2028 2241 
L 2688 2241 
L 2688 2328 
Q 2688 2594 2478 2717 
Q 2269 2841 1825 2841 
Q 1466 2841 1156 2769 
Q 847 2697 581 2553 
L 581 3406 
Q 941 3494 1303 3539 
Q 1666 3584 2028 3584 
Q 2975 3584 3395 3211 
Q 3816 2838 3816 1997 
z
" transform="scale(0.015625)"/>
      <path id="DejaVuSans-Bold-6c" d="M 538 4863 
L 1656 4863 
L 1656 0 
L 538 0 
L 538 4863 
z
" transform="scale(0.015625)"/>
      <path id="DejaVuSans-Bold-3bc" d="M 544 -1338 
L 544 3500 
L 1672 3500 
L 1672 1466 
Q 1672 1103 1828 926 
Q 1984 750 2303 750 
Q 2625 750 2781 926 
Q 2938 1103 2938 1466 
L 2938 3500 
L 4063 3500 
L 4063 1159 
Q 4063 938 4114 850 
Q 4166 763 4288 763 
Q 4344 763 4395 778 
Q 4447 794 4506 831 
L 4506 50 
Q 4341 -22 4195 -56 
Q 4050 -91 3909 -91 
Q 3631 -91 3454 26 
Q 3278 144 3169 403 
Q 3022 156 2811 32 
Q 2600 -91 2322 -91 
Q 2091 -91 1928 -17 
Q 1766 56 1672 206 
L 1672 -1338 
L 544 -1338 
z
" transform="scale(0.015625)"/>
      <path id="DejaVuSans-Bold-3d" d="M 678 3084 
L 4684 3084 
L 4684 2350 
L 678 2350 
L 678 3084 
z
M 678 1663 
L 4684 1663 
L 4684 922 
L 678 922 
L 678 1663 
z
" transform="scale(0.015625)"/>
      <path id="DejaVuSans-Bold-30" d="M 2944 2338 
Q 2944 3213 2780 3570 
Q 2616 3928 2228 3928 
Q 1841 3928 1675 3570 
Q 1509 3213 1509 2338 
Q 1509 1453 1675 1090 
Q 1841 728 2228 728 
Q 2613 728 2778 1090 
Q 2944 1453 2944 2338 
z
M 4147 2328 
Q 4147 1169 3647 539 
Q 3147 -91 2228 -91 
Q 1306 -91 806 539 
Q 306 1169 306 2328 
Q 306 3491 806 4120 
Q 1306 4750 2228 4750 
Q 3147 4750 3647 4120 
Q 4147 3491 4147 2328 
z
" transform="scale(0.015625)"/>
      <path id="DejaVuSans-Bold-2c" d="M 653 1209 
L 1778 1209 
L 1778 256 
L 1006 -909 
L 341 -909 
L 653 256 
L 653 1209 
z
" transform="scale(0.015625)"/>
      <path id="DejaVuSans-Bold-b2" d="M 1288 2613 
L 2444 2613 
L 2444 2088 
L 341 2088 
L 341 2566 
L 1319 3397 
Q 1509 3563 1590 3688 
Q 1672 3813 1672 3938 
Q 1672 4094 1558 4191 
Q 1444 4288 1259 4288 
Q 1066 4288 844 4217 
Q 622 4147 359 4000 
L 359 4581 
Q 631 4666 886 4708 
Q 1141 4750 1375 4750 
Q 1869 4750 2150 4548 
Q 2431 4347 2431 4000 
Q 2431 3775 2320 3586 
Q 2209 3397 1894 3128 
L 1288 2613 
z
" transform="scale(0.015625)"/>
     </defs>
     <use xlink:href="#DejaVuSans-Bold-4e"/>
     <use xlink:href="#DejaVuSans-Bold-6f" transform="translate(83.691406 0)"/>
     <use xlink:href="#DejaVuSans-Bold-72" transform="translate(152.392578 0)"/>
     <use xlink:href="#DejaVuSans-Bold-6d" transform="translate(201.708984 0)"/>
     <use xlink:href="#DejaVuSans-Bold-61" transform="translate(305.908203 0)"/>
     <use xlink:href="#DejaVuSans-Bold-6c" transform="translate(373.388672 0)"/>
     <use xlink:href="#DejaVuSans-Bold-28" transform="translate(407.666016 0)"/>
     <use xlink:href="#DejaVuSans-Bold-3bc" transform="translate(453.369141 0)"/>
     <use xlink:href="#DejaVuSans-Bold-20" transform="translate(526.953125 0)"/>
     <use xlink:href="#DejaVuSans-Bold-3d" transform="translate(561.767578 0)"/>
     <use xlink:href="#DejaVuSans-Bold-20" transform="translate(645.556641 0)"/>
     <use xlink:href="#DejaVuSans-Bold-30" transform="translate(680.371094 0)"/>
     <use xlink:href="#DejaVuSans-Bold-2c" transform="translate(749.951172 0)"/>
     <use xlink:href="#DejaVuSans-Bold-20" transform="translate(787.939453 0)"/>
     <use xlink:href="#DejaVuSans-Bold-3c3" transform="translate(822.753906 0)"/>
     <use xlink:href="#DejaVuSans-Bold-b2" transform="translate(900.634766 0)"/>
     <use xlink:href="#DejaVuSans-Bold-20" transform="translate(944.433594 0)"/>
     <use xlink:href="#DejaVuSans-Bold-3d" transform="translate(979.248047 0)"/>
     <use xlink:href="#DejaVuSans-Bold-20" transform="translate(1063.037109 0)"/>
     <use xlink:href="#DejaVuSans-Bold-31" transform="translate(1097.851562 0)"/>
     <use xlink:href="#DejaVuSans-Bold-29" transform="translate(1167.431641 0)"/>
    </g>
   </g>
  </g>
 </g>
 <defs>
  <clipPath id="pf49ee52b8d">
   <rect x="55.557031" y="31.229938" width="334.8" height="210.672"/>
  </clipPath>
 </defs>
</svg>
