<?xml version="1.0" encoding="utf-8" standalone="no"?>
<!DOCTYPE svg PUBLIC "-//W3C//DTD SVG 1.1//EN"
  "http://www.w3.org/Graphics/SVG/1.1/DTD/svg11.dtd">
<svg xmlns:xlink="http://www.w3.org/1999/xlink" width="348.438375pt" height="320.201812pt" viewBox="0 0 348.438375 320.201812" xmlns="http://www.w3.org/2000/svg" version="1.1">
 <metadata>
  <rdf:RDF xmlns:dc="http://purl.org/dc/elements/1.1/" xmlns:cc="http://creativecommons.org/ns#" xmlns:rdf="http://www.w3.org/1999/02/22-rdf-syntax-ns#">
   <cc:Work>
    <dc:type rdf:resource="http://purl.org/dc/dcmitype/StillImage"/>
    <dc:date>2026-04-12T05:46:16.064094</dc:date>
    <dc:format>image/svg+xml</dc:format>
    <dc:creator>
     <cc:Agent>
      <dc:title>Matplotlib v3.10.8, https://matplotlib.org/</dc:title>
     </cc:Agent>
    </dc:creator>
   </cc:Work>
  </rdf:RDF>
 </metadata>
 <defs>
  <style type="text/css">*{stroke-linejoin: round; stroke-linecap: butt}</style>
 </defs>
 <g id="figure_1">
  <g id="patch_1">
   <path d="M 0 320.201812 
L 348.438375 320.201812 
L 348.438375 0 
L 0 0 
z
" style="fill: #ffffff"/>
  </g>
  <g id="axes_1">
   <g id="patch_2">
    <path d="M 49.479188 280.709937 
L 298.959188 280.709937 
L 298.959188 31.229937 
L 49.479188 31.229937 
z
" style="fill: #ffffff"/>
   </g>
   <g id="matplotlib.axis_1">
    <g id="xtick_1">
     <g id="line2d_1">
      <defs>
       <path id="m7f9f846de9" d="M 0 0 
L 0 3.5 
" style="stroke: #000000; stroke-width: 0.8"/>
      </defs>
      <g>
       <use xlink:href="#m7f9f846de9" x="49.479188" y="280.709937" style="stroke: #000000; stroke-width: 0.8"/>
      </g>
     </g>
     <g id="text_1">
      <!-- −4 -->
      <g transform="translate(41.370984 296.068219) scale(0.11 -0.11)">
       <defs>
        <path id="DejaVuSans-2212" d="M 678 2272 
L 4684 2272 
L 4684 1741 
L 678 1741 
L 678 2272 
z
" transform="scale(0.015625)"/>
        <path id="DejaVuSans-34" d="M 2419 4116 
L 825 1625 
L 2419 1625 
L 2419 4116 
z
M 2253 4666 
L 3047 4666 
L 3047 1625 
L 3713 1625 
L 3713 1100 
L 3047 1100 
L 3047 0 
L 2419 0 
L 2419 1100 
L 313 1100 
L 313 1709 
L 2253 4666 
z
" transform="scale(0.015625)"/>
       </defs>
       <use xlink:href="#DejaVuSans-2212"/>
       <use xlink:href="#DejaVuSans-34" transform="translate(83.789062 0)"/>
      </g>
     </g>
    </g>
    <g id="xtick_2">
     <g id="line2d_2">
      <g>
       <use xlink:href="#m7f9f846de9" x="111.849188" y="280.709937" style="stroke: #000000; stroke-width: 0.8"/>
      </g>
     </g>
     <g id="text_2">
      <!-- −2 -->
      <g transform="translate(103.740984 296.068219) scale(0.11 -0.11)">
       <defs>
        <path id="DejaVuSans-32" d="M 1228 531 
L 3431 531 
L 3431 0 
L 469 0 
L 469 531 
Q 828 903 1448 1529 
Q 2069 2156 2228 2338 
Q 2531 2678 2651 2914 
Q 2772 3150 2772 3378 
Q 2772 3750 2511 3984 
Q 2250 4219 1831 4219 
Q 1534 4219 1204 4116 
Q 875 4013 500 3803 
L 500 4441 
Q 881 4594 1212 4672 
Q 1544 4750 1819 4750 
Q 2544 4750 2975 4387 
Q 3406 4025 3406 3419 
Q 3406 3131 3298 2873 
Q 3191 2616 2906 2266 
Q 2828 2175 2409 1742 
Q 1991 1309 1228 531 
z
" transform="scale(0.015625)"/>
       </defs>
       <use xlink:href="#DejaVuSans-2212"/>
       <use xlink:href="#DejaVuSans-32" transform="translate(83.789062 0)"/>
      </g>
     </g>
    </g>
    <g id="xtick_3">
     <g id="line2d_3">
      <g>
       <use xlink:href="#m7f9f846de9" x="174.219188" y="280.709937" style="stroke: #000000; stroke-width: 0.8"/>
      </g>
     </g>
     <g id="text_3">
      <!-- 0 -->
      <g transform="translate(170.719813 296.068219) scale(0.11 -0.11)">
       <defs>
        <path id="DejaVuSans-30" d="M 2034 4250 
Q 1547 4250 1301 3770 
Q 1056 3291 1056 2328 
Q 1056 1369 1301 889 
Q 1547 409 2034 409 
Q 2525 409 2770 889 
Q 3016 1369 3016 2328 
Q 3016 3291 2770 3770 
Q 2525 4250 2034 4250 
z
M 2034 4750 
Q 2819 4750 3233 4129 
Q 3647 3509 3647 2328 
Q 3647 1150 3233 529 
Q 2819 -91 2034 -91 
Q 1250 -91 836 529 
Q 422 1150 422 2328 
Q 422 3509 836 4129 
Q 1250 4750 2034 4750 
z
" transform="scale(0.015625)"/>
       </defs>
       <use xlink:href="#DejaVuSans-30"/>
      </g>
     </g>
    </g>
    <g id="xtick_4">
     <g id="line2d_4">
      <g>
       <use xlink:href="#m7f9f846de9" x="236.589188" y="280.709937" style="stroke: #000000; stroke-width: 0.8"/>
      </g>
     </g>
     <g id="text_4">
      <!-- 2 -->
      <g transform="translate(233.089813 296.068219) scale(0.11 -0.11)">
       <use xlink:href="#DejaVuSans-32"/>
      </g>
     </g>
    </g>
    <g id="xtick_5">
     <g id="line2d_5">
      <g>
       <use xlink:href="#m7f9f846de9" x="298.959188" y="280.709937" style="stroke: #000000; stroke-width: 0.8"/>
      </g>
     </g>
     <g id="text_5">
      <!-- 4 -->
      <g transform="translate(295.459813 296.068219) scale(0.11 -0.11)">
       <use xlink:href="#DejaVuSans-34"/>
      </g>
     </g>
    </g>
    <g id="text_6">
     <!-- x₁ -->
     <g transform="translate(168.758719 310.714156) scale(0.11 -0.11)">
      <defs>
       <path id="DejaVuSans-78" d="M 3513 3500 
L 2247 1797 
L 3578 0 
L 2900 0 
L 1881 1375 
L 863 0 
L 184 0 
L 1544 1831 
L 300 3500 
L 978 3500 
L 1906 2253 
L 2834 3500 
L 3513 3500 
z
" transform="scale(0.015625)"/>
       <path id="DejaVuSans-2081" d="M 488 319 
L 1125 319 
L 1125 2229 
L 428 2101 
L 428 2463 
L 1147 2585 
L 1575 2585 
L 1575 319 
L 2216 319 
L 2216 -24 
L 488 -24 
L 488 319 
z
" transform="scale(0.015625)"/>
      </defs>
      <use xlink:href="#DejaVuSans-78"/>
      <use xlink:href="#DejaVuSans-2081" transform="translate(59.179688 0)"/>
     </g>
    </g>
   </g>
   <g id="matplotlib.axis_2">
    <g id="ytick_1">
     <g id="line2d_6">
      <defs>
       <path id="m20f6ed909e" d="M 0 0 
L -3.5 0 
" style="stroke: #000000; stroke-width: 0.8"/>
      </defs>
      <g>
       <use xlink:href="#m20f6ed909e" x="49.479188" y="280.709937" style="stroke: #000000; stroke-width: 0.8"/>
      </g>
     </g>
     <g id="text_7">
      <!-- −4 -->
      <g transform="translate(26.262781 284.889078) scale(0.11 -0.11)">
       <use xlink:href="#DejaVuSans-2212"/>
       <use xlink:href="#DejaVuSans-34" transform="translate(83.789062 0)"/>
      </g>
     </g>
    </g>
    <g id="ytick_2">
     <g id="line2d_7">
      <g>
       <use xlink:href="#m20f6ed909e" x="49.479188" y="249.524937" style="stroke: #000000; stroke-width: 0.8"/>
      </g>
     </g>
     <g id="text_8">
      <!-- −3 -->
      <g transform="translate(26.262781 253.704078) scale(0.11 -0.11)">
       <defs>
        <path id="DejaVuSans-33" d="M 2597 2516 
Q 3050 2419 3304 2112 
Q 3559 1806 3559 1356 
Q 3559 666 3084 287 
Q 2609 -91 1734 -91 
Q 1441 -91 1130 -33 
Q 819 25 488 141 
L 488 750 
Q 750 597 1062 519 
Q 1375 441 1716 441 
Q 2309 441 2620 675 
Q 2931 909 2931 1356 
Q 2931 1769 2642 2001 
Q 2353 2234 1838 2234 
L 1294 2234 
L 1294 2753 
L 1863 2753 
Q 2328 2753 2575 2939 
Q 2822 3125 2822 3475 
Q 2822 3834 2567 4026 
Q 2313 4219 1838 4219 
Q 1578 4219 1281 4162 
Q 984 4106 628 3988 
L 628 4550 
Q 988 4650 1302 4700 
Q 1616 4750 1894 4750 
Q 2613 4750 3031 4423 
Q 3450 4097 3450 3541 
Q 3450 3153 3228 2886 
Q 3006 2619 2597 2516 
z
" transform="scale(0.015625)"/>
       </defs>
       <use xlink:href="#DejaVuSans-2212"/>
       <use xlink:href="#DejaVuSans-33" transform="translate(83.789062 0)"/>
      </g>
     </g>
    </g>
    <g id="ytick_3">
     <g id="line2d_8">
      <g>
       <use xlink:href="#m20f6ed909e" x="49.479188" y="218.339937" style="stroke: #000000; stroke-width: 0.8"/>
      </g>
     </g>
     <g id="text_9">
      <!-- −2 -->
      <g transform="translate(26.262781 222.519078) scale(0.11 -0.11)">
       <use xlink:href="#DejaVuSans-2212"/>
       <use xlink:href="#DejaVuSans-32" transform="translate(83.789062 0)"/>
      </g>
     </g>
    </g>
    <g id="ytick_4">
     <g id="line2d_9">
      <g>
       <use xlink:href="#m20f6ed909e" x="49.479188" y="187.154937" style="stroke: #000000; stroke-width: 0.8"/>
      </g>
     </g>
     <g id="text_10">
      <!-- −1 -->
      <g transform="translate(26.262781 191.334078) scale(0.11 -0.11)">
       <defs>
        <path id="DejaVuSans-31" d="M 794 531 
L 1825 531 
L 1825 4091 
L 703 3866 
L 703 4441 
L 1819 4666 
L 2450 4666 
L 2450 531 
L 3481 531 
L 3481 0 
L 794 0 
L 794 531 
z
" transform="scale(0.015625)"/>
       </defs>
       <use xlink:href="#DejaVuSans-2212"/>
       <use xlink:href="#DejaVuSans-31" transform="translate(83.789062 0)"/>
      </g>
     </g>
    </g>
    <g id="ytick_5">
     <g id="line2d_10">
      <g>
       <use xlink:href="#m20f6ed909e" x="49.479188" y="155.969937" style="stroke: #000000; stroke-width: 0.8"/>
      </g>
     </g>
     <g id="text_11">
      <!-- 0 -->
      <g transform="translate(35.480438 160.149078) scale(0.11 -0.11)">
       <use xlink:href="#DejaVuSans-30"/>
      </g>
     </g>
    </g>
    <g id="ytick_6">
     <g id="line2d_11">
      <g>
       <use xlink:href="#m20f6ed909e" x="49.479188" y="124.784937" style="stroke: #000000; stroke-width: 0.8"/>
      </g>
     </g>
     <g id="text_12">
      <!-- 1 -->
      <g transform="translate(35.480438 128.964078) scale(0.11 -0.11)">
       <use xlink:href="#DejaVuSans-31"/>
      </g>
     </g>
    </g>
    <g id="ytick_7">
     <g id="line2d_12">
      <g>
       <use xlink:href="#m20f6ed909e" x="49.479188" y="93.599937" style="stroke: #000000; stroke-width: 0.8"/>
      </g>
     </g>
     <g id="text_13">
      <!-- 2 -->
      <g transform="translate(35.480438 97.779078) scale(0.11 -0.11)">
       <use xlink:href="#DejaVuSans-32"/>
      </g>
     </g>
    </g>
    <g id="ytick_8">
     <g id="line2d_13">
      <g>
       <use xlink:href="#m20f6ed909e" x="49.479188" y="62.414937" style="stroke: #000000; stroke-width: 0.8"/>
      </g>
     </g>
     <g id="text_14">
      <!-- 3 -->
      <g transform="translate(35.480438 66.594078) scale(0.11 -0.11)">
       <use xlink:href="#DejaVuSans-33"/>
      </g>
     </g>
    </g>
    <g id="ytick_9">
     <g id="line2d_14">
      <g>
       <use xlink:href="#m20f6ed909e" x="49.479188" y="31.229937" style="stroke: #000000; stroke-width: 0.8"/>
      </g>
     </g>
     <g id="text_15">
      <!-- 4 -->
      <g transform="translate(35.480438 35.409078) scale(0.11 -0.11)">
       <use xlink:href="#DejaVuSans-34"/>
      </g>
     </g>
    </g>
    <g id="text_16">
     <!-- x₂ -->
     <g transform="translate(19.975125 161.430406) rotate(-90) scale(0.11 -0.11)">
      <defs>
       <path id="DejaVuSans-2082" d="M 838 332 
L 2163 332 
L 2163 -24 
L 294 -24 
L 294 319 
Q 400 416 597 591 
Q 1672 1544 1672 1838 
Q 1672 2044 1509 2170 
Q 1347 2297 1081 2297 
Q 919 2297 728 2242 
Q 538 2188 313 2079 
L 313 2463 
Q 553 2551 761 2594 
Q 969 2638 1147 2638 
Q 1600 2638 1872 2432 
Q 2144 2226 2144 1888 
Q 2144 1454 1109 566 
Q 934 416 838 332 
z
" transform="scale(0.015625)"/>
      </defs>
      <use xlink:href="#DejaVuSans-78"/>
      <use xlink:href="#DejaVuSans-2082" transform="translate(59.179688 0)"/>
     </g>
    </g>
   </g>
   <g id="QuadContourSet_1">
    <path clip-path="url(#p4b3776dc9c)" style="fill: none; stroke: #4c72b0; stroke-opacity: 0.8; stroke-width: 1.5"/>
    <path d="M 164.816675 206.940476 
L 166.070343 207.158224 
L 167.324012 207.342915 
L 168.57768 207.495462 
L 169.831348 207.616615 
L 171.085017 207.706967 
L 172.338685 207.766959 
L 173.592353 207.796882 
L 174.846022 207.796882 
L 176.09969 207.766959 
L 177.353358 207.706967 
L 178.607027 207.616615 
L 179.860695 207.495462 
L 181.114363 207.342915 
L 182.368032 207.158224 
L 183.6217 206.940476 
L 184.604785 206.743505 
L 184.875368 206.690779 
L 186.129037 206.414955 
L 187.382705 206.103741 
L 188.636373 205.755547 
L 189.502395 205.489837 
L 189.890042 205.373153 
L 191.14371 204.961534 
L 192.397378 204.508473 
L 193.091871 204.236169 
L 193.651047 204.019534 
L 194.904715 203.495367 
L 196.031976 202.9825 
L 196.158383 202.925359 
L 197.412052 202.32314 
L 198.552802 201.728832 
L 198.66572 201.670055 
L 199.919389 200.980656 
L 200.775587 200.475164 
L 201.173057 200.239384 
L 202.426725 199.451128 
L 202.77282 199.221495 
L 203.680394 198.613023 
L 204.587123 197.967827 
L 204.934062 197.71735 
L 206.18773 196.763441 
L 206.249931 196.714159 
L 207.441399 195.75081 
L 207.784105 195.46049 
L 208.695067 194.669652 
L 209.206255 194.206822 
L 209.948735 193.514968 
L 210.529457 192.953154 
L 211.202404 192.280207 
L 211.764218 191.699485 
L 212.456072 190.957005 
L 212.918902 190.445817 
L 213.70974 189.534855 
L 214.00006 189.192149 
L 214.963409 188.000681 
L 215.012691 187.93848 
L 215.9666 186.684812 
L 216.217077 186.337873 
L 216.862273 185.431144 
L 217.470745 184.52357 
L 217.700378 184.177475 
L 218.488634 182.923807 
L 218.724414 182.526337 
L 219.229906 181.670139 
L 219.919305 180.41647 
L 219.978082 180.303552 
L 220.57239 179.162802 
L 221.174609 177.909133 
L 221.23175 177.782726 
L 221.744617 176.655465 
L 222.268784 175.401797 
L 222.485419 174.842621 
L 222.757723 174.148128 
L 223.210784 172.89446 
L 223.622403 171.640792 
L 223.739087 171.253145 
L 224.004797 170.387123 
L 224.352991 169.133455 
L 224.664205 167.879787 
L 224.940029 166.626118 
L 224.992755 166.355535 
L 225.189726 165.37245 
L 225.407474 164.118782 
L 225.592165 162.865113 
L 225.744712 161.611445 
L 225.865865 160.357777 
L 225.956217 159.104108 
L 226.016209 157.85044 
L 226.046132 156.596772 
L 226.046132 155.343103 
L 226.016209 154.089435 
L 225.956217 152.835767 
L 225.865865 151.582098 
L 225.744712 150.32843 
L 225.592165 149.074762 
L 225.407474 147.821093 
L 225.189726 146.567425 
L 224.992755 145.58434 
L 224.940029 145.313757 
L 224.664205 144.060088 
L 224.352991 142.80642 
L 224.004797 141.552752 
L 223.739087 140.68673 
L 223.622403 140.299083 
L 223.210784 139.045415 
L 222.757723 137.791747 
L 222.485419 137.097254 
L 222.268784 136.538078 
L 221.744617 135.28441 
L 221.23175 134.157149 
L 221.174609 134.030742 
L 220.57239 132.777073 
L 219.978082 131.636323 
L 219.919305 131.523405 
L 219.229906 130.269736 
L 218.724414 129.413538 
L 218.488634 129.016068 
L 217.700378 127.7624 
L 217.470745 127.416305 
L 216.862273 126.508731 
L 216.217077 125.602002 
L 215.9666 125.255063 
L 215.012691 124.001395 
L 214.963409 123.939194 
L 214.00006 122.747726 
L 213.70974 122.40502 
L 212.918902 121.494058 
L 212.456072 120.98287 
L 211.764218 120.24039 
L 211.202404 119.659668 
L 210.529457 118.986721 
L 209.948735 118.424907 
L 209.206255 117.733053 
L 208.695067 117.270223 
L 207.784105 116.479385 
L 207.441399 116.189065 
L 206.249931 115.225716 
L 206.18773 115.176434 
L 204.934062 114.222525 
L 204.587123 113.972048 
L 203.680394 113.326852 
L 202.77282 112.71838 
L 202.426725 112.488747 
L 201.173057 111.700491 
L 200.775587 111.464711 
L 199.919389 110.959219 
L 198.66572 110.26982 
L 198.552802 110.211043 
L 197.412052 109.616735 
L 196.158383 109.014516 
L 196.031976 108.957375 
L 194.904715 108.444508 
L 193.651047 107.920341 
L 193.091871 107.703706 
L 192.397378 107.431402 
L 191.14371 106.978341 
L 189.890042 106.566722 
L 189.502395 106.450038 
L 188.636373 106.184328 
L 187.382705 105.836134 
L 186.129037 105.52492 
L 184.875368 105.249096 
L 184.604785 105.19637 
L 183.6217 104.999399 
L 182.368032 104.781651 
L 181.114363 104.59696 
L 179.860695 104.444413 
L 178.607027 104.32326 
L 177.353358 104.232908 
L 176.09969 104.172916 
L 174.846022 104.142993 
L 173.592353 104.142993 
L 172.338685 104.172916 
L 171.085017 104.232908 
L 169.831348 104.32326 
L 168.57768 104.444413 
L 167.324012 104.59696 
L 166.070343 104.781651 
L 164.816675 104.999399 
L 163.83359 105.19637 
L 163.563007 105.249096 
L 162.309338 105.52492 
L 161.05567 105.836134 
L 159.802002 106.184328 
L 158.93598 106.450038 
L 158.548333 106.566722 
L 157.294665 106.978341 
L 156.040997 107.431402 
L 155.346504 107.703706 
L 154.787328 107.920341 
L 153.53366 108.444508 
L 152.406399 108.957375 
L 152.279992 109.014516 
L 151.026323 109.616735 
L 149.885573 110.211043 
L 149.772655 110.26982 
L 148.518986 110.959219 
L 147.662788 111.464711 
L 147.265318 111.700491 
L 146.01165 112.488747 
L 145.665555 112.71838 
L 144.757981 113.326852 
L 143.851252 113.972048 
L 143.504313 114.222525 
L 142.250645 115.176434 
L 142.188444 115.225716 
L 140.996976 116.189065 
L 140.65427 116.479385 
L 139.743308 117.270223 
L 139.23212 117.733053 
L 138.48964 118.424907 
L 137.908918 118.986721 
L 137.235971 119.659668 
L 136.674157 120.24039 
L 135.982303 120.98287 
L 135.519473 121.494058 
L 134.728635 122.40502 
L 134.438315 122.747726 
L 133.474966 123.939194 
L 133.425684 124.001395 
L 132.471775 125.255063 
L 132.221298 125.602002 
L 131.576102 126.508731 
L 130.96763 127.416305 
L 130.737997 127.7624 
L 129.949741 129.016068 
L 129.713961 129.413538 
L 129.208469 130.269736 
L 128.51907 131.523405 
L 128.460293 131.636323 
L 127.865985 132.777073 
L 127.263766 134.030742 
L 127.206625 134.157149 
L 126.693758 135.28441 
L 126.169591 136.538078 
L 125.952956 137.097254 
L 125.680652 137.791747 
L 125.227591 139.045415 
L 124.815972 140.299083 
L 124.699288 140.68673 
L 124.433578 141.552752 
L 124.085384 142.80642 
L 123.77417 144.060088 
L 123.498346 145.313757 
L 123.44562 145.58434 
L 123.248649 146.567425 
L 123.030901 147.821093 
L 122.84621 149.074762 
L 122.693663 150.32843 
L 122.57251 151.582098 
L 122.482158 152.835767 
L 122.422166 154.089435 
L 122.392243 155.343103 
L 122.392243 156.596772 
L 122.422166 157.85044 
L 122.482158 159.104108 
L 122.57251 160.357777 
L 122.693663 161.611445 
L 122.84621 162.865113 
L 123.030901 164.118782 
L 123.248649 165.37245 
L 123.44562 166.355535 
L 123.498346 166.626118 
L 123.77417 167.879787 
L 124.085384 169.133455 
L 124.433578 170.387123 
L 124.699288 171.253145 
L 124.815972 171.640792 
L 125.227591 172.89446 
L 125.680652 174.148128 
L 125.952956 174.842621 
L 126.169591 175.401797 
L 126.693758 176.655465 
L 127.206625 177.782726 
L 127.263766 177.909133 
L 127.865985 179.162802 
L 128.460293 180.303552 
L 128.51907 180.41647 
L 129.208469 181.670139 
L 129.713961 182.526337 
L 129.949741 182.923807 
L 130.737997 184.177475 
L 130.96763 184.52357 
L 131.576102 185.431144 
L 132.221298 186.337873 
L 132.471775 186.684812 
L 133.425684 187.93848 
L 133.474966 188.000681 
L 134.438315 189.192149 
L 134.728635 189.534855 
L 135.519473 190.445817 
L 135.982303 190.957005 
L 136.674157 191.699485 
L 137.235971 192.280207 
L 137.908918 192.953154 
L 138.48964 193.514968 
L 139.23212 194.206822 
L 139.743308 194.669652 
L 140.65427 195.46049 
L 140.996976 195.75081 
L 142.188444 196.714159 
L 142.250645 196.763441 
L 143.504313 197.71735 
L 143.851252 197.967827 
L 144.757981 198.613023 
L 145.665555 199.221495 
L 146.01165 199.451128 
L 147.265318 200.239384 
L 147.662788 200.475164 
L 148.518986 200.980656 
L 149.772655 201.670055 
L 149.885573 201.728832 
L 151.026323 202.32314 
L 152.279992 202.925359 
L 152.406399 202.9825 
L 153.53366 203.495367 
L 154.787328 204.019534 
L 155.346504 204.236169 
L 156.040997 204.508473 
L 157.294665 204.961534 
L 158.548333 205.373153 
L 158.93598 205.489837 
L 159.802002 205.755547 
L 161.05567 206.103741 
L 162.309338 206.414955 
L 163.563007 206.690779 
L 163.83359 206.743505 
L 164.816675 206.940476 
z
" clip-path="url(#p4b3776dc9c)" style="fill: none; stroke: #4c72b0; stroke-opacity: 0.8; stroke-width: 1.5"/>
    <path d="M 167.324012 191.892133 
L 168.57768 192.110945 
L 169.831348 192.284726 
L 171.085017 192.414327 
L 172.338685 192.500379 
L 173.592353 192.543301 
L 174.846022 192.543301 
L 176.09969 192.500379 
L 177.353358 192.414327 
L 178.607027 192.284726 
L 179.860695 192.110945 
L 181.114363 191.892133 
L 182.028427 191.699485 
L 182.368032 191.628001 
L 183.6217 191.319069 
L 184.875368 190.961697 
L 186.129037 190.554093 
L 186.427854 190.445817 
L 187.382705 190.097017 
L 188.636373 189.586601 
L 189.513255 189.192149 
L 189.890042 189.020213 
L 191.14371 188.396313 
L 191.98581 187.93848 
L 192.397378 187.710052 
L 193.651047 186.958332 
L 194.075343 186.684812 
L 194.904715 186.135479 
L 195.893493 185.431144 
L 196.158383 185.236307 
L 197.412052 184.253402 
L 197.503669 184.177475 
L 198.66572 183.176329 
L 198.943048 182.923807 
L 199.919389 181.994714 
L 200.243964 181.670139 
L 201.173057 180.693798 
L 201.425579 180.41647 
L 202.426725 179.254419 
L 202.502652 179.162802 
L 203.485557 177.909133 
L 203.680394 177.644243 
L 204.384729 176.655465 
L 204.934062 175.826093 
L 205.207582 175.401797 
L 205.959302 174.148128 
L 206.18773 173.73656 
L 206.645563 172.89446 
L 207.269463 171.640792 
L 207.441399 171.264005 
L 207.835851 170.387123 
L 208.346267 169.133455 
L 208.695067 168.178604 
L 208.803343 167.879787 
L 209.210947 166.626118 
L 209.568319 165.37245 
L 209.877251 164.118782 
L 209.948735 163.779177 
L 210.141383 162.865113 
L 210.360195 161.611445 
L 210.533976 160.357777 
L 210.663577 159.104108 
L 210.749629 157.85044 
L 210.792551 156.596772 
L 210.792551 155.343103 
L 210.749629 154.089435 
L 210.663577 152.835767 
L 210.533976 151.582098 
L 210.360195 150.32843 
L 210.141383 149.074762 
L 209.948735 148.160698 
L 209.877251 147.821093 
L 209.568319 146.567425 
L 209.210947 145.313757 
L 208.803343 144.060088 
L 208.695067 143.761271 
L 208.346267 142.80642 
L 207.835851 141.552752 
L 207.441399 140.67587 
L 207.269463 140.299083 
L 206.645563 139.045415 
L 206.18773 138.203315 
L 205.959302 137.791747 
L 205.207582 136.538078 
L 204.934062 136.113782 
L 204.384729 135.28441 
L 203.680394 134.295632 
L 203.485557 134.030742 
L 202.502652 132.777073 
L 202.426725 132.685456 
L 201.425579 131.523405 
L 201.173057 131.246077 
L 200.243964 130.269736 
L 199.919389 129.945161 
L 198.943048 129.016068 
L 198.66572 128.763546 
L 197.503669 127.7624 
L 197.412052 127.686473 
L 196.158383 126.703568 
L 195.893493 126.508731 
L 194.904715 125.804396 
L 194.075343 125.255063 
L 193.651047 124.981543 
L 192.397378 124.229823 
L 191.98581 124.001395 
L 191.14371 123.543562 
L 189.890042 122.919662 
L 189.513255 122.747726 
L 188.636373 122.353274 
L 187.382705 121.842858 
L 186.427854 121.494058 
L 186.129037 121.385782 
L 184.875368 120.978178 
L 183.6217 120.620806 
L 182.368032 120.311874 
L 182.028427 120.24039 
L 181.114363 120.047742 
L 179.860695 119.82893 
L 178.607027 119.655149 
L 177.353358 119.525548 
L 176.09969 119.439496 
L 174.846022 119.396574 
L 173.592353 119.396574 
L 172.338685 119.439496 
L 171.085017 119.525548 
L 169.831348 119.655149 
L 168.57768 119.82893 
L 167.324012 120.047742 
L 166.409948 120.24039 
L 166.070343 120.311874 
L 164.816675 120.620806 
L 163.563007 120.978178 
L 162.309338 121.385782 
L 162.010521 121.494058 
L 161.05567 121.842858 
L 159.802002 122.353274 
L 158.92512 122.747726 
L 158.548333 122.919662 
L 157.294665 123.543562 
L 156.452565 124.001395 
L 156.040997 124.229823 
L 154.787328 124.981543 
L 154.363032 125.255063 
L 153.53366 125.804396 
L 152.544882 126.508731 
L 152.279992 126.703568 
L 151.026323 127.686473 
L 150.934706 127.7624 
L 149.772655 128.763546 
L 149.495327 129.016068 
L 148.518986 129.945161 
L 148.194411 130.269736 
L 147.265318 131.246077 
L 147.012796 131.523405 
L 146.01165 132.685456 
L 145.935723 132.777073 
L 144.952818 134.030742 
L 144.757981 134.295632 
L 144.053646 135.28441 
L 143.504313 136.113782 
L 143.230793 136.538078 
L 142.479073 137.791747 
L 142.250645 138.203315 
L 141.792812 139.045415 
L 141.168912 140.299083 
L 140.996976 140.67587 
L 140.602524 141.552752 
L 140.092108 142.80642 
L 139.743308 143.761271 
L 139.635032 144.060088 
L 139.227428 145.313757 
L 138.870056 146.567425 
L 138.561124 147.821093 
L 138.48964 148.160698 
L 138.296992 149.074762 
L 138.07818 150.32843 
L 137.904399 151.582098 
L 137.774798 152.835767 
L 137.688746 154.089435 
L 137.645824 155.343103 
L 137.645824 156.596772 
L 137.688746 157.85044 
L 137.774798 159.104108 
L 137.904399 160.357777 
L 138.07818 161.611445 
L 138.296992 162.865113 
L 138.48964 163.779177 
L 138.561124 164.118782 
L 138.870056 165.37245 
L 139.227428 166.626118 
L 139.635032 167.879787 
L 139.743308 168.178604 
L 140.092108 169.133455 
L 140.602524 170.387123 
L 140.996976 171.264005 
L 141.168912 171.640792 
L 141.792812 172.89446 
L 142.250645 173.73656 
L 142.479073 174.148128 
L 143.230793 175.401797 
L 143.504313 175.826093 
L 144.053646 176.655465 
L 144.757981 177.644243 
L 144.952818 177.909133 
L 145.935723 179.162802 
L 146.01165 179.254419 
L 147.012796 180.41647 
L 147.265318 180.693798 
L 148.194411 181.670139 
L 148.518986 181.994714 
L 149.495327 182.923807 
L 149.772655 183.176329 
L 150.934706 184.177475 
L 151.026323 184.253402 
L 152.279992 185.236307 
L 152.544882 185.431144 
L 153.53366 186.135479 
L 154.363032 186.684812 
L 154.787328 186.958332 
L 156.040997 187.710052 
L 156.452565 187.93848 
L 157.294665 188.396313 
L 158.548333 189.020213 
L 158.92512 189.192149 
L 159.802002 189.586601 
L 161.05567 190.097017 
L 162.010521 190.445817 
L 162.309338 190.554093 
L 163.563007 190.961697 
L 164.816675 191.319069 
L 166.070343 191.628001 
L 166.409948 191.699485 
L 167.324012 191.892133 
z
" clip-path="url(#p4b3776dc9c)" style="fill: none; stroke: #4c72b0; stroke-opacity: 0.8; stroke-width: 1.5"/>
    <path d="M 171.085017 179.195019 
L 172.338685 179.328701 
L 173.592353 179.395379 
L 174.846022 179.395379 
L 176.09969 179.328701 
L 177.353358 179.195019 
L 177.554789 179.162802 
L 178.607027 178.989548 
L 179.860695 178.712974 
L 181.114363 178.364734 
L 182.368032 177.943114 
L 182.454638 177.909133 
L 183.6217 177.432459 
L 184.875368 176.840583 
L 185.222791 176.655465 
L 186.129037 176.148587 
L 187.318142 175.401797 
L 187.382705 175.358929 
L 188.636373 174.44178 
L 189.002553 174.148128 
L 189.890042 173.388656 
L 190.421825 172.89446 
L 191.14371 172.172575 
L 191.637906 171.640792 
L 192.397378 170.753303 
L 192.69103 170.387123 
L 193.608179 169.133455 
L 193.651047 169.068892 
L 194.397837 167.879787 
L 194.904715 166.973541 
L 195.089833 166.626118 
L 195.681709 165.37245 
L 196.158383 164.205388 
L 196.192364 164.118782 
L 196.613984 162.865113 
L 196.962224 161.611445 
L 197.238798 160.357777 
L 197.412052 159.305539 
L 197.444269 159.104108 
L 197.577951 157.85044 
L 197.644629 156.596772 
L 197.644629 155.343103 
L 197.577951 154.089435 
L 197.444269 152.835767 
L 197.412052 152.634336 
L 197.238798 151.582098 
L 196.962224 150.32843 
L 196.613984 149.074762 
L 196.192364 147.821093 
L 196.158383 147.734487 
L 195.681709 146.567425 
L 195.089833 145.313757 
L 194.904715 144.966334 
L 194.397837 144.060088 
L 193.651047 142.870983 
L 193.608179 142.80642 
L 192.69103 141.552752 
L 192.397378 141.186572 
L 191.637906 140.299083 
L 191.14371 139.7673 
L 190.421825 139.045415 
L 189.890042 138.551219 
L 189.002553 137.791747 
L 188.636373 137.498095 
L 187.382705 136.580946 
L 187.318142 136.538078 
L 186.129037 135.791288 
L 185.222791 135.28441 
L 184.875368 135.099292 
L 183.6217 134.507416 
L 182.454638 134.030742 
L 182.368032 133.996761 
L 181.114363 133.575141 
L 179.860695 133.226901 
L 178.607027 132.950327 
L 177.554789 132.777073 
L 177.353358 132.744856 
L 176.09969 132.611174 
L 174.846022 132.544496 
L 173.592353 132.544496 
L 172.338685 132.611174 
L 171.085017 132.744856 
L 170.883586 132.777073 
L 169.831348 132.950327 
L 168.57768 133.226901 
L 167.324012 133.575141 
L 166.070343 133.996761 
L 165.983737 134.030742 
L 164.816675 134.507416 
L 163.563007 135.099292 
L 163.215584 135.28441 
L 162.309338 135.791288 
L 161.120233 136.538078 
L 161.05567 136.580946 
L 159.802002 137.498095 
L 159.435822 137.791747 
L 158.548333 138.551219 
L 158.01655 139.045415 
L 157.294665 139.7673 
L 156.800469 140.299083 
L 156.040997 141.186572 
L 155.747345 141.552752 
L 154.830196 142.80642 
L 154.787328 142.870983 
L 154.040538 144.060088 
L 153.53366 144.966334 
L 153.348542 145.313757 
L 152.756666 146.567425 
L 152.279992 147.734487 
L 152.246011 147.821093 
L 151.824391 149.074762 
L 151.476151 150.32843 
L 151.199577 151.582098 
L 151.026323 152.634336 
L 150.994106 152.835767 
L 150.860424 154.089435 
L 150.793746 155.343103 
L 150.793746 156.596772 
L 150.860424 157.85044 
L 150.994106 159.104108 
L 151.026323 159.305539 
L 151.199577 160.357777 
L 151.476151 161.611445 
L 151.824391 162.865113 
L 152.246011 164.118782 
L 152.279992 164.205388 
L 152.756666 165.37245 
L 153.348542 166.626118 
L 153.53366 166.973541 
L 154.040538 167.879787 
L 154.787328 169.068892 
L 154.830196 169.133455 
L 155.747345 170.387123 
L 156.040997 170.753303 
L 156.800469 171.640792 
L 157.294665 172.172575 
L 158.01655 172.89446 
L 158.548333 173.388656 
L 159.435822 174.148128 
L 159.802002 174.44178 
L 161.05567 175.358929 
L 161.120233 175.401797 
L 162.309338 176.148587 
L 163.215584 176.655465 
L 163.563007 176.840583 
L 164.816675 177.432459 
L 165.983737 177.909133 
L 166.070343 177.943114 
L 167.324012 178.364734 
L 168.57768 178.712974 
L 169.831348 178.989548 
L 170.883586 179.162802 
L 171.085017 179.195019 
z
" clip-path="url(#p4b3776dc9c)" style="fill: none; stroke: #4c72b0; stroke-opacity: 0.8; stroke-width: 1.5"/>
    <path clip-path="url(#p4b3776dc9c)" style="fill: none; stroke: #4c72b0; stroke-opacity: 0.8; stroke-width: 1.5"/>
   </g>
   <g id="QuadContourSet_2">
    <path clip-path="url(#p4b3776dc9c)" style="fill: none; stroke: #e74c3c; stroke-opacity: 0.8; stroke-width: 1.5"/>
    <path d="M 113.416273 205.549799 
L 114.669941 205.580442 
L 115.92361 205.55473 
L 117.009255 205.489837 
L 117.177278 205.4801 
L 118.430946 205.362099 
L 119.684615 205.207133 
L 120.938283 205.019027 
L 122.191951 204.800552 
L 123.44562 204.553619 
L 124.699288 204.279426 
L 124.877082 204.236169 
L 125.952956 203.984639 
L 127.206625 203.668237 
L 128.460293 203.329293 
L 129.660588 202.9825 
L 129.713961 202.967694 
L 130.96763 202.595749 
L 132.221298 202.203471 
L 133.474966 201.789398 
L 133.648762 201.728832 
L 134.728635 201.368224 
L 135.982303 200.92938 
L 137.217603 200.475164 
L 137.235971 200.468686 
L 138.48964 200.0076 
L 139.743308 199.525361 
L 140.499328 199.221495 
L 140.996976 199.029739 
L 142.250645 198.527914 
L 143.504313 198.00251 
L 143.58436 197.967827 
L 144.757981 197.480479 
L 146.01165 196.93676 
L 146.506578 196.714159 
L 147.265318 196.386805 
L 148.518986 195.825352 
L 149.302154 195.46049 
L 149.772655 195.250024 
L 151.026323 194.671105 
L 151.990272 194.206822 
L 152.279992 194.072711 
L 153.53366 193.4763 
L 154.586104 192.953154 
L 154.787328 192.856932 
L 156.040997 192.242723 
L 157.101635 191.699485 
L 157.294665 191.604286 
L 158.548333 190.971705 
L 159.546289 190.445817 
L 159.802002 190.315939 
L 161.05567 189.66414 
L 161.9274 189.192149 
L 162.309338 188.992638 
L 163.563007 188.320509 
L 164.250578 187.93848 
L 164.816675 187.634736 
L 166.070343 186.940884 
L 166.519981 186.684812 
L 167.324012 186.242191 
L 168.57768 185.524936 
L 168.738529 185.431144 
L 169.831348 184.814573 
L 170.913262 184.177475 
L 171.085017 184.07941 
L 172.338685 183.351053 
L 173.047953 182.923807 
L 173.592353 182.605533 
L 174.846022 181.850393 
L 175.138826 181.670139 
L 176.09969 181.095481 
L 177.191402 180.41647 
L 177.353358 180.318405 
L 178.607027 179.547514 
L 179.212765 179.162802 
L 179.860695 178.761797 
L 181.114363 177.959433 
L 181.191987 177.909133 
L 182.368032 177.165801 
L 183.147238 176.655465 
L 183.6217 176.351721 
L 184.875368 175.52766 
L 185.063867 175.401797 
L 186.129037 174.705914 
L 186.955244 174.148128 
L 187.382705 173.865176 
L 188.636373 173.01516 
L 188.811865 172.89446 
L 189.890042 172.16668 
L 190.646017 171.640792 
L 191.14371 171.300287 
L 192.397378 170.41959 
L 192.443222 170.387123 
L 193.651047 169.545045 
L 194.225468 169.133455 
L 194.904715 168.653305 
L 195.971332 167.879787 
L 196.158383 167.745676 
L 197.412052 166.835959 
L 197.696468 166.626118 
L 198.66572 165.918456 
L 199.396667 165.37245 
L 199.919389 164.985221 
L 201.064615 164.118782 
L 201.173057 164.037242 
L 202.426725 163.087714 
L 202.716131 162.865113 
L 203.680394 162.1273 
L 204.342333 161.611445 
L 204.934062 161.151713 
L 205.939183 160.357777 
L 206.18773 160.161621 
L 207.441399 159.160411 
L 207.511559 159.104108 
L 208.695067 158.154306 
L 209.068513 157.85044 
L 209.948735 157.132603 
L 210.597929 156.596772 
L 211.202404 156.095613 
L 212.100797 155.343103 
L 212.456072 155.043514 
L 213.577949 154.089435 
L 213.70974 153.976345 
L 214.963409 152.896333 
L 215.033569 152.835767 
L 216.217077 151.803971 
L 216.470122 151.582098 
L 217.470745 150.694023 
L 217.881051 150.32843 
L 218.724414 149.566034 
L 219.266686 149.074762 
L 219.978082 148.419363 
L 220.627218 147.821093 
L 221.23175 147.253161 
L 221.962697 146.567425 
L 222.485419 146.066354 
L 223.273031 145.313757 
L 223.739087 144.857612 
L 224.557987 144.060088 
L 224.992755 143.62532 
L 225.817187 142.80642 
L 226.246424 142.367535 
L 227.050107 141.552752 
L 227.500092 141.081942 
L 228.256067 140.299083 
L 228.75376 139.765796 
L 229.434229 139.045415 
L 230.007429 138.415851 
L 230.583588 137.791747 
L 231.261097 137.028276 
L 231.702961 136.538078 
L 232.514765 135.598552 
L 232.790975 135.28441 
L 233.768434 134.121347 
L 233.846057 134.030742 
L 234.8722 132.777073 
L 235.022102 132.584044 
L 235.865487 131.523405 
L 236.27577 130.977081 
L 236.820673 130.269736 
L 237.529439 129.292207 
L 237.735185 129.016068 
L 238.611353 127.7624 
L 238.783107 127.498372 
L 239.44765 126.508731 
L 240.036775 125.561929 
L 240.23423 125.255063 
L 240.974231 124.001395 
L 241.290444 123.412127 
L 241.660827 122.747726 
L 242.288399 121.494058 
L 242.544112 120.913071 
L 242.853117 120.24039 
L 243.346232 118.986721 
L 243.758741 117.733053 
L 243.79778 117.573738 
L 244.079826 116.479385 
L 244.292708 115.225716 
L 244.377123 113.972048 
L 244.303184 112.71838 
L 244.027037 111.464711 
L 243.79778 110.902316 
L 243.467277 110.211043 
L 242.544112 109.013263 
L 242.490739 108.957375 
L 241.290444 108.038207 
L 240.705764 107.703706 
L 240.036775 107.396841 
L 238.783107 106.968213 
L 237.529439 106.675045 
L 236.27577 106.488646 
L 235.815749 106.450038 
L 235.022102 106.390076 
L 233.768434 106.359433 
L 232.514765 106.385145 
L 231.42912 106.450038 
L 231.261097 106.459775 
L 230.007429 106.577776 
L 228.75376 106.732742 
L 227.500092 106.920848 
L 226.246424 107.139323 
L 224.992755 107.386256 
L 223.739087 107.660449 
L 223.561293 107.703706 
L 222.485419 107.955236 
L 221.23175 108.271638 
L 219.978082 108.610582 
L 218.777787 108.957375 
L 218.724414 108.972181 
L 217.470745 109.344126 
L 216.217077 109.736404 
L 214.963409 110.150477 
L 214.789613 110.211043 
L 213.70974 110.571651 
L 212.456072 111.010495 
L 211.220772 111.464711 
L 211.202404 111.471189 
L 209.948735 111.932275 
L 208.695067 112.414514 
L 207.939047 112.71838 
L 207.441399 112.910136 
L 206.18773 113.411961 
L 204.934062 113.937365 
L 204.854015 113.972048 
L 203.680394 114.459396 
L 202.426725 115.003115 
L 201.931797 115.225716 
L 201.173057 115.55307 
L 199.919389 116.114523 
L 199.136221 116.479385 
L 198.66572 116.689851 
L 197.412052 117.26877 
L 196.448103 117.733053 
L 196.158383 117.867164 
L 194.904715 118.463575 
L 193.852271 118.986721 
L 193.651047 119.082943 
L 192.397378 119.697152 
L 191.33674 120.24039 
L 191.14371 120.335589 
L 189.890042 120.96817 
L 188.892086 121.494058 
L 188.636373 121.623936 
L 187.382705 122.275735 
L 186.510975 122.747726 
L 186.129037 122.947237 
L 184.875368 123.619366 
L 184.187797 124.001395 
L 183.6217 124.305139 
L 182.368032 124.998991 
L 181.918394 125.255063 
L 181.114363 125.697684 
L 179.860695 126.414939 
L 179.699846 126.508731 
L 178.607027 127.125302 
L 177.525113 127.7624 
L 177.353358 127.860465 
L 176.09969 128.588822 
L 175.390422 129.016068 
L 174.846022 129.334342 
L 173.592353 130.089482 
L 173.299549 130.269736 
L 172.338685 130.844394 
L 171.246973 131.523405 
L 171.085017 131.62147 
L 169.831348 132.392361 
L 169.22561 132.777073 
L 168.57768 133.178078 
L 167.324012 133.980442 
L 167.246388 134.030742 
L 166.070343 134.774074 
L 165.291137 135.28441 
L 164.816675 135.588154 
L 163.563007 136.412215 
L 163.374508 136.538078 
L 162.309338 137.233961 
L 161.483131 137.791747 
L 161.05567 138.074699 
L 159.802002 138.924715 
L 159.62651 139.045415 
L 158.548333 139.773195 
L 157.792358 140.299083 
L 157.294665 140.639588 
L 156.040997 141.520285 
L 155.995153 141.552752 
L 154.787328 142.39483 
L 154.212907 142.80642 
L 153.53366 143.28657 
L 152.467043 144.060088 
L 152.279992 144.194199 
L 151.026323 145.103916 
L 150.741907 145.313757 
L 149.772655 146.021419 
L 149.041708 146.567425 
L 148.518986 146.954654 
L 147.37376 147.821093 
L 147.265318 147.902633 
L 146.01165 148.852161 
L 145.722244 149.074762 
L 144.757981 149.812575 
L 144.096042 150.32843 
L 143.504313 150.788162 
L 142.499192 151.582098 
L 142.250645 151.778254 
L 140.996976 152.779464 
L 140.926816 152.835767 
L 139.743308 153.785569 
L 139.369862 154.089435 
L 138.48964 154.807272 
L 137.840446 155.343103 
L 137.235971 155.844262 
L 136.337578 156.596772 
L 135.982303 156.896361 
L 134.860426 157.85044 
L 134.728635 157.96353 
L 133.474966 159.043542 
L 133.404806 159.104108 
L 132.221298 160.135904 
L 131.968253 160.357777 
L 130.96763 161.245852 
L 130.557324 161.611445 
L 129.713961 162.373841 
L 129.171689 162.865113 
L 128.460293 163.520512 
L 127.811157 164.118782 
L 127.206625 164.686714 
L 126.475678 165.37245 
L 125.952956 165.873521 
L 125.165344 166.626118 
L 124.699288 167.082263 
L 123.880388 167.879787 
L 123.44562 168.314555 
L 122.621188 169.133455 
L 122.191951 169.57234 
L 121.388268 170.387123 
L 120.938283 170.857933 
L 120.182308 171.640792 
L 119.684615 172.174079 
L 119.004146 172.89446 
L 118.430946 173.524024 
L 117.854787 174.148128 
L 117.177278 174.911599 
L 116.735414 175.401797 
L 115.92361 176.341323 
L 115.6474 176.655465 
L 114.669941 177.818528 
L 114.592318 177.909133 
L 113.566175 179.162802 
L 113.416273 179.355831 
L 112.572888 180.41647 
L 112.162605 180.962794 
L 111.617702 181.670139 
L 110.908936 182.647668 
L 110.70319 182.923807 
L 109.827022 184.177475 
L 109.655268 184.441503 
L 108.990725 185.431144 
L 108.4016 186.377946 
L 108.204145 186.684812 
L 107.464144 187.93848 
L 107.147931 188.527748 
L 106.777548 189.192149 
L 106.149976 190.445817 
L 105.894263 191.026804 
L 105.585258 191.699485 
L 105.092143 192.953154 
L 104.679634 194.206822 
L 104.640595 194.366137 
L 104.358549 195.46049 
L 104.145667 196.714159 
L 104.061252 197.967827 
L 104.135191 199.221495 
L 104.411338 200.475164 
L 104.640595 201.037559 
L 104.971098 201.728832 
L 105.894263 202.926612 
L 105.947636 202.9825 
L 107.147931 203.901668 
L 107.732611 204.236169 
L 108.4016 204.543034 
L 109.655268 204.971662 
L 110.908936 205.26483 
L 112.162605 205.451229 
L 112.622626 205.489837 
L 113.416273 205.549799 
z
" clip-path="url(#p4b3776dc9c)" style="fill: none; stroke: #e74c3c; stroke-opacity: 0.8; stroke-width: 1.5"/>
    <path d="M 132.221298 189.213499 
L 133.474966 189.314059 
L 134.728635 189.320995 
L 135.982303 189.253426 
L 136.561523 189.192149 
L 137.235971 189.120568 
L 138.48964 188.932006 
L 139.743308 188.700914 
L 140.996976 188.433154 
L 142.250645 188.132727 
L 142.976321 187.93848 
L 143.504313 187.798041 
L 144.757981 187.432194 
L 146.01165 187.04374 
L 147.102586 186.684812 
L 147.265318 186.631722 
L 148.518986 186.192973 
L 149.772655 185.736374 
L 150.571022 185.431144 
L 151.026323 185.258843 
L 152.279992 184.76191 
L 153.53366 184.248397 
L 153.698951 184.177475 
L 154.787328 183.715907 
L 156.040997 183.168332 
L 156.580674 182.923807 
L 157.294665 182.603842 
L 158.548333 182.02495 
L 159.293155 181.670139 
L 159.802002 181.430226 
L 161.05567 180.822097 
L 161.868661 180.41647 
L 162.309338 180.198703 
L 163.563007 179.56282 
L 164.331075 179.162802 
L 164.816675 178.912132 
L 166.070343 178.249427 
L 166.69815 177.909133 
L 167.324012 177.572646 
L 168.57768 176.883539 
L 168.983048 176.655465 
L 169.831348 176.1817 
L 171.085017 175.466127 
L 171.195429 175.401797 
L 172.338685 174.740107 
L 173.339596 174.148128 
L 173.592353 173.999251 
L 174.846022 173.248055 
L 175.424489 172.89446 
L 176.09969 172.483119 
L 177.353358 171.705122 
L 177.455388 171.640792 
L 178.607027 170.916561 
L 179.433443 170.387123 
L 179.860695 170.113425 
L 181.114363 169.298388 
L 181.364377 169.133455 
L 182.368032 168.470899 
L 183.249226 167.879787 
L 183.6217 167.629117 
L 184.875368 166.774962 
L 185.091193 166.626118 
L 186.129037 165.90752 
L 186.891471 165.37245 
L 187.382705 165.025437 
L 188.636373 164.129594 
L 188.651382 164.118782 
L 189.890042 163.219925 
L 190.373679 162.865113 
L 191.14371 162.29458 
L 192.057384 161.611445 
L 192.397378 161.354027 
L 193.651047 160.39839 
L 193.704042 160.357777 
L 194.904715 159.425364 
L 195.315718 159.104108 
L 196.158383 158.434875 
L 196.890849 157.85044 
L 197.412052 157.426729 
L 198.430087 156.596772 
L 198.66572 156.400494 
L 199.919389 155.355267 
L 199.933968 155.343103 
L 201.173057 154.28628 
L 201.403795 154.089435 
L 202.426725 153.194695 
L 202.837728 152.835767 
L 203.680394 152.079039 
L 204.235663 151.582098 
L 204.934062 150.937421 
L 205.597273 150.32843 
L 206.18773 149.767454 
L 206.922009 149.074762 
L 207.441399 148.566161 
L 208.209091 147.821093 
L 208.695067 147.329859 
L 209.457501 146.567425 
L 209.948735 146.054 
L 210.665969 145.313757 
L 211.202404 144.732978 
L 211.832963 144.060088 
L 212.456072 143.359871 
L 212.956669 142.80642 
L 213.70974 141.926102 
L 214.034973 141.552752 
L 214.963409 140.420994 
L 215.065438 140.299083 
L 216.043916 139.045415 
L 216.217077 138.805365 
L 216.966737 137.791747 
L 217.470745 137.052275 
L 217.830745 136.538078 
L 218.629894 135.28441 
L 218.724414 135.115744 
L 219.35222 134.030742 
L 219.978082 132.814522 
L 219.998018 132.777073 
L 220.540056 131.523405 
L 220.975637 130.269736 
L 221.23175 129.196626 
L 221.276741 129.016068 
L 221.397041 127.7624 
L 221.287567 126.508731 
L 221.23175 126.328173 
L 220.810964 125.255063 
L 219.978082 124.236165 
L 219.708219 124.001395 
L 218.724414 123.43297 
L 217.470745 122.977772 
L 216.348786 122.747726 
L 216.217077 122.726376 
L 214.963409 122.625816 
L 213.70974 122.61888 
L 212.456072 122.686449 
L 211.876852 122.747726 
L 211.202404 122.819307 
L 209.948735 123.007869 
L 208.695067 123.238961 
L 207.441399 123.506721 
L 206.18773 123.807148 
L 205.462054 124.001395 
L 204.934062 124.141834 
L 203.680394 124.507681 
L 202.426725 124.896135 
L 201.335789 125.255063 
L 201.173057 125.308153 
L 199.919389 125.746902 
L 198.66572 126.203501 
L 197.867353 126.508731 
L 197.412052 126.681032 
L 196.158383 127.177965 
L 194.904715 127.691478 
L 194.739424 127.7624 
L 193.651047 128.223968 
L 192.397378 128.771543 
L 191.857701 129.016068 
L 191.14371 129.336033 
L 189.890042 129.914925 
L 189.14522 130.269736 
L 188.636373 130.509649 
L 187.382705 131.117778 
L 186.569714 131.523405 
L 186.129037 131.741172 
L 184.875368 132.377055 
L 184.1073 132.777073 
L 183.6217 133.027743 
L 182.368032 133.690448 
L 181.740225 134.030742 
L 181.114363 134.367229 
L 179.860695 135.056336 
L 179.455327 135.28441 
L 178.607027 135.758175 
L 177.353358 136.473748 
L 177.242946 136.538078 
L 176.09969 137.199768 
L 175.098779 137.791747 
L 174.846022 137.940624 
L 173.592353 138.69182 
L 173.013886 139.045415 
L 172.338685 139.456756 
L 171.085017 140.234753 
L 170.982987 140.299083 
L 169.831348 141.023314 
L 169.004932 141.552752 
L 168.57768 141.82645 
L 167.324012 142.641487 
L 167.073998 142.80642 
L 166.070343 143.468976 
L 165.189149 144.060088 
L 164.816675 144.310758 
L 163.563007 145.164913 
L 163.347182 145.313757 
L 162.309338 146.032355 
L 161.546904 146.567425 
L 161.05567 146.914438 
L 159.802002 147.810281 
L 159.786993 147.821093 
L 158.548333 148.71995 
L 158.064696 149.074762 
L 157.294665 149.645295 
L 156.380991 150.32843 
L 156.040997 150.585848 
L 154.787328 151.541485 
L 154.734333 151.582098 
L 153.53366 152.514511 
L 153.122657 152.835767 
L 152.279992 153.505 
L 151.547526 154.089435 
L 151.026323 154.513146 
L 150.008288 155.343103 
L 149.772655 155.539381 
L 148.518986 156.584608 
L 148.504407 156.596772 
L 147.265318 157.653595 
L 147.03458 157.85044 
L 146.01165 158.74518 
L 145.600647 159.104108 
L 144.757981 159.860836 
L 144.202712 160.357777 
L 143.504313 161.002454 
L 142.841102 161.611445 
L 142.250645 162.172421 
L 141.516366 162.865113 
L 140.996976 163.373714 
L 140.229284 164.118782 
L 139.743308 164.610016 
L 138.980874 165.37245 
L 138.48964 165.885875 
L 137.772406 166.626118 
L 137.235971 167.206897 
L 136.605412 167.879787 
L 135.982303 168.580004 
L 135.481706 169.133455 
L 134.728635 170.013773 
L 134.403402 170.387123 
L 133.474966 171.518881 
L 133.372937 171.640792 
L 132.394459 172.89446 
L 132.221298 173.13451 
L 131.471638 174.148128 
L 130.96763 174.8876 
L 130.60763 175.401797 
L 129.808481 176.655465 
L 129.713961 176.824131 
L 129.086155 177.909133 
L 128.460293 179.125353 
L 128.440357 179.162802 
L 127.898319 180.41647 
L 127.462738 181.670139 
L 127.206625 182.743249 
L 127.161634 182.923807 
L 127.041334 184.177475 
L 127.150808 185.431144 
L 127.206625 185.611702 
L 127.627411 186.684812 
L 128.460293 187.70371 
L 128.730156 187.93848 
L 129.713961 188.506905 
L 130.96763 188.962103 
L 132.089589 189.192149 
L 132.221298 189.213499 
z
" clip-path="url(#p4b3776dc9c)" style="fill: none; stroke: #e74c3c; stroke-opacity: 0.8; stroke-width: 1.5"/>
    <path d="M 149.772655 173.259538 
L 151.026323 173.79001 
L 152.279992 173.958713 
L 153.53366 173.926058 
L 154.787328 173.769393 
L 156.040997 173.530022 
L 157.294665 173.231522 
L 158.522307 172.89446 
L 158.548333 172.886974 
L 159.802002 172.461022 
L 161.05567 172.013818 
L 162.043388 171.640792 
L 162.309338 171.536412 
L 163.563007 171.005049 
L 164.816675 170.466717 
L 164.990195 170.387123 
L 166.070343 169.875391 
L 167.324012 169.277354 
L 167.61235 169.133455 
L 168.57768 168.636031 
L 169.831348 167.987798 
L 170.032368 167.879787 
L 171.085017 167.295922 
L 172.29837 166.626118 
L 172.338685 166.60304 
L 173.592353 165.862069 
L 174.422489 165.37245 
L 174.846022 165.113481 
L 176.09969 164.339765 
L 176.452917 164.118782 
L 177.353358 163.534917 
L 178.391851 162.865113 
L 178.607027 162.720611 
L 179.860695 161.871049 
L 180.242363 161.611445 
L 181.114363 160.99407 
L 182.019406 160.357777 
L 182.368032 160.101439 
L 183.6217 159.183702 
L 183.729616 159.104108 
L 184.875368 158.220667 
L 185.359781 157.85044 
L 186.129037 157.232778 
L 186.929821 156.596772 
L 187.382705 156.216878 
L 188.43798 155.343103 
L 188.636373 155.168603 
L 189.881959 154.089435 
L 189.890042 154.081949 
L 191.14371 152.933236 
L 191.251626 152.835767 
L 192.397378 151.730857 
L 192.554267 151.582098 
L 193.651047 150.4643 
L 193.786917 150.32843 
L 194.904715 149.11798 
L 194.945475 149.074762 
L 196.014722 147.821093 
L 196.158383 147.631678 
L 196.988519 146.567425 
L 197.412052 145.950121 
L 197.862078 145.313757 
L 198.622185 144.060088 
L 198.66572 143.962181 
L 199.199811 142.80642 
L 199.584569 141.552752 
L 199.653438 140.299083 
L 199.107148 139.045415 
L 198.66572 138.680337 
L 197.412052 138.149865 
L 196.158383 137.981162 
L 194.904715 138.013817 
L 193.651047 138.170482 
L 192.397378 138.409853 
L 191.14371 138.708353 
L 189.916068 139.045415 
L 189.890042 139.052901 
L 188.636373 139.478853 
L 187.382705 139.926057 
L 186.394987 140.299083 
L 186.129037 140.403463 
L 184.875368 140.934826 
L 183.6217 141.473158 
L 183.44818 141.552752 
L 182.368032 142.064484 
L 181.114363 142.662521 
L 180.826025 142.80642 
L 179.860695 143.303844 
L 178.607027 143.952077 
L 178.406007 144.060088 
L 177.353358 144.643953 
L 176.140005 145.313757 
L 176.09969 145.336835 
L 174.846022 146.077806 
L 174.015886 146.567425 
L 173.592353 146.826394 
L 172.338685 147.60011 
L 171.985458 147.821093 
L 171.085017 148.404958 
L 170.046524 149.074762 
L 169.831348 149.219264 
L 168.57768 150.068826 
L 168.196012 150.32843 
L 167.324012 150.945805 
L 166.418969 151.582098 
L 166.070343 151.838436 
L 164.816675 152.756173 
L 164.708759 152.835767 
L 163.563007 153.719208 
L 163.078594 154.089435 
L 162.309338 154.707097 
L 161.508554 155.343103 
L 161.05567 155.722997 
L 160.000395 156.596772 
L 159.802002 156.771272 
L 158.556416 157.85044 
L 158.548333 157.857926 
L 157.294665 159.006639 
L 157.186749 159.104108 
L 156.040997 160.209018 
L 155.884108 160.357777 
L 154.787328 161.475575 
L 154.651458 161.611445 
L 153.53366 162.821895 
L 153.4929 162.865113 
L 152.423653 164.118782 
L 152.279992 164.308197 
L 151.449856 165.37245 
L 151.026323 165.989754 
L 150.576297 166.626118 
L 149.81619 167.879787 
L 149.772655 167.977694 
L 149.238564 169.133455 
L 148.853806 170.387123 
L 148.784937 171.640792 
L 149.331227 172.89446 
L 149.772655 173.259538 
z
" clip-path="url(#p4b3776dc9c)" style="fill: none; stroke: #e74c3c; stroke-opacity: 0.8; stroke-width: 1.5"/>
    <path clip-path="url(#p4b3776dc9c)" style="fill: none; stroke: #e74c3c; stroke-opacity: 0.8; stroke-width: 1.5"/>
   </g>
   <g id="QuadContourSet_3">
    <path clip-path="url(#p4b3776dc9c)" style="fill: none; stroke: #2ecc71; stroke-opacity: 0.8; stroke-width: 1.5"/>
    <path d="M 189.890042 191.879339 
L 191.14371 192.136919 
L 192.397378 192.342052 
L 193.651047 192.493319 
L 194.904715 192.588036 
L 196.158383 192.622121 
L 197.412052 192.589888 
L 198.66572 192.483783 
L 199.919389 192.294035 
L 201.173057 192.008189 
L 202.159331 191.699485 
L 202.426725 191.611306 
L 203.680394 191.083169 
L 204.842853 190.445817 
L 204.934062 190.390877 
L 206.18773 189.482041 
L 206.522205 189.192149 
L 207.441399 188.272955 
L 207.731291 187.93848 
L 208.640127 186.684812 
L 208.695067 186.593603 
L 209.332419 185.431144 
L 209.860556 184.177475 
L 209.948735 183.910081 
L 210.257439 182.923807 
L 210.543285 181.670139 
L 210.733033 180.41647 
L 210.839138 179.162802 
L 210.871371 177.909133 
L 210.837286 176.655465 
L 210.742569 175.401797 
L 210.591302 174.148128 
L 210.386169 172.89446 
L 210.128589 171.640792 
L 209.948735 170.913007 
L 209.826714 170.387123 
L 209.487919 169.133455 
L 209.100726 167.879787 
L 208.695067 166.717328 
L 208.66496 166.626118 
L 208.207578 165.37245 
L 207.699734 164.118782 
L 207.441399 163.53549 
L 207.158456 162.865113 
L 206.582447 161.611445 
L 206.18773 160.821504 
L 205.965604 160.357777 
L 205.320152 159.104108 
L 204.934062 158.408621 
L 204.635256 157.85044 
L 203.916095 156.596772 
L 203.680394 156.209932 
L 203.168065 155.343103 
L 202.426725 154.177614 
L 202.372081 154.089435 
L 201.559147 152.835767 
L 201.173057 152.275799 
L 200.704317 151.582098 
L 199.919389 150.488341 
L 199.806433 150.32843 
L 198.882879 149.074762 
L 198.66572 148.792843 
L 197.924594 147.821093 
L 197.412052 147.180306 
L 196.924563 146.567425 
L 196.158383 145.644789 
L 195.883825 145.313757 
L 194.904715 144.177927 
L 194.802817 144.060088 
L 193.683379 142.80642 
L 193.651047 142.771078 
L 192.526365 141.552752 
L 192.397378 141.416694 
L 191.323564 140.299083 
L 191.14371 140.116002 
L 190.073123 139.045415 
L 189.890042 138.865561 
L 188.772431 137.791747 
L 188.636373 137.66276 
L 187.418047 136.538078 
L 187.382705 136.505746 
L 186.129037 135.386308 
L 186.011198 135.28441 
L 184.875368 134.3053 
L 184.544336 134.030742 
L 183.6217 133.264562 
L 183.008819 132.777073 
L 182.368032 132.264531 
L 181.396282 131.523405 
L 181.114363 131.306246 
L 179.860695 130.382692 
L 179.700784 130.269736 
L 178.607027 129.484808 
L 177.913326 129.016068 
L 177.353358 128.629978 
L 176.09969 127.817044 
L 176.011511 127.7624 
L 174.846022 127.02106 
L 173.979193 126.508731 
L 173.592353 126.27303 
L 172.338685 125.553869 
L 171.780504 125.255063 
L 171.085017 124.868973 
L 169.831348 124.223521 
L 169.367621 124.001395 
L 168.57768 123.606678 
L 167.324012 123.030669 
L 166.653635 122.747726 
L 166.070343 122.489391 
L 164.816675 121.981547 
L 163.563007 121.524165 
L 163.471797 121.494058 
L 162.309338 121.088399 
L 161.05567 120.701206 
L 159.802002 120.362411 
L 159.276118 120.24039 
L 158.548333 120.060536 
L 157.294665 119.802956 
L 156.040997 119.597823 
L 154.787328 119.446556 
L 153.53366 119.351839 
L 152.279992 119.317754 
L 151.026323 119.349987 
L 149.772655 119.456092 
L 148.518986 119.64584 
L 147.265318 119.931686 
L 146.279044 120.24039 
L 146.01165 120.328569 
L 144.757981 120.856706 
L 143.595522 121.494058 
L 143.504313 121.548998 
L 142.250645 122.457834 
L 141.91617 122.747726 
L 140.996976 123.66692 
L 140.707084 124.001395 
L 139.798248 125.255063 
L 139.743308 125.346272 
L 139.105956 126.508731 
L 138.577819 127.7624 
L 138.48964 128.029794 
L 138.180936 129.016068 
L 137.89509 130.269736 
L 137.705342 131.523405 
L 137.599237 132.777073 
L 137.567004 134.030742 
L 137.601089 135.28441 
L 137.695806 136.538078 
L 137.847073 137.791747 
L 138.052206 139.045415 
L 138.309786 140.299083 
L 138.48964 141.026868 
L 138.611661 141.552752 
L 138.950456 142.80642 
L 139.337649 144.060088 
L 139.743308 145.222547 
L 139.773415 145.313757 
L 140.230797 146.567425 
L 140.738641 147.821093 
L 140.996976 148.404385 
L 141.279919 149.074762 
L 141.855928 150.32843 
L 142.250645 151.118371 
L 142.472771 151.582098 
L 143.118223 152.835767 
L 143.504313 153.531254 
L 143.803119 154.089435 
L 144.52228 155.343103 
L 144.757981 155.729943 
L 145.27031 156.596772 
L 146.01165 157.762261 
L 146.066294 157.85044 
L 146.879228 159.104108 
L 147.265318 159.664076 
L 147.734058 160.357777 
L 148.518986 161.451534 
L 148.631942 161.611445 
L 149.555496 162.865113 
L 149.772655 163.147032 
L 150.513781 164.118782 
L 151.026323 164.759569 
L 151.513812 165.37245 
L 152.279992 166.295086 
L 152.55455 166.626118 
L 153.53366 167.761948 
L 153.635558 167.879787 
L 154.754996 169.133455 
L 154.787328 169.168797 
L 155.91201 170.387123 
L 156.040997 170.523181 
L 157.114811 171.640792 
L 157.294665 171.823873 
L 158.365252 172.89446 
L 158.548333 173.074314 
L 159.665944 174.148128 
L 159.802002 174.277115 
L 161.020328 175.401797 
L 161.05567 175.434129 
L 162.309338 176.553567 
L 162.427177 176.655465 
L 163.563007 177.634575 
L 163.894039 177.909133 
L 164.816675 178.675313 
L 165.429556 179.162802 
L 166.070343 179.675344 
L 167.042093 180.41647 
L 167.324012 180.633629 
L 168.57768 181.557183 
L 168.737591 181.670139 
L 169.831348 182.455067 
L 170.525049 182.923807 
L 171.085017 183.309897 
L 172.338685 184.122831 
L 172.426864 184.177475 
L 173.592353 184.918815 
L 174.459182 185.431144 
L 174.846022 185.666845 
L 176.09969 186.386006 
L 176.657871 186.684812 
L 177.353358 187.070902 
L 178.607027 187.716354 
L 179.070754 187.93848 
L 179.860695 188.333197 
L 181.114363 188.909206 
L 181.78474 189.192149 
L 182.368032 189.450484 
L 183.6217 189.958328 
L 184.875368 190.41571 
L 184.966578 190.445817 
L 186.129037 190.851476 
L 187.382705 191.238669 
L 188.636373 191.577464 
L 189.162257 191.699485 
L 189.890042 191.879339 
z
" clip-path="url(#p4b3776dc9c)" style="fill: none; stroke: #2ecc71; stroke-opacity: 0.8; stroke-width: 1.5"/>
    <path d="M 187.382705 181.678813 
L 188.636373 181.798468 
L 189.890042 181.832566 
L 191.14371 181.770075 
L 191.88103 181.670139 
L 192.397378 181.594328 
L 193.651047 181.278869 
L 194.904715 180.795302 
L 195.617998 180.41647 
L 196.158383 180.082251 
L 197.286501 179.162802 
L 197.412052 179.037251 
L 198.331501 177.909133 
L 198.66572 177.368748 
L 199.044552 176.655465 
L 199.528119 175.401797 
L 199.843578 174.148128 
L 199.919389 173.63178 
L 200.019325 172.89446 
L 200.081816 171.640792 
L 200.047718 170.387123 
L 199.928063 169.133455 
L 199.919389 169.079712 
L 199.732194 167.879787 
L 199.46741 166.626118 
L 199.138034 165.37245 
L 198.746435 164.118782 
L 198.66572 163.896654 
L 198.300633 162.865113 
L 197.799676 161.611445 
L 197.412052 160.741783 
L 197.244382 160.357777 
L 196.641602 159.104108 
L 196.158383 158.184659 
L 195.985321 157.85044 
L 195.283432 156.596772 
L 194.904715 155.968681 
L 194.530921 155.343103 
L 193.728094 154.089435 
L 193.651047 153.975804 
L 192.880597 152.835767 
L 192.397378 152.162417 
L 191.98037 151.582098 
L 191.14371 150.479913 
L 191.028031 150.32843 
L 190.02551 149.074762 
L 189.890042 148.912334 
L 188.969184 147.821093 
L 188.636373 147.44229 
L 187.855019 146.567425 
L 187.382705 146.057006 
L 186.680272 145.313757 
L 186.129037 144.748087 
L 185.441038 144.060088 
L 184.875368 143.508853 
L 184.132119 142.80642 
L 183.6217 142.334106 
L 182.746835 141.552752 
L 182.368032 141.219941 
L 181.276791 140.299083 
L 181.114363 140.163615 
L 179.860695 139.161094 
L 179.709212 139.045415 
L 178.607027 138.208755 
L 178.026708 137.791747 
L 177.353358 137.308528 
L 176.213321 136.538078 
L 176.09969 136.461031 
L 174.846022 135.658204 
L 174.220444 135.28441 
L 173.592353 134.905693 
L 172.338685 134.203804 
L 172.004466 134.030742 
L 171.085017 133.547523 
L 169.831348 132.944743 
L 169.447342 132.777073 
L 168.57768 132.389449 
L 167.324012 131.888492 
L 166.292471 131.523405 
L 166.070343 131.44269 
L 164.816675 131.051091 
L 163.563007 130.721715 
L 162.309338 130.456931 
L 161.109413 130.269736 
L 161.05567 130.261062 
L 159.802002 130.141407 
L 158.548333 130.107309 
L 157.294665 130.1698 
L 156.557345 130.269736 
L 156.040997 130.345547 
L 154.787328 130.661006 
L 153.53366 131.144573 
L 152.820377 131.523405 
L 152.279992 131.857624 
L 151.151874 132.777073 
L 151.026323 132.902624 
L 150.106874 134.030742 
L 149.772655 134.571127 
L 149.393823 135.28441 
L 148.910256 136.538078 
L 148.594797 137.791747 
L 148.518986 138.308095 
L 148.41905 139.045415 
L 148.356559 140.299083 
L 148.390657 141.552752 
L 148.510312 142.80642 
L 148.518986 142.860163 
L 148.706181 144.060088 
L 148.970965 145.313757 
L 149.300341 146.567425 
L 149.69194 147.821093 
L 149.772655 148.043221 
L 150.137742 149.074762 
L 150.638699 150.32843 
L 151.026323 151.198092 
L 151.193993 151.582098 
L 151.796773 152.835767 
L 152.279992 153.755216 
L 152.453054 154.089435 
L 153.154943 155.343103 
L 153.53366 155.971194 
L 153.907454 156.596772 
L 154.710281 157.85044 
L 154.787328 157.964071 
L 155.557778 159.104108 
L 156.040997 159.777458 
L 156.458005 160.357777 
L 157.294665 161.459962 
L 157.410344 161.611445 
L 158.412865 162.865113 
L 158.548333 163.027541 
L 159.469191 164.118782 
L 159.802002 164.497585 
L 160.583356 165.37245 
L 161.05567 165.882869 
L 161.758103 166.626118 
L 162.309338 167.191788 
L 162.997337 167.879787 
L 163.563007 168.431022 
L 164.306256 169.133455 
L 164.816675 169.605769 
L 165.69154 170.387123 
L 166.070343 170.719934 
L 167.161584 171.640792 
L 167.324012 171.77626 
L 168.57768 172.778781 
L 168.729163 172.89446 
L 169.831348 173.73112 
L 170.411667 174.148128 
L 171.085017 174.631347 
L 172.225054 175.401797 
L 172.338685 175.478844 
L 173.592353 176.281671 
L 174.217931 176.655465 
L 174.846022 177.034182 
L 176.09969 177.736071 
L 176.433909 177.909133 
L 177.353358 178.392352 
L 178.607027 178.995132 
L 178.991033 179.162802 
L 179.860695 179.550426 
L 181.114363 180.051383 
L 182.145904 180.41647 
L 182.368032 180.497185 
L 183.6217 180.888784 
L 184.875368 181.21816 
L 186.129037 181.482944 
L 187.328962 181.670139 
L 187.382705 181.678813 
z
" clip-path="url(#p4b3776dc9c)" style="fill: none; stroke: #2ecc71; stroke-opacity: 0.8; stroke-width: 1.5"/>
    <path d="M 179.860695 171.816775 
L 181.114363 172.154047 
L 182.368032 172.393578 
L 183.6217 172.51872 
L 184.875368 172.505321 
L 186.129037 172.318697 
L 187.382705 171.908902 
L 187.891832 171.640792 
L 188.636373 171.1319 
L 189.38115 170.387123 
L 189.890042 169.642582 
L 190.158152 169.133455 
L 190.567947 167.879787 
L 190.754571 166.626118 
L 190.76797 165.37245 
L 190.642828 164.118782 
L 190.403297 162.865113 
L 190.066025 161.611445 
L 189.890042 161.102318 
L 189.631064 160.357777 
L 189.111474 159.104108 
L 188.636373 158.100239 
L 188.516775 157.85044 
L 187.837355 156.596772 
L 187.382705 155.833059 
L 187.086056 155.343103 
L 186.260345 154.089435 
L 186.129037 153.905041 
L 185.350469 152.835767 
L 184.875368 152.223587 
L 184.363518 151.582098 
L 183.6217 150.70417 
L 183.293447 150.32843 
L 182.368032 149.321851 
L 182.131811 149.074762 
L 181.114363 148.057314 
L 180.867274 147.821093 
L 179.860695 146.895678 
L 179.484955 146.567425 
L 178.607027 145.825607 
L 177.965538 145.313757 
L 177.353358 144.838656 
L 176.284084 144.060088 
L 176.09969 143.92878 
L 174.846022 143.103069 
L 174.356066 142.80642 
L 173.592353 142.35177 
L 172.338685 141.67235 
L 172.088886 141.552752 
L 171.085017 141.077651 
L 169.831348 140.558061 
L 169.086807 140.299083 
L 168.57768 140.1231 
L 167.324012 139.785828 
L 166.070343 139.546297 
L 164.816675 139.421155 
L 163.563007 139.434554 
L 162.309338 139.621178 
L 161.05567 140.030973 
L 160.546543 140.299083 
L 159.802002 140.807975 
L 159.057225 141.552752 
L 158.548333 142.297293 
L 158.280223 142.80642 
L 157.870428 144.060088 
L 157.683804 145.313757 
L 157.670405 146.567425 
L 157.795547 147.821093 
L 158.035078 149.074762 
L 158.37235 150.32843 
L 158.548333 150.837557 
L 158.807311 151.582098 
L 159.326901 152.835767 
L 159.802002 153.839636 
L 159.9216 154.089435 
L 160.60102 155.343103 
L 161.05567 156.106816 
L 161.352319 156.596772 
L 162.17803 157.85044 
L 162.309338 158.034834 
L 163.087906 159.104108 
L 163.563007 159.716288 
L 164.074857 160.357777 
L 164.816675 161.235705 
L 165.144928 161.611445 
L 166.070343 162.618024 
L 166.306564 162.865113 
L 167.324012 163.882561 
L 167.571101 164.118782 
L 168.57768 165.044197 
L 168.95342 165.37245 
L 169.831348 166.114268 
L 170.472837 166.626118 
L 171.085017 167.101219 
L 172.154291 167.879787 
L 172.338685 168.011095 
L 173.592353 168.836806 
L 174.082309 169.133455 
L 174.846022 169.588105 
L 176.09969 170.267525 
L 176.349489 170.387123 
L 177.353358 170.862224 
L 178.607027 171.381814 
L 179.351568 171.640792 
L 179.860695 171.816775 
z
" clip-path="url(#p4b3776dc9c)" style="fill: none; stroke: #2ecc71; stroke-opacity: 0.8; stroke-width: 1.5"/>
    <path clip-path="url(#p4b3776dc9c)" style="fill: none; stroke: #2ecc71; stroke-opacity: 0.8; stroke-width: 1.5"/>
   </g>
   <g id="line2d_15">
    <defs>
     <path id="mdea8fe7747" d="M 0 2.5 
C 0.663008 2.5 1.29895 2.236584 1.767767 1.767767 
C 2.236584 1.29895 2.5 0.663008 2.5 0 
C 2.5 -0.663008 2.236584 -1.29895 1.767767 -1.767767 
C 1.29895 -2.236584 0.663008 -2.5 0 -2.5 
C -0.663008 -2.5 -1.29895 -2.236584 -1.767767 -1.767767 
C -2.236584 -1.29895 -2.5 -0.663008 -2.5 0 
C -2.5 0.663008 -2.236584 1.29895 -1.767767 1.767767 
C -1.29895 2.236584 -0.663008 2.5 0 2.5 
z
" style="stroke: #000000"/>
    </defs>
    <g clip-path="url(#p4b3776dc9c)">
     <use xlink:href="#mdea8fe7747" x="174.219188" y="155.969937" style="stroke: #000000"/>
    </g>
   </g>
   <g id="patch_3">
    <path d="M 49.479188 280.709937 
L 49.479188 31.229937 
" style="fill: none; stroke: #000000; stroke-width: 0.8; stroke-linejoin: miter; stroke-linecap: square"/>
   </g>
   <g id="patch_4">
    <path d="M 49.479188 280.709937 
L 298.959188 280.709937 
" style="fill: none; stroke: #000000; stroke-width: 0.8; stroke-linejoin: miter; stroke-linecap: square"/>
   </g>
   <g id="text_17">
    <!-- μ -->
    <g transform="translate(177.961388 151.292187) scale(0.13 -0.13)">
     <defs>
      <path id="DejaVuSans-Bold-3bc" d="M 544 -1338 
L 544 3500 
L 1672 3500 
L 1672 1466 
Q 1672 1103 1828 926 
Q 1984 750 2303 750 
Q 2625 750 2781 926 
Q 2938 1103 2938 1466 
L 2938 3500 
L 4063 3500 
L 4063 1159 
Q 4063 938 4114 850 
Q 4166 763 4288 763 
Q 4344 763 4395 778 
Q 4447 794 4506 831 
L 4506 50 
Q 4341 -22 4195 -56 
Q 4050 -91 3909 -91 
Q 3631 -91 3454 26 
Q 3278 144 3169 403 
Q 3022 156 2811 32 
Q 2600 -91 2322 -91 
Q 2091 -91 1928 -17 
Q 1766 56 1672 206 
L 1672 -1338 
L 544 -1338 
z
" transform="scale(0.015625)"/>
     </defs>
     <use xlink:href="#DejaVuSans-Bold-3bc"/>
    </g>
   </g>
   <g id="text_18">
    <g id="patch_5">
     <path d="M 142.340681 271.835938 
L 293.969588 271.835938 
Q 297.569588 271.835938 297.569588 268.235937 
L 297.569588 239.369562 
Q 297.569588 235.769562 293.969588 235.769562 
L 142.340681 235.769562 
Q 138.740681 235.769562 138.740681 239.369562 
L 138.740681 268.235937 
Q 138.740681 271.835938 142.340681 271.835938 
z
" style="fill: #f0f0f0; stroke: #cccccc; stroke-linejoin: miter"/>
    </g>
    <!-- μ sets center -->
    <g style="fill: #555555" transform="translate(235.12365 246.208156) scale(0.09 -0.09)">
     <defs>
      <path id="DejaVuSans-3bc" d="M 544 -1331 
L 544 3500 
L 1119 3500 
L 1119 1325 
Q 1119 872 1334 640 
Q 1550 409 1972 409 
Q 2434 409 2667 671 
Q 2900 934 2900 1459 
L 2900 3500 
L 3475 3500 
L 3475 806 
Q 3475 619 3529 530 
Q 3584 441 3700 441 
Q 3728 441 3778 458 
Q 3828 475 3916 513 
L 3916 50 
Q 3788 -22 3673 -56 
Q 3559 -91 3450 -91 
Q 3234 -91 3106 31 
Q 2978 153 2931 403 
Q 2775 156 2548 32 
Q 2322 -91 2016 -91 
Q 1697 -91 1473 31 
Q 1250 153 1119 397 
L 1119 -1331 
L 544 -1331 
z
" transform="scale(0.015625)"/>
      <path id="DejaVuSans-20" transform="scale(0.015625)"/>
      <path id="DejaVuSans-73" d="M 2834 3397 
L 2834 2853 
Q 2591 2978 2328 3040 
Q 2066 3103 1784 3103 
Q 1356 3103 1142 2972 
Q 928 2841 928 2578 
Q 928 2378 1081 2264 
Q 1234 2150 1697 2047 
L 1894 2003 
Q 2506 1872 2764 1633 
Q 3022 1394 3022 966 
Q 3022 478 2636 193 
Q 2250 -91 1575 -91 
Q 1294 -91 989 -36 
Q 684 19 347 128 
L 347 722 
Q 666 556 975 473 
Q 1284 391 1588 391 
Q 1994 391 2212 530 
Q 2431 669 2431 922 
Q 2431 1156 2273 1281 
Q 2116 1406 1581 1522 
L 1381 1569 
Q 847 1681 609 1914 
Q 372 2147 372 2553 
Q 372 3047 722 3315 
Q 1072 3584 1716 3584 
Q 2034 3584 2315 3537 
Q 2597 3491 2834 3397 
z
" transform="scale(0.015625)"/>
      <path id="DejaVuSans-65" d="M 3597 1894 
L 3597 1613 
L 953 1613 
Q 991 1019 1311 708 
Q 1631 397 2203 397 
Q 2534 397 2845 478 
Q 3156 559 3463 722 
L 3463 178 
Q 3153 47 2828 -22 
Q 2503 -91 2169 -91 
Q 1331 -91 842 396 
Q 353 884 353 1716 
Q 353 2575 817 3079 
Q 1281 3584 2069 3584 
Q 2775 3584 3186 3129 
Q 3597 2675 3597 1894 
z
M 3022 2063 
Q 3016 2534 2758 2815 
Q 2500 3097 2075 3097 
Q 1594 3097 1305 2825 
Q 1016 2553 972 2059 
L 3022 2063 
z
" transform="scale(0.015625)"/>
      <path id="DejaVuSans-74" d="M 1172 4494 
L 1172 3500 
L 2356 3500 
L 2356 3053 
L 1172 3053 
L 1172 1153 
Q 1172 725 1289 603 
Q 1406 481 1766 481 
L 2356 481 
L 2356 0 
L 1766 0 
Q 1100 0 847 248 
Q 594 497 594 1153 
L 594 3053 
L 172 3053 
L 172 3500 
L 594 3500 
L 594 4494 
L 1172 4494 
z
" transform="scale(0.015625)"/>
      <path id="DejaVuSans-63" d="M 3122 3366 
L 3122 2828 
Q 2878 2963 2633 3030 
Q 2388 3097 2138 3097 
Q 1578 3097 1268 2742 
Q 959 2388 959 1747 
Q 959 1106 1268 751 
Q 1578 397 2138 397 
Q 2388 397 2633 464 
Q 2878 531 3122 666 
L 3122 134 
Q 2881 22 2623 -34 
Q 2366 -91 2075 -91 
Q 1284 -91 818 406 
Q 353 903 353 1747 
Q 353 2603 823 3093 
Q 1294 3584 2113 3584 
Q 2378 3584 2631 3529 
Q 2884 3475 3122 3366 
z
" transform="scale(0.015625)"/>
      <path id="DejaVuSans-6e" d="M 3513 2113 
L 3513 0 
L 2938 0 
L 2938 2094 
Q 2938 2591 2744 2837 
Q 2550 3084 2163 3084 
Q 1697 3084 1428 2787 
Q 1159 2491 1159 1978 
L 1159 0 
L 581 0 
L 581 3500 
L 1159 3500 
L 1159 2956 
Q 1366 3272 1645 3428 
Q 1925 3584 2291 3584 
Q 2894 3584 3203 3211 
Q 3513 2838 3513 2113 
z
" transform="scale(0.015625)"/>
      <path id="DejaVuSans-72" d="M 2631 2963 
Q 2534 3019 2420 3045 
Q 2306 3072 2169 3072 
Q 1681 3072 1420 2755 
Q 1159 2438 1159 1844 
L 1159 0 
L 581 0 
L 581 3500 
L 1159 3500 
L 1159 2956 
Q 1341 3275 1631 3429 
Q 1922 3584 2338 3584 
Q 2397 3584 2469 3576 
Q 2541 3569 2628 3553 
L 2631 2963 
z
" transform="scale(0.015625)"/>
     </defs>
     <use xlink:href="#DejaVuSans-3bc"/>
     <use xlink:href="#DejaVuSans-20" transform="translate(63.623047 0)"/>
     <use xlink:href="#DejaVuSans-73" transform="translate(95.410156 0)"/>
     <use xlink:href="#DejaVuSans-65" transform="translate(147.509766 0)"/>
     <use xlink:href="#DejaVuSans-74" transform="translate(209.033203 0)"/>
     <use xlink:href="#DejaVuSans-73" transform="translate(248.242188 0)"/>
     <use xlink:href="#DejaVuSans-20" transform="translate(300.341797 0)"/>
     <use xlink:href="#DejaVuSans-63" transform="translate(332.128906 0)"/>
     <use xlink:href="#DejaVuSans-65" transform="translate(387.109375 0)"/>
     <use xlink:href="#DejaVuSans-6e" transform="translate(448.632812 0)"/>
     <use xlink:href="#DejaVuSans-74" transform="translate(512.011719 0)"/>
     <use xlink:href="#DejaVuSans-65" transform="translate(551.220703 0)"/>
     <use xlink:href="#DejaVuSans-72" transform="translate(612.744141 0)"/>
    </g>
    <!-- Σ sets size + orientation -->
    <g style="fill: #555555" transform="translate(184.175213 256.286187) scale(0.09 -0.09)">
     <defs>
      <path id="DejaVuSans-3a3" d="M 1353 531 
L 3634 531 
L 3634 0 
L 628 0 
L 628 531 
L 2125 2481 
L 628 4134 
L 628 4666 
L 3578 4666 
L 3578 4134 
L 1353 4134 
L 2850 2494 
L 1353 531 
z
" transform="scale(0.015625)"/>
      <path id="DejaVuSans-69" d="M 603 3500 
L 1178 3500 
L 1178 0 
L 603 0 
L 603 3500 
z
M 603 4863 
L 1178 4863 
L 1178 4134 
L 603 4134 
L 603 4863 
z
" transform="scale(0.015625)"/>
      <path id="DejaVuSans-7a" d="M 353 3500 
L 3084 3500 
L 3084 2975 
L 922 459 
L 3084 459 
L 3084 0 
L 275 0 
L 275 525 
L 2438 3041 
L 353 3041 
L 353 3500 
z
" transform="scale(0.015625)"/>
      <path id="DejaVuSans-2b" d="M 2944 4013 
L 2944 2272 
L 4684 2272 
L 4684 1741 
L 2944 1741 
L 2944 0 
L 2419 0 
L 2419 1741 
L 678 1741 
L 678 2272 
L 2419 2272 
L 2419 4013 
L 2944 4013 
z
" transform="scale(0.015625)"/>
      <path id="DejaVuSans-6f" d="M 1959 3097 
Q 1497 3097 1228 2736 
Q 959 2375 959 1747 
Q 959 1119 1226 758 
Q 1494 397 1959 397 
Q 2419 397 2687 759 
Q 2956 1122 2956 1747 
Q 2956 2369 2687 2733 
Q 2419 3097 1959 3097 
z
M 1959 3584 
Q 2709 3584 3137 3096 
Q 3566 2609 3566 1747 
Q 3566 888 3137 398 
Q 2709 -91 1959 -91 
Q 1206 -91 779 398 
Q 353 888 353 1747 
Q 353 2609 779 3096 
Q 1206 3584 1959 3584 
z
" transform="scale(0.015625)"/>
      <path id="DejaVuSans-61" d="M 2194 1759 
Q 1497 1759 1228 1600 
Q 959 1441 959 1056 
Q 959 750 1161 570 
Q 1363 391 1709 391 
Q 2188 391 2477 730 
Q 2766 1069 2766 1631 
L 2766 1759 
L 2194 1759 
z
M 3341 1997 
L 3341 0 
L 2766 0 
L 2766 531 
Q 2569 213 2275 61 
Q 1981 -91 1556 -91 
Q 1019 -91 701 211 
Q 384 513 384 1019 
Q 384 1609 779 1909 
Q 1175 2209 1959 2209 
L 2766 2209 
L 2766 2266 
Q 2766 2663 2505 2880 
Q 2244 3097 1772 3097 
Q 1472 3097 1187 3025 
Q 903 2953 641 2809 
L 641 3341 
Q 956 3463 1253 3523 
Q 1550 3584 1831 3584 
Q 2591 3584 2966 3190 
Q 3341 2797 3341 1997 
z
" transform="scale(0.015625)"/>
     </defs>
     <use xlink:href="#DejaVuSans-3a3"/>
     <use xlink:href="#DejaVuSans-20" transform="translate(63.183594 0)"/>
     <use xlink:href="#DejaVuSans-73" transform="translate(94.970703 0)"/>
     <use xlink:href="#DejaVuSans-65" transform="translate(147.070312 0)"/>
     <use xlink:href="#DejaVuSans-74" transform="translate(208.59375 0)"/>
     <use xlink:href="#DejaVuSans-73" transform="translate(247.802734 0)"/>
     <use xlink:href="#DejaVuSans-20" transform="translate(299.902344 0)"/>
     <use xlink:href="#DejaVuSans-73" transform="translate(331.689453 0)"/>
     <use xlink:href="#DejaVuSans-69" transform="translate(383.789062 0)"/>
     <use xlink:href="#DejaVuSans-7a" transform="translate(411.572266 0)"/>
     <use xlink:href="#DejaVuSans-65" transform="translate(464.0625 0)"/>
     <use xlink:href="#DejaVuSans-20" transform="translate(525.585938 0)"/>
     <use xlink:href="#DejaVuSans-2b" transform="translate(557.373047 0)"/>
     <use xlink:href="#DejaVuSans-20" transform="translate(641.162109 0)"/>
     <use xlink:href="#DejaVuSans-6f" transform="translate(672.949219 0)"/>
     <use xlink:href="#DejaVuSans-72" transform="translate(734.130859 0)"/>
     <use xlink:href="#DejaVuSans-69" transform="translate(775.244141 0)"/>
     <use xlink:href="#DejaVuSans-65" transform="translate(803.027344 0)"/>
     <use xlink:href="#DejaVuSans-6e" transform="translate(864.550781 0)"/>
     <use xlink:href="#DejaVuSans-74" transform="translate(927.929688 0)"/>
     <use xlink:href="#DejaVuSans-61" transform="translate(967.138672 0)"/>
     <use xlink:href="#DejaVuSans-74" transform="translate(1028.417969 0)"/>
     <use xlink:href="#DejaVuSans-69" transform="translate(1067.626953 0)"/>
     <use xlink:href="#DejaVuSans-6f" transform="translate(1095.410156 0)"/>
     <use xlink:href="#DejaVuSans-6e" transform="translate(1156.591797 0)"/>
    </g>
    <!-- Contours = equal-density ellipses -->
    <g style="fill: #555555" transform="translate(142.340681 266.364219) scale(0.09 -0.09)">
     <defs>
      <path id="DejaVuSans-43" d="M 4122 4306 
L 4122 3641 
Q 3803 3938 3442 4084 
Q 3081 4231 2675 4231 
Q 1875 4231 1450 3742 
Q 1025 3253 1025 2328 
Q 1025 1406 1450 917 
Q 1875 428 2675 428 
Q 3081 428 3442 575 
Q 3803 722 4122 1019 
L 4122 359 
Q 3791 134 3420 21 
Q 3050 -91 2638 -91 
Q 1578 -91 968 557 
Q 359 1206 359 2328 
Q 359 3453 968 4101 
Q 1578 4750 2638 4750 
Q 3056 4750 3426 4639 
Q 3797 4528 4122 4306 
z
" transform="scale(0.015625)"/>
      <path id="DejaVuSans-75" d="M 544 1381 
L 544 3500 
L 1119 3500 
L 1119 1403 
Q 1119 906 1312 657 
Q 1506 409 1894 409 
Q 2359 409 2629 706 
Q 2900 1003 2900 1516 
L 2900 3500 
L 3475 3500 
L 3475 0 
L 2900 0 
L 2900 538 
Q 2691 219 2414 64 
Q 2138 -91 1772 -91 
Q 1169 -91 856 284 
Q 544 659 544 1381 
z
M 1991 3584 
L 1991 3584 
z
" transform="scale(0.015625)"/>
      <path id="DejaVuSans-3d" d="M 678 2906 
L 4684 2906 
L 4684 2381 
L 678 2381 
L 678 2906 
z
M 678 1631 
L 4684 1631 
L 4684 1100 
L 678 1100 
L 678 1631 
z
" transform="scale(0.015625)"/>
      <path id="DejaVuSans-71" d="M 947 1747 
Q 947 1113 1208 752 
Q 1469 391 1925 391 
Q 2381 391 2643 752 
Q 2906 1113 2906 1747 
Q 2906 2381 2643 2742 
Q 2381 3103 1925 3103 
Q 1469 3103 1208 2742 
Q 947 2381 947 1747 
z
M 2906 525 
Q 2725 213 2448 61 
Q 2172 -91 1784 -91 
Q 1150 -91 751 415 
Q 353 922 353 1747 
Q 353 2572 751 3078 
Q 1150 3584 1784 3584 
Q 2172 3584 2448 3432 
Q 2725 3281 2906 2969 
L 2906 3500 
L 3481 3500 
L 3481 -1331 
L 2906 -1331 
L 2906 525 
z
" transform="scale(0.015625)"/>
      <path id="DejaVuSans-6c" d="M 603 4863 
L 1178 4863 
L 1178 0 
L 603 0 
L 603 4863 
z
" transform="scale(0.015625)"/>
      <path id="DejaVuSans-2d" d="M 313 2009 
L 1997 2009 
L 1997 1497 
L 313 1497 
L 313 2009 
z
" transform="scale(0.015625)"/>
      <path id="DejaVuSans-64" d="M 2906 2969 
L 2906 4863 
L 3481 4863 
L 3481 0 
L 2906 0 
L 2906 525 
Q 2725 213 2448 61 
Q 2172 -91 1784 -91 
Q 1150 -91 751 415 
Q 353 922 353 1747 
Q 353 2572 751 3078 
Q 1150 3584 1784 3584 
Q 2172 3584 2448 3432 
Q 2725 3281 2906 2969 
z
M 947 1747 
Q 947 1113 1208 752 
Q 1469 391 1925 391 
Q 2381 391 2643 752 
Q 2906 1113 2906 1747 
Q 2906 2381 2643 2742 
Q 2381 3103 1925 3103 
Q 1469 3103 1208 2742 
Q 947 2381 947 1747 
z
" transform="scale(0.015625)"/>
      <path id="DejaVuSans-79" d="M 2059 -325 
Q 1816 -950 1584 -1140 
Q 1353 -1331 966 -1331 
L 506 -1331 
L 506 -850 
L 844 -850 
Q 1081 -850 1212 -737 
Q 1344 -625 1503 -206 
L 1606 56 
L 191 3500 
L 800 3500 
L 1894 763 
L 2988 3500 
L 3597 3500 
L 2059 -325 
z
" transform="scale(0.015625)"/>
      <path id="DejaVuSans-70" d="M 1159 525 
L 1159 -1331 
L 581 -1331 
L 581 3500 
L 1159 3500 
L 1159 2969 
Q 1341 3281 1617 3432 
Q 1894 3584 2278 3584 
Q 2916 3584 3314 3078 
Q 3713 2572 3713 1747 
Q 3713 922 3314 415 
Q 2916 -91 2278 -91 
Q 1894 -91 1617 61 
Q 1341 213 1159 525 
z
M 3116 1747 
Q 3116 2381 2855 2742 
Q 2594 3103 2138 3103 
Q 1681 3103 1420 2742 
Q 1159 2381 1159 1747 
Q 1159 1113 1420 752 
Q 1681 391 2138 391 
Q 2594 391 2855 752 
Q 3116 1113 3116 1747 
z
" transform="scale(0.015625)"/>
     </defs>
     <use xlink:href="#DejaVuSans-43"/>
     <use xlink:href="#DejaVuSans-6f" transform="translate(69.824219 0)"/>
     <use xlink:href="#DejaVuSans-6e" transform="translate(131.005859 0)"/>
     <use xlink:href="#DejaVuSans-74" transform="translate(194.384766 0)"/>
     <use xlink:href="#DejaVuSans-6f" transform="translate(233.59375 0)"/>
     <use xlink:href="#DejaVuSans-75" transform="translate(294.775391 0)"/>
     <use xlink:href="#DejaVuSans-72" transform="translate(358.154297 0)"/>
     <use xlink:href="#DejaVuSans-73" transform="translate(399.267578 0)"/>
     <use xlink:href="#DejaVuSans-20" transform="translate(451.367188 0)"/>
     <use xlink:href="#DejaVuSans-3d" transform="translate(483.154297 0)"/>
     <use xlink:href="#DejaVuSans-20" transform="translate(566.943359 0)"/>
     <use xlink:href="#DejaVuSans-65" transform="translate(598.730469 0)"/>
     <use xlink:href="#DejaVuSans-71" transform="translate(660.253906 0)"/>
     <use xlink:href="#DejaVuSans-75" transform="translate(723.730469 0)"/>
     <use xlink:href="#DejaVuSans-61" transform="translate(787.109375 0)"/>
     <use xlink:href="#DejaVuSans-6c" transform="translate(848.388672 0)"/>
     <use xlink:href="#DejaVuSans-2d" transform="translate(876.171875 0)"/>
     <use xlink:href="#DejaVuSans-64" transform="translate(912.255859 0)"/>
     <use xlink:href="#DejaVuSans-65" transform="translate(975.732422 0)"/>
     <use xlink:href="#DejaVuSans-6e" transform="translate(1037.255859 0)"/>
     <use xlink:href="#DejaVuSans-73" transform="translate(1100.634766 0)"/>
     <use xlink:href="#DejaVuSans-69" transform="translate(1152.734375 0)"/>
     <use xlink:href="#DejaVuSans-74" transform="translate(1180.517578 0)"/>
     <use xlink:href="#DejaVuSans-79" transform="translate(1219.726562 0)"/>
     <use xlink:href="#DejaVuSans-20" transform="translate(1278.90625 0)"/>
     <use xlink:href="#DejaVuSans-65" transform="translate(1310.693359 0)"/>
     <use xlink:href="#DejaVuSans-6c" transform="translate(1372.216797 0)"/>
     <use xlink:href="#DejaVuSans-6c" transform="translate(1400 0)"/>
     <use xlink:href="#DejaVuSans-69" transform="translate(1427.783203 0)"/>
     <use xlink:href="#DejaVuSans-70" transform="translate(1455.566406 0)"/>
     <use xlink:href="#DejaVuSans-73" transform="translate(1519.042969 0)"/>
     <use xlink:href="#DejaVuSans-65" transform="translate(1571.142578 0)"/>
     <use xlink:href="#DejaVuSans-73" transform="translate(1632.666016 0)"/>
    </g>
   </g>
   <g id="text_19">
    <!-- Multivariate Gaussian — effect of Σ on shape -->
    <g transform="translate(7.2 17.229937) scale(0.132 -0.132)">
     <defs>
      <path id="DejaVuSans-Bold-4d" d="M 588 4666 
L 2119 4666 
L 3181 2169 
L 4250 4666 
L 5778 4666 
L 5778 0 
L 4641 0 
L 4641 3413 
L 3566 897 
L 2803 897 
L 1728 3413 
L 1728 0 
L 588 0 
L 588 4666 
z
" transform="scale(0.015625)"/>
      <path id="DejaVuSans-Bold-75" d="M 500 1363 
L 500 3500 
L 1625 3500 
L 1625 3150 
Q 1625 2866 1622 2436 
Q 1619 2006 1619 1863 
Q 1619 1441 1641 1255 
Q 1663 1069 1716 984 
Q 1784 875 1895 815 
Q 2006 756 2150 756 
Q 2500 756 2700 1025 
Q 2900 1294 2900 1772 
L 2900 3500 
L 4019 3500 
L 4019 0 
L 2900 0 
L 2900 506 
Q 2647 200 2364 54 
Q 2081 -91 1741 -91 
Q 1134 -91 817 281 
Q 500 653 500 1363 
z
" transform="scale(0.015625)"/>
      <path id="DejaVuSans-Bold-6c" d="M 538 4863 
L 1656 4863 
L 1656 0 
L 538 0 
L 538 4863 
z
" transform="scale(0.015625)"/>
      <path id="DejaVuSans-Bold-74" d="M 1759 4494 
L 1759 3500 
L 2913 3500 
L 2913 2700 
L 1759 2700 
L 1759 1216 
Q 1759 972 1856 886 
Q 1953 800 2241 800 
L 2816 800 
L 2816 0 
L 1856 0 
Q 1194 0 917 276 
Q 641 553 641 1216 
L 641 2700 
L 84 2700 
L 84 3500 
L 641 3500 
L 641 4494 
L 1759 4494 
z
" transform="scale(0.015625)"/>
      <path id="DejaVuSans-Bold-69" d="M 538 3500 
L 1656 3500 
L 1656 0 
L 538 0 
L 538 3500 
z
M 538 4863 
L 1656 4863 
L 1656 3950 
L 538 3950 
L 538 4863 
z
" transform="scale(0.015625)"/>
      <path id="DejaVuSans-Bold-76" d="M 97 3500 
L 1216 3500 
L 2088 1081 
L 2956 3500 
L 4078 3500 
L 2700 0 
L 1472 0 
L 97 3500 
z
" transform="scale(0.015625)"/>
      <path id="DejaVuSans-Bold-61" d="M 2106 1575 
Q 1756 1575 1579 1456 
Q 1403 1338 1403 1106 
Q 1403 894 1545 773 
Q 1688 653 1941 653 
Q 2256 653 2472 879 
Q 2688 1106 2688 1447 
L 2688 1575 
L 2106 1575 
z
M 3816 1997 
L 3816 0 
L 2688 0 
L 2688 519 
Q 2463 200 2181 54 
Q 1900 -91 1497 -91 
Q 953 -91 614 226 
Q 275 544 275 1050 
Q 275 1666 698 1953 
Q 1122 2241 2028 2241 
L 2688 2241 
L 2688 2328 
Q 2688 2594 2478 2717 
Q 2269 2841 1825 2841 
Q 1466 2841 1156 2769 
Q 847 2697 581 2553 
L 581 3406 
Q 941 3494 1303 3539 
Q 1666 3584 2028 3584 
Q 2975 3584 3395 3211 
Q 3816 2838 3816 1997 
z
" transform="scale(0.015625)"/>
      <path id="DejaVuSans-Bold-72" d="M 3138 2547 
Q 2991 2616 2845 2648 
Q 2700 2681 2553 2681 
Q 2122 2681 1889 2404 
Q 1656 2128 1656 1613 
L 1656 0 
L 538 0 
L 538 3500 
L 1656 3500 
L 1656 2925 
Q 1872 3269 2151 3426 
Q 2431 3584 2822 3584 
Q 2878 3584 2943 3579 
Q 3009 3575 3134 3559 
L 3138 2547 
z
" transform="scale(0.015625)"/>
      <path id="DejaVuSans-Bold-65" d="M 4031 1759 
L 4031 1441 
L 1416 1441 
Q 1456 1047 1700 850 
Q 1944 653 2381 653 
Q 2734 653 3104 758 
Q 3475 863 3866 1075 
L 3866 213 
Q 3469 63 3072 -14 
Q 2675 -91 2278 -91 
Q 1328 -91 801 392 
Q 275 875 275 1747 
Q 275 2603 792 3093 
Q 1309 3584 2216 3584 
Q 3041 3584 3536 3087 
Q 4031 2591 4031 1759 
z
M 2881 2131 
Q 2881 2450 2695 2645 
Q 2509 2841 2209 2841 
Q 1884 2841 1681 2658 
Q 1478 2475 1428 2131 
L 2881 2131 
z
" transform="scale(0.015625)"/>
      <path id="DejaVuSans-Bold-20" transform="scale(0.015625)"/>
      <path id="DejaVuSans-Bold-47" d="M 4781 347 
Q 4331 128 3847 18 
Q 3363 -91 2847 -91 
Q 1681 -91 1000 561 
Q 319 1213 319 2328 
Q 319 3456 1012 4103 
Q 1706 4750 2913 4750 
Q 3378 4750 3804 4662 
Q 4231 4575 4609 4403 
L 4609 3438 
Q 4219 3659 3833 3768 
Q 3447 3878 3059 3878 
Q 2341 3878 1952 3476 
Q 1563 3075 1563 2328 
Q 1563 1588 1938 1184 
Q 2313 781 3003 781 
Q 3191 781 3352 804 
Q 3513 828 3641 878 
L 3641 1784 
L 2906 1784 
L 2906 2591 
L 4781 2591 
L 4781 347 
z
" transform="scale(0.015625)"/>
      <path id="DejaVuSans-Bold-73" d="M 3272 3391 
L 3272 2541 
Q 2913 2691 2578 2766 
Q 2244 2841 1947 2841 
Q 1628 2841 1473 2761 
Q 1319 2681 1319 2516 
Q 1319 2381 1436 2309 
Q 1553 2238 1856 2203 
L 2053 2175 
Q 2913 2066 3209 1816 
Q 3506 1566 3506 1031 
Q 3506 472 3093 190 
Q 2681 -91 1863 -91 
Q 1516 -91 1145 -36 
Q 775 19 384 128 
L 384 978 
Q 719 816 1070 734 
Q 1422 653 1784 653 
Q 2113 653 2278 743 
Q 2444 834 2444 1013 
Q 2444 1163 2330 1236 
Q 2216 1309 1875 1350 
L 1678 1375 
Q 931 1469 631 1722 
Q 331 1975 331 2491 
Q 331 3047 712 3315 
Q 1094 3584 1881 3584 
Q 2191 3584 2531 3537 
Q 2872 3491 3272 3391 
z
" transform="scale(0.015625)"/>
      <path id="DejaVuSans-Bold-6e" d="M 4056 2131 
L 4056 0 
L 2931 0 
L 2931 347 
L 2931 1631 
Q 2931 2084 2911 2256 
Q 2891 2428 2841 2509 
Q 2775 2619 2662 2680 
Q 2550 2741 2406 2741 
Q 2056 2741 1856 2470 
Q 1656 2200 1656 1722 
L 1656 0 
L 538 0 
L 538 3500 
L 1656 3500 
L 1656 2988 
Q 1909 3294 2193 3439 
Q 2478 3584 2822 3584 
Q 3428 3584 3742 3212 
Q 4056 2841 4056 2131 
z
" transform="scale(0.015625)"/>
      <path id="DejaVuSans-Bold-2014" d="M 344 2156 
L 6056 2156 
L 6056 1350 
L 344 1350 
L 344 2156 
z
" transform="scale(0.015625)"/>
      <path id="DejaVuSans-Bold-66" d="M 2841 4863 
L 2841 4128 
L 2222 4128 
Q 1984 4128 1890 4042 
Q 1797 3956 1797 3744 
L 1797 3500 
L 2753 3500 
L 2753 2700 
L 1797 2700 
L 1797 0 
L 678 0 
L 678 2700 
L 122 2700 
L 122 3500 
L 678 3500 
L 678 3744 
Q 678 4316 997 4589 
Q 1316 4863 1984 4863 
L 2841 4863 
z
" transform="scale(0.015625)"/>
      <path id="DejaVuSans-Bold-63" d="M 3366 3391 
L 3366 2478 
Q 3138 2634 2908 2709 
Q 2678 2784 2431 2784 
Q 1963 2784 1702 2511 
Q 1441 2238 1441 1747 
Q 1441 1256 1702 982 
Q 1963 709 2431 709 
Q 2694 709 2930 787 
Q 3166 866 3366 1019 
L 3366 103 
Q 3103 6 2833 -42 
Q 2563 -91 2291 -91 
Q 1344 -91 809 395 
Q 275 881 275 1747 
Q 275 2613 809 3098 
Q 1344 3584 2291 3584 
Q 2566 3584 2833 3536 
Q 3100 3488 3366 3391 
z
" transform="scale(0.015625)"/>
      <path id="DejaVuSans-Bold-6f" d="M 2203 2784 
Q 1831 2784 1636 2517 
Q 1441 2250 1441 1747 
Q 1441 1244 1636 976 
Q 1831 709 2203 709 
Q 2569 709 2762 976 
Q 2956 1244 2956 1747 
Q 2956 2250 2762 2517 
Q 2569 2784 2203 2784 
z
M 2203 3584 
Q 3106 3584 3614 3096 
Q 4122 2609 4122 1747 
Q 4122 884 3614 396 
Q 3106 -91 2203 -91 
Q 1297 -91 786 396 
Q 275 884 275 1747 
Q 275 2609 786 3096 
Q 1297 3584 2203 3584 
z
" transform="scale(0.015625)"/>
      <path id="DejaVuSans-Bold-3a3" d="M 1684 909 
L 3903 909 
L 3903 0 
L 588 0 
L 588 1003 
L 2075 2481 
L 588 3703 
L 588 4666 
L 3834 4666 
L 3834 3756 
L 1738 3756 
L 3278 2494 
L 1684 909 
z
" transform="scale(0.015625)"/>
      <path id="DejaVuSans-Bold-68" d="M 4056 2131 
L 4056 0 
L 2931 0 
L 2931 347 
L 2931 1625 
Q 2931 2084 2911 2256 
Q 2891 2428 2841 2509 
Q 2775 2619 2662 2680 
Q 2550 2741 2406 2741 
Q 2056 2741 1856 2470 
Q 1656 2200 1656 1722 
L 1656 0 
L 538 0 
L 538 4863 
L 1656 4863 
L 1656 2988 
Q 1909 3294 2193 3439 
Q 2478 3584 2822 3584 
Q 3428 3584 3742 3212 
Q 4056 2841 4056 2131 
z
" transform="scale(0.015625)"/>
      <path id="DejaVuSans-Bold-70" d="M 1656 506 
L 1656 -1331 
L 538 -1331 
L 538 3500 
L 1656 3500 
L 1656 2988 
Q 1888 3294 2169 3439 
Q 2450 3584 2816 3584 
Q 3463 3584 3878 3070 
Q 4294 2556 4294 1747 
Q 4294 938 3878 423 
Q 3463 -91 2816 -91 
Q 2450 -91 2169 54 
Q 1888 200 1656 506 
z
M 2400 2772 
Q 2041 2772 1848 2508 
Q 1656 2244 1656 1747 
Q 1656 1250 1848 986 
Q 2041 722 2400 722 
Q 2759 722 2948 984 
Q 3138 1247 3138 1747 
Q 3138 2247 2948 2509 
Q 2759 2772 2400 2772 
z
" transform="scale(0.015625)"/>
     </defs>
     <use xlink:href="#DejaVuSans-Bold-4d"/>
     <use xlink:href="#DejaVuSans-Bold-75" transform="translate(99.511719 0)"/>
     <use xlink:href="#DejaVuSans-Bold-6c" transform="translate(170.703125 0)"/>
     <use xlink:href="#DejaVuSans-Bold-74" transform="translate(204.980469 0)"/>
     <use xlink:href="#DejaVuSans-Bold-69" transform="translate(252.783203 0)"/>
     <use xlink:href="#DejaVuSans-Bold-76" transform="translate(287.060547 0)"/>
     <use xlink:href="#DejaVuSans-Bold-61" transform="translate(352.246094 0)"/>
     <use xlink:href="#DejaVuSans-Bold-72" transform="translate(419.726562 0)"/>
     <use xlink:href="#DejaVuSans-Bold-69" transform="translate(469.042969 0)"/>
     <use xlink:href="#DejaVuSans-Bold-61" transform="translate(503.320312 0)"/>
     <use xlink:href="#DejaVuSans-Bold-74" transform="translate(570.800781 0)"/>
     <use xlink:href="#DejaVuSans-Bold-65" transform="translate(618.603516 0)"/>
     <use xlink:href="#DejaVuSans-Bold-20" transform="translate(686.425781 0)"/>
     <use xlink:href="#DejaVuSans-Bold-47" transform="translate(721.240234 0)"/>
     <use xlink:href="#DejaVuSans-Bold-61" transform="translate(803.320312 0)"/>
     <use xlink:href="#DejaVuSans-Bold-75" transform="translate(870.800781 0)"/>
     <use xlink:href="#DejaVuSans-Bold-73" transform="translate(941.992188 0)"/>
     <use xlink:href="#DejaVuSans-Bold-73" transform="translate(1001.513672 0)"/>
     <use xlink:href="#DejaVuSans-Bold-69" transform="translate(1061.035156 0)"/>
     <use xlink:href="#DejaVuSans-Bold-61" transform="translate(1095.3125 0)"/>
     <use xlink:href="#DejaVuSans-Bold-6e" transform="translate(1162.792969 0)"/>
     <use xlink:href="#DejaVuSans-Bold-20" transform="translate(1233.984375 0)"/>
     <use xlink:href="#DejaVuSans-Bold-2014" transform="translate(1268.798828 0)"/>
     <use xlink:href="#DejaVuSans-Bold-20" transform="translate(1368.798828 0)"/>
     <use xlink:href="#DejaVuSans-Bold-65" transform="translate(1403.613281 0)"/>
     <use xlink:href="#DejaVuSans-Bold-66" transform="translate(1471.435547 0)"/>
     <use xlink:href="#DejaVuSans-Bold-66" transform="translate(1514.941406 0)"/>
     <use xlink:href="#DejaVuSans-Bold-65" transform="translate(1558.447266 0)"/>
     <use xlink:href="#DejaVuSans-Bold-63" transform="translate(1626.269531 0)"/>
     <use xlink:href="#DejaVuSans-Bold-74" transform="translate(1685.546875 0)"/>
     <use xlink:href="#DejaVuSans-Bold-20" transform="translate(1733.349609 0)"/>
     <use xlink:href="#DejaVuSans-Bold-6f" transform="translate(1768.164062 0)"/>
     <use xlink:href="#DejaVuSans-Bold-66" transform="translate(1836.865234 0)"/>
     <use xlink:href="#DejaVuSans-Bold-20" transform="translate(1880.371094 0)"/>
     <use xlink:href="#DejaVuSans-Bold-3a3" transform="translate(1915.185547 0)"/>
     <use xlink:href="#DejaVuSans-Bold-20" transform="translate(1983.496094 0)"/>
     <use xlink:href="#DejaVuSans-Bold-6f" transform="translate(2018.310547 0)"/>
     <use xlink:href="#DejaVuSans-Bold-6e" transform="translate(2087.011719 0)"/>
     <use xlink:href="#DejaVuSans-Bold-20" transform="translate(2158.203125 0)"/>
     <use xlink:href="#DejaVuSans-Bold-73" transform="translate(2193.017578 0)"/>
     <use xlink:href="#DejaVuSans-Bold-68" transform="translate(2252.539062 0)"/>
     <use xlink:href="#DejaVuSans-Bold-61" transform="translate(2323.730469 0)"/>
     <use xlink:href="#DejaVuSans-Bold-70" transform="translate(2391.210938 0)"/>
     <use xlink:href="#DejaVuSans-Bold-65" transform="translate(2462.792969 0)"/>
    </g>
   </g>
   <g id="legend_1">
    <g id="patch_6">
     <path d="M 55.779188 78.060875 
L 181.900125 78.060875 
Q 183.700125 78.060875 183.700125 76.260875 
L 183.700125 37.529937 
Q 183.700125 35.729937 181.900125 35.729937 
L 55.779188 35.729937 
Q 53.979188 35.729937 53.979188 37.529937 
L 53.979188 76.260875 
Q 53.979188 78.060875 55.779188 78.060875 
z
" style="fill: #ffffff; opacity: 0.9; stroke: #cccccc; stroke-linejoin: miter"/>
    </g>
    <g id="line2d_16">
     <path d="M 57.579188 43.018531 
L 66.579188 43.018531 
L 75.579188 43.018531 
" style="fill: none; stroke: #4c72b0; stroke-width: 2; stroke-linecap: square"/>
    </g>
    <g id="text_20">
     <!-- Σ = I (spherical) -->
     <g transform="translate(82.779188 46.168531) scale(0.09 -0.09)">
      <defs>
       <path id="DejaVuSans-49" d="M 628 4666 
L 1259 4666 
L 1259 0 
L 628 0 
L 628 4666 
z
" transform="scale(0.015625)"/>
       <path id="DejaVuSans-28" d="M 1984 4856 
Q 1566 4138 1362 3434 
Q 1159 2731 1159 2009 
Q 1159 1288 1364 580 
Q 1569 -128 1984 -844 
L 1484 -844 
Q 1016 -109 783 600 
Q 550 1309 550 2009 
Q 550 2706 781 3412 
Q 1013 4119 1484 4856 
L 1984 4856 
z
" transform="scale(0.015625)"/>
       <path id="DejaVuSans-68" d="M 3513 2113 
L 3513 0 
L 2938 0 
L 2938 2094 
Q 2938 2591 2744 2837 
Q 2550 3084 2163 3084 
Q 1697 3084 1428 2787 
Q 1159 2491 1159 1978 
L 1159 0 
L 581 0 
L 581 4863 
L 1159 4863 
L 1159 2956 
Q 1366 3272 1645 3428 
Q 1925 3584 2291 3584 
Q 2894 3584 3203 3211 
Q 3513 2838 3513 2113 
z
" transform="scale(0.015625)"/>
       <path id="DejaVuSans-29" d="M 513 4856 
L 1013 4856 
Q 1481 4119 1714 3412 
Q 1947 2706 1947 2009 
Q 1947 1309 1714 600 
Q 1481 -109 1013 -844 
L 513 -844 
Q 928 -128 1133 580 
Q 1338 1288 1338 2009 
Q 1338 2731 1133 3434 
Q 928 4138 513 4856 
z
" transform="scale(0.015625)"/>
      </defs>
      <use xlink:href="#DejaVuSans-3a3"/>
      <use xlink:href="#DejaVuSans-20" transform="translate(63.183594 0)"/>
      <use xlink:href="#DejaVuSans-3d" transform="translate(94.970703 0)"/>
      <use xlink:href="#DejaVuSans-20" transform="translate(178.759766 0)"/>
      <use xlink:href="#DejaVuSans-49" transform="translate(210.546875 0)"/>
      <use xlink:href="#DejaVuSans-20" transform="translate(240.039062 0)"/>
      <use xlink:href="#DejaVuSans-28" transform="translate(271.826172 0)"/>
      <use xlink:href="#DejaVuSans-73" transform="translate(310.839844 0)"/>
      <use xlink:href="#DejaVuSans-70" transform="translate(362.939453 0)"/>
      <use xlink:href="#DejaVuSans-68" transform="translate(426.416016 0)"/>
      <use xlink:href="#DejaVuSans-65" transform="translate(489.794922 0)"/>
      <use xlink:href="#DejaVuSans-72" transform="translate(551.318359 0)"/>
      <use xlink:href="#DejaVuSans-69" transform="translate(592.431641 0)"/>
      <use xlink:href="#DejaVuSans-63" transform="translate(620.214844 0)"/>
      <use xlink:href="#DejaVuSans-61" transform="translate(675.195312 0)"/>
      <use xlink:href="#DejaVuSans-6c" transform="translate(736.474609 0)"/>
      <use xlink:href="#DejaVuSans-29" transform="translate(764.257812 0)"/>
     </g>
    </g>
    <g id="line2d_17">
     <path d="M 57.579188 56.228844 
L 66.579188 56.228844 
L 75.579188 56.228844 
" style="fill: none; stroke: #e74c3c; stroke-width: 2; stroke-linecap: square"/>
    </g>
    <g id="text_21">
     <!-- Σ stretched + rotated -->
     <g transform="translate(82.779188 59.378844) scale(0.09 -0.09)">
      <use xlink:href="#DejaVuSans-3a3"/>
      <use xlink:href="#DejaVuSans-20" transform="translate(63.183594 0)"/>
      <use xlink:href="#DejaVuSans-73" transform="translate(94.970703 0)"/>
      <use xlink:href="#DejaVuSans-74" transform="translate(147.070312 0)"/>
      <use xlink:href="#DejaVuSans-72" transform="translate(186.279297 0)"/>
      <use xlink:href="#DejaVuSans-65" transform="translate(225.142578 0)"/>
      <use xlink:href="#DejaVuSans-74" transform="translate(286.666016 0)"/>
      <use xlink:href="#DejaVuSans-63" transform="translate(325.875 0)"/>
      <use xlink:href="#DejaVuSans-68" transform="translate(380.855469 0)"/>
      <use xlink:href="#DejaVuSans-65" transform="translate(444.234375 0)"/>
      <use xlink:href="#DejaVuSans-64" transform="translate(505.757812 0)"/>
      <use xlink:href="#DejaVuSans-20" transform="translate(569.234375 0)"/>
      <use xlink:href="#DejaVuSans-2b" transform="translate(601.021484 0)"/>
      <use xlink:href="#DejaVuSans-20" transform="translate(684.810547 0)"/>
      <use xlink:href="#DejaVuSans-72" transform="translate(716.597656 0)"/>
      <use xlink:href="#DejaVuSans-6f" transform="translate(755.460938 0)"/>
      <use xlink:href="#DejaVuSans-74" transform="translate(816.642578 0)"/>
      <use xlink:href="#DejaVuSans-61" transform="translate(855.851562 0)"/>
      <use xlink:href="#DejaVuSans-74" transform="translate(917.130859 0)"/>
      <use xlink:href="#DejaVuSans-65" transform="translate(956.339844 0)"/>
      <use xlink:href="#DejaVuSans-64" transform="translate(1017.863281 0)"/>
     </g>
    </g>
    <g id="line2d_18">
     <path d="M 57.579188 69.439156 
L 66.579188 69.439156 
L 75.579188 69.439156 
" style="fill: none; stroke: #2ecc71; stroke-width: 2; stroke-linecap: square"/>
    </g>
    <g id="text_22">
     <!-- Σ compact, neg. corr. -->
     <g transform="translate(82.779188 72.589156) scale(0.09 -0.09)">
      <defs>
       <path id="DejaVuSans-6d" d="M 3328 2828 
Q 3544 3216 3844 3400 
Q 4144 3584 4550 3584 
Q 5097 3584 5394 3201 
Q 5691 2819 5691 2113 
L 5691 0 
L 5113 0 
L 5113 2094 
Q 5113 2597 4934 2840 
Q 4756 3084 4391 3084 
Q 3944 3084 3684 2787 
Q 3425 2491 3425 1978 
L 3425 0 
L 2847 0 
L 2847 2094 
Q 2847 2600 2669 2842 
Q 2491 3084 2119 3084 
Q 1678 3084 1418 2786 
Q 1159 2488 1159 1978 
L 1159 0 
L 581 0 
L 581 3500 
L 1159 3500 
L 1159 2956 
Q 1356 3278 1631 3431 
Q 1906 3584 2284 3584 
Q 2666 3584 2933 3390 
Q 3200 3197 3328 2828 
z
" transform="scale(0.015625)"/>
       <path id="DejaVuSans-2c" d="M 750 794 
L 1409 794 
L 1409 256 
L 897 -744 
L 494 -744 
L 750 256 
L 750 794 
z
" transform="scale(0.015625)"/>
       <path id="DejaVuSans-67" d="M 2906 1791 
Q 2906 2416 2648 2759 
Q 2391 3103 1925 3103 
Q 1463 3103 1205 2759 
Q 947 2416 947 1791 
Q 947 1169 1205 825 
Q 1463 481 1925 481 
Q 2391 481 2648 825 
Q 2906 1169 2906 1791 
z
M 3481 434 
Q 3481 -459 3084 -895 
Q 2688 -1331 1869 -1331 
Q 1566 -1331 1297 -1286 
Q 1028 -1241 775 -1147 
L 775 -588 
Q 1028 -725 1275 -790 
Q 1522 -856 1778 -856 
Q 2344 -856 2625 -561 
Q 2906 -266 2906 331 
L 2906 616 
Q 2728 306 2450 153 
Q 2172 0 1784 0 
Q 1141 0 747 490 
Q 353 981 353 1791 
Q 353 2603 747 3093 
Q 1141 3584 1784 3584 
Q 2172 3584 2450 3431 
Q 2728 3278 2906 2969 
L 2906 3500 
L 3481 3500 
L 3481 434 
z
" transform="scale(0.015625)"/>
       <path id="DejaVuSans-2e" d="M 684 794 
L 1344 794 
L 1344 0 
L 684 0 
L 684 794 
z
" transform="scale(0.015625)"/>
      </defs>
      <use xlink:href="#DejaVuSans-3a3"/>
      <use xlink:href="#DejaVuSans-20" transform="translate(63.183594 0)"/>
      <use xlink:href="#DejaVuSans-63" transform="translate(94.970703 0)"/>
      <use xlink:href="#DejaVuSans-6f" transform="translate(149.951172 0)"/>
      <use xlink:href="#DejaVuSans-6d" transform="translate(211.132812 0)"/>
      <use xlink:href="#DejaVuSans-70" transform="translate(308.544922 0)"/>
      <use xlink:href="#DejaVuSans-61" transform="translate(372.021484 0)"/>
      <use xlink:href="#DejaVuSans-63" transform="translate(433.300781 0)"/>
      <use xlink:href="#DejaVuSans-74" transform="translate(488.28125 0)"/>
      <use xlink:href="#DejaVuSans-2c" transform="translate(527.490234 0)"/>
      <use xlink:href="#DejaVuSans-20" transform="translate(559.277344 0)"/>
      <use xlink:href="#DejaVuSans-6e" transform="translate(591.064453 0)"/>
      <use xlink:href="#DejaVuSans-65" transform="translate(654.443359 0)"/>
      <use xlink:href="#DejaVuSans-67" transform="translate(715.966797 0)"/>
      <use xlink:href="#DejaVuSans-2e" transform="translate(779.443359 0)"/>
      <use xlink:href="#DejaVuSans-20" transform="translate(811.230469 0)"/>
      <use xlink:href="#DejaVuSans-63" transform="translate(843.017578 0)"/>
      <use xlink:href="#DejaVuSans-6f" transform="translate(897.998047 0)"/>
      <use xlink:href="#DejaVuSans-72" transform="translate(959.179688 0)"/>
      <use xlink:href="#DejaVuSans-72" transform="translate(998.542969 0)"/>
      <use xlink:href="#DejaVuSans-2e" transform="translate(1030.53125 0)"/>
     </g>
    </g>
   </g>
  </g>
 </g>
 <defs>
  <clipPath id="p4b3776dc9c">
   <rect x="49.479188" y="31.229937" width="249.48" height="249.48"/>
  </clipPath>
 </defs>
</svg>
