<?xml version="1.0" encoding="utf-8" standalone="no"?>
<!DOCTYPE svg PUBLIC "-//W3C//DTD SVG 1.1//EN"
  "http://www.w3.org/Graphics/SVG/1.1/DTD/svg11.dtd">
<svg xmlns:xlink="http://www.w3.org/1999/xlink" width="926.64pt" height="422.957344pt" viewBox="0 0 926.64 422.957344" xmlns="http://www.w3.org/2000/svg" version="1.1">
 <metadata>
  <rdf:RDF xmlns:dc="http://purl.org/dc/elements/1.1/" xmlns:cc="http://creativecommons.org/ns#" xmlns:rdf="http://www.w3.org/1999/02/22-rdf-syntax-ns#">
   <cc:Work>
    <dc:type rdf:resource="http://purl.org/dc/dcmitype/StillImage"/>
    <dc:date>2026-03-20T01:55:32.365505</dc:date>
    <dc:format>image/svg+xml</dc:format>
    <dc:creator>
     <cc:Agent>
      <dc:title>Matplotlib v3.9.0, https://matplotlib.org/</dc:title>
     </cc:Agent>
    </dc:creator>
   </cc:Work>
  </rdf:RDF>
 </metadata>
 <defs>
  <style type="text/css">*{stroke-linejoin: round; stroke-linecap: butt}</style>
 </defs>
 <g id="figure_1">
  <g id="patch_1">
   <path d="M 0 422.957344 
L 926.64 422.957344 
L 926.64 0 
L 0 0 
z
" style="fill: #ffffff"/>
  </g>
  <g id="axes_1">
   <g id="patch_2">
    <path d="M 80.1792 355.014944 
L 390.3408 355.014944 
Q 408.5856 355.014944 408.5856 347.422144 
L 408.5856 104.452544 
Q 408.5856 96.859744 390.3408 96.859744 
L 80.1792 96.859744 
Q 61.9344 96.859744 61.9344 104.452544 
L 61.9344 347.422144 
Q 61.9344 355.014944 80.1792 355.014944 
z
" clip-path="url(#pfb8e5c88f0)" style="fill: #dbeafe; stroke: #2563eb; stroke-width: 1.6; stroke-linejoin: miter"/>
   </g>
   <g id="patch_3">
    <path d="M 536.2992 355.014944 
L 846.4608 355.014944 
Q 864.7056 355.014944 864.7056 347.422144 
L 864.7056 104.452544 
Q 864.7056 96.859744 846.4608 96.859744 
L 536.2992 96.859744 
Q 518.0544 96.859744 518.0544 104.452544 
L 518.0544 347.422144 
Q 518.0544 355.014944 536.2992 355.014944 
z
" clip-path="url(#pfb8e5c88f0)" style="fill: #ecfdf5; stroke: #22c55e; stroke-width: 1.6; stroke-linejoin: miter"/>
   </g>
   <g id="text_1">
    <!-- ETL -->
    <g style="fill: #0f172a" transform="translate(98.424 128.756269) scale(0.12 -0.12)">
     <defs>
      <path id="DejaVuSans-Bold-45" d="M 588 4666 
L 3834 4666 
L 3834 3756 
L 1791 3756 
L 1791 2888 
L 3713 2888 
L 3713 1978 
L 1791 1978 
L 1791 909 
L 3903 909 
L 3903 0 
L 588 0 
L 588 4666 
z
" transform="scale(0.015625)"/>
      <path id="DejaVuSans-Bold-54" d="M 31 4666 
L 4331 4666 
L 4331 3756 
L 2784 3756 
L 2784 0 
L 1581 0 
L 1581 3756 
L 31 3756 
L 31 4666 
z
" transform="scale(0.015625)"/>
      <path id="DejaVuSans-Bold-4c" d="M 588 4666 
L 1791 4666 
L 1791 909 
L 3903 909 
L 3903 0 
L 588 0 
L 588 4666 
z
" transform="scale(0.015625)"/>
     </defs>
     <use xlink:href="#DejaVuSans-Bold-45"/>
     <use xlink:href="#DejaVuSans-Bold-54" x="68.310547"/>
     <use xlink:href="#DejaVuSans-Bold-4c" x="136.523438"/>
    </g>
   </g>
   <g id="text_2">
    <!-- 1. Extract from source -->
    <g style="fill: #334155" transform="translate(98.424 157.987703) scale(0.105 -0.105)">
     <defs>
      <path id="DejaVuSans-31" d="M 794 531 
L 1825 531 
L 1825 4091 
L 703 3866 
L 703 4441 
L 1819 4666 
L 2450 4666 
L 2450 531 
L 3481 531 
L 3481 0 
L 794 0 
L 794 531 
z
" transform="scale(0.015625)"/>
      <path id="DejaVuSans-2e" d="M 684 794 
L 1344 794 
L 1344 0 
L 684 0 
L 684 794 
z
" transform="scale(0.015625)"/>
      <path id="DejaVuSans-20" transform="scale(0.015625)"/>
      <path id="DejaVuSans-45" d="M 628 4666 
L 3578 4666 
L 3578 4134 
L 1259 4134 
L 1259 2753 
L 3481 2753 
L 3481 2222 
L 1259 2222 
L 1259 531 
L 3634 531 
L 3634 0 
L 628 0 
L 628 4666 
z
" transform="scale(0.015625)"/>
      <path id="DejaVuSans-78" d="M 3513 3500 
L 2247 1797 
L 3578 0 
L 2900 0 
L 1881 1375 
L 863 0 
L 184 0 
L 1544 1831 
L 300 3500 
L 978 3500 
L 1906 2253 
L 2834 3500 
L 3513 3500 
z
" transform="scale(0.015625)"/>
      <path id="DejaVuSans-74" d="M 1172 4494 
L 1172 3500 
L 2356 3500 
L 2356 3053 
L 1172 3053 
L 1172 1153 
Q 1172 725 1289 603 
Q 1406 481 1766 481 
L 2356 481 
L 2356 0 
L 1766 0 
Q 1100 0 847 248 
Q 594 497 594 1153 
L 594 3053 
L 172 3053 
L 172 3500 
L 594 3500 
L 594 4494 
L 1172 4494 
z
" transform="scale(0.015625)"/>
      <path id="DejaVuSans-72" d="M 2631 2963 
Q 2534 3019 2420 3045 
Q 2306 3072 2169 3072 
Q 1681 3072 1420 2755 
Q 1159 2438 1159 1844 
L 1159 0 
L 581 0 
L 581 3500 
L 1159 3500 
L 1159 2956 
Q 1341 3275 1631 3429 
Q 1922 3584 2338 3584 
Q 2397 3584 2469 3576 
Q 2541 3569 2628 3553 
L 2631 2963 
z
" transform="scale(0.015625)"/>
      <path id="DejaVuSans-61" d="M 2194 1759 
Q 1497 1759 1228 1600 
Q 959 1441 959 1056 
Q 959 750 1161 570 
Q 1363 391 1709 391 
Q 2188 391 2477 730 
Q 2766 1069 2766 1631 
L 2766 1759 
L 2194 1759 
z
M 3341 1997 
L 3341 0 
L 2766 0 
L 2766 531 
Q 2569 213 2275 61 
Q 1981 -91 1556 -91 
Q 1019 -91 701 211 
Q 384 513 384 1019 
Q 384 1609 779 1909 
Q 1175 2209 1959 2209 
L 2766 2209 
L 2766 2266 
Q 2766 2663 2505 2880 
Q 2244 3097 1772 3097 
Q 1472 3097 1187 3025 
Q 903 2953 641 2809 
L 641 3341 
Q 956 3463 1253 3523 
Q 1550 3584 1831 3584 
Q 2591 3584 2966 3190 
Q 3341 2797 3341 1997 
z
" transform="scale(0.015625)"/>
      <path id="DejaVuSans-63" d="M 3122 3366 
L 3122 2828 
Q 2878 2963 2633 3030 
Q 2388 3097 2138 3097 
Q 1578 3097 1268 2742 
Q 959 2388 959 1747 
Q 959 1106 1268 751 
Q 1578 397 2138 397 
Q 2388 397 2633 464 
Q 2878 531 3122 666 
L 3122 134 
Q 2881 22 2623 -34 
Q 2366 -91 2075 -91 
Q 1284 -91 818 406 
Q 353 903 353 1747 
Q 353 2603 823 3093 
Q 1294 3584 2113 3584 
Q 2378 3584 2631 3529 
Q 2884 3475 3122 3366 
z
" transform="scale(0.015625)"/>
      <path id="DejaVuSans-66" d="M 2375 4863 
L 2375 4384 
L 1825 4384 
Q 1516 4384 1395 4259 
Q 1275 4134 1275 3809 
L 1275 3500 
L 2222 3500 
L 2222 3053 
L 1275 3053 
L 1275 0 
L 697 0 
L 697 3053 
L 147 3053 
L 147 3500 
L 697 3500 
L 697 3744 
Q 697 4328 969 4595 
Q 1241 4863 1831 4863 
L 2375 4863 
z
" transform="scale(0.015625)"/>
      <path id="DejaVuSans-6f" d="M 1959 3097 
Q 1497 3097 1228 2736 
Q 959 2375 959 1747 
Q 959 1119 1226 758 
Q 1494 397 1959 397 
Q 2419 397 2687 759 
Q 2956 1122 2956 1747 
Q 2956 2369 2687 2733 
Q 2419 3097 1959 3097 
z
M 1959 3584 
Q 2709 3584 3137 3096 
Q 3566 2609 3566 1747 
Q 3566 888 3137 398 
Q 2709 -91 1959 -91 
Q 1206 -91 779 398 
Q 353 888 353 1747 
Q 353 2609 779 3096 
Q 1206 3584 1959 3584 
z
" transform="scale(0.015625)"/>
      <path id="DejaVuSans-6d" d="M 3328 2828 
Q 3544 3216 3844 3400 
Q 4144 3584 4550 3584 
Q 5097 3584 5394 3201 
Q 5691 2819 5691 2113 
L 5691 0 
L 5113 0 
L 5113 2094 
Q 5113 2597 4934 2840 
Q 4756 3084 4391 3084 
Q 3944 3084 3684 2787 
Q 3425 2491 3425 1978 
L 3425 0 
L 2847 0 
L 2847 2094 
Q 2847 2600 2669 2842 
Q 2491 3084 2119 3084 
Q 1678 3084 1418 2786 
Q 1159 2488 1159 1978 
L 1159 0 
L 581 0 
L 581 3500 
L 1159 3500 
L 1159 2956 
Q 1356 3278 1631 3431 
Q 1906 3584 2284 3584 
Q 2666 3584 2933 3390 
Q 3200 3197 3328 2828 
z
" transform="scale(0.015625)"/>
      <path id="DejaVuSans-73" d="M 2834 3397 
L 2834 2853 
Q 2591 2978 2328 3040 
Q 2066 3103 1784 3103 
Q 1356 3103 1142 2972 
Q 928 2841 928 2578 
Q 928 2378 1081 2264 
Q 1234 2150 1697 2047 
L 1894 2003 
Q 2506 1872 2764 1633 
Q 3022 1394 3022 966 
Q 3022 478 2636 193 
Q 2250 -91 1575 -91 
Q 1294 -91 989 -36 
Q 684 19 347 128 
L 347 722 
Q 666 556 975 473 
Q 1284 391 1588 391 
Q 1994 391 2212 530 
Q 2431 669 2431 922 
Q 2431 1156 2273 1281 
Q 2116 1406 1581 1522 
L 1381 1569 
Q 847 1681 609 1914 
Q 372 2147 372 2553 
Q 372 3047 722 3315 
Q 1072 3584 1716 3584 
Q 2034 3584 2315 3537 
Q 2597 3491 2834 3397 
z
" transform="scale(0.015625)"/>
      <path id="DejaVuSans-75" d="M 544 1381 
L 544 3500 
L 1119 3500 
L 1119 1403 
Q 1119 906 1312 657 
Q 1506 409 1894 409 
Q 2359 409 2629 706 
Q 2900 1003 2900 1516 
L 2900 3500 
L 3475 3500 
L 3475 0 
L 2900 0 
L 2900 538 
Q 2691 219 2414 64 
Q 2138 -91 1772 -91 
Q 1169 -91 856 284 
Q 544 659 544 1381 
z
M 1991 3584 
L 1991 3584 
z
" transform="scale(0.015625)"/>
      <path id="DejaVuSans-65" d="M 3597 1894 
L 3597 1613 
L 953 1613 
Q 991 1019 1311 708 
Q 1631 397 2203 397 
Q 2534 397 2845 478 
Q 3156 559 3463 722 
L 3463 178 
Q 3153 47 2828 -22 
Q 2503 -91 2169 -91 
Q 1331 -91 842 396 
Q 353 884 353 1716 
Q 353 2575 817 3079 
Q 1281 3584 2069 3584 
Q 2775 3584 3186 3129 
Q 3597 2675 3597 1894 
z
M 3022 2063 
Q 3016 2534 2758 2815 
Q 2500 3097 2075 3097 
Q 1594 3097 1305 2825 
Q 1016 2553 972 2059 
L 3022 2063 
z
" transform="scale(0.015625)"/>
     </defs>
     <use xlink:href="#DejaVuSans-31"/>
     <use xlink:href="#DejaVuSans-2e" x="63.623047"/>
     <use xlink:href="#DejaVuSans-20" x="95.410156"/>
     <use xlink:href="#DejaVuSans-45" x="127.197266"/>
     <use xlink:href="#DejaVuSans-78" x="190.380859"/>
     <use xlink:href="#DejaVuSans-74" x="249.560547"/>
     <use xlink:href="#DejaVuSans-72" x="288.769531"/>
     <use xlink:href="#DejaVuSans-61" x="329.882812"/>
     <use xlink:href="#DejaVuSans-63" x="391.162109"/>
     <use xlink:href="#DejaVuSans-74" x="446.142578"/>
     <use xlink:href="#DejaVuSans-20" x="485.351562"/>
     <use xlink:href="#DejaVuSans-66" x="517.138672"/>
     <use xlink:href="#DejaVuSans-72" x="552.34375"/>
     <use xlink:href="#DejaVuSans-6f" x="591.207031"/>
     <use xlink:href="#DejaVuSans-6d" x="652.388672"/>
     <use xlink:href="#DejaVuSans-20" x="749.800781"/>
     <use xlink:href="#DejaVuSans-73" x="781.587891"/>
     <use xlink:href="#DejaVuSans-6f" x="833.6875"/>
     <use xlink:href="#DejaVuSans-75" x="894.869141"/>
     <use xlink:href="#DejaVuSans-72" x="958.248047"/>
     <use xlink:href="#DejaVuSans-63" x="997.111328"/>
     <use xlink:href="#DejaVuSans-65" x="1052.091797"/>
    </g>
    <!-- 2. Transform before load -->
    <g style="fill: #334155" transform="translate(98.424 169.745406) scale(0.105 -0.105)">
     <defs>
      <path id="DejaVuSans-32" d="M 1228 531 
L 3431 531 
L 3431 0 
L 469 0 
L 469 531 
Q 828 903 1448 1529 
Q 2069 2156 2228 2338 
Q 2531 2678 2651 2914 
Q 2772 3150 2772 3378 
Q 2772 3750 2511 3984 
Q 2250 4219 1831 4219 
Q 1534 4219 1204 4116 
Q 875 4013 500 3803 
L 500 4441 
Q 881 4594 1212 4672 
Q 1544 4750 1819 4750 
Q 2544 4750 2975 4387 
Q 3406 4025 3406 3419 
Q 3406 3131 3298 2873 
Q 3191 2616 2906 2266 
Q 2828 2175 2409 1742 
Q 1991 1309 1228 531 
z
" transform="scale(0.015625)"/>
      <path id="DejaVuSans-54" d="M -19 4666 
L 3928 4666 
L 3928 4134 
L 2272 4134 
L 2272 0 
L 1638 0 
L 1638 4134 
L -19 4134 
L -19 4666 
z
" transform="scale(0.015625)"/>
      <path id="DejaVuSans-6e" d="M 3513 2113 
L 3513 0 
L 2938 0 
L 2938 2094 
Q 2938 2591 2744 2837 
Q 2550 3084 2163 3084 
Q 1697 3084 1428 2787 
Q 1159 2491 1159 1978 
L 1159 0 
L 581 0 
L 581 3500 
L 1159 3500 
L 1159 2956 
Q 1366 3272 1645 3428 
Q 1925 3584 2291 3584 
Q 2894 3584 3203 3211 
Q 3513 2838 3513 2113 
z
" transform="scale(0.015625)"/>
      <path id="DejaVuSans-62" d="M 3116 1747 
Q 3116 2381 2855 2742 
Q 2594 3103 2138 3103 
Q 1681 3103 1420 2742 
Q 1159 2381 1159 1747 
Q 1159 1113 1420 752 
Q 1681 391 2138 391 
Q 2594 391 2855 752 
Q 3116 1113 3116 1747 
z
M 1159 2969 
Q 1341 3281 1617 3432 
Q 1894 3584 2278 3584 
Q 2916 3584 3314 3078 
Q 3713 2572 3713 1747 
Q 3713 922 3314 415 
Q 2916 -91 2278 -91 
Q 1894 -91 1617 61 
Q 1341 213 1159 525 
L 1159 0 
L 581 0 
L 581 4863 
L 1159 4863 
L 1159 2969 
z
" transform="scale(0.015625)"/>
      <path id="DejaVuSans-6c" d="M 603 4863 
L 1178 4863 
L 1178 0 
L 603 0 
L 603 4863 
z
" transform="scale(0.015625)"/>
      <path id="DejaVuSans-64" d="M 2906 2969 
L 2906 4863 
L 3481 4863 
L 3481 0 
L 2906 0 
L 2906 525 
Q 2725 213 2448 61 
Q 2172 -91 1784 -91 
Q 1150 -91 751 415 
Q 353 922 353 1747 
Q 353 2572 751 3078 
Q 1150 3584 1784 3584 
Q 2172 3584 2448 3432 
Q 2725 3281 2906 2969 
z
M 947 1747 
Q 947 1113 1208 752 
Q 1469 391 1925 391 
Q 2381 391 2643 752 
Q 2906 1113 2906 1747 
Q 2906 2381 2643 2742 
Q 2381 3103 1925 3103 
Q 1469 3103 1208 2742 
Q 947 2381 947 1747 
z
" transform="scale(0.015625)"/>
     </defs>
     <use xlink:href="#DejaVuSans-32"/>
     <use xlink:href="#DejaVuSans-2e" x="63.623047"/>
     <use xlink:href="#DejaVuSans-20" x="95.410156"/>
     <use xlink:href="#DejaVuSans-54" x="127.197266"/>
     <use xlink:href="#DejaVuSans-72" x="173.53125"/>
     <use xlink:href="#DejaVuSans-61" x="214.644531"/>
     <use xlink:href="#DejaVuSans-6e" x="275.923828"/>
     <use xlink:href="#DejaVuSans-73" x="339.302734"/>
     <use xlink:href="#DejaVuSans-66" x="391.402344"/>
     <use xlink:href="#DejaVuSans-6f" x="426.607422"/>
     <use xlink:href="#DejaVuSans-72" x="487.789062"/>
     <use xlink:href="#DejaVuSans-6d" x="527.152344"/>
     <use xlink:href="#DejaVuSans-20" x="624.564453"/>
     <use xlink:href="#DejaVuSans-62" x="656.351562"/>
     <use xlink:href="#DejaVuSans-65" x="719.828125"/>
     <use xlink:href="#DejaVuSans-66" x="781.351562"/>
     <use xlink:href="#DejaVuSans-6f" x="816.556641"/>
     <use xlink:href="#DejaVuSans-72" x="877.738281"/>
     <use xlink:href="#DejaVuSans-65" x="916.601562"/>
     <use xlink:href="#DejaVuSans-20" x="978.125"/>
     <use xlink:href="#DejaVuSans-6c" x="1009.912109"/>
     <use xlink:href="#DejaVuSans-6f" x="1037.695312"/>
     <use xlink:href="#DejaVuSans-61" x="1098.876953"/>
     <use xlink:href="#DejaVuSans-64" x="1160.15625"/>
    </g>
    <!-- 3. Load curated data -->
    <g style="fill: #334155" transform="translate(98.424 181.503109) scale(0.105 -0.105)">
     <defs>
      <path id="DejaVuSans-33" d="M 2597 2516 
Q 3050 2419 3304 2112 
Q 3559 1806 3559 1356 
Q 3559 666 3084 287 
Q 2609 -91 1734 -91 
Q 1441 -91 1130 -33 
Q 819 25 488 141 
L 488 750 
Q 750 597 1062 519 
Q 1375 441 1716 441 
Q 2309 441 2620 675 
Q 2931 909 2931 1356 
Q 2931 1769 2642 2001 
Q 2353 2234 1838 2234 
L 1294 2234 
L 1294 2753 
L 1863 2753 
Q 2328 2753 2575 2939 
Q 2822 3125 2822 3475 
Q 2822 3834 2567 4026 
Q 2313 4219 1838 4219 
Q 1578 4219 1281 4162 
Q 984 4106 628 3988 
L 628 4550 
Q 988 4650 1302 4700 
Q 1616 4750 1894 4750 
Q 2613 4750 3031 4423 
Q 3450 4097 3450 3541 
Q 3450 3153 3228 2886 
Q 3006 2619 2597 2516 
z
" transform="scale(0.015625)"/>
      <path id="DejaVuSans-4c" d="M 628 4666 
L 1259 4666 
L 1259 531 
L 3531 531 
L 3531 0 
L 628 0 
L 628 4666 
z
" transform="scale(0.015625)"/>
     </defs>
     <use xlink:href="#DejaVuSans-33"/>
     <use xlink:href="#DejaVuSans-2e" x="63.623047"/>
     <use xlink:href="#DejaVuSans-20" x="95.410156"/>
     <use xlink:href="#DejaVuSans-4c" x="127.197266"/>
     <use xlink:href="#DejaVuSans-6f" x="181.160156"/>
     <use xlink:href="#DejaVuSans-61" x="242.341797"/>
     <use xlink:href="#DejaVuSans-64" x="303.621094"/>
     <use xlink:href="#DejaVuSans-20" x="367.097656"/>
     <use xlink:href="#DejaVuSans-63" x="398.884766"/>
     <use xlink:href="#DejaVuSans-75" x="453.865234"/>
     <use xlink:href="#DejaVuSans-72" x="517.244141"/>
     <use xlink:href="#DejaVuSans-61" x="558.357422"/>
     <use xlink:href="#DejaVuSans-74" x="619.636719"/>
     <use xlink:href="#DejaVuSans-65" x="658.845703"/>
     <use xlink:href="#DejaVuSans-64" x="720.369141"/>
     <use xlink:href="#DejaVuSans-20" x="783.845703"/>
     <use xlink:href="#DejaVuSans-64" x="815.632812"/>
     <use xlink:href="#DejaVuSans-61" x="879.109375"/>
     <use xlink:href="#DejaVuSans-74" x="940.388672"/>
     <use xlink:href="#DejaVuSans-61" x="979.597656"/>
    </g>
    <!--  -->
    <g style="fill: #334155" transform="translate(98.424 193.260812) scale(0.105 -0.105)"/>
    <!-- Best when schema control and upfront quality checks matter -->
    <g style="fill: #334155" transform="translate(98.424 205.018516) scale(0.105 -0.105)">
     <defs>
      <path id="DejaVuSans-42" d="M 1259 2228 
L 1259 519 
L 2272 519 
Q 2781 519 3026 730 
Q 3272 941 3272 1375 
Q 3272 1813 3026 2020 
Q 2781 2228 2272 2228 
L 1259 2228 
z
M 1259 4147 
L 1259 2741 
L 2194 2741 
Q 2656 2741 2882 2914 
Q 3109 3088 3109 3444 
Q 3109 3797 2882 3972 
Q 2656 4147 2194 4147 
L 1259 4147 
z
M 628 4666 
L 2241 4666 
Q 2963 4666 3353 4366 
Q 3744 4066 3744 3513 
Q 3744 3084 3544 2831 
Q 3344 2578 2956 2516 
Q 3422 2416 3680 2098 
Q 3938 1781 3938 1306 
Q 3938 681 3513 340 
Q 3088 0 2303 0 
L 628 0 
L 628 4666 
z
" transform="scale(0.015625)"/>
      <path id="DejaVuSans-77" d="M 269 3500 
L 844 3500 
L 1563 769 
L 2278 3500 
L 2956 3500 
L 3675 769 
L 4391 3500 
L 4966 3500 
L 4050 0 
L 3372 0 
L 2619 2869 
L 1863 0 
L 1184 0 
L 269 3500 
z
" transform="scale(0.015625)"/>
      <path id="DejaVuSans-68" d="M 3513 2113 
L 3513 0 
L 2938 0 
L 2938 2094 
Q 2938 2591 2744 2837 
Q 2550 3084 2163 3084 
Q 1697 3084 1428 2787 
Q 1159 2491 1159 1978 
L 1159 0 
L 581 0 
L 581 4863 
L 1159 4863 
L 1159 2956 
Q 1366 3272 1645 3428 
Q 1925 3584 2291 3584 
Q 2894 3584 3203 3211 
Q 3513 2838 3513 2113 
z
" transform="scale(0.015625)"/>
      <path id="DejaVuSans-70" d="M 1159 525 
L 1159 -1331 
L 581 -1331 
L 581 3500 
L 1159 3500 
L 1159 2969 
Q 1341 3281 1617 3432 
Q 1894 3584 2278 3584 
Q 2916 3584 3314 3078 
Q 3713 2572 3713 1747 
Q 3713 922 3314 415 
Q 2916 -91 2278 -91 
Q 1894 -91 1617 61 
Q 1341 213 1159 525 
z
M 3116 1747 
Q 3116 2381 2855 2742 
Q 2594 3103 2138 3103 
Q 1681 3103 1420 2742 
Q 1159 2381 1159 1747 
Q 1159 1113 1420 752 
Q 1681 391 2138 391 
Q 2594 391 2855 752 
Q 3116 1113 3116 1747 
z
" transform="scale(0.015625)"/>
      <path id="DejaVuSans-71" d="M 947 1747 
Q 947 1113 1208 752 
Q 1469 391 1925 391 
Q 2381 391 2643 752 
Q 2906 1113 2906 1747 
Q 2906 2381 2643 2742 
Q 2381 3103 1925 3103 
Q 1469 3103 1208 2742 
Q 947 2381 947 1747 
z
M 2906 525 
Q 2725 213 2448 61 
Q 2172 -91 1784 -91 
Q 1150 -91 751 415 
Q 353 922 353 1747 
Q 353 2572 751 3078 
Q 1150 3584 1784 3584 
Q 2172 3584 2448 3432 
Q 2725 3281 2906 2969 
L 2906 3500 
L 3481 3500 
L 3481 -1331 
L 2906 -1331 
L 2906 525 
z
" transform="scale(0.015625)"/>
      <path id="DejaVuSans-69" d="M 603 3500 
L 1178 3500 
L 1178 0 
L 603 0 
L 603 3500 
z
M 603 4863 
L 1178 4863 
L 1178 4134 
L 603 4134 
L 603 4863 
z
" transform="scale(0.015625)"/>
      <path id="DejaVuSans-79" d="M 2059 -325 
Q 1816 -950 1584 -1140 
Q 1353 -1331 966 -1331 
L 506 -1331 
L 506 -850 
L 844 -850 
Q 1081 -850 1212 -737 
Q 1344 -625 1503 -206 
L 1606 56 
L 191 3500 
L 800 3500 
L 1894 763 
L 2988 3500 
L 3597 3500 
L 2059 -325 
z
" transform="scale(0.015625)"/>
      <path id="DejaVuSans-6b" d="M 581 4863 
L 1159 4863 
L 1159 1991 
L 2875 3500 
L 3609 3500 
L 1753 1863 
L 3688 0 
L 2938 0 
L 1159 1709 
L 1159 0 
L 581 0 
L 581 4863 
z
" transform="scale(0.015625)"/>
     </defs>
     <use xlink:href="#DejaVuSans-42"/>
     <use xlink:href="#DejaVuSans-65" x="68.603516"/>
     <use xlink:href="#DejaVuSans-73" x="130.126953"/>
     <use xlink:href="#DejaVuSans-74" x="182.226562"/>
     <use xlink:href="#DejaVuSans-20" x="221.435547"/>
     <use xlink:href="#DejaVuSans-77" x="253.222656"/>
     <use xlink:href="#DejaVuSans-68" x="335.009766"/>
     <use xlink:href="#DejaVuSans-65" x="398.388672"/>
     <use xlink:href="#DejaVuSans-6e" x="459.912109"/>
     <use xlink:href="#DejaVuSans-20" x="523.291016"/>
     <use xlink:href="#DejaVuSans-73" x="555.078125"/>
     <use xlink:href="#DejaVuSans-63" x="607.177734"/>
     <use xlink:href="#DejaVuSans-68" x="662.158203"/>
     <use xlink:href="#DejaVuSans-65" x="725.537109"/>
     <use xlink:href="#DejaVuSans-6d" x="787.060547"/>
     <use xlink:href="#DejaVuSans-61" x="884.472656"/>
     <use xlink:href="#DejaVuSans-20" x="945.751953"/>
     <use xlink:href="#DejaVuSans-63" x="977.539062"/>
     <use xlink:href="#DejaVuSans-6f" x="1032.519531"/>
     <use xlink:href="#DejaVuSans-6e" x="1093.701172"/>
     <use xlink:href="#DejaVuSans-74" x="1157.080078"/>
     <use xlink:href="#DejaVuSans-72" x="1196.289062"/>
     <use xlink:href="#DejaVuSans-6f" x="1235.152344"/>
     <use xlink:href="#DejaVuSans-6c" x="1296.333984"/>
     <use xlink:href="#DejaVuSans-20" x="1324.117188"/>
     <use xlink:href="#DejaVuSans-61" x="1355.904297"/>
     <use xlink:href="#DejaVuSans-6e" x="1417.183594"/>
     <use xlink:href="#DejaVuSans-64" x="1480.5625"/>
     <use xlink:href="#DejaVuSans-20" x="1544.039062"/>
     <use xlink:href="#DejaVuSans-75" x="1575.826172"/>
     <use xlink:href="#DejaVuSans-70" x="1639.205078"/>
     <use xlink:href="#DejaVuSans-66" x="1702.681641"/>
     <use xlink:href="#DejaVuSans-72" x="1737.886719"/>
     <use xlink:href="#DejaVuSans-6f" x="1776.75"/>
     <use xlink:href="#DejaVuSans-6e" x="1837.931641"/>
     <use xlink:href="#DejaVuSans-74" x="1901.310547"/>
     <use xlink:href="#DejaVuSans-20" x="1940.519531"/>
     <use xlink:href="#DejaVuSans-71" x="1972.306641"/>
     <use xlink:href="#DejaVuSans-75" x="2035.783203"/>
     <use xlink:href="#DejaVuSans-61" x="2099.162109"/>
     <use xlink:href="#DejaVuSans-6c" x="2160.441406"/>
     <use xlink:href="#DejaVuSans-69" x="2188.224609"/>
     <use xlink:href="#DejaVuSans-74" x="2216.007812"/>
     <use xlink:href="#DejaVuSans-79" x="2255.216797"/>
     <use xlink:href="#DejaVuSans-20" x="2314.396484"/>
     <use xlink:href="#DejaVuSans-63" x="2346.183594"/>
     <use xlink:href="#DejaVuSans-68" x="2401.164062"/>
     <use xlink:href="#DejaVuSans-65" x="2464.542969"/>
     <use xlink:href="#DejaVuSans-63" x="2526.066406"/>
     <use xlink:href="#DejaVuSans-6b" x="2581.046875"/>
     <use xlink:href="#DejaVuSans-73" x="2638.957031"/>
     <use xlink:href="#DejaVuSans-20" x="2691.056641"/>
     <use xlink:href="#DejaVuSans-6d" x="2722.84375"/>
     <use xlink:href="#DejaVuSans-61" x="2820.255859"/>
     <use xlink:href="#DejaVuSans-74" x="2881.535156"/>
     <use xlink:href="#DejaVuSans-74" x="2920.744141"/>
     <use xlink:href="#DejaVuSans-65" x="2959.953125"/>
     <use xlink:href="#DejaVuSans-72" x="3021.476562"/>
    </g>
   </g>
   <g id="text_3">
    <!-- ELT -->
    <g style="fill: #0f172a" transform="translate(554.544 128.756269) scale(0.12 -0.12)">
     <use xlink:href="#DejaVuSans-Bold-45"/>
     <use xlink:href="#DejaVuSans-Bold-4c" x="68.310547"/>
     <use xlink:href="#DejaVuSans-Bold-54" x="115.53125"/>
    </g>
   </g>
   <g id="text_4">
    <!-- 1. Extract from source -->
    <g style="fill: #334155" transform="translate(554.544 157.987703) scale(0.105 -0.105)">
     <use xlink:href="#DejaVuSans-31"/>
     <use xlink:href="#DejaVuSans-2e" x="63.623047"/>
     <use xlink:href="#DejaVuSans-20" x="95.410156"/>
     <use xlink:href="#DejaVuSans-45" x="127.197266"/>
     <use xlink:href="#DejaVuSans-78" x="190.380859"/>
     <use xlink:href="#DejaVuSans-74" x="249.560547"/>
     <use xlink:href="#DejaVuSans-72" x="288.769531"/>
     <use xlink:href="#DejaVuSans-61" x="329.882812"/>
     <use xlink:href="#DejaVuSans-63" x="391.162109"/>
     <use xlink:href="#DejaVuSans-74" x="446.142578"/>
     <use xlink:href="#DejaVuSans-20" x="485.351562"/>
     <use xlink:href="#DejaVuSans-66" x="517.138672"/>
     <use xlink:href="#DejaVuSans-72" x="552.34375"/>
     <use xlink:href="#DejaVuSans-6f" x="591.207031"/>
     <use xlink:href="#DejaVuSans-6d" x="652.388672"/>
     <use xlink:href="#DejaVuSans-20" x="749.800781"/>
     <use xlink:href="#DejaVuSans-73" x="781.587891"/>
     <use xlink:href="#DejaVuSans-6f" x="833.6875"/>
     <use xlink:href="#DejaVuSans-75" x="894.869141"/>
     <use xlink:href="#DejaVuSans-72" x="958.248047"/>
     <use xlink:href="#DejaVuSans-63" x="997.111328"/>
     <use xlink:href="#DejaVuSans-65" x="1052.091797"/>
    </g>
    <!-- 2. Load raw first -->
    <g style="fill: #334155" transform="translate(554.544 169.745406) scale(0.105 -0.105)">
     <use xlink:href="#DejaVuSans-32"/>
     <use xlink:href="#DejaVuSans-2e" x="63.623047"/>
     <use xlink:href="#DejaVuSans-20" x="95.410156"/>
     <use xlink:href="#DejaVuSans-4c" x="127.197266"/>
     <use xlink:href="#DejaVuSans-6f" x="181.160156"/>
     <use xlink:href="#DejaVuSans-61" x="242.341797"/>
     <use xlink:href="#DejaVuSans-64" x="303.621094"/>
     <use xlink:href="#DejaVuSans-20" x="367.097656"/>
     <use xlink:href="#DejaVuSans-72" x="398.884766"/>
     <use xlink:href="#DejaVuSans-61" x="439.998047"/>
     <use xlink:href="#DejaVuSans-77" x="501.277344"/>
     <use xlink:href="#DejaVuSans-20" x="583.064453"/>
     <use xlink:href="#DejaVuSans-66" x="614.851562"/>
     <use xlink:href="#DejaVuSans-69" x="650.056641"/>
     <use xlink:href="#DejaVuSans-72" x="677.839844"/>
     <use xlink:href="#DejaVuSans-73" x="718.953125"/>
     <use xlink:href="#DejaVuSans-74" x="771.052734"/>
    </g>
    <!-- 3. Transform in destination -->
    <g style="fill: #334155" transform="translate(554.544 181.503109) scale(0.105 -0.105)">
     <use xlink:href="#DejaVuSans-33"/>
     <use xlink:href="#DejaVuSans-2e" x="63.623047"/>
     <use xlink:href="#DejaVuSans-20" x="95.410156"/>
     <use xlink:href="#DejaVuSans-54" x="127.197266"/>
     <use xlink:href="#DejaVuSans-72" x="173.53125"/>
     <use xlink:href="#DejaVuSans-61" x="214.644531"/>
     <use xlink:href="#DejaVuSans-6e" x="275.923828"/>
     <use xlink:href="#DejaVuSans-73" x="339.302734"/>
     <use xlink:href="#DejaVuSans-66" x="391.402344"/>
     <use xlink:href="#DejaVuSans-6f" x="426.607422"/>
     <use xlink:href="#DejaVuSans-72" x="487.789062"/>
     <use xlink:href="#DejaVuSans-6d" x="527.152344"/>
     <use xlink:href="#DejaVuSans-20" x="624.564453"/>
     <use xlink:href="#DejaVuSans-69" x="656.351562"/>
     <use xlink:href="#DejaVuSans-6e" x="684.134766"/>
     <use xlink:href="#DejaVuSans-20" x="747.513672"/>
     <use xlink:href="#DejaVuSans-64" x="779.300781"/>
     <use xlink:href="#DejaVuSans-65" x="842.777344"/>
     <use xlink:href="#DejaVuSans-73" x="904.300781"/>
     <use xlink:href="#DejaVuSans-74" x="956.400391"/>
     <use xlink:href="#DejaVuSans-69" x="995.609375"/>
     <use xlink:href="#DejaVuSans-6e" x="1023.392578"/>
     <use xlink:href="#DejaVuSans-61" x="1086.771484"/>
     <use xlink:href="#DejaVuSans-74" x="1148.050781"/>
     <use xlink:href="#DejaVuSans-69" x="1187.259766"/>
     <use xlink:href="#DejaVuSans-6f" x="1215.042969"/>
     <use xlink:href="#DejaVuSans-6e" x="1276.224609"/>
    </g>
    <!--  -->
    <g style="fill: #334155" transform="translate(554.544 193.260812) scale(0.105 -0.105)"/>
    <!-- Best when replayability and cloud compute matter -->
    <g style="fill: #334155" transform="translate(554.544 205.018516) scale(0.105 -0.105)">
     <use xlink:href="#DejaVuSans-42"/>
     <use xlink:href="#DejaVuSans-65" x="68.603516"/>
     <use xlink:href="#DejaVuSans-73" x="130.126953"/>
     <use xlink:href="#DejaVuSans-74" x="182.226562"/>
     <use xlink:href="#DejaVuSans-20" x="221.435547"/>
     <use xlink:href="#DejaVuSans-77" x="253.222656"/>
     <use xlink:href="#DejaVuSans-68" x="335.009766"/>
     <use xlink:href="#DejaVuSans-65" x="398.388672"/>
     <use xlink:href="#DejaVuSans-6e" x="459.912109"/>
     <use xlink:href="#DejaVuSans-20" x="523.291016"/>
     <use xlink:href="#DejaVuSans-72" x="555.078125"/>
     <use xlink:href="#DejaVuSans-65" x="593.941406"/>
     <use xlink:href="#DejaVuSans-70" x="655.464844"/>
     <use xlink:href="#DejaVuSans-6c" x="718.941406"/>
     <use xlink:href="#DejaVuSans-61" x="746.724609"/>
     <use xlink:href="#DejaVuSans-79" x="808.003906"/>
     <use xlink:href="#DejaVuSans-61" x="867.183594"/>
     <use xlink:href="#DejaVuSans-62" x="928.462891"/>
     <use xlink:href="#DejaVuSans-69" x="991.939453"/>
     <use xlink:href="#DejaVuSans-6c" x="1019.722656"/>
     <use xlink:href="#DejaVuSans-69" x="1047.505859"/>
     <use xlink:href="#DejaVuSans-74" x="1075.289062"/>
     <use xlink:href="#DejaVuSans-79" x="1114.498047"/>
     <use xlink:href="#DejaVuSans-20" x="1173.677734"/>
     <use xlink:href="#DejaVuSans-61" x="1205.464844"/>
     <use xlink:href="#DejaVuSans-6e" x="1266.744141"/>
     <use xlink:href="#DejaVuSans-64" x="1330.123047"/>
     <use xlink:href="#DejaVuSans-20" x="1393.599609"/>
     <use xlink:href="#DejaVuSans-63" x="1425.386719"/>
     <use xlink:href="#DejaVuSans-6c" x="1480.367188"/>
     <use xlink:href="#DejaVuSans-6f" x="1508.150391"/>
     <use xlink:href="#DejaVuSans-75" x="1569.332031"/>
     <use xlink:href="#DejaVuSans-64" x="1632.710938"/>
     <use xlink:href="#DejaVuSans-20" x="1696.1875"/>
     <use xlink:href="#DejaVuSans-63" x="1727.974609"/>
     <use xlink:href="#DejaVuSans-6f" x="1782.955078"/>
     <use xlink:href="#DejaVuSans-6d" x="1844.136719"/>
     <use xlink:href="#DejaVuSans-70" x="1941.548828"/>
     <use xlink:href="#DejaVuSans-75" x="2005.025391"/>
     <use xlink:href="#DejaVuSans-74" x="2068.404297"/>
     <use xlink:href="#DejaVuSans-65" x="2107.613281"/>
     <use xlink:href="#DejaVuSans-20" x="2169.136719"/>
     <use xlink:href="#DejaVuSans-6d" x="2200.923828"/>
     <use xlink:href="#DejaVuSans-61" x="2298.335938"/>
     <use xlink:href="#DejaVuSans-74" x="2359.615234"/>
     <use xlink:href="#DejaVuSans-74" x="2398.824219"/>
     <use xlink:href="#DejaVuSans-65" x="2438.033203"/>
     <use xlink:href="#DejaVuSans-72" x="2499.556641"/>
    </g>
   </g>
   <g id="text_5">
    <!-- Transform before load -->
    <g style="fill: #1d4ed8" transform="translate(160.208438 89.266944) scale(0.12 -0.12)">
     <defs>
      <path id="DejaVuSans-Bold-72" d="M 3138 2547 
Q 2991 2616 2845 2648 
Q 2700 2681 2553 2681 
Q 2122 2681 1889 2404 
Q 1656 2128 1656 1613 
L 1656 0 
L 538 0 
L 538 3500 
L 1656 3500 
L 1656 2925 
Q 1872 3269 2151 3426 
Q 2431 3584 2822 3584 
Q 2878 3584 2943 3579 
Q 3009 3575 3134 3559 
L 3138 2547 
z
" transform="scale(0.015625)"/>
      <path id="DejaVuSans-Bold-61" d="M 2106 1575 
Q 1756 1575 1579 1456 
Q 1403 1338 1403 1106 
Q 1403 894 1545 773 
Q 1688 653 1941 653 
Q 2256 653 2472 879 
Q 2688 1106 2688 1447 
L 2688 1575 
L 2106 1575 
z
M 3816 1997 
L 3816 0 
L 2688 0 
L 2688 519 
Q 2463 200 2181 54 
Q 1900 -91 1497 -91 
Q 953 -91 614 226 
Q 275 544 275 1050 
Q 275 1666 698 1953 
Q 1122 2241 2028 2241 
L 2688 2241 
L 2688 2328 
Q 2688 2594 2478 2717 
Q 2269 2841 1825 2841 
Q 1466 2841 1156 2769 
Q 847 2697 581 2553 
L 581 3406 
Q 941 3494 1303 3539 
Q 1666 3584 2028 3584 
Q 2975 3584 3395 3211 
Q 3816 2838 3816 1997 
z
" transform="scale(0.015625)"/>
      <path id="DejaVuSans-Bold-6e" d="M 4056 2131 
L 4056 0 
L 2931 0 
L 2931 347 
L 2931 1631 
Q 2931 2084 2911 2256 
Q 2891 2428 2841 2509 
Q 2775 2619 2662 2680 
Q 2550 2741 2406 2741 
Q 2056 2741 1856 2470 
Q 1656 2200 1656 1722 
L 1656 0 
L 538 0 
L 538 3500 
L 1656 3500 
L 1656 2988 
Q 1909 3294 2193 3439 
Q 2478 3584 2822 3584 
Q 3428 3584 3742 3212 
Q 4056 2841 4056 2131 
z
" transform="scale(0.015625)"/>
      <path id="DejaVuSans-Bold-73" d="M 3272 3391 
L 3272 2541 
Q 2913 2691 2578 2766 
Q 2244 2841 1947 2841 
Q 1628 2841 1473 2761 
Q 1319 2681 1319 2516 
Q 1319 2381 1436 2309 
Q 1553 2238 1856 2203 
L 2053 2175 
Q 2913 2066 3209 1816 
Q 3506 1566 3506 1031 
Q 3506 472 3093 190 
Q 2681 -91 1863 -91 
Q 1516 -91 1145 -36 
Q 775 19 384 128 
L 384 978 
Q 719 816 1070 734 
Q 1422 653 1784 653 
Q 2113 653 2278 743 
Q 2444 834 2444 1013 
Q 2444 1163 2330 1236 
Q 2216 1309 1875 1350 
L 1678 1375 
Q 931 1469 631 1722 
Q 331 1975 331 2491 
Q 331 3047 712 3315 
Q 1094 3584 1881 3584 
Q 2191 3584 2531 3537 
Q 2872 3491 3272 3391 
z
" transform="scale(0.015625)"/>
      <path id="DejaVuSans-Bold-66" d="M 2841 4863 
L 2841 4128 
L 2222 4128 
Q 1984 4128 1890 4042 
Q 1797 3956 1797 3744 
L 1797 3500 
L 2753 3500 
L 2753 2700 
L 1797 2700 
L 1797 0 
L 678 0 
L 678 2700 
L 122 2700 
L 122 3500 
L 678 3500 
L 678 3744 
Q 678 4316 997 4589 
Q 1316 4863 1984 4863 
L 2841 4863 
z
" transform="scale(0.015625)"/>
      <path id="DejaVuSans-Bold-6f" d="M 2203 2784 
Q 1831 2784 1636 2517 
Q 1441 2250 1441 1747 
Q 1441 1244 1636 976 
Q 1831 709 2203 709 
Q 2569 709 2762 976 
Q 2956 1244 2956 1747 
Q 2956 2250 2762 2517 
Q 2569 2784 2203 2784 
z
M 2203 3584 
Q 3106 3584 3614 3096 
Q 4122 2609 4122 1747 
Q 4122 884 3614 396 
Q 3106 -91 2203 -91 
Q 1297 -91 786 396 
Q 275 884 275 1747 
Q 275 2609 786 3096 
Q 1297 3584 2203 3584 
z
" transform="scale(0.015625)"/>
      <path id="DejaVuSans-Bold-6d" d="M 3781 2919 
Q 3994 3244 4286 3414 
Q 4578 3584 4928 3584 
Q 5531 3584 5847 3212 
Q 6163 2841 6163 2131 
L 6163 0 
L 5038 0 
L 5038 1825 
Q 5041 1866 5042 1909 
Q 5044 1953 5044 2034 
Q 5044 2406 4934 2573 
Q 4825 2741 4581 2741 
Q 4263 2741 4089 2478 
Q 3916 2216 3909 1719 
L 3909 0 
L 2784 0 
L 2784 1825 
Q 2784 2406 2684 2573 
Q 2584 2741 2328 2741 
Q 2006 2741 1831 2477 
Q 1656 2213 1656 1722 
L 1656 0 
L 531 0 
L 531 3500 
L 1656 3500 
L 1656 2988 
Q 1863 3284 2130 3434 
Q 2397 3584 2719 3584 
Q 3081 3584 3359 3409 
Q 3638 3234 3781 2919 
z
" transform="scale(0.015625)"/>
      <path id="DejaVuSans-Bold-20" transform="scale(0.015625)"/>
      <path id="DejaVuSans-Bold-62" d="M 2400 722 
Q 2759 722 2948 984 
Q 3138 1247 3138 1747 
Q 3138 2247 2948 2509 
Q 2759 2772 2400 2772 
Q 2041 2772 1848 2508 
Q 1656 2244 1656 1747 
Q 1656 1250 1848 986 
Q 2041 722 2400 722 
z
M 1656 2988 
Q 1888 3294 2169 3439 
Q 2450 3584 2816 3584 
Q 3463 3584 3878 3070 
Q 4294 2556 4294 1747 
Q 4294 938 3878 423 
Q 3463 -91 2816 -91 
Q 2450 -91 2169 54 
Q 1888 200 1656 506 
L 1656 0 
L 538 0 
L 538 4863 
L 1656 4863 
L 1656 2988 
z
" transform="scale(0.015625)"/>
      <path id="DejaVuSans-Bold-65" d="M 4031 1759 
L 4031 1441 
L 1416 1441 
Q 1456 1047 1700 850 
Q 1944 653 2381 653 
Q 2734 653 3104 758 
Q 3475 863 3866 1075 
L 3866 213 
Q 3469 63 3072 -14 
Q 2675 -91 2278 -91 
Q 1328 -91 801 392 
Q 275 875 275 1747 
Q 275 2603 792 3093 
Q 1309 3584 2216 3584 
Q 3041 3584 3536 3087 
Q 4031 2591 4031 1759 
z
M 2881 2131 
Q 2881 2450 2695 2645 
Q 2509 2841 2209 2841 
Q 1884 2841 1681 2658 
Q 1478 2475 1428 2131 
L 2881 2131 
z
" transform="scale(0.015625)"/>
      <path id="DejaVuSans-Bold-6c" d="M 538 4863 
L 1656 4863 
L 1656 0 
L 538 0 
L 538 4863 
z
" transform="scale(0.015625)"/>
      <path id="DejaVuSans-Bold-64" d="M 2919 2988 
L 2919 4863 
L 4044 4863 
L 4044 0 
L 2919 0 
L 2919 506 
Q 2688 197 2409 53 
Q 2131 -91 1766 -91 
Q 1119 -91 703 423 
Q 288 938 288 1747 
Q 288 2556 703 3070 
Q 1119 3584 1766 3584 
Q 2128 3584 2408 3439 
Q 2688 3294 2919 2988 
z
M 2181 722 
Q 2541 722 2730 984 
Q 2919 1247 2919 1747 
Q 2919 2247 2730 2509 
Q 2541 2772 2181 2772 
Q 1825 2772 1636 2509 
Q 1447 2247 1447 1747 
Q 1447 1247 1636 984 
Q 1825 722 2181 722 
z
" transform="scale(0.015625)"/>
     </defs>
     <use xlink:href="#DejaVuSans-Bold-54"/>
     <use xlink:href="#DejaVuSans-Bold-72" x="57.212891"/>
     <use xlink:href="#DejaVuSans-Bold-61" x="106.529297"/>
     <use xlink:href="#DejaVuSans-Bold-6e" x="174.009766"/>
     <use xlink:href="#DejaVuSans-Bold-73" x="245.201172"/>
     <use xlink:href="#DejaVuSans-Bold-66" x="304.722656"/>
     <use xlink:href="#DejaVuSans-Bold-6f" x="348.228516"/>
     <use xlink:href="#DejaVuSans-Bold-72" x="416.929688"/>
     <use xlink:href="#DejaVuSans-Bold-6d" x="466.246094"/>
     <use xlink:href="#DejaVuSans-Bold-20" x="570.445312"/>
     <use xlink:href="#DejaVuSans-Bold-62" x="605.259766"/>
     <use xlink:href="#DejaVuSans-Bold-65" x="676.841797"/>
     <use xlink:href="#DejaVuSans-Bold-66" x="744.664062"/>
     <use xlink:href="#DejaVuSans-Bold-6f" x="788.169922"/>
     <use xlink:href="#DejaVuSans-Bold-72" x="856.871094"/>
     <use xlink:href="#DejaVuSans-Bold-65" x="906.1875"/>
     <use xlink:href="#DejaVuSans-Bold-20" x="974.009766"/>
     <use xlink:href="#DejaVuSans-Bold-6c" x="1008.824219"/>
     <use xlink:href="#DejaVuSans-Bold-6f" x="1043.101562"/>
     <use xlink:href="#DejaVuSans-Bold-61" x="1111.802734"/>
     <use xlink:href="#DejaVuSans-Bold-64" x="1179.283203"/>
    </g>
   </g>
   <g id="text_6">
    <!-- Load raw before transform -->
    <g style="fill: #047857" transform="translate(600.4875 89.266944) scale(0.12 -0.12)">
     <defs>
      <path id="DejaVuSans-Bold-77" d="M 225 3500 
L 1313 3500 
L 1900 1088 
L 2491 3500 
L 3425 3500 
L 4013 1113 
L 4603 3500 
L 5691 3500 
L 4769 0 
L 3547 0 
L 2956 2406 
L 2369 0 
L 1147 0 
L 225 3500 
z
" transform="scale(0.015625)"/>
      <path id="DejaVuSans-Bold-74" d="M 1759 4494 
L 1759 3500 
L 2913 3500 
L 2913 2700 
L 1759 2700 
L 1759 1216 
Q 1759 972 1856 886 
Q 1953 800 2241 800 
L 2816 800 
L 2816 0 
L 1856 0 
Q 1194 0 917 276 
Q 641 553 641 1216 
L 641 2700 
L 84 2700 
L 84 3500 
L 641 3500 
L 641 4494 
L 1759 4494 
z
" transform="scale(0.015625)"/>
     </defs>
     <use xlink:href="#DejaVuSans-Bold-4c"/>
     <use xlink:href="#DejaVuSans-Bold-6f" x="63.720703"/>
     <use xlink:href="#DejaVuSans-Bold-61" x="132.421875"/>
     <use xlink:href="#DejaVuSans-Bold-64" x="199.902344"/>
     <use xlink:href="#DejaVuSans-Bold-20" x="271.484375"/>
     <use xlink:href="#DejaVuSans-Bold-72" x="306.298828"/>
     <use xlink:href="#DejaVuSans-Bold-61" x="355.615234"/>
     <use xlink:href="#DejaVuSans-Bold-77" x="423.095703"/>
     <use xlink:href="#DejaVuSans-Bold-20" x="515.478516"/>
     <use xlink:href="#DejaVuSans-Bold-62" x="550.292969"/>
     <use xlink:href="#DejaVuSans-Bold-65" x="621.875"/>
     <use xlink:href="#DejaVuSans-Bold-66" x="689.697266"/>
     <use xlink:href="#DejaVuSans-Bold-6f" x="733.203125"/>
     <use xlink:href="#DejaVuSans-Bold-72" x="801.904297"/>
     <use xlink:href="#DejaVuSans-Bold-65" x="851.220703"/>
     <use xlink:href="#DejaVuSans-Bold-20" x="919.042969"/>
     <use xlink:href="#DejaVuSans-Bold-74" x="953.857422"/>
     <use xlink:href="#DejaVuSans-Bold-72" x="1001.660156"/>
     <use xlink:href="#DejaVuSans-Bold-61" x="1050.976562"/>
     <use xlink:href="#DejaVuSans-Bold-6e" x="1118.457031"/>
     <use xlink:href="#DejaVuSans-Bold-73" x="1189.648438"/>
     <use xlink:href="#DejaVuSans-Bold-66" x="1249.169922"/>
     <use xlink:href="#DejaVuSans-Bold-6f" x="1292.675781"/>
     <use xlink:href="#DejaVuSans-Bold-72" x="1361.376953"/>
     <use xlink:href="#DejaVuSans-Bold-6d" x="1410.693359"/>
    </g>
   </g>
   <g id="text_7">
    <!-- ETL vs ELT -->
    <g style="fill: #0f172a" transform="translate(414.162109 20.117344) scale(0.17 -0.17)">
     <defs>
      <path id="DejaVuSans-Bold-76" d="M 97 3500 
L 1216 3500 
L 2088 1081 
L 2956 3500 
L 4078 3500 
L 2700 0 
L 1472 0 
L 97 3500 
z
" transform="scale(0.015625)"/>
     </defs>
     <use xlink:href="#DejaVuSans-Bold-45"/>
     <use xlink:href="#DejaVuSans-Bold-54" x="68.310547"/>
     <use xlink:href="#DejaVuSans-Bold-4c" x="136.523438"/>
     <use xlink:href="#DejaVuSans-Bold-20" x="200.244141"/>
     <use xlink:href="#DejaVuSans-Bold-76" x="235.058594"/>
     <use xlink:href="#DejaVuSans-Bold-73" x="300.244141"/>
     <use xlink:href="#DejaVuSans-Bold-20" x="359.765625"/>
     <use xlink:href="#DejaVuSans-Bold-45" x="394.580078"/>
     <use xlink:href="#DejaVuSans-Bold-4c" x="462.890625"/>
     <use xlink:href="#DejaVuSans-Bold-54" x="510.111328"/>
    </g>
   </g>
  </g>
 </g>
 <defs>
  <clipPath id="pfb8e5c88f0">
   <rect x="7.2" y="36.117344" width="912.24" height="379.64"/>
  </clipPath>
 </defs>
</svg>
