<?xml version="1.0" encoding="utf-8" standalone="no"?>
<!DOCTYPE svg PUBLIC "-//W3C//DTD SVG 1.1//EN"
  "http://www.w3.org/Graphics/SVG/1.1/DTD/svg11.dtd">
<svg xmlns:xlink="http://www.w3.org/1999/xlink" width="926.64pt" height="466.157344pt" viewBox="0 0 926.64 466.157344" xmlns="http://www.w3.org/2000/svg" version="1.1">
 <metadata>
  <rdf:RDF xmlns:dc="http://purl.org/dc/elements/1.1/" xmlns:cc="http://creativecommons.org/ns#" xmlns:rdf="http://www.w3.org/1999/02/22-rdf-syntax-ns#">
   <cc:Work>
    <dc:type rdf:resource="http://purl.org/dc/dcmitype/StillImage"/>
    <dc:date>2026-03-20T01:55:32.521925</dc:date>
    <dc:format>image/svg+xml</dc:format>
    <dc:creator>
     <cc:Agent>
      <dc:title>Matplotlib v3.9.0, https://matplotlib.org/</dc:title>
     </cc:Agent>
    </dc:creator>
   </cc:Work>
  </rdf:RDF>
 </metadata>
 <defs>
  <style type="text/css">*{stroke-linejoin: round; stroke-linecap: butt}</style>
 </defs>
 <g id="figure_1">
  <g id="patch_1">
   <path d="M 0 466.157344 
L 926.64 466.157344 
L 926.64 0 
L 0 0 
z
" style="fill: #ffffff"/>
  </g>
  <g id="axes_1">
   <g id="patch_2">
    <path d="M 16.3224 203.139144 
L 217.0152 203.139144 
Q 235.26 203.139144 235.26 194.682344 
L 235.26 148.169944 
Q 235.26 139.713144 217.0152 139.713144 
L 16.3224 139.713144 
Q -1.9224 139.713144 -1.9224 148.169944 
L -1.9224 194.682344 
Q -1.9224 203.139144 16.3224 203.139144 
z
" clip-path="url(#p3e86c5115b)" style="fill: #dbeafe; stroke: #2563eb; stroke-width: 1.6; stroke-linejoin: miter"/>
   </g>
   <g id="patch_3">
    <path d="M 217.0152 203.139144 
L 417.708 203.139144 
Q 435.9528 203.139144 435.9528 194.682344 
L 435.9528 148.169944 
Q 435.9528 139.713144 417.708 139.713144 
L 217.0152 139.713144 
Q 198.7704 139.713144 198.7704 148.169944 
L 198.7704 194.682344 
Q 198.7704 203.139144 217.0152 203.139144 
z
" clip-path="url(#p3e86c5115b)" style="fill: #dbeafe; stroke: #2563eb; stroke-width: 1.6; stroke-linejoin: miter"/>
   </g>
   <g id="patch_4">
    <path d="M 417.708 203.139144 
L 618.4008 203.139144 
Q 636.6456 203.139144 636.6456 194.682344 
L 636.6456 148.169944 
Q 636.6456 139.713144 618.4008 139.713144 
L 417.708 139.713144 
Q 399.4632 139.713144 399.4632 148.169944 
L 399.4632 194.682344 
Q 399.4632 203.139144 417.708 203.139144 
z
" clip-path="url(#p3e86c5115b)" style="fill: #dbeafe; stroke: #2563eb; stroke-width: 1.6; stroke-linejoin: miter"/>
   </g>
   <g id="patch_5">
    <path d="M 417.708 313.077544 
L 618.4008 313.077544 
Q 636.6456 313.077544 636.6456 304.620744 
L 636.6456 258.108344 
Q 636.6456 249.651544 618.4008 249.651544 
L 417.708 249.651544 
Q 399.4632 249.651544 399.4632 258.108344 
L 399.4632 304.620744 
Q 399.4632 313.077544 417.708 313.077544 
z
" clip-path="url(#p3e86c5115b)" style="fill: #fef3c7; stroke: #f59e0b; stroke-width: 1.6; stroke-linejoin: miter"/>
   </g>
   <g id="patch_6">
    <path d="M 217.0152 414.559144 
L 417.708 414.559144 
Q 435.9528 414.559144 435.9528 406.102344 
L 435.9528 359.589944 
Q 435.9528 351.133144 417.708 351.133144 
L 217.0152 351.133144 
Q 198.7704 351.133144 198.7704 359.589944 
L 198.7704 406.102344 
Q 198.7704 414.559144 217.0152 414.559144 
z
" clip-path="url(#p3e86c5115b)" style="fill: #dcfce7; stroke: #22c55e; stroke-width: 1.6; stroke-linejoin: miter"/>
   </g>
   <g id="patch_7">
    <path d="M 618.4008 414.559144 
L 819.0936 414.559144 
Q 837.3384 414.559144 837.3384 406.102344 
L 837.3384 359.589944 
Q 837.3384 351.133144 819.0936 351.133144 
L 618.4008 351.133144 
Q 600.156 351.133144 600.156 359.589944 
L 600.156 406.102344 
Q 600.156 414.559144 618.4008 414.559144 
z
" clip-path="url(#p3e86c5115b)" style="fill: #fee2e2; stroke: #ef4444; stroke-width: 1.6; stroke-linejoin: miter"/>
   </g>
   <g id="patch_8">
    <path d="M 219.016293 171.426144 
Q 244.383576 171.426144 267.962004 171.426144 
" clip-path="url(#p3e86c5115b)" style="fill: none; stroke: #475569; stroke-width: 1.6; stroke-linecap: round"/>
    <path d="M 261.962004 168.426144 
L 267.962004 171.426144 
L 261.962004 174.426144 
" clip-path="url(#p3e86c5115b)" style="fill: none; stroke: #475569; stroke-width: 1.6; stroke-linecap: round"/>
   </g>
   <g id="patch_9">
    <path d="M 419.709093 171.426144 
Q 445.076376 171.426144 468.654804 171.426144 
" clip-path="url(#p3e86c5115b)" style="fill: none; stroke: #475569; stroke-width: 1.6; stroke-linecap: round"/>
    <path d="M 462.654804 168.426144 
L 468.654804 171.426144 
L 462.654804 174.426144 
" clip-path="url(#p3e86c5115b)" style="fill: none; stroke: #475569; stroke-width: 1.6; stroke-linecap: round"/>
   </g>
   <g id="patch_10">
    <path d="M 518.0544 198.794607 
Q 518.0544 226.394152 518.0544 252.204842 
" clip-path="url(#p3e86c5115b)" style="fill: none; stroke: #475569; stroke-width: 1.6; stroke-linecap: round"/>
    <path d="M 521.0544 246.204842 
L 518.0544 252.204842 
L 515.0544 246.204842 
" clip-path="url(#p3e86c5115b)" style="fill: none; stroke: #475569; stroke-width: 1.6; stroke-linecap: round"/>
   </g>
   <g id="patch_11">
    <path d="M 452.518887 303.595904 
Q 408.583818 332.1065 366.149338 359.643326 
" clip-path="url(#p3e86c5115b)" style="fill: none; stroke: #475569; stroke-width: 1.6; stroke-linecap: round"/>
    <path d="M 372.815533 358.893763 
L 366.149338 359.643326 
L 369.549405 353.860632 
" clip-path="url(#p3e86c5115b)" style="fill: none; stroke: #475569; stroke-width: 1.6; stroke-linecap: round"/>
   </g>
   <g id="patch_12">
    <path d="M 583.589913 303.595904 
Q 627.524982 332.1065 669.959462 359.643326 
" clip-path="url(#p3e86c5115b)" style="fill: none; stroke: #475569; stroke-width: 1.6; stroke-linecap: round"/>
    <path d="M 666.559395 353.860632 
L 669.959462 359.643326 
L 663.293267 358.893763 
" clip-path="url(#p3e86c5115b)" style="fill: none; stroke: #475569; stroke-width: 1.6; stroke-linecap: round"/>
   </g>
   <g id="text_1">
    <!-- ProcessingStep -->
    <g style="fill: #0f172a" transform="translate(68.614269 174.418487) scale(0.11 -0.11)">
     <defs>
      <path id="DejaVuSans-Bold-50" d="M 588 4666 
L 2584 4666 
Q 3475 4666 3951 4270 
Q 4428 3875 4428 3144 
Q 4428 2409 3951 2014 
Q 3475 1619 2584 1619 
L 1791 1619 
L 1791 0 
L 588 0 
L 588 4666 
z
M 1791 3794 
L 1791 2491 
L 2456 2491 
Q 2806 2491 2997 2661 
Q 3188 2831 3188 3144 
Q 3188 3456 2997 3625 
Q 2806 3794 2456 3794 
L 1791 3794 
z
" transform="scale(0.015625)"/>
      <path id="DejaVuSans-Bold-72" d="M 3138 2547 
Q 2991 2616 2845 2648 
Q 2700 2681 2553 2681 
Q 2122 2681 1889 2404 
Q 1656 2128 1656 1613 
L 1656 0 
L 538 0 
L 538 3500 
L 1656 3500 
L 1656 2925 
Q 1872 3269 2151 3426 
Q 2431 3584 2822 3584 
Q 2878 3584 2943 3579 
Q 3009 3575 3134 3559 
L 3138 2547 
z
" transform="scale(0.015625)"/>
      <path id="DejaVuSans-Bold-6f" d="M 2203 2784 
Q 1831 2784 1636 2517 
Q 1441 2250 1441 1747 
Q 1441 1244 1636 976 
Q 1831 709 2203 709 
Q 2569 709 2762 976 
Q 2956 1244 2956 1747 
Q 2956 2250 2762 2517 
Q 2569 2784 2203 2784 
z
M 2203 3584 
Q 3106 3584 3614 3096 
Q 4122 2609 4122 1747 
Q 4122 884 3614 396 
Q 3106 -91 2203 -91 
Q 1297 -91 786 396 
Q 275 884 275 1747 
Q 275 2609 786 3096 
Q 1297 3584 2203 3584 
z
" transform="scale(0.015625)"/>
      <path id="DejaVuSans-Bold-63" d="M 3366 3391 
L 3366 2478 
Q 3138 2634 2908 2709 
Q 2678 2784 2431 2784 
Q 1963 2784 1702 2511 
Q 1441 2238 1441 1747 
Q 1441 1256 1702 982 
Q 1963 709 2431 709 
Q 2694 709 2930 787 
Q 3166 866 3366 1019 
L 3366 103 
Q 3103 6 2833 -42 
Q 2563 -91 2291 -91 
Q 1344 -91 809 395 
Q 275 881 275 1747 
Q 275 2613 809 3098 
Q 1344 3584 2291 3584 
Q 2566 3584 2833 3536 
Q 3100 3488 3366 3391 
z
" transform="scale(0.015625)"/>
      <path id="DejaVuSans-Bold-65" d="M 4031 1759 
L 4031 1441 
L 1416 1441 
Q 1456 1047 1700 850 
Q 1944 653 2381 653 
Q 2734 653 3104 758 
Q 3475 863 3866 1075 
L 3866 213 
Q 3469 63 3072 -14 
Q 2675 -91 2278 -91 
Q 1328 -91 801 392 
Q 275 875 275 1747 
Q 275 2603 792 3093 
Q 1309 3584 2216 3584 
Q 3041 3584 3536 3087 
Q 4031 2591 4031 1759 
z
M 2881 2131 
Q 2881 2450 2695 2645 
Q 2509 2841 2209 2841 
Q 1884 2841 1681 2658 
Q 1478 2475 1428 2131 
L 2881 2131 
z
" transform="scale(0.015625)"/>
      <path id="DejaVuSans-Bold-73" d="M 3272 3391 
L 3272 2541 
Q 2913 2691 2578 2766 
Q 2244 2841 1947 2841 
Q 1628 2841 1473 2761 
Q 1319 2681 1319 2516 
Q 1319 2381 1436 2309 
Q 1553 2238 1856 2203 
L 2053 2175 
Q 2913 2066 3209 1816 
Q 3506 1566 3506 1031 
Q 3506 472 3093 190 
Q 2681 -91 1863 -91 
Q 1516 -91 1145 -36 
Q 775 19 384 128 
L 384 978 
Q 719 816 1070 734 
Q 1422 653 1784 653 
Q 2113 653 2278 743 
Q 2444 834 2444 1013 
Q 2444 1163 2330 1236 
Q 2216 1309 1875 1350 
L 1678 1375 
Q 931 1469 631 1722 
Q 331 1975 331 2491 
Q 331 3047 712 3315 
Q 1094 3584 1881 3584 
Q 2191 3584 2531 3537 
Q 2872 3491 3272 3391 
z
" transform="scale(0.015625)"/>
      <path id="DejaVuSans-Bold-69" d="M 538 3500 
L 1656 3500 
L 1656 0 
L 538 0 
L 538 3500 
z
M 538 4863 
L 1656 4863 
L 1656 3950 
L 538 3950 
L 538 4863 
z
" transform="scale(0.015625)"/>
      <path id="DejaVuSans-Bold-6e" d="M 4056 2131 
L 4056 0 
L 2931 0 
L 2931 347 
L 2931 1631 
Q 2931 2084 2911 2256 
Q 2891 2428 2841 2509 
Q 2775 2619 2662 2680 
Q 2550 2741 2406 2741 
Q 2056 2741 1856 2470 
Q 1656 2200 1656 1722 
L 1656 0 
L 538 0 
L 538 3500 
L 1656 3500 
L 1656 2988 
Q 1909 3294 2193 3439 
Q 2478 3584 2822 3584 
Q 3428 3584 3742 3212 
Q 4056 2841 4056 2131 
z
" transform="scale(0.015625)"/>
      <path id="DejaVuSans-Bold-67" d="M 2919 594 
Q 2688 288 2409 144 
Q 2131 0 1766 0 
Q 1125 0 706 504 
Q 288 1009 288 1791 
Q 288 2575 706 3076 
Q 1125 3578 1766 3578 
Q 2131 3578 2409 3434 
Q 2688 3291 2919 2981 
L 2919 3500 
L 4044 3500 
L 4044 353 
Q 4044 -491 3511 -936 
Q 2978 -1381 1966 -1381 
Q 1638 -1381 1331 -1331 
Q 1025 -1281 716 -1178 
L 716 -306 
Q 1009 -475 1290 -558 
Q 1572 -641 1856 -641 
Q 2406 -641 2662 -400 
Q 2919 -159 2919 353 
L 2919 594 
z
M 2181 2772 
Q 1834 2772 1640 2515 
Q 1447 2259 1447 1791 
Q 1447 1309 1634 1061 
Q 1822 813 2181 813 
Q 2531 813 2725 1069 
Q 2919 1325 2919 1791 
Q 2919 2259 2725 2515 
Q 2531 2772 2181 2772 
z
" transform="scale(0.015625)"/>
      <path id="DejaVuSans-Bold-53" d="M 3834 4519 
L 3834 3531 
Q 3450 3703 3084 3790 
Q 2719 3878 2394 3878 
Q 1963 3878 1756 3759 
Q 1550 3641 1550 3391 
Q 1550 3203 1689 3098 
Q 1828 2994 2194 2919 
L 2706 2816 
Q 3484 2659 3812 2340 
Q 4141 2022 4141 1434 
Q 4141 663 3683 286 
Q 3225 -91 2284 -91 
Q 1841 -91 1394 -6 
Q 947 78 500 244 
L 500 1259 
Q 947 1022 1364 901 
Q 1781 781 2169 781 
Q 2563 781 2772 912 
Q 2981 1044 2981 1288 
Q 2981 1506 2839 1625 
Q 2697 1744 2272 1838 
L 1806 1941 
Q 1106 2091 782 2419 
Q 459 2747 459 3303 
Q 459 4000 909 4375 
Q 1359 4750 2203 4750 
Q 2588 4750 2994 4692 
Q 3400 4634 3834 4519 
z
" transform="scale(0.015625)"/>
      <path id="DejaVuSans-Bold-74" d="M 1759 4494 
L 1759 3500 
L 2913 3500 
L 2913 2700 
L 1759 2700 
L 1759 1216 
Q 1759 972 1856 886 
Q 1953 800 2241 800 
L 2816 800 
L 2816 0 
L 1856 0 
Q 1194 0 917 276 
Q 641 553 641 1216 
L 641 2700 
L 84 2700 
L 84 3500 
L 641 3500 
L 641 4494 
L 1759 4494 
z
" transform="scale(0.015625)"/>
      <path id="DejaVuSans-Bold-70" d="M 1656 506 
L 1656 -1331 
L 538 -1331 
L 538 3500 
L 1656 3500 
L 1656 2988 
Q 1888 3294 2169 3439 
Q 2450 3584 2816 3584 
Q 3463 3584 3878 3070 
Q 4294 2556 4294 1747 
Q 4294 938 3878 423 
Q 3463 -91 2816 -91 
Q 2450 -91 2169 54 
Q 1888 200 1656 506 
z
M 2400 2772 
Q 2041 2772 1848 2508 
Q 1656 2244 1656 1747 
Q 1656 1250 1848 986 
Q 2041 722 2400 722 
Q 2759 722 2948 984 
Q 3138 1247 3138 1747 
Q 3138 2247 2948 2509 
Q 2759 2772 2400 2772 
z
" transform="scale(0.015625)"/>
     </defs>
     <use xlink:href="#DejaVuSans-Bold-50"/>
     <use xlink:href="#DejaVuSans-Bold-72" x="73.291016"/>
     <use xlink:href="#DejaVuSans-Bold-6f" x="122.607422"/>
     <use xlink:href="#DejaVuSans-Bold-63" x="191.308594"/>
     <use xlink:href="#DejaVuSans-Bold-65" x="250.585938"/>
     <use xlink:href="#DejaVuSans-Bold-73" x="318.408203"/>
     <use xlink:href="#DejaVuSans-Bold-73" x="377.929688"/>
     <use xlink:href="#DejaVuSans-Bold-69" x="437.451172"/>
     <use xlink:href="#DejaVuSans-Bold-6e" x="471.728516"/>
     <use xlink:href="#DejaVuSans-Bold-67" x="542.919922"/>
     <use xlink:href="#DejaVuSans-Bold-53" x="614.501953"/>
     <use xlink:href="#DejaVuSans-Bold-74" x="686.523438"/>
     <use xlink:href="#DejaVuSans-Bold-65" x="734.326172"/>
     <use xlink:href="#DejaVuSans-Bold-70" x="802.148438"/>
    </g>
   </g>
   <g id="text_2">
    <!-- TrainingStep -->
    <g style="fill: #0f172a" transform="translate(277.99535 174.418487) scale(0.11 -0.11)">
     <defs>
      <path id="DejaVuSans-Bold-54" d="M 31 4666 
L 4331 4666 
L 4331 3756 
L 2784 3756 
L 2784 0 
L 1581 0 
L 1581 3756 
L 31 3756 
L 31 4666 
z
" transform="scale(0.015625)"/>
      <path id="DejaVuSans-Bold-61" d="M 2106 1575 
Q 1756 1575 1579 1456 
Q 1403 1338 1403 1106 
Q 1403 894 1545 773 
Q 1688 653 1941 653 
Q 2256 653 2472 879 
Q 2688 1106 2688 1447 
L 2688 1575 
L 2106 1575 
z
M 3816 1997 
L 3816 0 
L 2688 0 
L 2688 519 
Q 2463 200 2181 54 
Q 1900 -91 1497 -91 
Q 953 -91 614 226 
Q 275 544 275 1050 
Q 275 1666 698 1953 
Q 1122 2241 2028 2241 
L 2688 2241 
L 2688 2328 
Q 2688 2594 2478 2717 
Q 2269 2841 1825 2841 
Q 1466 2841 1156 2769 
Q 847 2697 581 2553 
L 581 3406 
Q 941 3494 1303 3539 
Q 1666 3584 2028 3584 
Q 2975 3584 3395 3211 
Q 3816 2838 3816 1997 
z
" transform="scale(0.015625)"/>
     </defs>
     <use xlink:href="#DejaVuSans-Bold-54"/>
     <use xlink:href="#DejaVuSans-Bold-72" x="57.212891"/>
     <use xlink:href="#DejaVuSans-Bold-61" x="106.529297"/>
     <use xlink:href="#DejaVuSans-Bold-69" x="174.009766"/>
     <use xlink:href="#DejaVuSans-Bold-6e" x="208.287109"/>
     <use xlink:href="#DejaVuSans-Bold-69" x="279.478516"/>
     <use xlink:href="#DejaVuSans-Bold-6e" x="313.755859"/>
     <use xlink:href="#DejaVuSans-Bold-67" x="384.947266"/>
     <use xlink:href="#DejaVuSans-Bold-53" x="456.529297"/>
     <use xlink:href="#DejaVuSans-Bold-74" x="528.550781"/>
     <use xlink:href="#DejaVuSans-Bold-65" x="576.353516"/>
     <use xlink:href="#DejaVuSans-Bold-70" x="644.175781"/>
    </g>
   </g>
   <g id="text_3">
    <!-- EvaluationStep -->
    <g style="fill: #0f172a" transform="translate(471.022525 174.461456) scale(0.11 -0.11)">
     <defs>
      <path id="DejaVuSans-Bold-45" d="M 588 4666 
L 3834 4666 
L 3834 3756 
L 1791 3756 
L 1791 2888 
L 3713 2888 
L 3713 1978 
L 1791 1978 
L 1791 909 
L 3903 909 
L 3903 0 
L 588 0 
L 588 4666 
z
" transform="scale(0.015625)"/>
      <path id="DejaVuSans-Bold-76" d="M 97 3500 
L 1216 3500 
L 2088 1081 
L 2956 3500 
L 4078 3500 
L 2700 0 
L 1472 0 
L 97 3500 
z
" transform="scale(0.015625)"/>
      <path id="DejaVuSans-Bold-6c" d="M 538 4863 
L 1656 4863 
L 1656 0 
L 538 0 
L 538 4863 
z
" transform="scale(0.015625)"/>
      <path id="DejaVuSans-Bold-75" d="M 500 1363 
L 500 3500 
L 1625 3500 
L 1625 3150 
Q 1625 2866 1622 2436 
Q 1619 2006 1619 1863 
Q 1619 1441 1641 1255 
Q 1663 1069 1716 984 
Q 1784 875 1895 815 
Q 2006 756 2150 756 
Q 2500 756 2700 1025 
Q 2900 1294 2900 1772 
L 2900 3500 
L 4019 3500 
L 4019 0 
L 2900 0 
L 2900 506 
Q 2647 200 2364 54 
Q 2081 -91 1741 -91 
Q 1134 -91 817 281 
Q 500 653 500 1363 
z
" transform="scale(0.015625)"/>
     </defs>
     <use xlink:href="#DejaVuSans-Bold-45"/>
     <use xlink:href="#DejaVuSans-Bold-76" x="68.310547"/>
     <use xlink:href="#DejaVuSans-Bold-61" x="133.496094"/>
     <use xlink:href="#DejaVuSans-Bold-6c" x="200.976562"/>
     <use xlink:href="#DejaVuSans-Bold-75" x="235.253906"/>
     <use xlink:href="#DejaVuSans-Bold-61" x="306.445312"/>
     <use xlink:href="#DejaVuSans-Bold-74" x="373.925781"/>
     <use xlink:href="#DejaVuSans-Bold-69" x="421.728516"/>
     <use xlink:href="#DejaVuSans-Bold-6f" x="456.005859"/>
     <use xlink:href="#DejaVuSans-Bold-6e" x="524.707031"/>
     <use xlink:href="#DejaVuSans-Bold-53" x="595.898438"/>
     <use xlink:href="#DejaVuSans-Bold-74" x="667.919922"/>
     <use xlink:href="#DejaVuSans-Bold-65" x="715.722656"/>
     <use xlink:href="#DejaVuSans-Bold-70" x="783.544922"/>
    </g>
   </g>
   <g id="text_4">
    <!-- ConditionStep -->
    <g style="fill: #0f172a" transform="translate(474.036353 278.241059) scale(0.11 -0.11)">
     <defs>
      <path id="DejaVuSans-Bold-43" d="M 4288 256 
Q 3956 84 3597 -3 
Q 3238 -91 2847 -91 
Q 1681 -91 1000 561 
Q 319 1213 319 2328 
Q 319 3447 1000 4098 
Q 1681 4750 2847 4750 
Q 3238 4750 3597 4662 
Q 3956 4575 4288 4403 
L 4288 3438 
Q 3953 3666 3628 3772 
Q 3303 3878 2944 3878 
Q 2300 3878 1931 3465 
Q 1563 3053 1563 2328 
Q 1563 1606 1931 1193 
Q 2300 781 2944 781 
Q 3303 781 3628 887 
Q 3953 994 4288 1222 
L 4288 256 
z
" transform="scale(0.015625)"/>
      <path id="DejaVuSans-Bold-64" d="M 2919 2988 
L 2919 4863 
L 4044 4863 
L 4044 0 
L 2919 0 
L 2919 506 
Q 2688 197 2409 53 
Q 2131 -91 1766 -91 
Q 1119 -91 703 423 
Q 288 938 288 1747 
Q 288 2556 703 3070 
Q 1119 3584 1766 3584 
Q 2128 3584 2408 3439 
Q 2688 3294 2919 2988 
z
M 2181 722 
Q 2541 722 2730 984 
Q 2919 1247 2919 1747 
Q 2919 2247 2730 2509 
Q 2541 2772 2181 2772 
Q 1825 2772 1636 2509 
Q 1447 2247 1447 1747 
Q 1447 1247 1636 984 
Q 1825 722 2181 722 
z
" transform="scale(0.015625)"/>
     </defs>
     <use xlink:href="#DejaVuSans-Bold-43"/>
     <use xlink:href="#DejaVuSans-Bold-6f" x="73.388672"/>
     <use xlink:href="#DejaVuSans-Bold-6e" x="142.089844"/>
     <use xlink:href="#DejaVuSans-Bold-64" x="213.28125"/>
     <use xlink:href="#DejaVuSans-Bold-69" x="284.863281"/>
     <use xlink:href="#DejaVuSans-Bold-74" x="319.140625"/>
     <use xlink:href="#DejaVuSans-Bold-69" x="366.943359"/>
     <use xlink:href="#DejaVuSans-Bold-6f" x="401.220703"/>
     <use xlink:href="#DejaVuSans-Bold-6e" x="469.921875"/>
     <use xlink:href="#DejaVuSans-Bold-53" x="541.113281"/>
     <use xlink:href="#DejaVuSans-Bold-74" x="613.134766"/>
     <use xlink:href="#DejaVuSans-Bold-65" x="660.9375"/>
     <use xlink:href="#DejaVuSans-Bold-70" x="728.759766"/>
    </g>
    <!-- AUC &gt; 0.75? -->
    <g style="fill: #0f172a" transform="translate(480.268541 290.558653) scale(0.11 -0.11)">
     <defs>
      <path id="DejaVuSans-Bold-41" d="M 3419 850 
L 1538 850 
L 1241 0 
L 31 0 
L 1759 4666 
L 3194 4666 
L 4922 0 
L 3713 0 
L 3419 850 
z
M 1838 1716 
L 3116 1716 
L 2478 3572 
L 1838 1716 
z
" transform="scale(0.015625)"/>
      <path id="DejaVuSans-Bold-55" d="M 588 4666 
L 1791 4666 
L 1791 1869 
Q 1791 1291 1980 1042 
Q 2169 794 2597 794 
Q 3028 794 3217 1042 
Q 3406 1291 3406 1869 
L 3406 4666 
L 4609 4666 
L 4609 1869 
Q 4609 878 4112 393 
Q 3616 -91 2597 -91 
Q 1581 -91 1084 393 
Q 588 878 588 1869 
L 588 4666 
z
" transform="scale(0.015625)"/>
      <path id="DejaVuSans-Bold-20" transform="scale(0.015625)"/>
      <path id="DejaVuSans-Bold-3e" d="M 678 3041 
L 678 3822 
L 4684 2375 
L 4684 1638 
L 678 191 
L 678 972 
L 3694 2003 
L 678 3041 
z
" transform="scale(0.015625)"/>
      <path id="DejaVuSans-Bold-30" d="M 2944 2338 
Q 2944 3213 2780 3570 
Q 2616 3928 2228 3928 
Q 1841 3928 1675 3570 
Q 1509 3213 1509 2338 
Q 1509 1453 1675 1090 
Q 1841 728 2228 728 
Q 2613 728 2778 1090 
Q 2944 1453 2944 2338 
z
M 4147 2328 
Q 4147 1169 3647 539 
Q 3147 -91 2228 -91 
Q 1306 -91 806 539 
Q 306 1169 306 2328 
Q 306 3491 806 4120 
Q 1306 4750 2228 4750 
Q 3147 4750 3647 4120 
Q 4147 3491 4147 2328 
z
" transform="scale(0.015625)"/>
      <path id="DejaVuSans-Bold-2e" d="M 653 1209 
L 1778 1209 
L 1778 0 
L 653 0 
L 653 1209 
z
" transform="scale(0.015625)"/>
      <path id="DejaVuSans-Bold-37" d="M 428 4666 
L 3944 4666 
L 3944 3988 
L 2125 0 
L 953 0 
L 2675 3781 
L 428 3781 
L 428 4666 
z
" transform="scale(0.015625)"/>
      <path id="DejaVuSans-Bold-35" d="M 678 4666 
L 3669 4666 
L 3669 3781 
L 1638 3781 
L 1638 3059 
Q 1775 3097 1914 3117 
Q 2053 3138 2203 3138 
Q 3056 3138 3531 2711 
Q 4006 2284 4006 1522 
Q 4006 766 3489 337 
Q 2972 -91 2053 -91 
Q 1656 -91 1267 -14 
Q 878 63 494 219 
L 494 1166 
Q 875 947 1217 837 
Q 1559 728 1863 728 
Q 2300 728 2551 942 
Q 2803 1156 2803 1522 
Q 2803 1891 2551 2103 
Q 2300 2316 1863 2316 
Q 1603 2316 1309 2248 
Q 1016 2181 678 2041 
L 678 4666 
z
" transform="scale(0.015625)"/>
      <path id="DejaVuSans-Bold-3f" d="M 2216 1575 
L 1088 1575 
L 1088 1728 
Q 1088 1984 1191 2182 
Q 1294 2381 1625 2688 
L 1825 2869 
Q 2003 3031 2086 3175 
Q 2169 3319 2169 3463 
Q 2169 3681 2019 3804 
Q 1869 3928 1600 3928 
Q 1347 3928 1053 3823 
Q 759 3719 441 3513 
L 441 4494 
Q 819 4625 1131 4687 
Q 1444 4750 1734 4750 
Q 2497 4750 2897 4439 
Q 3297 4128 3297 3531 
Q 3297 3225 3175 2983 
Q 3053 2741 2759 2463 
L 2559 2284 
Q 2347 2091 2281 1973 
Q 2216 1856 2216 1716 
L 2216 1575 
z
M 1088 1113 
L 2216 1113 
L 2216 0 
L 1088 0 
L 1088 1113 
z
" transform="scale(0.015625)"/>
     </defs>
     <use xlink:href="#DejaVuSans-Bold-41"/>
     <use xlink:href="#DejaVuSans-Bold-55" x="74.267578"/>
     <use xlink:href="#DejaVuSans-Bold-43" x="155.46875"/>
     <use xlink:href="#DejaVuSans-Bold-20" x="228.857422"/>
     <use xlink:href="#DejaVuSans-Bold-3e" x="263.671875"/>
     <use xlink:href="#DejaVuSans-Bold-20" x="347.460938"/>
     <use xlink:href="#DejaVuSans-Bold-30" x="382.275391"/>
     <use xlink:href="#DejaVuSans-Bold-2e" x="451.855469"/>
     <use xlink:href="#DejaVuSans-Bold-37" x="489.84375"/>
     <use xlink:href="#DejaVuSans-Bold-35" x="559.423828"/>
     <use xlink:href="#DejaVuSans-Bold-3f" x="629.003906"/>
    </g>
   </g>
   <g id="text_5">
    <!-- RegisterModelStep -->
    <g style="fill: #0f172a" transform="translate(258.166991 385.838487) scale(0.11 -0.11)">
     <defs>
      <path id="DejaVuSans-Bold-52" d="M 2297 2597 
Q 2675 2597 2839 2737 
Q 3003 2878 3003 3200 
Q 3003 3519 2839 3656 
Q 2675 3794 2297 3794 
L 1791 3794 
L 1791 2597 
L 2297 2597 
z
M 1791 1766 
L 1791 0 
L 588 0 
L 588 4666 
L 2425 4666 
Q 3347 4666 3776 4356 
Q 4206 4047 4206 3378 
Q 4206 2916 3982 2619 
Q 3759 2322 3309 2181 
Q 3556 2125 3751 1926 
Q 3947 1728 4147 1325 
L 4800 0 
L 3519 0 
L 2950 1159 
Q 2778 1509 2601 1637 
Q 2425 1766 2131 1766 
L 1791 1766 
z
" transform="scale(0.015625)"/>
      <path id="DejaVuSans-Bold-4d" d="M 588 4666 
L 2119 4666 
L 3181 2169 
L 4250 4666 
L 5778 4666 
L 5778 0 
L 4641 0 
L 4641 3413 
L 3566 897 
L 2803 897 
L 1728 3413 
L 1728 0 
L 588 0 
L 588 4666 
z
" transform="scale(0.015625)"/>
     </defs>
     <use xlink:href="#DejaVuSans-Bold-52"/>
     <use xlink:href="#DejaVuSans-Bold-65" x="77.001953"/>
     <use xlink:href="#DejaVuSans-Bold-67" x="144.824219"/>
     <use xlink:href="#DejaVuSans-Bold-69" x="216.40625"/>
     <use xlink:href="#DejaVuSans-Bold-73" x="250.683594"/>
     <use xlink:href="#DejaVuSans-Bold-74" x="310.205078"/>
     <use xlink:href="#DejaVuSans-Bold-65" x="358.007812"/>
     <use xlink:href="#DejaVuSans-Bold-72" x="425.830078"/>
     <use xlink:href="#DejaVuSans-Bold-4d" x="475.146484"/>
     <use xlink:href="#DejaVuSans-Bold-6f" x="574.658203"/>
     <use xlink:href="#DejaVuSans-Bold-64" x="643.359375"/>
     <use xlink:href="#DejaVuSans-Bold-65" x="714.941406"/>
     <use xlink:href="#DejaVuSans-Bold-6c" x="782.763672"/>
     <use xlink:href="#DejaVuSans-Bold-53" x="817.041016"/>
     <use xlink:href="#DejaVuSans-Bold-74" x="889.0625"/>
     <use xlink:href="#DejaVuSans-Bold-65" x="936.865234"/>
     <use xlink:href="#DejaVuSans-Bold-70" x="1004.6875"/>
    </g>
   </g>
   <g id="text_6">
    <!-- FailStep -->
    <g style="fill: #0f172a" transform="translate(693.573528 379.679691) scale(0.11 -0.11)">
     <defs>
      <path id="DejaVuSans-Bold-46" d="M 588 4666 
L 3834 4666 
L 3834 3756 
L 1791 3756 
L 1791 2888 
L 3713 2888 
L 3713 1978 
L 1791 1978 
L 1791 0 
L 588 0 
L 588 4666 
z
" transform="scale(0.015625)"/>
     </defs>
     <use xlink:href="#DejaVuSans-Bold-46"/>
     <use xlink:href="#DejaVuSans-Bold-61" x="62.435547"/>
     <use xlink:href="#DejaVuSans-Bold-69" x="129.916016"/>
     <use xlink:href="#DejaVuSans-Bold-6c" x="164.193359"/>
     <use xlink:href="#DejaVuSans-Bold-53" x="198.470703"/>
     <use xlink:href="#DejaVuSans-Bold-74" x="270.492188"/>
     <use xlink:href="#DejaVuSans-Bold-65" x="318.294922"/>
     <use xlink:href="#DejaVuSans-Bold-70" x="386.117188"/>
    </g>
    <!-- notify team -->
    <g style="fill: #0f172a" transform="translate(682.844231 391.997284) scale(0.11 -0.11)">
     <defs>
      <path id="DejaVuSans-Bold-66" d="M 2841 4863 
L 2841 4128 
L 2222 4128 
Q 1984 4128 1890 4042 
Q 1797 3956 1797 3744 
L 1797 3500 
L 2753 3500 
L 2753 2700 
L 1797 2700 
L 1797 0 
L 678 0 
L 678 2700 
L 122 2700 
L 122 3500 
L 678 3500 
L 678 3744 
Q 678 4316 997 4589 
Q 1316 4863 1984 4863 
L 2841 4863 
z
" transform="scale(0.015625)"/>
      <path id="DejaVuSans-Bold-79" d="M 78 3500 
L 1197 3500 
L 2138 1125 
L 2938 3500 
L 4056 3500 
L 2584 -331 
Q 2363 -916 2067 -1148 
Q 1772 -1381 1288 -1381 
L 641 -1381 
L 641 -647 
L 991 -647 
Q 1275 -647 1404 -556 
Q 1534 -466 1606 -231 
L 1638 -134 
L 78 3500 
z
" transform="scale(0.015625)"/>
      <path id="DejaVuSans-Bold-6d" d="M 3781 2919 
Q 3994 3244 4286 3414 
Q 4578 3584 4928 3584 
Q 5531 3584 5847 3212 
Q 6163 2841 6163 2131 
L 6163 0 
L 5038 0 
L 5038 1825 
Q 5041 1866 5042 1909 
Q 5044 1953 5044 2034 
Q 5044 2406 4934 2573 
Q 4825 2741 4581 2741 
Q 4263 2741 4089 2478 
Q 3916 2216 3909 1719 
L 3909 0 
L 2784 0 
L 2784 1825 
Q 2784 2406 2684 2573 
Q 2584 2741 2328 2741 
Q 2006 2741 1831 2477 
Q 1656 2213 1656 1722 
L 1656 0 
L 531 0 
L 531 3500 
L 1656 3500 
L 1656 2988 
Q 1863 3284 2130 3434 
Q 2397 3584 2719 3584 
Q 3081 3584 3359 3409 
Q 3638 3234 3781 2919 
z
" transform="scale(0.015625)"/>
     </defs>
     <use xlink:href="#DejaVuSans-Bold-6e"/>
     <use xlink:href="#DejaVuSans-Bold-6f" x="71.191406"/>
     <use xlink:href="#DejaVuSans-Bold-74" x="139.892578"/>
     <use xlink:href="#DejaVuSans-Bold-69" x="187.695312"/>
     <use xlink:href="#DejaVuSans-Bold-66" x="221.972656"/>
     <use xlink:href="#DejaVuSans-Bold-79" x="265.478516"/>
     <use xlink:href="#DejaVuSans-Bold-20" x="330.664062"/>
     <use xlink:href="#DejaVuSans-Bold-74" x="365.478516"/>
     <use xlink:href="#DejaVuSans-Bold-65" x="413.28125"/>
     <use xlink:href="#DejaVuSans-Bold-61" x="481.103516"/>
     <use xlink:href="#DejaVuSans-Bold-6d" x="548.583984"/>
    </g>
   </g>
   <g id="text_7">
    <!-- pass -->
    <g style="fill: #047857" transform="translate(335.6064 239.080544) scale(0.11 -0.11)">
     <defs>
      <path id="DejaVuSans-70" d="M 1159 525 
L 1159 -1331 
L 581 -1331 
L 581 3500 
L 1159 3500 
L 1159 2969 
Q 1341 3281 1617 3432 
Q 1894 3584 2278 3584 
Q 2916 3584 3314 3078 
Q 3713 2572 3713 1747 
Q 3713 922 3314 415 
Q 2916 -91 2278 -91 
Q 1894 -91 1617 61 
Q 1341 213 1159 525 
z
M 3116 1747 
Q 3116 2381 2855 2742 
Q 2594 3103 2138 3103 
Q 1681 3103 1420 2742 
Q 1159 2381 1159 1747 
Q 1159 1113 1420 752 
Q 1681 391 2138 391 
Q 2594 391 2855 752 
Q 3116 1113 3116 1747 
z
" transform="scale(0.015625)"/>
      <path id="DejaVuSans-61" d="M 2194 1759 
Q 1497 1759 1228 1600 
Q 959 1441 959 1056 
Q 959 750 1161 570 
Q 1363 391 1709 391 
Q 2188 391 2477 730 
Q 2766 1069 2766 1631 
L 2766 1759 
L 2194 1759 
z
M 3341 1997 
L 3341 0 
L 2766 0 
L 2766 531 
Q 2569 213 2275 61 
Q 1981 -91 1556 -91 
Q 1019 -91 701 211 
Q 384 513 384 1019 
Q 384 1609 779 1909 
Q 1175 2209 1959 2209 
L 2766 2209 
L 2766 2266 
Q 2766 2663 2505 2880 
Q 2244 3097 1772 3097 
Q 1472 3097 1187 3025 
Q 903 2953 641 2809 
L 641 3341 
Q 956 3463 1253 3523 
Q 1550 3584 1831 3584 
Q 2591 3584 2966 3190 
Q 3341 2797 3341 1997 
z
" transform="scale(0.015625)"/>
      <path id="DejaVuSans-73" d="M 2834 3397 
L 2834 2853 
Q 2591 2978 2328 3040 
Q 2066 3103 1784 3103 
Q 1356 3103 1142 2972 
Q 928 2841 928 2578 
Q 928 2378 1081 2264 
Q 1234 2150 1697 2047 
L 1894 2003 
Q 2506 1872 2764 1633 
Q 3022 1394 3022 966 
Q 3022 478 2636 193 
Q 2250 -91 1575 -91 
Q 1294 -91 989 -36 
Q 684 19 347 128 
L 347 722 
Q 666 556 975 473 
Q 1284 391 1588 391 
Q 1994 391 2212 530 
Q 2431 669 2431 922 
Q 2431 1156 2273 1281 
Q 2116 1406 1581 1522 
L 1381 1569 
Q 847 1681 609 1914 
Q 372 2147 372 2553 
Q 372 3047 722 3315 
Q 1072 3584 1716 3584 
Q 2034 3584 2315 3537 
Q 2597 3491 2834 3397 
z
" transform="scale(0.015625)"/>
     </defs>
     <use xlink:href="#DejaVuSans-70"/>
     <use xlink:href="#DejaVuSans-61" x="63.476562"/>
     <use xlink:href="#DejaVuSans-73" x="124.755859"/>
     <use xlink:href="#DejaVuSans-73" x="176.855469"/>
    </g>
   </g>
   <g id="text_8">
    <!-- fail -->
    <g style="fill: #b91c1c" transform="translate(645.768 239.080544) scale(0.11 -0.11)">
     <defs>
      <path id="DejaVuSans-66" d="M 2375 4863 
L 2375 4384 
L 1825 4384 
Q 1516 4384 1395 4259 
Q 1275 4134 1275 3809 
L 1275 3500 
L 2222 3500 
L 2222 3053 
L 1275 3053 
L 1275 0 
L 697 0 
L 697 3053 
L 147 3053 
L 147 3500 
L 697 3500 
L 697 3744 
Q 697 4328 969 4595 
Q 1241 4863 1831 4863 
L 2375 4863 
z
" transform="scale(0.015625)"/>
      <path id="DejaVuSans-69" d="M 603 3500 
L 1178 3500 
L 1178 0 
L 603 0 
L 603 3500 
z
M 603 4863 
L 1178 4863 
L 1178 4134 
L 603 4134 
L 603 4863 
z
" transform="scale(0.015625)"/>
      <path id="DejaVuSans-6c" d="M 603 4863 
L 1178 4863 
L 1178 0 
L 603 0 
L 603 4863 
z
" transform="scale(0.015625)"/>
     </defs>
     <use xlink:href="#DejaVuSans-66"/>
     <use xlink:href="#DejaVuSans-61" x="35.205078"/>
     <use xlink:href="#DejaVuSans-69" x="96.484375"/>
     <use xlink:href="#DejaVuSans-6c" x="124.267578"/>
    </g>
   </g>
   <g id="text_9">
    <!-- SageMaker Pipeline DAG -->
    <g style="fill: #0f172a" transform="translate(344.864531 20.117344) scale(0.17 -0.17)">
     <defs>
      <path id="DejaVuSans-Bold-6b" d="M 538 4863 
L 1656 4863 
L 1656 2216 
L 2944 3500 
L 4244 3500 
L 2534 1894 
L 4378 0 
L 3022 0 
L 1656 1459 
L 1656 0 
L 538 0 
L 538 4863 
z
" transform="scale(0.015625)"/>
      <path id="DejaVuSans-Bold-44" d="M 1791 3756 
L 1791 909 
L 2222 909 
Q 2959 909 3348 1275 
Q 3738 1641 3738 2338 
Q 3738 3031 3350 3393 
Q 2963 3756 2222 3756 
L 1791 3756 
z
M 588 4666 
L 1856 4666 
Q 2919 4666 3439 4514 
Q 3959 4363 4331 4000 
Q 4659 3684 4818 3271 
Q 4978 2859 4978 2338 
Q 4978 1809 4818 1395 
Q 4659 981 4331 666 
Q 3956 303 3431 151 
Q 2906 0 1856 0 
L 588 0 
L 588 4666 
z
" transform="scale(0.015625)"/>
      <path id="DejaVuSans-Bold-47" d="M 4781 347 
Q 4331 128 3847 18 
Q 3363 -91 2847 -91 
Q 1681 -91 1000 561 
Q 319 1213 319 2328 
Q 319 3456 1012 4103 
Q 1706 4750 2913 4750 
Q 3378 4750 3804 4662 
Q 4231 4575 4609 4403 
L 4609 3438 
Q 4219 3659 3833 3768 
Q 3447 3878 3059 3878 
Q 2341 3878 1952 3476 
Q 1563 3075 1563 2328 
Q 1563 1588 1938 1184 
Q 2313 781 3003 781 
Q 3191 781 3352 804 
Q 3513 828 3641 878 
L 3641 1784 
L 2906 1784 
L 2906 2591 
L 4781 2591 
L 4781 347 
z
" transform="scale(0.015625)"/>
     </defs>
     <use xlink:href="#DejaVuSans-Bold-53"/>
     <use xlink:href="#DejaVuSans-Bold-61" x="72.021484"/>
     <use xlink:href="#DejaVuSans-Bold-67" x="139.501953"/>
     <use xlink:href="#DejaVuSans-Bold-65" x="211.083984"/>
     <use xlink:href="#DejaVuSans-Bold-4d" x="278.90625"/>
     <use xlink:href="#DejaVuSans-Bold-61" x="378.417969"/>
     <use xlink:href="#DejaVuSans-Bold-6b" x="445.898438"/>
     <use xlink:href="#DejaVuSans-Bold-65" x="509.777344"/>
     <use xlink:href="#DejaVuSans-Bold-72" x="577.599609"/>
     <use xlink:href="#DejaVuSans-Bold-20" x="626.916016"/>
     <use xlink:href="#DejaVuSans-Bold-50" x="661.730469"/>
     <use xlink:href="#DejaVuSans-Bold-69" x="735.021484"/>
     <use xlink:href="#DejaVuSans-Bold-70" x="769.298828"/>
     <use xlink:href="#DejaVuSans-Bold-65" x="840.880859"/>
     <use xlink:href="#DejaVuSans-Bold-6c" x="908.703125"/>
     <use xlink:href="#DejaVuSans-Bold-69" x="942.980469"/>
     <use xlink:href="#DejaVuSans-Bold-6e" x="977.257812"/>
     <use xlink:href="#DejaVuSans-Bold-65" x="1048.449219"/>
     <use xlink:href="#DejaVuSans-Bold-20" x="1116.271484"/>
     <use xlink:href="#DejaVuSans-Bold-44" x="1151.085938"/>
     <use xlink:href="#DejaVuSans-Bold-41" x="1234.09375"/>
     <use xlink:href="#DejaVuSans-Bold-47" x="1311.486328"/>
    </g>
   </g>
  </g>
 </g>
 <defs>
  <clipPath id="p3e86c5115b">
   <rect x="7.2" y="36.117344" width="912.24" height="422.84"/>
  </clipPath>
 </defs>
</svg>
