<?xml version="1.0" encoding="utf-8" standalone="no"?>
<!DOCTYPE svg PUBLIC "-//W3C//DTD SVG 1.1//EN"
  "http://www.w3.org/Graphics/SVG/1.1/DTD/svg11.dtd">
<svg xmlns:xlink="http://www.w3.org/1999/xlink" width="739.8pt" height="442.094141pt" viewBox="0 0 739.8 442.094141" xmlns="http://www.w3.org/2000/svg" version="1.1">
 <metadata>
  <rdf:RDF xmlns:dc="http://purl.org/dc/elements/1.1/" xmlns:cc="http://creativecommons.org/ns#" xmlns:rdf="http://www.w3.org/1999/02/22-rdf-syntax-ns#">
   <cc:Work>
    <dc:type rdf:resource="http://purl.org/dc/dcmitype/StillImage"/>
    <dc:date>2026-03-20T03:39:51.847901</dc:date>
    <dc:format>image/svg+xml</dc:format>
    <dc:creator>
     <cc:Agent>
      <dc:title>Matplotlib v3.9.0, https://matplotlib.org/</dc:title>
     </cc:Agent>
    </dc:creator>
   </cc:Work>
  </rdf:RDF>
 </metadata>
 <defs>
  <style type="text/css">*{stroke-linejoin: round; stroke-linecap: butt}</style>
 </defs>
 <g id="figure_1">
  <g id="patch_1">
   <path d="M 0 442.094141 
L 739.8 442.094141 
L 739.8 0 
L 0 0 
z
" style="fill: #ffffff"/>
  </g>
  <g id="axes_1">
   <g id="patch_2">
    <path d="M 23.686364 400.6476 
L 43.47 400.6476 
Q 46.767273 400.6476 46.767273 397.044 
L 46.767273 108.756 
Q 46.767273 105.1524 43.47 105.1524 
L 23.686364 105.1524 
Q 20.389091 105.1524 20.389091 108.756 
L 20.389091 397.044 
Q 20.389091 400.6476 23.686364 400.6476 
z
" clip-path="url(#p31e6405fdb)" style="fill: #dbeafe; stroke: #2563eb; stroke-width: 2; stroke-linejoin: miter"/>
   </g>
   <g id="patch_3">
    <path d="M 89.631818 364.6116 
L 109.415455 364.6116 
Q 112.712727 364.6116 112.712727 361.008 
L 112.712727 144.792 
Q 112.712727 141.1884 109.415455 141.1884 
L 89.631818 141.1884 
Q 86.334545 141.1884 86.334545 144.792 
L 86.334545 361.008 
Q 86.334545 364.6116 89.631818 364.6116 
z
" clip-path="url(#p31e6405fdb)" style="fill: #dcfce7; stroke: #16a34a; stroke-width: 2; stroke-linejoin: miter"/>
   </g>
   <g id="patch_4">
    <path d="M 162.171818 310.5576 
L 181.955455 310.5576 
Q 185.252727 310.5576 185.252727 306.954 
L 185.252727 198.846 
Q 185.252727 195.2424 181.955455 195.2424 
L 162.171818 195.2424 
Q 158.874545 195.2424 158.874545 198.846 
L 158.874545 306.954 
Q 158.874545 310.5576 162.171818 310.5576 
z
" clip-path="url(#p31e6405fdb)" style="fill: #ede9fe; stroke: #7c3aed; stroke-width: 2; stroke-linejoin: miter"/>
   </g>
   <g id="patch_5">
    <path d="M 234.711818 364.6116 
L 254.495455 364.6116 
Q 257.792727 364.6116 257.792727 361.008 
L 257.792727 144.792 
Q 257.792727 141.1884 254.495455 141.1884 
L 234.711818 141.1884 
Q 231.414545 141.1884 231.414545 144.792 
L 231.414545 361.008 
Q 231.414545 364.6116 234.711818 364.6116 
z
" clip-path="url(#p31e6405fdb)" style="fill: #fef3c7; stroke: #f59e0b; stroke-width: 2; stroke-linejoin: miter"/>
   </g>
   <g id="patch_6">
    <path d="M 300.657273 400.6476 
L 320.440909 400.6476 
Q 323.738182 400.6476 323.738182 397.044 
L 323.738182 108.756 
Q 323.738182 105.1524 320.440909 105.1524 
L 300.657273 105.1524 
Q 297.36 105.1524 297.36 108.756 
L 297.36 397.044 
Q 297.36 400.6476 300.657273 400.6476 
z
" clip-path="url(#p31e6405fdb)" style="fill: #dbeafe; stroke: #2563eb; stroke-width: 2; stroke-linejoin: miter"/>
   </g>
   <g id="patch_7">
    <path d="M 45.467603 252.9 
Q 66.551002 252.9 85.398333 252.9 
" clip-path="url(#p31e6405fdb)" style="fill: none; stroke: #475569; stroke-width: 2; stroke-linecap: round"/>
    <path d="M 78.998333 249.7 
L 85.398333 252.9 
L 78.998333 256.1 
" clip-path="url(#p31e6405fdb)" style="fill: none; stroke: #475569; stroke-width: 2; stroke-linecap: round"/>
   </g>
   <g id="patch_8">
    <path d="M 111.41507 252.9 
Q 135.794357 252.9 157.937575 252.9 
" clip-path="url(#p31e6405fdb)" style="fill: none; stroke: #475569; stroke-width: 2; stroke-linecap: round"/>
    <path d="M 151.537575 249.7 
L 157.937575 252.9 
L 151.537575 256.1 
" clip-path="url(#p31e6405fdb)" style="fill: none; stroke: #475569; stroke-width: 2; stroke-linecap: round"/>
   </g>
   <g id="patch_9">
    <path d="M 183.95507 252.9 
Q 208.334357 252.9 230.477575 252.9 
" clip-path="url(#p31e6405fdb)" style="fill: none; stroke: #475569; stroke-width: 2; stroke-linecap: round"/>
    <path d="M 224.077575 249.7 
L 230.477575 252.9 
L 224.077575 256.1 
" clip-path="url(#p31e6405fdb)" style="fill: none; stroke: #475569; stroke-width: 2; stroke-linecap: round"/>
   </g>
   <g id="patch_10">
    <path d="M 256.493058 252.9 
Q 277.576457 252.9 296.423788 252.9 
" clip-path="url(#p31e6405fdb)" style="fill: none; stroke: #475569; stroke-width: 2; stroke-linecap: round"/>
    <path d="M 290.023788 249.7 
L 296.423788 252.9 
L 290.023788 256.1 
" clip-path="url(#p31e6405fdb)" style="fill: none; stroke: #475569; stroke-width: 2; stroke-linecap: round"/>
   </g>
   <g id="patch_11">
    <path d="M 35.578602 101.5488 
Q 99.522951 101.5488 163.4673 101.5488 
" clip-path="url(#p31e6405fdb)" style="fill: none; stroke: #16a34a; stroke-width: 2; stroke-linecap: round"/>
   </g>
   <g id="patch_12">
    <path d="M 180.658602 101.5488 
Q 244.602951 101.5488 308.5473 101.5488 
" clip-path="url(#p31e6405fdb)" style="fill: none; stroke: #f59e0b; stroke-width: 2; stroke-linecap: round"/>
   </g>
   <g id="text_1">
    <!-- Input -->
    <g style="fill: #0f172a" transform="translate(19.377908 422.280516) scale(0.095 -0.095)">
     <defs>
      <path id="DejaVuSans-Bold-49" d="M 588 4666 
L 1791 4666 
L 1791 0 
L 588 0 
L 588 4666 
z
" transform="scale(0.015625)"/>
      <path id="DejaVuSans-Bold-6e" d="M 4056 2131 
L 4056 0 
L 2931 0 
L 2931 347 
L 2931 1631 
Q 2931 2084 2911 2256 
Q 2891 2428 2841 2509 
Q 2775 2619 2662 2680 
Q 2550 2741 2406 2741 
Q 2056 2741 1856 2470 
Q 1656 2200 1656 1722 
L 1656 0 
L 538 0 
L 538 3500 
L 1656 3500 
L 1656 2988 
Q 1909 3294 2193 3439 
Q 2478 3584 2822 3584 
Q 3428 3584 3742 3212 
Q 4056 2841 4056 2131 
z
" transform="scale(0.015625)"/>
      <path id="DejaVuSans-Bold-70" d="M 1656 506 
L 1656 -1331 
L 538 -1331 
L 538 3500 
L 1656 3500 
L 1656 2988 
Q 1888 3294 2169 3439 
Q 2450 3584 2816 3584 
Q 3463 3584 3878 3070 
Q 4294 2556 4294 1747 
Q 4294 938 3878 423 
Q 3463 -91 2816 -91 
Q 2450 -91 2169 54 
Q 1888 200 1656 506 
z
M 2400 2772 
Q 2041 2772 1848 2508 
Q 1656 2244 1656 1747 
Q 1656 1250 1848 986 
Q 2041 722 2400 722 
Q 2759 722 2948 984 
Q 3138 1247 3138 1747 
Q 3138 2247 2948 2509 
Q 2759 2772 2400 2772 
z
" transform="scale(0.015625)"/>
      <path id="DejaVuSans-Bold-75" d="M 500 1363 
L 500 3500 
L 1625 3500 
L 1625 3150 
Q 1625 2866 1622 2436 
Q 1619 2006 1619 1863 
Q 1619 1441 1641 1255 
Q 1663 1069 1716 984 
Q 1784 875 1895 815 
Q 2006 756 2150 756 
Q 2500 756 2700 1025 
Q 2900 1294 2900 1772 
L 2900 3500 
L 4019 3500 
L 4019 0 
L 2900 0 
L 2900 506 
Q 2647 200 2364 54 
Q 2081 -91 1741 -91 
Q 1134 -91 817 281 
Q 500 653 500 1363 
z
" transform="scale(0.015625)"/>
      <path id="DejaVuSans-Bold-74" d="M 1759 4494 
L 1759 3500 
L 2913 3500 
L 2913 2700 
L 1759 2700 
L 1759 1216 
Q 1759 972 1856 886 
Q 1953 800 2241 800 
L 2816 800 
L 2816 0 
L 1856 0 
Q 1194 0 917 276 
Q 641 553 641 1216 
L 641 2700 
L 84 2700 
L 84 3500 
L 641 3500 
L 641 4494 
L 1759 4494 
z
" transform="scale(0.015625)"/>
     </defs>
     <use xlink:href="#DejaVuSans-Bold-49"/>
     <use xlink:href="#DejaVuSans-Bold-6e" x="37.207031"/>
     <use xlink:href="#DejaVuSans-Bold-70" x="108.398438"/>
     <use xlink:href="#DejaVuSans-Bold-75" x="179.980469"/>
     <use xlink:href="#DejaVuSans-Bold-74" x="251.171875"/>
    </g>
    <!-- 784 dims -->
    <g style="fill: #0f172a" transform="translate(9.204744 432.918438) scale(0.095 -0.095)">
     <defs>
      <path id="DejaVuSans-Bold-37" d="M 428 4666 
L 3944 4666 
L 3944 3988 
L 2125 0 
L 953 0 
L 2675 3781 
L 428 3781 
L 428 4666 
z
" transform="scale(0.015625)"/>
      <path id="DejaVuSans-Bold-38" d="M 2228 2088 
Q 1891 2088 1709 1903 
Q 1528 1719 1528 1375 
Q 1528 1031 1709 848 
Q 1891 666 2228 666 
Q 2563 666 2741 848 
Q 2919 1031 2919 1375 
Q 2919 1722 2741 1905 
Q 2563 2088 2228 2088 
z
M 1350 2484 
Q 925 2613 709 2878 
Q 494 3144 494 3541 
Q 494 4131 934 4440 
Q 1375 4750 2228 4750 
Q 3075 4750 3515 4442 
Q 3956 4134 3956 3541 
Q 3956 3144 3739 2878 
Q 3522 2613 3097 2484 
Q 3572 2353 3814 2058 
Q 4056 1763 4056 1313 
Q 4056 619 3595 264 
Q 3134 -91 2228 -91 
Q 1319 -91 855 264 
Q 391 619 391 1313 
Q 391 1763 633 2058 
Q 875 2353 1350 2484 
z
M 1631 3419 
Q 1631 3141 1786 2991 
Q 1941 2841 2228 2841 
Q 2509 2841 2662 2991 
Q 2816 3141 2816 3419 
Q 2816 3697 2662 3845 
Q 2509 3994 2228 3994 
Q 1941 3994 1786 3844 
Q 1631 3694 1631 3419 
z
" transform="scale(0.015625)"/>
      <path id="DejaVuSans-Bold-34" d="M 2356 3675 
L 1038 1722 
L 2356 1722 
L 2356 3675 
z
M 2156 4666 
L 3494 4666 
L 3494 1722 
L 4159 1722 
L 4159 850 
L 3494 850 
L 3494 0 
L 2356 0 
L 2356 850 
L 288 850 
L 288 1881 
L 2156 4666 
z
" transform="scale(0.015625)"/>
      <path id="DejaVuSans-Bold-20" transform="scale(0.015625)"/>
      <path id="DejaVuSans-Bold-64" d="M 2919 2988 
L 2919 4863 
L 4044 4863 
L 4044 0 
L 2919 0 
L 2919 506 
Q 2688 197 2409 53 
Q 2131 -91 1766 -91 
Q 1119 -91 703 423 
Q 288 938 288 1747 
Q 288 2556 703 3070 
Q 1119 3584 1766 3584 
Q 2128 3584 2408 3439 
Q 2688 3294 2919 2988 
z
M 2181 722 
Q 2541 722 2730 984 
Q 2919 1247 2919 1747 
Q 2919 2247 2730 2509 
Q 2541 2772 2181 2772 
Q 1825 2772 1636 2509 
Q 1447 2247 1447 1747 
Q 1447 1247 1636 984 
Q 1825 722 2181 722 
z
" transform="scale(0.015625)"/>
      <path id="DejaVuSans-Bold-69" d="M 538 3500 
L 1656 3500 
L 1656 0 
L 538 0 
L 538 3500 
z
M 538 4863 
L 1656 4863 
L 1656 3950 
L 538 3950 
L 538 4863 
z
" transform="scale(0.015625)"/>
      <path id="DejaVuSans-Bold-6d" d="M 3781 2919 
Q 3994 3244 4286 3414 
Q 4578 3584 4928 3584 
Q 5531 3584 5847 3212 
Q 6163 2841 6163 2131 
L 6163 0 
L 5038 0 
L 5038 1825 
Q 5041 1866 5042 1909 
Q 5044 1953 5044 2034 
Q 5044 2406 4934 2573 
Q 4825 2741 4581 2741 
Q 4263 2741 4089 2478 
Q 3916 2216 3909 1719 
L 3909 0 
L 2784 0 
L 2784 1825 
Q 2784 2406 2684 2573 
Q 2584 2741 2328 2741 
Q 2006 2741 1831 2477 
Q 1656 2213 1656 1722 
L 1656 0 
L 531 0 
L 531 3500 
L 1656 3500 
L 1656 2988 
Q 1863 3284 2130 3434 
Q 2397 3584 2719 3584 
Q 3081 3584 3359 3409 
Q 3638 3234 3781 2919 
z
" transform="scale(0.015625)"/>
      <path id="DejaVuSans-Bold-73" d="M 3272 3391 
L 3272 2541 
Q 2913 2691 2578 2766 
Q 2244 2841 1947 2841 
Q 1628 2841 1473 2761 
Q 1319 2681 1319 2516 
Q 1319 2381 1436 2309 
Q 1553 2238 1856 2203 
L 2053 2175 
Q 2913 2066 3209 1816 
Q 3506 1566 3506 1031 
Q 3506 472 3093 190 
Q 2681 -91 1863 -91 
Q 1516 -91 1145 -36 
Q 775 19 384 128 
L 384 978 
Q 719 816 1070 734 
Q 1422 653 1784 653 
Q 2113 653 2278 743 
Q 2444 834 2444 1013 
Q 2444 1163 2330 1236 
Q 2216 1309 1875 1350 
L 1678 1375 
Q 931 1469 631 1722 
Q 331 1975 331 2491 
Q 331 3047 712 3315 
Q 1094 3584 1881 3584 
Q 2191 3584 2531 3537 
Q 2872 3491 3272 3391 
z
" transform="scale(0.015625)"/>
     </defs>
     <use xlink:href="#DejaVuSans-Bold-37"/>
     <use xlink:href="#DejaVuSans-Bold-38" x="69.580078"/>
     <use xlink:href="#DejaVuSans-Bold-34" x="139.160156"/>
     <use xlink:href="#DejaVuSans-Bold-20" x="208.740234"/>
     <use xlink:href="#DejaVuSans-Bold-64" x="243.554688"/>
     <use xlink:href="#DejaVuSans-Bold-69" x="315.136719"/>
     <use xlink:href="#DejaVuSans-Bold-6d" x="349.414062"/>
     <use xlink:href="#DejaVuSans-Bold-73" x="453.613281"/>
    </g>
   </g>
   <g id="text_2">
    <!-- Encoder -->
    <g style="fill: #0f172a" transform="translate(77.853988 386.244516) scale(0.095 -0.095)">
     <defs>
      <path id="DejaVuSans-Bold-45" d="M 588 4666 
L 3834 4666 
L 3834 3756 
L 1791 3756 
L 1791 2888 
L 3713 2888 
L 3713 1978 
L 1791 1978 
L 1791 909 
L 3903 909 
L 3903 0 
L 588 0 
L 588 4666 
z
" transform="scale(0.015625)"/>
      <path id="DejaVuSans-Bold-63" d="M 3366 3391 
L 3366 2478 
Q 3138 2634 2908 2709 
Q 2678 2784 2431 2784 
Q 1963 2784 1702 2511 
Q 1441 2238 1441 1747 
Q 1441 1256 1702 982 
Q 1963 709 2431 709 
Q 2694 709 2930 787 
Q 3166 866 3366 1019 
L 3366 103 
Q 3103 6 2833 -42 
Q 2563 -91 2291 -91 
Q 1344 -91 809 395 
Q 275 881 275 1747 
Q 275 2613 809 3098 
Q 1344 3584 2291 3584 
Q 2566 3584 2833 3536 
Q 3100 3488 3366 3391 
z
" transform="scale(0.015625)"/>
      <path id="DejaVuSans-Bold-6f" d="M 2203 2784 
Q 1831 2784 1636 2517 
Q 1441 2250 1441 1747 
Q 1441 1244 1636 976 
Q 1831 709 2203 709 
Q 2569 709 2762 976 
Q 2956 1244 2956 1747 
Q 2956 2250 2762 2517 
Q 2569 2784 2203 2784 
z
M 2203 3584 
Q 3106 3584 3614 3096 
Q 4122 2609 4122 1747 
Q 4122 884 3614 396 
Q 3106 -91 2203 -91 
Q 1297 -91 786 396 
Q 275 884 275 1747 
Q 275 2609 786 3096 
Q 1297 3584 2203 3584 
z
" transform="scale(0.015625)"/>
      <path id="DejaVuSans-Bold-65" d="M 4031 1759 
L 4031 1441 
L 1416 1441 
Q 1456 1047 1700 850 
Q 1944 653 2381 653 
Q 2734 653 3104 758 
Q 3475 863 3866 1075 
L 3866 213 
Q 3469 63 3072 -14 
Q 2675 -91 2278 -91 
Q 1328 -91 801 392 
Q 275 875 275 1747 
Q 275 2603 792 3093 
Q 1309 3584 2216 3584 
Q 3041 3584 3536 3087 
Q 4031 2591 4031 1759 
z
M 2881 2131 
Q 2881 2450 2695 2645 
Q 2509 2841 2209 2841 
Q 1884 2841 1681 2658 
Q 1478 2475 1428 2131 
L 2881 2131 
z
" transform="scale(0.015625)"/>
      <path id="DejaVuSans-Bold-72" d="M 3138 2547 
Q 2991 2616 2845 2648 
Q 2700 2681 2553 2681 
Q 2122 2681 1889 2404 
Q 1656 2128 1656 1613 
L 1656 0 
L 538 0 
L 538 3500 
L 1656 3500 
L 1656 2925 
Q 1872 3269 2151 3426 
Q 2431 3584 2822 3584 
Q 2878 3584 2943 3579 
Q 3009 3575 3134 3559 
L 3138 2547 
z
" transform="scale(0.015625)"/>
     </defs>
     <use xlink:href="#DejaVuSans-Bold-45"/>
     <use xlink:href="#DejaVuSans-Bold-6e" x="68.310547"/>
     <use xlink:href="#DejaVuSans-Bold-63" x="139.501953"/>
     <use xlink:href="#DejaVuSans-Bold-6f" x="198.779297"/>
     <use xlink:href="#DejaVuSans-Bold-64" x="267.480469"/>
     <use xlink:href="#DejaVuSans-Bold-65" x="339.0625"/>
     <use xlink:href="#DejaVuSans-Bold-72" x="406.884766"/>
    </g>
    <!-- 512 → 256 -->
    <g style="fill: #0f172a" transform="translate(72.406332 396.882438) scale(0.095 -0.095)">
     <defs>
      <path id="DejaVuSans-Bold-35" d="M 678 4666 
L 3669 4666 
L 3669 3781 
L 1638 3781 
L 1638 3059 
Q 1775 3097 1914 3117 
Q 2053 3138 2203 3138 
Q 3056 3138 3531 2711 
Q 4006 2284 4006 1522 
Q 4006 766 3489 337 
Q 2972 -91 2053 -91 
Q 1656 -91 1267 -14 
Q 878 63 494 219 
L 494 1166 
Q 875 947 1217 837 
Q 1559 728 1863 728 
Q 2300 728 2551 942 
Q 2803 1156 2803 1522 
Q 2803 1891 2551 2103 
Q 2300 2316 1863 2316 
Q 1603 2316 1309 2248 
Q 1016 2181 678 2041 
L 678 4666 
z
" transform="scale(0.015625)"/>
      <path id="DejaVuSans-Bold-31" d="M 750 831 
L 1813 831 
L 1813 3847 
L 722 3622 
L 722 4441 
L 1806 4666 
L 2950 4666 
L 2950 831 
L 4013 831 
L 4013 0 
L 750 0 
L 750 831 
z
" transform="scale(0.015625)"/>
      <path id="DejaVuSans-Bold-32" d="M 1844 884 
L 3897 884 
L 3897 0 
L 506 0 
L 506 884 
L 2209 2388 
Q 2438 2594 2547 2791 
Q 2656 2988 2656 3200 
Q 2656 3528 2436 3728 
Q 2216 3928 1850 3928 
Q 1569 3928 1234 3808 
Q 900 3688 519 3450 
L 519 4475 
Q 925 4609 1322 4679 
Q 1719 4750 2100 4750 
Q 2938 4750 3402 4381 
Q 3866 4013 3866 3353 
Q 3866 2972 3669 2642 
Q 3472 2313 2841 1759 
L 1844 884 
z
" transform="scale(0.015625)"/>
      <path id="DejaVuSans-Bold-2192" d="M 5050 2225 
L 5050 1788 
L 3822 559 
L 3369 1013 
L 3988 1631 
L 366 1631 
L 366 2381 
L 3988 2381 
L 3369 3000 
L 3822 3453 
L 5050 2225 
z
" transform="scale(0.015625)"/>
      <path id="DejaVuSans-Bold-36" d="M 2316 2303 
Q 2000 2303 1842 2098 
Q 1684 1894 1684 1484 
Q 1684 1075 1842 870 
Q 2000 666 2316 666 
Q 2634 666 2792 870 
Q 2950 1075 2950 1484 
Q 2950 1894 2792 2098 
Q 2634 2303 2316 2303 
z
M 3803 4544 
L 3803 3681 
Q 3506 3822 3243 3889 
Q 2981 3956 2731 3956 
Q 2194 3956 1894 3657 
Q 1594 3359 1544 2772 
Q 1750 2925 1990 3001 
Q 2231 3078 2516 3078 
Q 3231 3078 3670 2659 
Q 4109 2241 4109 1563 
Q 4109 813 3618 361 
Q 3128 -91 2303 -91 
Q 1394 -91 895 523 
Q 397 1138 397 2266 
Q 397 3422 980 4083 
Q 1563 4744 2578 4744 
Q 2900 4744 3203 4694 
Q 3506 4644 3803 4544 
z
" transform="scale(0.015625)"/>
     </defs>
     <use xlink:href="#DejaVuSans-Bold-35"/>
     <use xlink:href="#DejaVuSans-Bold-31" x="69.580078"/>
     <use xlink:href="#DejaVuSans-Bold-32" x="139.160156"/>
     <use xlink:href="#DejaVuSans-Bold-20" x="208.740234"/>
     <use xlink:href="#DejaVuSans-Bold-2192" x="243.554688"/>
     <use xlink:href="#DejaVuSans-Bold-20" x="327.34375"/>
     <use xlink:href="#DejaVuSans-Bold-32" x="362.158203"/>
     <use xlink:href="#DejaVuSans-Bold-35" x="431.738281"/>
     <use xlink:href="#DejaVuSans-Bold-36" x="501.318359"/>
    </g>
   </g>
   <g id="text_3">
    <!-- Bottleneck -->
    <g style="fill: #0f172a" transform="translate(143.211097 332.190516) scale(0.095 -0.095)">
     <defs>
      <path id="DejaVuSans-Bold-42" d="M 2456 2859 
Q 2741 2859 2887 2984 
Q 3034 3109 3034 3353 
Q 3034 3594 2887 3720 
Q 2741 3847 2456 3847 
L 1791 3847 
L 1791 2859 
L 2456 2859 
z
M 2497 819 
Q 2859 819 3042 972 
Q 3225 1125 3225 1434 
Q 3225 1738 3044 1889 
Q 2863 2041 2497 2041 
L 1791 2041 
L 1791 819 
L 2497 819 
z
M 3616 2497 
Q 4003 2384 4215 2081 
Q 4428 1778 4428 1338 
Q 4428 663 3972 331 
Q 3516 0 2584 0 
L 588 0 
L 588 4666 
L 2394 4666 
Q 3366 4666 3802 4372 
Q 4238 4078 4238 3431 
Q 4238 3091 4078 2852 
Q 3919 2613 3616 2497 
z
" transform="scale(0.015625)"/>
      <path id="DejaVuSans-Bold-6c" d="M 538 4863 
L 1656 4863 
L 1656 0 
L 538 0 
L 538 4863 
z
" transform="scale(0.015625)"/>
      <path id="DejaVuSans-Bold-6b" d="M 538 4863 
L 1656 4863 
L 1656 2216 
L 2944 3500 
L 4244 3500 
L 2534 1894 
L 4378 0 
L 3022 0 
L 1656 1459 
L 1656 0 
L 538 0 
L 538 4863 
z
" transform="scale(0.015625)"/>
     </defs>
     <use xlink:href="#DejaVuSans-Bold-42"/>
     <use xlink:href="#DejaVuSans-Bold-6f" x="76.220703"/>
     <use xlink:href="#DejaVuSans-Bold-74" x="144.921875"/>
     <use xlink:href="#DejaVuSans-Bold-74" x="192.724609"/>
     <use xlink:href="#DejaVuSans-Bold-6c" x="240.527344"/>
     <use xlink:href="#DejaVuSans-Bold-65" x="274.804688"/>
     <use xlink:href="#DejaVuSans-Bold-6e" x="342.626953"/>
     <use xlink:href="#DejaVuSans-Bold-65" x="413.818359"/>
     <use xlink:href="#DejaVuSans-Bold-63" x="481.640625"/>
     <use xlink:href="#DejaVuSans-Bold-6b" x="540.917969"/>
    </g>
    <!-- (Latent) 32 -->
    <g style="fill: #0f172a" transform="translate(142.08223 342.828438) scale(0.095 -0.095)">
     <defs>
      <path id="DejaVuSans-Bold-28" d="M 2413 -844 
L 1484 -844 
Q 1006 -72 778 623 
Q 550 1319 550 2003 
Q 550 2688 779 3389 
Q 1009 4091 1484 4856 
L 2413 4856 
Q 2013 4116 1813 3408 
Q 1613 2700 1613 2009 
Q 1613 1319 1811 609 
Q 2009 -100 2413 -844 
z
" transform="scale(0.015625)"/>
      <path id="DejaVuSans-Bold-4c" d="M 588 4666 
L 1791 4666 
L 1791 909 
L 3903 909 
L 3903 0 
L 588 0 
L 588 4666 
z
" transform="scale(0.015625)"/>
      <path id="DejaVuSans-Bold-61" d="M 2106 1575 
Q 1756 1575 1579 1456 
Q 1403 1338 1403 1106 
Q 1403 894 1545 773 
Q 1688 653 1941 653 
Q 2256 653 2472 879 
Q 2688 1106 2688 1447 
L 2688 1575 
L 2106 1575 
z
M 3816 1997 
L 3816 0 
L 2688 0 
L 2688 519 
Q 2463 200 2181 54 
Q 1900 -91 1497 -91 
Q 953 -91 614 226 
Q 275 544 275 1050 
Q 275 1666 698 1953 
Q 1122 2241 2028 2241 
L 2688 2241 
L 2688 2328 
Q 2688 2594 2478 2717 
Q 2269 2841 1825 2841 
Q 1466 2841 1156 2769 
Q 847 2697 581 2553 
L 581 3406 
Q 941 3494 1303 3539 
Q 1666 3584 2028 3584 
Q 2975 3584 3395 3211 
Q 3816 2838 3816 1997 
z
" transform="scale(0.015625)"/>
      <path id="DejaVuSans-Bold-29" d="M 513 -844 
Q 913 -100 1113 609 
Q 1313 1319 1313 2009 
Q 1313 2700 1113 3408 
Q 913 4116 513 4856 
L 1441 4856 
Q 1916 4091 2145 3389 
Q 2375 2688 2375 2003 
Q 2375 1319 2147 623 
Q 1919 -72 1441 -844 
L 513 -844 
z
" transform="scale(0.015625)"/>
      <path id="DejaVuSans-Bold-33" d="M 2981 2516 
Q 3453 2394 3698 2092 
Q 3944 1791 3944 1325 
Q 3944 631 3412 270 
Q 2881 -91 1863 -91 
Q 1503 -91 1142 -33 
Q 781 25 428 141 
L 428 1069 
Q 766 900 1098 814 
Q 1431 728 1753 728 
Q 2231 728 2486 893 
Q 2741 1059 2741 1369 
Q 2741 1688 2480 1852 
Q 2219 2016 1709 2016 
L 1228 2016 
L 1228 2791 
L 1734 2791 
Q 2188 2791 2409 2933 
Q 2631 3075 2631 3366 
Q 2631 3634 2415 3781 
Q 2200 3928 1806 3928 
Q 1516 3928 1219 3862 
Q 922 3797 628 3669 
L 628 4550 
Q 984 4650 1334 4700 
Q 1684 4750 2022 4750 
Q 2931 4750 3382 4451 
Q 3834 4153 3834 3553 
Q 3834 3144 3618 2883 
Q 3403 2622 2981 2516 
z
" transform="scale(0.015625)"/>
     </defs>
     <use xlink:href="#DejaVuSans-Bold-28"/>
     <use xlink:href="#DejaVuSans-Bold-4c" x="45.703125"/>
     <use xlink:href="#DejaVuSans-Bold-61" x="109.423828"/>
     <use xlink:href="#DejaVuSans-Bold-74" x="176.904297"/>
     <use xlink:href="#DejaVuSans-Bold-65" x="224.707031"/>
     <use xlink:href="#DejaVuSans-Bold-6e" x="292.529297"/>
     <use xlink:href="#DejaVuSans-Bold-74" x="363.720703"/>
     <use xlink:href="#DejaVuSans-Bold-29" x="411.523438"/>
     <use xlink:href="#DejaVuSans-Bold-20" x="457.226562"/>
     <use xlink:href="#DejaVuSans-Bold-33" x="492.041016"/>
     <use xlink:href="#DejaVuSans-Bold-32" x="561.621094"/>
    </g>
   </g>
   <g id="text_4">
    <!-- Decoder -->
    <g style="fill: #0f172a" transform="translate(222.39516 386.244516) scale(0.095 -0.095)">
     <defs>
      <path id="DejaVuSans-Bold-44" d="M 1791 3756 
L 1791 909 
L 2222 909 
Q 2959 909 3348 1275 
Q 3738 1641 3738 2338 
Q 3738 3031 3350 3393 
Q 2963 3756 2222 3756 
L 1791 3756 
z
M 588 4666 
L 1856 4666 
Q 2919 4666 3439 4514 
Q 3959 4363 4331 4000 
Q 4659 3684 4818 3271 
Q 4978 2859 4978 2338 
Q 4978 1809 4818 1395 
Q 4659 981 4331 666 
Q 3956 303 3431 151 
Q 2906 0 1856 0 
L 588 0 
L 588 4666 
z
" transform="scale(0.015625)"/>
     </defs>
     <use xlink:href="#DejaVuSans-Bold-44"/>
     <use xlink:href="#DejaVuSans-Bold-65" x="83.007812"/>
     <use xlink:href="#DejaVuSans-Bold-63" x="150.830078"/>
     <use xlink:href="#DejaVuSans-Bold-6f" x="210.107422"/>
     <use xlink:href="#DejaVuSans-Bold-64" x="278.808594"/>
     <use xlink:href="#DejaVuSans-Bold-65" x="350.390625"/>
     <use xlink:href="#DejaVuSans-Bold-72" x="418.212891"/>
    </g>
    <!-- 256 → 512 -->
    <g style="fill: #0f172a" transform="translate(217.486332 396.882438) scale(0.095 -0.095)">
     <use xlink:href="#DejaVuSans-Bold-32"/>
     <use xlink:href="#DejaVuSans-Bold-35" x="69.580078"/>
     <use xlink:href="#DejaVuSans-Bold-36" x="139.160156"/>
     <use xlink:href="#DejaVuSans-Bold-20" x="208.740234"/>
     <use xlink:href="#DejaVuSans-Bold-2192" x="243.554688"/>
     <use xlink:href="#DejaVuSans-Bold-20" x="327.34375"/>
     <use xlink:href="#DejaVuSans-Bold-35" x="362.158203"/>
     <use xlink:href="#DejaVuSans-Bold-31" x="431.738281"/>
     <use xlink:href="#DejaVuSans-Bold-32" x="501.318359"/>
    </g>
   </g>
   <g id="text_5">
    <!-- Output -->
    <g style="fill: #0f172a" transform="translate(291.807372 422.280516) scale(0.095 -0.095)">
     <defs>
      <path id="DejaVuSans-Bold-4f" d="M 2719 3878 
Q 2169 3878 1866 3472 
Q 1563 3066 1563 2328 
Q 1563 1594 1866 1187 
Q 2169 781 2719 781 
Q 3272 781 3575 1187 
Q 3878 1594 3878 2328 
Q 3878 3066 3575 3472 
Q 3272 3878 2719 3878 
z
M 2719 4750 
Q 3844 4750 4481 4106 
Q 5119 3463 5119 2328 
Q 5119 1197 4481 553 
Q 3844 -91 2719 -91 
Q 1597 -91 958 553 
Q 319 1197 319 2328 
Q 319 3463 958 4106 
Q 1597 4750 2719 4750 
z
" transform="scale(0.015625)"/>
     </defs>
     <use xlink:href="#DejaVuSans-Bold-4f"/>
     <use xlink:href="#DejaVuSans-Bold-75" x="85.009766"/>
     <use xlink:href="#DejaVuSans-Bold-74" x="156.201172"/>
     <use xlink:href="#DejaVuSans-Bold-70" x="204.003906"/>
     <use xlink:href="#DejaVuSans-Bold-75" x="275.585938"/>
     <use xlink:href="#DejaVuSans-Bold-74" x="346.777344"/>
    </g>
    <!-- 784 dims -->
    <g style="fill: #0f172a" transform="translate(286.175653 432.918438) scale(0.095 -0.095)">
     <use xlink:href="#DejaVuSans-Bold-37"/>
     <use xlink:href="#DejaVuSans-Bold-38" x="69.580078"/>
     <use xlink:href="#DejaVuSans-Bold-34" x="139.160156"/>
     <use xlink:href="#DejaVuSans-Bold-20" x="208.740234"/>
     <use xlink:href="#DejaVuSans-Bold-64" x="243.554688"/>
     <use xlink:href="#DejaVuSans-Bold-69" x="315.136719"/>
     <use xlink:href="#DejaVuSans-Bold-6d" x="349.414062"/>
     <use xlink:href="#DejaVuSans-Bold-73" x="453.613281"/>
    </g>
   </g>
   <g id="text_6">
    <!-- ENCODER -->
    <g style="fill: #16a34a" transform="translate(73.190518 94.3416) scale(0.11 -0.11)">
     <defs>
      <path id="DejaVuSans-Bold-4e" d="M 588 4666 
L 1931 4666 
L 3628 1466 
L 3628 4666 
L 4769 4666 
L 4769 0 
L 3425 0 
L 1728 3200 
L 1728 0 
L 588 0 
L 588 4666 
z
" transform="scale(0.015625)"/>
      <path id="DejaVuSans-Bold-43" d="M 4288 256 
Q 3956 84 3597 -3 
Q 3238 -91 2847 -91 
Q 1681 -91 1000 561 
Q 319 1213 319 2328 
Q 319 3447 1000 4098 
Q 1681 4750 2847 4750 
Q 3238 4750 3597 4662 
Q 3956 4575 4288 4403 
L 4288 3438 
Q 3953 3666 3628 3772 
Q 3303 3878 2944 3878 
Q 2300 3878 1931 3465 
Q 1563 3053 1563 2328 
Q 1563 1606 1931 1193 
Q 2300 781 2944 781 
Q 3303 781 3628 887 
Q 3953 994 4288 1222 
L 4288 256 
z
" transform="scale(0.015625)"/>
      <path id="DejaVuSans-Bold-52" d="M 2297 2597 
Q 2675 2597 2839 2737 
Q 3003 2878 3003 3200 
Q 3003 3519 2839 3656 
Q 2675 3794 2297 3794 
L 1791 3794 
L 1791 2597 
L 2297 2597 
z
M 1791 1766 
L 1791 0 
L 588 0 
L 588 4666 
L 2425 4666 
Q 3347 4666 3776 4356 
Q 4206 4047 4206 3378 
Q 4206 2916 3982 2619 
Q 3759 2322 3309 2181 
Q 3556 2125 3751 1926 
Q 3947 1728 4147 1325 
L 4800 0 
L 3519 0 
L 2950 1159 
Q 2778 1509 2601 1637 
Q 2425 1766 2131 1766 
L 1791 1766 
z
" transform="scale(0.015625)"/>
     </defs>
     <use xlink:href="#DejaVuSans-Bold-45"/>
     <use xlink:href="#DejaVuSans-Bold-4e" x="68.310547"/>
     <use xlink:href="#DejaVuSans-Bold-43" x="152.001953"/>
     <use xlink:href="#DejaVuSans-Bold-4f" x="225.390625"/>
     <use xlink:href="#DejaVuSans-Bold-44" x="310.400391"/>
     <use xlink:href="#DejaVuSans-Bold-45" x="393.408203"/>
     <use xlink:href="#DejaVuSans-Bold-52" x="461.71875"/>
    </g>
   </g>
   <g id="text_7">
    <!-- DECODER -->
    <g style="fill: #f59e0b" transform="translate(211.712926 94.3416) scale(0.11 -0.11)">
     <use xlink:href="#DejaVuSans-Bold-44"/>
     <use xlink:href="#DejaVuSans-Bold-45" x="83.007812"/>
     <use xlink:href="#DejaVuSans-Bold-43" x="151.318359"/>
     <use xlink:href="#DejaVuSans-Bold-4f" x="224.707031"/>
     <use xlink:href="#DejaVuSans-Bold-44" x="309.716797"/>
     <use xlink:href="#DejaVuSans-Bold-45" x="392.724609"/>
     <use xlink:href="#DejaVuSans-Bold-52" x="461.035156"/>
    </g>
   </g>
   <g id="text_8">
    <!-- Bottleneck forces compression → learns essential features -->
    <g style="fill: #7c3aed" transform="translate(7.257386 115.9632) scale(0.1 -0.1)">
     <defs>
      <path id="DejaVuSans-Bold-66" d="M 2841 4863 
L 2841 4128 
L 2222 4128 
Q 1984 4128 1890 4042 
Q 1797 3956 1797 3744 
L 1797 3500 
L 2753 3500 
L 2753 2700 
L 1797 2700 
L 1797 0 
L 678 0 
L 678 2700 
L 122 2700 
L 122 3500 
L 678 3500 
L 678 3744 
Q 678 4316 997 4589 
Q 1316 4863 1984 4863 
L 2841 4863 
z
" transform="scale(0.015625)"/>
     </defs>
     <use xlink:href="#DejaVuSans-Bold-42"/>
     <use xlink:href="#DejaVuSans-Bold-6f" x="76.220703"/>
     <use xlink:href="#DejaVuSans-Bold-74" x="144.921875"/>
     <use xlink:href="#DejaVuSans-Bold-74" x="192.724609"/>
     <use xlink:href="#DejaVuSans-Bold-6c" x="240.527344"/>
     <use xlink:href="#DejaVuSans-Bold-65" x="274.804688"/>
     <use xlink:href="#DejaVuSans-Bold-6e" x="342.626953"/>
     <use xlink:href="#DejaVuSans-Bold-65" x="413.818359"/>
     <use xlink:href="#DejaVuSans-Bold-63" x="481.640625"/>
     <use xlink:href="#DejaVuSans-Bold-6b" x="540.917969"/>
     <use xlink:href="#DejaVuSans-Bold-20" x="607.421875"/>
     <use xlink:href="#DejaVuSans-Bold-66" x="642.236328"/>
     <use xlink:href="#DejaVuSans-Bold-6f" x="685.742188"/>
     <use xlink:href="#DejaVuSans-Bold-72" x="754.443359"/>
     <use xlink:href="#DejaVuSans-Bold-63" x="803.759766"/>
     <use xlink:href="#DejaVuSans-Bold-65" x="863.037109"/>
     <use xlink:href="#DejaVuSans-Bold-73" x="930.859375"/>
     <use xlink:href="#DejaVuSans-Bold-20" x="990.380859"/>
     <use xlink:href="#DejaVuSans-Bold-63" x="1025.195312"/>
     <use xlink:href="#DejaVuSans-Bold-6f" x="1084.472656"/>
     <use xlink:href="#DejaVuSans-Bold-6d" x="1153.173828"/>
     <use xlink:href="#DejaVuSans-Bold-70" x="1257.373047"/>
     <use xlink:href="#DejaVuSans-Bold-72" x="1328.955078"/>
     <use xlink:href="#DejaVuSans-Bold-65" x="1378.271484"/>
     <use xlink:href="#DejaVuSans-Bold-73" x="1446.09375"/>
     <use xlink:href="#DejaVuSans-Bold-73" x="1505.615234"/>
     <use xlink:href="#DejaVuSans-Bold-69" x="1565.136719"/>
     <use xlink:href="#DejaVuSans-Bold-6f" x="1599.414062"/>
     <use xlink:href="#DejaVuSans-Bold-6e" x="1668.115234"/>
     <use xlink:href="#DejaVuSans-Bold-20" x="1739.306641"/>
     <use xlink:href="#DejaVuSans-Bold-2192" x="1774.121094"/>
     <use xlink:href="#DejaVuSans-Bold-20" x="1857.910156"/>
     <use xlink:href="#DejaVuSans-Bold-6c" x="1892.724609"/>
     <use xlink:href="#DejaVuSans-Bold-65" x="1927.001953"/>
     <use xlink:href="#DejaVuSans-Bold-61" x="1994.824219"/>
     <use xlink:href="#DejaVuSans-Bold-72" x="2062.304688"/>
     <use xlink:href="#DejaVuSans-Bold-6e" x="2111.621094"/>
     <use xlink:href="#DejaVuSans-Bold-73" x="2182.8125"/>
     <use xlink:href="#DejaVuSans-Bold-20" x="2242.333984"/>
     <use xlink:href="#DejaVuSans-Bold-65" x="2277.148438"/>
     <use xlink:href="#DejaVuSans-Bold-73" x="2344.970703"/>
     <use xlink:href="#DejaVuSans-Bold-73" x="2404.492188"/>
     <use xlink:href="#DejaVuSans-Bold-65" x="2464.013672"/>
     <use xlink:href="#DejaVuSans-Bold-6e" x="2531.835938"/>
     <use xlink:href="#DejaVuSans-Bold-74" x="2603.027344"/>
     <use xlink:href="#DejaVuSans-Bold-69" x="2650.830078"/>
     <use xlink:href="#DejaVuSans-Bold-61" x="2685.107422"/>
     <use xlink:href="#DejaVuSans-Bold-6c" x="2752.587891"/>
     <use xlink:href="#DejaVuSans-Bold-20" x="2786.865234"/>
     <use xlink:href="#DejaVuSans-Bold-66" x="2821.679688"/>
     <use xlink:href="#DejaVuSans-Bold-65" x="2865.185547"/>
     <use xlink:href="#DejaVuSans-Bold-61" x="2933.007812"/>
     <use xlink:href="#DejaVuSans-Bold-74" x="3000.488281"/>
     <use xlink:href="#DejaVuSans-Bold-75" x="3048.291016"/>
     <use xlink:href="#DejaVuSans-Bold-72" x="3119.482422"/>
     <use xlink:href="#DejaVuSans-Bold-65" x="3168.798828"/>
     <use xlink:href="#DejaVuSans-Bold-73" x="3236.621094"/>
    </g>
   </g>
   <g id="text_9">
    <g id="patch_13">
     <path d="M 41.938793 411.244794 
L 302.18848 411.244794 
Q 306.58848 411.244794 306.58848 406.844794 
L 306.58848 395.844794 
Q 306.58848 391.444794 302.18848 391.444794 
L 41.938793 391.444794 
Q 37.538793 391.444794 37.538793 395.844794 
L 37.538793 406.844794 
Q 37.538793 411.244794 41.938793 411.244794 
z
" style="fill: #f8fafc; stroke: #cbd5e1; stroke-linejoin: miter"/>
    </g>
    <!-- Loss = ||input - output||²  (reconstruction error) -->
    <g style="fill: #334155" transform="translate(41.938793 404.2512) scale(0.11 -0.11)">
     <defs>
      <path id="DejaVuSans-4c" d="M 628 4666 
L 1259 4666 
L 1259 531 
L 3531 531 
L 3531 0 
L 628 0 
L 628 4666 
z
" transform="scale(0.015625)"/>
      <path id="DejaVuSans-6f" d="M 1959 3097 
Q 1497 3097 1228 2736 
Q 959 2375 959 1747 
Q 959 1119 1226 758 
Q 1494 397 1959 397 
Q 2419 397 2687 759 
Q 2956 1122 2956 1747 
Q 2956 2369 2687 2733 
Q 2419 3097 1959 3097 
z
M 1959 3584 
Q 2709 3584 3137 3096 
Q 3566 2609 3566 1747 
Q 3566 888 3137 398 
Q 2709 -91 1959 -91 
Q 1206 -91 779 398 
Q 353 888 353 1747 
Q 353 2609 779 3096 
Q 1206 3584 1959 3584 
z
" transform="scale(0.015625)"/>
      <path id="DejaVuSans-73" d="M 2834 3397 
L 2834 2853 
Q 2591 2978 2328 3040 
Q 2066 3103 1784 3103 
Q 1356 3103 1142 2972 
Q 928 2841 928 2578 
Q 928 2378 1081 2264 
Q 1234 2150 1697 2047 
L 1894 2003 
Q 2506 1872 2764 1633 
Q 3022 1394 3022 966 
Q 3022 478 2636 193 
Q 2250 -91 1575 -91 
Q 1294 -91 989 -36 
Q 684 19 347 128 
L 347 722 
Q 666 556 975 473 
Q 1284 391 1588 391 
Q 1994 391 2212 530 
Q 2431 669 2431 922 
Q 2431 1156 2273 1281 
Q 2116 1406 1581 1522 
L 1381 1569 
Q 847 1681 609 1914 
Q 372 2147 372 2553 
Q 372 3047 722 3315 
Q 1072 3584 1716 3584 
Q 2034 3584 2315 3537 
Q 2597 3491 2834 3397 
z
" transform="scale(0.015625)"/>
      <path id="DejaVuSans-20" transform="scale(0.015625)"/>
      <path id="DejaVuSans-3d" d="M 678 2906 
L 4684 2906 
L 4684 2381 
L 678 2381 
L 678 2906 
z
M 678 1631 
L 4684 1631 
L 4684 1100 
L 678 1100 
L 678 1631 
z
" transform="scale(0.015625)"/>
      <path id="DejaVuSans-7c" d="M 1344 4891 
L 1344 -1509 
L 813 -1509 
L 813 4891 
L 1344 4891 
z
" transform="scale(0.015625)"/>
      <path id="DejaVuSans-69" d="M 603 3500 
L 1178 3500 
L 1178 0 
L 603 0 
L 603 3500 
z
M 603 4863 
L 1178 4863 
L 1178 4134 
L 603 4134 
L 603 4863 
z
" transform="scale(0.015625)"/>
      <path id="DejaVuSans-6e" d="M 3513 2113 
L 3513 0 
L 2938 0 
L 2938 2094 
Q 2938 2591 2744 2837 
Q 2550 3084 2163 3084 
Q 1697 3084 1428 2787 
Q 1159 2491 1159 1978 
L 1159 0 
L 581 0 
L 581 3500 
L 1159 3500 
L 1159 2956 
Q 1366 3272 1645 3428 
Q 1925 3584 2291 3584 
Q 2894 3584 3203 3211 
Q 3513 2838 3513 2113 
z
" transform="scale(0.015625)"/>
      <path id="DejaVuSans-70" d="M 1159 525 
L 1159 -1331 
L 581 -1331 
L 581 3500 
L 1159 3500 
L 1159 2969 
Q 1341 3281 1617 3432 
Q 1894 3584 2278 3584 
Q 2916 3584 3314 3078 
Q 3713 2572 3713 1747 
Q 3713 922 3314 415 
Q 2916 -91 2278 -91 
Q 1894 -91 1617 61 
Q 1341 213 1159 525 
z
M 3116 1747 
Q 3116 2381 2855 2742 
Q 2594 3103 2138 3103 
Q 1681 3103 1420 2742 
Q 1159 2381 1159 1747 
Q 1159 1113 1420 752 
Q 1681 391 2138 391 
Q 2594 391 2855 752 
Q 3116 1113 3116 1747 
z
" transform="scale(0.015625)"/>
      <path id="DejaVuSans-75" d="M 544 1381 
L 544 3500 
L 1119 3500 
L 1119 1403 
Q 1119 906 1312 657 
Q 1506 409 1894 409 
Q 2359 409 2629 706 
Q 2900 1003 2900 1516 
L 2900 3500 
L 3475 3500 
L 3475 0 
L 2900 0 
L 2900 538 
Q 2691 219 2414 64 
Q 2138 -91 1772 -91 
Q 1169 -91 856 284 
Q 544 659 544 1381 
z
M 1991 3584 
L 1991 3584 
z
" transform="scale(0.015625)"/>
      <path id="DejaVuSans-74" d="M 1172 4494 
L 1172 3500 
L 2356 3500 
L 2356 3053 
L 1172 3053 
L 1172 1153 
Q 1172 725 1289 603 
Q 1406 481 1766 481 
L 2356 481 
L 2356 0 
L 1766 0 
Q 1100 0 847 248 
Q 594 497 594 1153 
L 594 3053 
L 172 3053 
L 172 3500 
L 594 3500 
L 594 4494 
L 1172 4494 
z
" transform="scale(0.015625)"/>
      <path id="DejaVuSans-2d" d="M 313 2009 
L 1997 2009 
L 1997 1497 
L 313 1497 
L 313 2009 
z
" transform="scale(0.015625)"/>
      <path id="DejaVuSans-b2" d="M 838 2444 
L 2163 2444 
L 2163 2088 
L 294 2088 
L 294 2431 
Q 400 2528 597 2703 
Q 1672 3656 1672 3950 
Q 1672 4156 1509 4282 
Q 1347 4409 1081 4409 
Q 919 4409 728 4354 
Q 538 4300 313 4191 
L 313 4575 
Q 553 4663 761 4706 
Q 969 4750 1147 4750 
Q 1600 4750 1872 4544 
Q 2144 4338 2144 4000 
Q 2144 3566 1109 2678 
Q 934 2528 838 2444 
z
" transform="scale(0.015625)"/>
      <path id="DejaVuSans-28" d="M 1984 4856 
Q 1566 4138 1362 3434 
Q 1159 2731 1159 2009 
Q 1159 1288 1364 580 
Q 1569 -128 1984 -844 
L 1484 -844 
Q 1016 -109 783 600 
Q 550 1309 550 2009 
Q 550 2706 781 3412 
Q 1013 4119 1484 4856 
L 1984 4856 
z
" transform="scale(0.015625)"/>
      <path id="DejaVuSans-72" d="M 2631 2963 
Q 2534 3019 2420 3045 
Q 2306 3072 2169 3072 
Q 1681 3072 1420 2755 
Q 1159 2438 1159 1844 
L 1159 0 
L 581 0 
L 581 3500 
L 1159 3500 
L 1159 2956 
Q 1341 3275 1631 3429 
Q 1922 3584 2338 3584 
Q 2397 3584 2469 3576 
Q 2541 3569 2628 3553 
L 2631 2963 
z
" transform="scale(0.015625)"/>
      <path id="DejaVuSans-65" d="M 3597 1894 
L 3597 1613 
L 953 1613 
Q 991 1019 1311 708 
Q 1631 397 2203 397 
Q 2534 397 2845 478 
Q 3156 559 3463 722 
L 3463 178 
Q 3153 47 2828 -22 
Q 2503 -91 2169 -91 
Q 1331 -91 842 396 
Q 353 884 353 1716 
Q 353 2575 817 3079 
Q 1281 3584 2069 3584 
Q 2775 3584 3186 3129 
Q 3597 2675 3597 1894 
z
M 3022 2063 
Q 3016 2534 2758 2815 
Q 2500 3097 2075 3097 
Q 1594 3097 1305 2825 
Q 1016 2553 972 2059 
L 3022 2063 
z
" transform="scale(0.015625)"/>
      <path id="DejaVuSans-63" d="M 3122 3366 
L 3122 2828 
Q 2878 2963 2633 3030 
Q 2388 3097 2138 3097 
Q 1578 3097 1268 2742 
Q 959 2388 959 1747 
Q 959 1106 1268 751 
Q 1578 397 2138 397 
Q 2388 397 2633 464 
Q 2878 531 3122 666 
L 3122 134 
Q 2881 22 2623 -34 
Q 2366 -91 2075 -91 
Q 1284 -91 818 406 
Q 353 903 353 1747 
Q 353 2603 823 3093 
Q 1294 3584 2113 3584 
Q 2378 3584 2631 3529 
Q 2884 3475 3122 3366 
z
" transform="scale(0.015625)"/>
      <path id="DejaVuSans-29" d="M 513 4856 
L 1013 4856 
Q 1481 4119 1714 3412 
Q 1947 2706 1947 2009 
Q 1947 1309 1714 600 
Q 1481 -109 1013 -844 
L 513 -844 
Q 928 -128 1133 580 
Q 1338 1288 1338 2009 
Q 1338 2731 1133 3434 
Q 928 4138 513 4856 
z
" transform="scale(0.015625)"/>
     </defs>
     <use xlink:href="#DejaVuSans-4c"/>
     <use xlink:href="#DejaVuSans-6f" x="53.962891"/>
     <use xlink:href="#DejaVuSans-73" x="115.144531"/>
     <use xlink:href="#DejaVuSans-73" x="167.244141"/>
     <use xlink:href="#DejaVuSans-20" x="219.34375"/>
     <use xlink:href="#DejaVuSans-3d" x="251.130859"/>
     <use xlink:href="#DejaVuSans-20" x="334.919922"/>
     <use xlink:href="#DejaVuSans-7c" x="366.707031"/>
     <use xlink:href="#DejaVuSans-7c" x="400.398438"/>
     <use xlink:href="#DejaVuSans-69" x="434.089844"/>
     <use xlink:href="#DejaVuSans-6e" x="461.873047"/>
     <use xlink:href="#DejaVuSans-70" x="525.251953"/>
     <use xlink:href="#DejaVuSans-75" x="588.728516"/>
     <use xlink:href="#DejaVuSans-74" x="652.107422"/>
     <use xlink:href="#DejaVuSans-20" x="691.316406"/>
     <use xlink:href="#DejaVuSans-2d" x="723.103516"/>
     <use xlink:href="#DejaVuSans-20" x="759.1875"/>
     <use xlink:href="#DejaVuSans-6f" x="790.974609"/>
     <use xlink:href="#DejaVuSans-75" x="852.15625"/>
     <use xlink:href="#DejaVuSans-74" x="915.535156"/>
     <use xlink:href="#DejaVuSans-70" x="954.744141"/>
     <use xlink:href="#DejaVuSans-75" x="1018.220703"/>
     <use xlink:href="#DejaVuSans-74" x="1081.599609"/>
     <use xlink:href="#DejaVuSans-7c" x="1120.808594"/>
     <use xlink:href="#DejaVuSans-7c" x="1154.5"/>
     <use xlink:href="#DejaVuSans-b2" x="1188.191406"/>
     <use xlink:href="#DejaVuSans-20" x="1228.279297"/>
     <use xlink:href="#DejaVuSans-20" x="1260.066406"/>
     <use xlink:href="#DejaVuSans-28" x="1291.853516"/>
     <use xlink:href="#DejaVuSans-72" x="1330.867188"/>
     <use xlink:href="#DejaVuSans-65" x="1369.730469"/>
     <use xlink:href="#DejaVuSans-63" x="1431.253906"/>
     <use xlink:href="#DejaVuSans-6f" x="1486.234375"/>
     <use xlink:href="#DejaVuSans-6e" x="1547.416016"/>
     <use xlink:href="#DejaVuSans-73" x="1610.794922"/>
     <use xlink:href="#DejaVuSans-74" x="1662.894531"/>
     <use xlink:href="#DejaVuSans-72" x="1702.103516"/>
     <use xlink:href="#DejaVuSans-75" x="1743.216797"/>
     <use xlink:href="#DejaVuSans-63" x="1806.595703"/>
     <use xlink:href="#DejaVuSans-74" x="1861.576172"/>
     <use xlink:href="#DejaVuSans-69" x="1900.785156"/>
     <use xlink:href="#DejaVuSans-6f" x="1928.568359"/>
     <use xlink:href="#DejaVuSans-6e" x="1989.75"/>
     <use xlink:href="#DejaVuSans-20" x="2053.128906"/>
     <use xlink:href="#DejaVuSans-65" x="2084.916016"/>
     <use xlink:href="#DejaVuSans-72" x="2146.439453"/>
     <use xlink:href="#DejaVuSans-72" x="2185.802734"/>
     <use xlink:href="#DejaVuSans-6f" x="2224.666016"/>
     <use xlink:href="#DejaVuSans-72" x="2285.847656"/>
     <use xlink:href="#DejaVuSans-29" x="2326.960938"/>
    </g>
   </g>
   <g id="text_10">
    <!-- Architecture -->
    <g style="fill: #0f172a" transform="translate(126.402152 66.72) scale(0.13 -0.13)">
     <defs>
      <path id="DejaVuSans-Bold-41" d="M 3419 850 
L 1538 850 
L 1241 0 
L 31 0 
L 1759 4666 
L 3194 4666 
L 4922 0 
L 3713 0 
L 3419 850 
z
M 1838 1716 
L 3116 1716 
L 2478 3572 
L 1838 1716 
z
" transform="scale(0.015625)"/>
      <path id="DejaVuSans-Bold-68" d="M 4056 2131 
L 4056 0 
L 2931 0 
L 2931 347 
L 2931 1625 
Q 2931 2084 2911 2256 
Q 2891 2428 2841 2509 
Q 2775 2619 2662 2680 
Q 2550 2741 2406 2741 
Q 2056 2741 1856 2470 
Q 1656 2200 1656 1722 
L 1656 0 
L 538 0 
L 538 4863 
L 1656 4863 
L 1656 2988 
Q 1909 3294 2193 3439 
Q 2478 3584 2822 3584 
Q 3428 3584 3742 3212 
Q 4056 2841 4056 2131 
z
" transform="scale(0.015625)"/>
     </defs>
     <use xlink:href="#DejaVuSans-Bold-41"/>
     <use xlink:href="#DejaVuSans-Bold-72" x="77.392578"/>
     <use xlink:href="#DejaVuSans-Bold-63" x="126.708984"/>
     <use xlink:href="#DejaVuSans-Bold-68" x="185.986328"/>
     <use xlink:href="#DejaVuSans-Bold-69" x="257.177734"/>
     <use xlink:href="#DejaVuSans-Bold-74" x="291.455078"/>
     <use xlink:href="#DejaVuSans-Bold-65" x="339.257812"/>
     <use xlink:href="#DejaVuSans-Bold-63" x="407.080078"/>
     <use xlink:href="#DejaVuSans-Bold-74" x="466.357422"/>
     <use xlink:href="#DejaVuSans-Bold-75" x="514.160156"/>
     <use xlink:href="#DejaVuSans-Bold-72" x="585.351562"/>
     <use xlink:href="#DejaVuSans-Bold-65" x="634.667969"/>
    </g>
   </g>
  </g>
  <g id="axes_2">
   <g id="patch_14">
    <path d="M 498.493636 151.9992 
L 636.979091 151.9992 
Q 643.573636 151.9992 643.573636 144.792 
L 643.573636 115.9632 
Q 643.573636 108.756 636.979091 108.756 
L 498.493636 108.756 
Q 491.899091 108.756 491.899091 115.9632 
L 491.899091 144.792 
Q 491.899091 151.9992 498.493636 151.9992 
z
" clip-path="url(#pdd87d22382)" style="fill: #eff6ff; stroke: #60a5fa; stroke-width: 1.8; stroke-linejoin: miter"/>
   </g>
   <g id="patch_15">
    <path d="M 422.656364 218.6658 
L 712.816364 218.6658 
Q 719.410909 218.6658 719.410909 211.4586 
L 719.410909 164.6118 
Q 719.410909 157.4046 712.816364 157.4046 
L 422.656364 157.4046 
Q 416.061818 157.4046 416.061818 164.6118 
L 416.061818 211.4586 
Q 416.061818 218.6658 422.656364 218.6658 
z
" clip-path="url(#pdd87d22382)" style="fill: #fef3c7; stroke: #f59e0b; stroke-width: 1.8; stroke-linejoin: miter"/>
   </g>
   <g id="patch_16">
    <path d="M 422.656364 283.5306 
L 712.816364 283.5306 
Q 719.410909 283.5306 719.410909 276.3234 
L 719.410909 229.4766 
Q 719.410909 222.2694 712.816364 222.2694 
L 422.656364 222.2694 
Q 416.061818 222.2694 416.061818 229.4766 
L 416.061818 276.3234 
Q 416.061818 283.5306 422.656364 283.5306 
z
" clip-path="url(#pdd87d22382)" style="fill: #dbeafe; stroke: #2563eb; stroke-width: 1.8; stroke-linejoin: miter"/>
   </g>
   <g id="patch_17">
    <path d="M 422.656364 344.7918 
L 712.816364 344.7918 
Q 719.410909 344.7918 719.410909 337.5846 
L 719.410909 290.7378 
Q 719.410909 283.5306 712.816364 283.5306 
L 422.656364 283.5306 
Q 416.061818 283.5306 416.061818 290.7378 
L 416.061818 337.5846 
Q 416.061818 344.7918 422.656364 344.7918 
z
" clip-path="url(#pdd87d22382)" style="fill: #dcfce7; stroke: #16a34a; stroke-width: 1.8; stroke-linejoin: miter"/>
   </g>
   <g id="patch_18">
    <path d="M 422.656364 406.053 
L 712.816364 406.053 
Q 719.410909 406.053 719.410909 398.8458 
L 719.410909 351.999 
Q 719.410909 344.7918 712.816364 344.7918 
L 422.656364 344.7918 
Q 416.061818 344.7918 416.061818 351.999 
L 416.061818 398.8458 
Q 416.061818 406.053 422.656364 406.053 
z
" clip-path="url(#pdd87d22382)" style="fill: #ede9fe; stroke: #7c3aed; stroke-width: 1.8; stroke-linejoin: miter"/>
   </g>
   <g id="text_11">
    <!-- 5 Key Uses of Autoencoders -->
    <g style="fill: #0f172a" transform="translate(473.046989 134.090325) scale(0.12 -0.12)">
     <defs>
      <path id="DejaVuSans-Bold-4b" d="M 588 4666 
L 1791 4666 
L 1791 2963 
L 3525 4666 
L 4922 4666 
L 2675 2456 
L 5153 0 
L 3647 0 
L 1791 1838 
L 1791 0 
L 588 0 
L 588 4666 
z
" transform="scale(0.015625)"/>
      <path id="DejaVuSans-Bold-79" d="M 78 3500 
L 1197 3500 
L 2138 1125 
L 2938 3500 
L 4056 3500 
L 2584 -331 
Q 2363 -916 2067 -1148 
Q 1772 -1381 1288 -1381 
L 641 -1381 
L 641 -647 
L 991 -647 
Q 1275 -647 1404 -556 
Q 1534 -466 1606 -231 
L 1638 -134 
L 78 3500 
z
" transform="scale(0.015625)"/>
      <path id="DejaVuSans-Bold-55" d="M 588 4666 
L 1791 4666 
L 1791 1869 
Q 1791 1291 1980 1042 
Q 2169 794 2597 794 
Q 3028 794 3217 1042 
Q 3406 1291 3406 1869 
L 3406 4666 
L 4609 4666 
L 4609 1869 
Q 4609 878 4112 393 
Q 3616 -91 2597 -91 
Q 1581 -91 1084 393 
Q 588 878 588 1869 
L 588 4666 
z
" transform="scale(0.015625)"/>
     </defs>
     <use xlink:href="#DejaVuSans-Bold-35"/>
     <use xlink:href="#DejaVuSans-Bold-20" x="69.580078"/>
     <use xlink:href="#DejaVuSans-Bold-4b" x="104.394531"/>
     <use xlink:href="#DejaVuSans-Bold-65" x="180.134766"/>
     <use xlink:href="#DejaVuSans-Bold-79" x="247.957031"/>
     <use xlink:href="#DejaVuSans-Bold-20" x="313.142578"/>
     <use xlink:href="#DejaVuSans-Bold-55" x="347.957031"/>
     <use xlink:href="#DejaVuSans-Bold-73" x="429.158203"/>
     <use xlink:href="#DejaVuSans-Bold-65" x="488.679688"/>
     <use xlink:href="#DejaVuSans-Bold-73" x="556.501953"/>
     <use xlink:href="#DejaVuSans-Bold-20" x="616.023438"/>
     <use xlink:href="#DejaVuSans-Bold-6f" x="650.837891"/>
     <use xlink:href="#DejaVuSans-Bold-66" x="719.539062"/>
     <use xlink:href="#DejaVuSans-Bold-20" x="763.044922"/>
     <use xlink:href="#DejaVuSans-Bold-41" x="797.859375"/>
     <use xlink:href="#DejaVuSans-Bold-75" x="875.251953"/>
     <use xlink:href="#DejaVuSans-Bold-74" x="946.443359"/>
     <use xlink:href="#DejaVuSans-Bold-6f" x="994.246094"/>
     <use xlink:href="#DejaVuSans-Bold-65" x="1062.947266"/>
     <use xlink:href="#DejaVuSans-Bold-6e" x="1130.769531"/>
     <use xlink:href="#DejaVuSans-Bold-63" x="1201.960938"/>
     <use xlink:href="#DejaVuSans-Bold-6f" x="1261.238281"/>
     <use xlink:href="#DejaVuSans-Bold-64" x="1329.939453"/>
     <use xlink:href="#DejaVuSans-Bold-65" x="1401.521484"/>
     <use xlink:href="#DejaVuSans-Bold-72" x="1469.34375"/>
     <use xlink:href="#DejaVuSans-Bold-73" x="1518.660156"/>
    </g>
   </g>
   <g id="text_12">
    <!-- Anomaly Detection -->
    <g style="fill: #0f172a" transform="translate(508.833082 181.979081) scale(0.11 -0.11)">
     <use xlink:href="#DejaVuSans-Bold-41"/>
     <use xlink:href="#DejaVuSans-Bold-6e" x="77.392578"/>
     <use xlink:href="#DejaVuSans-Bold-6f" x="148.583984"/>
     <use xlink:href="#DejaVuSans-Bold-6d" x="217.285156"/>
     <use xlink:href="#DejaVuSans-Bold-61" x="321.484375"/>
     <use xlink:href="#DejaVuSans-Bold-6c" x="388.964844"/>
     <use xlink:href="#DejaVuSans-Bold-79" x="423.242188"/>
     <use xlink:href="#DejaVuSans-Bold-20" x="488.427734"/>
     <use xlink:href="#DejaVuSans-Bold-44" x="523.242188"/>
     <use xlink:href="#DejaVuSans-Bold-65" x="606.25"/>
     <use xlink:href="#DejaVuSans-Bold-74" x="674.072266"/>
     <use xlink:href="#DejaVuSans-Bold-65" x="721.875"/>
     <use xlink:href="#DejaVuSans-Bold-63" x="789.697266"/>
     <use xlink:href="#DejaVuSans-Bold-74" x="848.974609"/>
     <use xlink:href="#DejaVuSans-Bold-69" x="896.777344"/>
     <use xlink:href="#DejaVuSans-Bold-6f" x="931.054688"/>
     <use xlink:href="#DejaVuSans-Bold-6e" x="999.755859"/>
    </g>
   </g>
   <g id="text_13">
    <!-- Points with high reconstruction error = anomalies -->
    <g style="fill: #334155" transform="translate(449.795348 194.172636) scale(0.095 -0.095)">
     <defs>
      <path id="DejaVuSans-50" d="M 1259 4147 
L 1259 2394 
L 2053 2394 
Q 2494 2394 2734 2622 
Q 2975 2850 2975 3272 
Q 2975 3691 2734 3919 
Q 2494 4147 2053 4147 
L 1259 4147 
z
M 628 4666 
L 2053 4666 
Q 2838 4666 3239 4311 
Q 3641 3956 3641 3272 
Q 3641 2581 3239 2228 
Q 2838 1875 2053 1875 
L 1259 1875 
L 1259 0 
L 628 0 
L 628 4666 
z
" transform="scale(0.015625)"/>
      <path id="DejaVuSans-77" d="M 269 3500 
L 844 3500 
L 1563 769 
L 2278 3500 
L 2956 3500 
L 3675 769 
L 4391 3500 
L 4966 3500 
L 4050 0 
L 3372 0 
L 2619 2869 
L 1863 0 
L 1184 0 
L 269 3500 
z
" transform="scale(0.015625)"/>
      <path id="DejaVuSans-68" d="M 3513 2113 
L 3513 0 
L 2938 0 
L 2938 2094 
Q 2938 2591 2744 2837 
Q 2550 3084 2163 3084 
Q 1697 3084 1428 2787 
Q 1159 2491 1159 1978 
L 1159 0 
L 581 0 
L 581 4863 
L 1159 4863 
L 1159 2956 
Q 1366 3272 1645 3428 
Q 1925 3584 2291 3584 
Q 2894 3584 3203 3211 
Q 3513 2838 3513 2113 
z
" transform="scale(0.015625)"/>
      <path id="DejaVuSans-67" d="M 2906 1791 
Q 2906 2416 2648 2759 
Q 2391 3103 1925 3103 
Q 1463 3103 1205 2759 
Q 947 2416 947 1791 
Q 947 1169 1205 825 
Q 1463 481 1925 481 
Q 2391 481 2648 825 
Q 2906 1169 2906 1791 
z
M 3481 434 
Q 3481 -459 3084 -895 
Q 2688 -1331 1869 -1331 
Q 1566 -1331 1297 -1286 
Q 1028 -1241 775 -1147 
L 775 -588 
Q 1028 -725 1275 -790 
Q 1522 -856 1778 -856 
Q 2344 -856 2625 -561 
Q 2906 -266 2906 331 
L 2906 616 
Q 2728 306 2450 153 
Q 2172 0 1784 0 
Q 1141 0 747 490 
Q 353 981 353 1791 
Q 353 2603 747 3093 
Q 1141 3584 1784 3584 
Q 2172 3584 2450 3431 
Q 2728 3278 2906 2969 
L 2906 3500 
L 3481 3500 
L 3481 434 
z
" transform="scale(0.015625)"/>
      <path id="DejaVuSans-61" d="M 2194 1759 
Q 1497 1759 1228 1600 
Q 959 1441 959 1056 
Q 959 750 1161 570 
Q 1363 391 1709 391 
Q 2188 391 2477 730 
Q 2766 1069 2766 1631 
L 2766 1759 
L 2194 1759 
z
M 3341 1997 
L 3341 0 
L 2766 0 
L 2766 531 
Q 2569 213 2275 61 
Q 1981 -91 1556 -91 
Q 1019 -91 701 211 
Q 384 513 384 1019 
Q 384 1609 779 1909 
Q 1175 2209 1959 2209 
L 2766 2209 
L 2766 2266 
Q 2766 2663 2505 2880 
Q 2244 3097 1772 3097 
Q 1472 3097 1187 3025 
Q 903 2953 641 2809 
L 641 3341 
Q 956 3463 1253 3523 
Q 1550 3584 1831 3584 
Q 2591 3584 2966 3190 
Q 3341 2797 3341 1997 
z
" transform="scale(0.015625)"/>
      <path id="DejaVuSans-6d" d="M 3328 2828 
Q 3544 3216 3844 3400 
Q 4144 3584 4550 3584 
Q 5097 3584 5394 3201 
Q 5691 2819 5691 2113 
L 5691 0 
L 5113 0 
L 5113 2094 
Q 5113 2597 4934 2840 
Q 4756 3084 4391 3084 
Q 3944 3084 3684 2787 
Q 3425 2491 3425 1978 
L 3425 0 
L 2847 0 
L 2847 2094 
Q 2847 2600 2669 2842 
Q 2491 3084 2119 3084 
Q 1678 3084 1418 2786 
Q 1159 2488 1159 1978 
L 1159 0 
L 581 0 
L 581 3500 
L 1159 3500 
L 1159 2956 
Q 1356 3278 1631 3431 
Q 1906 3584 2284 3584 
Q 2666 3584 2933 3390 
Q 3200 3197 3328 2828 
z
" transform="scale(0.015625)"/>
      <path id="DejaVuSans-6c" d="M 603 4863 
L 1178 4863 
L 1178 0 
L 603 0 
L 603 4863 
z
" transform="scale(0.015625)"/>
     </defs>
     <use xlink:href="#DejaVuSans-50"/>
     <use xlink:href="#DejaVuSans-6f" x="56.677734"/>
     <use xlink:href="#DejaVuSans-69" x="117.859375"/>
     <use xlink:href="#DejaVuSans-6e" x="145.642578"/>
     <use xlink:href="#DejaVuSans-74" x="209.021484"/>
     <use xlink:href="#DejaVuSans-73" x="248.230469"/>
     <use xlink:href="#DejaVuSans-20" x="300.330078"/>
     <use xlink:href="#DejaVuSans-77" x="332.117188"/>
     <use xlink:href="#DejaVuSans-69" x="413.904297"/>
     <use xlink:href="#DejaVuSans-74" x="441.6875"/>
     <use xlink:href="#DejaVuSans-68" x="480.896484"/>
     <use xlink:href="#DejaVuSans-20" x="544.275391"/>
     <use xlink:href="#DejaVuSans-68" x="576.0625"/>
     <use xlink:href="#DejaVuSans-69" x="639.441406"/>
     <use xlink:href="#DejaVuSans-67" x="667.224609"/>
     <use xlink:href="#DejaVuSans-68" x="730.701172"/>
     <use xlink:href="#DejaVuSans-20" x="794.080078"/>
     <use xlink:href="#DejaVuSans-72" x="825.867188"/>
     <use xlink:href="#DejaVuSans-65" x="864.730469"/>
     <use xlink:href="#DejaVuSans-63" x="926.253906"/>
     <use xlink:href="#DejaVuSans-6f" x="981.234375"/>
     <use xlink:href="#DejaVuSans-6e" x="1042.416016"/>
     <use xlink:href="#DejaVuSans-73" x="1105.794922"/>
     <use xlink:href="#DejaVuSans-74" x="1157.894531"/>
     <use xlink:href="#DejaVuSans-72" x="1197.103516"/>
     <use xlink:href="#DejaVuSans-75" x="1238.216797"/>
     <use xlink:href="#DejaVuSans-63" x="1301.595703"/>
     <use xlink:href="#DejaVuSans-74" x="1356.576172"/>
     <use xlink:href="#DejaVuSans-69" x="1395.785156"/>
     <use xlink:href="#DejaVuSans-6f" x="1423.568359"/>
     <use xlink:href="#DejaVuSans-6e" x="1484.75"/>
     <use xlink:href="#DejaVuSans-20" x="1548.128906"/>
     <use xlink:href="#DejaVuSans-65" x="1579.916016"/>
     <use xlink:href="#DejaVuSans-72" x="1641.439453"/>
     <use xlink:href="#DejaVuSans-72" x="1680.802734"/>
     <use xlink:href="#DejaVuSans-6f" x="1719.666016"/>
     <use xlink:href="#DejaVuSans-72" x="1780.847656"/>
     <use xlink:href="#DejaVuSans-20" x="1821.960938"/>
     <use xlink:href="#DejaVuSans-3d" x="1853.748047"/>
     <use xlink:href="#DejaVuSans-20" x="1937.537109"/>
     <use xlink:href="#DejaVuSans-61" x="1969.324219"/>
     <use xlink:href="#DejaVuSans-6e" x="2030.603516"/>
     <use xlink:href="#DejaVuSans-6f" x="2093.982422"/>
     <use xlink:href="#DejaVuSans-6d" x="2155.164062"/>
     <use xlink:href="#DejaVuSans-61" x="2252.576172"/>
     <use xlink:href="#DejaVuSans-6c" x="2313.855469"/>
     <use xlink:href="#DejaVuSans-69" x="2341.638672"/>
     <use xlink:href="#DejaVuSans-65" x="2369.421875"/>
     <use xlink:href="#DejaVuSans-73" x="2430.945312"/>
    </g>
   </g>
   <g id="text_14">
    <!-- No labels needed — train on normal data only -->
    <g style="fill: #334155" transform="translate(458.314176 206.785236) scale(0.095 -0.095)">
     <defs>
      <path id="DejaVuSans-4e" d="M 628 4666 
L 1478 4666 
L 3547 763 
L 3547 4666 
L 4159 4666 
L 4159 0 
L 3309 0 
L 1241 3903 
L 1241 0 
L 628 0 
L 628 4666 
z
" transform="scale(0.015625)"/>
      <path id="DejaVuSans-62" d="M 3116 1747 
Q 3116 2381 2855 2742 
Q 2594 3103 2138 3103 
Q 1681 3103 1420 2742 
Q 1159 2381 1159 1747 
Q 1159 1113 1420 752 
Q 1681 391 2138 391 
Q 2594 391 2855 752 
Q 3116 1113 3116 1747 
z
M 1159 2969 
Q 1341 3281 1617 3432 
Q 1894 3584 2278 3584 
Q 2916 3584 3314 3078 
Q 3713 2572 3713 1747 
Q 3713 922 3314 415 
Q 2916 -91 2278 -91 
Q 1894 -91 1617 61 
Q 1341 213 1159 525 
L 1159 0 
L 581 0 
L 581 4863 
L 1159 4863 
L 1159 2969 
z
" transform="scale(0.015625)"/>
      <path id="DejaVuSans-64" d="M 2906 2969 
L 2906 4863 
L 3481 4863 
L 3481 0 
L 2906 0 
L 2906 525 
Q 2725 213 2448 61 
Q 2172 -91 1784 -91 
Q 1150 -91 751 415 
Q 353 922 353 1747 
Q 353 2572 751 3078 
Q 1150 3584 1784 3584 
Q 2172 3584 2448 3432 
Q 2725 3281 2906 2969 
z
M 947 1747 
Q 947 1113 1208 752 
Q 1469 391 1925 391 
Q 2381 391 2643 752 
Q 2906 1113 2906 1747 
Q 2906 2381 2643 2742 
Q 2381 3103 1925 3103 
Q 1469 3103 1208 2742 
Q 947 2381 947 1747 
z
" transform="scale(0.015625)"/>
      <path id="DejaVuSans-2014" d="M 313 1978 
L 6088 1978 
L 6088 1528 
L 313 1528 
L 313 1978 
z
" transform="scale(0.015625)"/>
      <path id="DejaVuSans-79" d="M 2059 -325 
Q 1816 -950 1584 -1140 
Q 1353 -1331 966 -1331 
L 506 -1331 
L 506 -850 
L 844 -850 
Q 1081 -850 1212 -737 
Q 1344 -625 1503 -206 
L 1606 56 
L 191 3500 
L 800 3500 
L 1894 763 
L 2988 3500 
L 3597 3500 
L 2059 -325 
z
" transform="scale(0.015625)"/>
     </defs>
     <use xlink:href="#DejaVuSans-4e"/>
     <use xlink:href="#DejaVuSans-6f" x="74.804688"/>
     <use xlink:href="#DejaVuSans-20" x="135.986328"/>
     <use xlink:href="#DejaVuSans-6c" x="167.773438"/>
     <use xlink:href="#DejaVuSans-61" x="195.556641"/>
     <use xlink:href="#DejaVuSans-62" x="256.835938"/>
     <use xlink:href="#DejaVuSans-65" x="320.3125"/>
     <use xlink:href="#DejaVuSans-6c" x="381.835938"/>
     <use xlink:href="#DejaVuSans-73" x="409.619141"/>
     <use xlink:href="#DejaVuSans-20" x="461.71875"/>
     <use xlink:href="#DejaVuSans-6e" x="493.505859"/>
     <use xlink:href="#DejaVuSans-65" x="556.884766"/>
     <use xlink:href="#DejaVuSans-65" x="618.408203"/>
     <use xlink:href="#DejaVuSans-64" x="679.931641"/>
     <use xlink:href="#DejaVuSans-65" x="743.408203"/>
     <use xlink:href="#DejaVuSans-64" x="804.931641"/>
     <use xlink:href="#DejaVuSans-20" x="868.408203"/>
     <use xlink:href="#DejaVuSans-2014" x="900.195312"/>
     <use xlink:href="#DejaVuSans-20" x="1000.195312"/>
     <use xlink:href="#DejaVuSans-74" x="1031.982422"/>
     <use xlink:href="#DejaVuSans-72" x="1071.191406"/>
     <use xlink:href="#DejaVuSans-61" x="1112.304688"/>
     <use xlink:href="#DejaVuSans-69" x="1173.583984"/>
     <use xlink:href="#DejaVuSans-6e" x="1201.367188"/>
     <use xlink:href="#DejaVuSans-20" x="1264.746094"/>
     <use xlink:href="#DejaVuSans-6f" x="1296.533203"/>
     <use xlink:href="#DejaVuSans-6e" x="1357.714844"/>
     <use xlink:href="#DejaVuSans-20" x="1421.09375"/>
     <use xlink:href="#DejaVuSans-6e" x="1452.880859"/>
     <use xlink:href="#DejaVuSans-6f" x="1516.259766"/>
     <use xlink:href="#DejaVuSans-72" x="1577.441406"/>
     <use xlink:href="#DejaVuSans-6d" x="1616.804688"/>
     <use xlink:href="#DejaVuSans-61" x="1714.216797"/>
     <use xlink:href="#DejaVuSans-6c" x="1775.496094"/>
     <use xlink:href="#DejaVuSans-20" x="1803.279297"/>
     <use xlink:href="#DejaVuSans-64" x="1835.066406"/>
     <use xlink:href="#DejaVuSans-61" x="1898.542969"/>
     <use xlink:href="#DejaVuSans-74" x="1959.822266"/>
     <use xlink:href="#DejaVuSans-61" x="1999.03125"/>
     <use xlink:href="#DejaVuSans-20" x="2060.310547"/>
     <use xlink:href="#DejaVuSans-6f" x="2092.097656"/>
     <use xlink:href="#DejaVuSans-6e" x="2153.279297"/>
     <use xlink:href="#DejaVuSans-6c" x="2216.658203"/>
     <use xlink:href="#DejaVuSans-79" x="2244.441406"/>
    </g>
   </g>
   <g id="text_15">
    <!-- Dimensionality Reduction -->
    <g style="fill: #0f172a" transform="translate(488.157379 246.843881) scale(0.11 -0.11)">
     <use xlink:href="#DejaVuSans-Bold-44"/>
     <use xlink:href="#DejaVuSans-Bold-69" x="83.007812"/>
     <use xlink:href="#DejaVuSans-Bold-6d" x="117.285156"/>
     <use xlink:href="#DejaVuSans-Bold-65" x="221.484375"/>
     <use xlink:href="#DejaVuSans-Bold-6e" x="289.306641"/>
     <use xlink:href="#DejaVuSans-Bold-73" x="360.498047"/>
     <use xlink:href="#DejaVuSans-Bold-69" x="420.019531"/>
     <use xlink:href="#DejaVuSans-Bold-6f" x="454.296875"/>
     <use xlink:href="#DejaVuSans-Bold-6e" x="522.998047"/>
     <use xlink:href="#DejaVuSans-Bold-61" x="594.189453"/>
     <use xlink:href="#DejaVuSans-Bold-6c" x="661.669922"/>
     <use xlink:href="#DejaVuSans-Bold-69" x="695.947266"/>
     <use xlink:href="#DejaVuSans-Bold-74" x="730.224609"/>
     <use xlink:href="#DejaVuSans-Bold-79" x="778.027344"/>
     <use xlink:href="#DejaVuSans-Bold-20" x="843.212891"/>
     <use xlink:href="#DejaVuSans-Bold-52" x="878.027344"/>
     <use xlink:href="#DejaVuSans-Bold-65" x="955.029297"/>
     <use xlink:href="#DejaVuSans-Bold-64" x="1022.851562"/>
     <use xlink:href="#DejaVuSans-Bold-75" x="1094.433594"/>
     <use xlink:href="#DejaVuSans-Bold-63" x="1165.625"/>
     <use xlink:href="#DejaVuSans-Bold-74" x="1224.902344"/>
     <use xlink:href="#DejaVuSans-Bold-69" x="1272.705078"/>
     <use xlink:href="#DejaVuSans-Bold-6f" x="1306.982422"/>
     <use xlink:href="#DejaVuSans-Bold-6e" x="1375.683594"/>
    </g>
   </g>
   <g id="text_16">
    <!-- Bottleneck = non-linear PCA -->
    <g style="fill: #334155" transform="translate(500.293043 259.037436) scale(0.095 -0.095)">
     <defs>
      <path id="DejaVuSans-42" d="M 1259 2228 
L 1259 519 
L 2272 519 
Q 2781 519 3026 730 
Q 3272 941 3272 1375 
Q 3272 1813 3026 2020 
Q 2781 2228 2272 2228 
L 1259 2228 
z
M 1259 4147 
L 1259 2741 
L 2194 2741 
Q 2656 2741 2882 2914 
Q 3109 3088 3109 3444 
Q 3109 3797 2882 3972 
Q 2656 4147 2194 4147 
L 1259 4147 
z
M 628 4666 
L 2241 4666 
Q 2963 4666 3353 4366 
Q 3744 4066 3744 3513 
Q 3744 3084 3544 2831 
Q 3344 2578 2956 2516 
Q 3422 2416 3680 2098 
Q 3938 1781 3938 1306 
Q 3938 681 3513 340 
Q 3088 0 2303 0 
L 628 0 
L 628 4666 
z
" transform="scale(0.015625)"/>
      <path id="DejaVuSans-6b" d="M 581 4863 
L 1159 4863 
L 1159 1991 
L 2875 3500 
L 3609 3500 
L 1753 1863 
L 3688 0 
L 2938 0 
L 1159 1709 
L 1159 0 
L 581 0 
L 581 4863 
z
" transform="scale(0.015625)"/>
      <path id="DejaVuSans-43" d="M 4122 4306 
L 4122 3641 
Q 3803 3938 3442 4084 
Q 3081 4231 2675 4231 
Q 1875 4231 1450 3742 
Q 1025 3253 1025 2328 
Q 1025 1406 1450 917 
Q 1875 428 2675 428 
Q 3081 428 3442 575 
Q 3803 722 4122 1019 
L 4122 359 
Q 3791 134 3420 21 
Q 3050 -91 2638 -91 
Q 1578 -91 968 557 
Q 359 1206 359 2328 
Q 359 3453 968 4101 
Q 1578 4750 2638 4750 
Q 3056 4750 3426 4639 
Q 3797 4528 4122 4306 
z
" transform="scale(0.015625)"/>
      <path id="DejaVuSans-41" d="M 2188 4044 
L 1331 1722 
L 3047 1722 
L 2188 4044 
z
M 1831 4666 
L 2547 4666 
L 4325 0 
L 3669 0 
L 3244 1197 
L 1141 1197 
L 716 0 
L 50 0 
L 1831 4666 
z
" transform="scale(0.015625)"/>
     </defs>
     <use xlink:href="#DejaVuSans-42"/>
     <use xlink:href="#DejaVuSans-6f" x="68.603516"/>
     <use xlink:href="#DejaVuSans-74" x="129.785156"/>
     <use xlink:href="#DejaVuSans-74" x="168.994141"/>
     <use xlink:href="#DejaVuSans-6c" x="208.203125"/>
     <use xlink:href="#DejaVuSans-65" x="235.986328"/>
     <use xlink:href="#DejaVuSans-6e" x="297.509766"/>
     <use xlink:href="#DejaVuSans-65" x="360.888672"/>
     <use xlink:href="#DejaVuSans-63" x="422.412109"/>
     <use xlink:href="#DejaVuSans-6b" x="477.392578"/>
     <use xlink:href="#DejaVuSans-20" x="535.302734"/>
     <use xlink:href="#DejaVuSans-3d" x="567.089844"/>
     <use xlink:href="#DejaVuSans-20" x="650.878906"/>
     <use xlink:href="#DejaVuSans-6e" x="682.666016"/>
     <use xlink:href="#DejaVuSans-6f" x="746.044922"/>
     <use xlink:href="#DejaVuSans-6e" x="807.226562"/>
     <use xlink:href="#DejaVuSans-2d" x="870.605469"/>
     <use xlink:href="#DejaVuSans-6c" x="906.689453"/>
     <use xlink:href="#DejaVuSans-69" x="934.472656"/>
     <use xlink:href="#DejaVuSans-6e" x="962.255859"/>
     <use xlink:href="#DejaVuSans-65" x="1025.634766"/>
     <use xlink:href="#DejaVuSans-61" x="1087.158203"/>
     <use xlink:href="#DejaVuSans-72" x="1148.4375"/>
     <use xlink:href="#DejaVuSans-20" x="1189.550781"/>
     <use xlink:href="#DejaVuSans-50" x="1221.337891"/>
     <use xlink:href="#DejaVuSans-43" x="1281.640625"/>
     <use xlink:href="#DejaVuSans-41" x="1351.464844"/>
    </g>
   </g>
   <g id="text_17">
    <!-- More expressive than linear PCA -->
    <g style="fill: #334155" transform="translate(490.827184 271.650036) scale(0.095 -0.095)">
     <defs>
      <path id="DejaVuSans-4d" d="M 628 4666 
L 1569 4666 
L 2759 1491 
L 3956 4666 
L 4897 4666 
L 4897 0 
L 4281 0 
L 4281 4097 
L 3078 897 
L 2444 897 
L 1241 4097 
L 1241 0 
L 628 0 
L 628 4666 
z
" transform="scale(0.015625)"/>
      <path id="DejaVuSans-78" d="M 3513 3500 
L 2247 1797 
L 3578 0 
L 2900 0 
L 1881 1375 
L 863 0 
L 184 0 
L 1544 1831 
L 300 3500 
L 978 3500 
L 1906 2253 
L 2834 3500 
L 3513 3500 
z
" transform="scale(0.015625)"/>
      <path id="DejaVuSans-76" d="M 191 3500 
L 800 3500 
L 1894 563 
L 2988 3500 
L 3597 3500 
L 2284 0 
L 1503 0 
L 191 3500 
z
" transform="scale(0.015625)"/>
     </defs>
     <use xlink:href="#DejaVuSans-4d"/>
     <use xlink:href="#DejaVuSans-6f" x="86.279297"/>
     <use xlink:href="#DejaVuSans-72" x="147.460938"/>
     <use xlink:href="#DejaVuSans-65" x="186.324219"/>
     <use xlink:href="#DejaVuSans-20" x="247.847656"/>
     <use xlink:href="#DejaVuSans-65" x="279.634766"/>
     <use xlink:href="#DejaVuSans-78" x="339.408203"/>
     <use xlink:href="#DejaVuSans-70" x="398.587891"/>
     <use xlink:href="#DejaVuSans-72" x="462.064453"/>
     <use xlink:href="#DejaVuSans-65" x="500.927734"/>
     <use xlink:href="#DejaVuSans-73" x="562.451172"/>
     <use xlink:href="#DejaVuSans-73" x="614.550781"/>
     <use xlink:href="#DejaVuSans-69" x="666.650391"/>
     <use xlink:href="#DejaVuSans-76" x="694.433594"/>
     <use xlink:href="#DejaVuSans-65" x="753.613281"/>
     <use xlink:href="#DejaVuSans-20" x="815.136719"/>
     <use xlink:href="#DejaVuSans-74" x="846.923828"/>
     <use xlink:href="#DejaVuSans-68" x="886.132812"/>
     <use xlink:href="#DejaVuSans-61" x="949.511719"/>
     <use xlink:href="#DejaVuSans-6e" x="1010.791016"/>
     <use xlink:href="#DejaVuSans-20" x="1074.169922"/>
     <use xlink:href="#DejaVuSans-6c" x="1105.957031"/>
     <use xlink:href="#DejaVuSans-69" x="1133.740234"/>
     <use xlink:href="#DejaVuSans-6e" x="1161.523438"/>
     <use xlink:href="#DejaVuSans-65" x="1224.902344"/>
     <use xlink:href="#DejaVuSans-61" x="1286.425781"/>
     <use xlink:href="#DejaVuSans-72" x="1347.705078"/>
     <use xlink:href="#DejaVuSans-20" x="1388.818359"/>
     <use xlink:href="#DejaVuSans-50" x="1420.605469"/>
     <use xlink:href="#DejaVuSans-43" x="1480.908203"/>
     <use xlink:href="#DejaVuSans-41" x="1550.732422"/>
    </g>
   </g>
   <g id="text_18">
    <!-- Denoising Autoencoder -->
    <g style="fill: #0f172a" transform="translate(495.291051 308.105081) scale(0.11 -0.11)">
     <defs>
      <path id="DejaVuSans-Bold-67" d="M 2919 594 
Q 2688 288 2409 144 
Q 2131 0 1766 0 
Q 1125 0 706 504 
Q 288 1009 288 1791 
Q 288 2575 706 3076 
Q 1125 3578 1766 3578 
Q 2131 3578 2409 3434 
Q 2688 3291 2919 2981 
L 2919 3500 
L 4044 3500 
L 4044 353 
Q 4044 -491 3511 -936 
Q 2978 -1381 1966 -1381 
Q 1638 -1381 1331 -1331 
Q 1025 -1281 716 -1178 
L 716 -306 
Q 1009 -475 1290 -558 
Q 1572 -641 1856 -641 
Q 2406 -641 2662 -400 
Q 2919 -159 2919 353 
L 2919 594 
z
M 2181 2772 
Q 1834 2772 1640 2515 
Q 1447 2259 1447 1791 
Q 1447 1309 1634 1061 
Q 1822 813 2181 813 
Q 2531 813 2725 1069 
Q 2919 1325 2919 1791 
Q 2919 2259 2725 2515 
Q 2531 2772 2181 2772 
z
" transform="scale(0.015625)"/>
     </defs>
     <use xlink:href="#DejaVuSans-Bold-44"/>
     <use xlink:href="#DejaVuSans-Bold-65" x="83.007812"/>
     <use xlink:href="#DejaVuSans-Bold-6e" x="150.830078"/>
     <use xlink:href="#DejaVuSans-Bold-6f" x="222.021484"/>
     <use xlink:href="#DejaVuSans-Bold-69" x="290.722656"/>
     <use xlink:href="#DejaVuSans-Bold-73" x="325"/>
     <use xlink:href="#DejaVuSans-Bold-69" x="384.521484"/>
     <use xlink:href="#DejaVuSans-Bold-6e" x="418.798828"/>
     <use xlink:href="#DejaVuSans-Bold-67" x="489.990234"/>
     <use xlink:href="#DejaVuSans-Bold-20" x="561.572266"/>
     <use xlink:href="#DejaVuSans-Bold-41" x="596.386719"/>
     <use xlink:href="#DejaVuSans-Bold-75" x="673.779297"/>
     <use xlink:href="#DejaVuSans-Bold-74" x="744.970703"/>
     <use xlink:href="#DejaVuSans-Bold-6f" x="792.773438"/>
     <use xlink:href="#DejaVuSans-Bold-65" x="861.474609"/>
     <use xlink:href="#DejaVuSans-Bold-6e" x="929.296875"/>
     <use xlink:href="#DejaVuSans-Bold-63" x="1000.488281"/>
     <use xlink:href="#DejaVuSans-Bold-6f" x="1059.765625"/>
     <use xlink:href="#DejaVuSans-Bold-64" x="1128.466797"/>
     <use xlink:href="#DejaVuSans-Bold-65" x="1200.048828"/>
     <use xlink:href="#DejaVuSans-Bold-72" x="1267.871094"/>
    </g>
   </g>
   <g id="text_19">
    <!-- Input: corrupted image/data -->
    <g style="fill: #334155" transform="translate(500.555778 320.298636) scale(0.095 -0.095)">
     <defs>
      <path id="DejaVuSans-49" d="M 628 4666 
L 1259 4666 
L 1259 0 
L 628 0 
L 628 4666 
z
" transform="scale(0.015625)"/>
      <path id="DejaVuSans-3a" d="M 750 794 
L 1409 794 
L 1409 0 
L 750 0 
L 750 794 
z
M 750 3309 
L 1409 3309 
L 1409 2516 
L 750 2516 
L 750 3309 
z
" transform="scale(0.015625)"/>
      <path id="DejaVuSans-2f" d="M 1625 4666 
L 2156 4666 
L 531 -594 
L 0 -594 
L 1625 4666 
z
" transform="scale(0.015625)"/>
     </defs>
     <use xlink:href="#DejaVuSans-49"/>
     <use xlink:href="#DejaVuSans-6e" x="29.492188"/>
     <use xlink:href="#DejaVuSans-70" x="92.871094"/>
     <use xlink:href="#DejaVuSans-75" x="156.347656"/>
     <use xlink:href="#DejaVuSans-74" x="219.726562"/>
     <use xlink:href="#DejaVuSans-3a" x="258.935547"/>
     <use xlink:href="#DejaVuSans-20" x="292.626953"/>
     <use xlink:href="#DejaVuSans-63" x="324.414062"/>
     <use xlink:href="#DejaVuSans-6f" x="379.394531"/>
     <use xlink:href="#DejaVuSans-72" x="440.576172"/>
     <use xlink:href="#DejaVuSans-72" x="479.939453"/>
     <use xlink:href="#DejaVuSans-75" x="521.052734"/>
     <use xlink:href="#DejaVuSans-70" x="584.431641"/>
     <use xlink:href="#DejaVuSans-74" x="647.908203"/>
     <use xlink:href="#DejaVuSans-65" x="687.117188"/>
     <use xlink:href="#DejaVuSans-64" x="748.640625"/>
     <use xlink:href="#DejaVuSans-20" x="812.117188"/>
     <use xlink:href="#DejaVuSans-69" x="843.904297"/>
     <use xlink:href="#DejaVuSans-6d" x="871.6875"/>
     <use xlink:href="#DejaVuSans-61" x="969.099609"/>
     <use xlink:href="#DejaVuSans-67" x="1030.378906"/>
     <use xlink:href="#DejaVuSans-65" x="1093.855469"/>
     <use xlink:href="#DejaVuSans-2f" x="1155.378906"/>
     <use xlink:href="#DejaVuSans-64" x="1189.070312"/>
     <use xlink:href="#DejaVuSans-61" x="1252.546875"/>
     <use xlink:href="#DejaVuSans-74" x="1313.826172"/>
     <use xlink:href="#DejaVuSans-61" x="1353.035156"/>
    </g>
   </g>
   <g id="text_20">
    <!-- Target: clean original — learns robust repr -->
    <g style="fill: #334155" transform="translate(467.741442 332.911236) scale(0.095 -0.095)">
     <defs>
      <path id="DejaVuSans-54" d="M -19 4666 
L 3928 4666 
L 3928 4134 
L 2272 4134 
L 2272 0 
L 1638 0 
L 1638 4134 
L -19 4134 
L -19 4666 
z
" transform="scale(0.015625)"/>
     </defs>
     <use xlink:href="#DejaVuSans-54"/>
     <use xlink:href="#DejaVuSans-61" x="44.583984"/>
     <use xlink:href="#DejaVuSans-72" x="105.863281"/>
     <use xlink:href="#DejaVuSans-67" x="145.226562"/>
     <use xlink:href="#DejaVuSans-65" x="208.703125"/>
     <use xlink:href="#DejaVuSans-74" x="270.226562"/>
     <use xlink:href="#DejaVuSans-3a" x="309.435547"/>
     <use xlink:href="#DejaVuSans-20" x="343.126953"/>
     <use xlink:href="#DejaVuSans-63" x="374.914062"/>
     <use xlink:href="#DejaVuSans-6c" x="429.894531"/>
     <use xlink:href="#DejaVuSans-65" x="457.677734"/>
     <use xlink:href="#DejaVuSans-61" x="519.201172"/>
     <use xlink:href="#DejaVuSans-6e" x="580.480469"/>
     <use xlink:href="#DejaVuSans-20" x="643.859375"/>
     <use xlink:href="#DejaVuSans-6f" x="675.646484"/>
     <use xlink:href="#DejaVuSans-72" x="736.828125"/>
     <use xlink:href="#DejaVuSans-69" x="777.941406"/>
     <use xlink:href="#DejaVuSans-67" x="805.724609"/>
     <use xlink:href="#DejaVuSans-69" x="869.201172"/>
     <use xlink:href="#DejaVuSans-6e" x="896.984375"/>
     <use xlink:href="#DejaVuSans-61" x="960.363281"/>
     <use xlink:href="#DejaVuSans-6c" x="1021.642578"/>
     <use xlink:href="#DejaVuSans-20" x="1049.425781"/>
     <use xlink:href="#DejaVuSans-2014" x="1081.212891"/>
     <use xlink:href="#DejaVuSans-20" x="1181.212891"/>
     <use xlink:href="#DejaVuSans-6c" x="1213"/>
     <use xlink:href="#DejaVuSans-65" x="1240.783203"/>
     <use xlink:href="#DejaVuSans-61" x="1302.306641"/>
     <use xlink:href="#DejaVuSans-72" x="1363.585938"/>
     <use xlink:href="#DejaVuSans-6e" x="1402.949219"/>
     <use xlink:href="#DejaVuSans-73" x="1466.328125"/>
     <use xlink:href="#DejaVuSans-20" x="1518.427734"/>
     <use xlink:href="#DejaVuSans-72" x="1550.214844"/>
     <use xlink:href="#DejaVuSans-6f" x="1589.078125"/>
     <use xlink:href="#DejaVuSans-62" x="1650.259766"/>
     <use xlink:href="#DejaVuSans-75" x="1713.736328"/>
     <use xlink:href="#DejaVuSans-73" x="1777.115234"/>
     <use xlink:href="#DejaVuSans-74" x="1829.214844"/>
     <use xlink:href="#DejaVuSans-20" x="1868.423828"/>
     <use xlink:href="#DejaVuSans-72" x="1900.210938"/>
     <use xlink:href="#DejaVuSans-65" x="1939.074219"/>
     <use xlink:href="#DejaVuSans-70" x="2000.597656"/>
     <use xlink:href="#DejaVuSans-72" x="2064.074219"/>
    </g>
   </g>
   <g id="text_21">
    <!-- VAE — Variational Autoencoder -->
    <g style="fill: #0f172a" transform="translate(471.169254 369.366281) scale(0.11 -0.11)">
     <defs>
      <path id="DejaVuSans-Bold-56" d="M 31 4666 
L 1241 4666 
L 2478 1222 
L 3713 4666 
L 4922 4666 
L 3194 0 
L 1759 0 
L 31 4666 
z
" transform="scale(0.015625)"/>
      <path id="DejaVuSans-Bold-2014" d="M 344 2156 
L 6056 2156 
L 6056 1350 
L 344 1350 
L 344 2156 
z
" transform="scale(0.015625)"/>
     </defs>
     <use xlink:href="#DejaVuSans-Bold-56"/>
     <use xlink:href="#DejaVuSans-Bold-41" x="70.642578"/>
     <use xlink:href="#DejaVuSans-Bold-45" x="148.035156"/>
     <use xlink:href="#DejaVuSans-Bold-20" x="216.345703"/>
     <use xlink:href="#DejaVuSans-Bold-2014" x="251.160156"/>
     <use xlink:href="#DejaVuSans-Bold-20" x="351.160156"/>
     <use xlink:href="#DejaVuSans-Bold-56" x="385.974609"/>
     <use xlink:href="#DejaVuSans-Bold-61" x="457.867188"/>
     <use xlink:href="#DejaVuSans-Bold-72" x="525.347656"/>
     <use xlink:href="#DejaVuSans-Bold-69" x="574.664062"/>
     <use xlink:href="#DejaVuSans-Bold-61" x="608.941406"/>
     <use xlink:href="#DejaVuSans-Bold-74" x="676.421875"/>
     <use xlink:href="#DejaVuSans-Bold-69" x="724.224609"/>
     <use xlink:href="#DejaVuSans-Bold-6f" x="758.501953"/>
     <use xlink:href="#DejaVuSans-Bold-6e" x="827.203125"/>
     <use xlink:href="#DejaVuSans-Bold-61" x="898.394531"/>
     <use xlink:href="#DejaVuSans-Bold-6c" x="965.875"/>
     <use xlink:href="#DejaVuSans-Bold-20" x="1000.152344"/>
     <use xlink:href="#DejaVuSans-Bold-41" x="1034.966797"/>
     <use xlink:href="#DejaVuSans-Bold-75" x="1112.359375"/>
     <use xlink:href="#DejaVuSans-Bold-74" x="1183.550781"/>
     <use xlink:href="#DejaVuSans-Bold-6f" x="1231.353516"/>
     <use xlink:href="#DejaVuSans-Bold-65" x="1300.054688"/>
     <use xlink:href="#DejaVuSans-Bold-6e" x="1367.876953"/>
     <use xlink:href="#DejaVuSans-Bold-63" x="1439.068359"/>
     <use xlink:href="#DejaVuSans-Bold-6f" x="1498.345703"/>
     <use xlink:href="#DejaVuSans-Bold-64" x="1567.046875"/>
     <use xlink:href="#DejaVuSans-Bold-65" x="1638.628906"/>
     <use xlink:href="#DejaVuSans-Bold-72" x="1706.451172"/>
    </g>
   </g>
   <g id="text_22">
    <!-- Latent space is a probability distribution N(μ, σ²) -->
    <g style="fill: #334155" transform="translate(452.197067 381.559836) scale(0.095 -0.095)">
     <defs>
      <path id="DejaVuSans-3bc" d="M 544 -1331 
L 544 3500 
L 1119 3500 
L 1119 1325 
Q 1119 872 1334 640 
Q 1550 409 1972 409 
Q 2434 409 2667 671 
Q 2900 934 2900 1459 
L 2900 3500 
L 3475 3500 
L 3475 806 
Q 3475 619 3529 530 
Q 3584 441 3700 441 
Q 3728 441 3778 458 
Q 3828 475 3916 513 
L 3916 50 
Q 3788 -22 3673 -56 
Q 3559 -91 3450 -91 
Q 3234 -91 3106 31 
Q 2978 153 2931 403 
Q 2775 156 2548 32 
Q 2322 -91 2016 -91 
Q 1697 -91 1473 31 
Q 1250 153 1119 397 
L 1119 -1331 
L 544 -1331 
z
" transform="scale(0.015625)"/>
      <path id="DejaVuSans-2c" d="M 750 794 
L 1409 794 
L 1409 256 
L 897 -744 
L 494 -744 
L 750 256 
L 750 794 
z
" transform="scale(0.015625)"/>
      <path id="DejaVuSans-3c3" d="M 1959 3044 
Q 1484 3044 1228 2700 
Q 959 2341 959 1747 
Q 959 1119 1226 758 
Q 1494 397 1959 397 
Q 2419 397 2687 759 
Q 2956 1122 2956 1747 
Q 2956 2319 2688 2700 
Q 2441 3044 1959 3044 
z
M 1959 3500 
L 3869 3500 
L 3869 2925 
L 3225 2925 
Q 3566 2438 3566 1747 
Q 3566 888 3138 400 
Q 2709 -91 1959 -91 
Q 1206 -91 781 400 
Q 353 888 353 1747 
Q 353 2613 781 3097 
Q 1134 3500 1959 3500 
z
" transform="scale(0.015625)"/>
     </defs>
     <use xlink:href="#DejaVuSans-4c"/>
     <use xlink:href="#DejaVuSans-61" x="55.712891"/>
     <use xlink:href="#DejaVuSans-74" x="116.992188"/>
     <use xlink:href="#DejaVuSans-65" x="156.201172"/>
     <use xlink:href="#DejaVuSans-6e" x="217.724609"/>
     <use xlink:href="#DejaVuSans-74" x="281.103516"/>
     <use xlink:href="#DejaVuSans-20" x="320.3125"/>
     <use xlink:href="#DejaVuSans-73" x="352.099609"/>
     <use xlink:href="#DejaVuSans-70" x="404.199219"/>
     <use xlink:href="#DejaVuSans-61" x="467.675781"/>
     <use xlink:href="#DejaVuSans-63" x="528.955078"/>
     <use xlink:href="#DejaVuSans-65" x="583.935547"/>
     <use xlink:href="#DejaVuSans-20" x="645.458984"/>
     <use xlink:href="#DejaVuSans-69" x="677.246094"/>
     <use xlink:href="#DejaVuSans-73" x="705.029297"/>
     <use xlink:href="#DejaVuSans-20" x="757.128906"/>
     <use xlink:href="#DejaVuSans-61" x="788.916016"/>
     <use xlink:href="#DejaVuSans-20" x="850.195312"/>
     <use xlink:href="#DejaVuSans-70" x="881.982422"/>
     <use xlink:href="#DejaVuSans-72" x="945.458984"/>
     <use xlink:href="#DejaVuSans-6f" x="984.322266"/>
     <use xlink:href="#DejaVuSans-62" x="1045.503906"/>
     <use xlink:href="#DejaVuSans-61" x="1108.980469"/>
     <use xlink:href="#DejaVuSans-62" x="1170.259766"/>
     <use xlink:href="#DejaVuSans-69" x="1233.736328"/>
     <use xlink:href="#DejaVuSans-6c" x="1261.519531"/>
     <use xlink:href="#DejaVuSans-69" x="1289.302734"/>
     <use xlink:href="#DejaVuSans-74" x="1317.085938"/>
     <use xlink:href="#DejaVuSans-79" x="1356.294922"/>
     <use xlink:href="#DejaVuSans-20" x="1415.474609"/>
     <use xlink:href="#DejaVuSans-64" x="1447.261719"/>
     <use xlink:href="#DejaVuSans-69" x="1510.738281"/>
     <use xlink:href="#DejaVuSans-73" x="1538.521484"/>
     <use xlink:href="#DejaVuSans-74" x="1590.621094"/>
     <use xlink:href="#DejaVuSans-72" x="1629.830078"/>
     <use xlink:href="#DejaVuSans-69" x="1670.943359"/>
     <use xlink:href="#DejaVuSans-62" x="1698.726562"/>
     <use xlink:href="#DejaVuSans-75" x="1762.203125"/>
     <use xlink:href="#DejaVuSans-74" x="1825.582031"/>
     <use xlink:href="#DejaVuSans-69" x="1864.791016"/>
     <use xlink:href="#DejaVuSans-6f" x="1892.574219"/>
     <use xlink:href="#DejaVuSans-6e" x="1953.755859"/>
     <use xlink:href="#DejaVuSans-20" x="2017.134766"/>
     <use xlink:href="#DejaVuSans-4e" x="2048.921875"/>
     <use xlink:href="#DejaVuSans-28" x="2123.726562"/>
     <use xlink:href="#DejaVuSans-3bc" x="2162.740234"/>
     <use xlink:href="#DejaVuSans-2c" x="2226.363281"/>
     <use xlink:href="#DejaVuSans-20" x="2258.150391"/>
     <use xlink:href="#DejaVuSans-3c3" x="2289.9375"/>
     <use xlink:href="#DejaVuSans-b2" x="2353.316406"/>
     <use xlink:href="#DejaVuSans-29" x="2393.404297"/>
    </g>
   </g>
   <g id="text_23">
    <!-- Enables generation of new samples (generative model) -->
    <g style="fill: #334155" transform="translate(435.901598 394.172436) scale(0.095 -0.095)">
     <defs>
      <path id="DejaVuSans-45" d="M 628 4666 
L 3578 4666 
L 3578 4134 
L 1259 4134 
L 1259 2753 
L 3481 2753 
L 3481 2222 
L 1259 2222 
L 1259 531 
L 3634 531 
L 3634 0 
L 628 0 
L 628 4666 
z
" transform="scale(0.015625)"/>
      <path id="DejaVuSans-66" d="M 2375 4863 
L 2375 4384 
L 1825 4384 
Q 1516 4384 1395 4259 
Q 1275 4134 1275 3809 
L 1275 3500 
L 2222 3500 
L 2222 3053 
L 1275 3053 
L 1275 0 
L 697 0 
L 697 3053 
L 147 3053 
L 147 3500 
L 697 3500 
L 697 3744 
Q 697 4328 969 4595 
Q 1241 4863 1831 4863 
L 2375 4863 
z
" transform="scale(0.015625)"/>
     </defs>
     <use xlink:href="#DejaVuSans-45"/>
     <use xlink:href="#DejaVuSans-6e" x="63.183594"/>
     <use xlink:href="#DejaVuSans-61" x="126.5625"/>
     <use xlink:href="#DejaVuSans-62" x="187.841797"/>
     <use xlink:href="#DejaVuSans-6c" x="251.318359"/>
     <use xlink:href="#DejaVuSans-65" x="279.101562"/>
     <use xlink:href="#DejaVuSans-73" x="340.625"/>
     <use xlink:href="#DejaVuSans-20" x="392.724609"/>
     <use xlink:href="#DejaVuSans-67" x="424.511719"/>
     <use xlink:href="#DejaVuSans-65" x="487.988281"/>
     <use xlink:href="#DejaVuSans-6e" x="549.511719"/>
     <use xlink:href="#DejaVuSans-65" x="612.890625"/>
     <use xlink:href="#DejaVuSans-72" x="674.414062"/>
     <use xlink:href="#DejaVuSans-61" x="715.527344"/>
     <use xlink:href="#DejaVuSans-74" x="776.806641"/>
     <use xlink:href="#DejaVuSans-69" x="816.015625"/>
     <use xlink:href="#DejaVuSans-6f" x="843.798828"/>
     <use xlink:href="#DejaVuSans-6e" x="904.980469"/>
     <use xlink:href="#DejaVuSans-20" x="968.359375"/>
     <use xlink:href="#DejaVuSans-6f" x="1000.146484"/>
     <use xlink:href="#DejaVuSans-66" x="1061.328125"/>
     <use xlink:href="#DejaVuSans-20" x="1096.533203"/>
     <use xlink:href="#DejaVuSans-6e" x="1128.320312"/>
     <use xlink:href="#DejaVuSans-65" x="1191.699219"/>
     <use xlink:href="#DejaVuSans-77" x="1253.222656"/>
     <use xlink:href="#DejaVuSans-20" x="1335.009766"/>
     <use xlink:href="#DejaVuSans-73" x="1366.796875"/>
     <use xlink:href="#DejaVuSans-61" x="1418.896484"/>
     <use xlink:href="#DejaVuSans-6d" x="1480.175781"/>
     <use xlink:href="#DejaVuSans-70" x="1577.587891"/>
     <use xlink:href="#DejaVuSans-6c" x="1641.064453"/>
     <use xlink:href="#DejaVuSans-65" x="1668.847656"/>
     <use xlink:href="#DejaVuSans-73" x="1730.371094"/>
     <use xlink:href="#DejaVuSans-20" x="1782.470703"/>
     <use xlink:href="#DejaVuSans-28" x="1814.257812"/>
     <use xlink:href="#DejaVuSans-67" x="1853.271484"/>
     <use xlink:href="#DejaVuSans-65" x="1916.748047"/>
     <use xlink:href="#DejaVuSans-6e" x="1978.271484"/>
     <use xlink:href="#DejaVuSans-65" x="2041.650391"/>
     <use xlink:href="#DejaVuSans-72" x="2103.173828"/>
     <use xlink:href="#DejaVuSans-61" x="2144.287109"/>
     <use xlink:href="#DejaVuSans-74" x="2205.566406"/>
     <use xlink:href="#DejaVuSans-69" x="2244.775391"/>
     <use xlink:href="#DejaVuSans-76" x="2272.558594"/>
     <use xlink:href="#DejaVuSans-65" x="2331.738281"/>
     <use xlink:href="#DejaVuSans-20" x="2393.261719"/>
     <use xlink:href="#DejaVuSans-6d" x="2425.048828"/>
     <use xlink:href="#DejaVuSans-6f" x="2522.460938"/>
     <use xlink:href="#DejaVuSans-64" x="2583.642578"/>
     <use xlink:href="#DejaVuSans-65" x="2647.119141"/>
     <use xlink:href="#DejaVuSans-6c" x="2708.642578"/>
     <use xlink:href="#DejaVuSans-29" x="2736.425781"/>
    </g>
   </g>
   <g id="text_24">
    <!-- Applications &amp; Variants -->
    <g style="fill: #0f172a" transform="translate(481.732223 66.72) scale(0.13 -0.13)">
     <defs>
      <path id="DejaVuSans-Bold-26" d="M 2497 3097 
L 3775 1691 
Q 3941 1909 4027 2181 
Q 4113 2453 4128 2797 
L 5100 2797 
Q 5053 2228 4879 1784 
Q 4706 1341 4397 1006 
L 5313 0 
L 3988 0 
L 3681 341 
Q 3353 122 2990 15 
Q 2628 -91 2222 -91 
Q 1400 -91 892 342 
Q 384 775 384 1459 
Q 384 1916 607 2267 
Q 831 2619 1338 2950 
Q 1206 3116 1143 3281 
Q 1081 3447 1081 3628 
Q 1081 4138 1478 4444 
Q 1875 4750 2534 4750 
Q 2819 4750 3126 4704 
Q 3434 4659 3769 4569 
L 3769 3700 
Q 3475 3850 3212 3922 
Q 2950 3994 2700 3994 
Q 2459 3994 2326 3901 
Q 2194 3809 2194 3641 
Q 2194 3534 2270 3398 
Q 2347 3263 2497 3097 
z
M 1875 2322 
Q 1672 2175 1569 1989 
Q 1466 1803 1466 1581 
Q 1466 1222 1731 969 
Q 1997 716 2369 716 
Q 2578 716 2759 780 
Q 2941 844 3097 972 
L 1875 2322 
z
" transform="scale(0.015625)"/>
     </defs>
     <use xlink:href="#DejaVuSans-Bold-41"/>
     <use xlink:href="#DejaVuSans-Bold-70" x="77.392578"/>
     <use xlink:href="#DejaVuSans-Bold-70" x="148.974609"/>
     <use xlink:href="#DejaVuSans-Bold-6c" x="220.556641"/>
     <use xlink:href="#DejaVuSans-Bold-69" x="254.833984"/>
     <use xlink:href="#DejaVuSans-Bold-63" x="289.111328"/>
     <use xlink:href="#DejaVuSans-Bold-61" x="348.388672"/>
     <use xlink:href="#DejaVuSans-Bold-74" x="415.869141"/>
     <use xlink:href="#DejaVuSans-Bold-69" x="463.671875"/>
     <use xlink:href="#DejaVuSans-Bold-6f" x="497.949219"/>
     <use xlink:href="#DejaVuSans-Bold-6e" x="566.650391"/>
     <use xlink:href="#DejaVuSans-Bold-73" x="637.841797"/>
     <use xlink:href="#DejaVuSans-Bold-20" x="697.363281"/>
     <use xlink:href="#DejaVuSans-Bold-26" x="732.177734"/>
     <use xlink:href="#DejaVuSans-Bold-20" x="819.384766"/>
     <use xlink:href="#DejaVuSans-Bold-56" x="854.199219"/>
     <use xlink:href="#DejaVuSans-Bold-61" x="926.091797"/>
     <use xlink:href="#DejaVuSans-Bold-72" x="993.572266"/>
     <use xlink:href="#DejaVuSans-Bold-69" x="1042.888672"/>
     <use xlink:href="#DejaVuSans-Bold-61" x="1077.166016"/>
     <use xlink:href="#DejaVuSans-Bold-6e" x="1144.646484"/>
     <use xlink:href="#DejaVuSans-Bold-74" x="1215.837891"/>
     <use xlink:href="#DejaVuSans-Bold-73" x="1263.640625"/>
    </g>
   </g>
  </g>
  <g id="text_25">
   <!-- Autoencoders — Encoder-Decoder Architecture -->
   <g style="fill: #0f172a" transform="translate(132.738828 20.117344) scale(0.17 -0.17)">
    <defs>
     <path id="DejaVuSans-Bold-2d" d="M 347 2297 
L 2309 2297 
L 2309 1388 
L 347 1388 
L 347 2297 
z
" transform="scale(0.015625)"/>
    </defs>
    <use xlink:href="#DejaVuSans-Bold-41"/>
    <use xlink:href="#DejaVuSans-Bold-75" x="77.392578"/>
    <use xlink:href="#DejaVuSans-Bold-74" x="148.583984"/>
    <use xlink:href="#DejaVuSans-Bold-6f" x="196.386719"/>
    <use xlink:href="#DejaVuSans-Bold-65" x="265.087891"/>
    <use xlink:href="#DejaVuSans-Bold-6e" x="332.910156"/>
    <use xlink:href="#DejaVuSans-Bold-63" x="404.101562"/>
    <use xlink:href="#DejaVuSans-Bold-6f" x="463.378906"/>
    <use xlink:href="#DejaVuSans-Bold-64" x="532.080078"/>
    <use xlink:href="#DejaVuSans-Bold-65" x="603.662109"/>
    <use xlink:href="#DejaVuSans-Bold-72" x="671.484375"/>
    <use xlink:href="#DejaVuSans-Bold-73" x="720.800781"/>
    <use xlink:href="#DejaVuSans-Bold-20" x="780.322266"/>
    <use xlink:href="#DejaVuSans-Bold-2014" x="815.136719"/>
    <use xlink:href="#DejaVuSans-Bold-20" x="915.136719"/>
    <use xlink:href="#DejaVuSans-Bold-45" x="949.951172"/>
    <use xlink:href="#DejaVuSans-Bold-6e" x="1018.261719"/>
    <use xlink:href="#DejaVuSans-Bold-63" x="1089.453125"/>
    <use xlink:href="#DejaVuSans-Bold-6f" x="1148.730469"/>
    <use xlink:href="#DejaVuSans-Bold-64" x="1217.431641"/>
    <use xlink:href="#DejaVuSans-Bold-65" x="1289.013672"/>
    <use xlink:href="#DejaVuSans-Bold-72" x="1356.835938"/>
    <use xlink:href="#DejaVuSans-Bold-2d" x="1406.152344"/>
    <use xlink:href="#DejaVuSans-Bold-44" x="1447.65625"/>
    <use xlink:href="#DejaVuSans-Bold-65" x="1530.664062"/>
    <use xlink:href="#DejaVuSans-Bold-63" x="1598.486328"/>
    <use xlink:href="#DejaVuSans-Bold-6f" x="1657.763672"/>
    <use xlink:href="#DejaVuSans-Bold-64" x="1726.464844"/>
    <use xlink:href="#DejaVuSans-Bold-65" x="1798.046875"/>
    <use xlink:href="#DejaVuSans-Bold-72" x="1865.869141"/>
    <use xlink:href="#DejaVuSans-Bold-20" x="1915.185547"/>
    <use xlink:href="#DejaVuSans-Bold-41" x="1950"/>
    <use xlink:href="#DejaVuSans-Bold-72" x="2027.392578"/>
    <use xlink:href="#DejaVuSans-Bold-63" x="2076.708984"/>
    <use xlink:href="#DejaVuSans-Bold-68" x="2135.986328"/>
    <use xlink:href="#DejaVuSans-Bold-69" x="2207.177734"/>
    <use xlink:href="#DejaVuSans-Bold-74" x="2241.455078"/>
    <use xlink:href="#DejaVuSans-Bold-65" x="2289.257812"/>
    <use xlink:href="#DejaVuSans-Bold-63" x="2357.080078"/>
    <use xlink:href="#DejaVuSans-Bold-74" x="2416.357422"/>
    <use xlink:href="#DejaVuSans-Bold-75" x="2464.160156"/>
    <use xlink:href="#DejaVuSans-Bold-72" x="2535.351562"/>
    <use xlink:href="#DejaVuSans-Bold-65" x="2584.667969"/>
   </g>
  </g>
 </g>
 <defs>
  <clipPath id="p31e6405fdb">
   <rect x="7.2" y="72.72" width="329.727273" height="360.36"/>
  </clipPath>
  <clipPath id="pdd87d22382">
   <rect x="402.872727" y="72.72" width="329.727273" height="360.36"/>
  </clipPath>
 </defs>
</svg>
