<?xml version="1.0" encoding="utf-8" standalone="no"?>
<!DOCTYPE svg PUBLIC "-//W3C//DTD SVG 1.1//EN"
  "http://www.w3.org/Graphics/SVG/1.1/DTD/svg11.dtd">
<svg xmlns:xlink="http://www.w3.org/1999/xlink" width="961.879091pt" height="430.400383pt" viewBox="0 0 961.879091 430.400383" xmlns="http://www.w3.org/2000/svg" version="1.1">
 <metadata>
  <rdf:RDF xmlns:dc="http://purl.org/dc/elements/1.1/" xmlns:cc="http://creativecommons.org/ns#" xmlns:rdf="http://www.w3.org/1999/02/22-rdf-syntax-ns#">
   <cc:Work>
    <dc:type rdf:resource="http://purl.org/dc/dcmitype/StillImage"/>
    <dc:date>2026-03-20T01:55:31.210104</dc:date>
    <dc:format>image/svg+xml</dc:format>
    <dc:creator>
     <cc:Agent>
      <dc:title>Matplotlib v3.9.0, https://matplotlib.org/</dc:title>
     </cc:Agent>
    </dc:creator>
   </cc:Work>
  </rdf:RDF>
 </metadata>
 <defs>
  <style type="text/css">*{stroke-linejoin: round; stroke-linecap: butt}</style>
 </defs>
 <g id="figure_1">
  <g id="patch_1">
   <path d="M 0 430.400383 
L 961.879091 430.400383 
L 961.879091 -0 
L 0 -0 
z
" style="fill: #ffffff"/>
  </g>
  <g id="axes_1">
   <g id="line2d_1">
    <path d="M 231.909545 116.316089 
L 129.768843 154.363396 
" clip-path="url(#p24b4be9e4e)" style="fill: none; stroke: #94a3b8; stroke-width: 2; stroke-linecap: square"/>
   </g>
   <g id="line2d_2">
    <path d="M 231.909545 116.316089 
L 334.050248 154.363396 
" clip-path="url(#p24b4be9e4e)" style="fill: none; stroke: #94a3b8; stroke-width: 2; stroke-linecap: square"/>
   </g>
   <g id="line2d_3">
    <path d="M 129.768843 154.363396 
L 80.741306 192.410702 
" clip-path="url(#p24b4be9e4e)" style="fill: none; stroke: #94a3b8; stroke-width: 2; stroke-linecap: square"/>
   </g>
   <g id="line2d_4">
    <path d="M 129.768843 154.363396 
L 178.79638 192.410702 
" clip-path="url(#p24b4be9e4e)" style="fill: none; stroke: #94a3b8; stroke-width: 2; stroke-linecap: square"/>
   </g>
   <g id="line2d_5">
    <path d="M 334.050248 154.363396 
L 285.022711 192.410702 
" clip-path="url(#p24b4be9e4e)" style="fill: none; stroke: #94a3b8; stroke-width: 2; stroke-linecap: square"/>
   </g>
   <g id="line2d_6">
    <path d="M 334.050248 154.363396 
L 383.077785 192.410702 
" clip-path="url(#p24b4be9e4e)" style="fill: none; stroke: #94a3b8; stroke-width: 2; stroke-linecap: square"/>
   </g>
   <g id="line2d_7">
    <path d="M 80.741306 192.410702 
L 56.227537 230.458009 
" clip-path="url(#p24b4be9e4e)" style="fill: none; stroke: #94a3b8; stroke-width: 2; stroke-linecap: square"/>
   </g>
   <g id="line2d_8">
    <path d="M 80.741306 192.410702 
L 105.255074 230.458009 
" clip-path="url(#p24b4be9e4e)" style="fill: none; stroke: #94a3b8; stroke-width: 2; stroke-linecap: square"/>
   </g>
   <g id="line2d_9">
    <path d="M 178.79638 192.410702 
L 154.282612 230.458009 
" clip-path="url(#p24b4be9e4e)" style="fill: none; stroke: #94a3b8; stroke-width: 2; stroke-linecap: square"/>
   </g>
   <g id="line2d_10">
    <path d="M 178.79638 192.410702 
L 203.310149 230.458009 
" clip-path="url(#p24b4be9e4e)" style="fill: none; stroke: #94a3b8; stroke-width: 2; stroke-linecap: square"/>
   </g>
   <g id="line2d_11">
    <path d="M 285.022711 192.410702 
L 260.508942 230.458009 
" clip-path="url(#p24b4be9e4e)" style="fill: none; stroke: #94a3b8; stroke-width: 2; stroke-linecap: square"/>
   </g>
   <g id="line2d_12">
    <path d="M 285.022711 192.410702 
L 309.536479 230.458009 
" clip-path="url(#p24b4be9e4e)" style="fill: none; stroke: #94a3b8; stroke-width: 2; stroke-linecap: square"/>
   </g>
   <g id="line2d_13">
    <path d="M 56.227537 230.458009 
L 56.227537 268.505316 
" clip-path="url(#p24b4be9e4e)" style="fill: none; stroke: #94a3b8; stroke-width: 2; stroke-linecap: square"/>
   </g>
   <g id="line2d_14">
    <path d="M 56.227537 230.458009 
L 105.255074 268.505316 
" clip-path="url(#p24b4be9e4e)" style="fill: none; stroke: #94a3b8; stroke-width: 2; stroke-linecap: square"/>
   </g>
   <g id="line2d_15">
    <path d="M 56.227537 268.505316 
L 56.227537 306.552622 
" clip-path="url(#p24b4be9e4e)" style="fill: none; stroke: #94a3b8; stroke-width: 2; stroke-linecap: square"/>
   </g>
   <g id="patch_2">
    <path d="M 209.438591 126.884785 
L 254.3805 126.884785 
Q 260.508942 126.884785 260.508942 123.714176 
L 260.508942 108.918001 
Q 260.508942 105.747393 254.3805 105.747393 
L 209.438591 105.747393 
Q 203.310149 105.747393 203.310149 108.918001 
L 203.310149 123.714176 
Q 203.310149 126.884785 209.438591 126.884785 
z
" clip-path="url(#p24b4be9e4e)" style="fill: #fef08a; stroke: #ca8a04; stroke-width: 2.5; stroke-linejoin: miter"/>
   </g>
   <g id="patch_3">
    <path d="M 107.297888 164.932092 
L 152.239798 164.932092 
Q 158.36824 164.932092 158.36824 161.761483 
L 158.36824 146.965308 
Q 158.36824 143.794699 152.239798 143.794699 
L 107.297888 143.794699 
Q 101.169446 143.794699 101.169446 146.965308 
L 101.169446 161.761483 
Q 101.169446 164.932092 107.297888 164.932092 
z
" clip-path="url(#p24b4be9e4e)" style="fill: #fef08a; stroke: #ca8a04; stroke-width: 2.5; stroke-linejoin: miter"/>
   </g>
   <g id="patch_4">
    <path d="M 311.579293 164.932092 
L 356.521202 164.932092 
Q 362.649645 164.932092 362.649645 161.761483 
L 362.649645 146.965308 
Q 362.649645 143.794699 356.521202 143.794699 
L 311.579293 143.794699 
Q 305.450851 143.794699 305.450851 146.965308 
L 305.450851 161.761483 
Q 305.450851 164.932092 311.579293 164.932092 
z
" clip-path="url(#p24b4be9e4e)" style="fill: #f1f5f9; stroke: #475569; stroke-width: 1.2; stroke-linejoin: miter"/>
   </g>
   <g id="patch_5">
    <path d="M 58.270351 202.979399 
L 103.21226 202.979399 
Q 109.340702 202.979399 109.340702 199.80879 
L 109.340702 185.012615 
Q 109.340702 181.842006 103.21226 181.842006 
L 58.270351 181.842006 
Q 52.141909 181.842006 52.141909 185.012615 
L 52.141909 199.80879 
Q 52.141909 202.979399 58.270351 202.979399 
z
" clip-path="url(#p24b4be9e4e)" style="fill: #fef08a; stroke: #ca8a04; stroke-width: 2.5; stroke-linejoin: miter"/>
   </g>
   <g id="patch_6">
    <path d="M 156.325426 202.979399 
L 201.267335 202.979399 
Q 207.395777 202.979399 207.395777 199.80879 
L 207.395777 185.012615 
Q 207.395777 181.842006 201.267335 181.842006 
L 156.325426 181.842006 
Q 150.196983 181.842006 150.196983 185.012615 
L 150.196983 199.80879 
Q 150.196983 202.979399 156.325426 202.979399 
z
" clip-path="url(#p24b4be9e4e)" style="fill: #f1f5f9; stroke: #475569; stroke-width: 1.2; stroke-linejoin: miter"/>
   </g>
   <g id="patch_7">
    <path d="M 262.551756 202.979399 
L 307.493665 202.979399 
Q 313.622107 202.979399 313.622107 199.80879 
L 313.622107 185.012615 
Q 313.622107 181.842006 307.493665 181.842006 
L 262.551756 181.842006 
Q 256.423314 181.842006 256.423314 185.012615 
L 256.423314 199.80879 
Q 256.423314 202.979399 262.551756 202.979399 
z
" clip-path="url(#p24b4be9e4e)" style="fill: #f1f5f9; stroke: #475569; stroke-width: 1.2; stroke-linejoin: miter"/>
   </g>
   <g id="patch_8">
    <path d="M 360.606831 202.979399 
L 405.54874 202.979399 
Q 411.677182 202.979399 411.677182 199.80879 
L 411.677182 185.012615 
Q 411.677182 181.842006 405.54874 181.842006 
L 360.606831 181.842006 
Q 354.478388 181.842006 354.478388 185.012615 
L 354.478388 199.80879 
Q 354.478388 202.979399 360.606831 202.979399 
z
" clip-path="url(#p24b4be9e4e)" style="fill: #f1f5f9; stroke: #475569; stroke-width: 1.2; stroke-linejoin: miter"/>
   </g>
   <g id="patch_9">
    <path d="M 33.756583 241.026705 
L 78.698492 241.026705 
Q 84.826934 241.026705 84.826934 237.856096 
L 84.826934 223.059921 
Q 84.826934 219.889313 78.698492 219.889313 
L 33.756583 219.889313 
Q 27.62814 219.889313 27.62814 223.059921 
L 27.62814 237.856096 
Q 27.62814 241.026705 33.756583 241.026705 
z
" clip-path="url(#p24b4be9e4e)" style="fill: #fef08a; stroke: #ca8a04; stroke-width: 2.5; stroke-linejoin: miter"/>
   </g>
   <g id="patch_10">
    <path d="M 82.78412 241.026705 
L 127.726029 241.026705 
Q 133.854471 241.026705 133.854471 237.856096 
L 133.854471 223.059921 
Q 133.854471 219.889313 127.726029 219.889313 
L 82.78412 219.889313 
Q 76.655678 219.889313 76.655678 223.059921 
L 76.655678 237.856096 
Q 76.655678 241.026705 82.78412 241.026705 
z
" clip-path="url(#p24b4be9e4e)" style="fill: #f1f5f9; stroke: #475569; stroke-width: 1.2; stroke-linejoin: miter"/>
   </g>
   <g id="patch_11">
    <path d="M 131.811657 241.026705 
L 176.753566 241.026705 
Q 182.882008 241.026705 182.882008 237.856096 
L 182.882008 223.059921 
Q 182.882008 219.889313 176.753566 219.889313 
L 131.811657 219.889313 
Q 125.683215 219.889313 125.683215 223.059921 
L 125.683215 237.856096 
Q 125.683215 241.026705 131.811657 241.026705 
z
" clip-path="url(#p24b4be9e4e)" style="fill: #f1f5f9; stroke: #475569; stroke-width: 1.2; stroke-linejoin: miter"/>
   </g>
   <g id="patch_12">
    <path d="M 180.839194 241.026705 
L 225.781103 241.026705 
Q 231.909545 241.026705 231.909545 237.856096 
L 231.909545 223.059921 
Q 231.909545 219.889313 225.781103 219.889313 
L 180.839194 219.889313 
Q 174.710752 219.889313 174.710752 223.059921 
L 174.710752 237.856096 
Q 174.710752 241.026705 180.839194 241.026705 
z
" clip-path="url(#p24b4be9e4e)" style="fill: #f1f5f9; stroke: #475569; stroke-width: 1.2; stroke-linejoin: miter"/>
   </g>
   <g id="patch_13">
    <path d="M 238.037988 241.026705 
L 282.979897 241.026705 
Q 289.108339 241.026705 289.108339 237.856096 
L 289.108339 223.059921 
Q 289.108339 219.889313 282.979897 219.889313 
L 238.037988 219.889313 
Q 231.909545 219.889313 231.909545 223.059921 
L 231.909545 237.856096 
Q 231.909545 241.026705 238.037988 241.026705 
z
" clip-path="url(#p24b4be9e4e)" style="fill: #f1f5f9; stroke: #475569; stroke-width: 1.2; stroke-linejoin: miter"/>
   </g>
   <g id="patch_14">
    <path d="M 287.065525 241.026705 
L 332.007434 241.026705 
Q 338.135876 241.026705 338.135876 237.856096 
L 338.135876 223.059921 
Q 338.135876 219.889313 332.007434 219.889313 
L 287.065525 219.889313 
Q 280.937083 219.889313 280.937083 223.059921 
L 280.937083 237.856096 
Q 280.937083 241.026705 287.065525 241.026705 
z
" clip-path="url(#p24b4be9e4e)" style="fill: #f1f5f9; stroke: #475569; stroke-width: 1.2; stroke-linejoin: miter"/>
   </g>
   <g id="patch_15">
    <path d="M 33.756583 279.074012 
L 78.698492 279.074012 
Q 84.826934 279.074012 84.826934 275.903403 
L 84.826934 261.107228 
Q 84.826934 257.936619 78.698492 257.936619 
L 33.756583 257.936619 
Q 27.62814 257.936619 27.62814 261.107228 
L 27.62814 275.903403 
Q 27.62814 279.074012 33.756583 279.074012 
z
" clip-path="url(#p24b4be9e4e)" style="fill: #fef08a; stroke: #ca8a04; stroke-width: 2.5; stroke-linejoin: miter"/>
   </g>
   <g id="patch_16">
    <path d="M 82.78412 279.074012 
L 127.726029 279.074012 
Q 133.854471 279.074012 133.854471 275.903403 
L 133.854471 261.107228 
Q 133.854471 257.936619 127.726029 257.936619 
L 82.78412 257.936619 
Q 76.655678 257.936619 76.655678 261.107228 
L 76.655678 275.903403 
Q 76.655678 279.074012 82.78412 279.074012 
z
" clip-path="url(#p24b4be9e4e)" style="fill: #f1f5f9; stroke: #475569; stroke-width: 1.2; stroke-linejoin: miter"/>
   </g>
   <g id="patch_17">
    <path d="M 33.756583 317.121319 
L 78.698492 317.121319 
Q 84.826934 317.121319 84.826934 313.95071 
L 84.826934 299.154535 
Q 84.826934 295.983926 78.698492 295.983926 
L 33.756583 295.983926 
Q 27.62814 295.983926 27.62814 299.154535 
L 27.62814 313.95071 
Q 27.62814 317.121319 33.756583 317.121319 
z
" clip-path="url(#p24b4be9e4e)" style="fill: #fef08a; stroke: #ca8a04; stroke-width: 2.5; stroke-linejoin: miter"/>
   </g>
   <g id="text_1">
    <!-- amt&gt;$500 -->
    <g style="fill: #0f172a" transform="translate(209.121577 118.661558) scale(0.085 -0.085)">
     <defs>
      <path id="DejaVuSans-61" d="M 2194 1759 
Q 1497 1759 1228 1600 
Q 959 1441 959 1056 
Q 959 750 1161 570 
Q 1363 391 1709 391 
Q 2188 391 2477 730 
Q 2766 1069 2766 1631 
L 2766 1759 
L 2194 1759 
z
M 3341 1997 
L 3341 0 
L 2766 0 
L 2766 531 
Q 2569 213 2275 61 
Q 1981 -91 1556 -91 
Q 1019 -91 701 211 
Q 384 513 384 1019 
Q 384 1609 779 1909 
Q 1175 2209 1959 2209 
L 2766 2209 
L 2766 2266 
Q 2766 2663 2505 2880 
Q 2244 3097 1772 3097 
Q 1472 3097 1187 3025 
Q 903 2953 641 2809 
L 641 3341 
Q 956 3463 1253 3523 
Q 1550 3584 1831 3584 
Q 2591 3584 2966 3190 
Q 3341 2797 3341 1997 
z
" transform="scale(0.015625)"/>
      <path id="DejaVuSans-6d" d="M 3328 2828 
Q 3544 3216 3844 3400 
Q 4144 3584 4550 3584 
Q 5097 3584 5394 3201 
Q 5691 2819 5691 2113 
L 5691 0 
L 5113 0 
L 5113 2094 
Q 5113 2597 4934 2840 
Q 4756 3084 4391 3084 
Q 3944 3084 3684 2787 
Q 3425 2491 3425 1978 
L 3425 0 
L 2847 0 
L 2847 2094 
Q 2847 2600 2669 2842 
Q 2491 3084 2119 3084 
Q 1678 3084 1418 2786 
Q 1159 2488 1159 1978 
L 1159 0 
L 581 0 
L 581 3500 
L 1159 3500 
L 1159 2956 
Q 1356 3278 1631 3431 
Q 1906 3584 2284 3584 
Q 2666 3584 2933 3390 
Q 3200 3197 3328 2828 
z
" transform="scale(0.015625)"/>
      <path id="DejaVuSans-74" d="M 1172 4494 
L 1172 3500 
L 2356 3500 
L 2356 3053 
L 1172 3053 
L 1172 1153 
Q 1172 725 1289 603 
Q 1406 481 1766 481 
L 2356 481 
L 2356 0 
L 1766 0 
Q 1100 0 847 248 
Q 594 497 594 1153 
L 594 3053 
L 172 3053 
L 172 3500 
L 594 3500 
L 594 4494 
L 1172 4494 
z
" transform="scale(0.015625)"/>
      <path id="DejaVuSans-3e" d="M 678 3150 
L 678 3719 
L 4684 2266 
L 4684 1747 
L 678 294 
L 678 863 
L 3897 2003 
L 678 3150 
z
" transform="scale(0.015625)"/>
      <path id="DejaVuSans-24" d="M 2163 -941 
L 1850 -941 
L 1847 0 
Q 1519 6 1191 76 
Q 863 147 531 288 
L 531 850 
Q 850 650 1176 548 
Q 1503 447 1850 444 
L 1850 1869 
Q 1159 1981 845 2250 
Q 531 2519 531 2988 
Q 531 3497 872 3790 
Q 1213 4084 1850 4128 
L 1850 4863 
L 2163 4863 
L 2163 4138 
Q 2453 4125 2725 4076 
Q 2997 4028 3256 3944 
L 3256 3397 
Q 2997 3528 2723 3600 
Q 2450 3672 2163 3684 
L 2163 2350 
Q 2872 2241 3206 1959 
Q 3541 1678 3541 1191 
Q 3541 663 3186 358 
Q 2831 53 2163 6 
L 2163 -941 
z
M 1850 2406 
L 1850 3688 
Q 1488 3647 1297 3481 
Q 1106 3316 1106 3041 
Q 1106 2772 1282 2622 
Q 1459 2472 1850 2406 
z
M 2163 1806 
L 2163 453 
Q 2559 506 2761 678 
Q 2963 850 2963 1131 
Q 2963 1406 2770 1568 
Q 2578 1731 2163 1806 
z
" transform="scale(0.015625)"/>
      <path id="DejaVuSans-35" d="M 691 4666 
L 3169 4666 
L 3169 4134 
L 1269 4134 
L 1269 2991 
Q 1406 3038 1543 3061 
Q 1681 3084 1819 3084 
Q 2600 3084 3056 2656 
Q 3513 2228 3513 1497 
Q 3513 744 3044 326 
Q 2575 -91 1722 -91 
Q 1428 -91 1123 -41 
Q 819 9 494 109 
L 494 744 
Q 775 591 1075 516 
Q 1375 441 1709 441 
Q 2250 441 2565 725 
Q 2881 1009 2881 1497 
Q 2881 1984 2565 2268 
Q 2250 2553 1709 2553 
Q 1456 2553 1204 2497 
Q 953 2441 691 2322 
L 691 4666 
z
" transform="scale(0.015625)"/>
      <path id="DejaVuSans-30" d="M 2034 4250 
Q 1547 4250 1301 3770 
Q 1056 3291 1056 2328 
Q 1056 1369 1301 889 
Q 1547 409 2034 409 
Q 2525 409 2770 889 
Q 3016 1369 3016 2328 
Q 3016 3291 2770 3770 
Q 2525 4250 2034 4250 
z
M 2034 4750 
Q 2819 4750 3233 4129 
Q 3647 3509 3647 2328 
Q 3647 1150 3233 529 
Q 2819 -91 2034 -91 
Q 1250 -91 836 529 
Q 422 1150 422 2328 
Q 422 3509 836 4129 
Q 1250 4750 2034 4750 
z
" transform="scale(0.015625)"/>
     </defs>
     <use xlink:href="#DejaVuSans-61"/>
     <use xlink:href="#DejaVuSans-6d" x="61.279297"/>
     <use xlink:href="#DejaVuSans-74" x="158.691406"/>
     <use xlink:href="#DejaVuSans-3e" x="197.900391"/>
     <use xlink:href="#DejaVuSans-24" x="281.689453"/>
     <use xlink:href="#DejaVuSans-35" x="345.3125"/>
     <use xlink:href="#DejaVuSans-30" x="408.935547"/>
     <use xlink:href="#DejaVuSans-30" x="472.558594"/>
    </g>
   </g>
   <g id="text_2">
    <!-- foreign? -->
    <g style="fill: #0f172a" transform="translate(112.577593 156.708864) scale(0.085 -0.085)">
     <defs>
      <path id="DejaVuSans-66" d="M 2375 4863 
L 2375 4384 
L 1825 4384 
Q 1516 4384 1395 4259 
Q 1275 4134 1275 3809 
L 1275 3500 
L 2222 3500 
L 2222 3053 
L 1275 3053 
L 1275 0 
L 697 0 
L 697 3053 
L 147 3053 
L 147 3500 
L 697 3500 
L 697 3744 
Q 697 4328 969 4595 
Q 1241 4863 1831 4863 
L 2375 4863 
z
" transform="scale(0.015625)"/>
      <path id="DejaVuSans-6f" d="M 1959 3097 
Q 1497 3097 1228 2736 
Q 959 2375 959 1747 
Q 959 1119 1226 758 
Q 1494 397 1959 397 
Q 2419 397 2687 759 
Q 2956 1122 2956 1747 
Q 2956 2369 2687 2733 
Q 2419 3097 1959 3097 
z
M 1959 3584 
Q 2709 3584 3137 3096 
Q 3566 2609 3566 1747 
Q 3566 888 3137 398 
Q 2709 -91 1959 -91 
Q 1206 -91 779 398 
Q 353 888 353 1747 
Q 353 2609 779 3096 
Q 1206 3584 1959 3584 
z
" transform="scale(0.015625)"/>
      <path id="DejaVuSans-72" d="M 2631 2963 
Q 2534 3019 2420 3045 
Q 2306 3072 2169 3072 
Q 1681 3072 1420 2755 
Q 1159 2438 1159 1844 
L 1159 0 
L 581 0 
L 581 3500 
L 1159 3500 
L 1159 2956 
Q 1341 3275 1631 3429 
Q 1922 3584 2338 3584 
Q 2397 3584 2469 3576 
Q 2541 3569 2628 3553 
L 2631 2963 
z
" transform="scale(0.015625)"/>
      <path id="DejaVuSans-65" d="M 3597 1894 
L 3597 1613 
L 953 1613 
Q 991 1019 1311 708 
Q 1631 397 2203 397 
Q 2534 397 2845 478 
Q 3156 559 3463 722 
L 3463 178 
Q 3153 47 2828 -22 
Q 2503 -91 2169 -91 
Q 1331 -91 842 396 
Q 353 884 353 1716 
Q 353 2575 817 3079 
Q 1281 3584 2069 3584 
Q 2775 3584 3186 3129 
Q 3597 2675 3597 1894 
z
M 3022 2063 
Q 3016 2534 2758 2815 
Q 2500 3097 2075 3097 
Q 1594 3097 1305 2825 
Q 1016 2553 972 2059 
L 3022 2063 
z
" transform="scale(0.015625)"/>
      <path id="DejaVuSans-69" d="M 603 3500 
L 1178 3500 
L 1178 0 
L 603 0 
L 603 3500 
z
M 603 4863 
L 1178 4863 
L 1178 4134 
L 603 4134 
L 603 4863 
z
" transform="scale(0.015625)"/>
      <path id="DejaVuSans-67" d="M 2906 1791 
Q 2906 2416 2648 2759 
Q 2391 3103 1925 3103 
Q 1463 3103 1205 2759 
Q 947 2416 947 1791 
Q 947 1169 1205 825 
Q 1463 481 1925 481 
Q 2391 481 2648 825 
Q 2906 1169 2906 1791 
z
M 3481 434 
Q 3481 -459 3084 -895 
Q 2688 -1331 1869 -1331 
Q 1566 -1331 1297 -1286 
Q 1028 -1241 775 -1147 
L 775 -588 
Q 1028 -725 1275 -790 
Q 1522 -856 1778 -856 
Q 2344 -856 2625 -561 
Q 2906 -266 2906 331 
L 2906 616 
Q 2728 306 2450 153 
Q 2172 0 1784 0 
Q 1141 0 747 490 
Q 353 981 353 1791 
Q 353 2603 747 3093 
Q 1141 3584 1784 3584 
Q 2172 3584 2450 3431 
Q 2728 3278 2906 2969 
L 2906 3500 
L 3481 3500 
L 3481 434 
z
" transform="scale(0.015625)"/>
      <path id="DejaVuSans-6e" d="M 3513 2113 
L 3513 0 
L 2938 0 
L 2938 2094 
Q 2938 2591 2744 2837 
Q 2550 3084 2163 3084 
Q 1697 3084 1428 2787 
Q 1159 2491 1159 1978 
L 1159 0 
L 581 0 
L 581 3500 
L 1159 3500 
L 1159 2956 
Q 1366 3272 1645 3428 
Q 1925 3584 2291 3584 
Q 2894 3584 3203 3211 
Q 3513 2838 3513 2113 
z
" transform="scale(0.015625)"/>
      <path id="DejaVuSans-3f" d="M 1222 794 
L 1856 794 
L 1856 0 
L 1222 0 
L 1222 794 
z
M 1838 1253 
L 1241 1253 
L 1241 1734 
Q 1241 2050 1328 2253 
Q 1416 2456 1697 2725 
L 1978 3003 
Q 2156 3169 2236 3316 
Q 2316 3463 2316 3616 
Q 2316 3894 2111 4066 
Q 1906 4238 1569 4238 
Q 1322 4238 1042 4128 
Q 763 4019 459 3809 
L 459 4397 
Q 753 4575 1054 4662 
Q 1356 4750 1678 4750 
Q 2253 4750 2601 4447 
Q 2950 4144 2950 3647 
Q 2950 3409 2837 3195 
Q 2725 2981 2444 2713 
L 2169 2444 
Q 2022 2297 1961 2214 
Q 1900 2131 1875 2053 
Q 1856 1988 1847 1894 
Q 1838 1800 1838 1638 
L 1838 1253 
z
" transform="scale(0.015625)"/>
     </defs>
     <use xlink:href="#DejaVuSans-66"/>
     <use xlink:href="#DejaVuSans-6f" x="35.205078"/>
     <use xlink:href="#DejaVuSans-72" x="96.386719"/>
     <use xlink:href="#DejaVuSans-65" x="135.25"/>
     <use xlink:href="#DejaVuSans-69" x="196.773438"/>
     <use xlink:href="#DejaVuSans-67" x="224.556641"/>
     <use xlink:href="#DejaVuSans-6e" x="288.033203"/>
     <use xlink:href="#DejaVuSans-3f" x="351.412109"/>
    </g>
   </g>
   <g id="text_3">
    <!-- age&lt;30d -->
    <g style="fill: #0f172a" transform="translate(314.465053 156.708864) scale(0.085 -0.085)">
     <defs>
      <path id="DejaVuSans-3c" d="M 4684 3150 
L 1459 2003 
L 4684 863 
L 4684 294 
L 678 1747 
L 678 2266 
L 4684 3719 
L 4684 3150 
z
" transform="scale(0.015625)"/>
      <path id="DejaVuSans-33" d="M 2597 2516 
Q 3050 2419 3304 2112 
Q 3559 1806 3559 1356 
Q 3559 666 3084 287 
Q 2609 -91 1734 -91 
Q 1441 -91 1130 -33 
Q 819 25 488 141 
L 488 750 
Q 750 597 1062 519 
Q 1375 441 1716 441 
Q 2309 441 2620 675 
Q 2931 909 2931 1356 
Q 2931 1769 2642 2001 
Q 2353 2234 1838 2234 
L 1294 2234 
L 1294 2753 
L 1863 2753 
Q 2328 2753 2575 2939 
Q 2822 3125 2822 3475 
Q 2822 3834 2567 4026 
Q 2313 4219 1838 4219 
Q 1578 4219 1281 4162 
Q 984 4106 628 3988 
L 628 4550 
Q 988 4650 1302 4700 
Q 1616 4750 1894 4750 
Q 2613 4750 3031 4423 
Q 3450 4097 3450 3541 
Q 3450 3153 3228 2886 
Q 3006 2619 2597 2516 
z
" transform="scale(0.015625)"/>
      <path id="DejaVuSans-64" d="M 2906 2969 
L 2906 4863 
L 3481 4863 
L 3481 0 
L 2906 0 
L 2906 525 
Q 2725 213 2448 61 
Q 2172 -91 1784 -91 
Q 1150 -91 751 415 
Q 353 922 353 1747 
Q 353 2572 751 3078 
Q 1150 3584 1784 3584 
Q 2172 3584 2448 3432 
Q 2725 3281 2906 2969 
z
M 947 1747 
Q 947 1113 1208 752 
Q 1469 391 1925 391 
Q 2381 391 2643 752 
Q 2906 1113 2906 1747 
Q 2906 2381 2643 2742 
Q 2381 3103 1925 3103 
Q 1469 3103 1208 2742 
Q 947 2381 947 1747 
z
" transform="scale(0.015625)"/>
     </defs>
     <use xlink:href="#DejaVuSans-61"/>
     <use xlink:href="#DejaVuSans-67" x="61.279297"/>
     <use xlink:href="#DejaVuSans-65" x="124.755859"/>
     <use xlink:href="#DejaVuSans-3c" x="186.279297"/>
     <use xlink:href="#DejaVuSans-33" x="270.068359"/>
     <use xlink:href="#DejaVuSans-30" x="333.691406"/>
     <use xlink:href="#DejaVuSans-64" x="397.314453"/>
    </g>
   </g>
   <g id="text_4">
    <!-- v1&gt;2.1 -->
    <g style="fill: #0f172a" transform="translate(65.201579 194.756171) scale(0.085 -0.085)">
     <defs>
      <path id="DejaVuSans-76" d="M 191 3500 
L 800 3500 
L 1894 563 
L 2988 3500 
L 3597 3500 
L 2284 0 
L 1503 0 
L 191 3500 
z
" transform="scale(0.015625)"/>
      <path id="DejaVuSans-31" d="M 794 531 
L 1825 531 
L 1825 4091 
L 703 3866 
L 703 4441 
L 1819 4666 
L 2450 4666 
L 2450 531 
L 3481 531 
L 3481 0 
L 794 0 
L 794 531 
z
" transform="scale(0.015625)"/>
      <path id="DejaVuSans-32" d="M 1228 531 
L 3431 531 
L 3431 0 
L 469 0 
L 469 531 
Q 828 903 1448 1529 
Q 2069 2156 2228 2338 
Q 2531 2678 2651 2914 
Q 2772 3150 2772 3378 
Q 2772 3750 2511 3984 
Q 2250 4219 1831 4219 
Q 1534 4219 1204 4116 
Q 875 4013 500 3803 
L 500 4441 
Q 881 4594 1212 4672 
Q 1544 4750 1819 4750 
Q 2544 4750 2975 4387 
Q 3406 4025 3406 3419 
Q 3406 3131 3298 2873 
Q 3191 2616 2906 2266 
Q 2828 2175 2409 1742 
Q 1991 1309 1228 531 
z
" transform="scale(0.015625)"/>
      <path id="DejaVuSans-2e" d="M 684 794 
L 1344 794 
L 1344 0 
L 684 0 
L 684 794 
z
" transform="scale(0.015625)"/>
     </defs>
     <use xlink:href="#DejaVuSans-76"/>
     <use xlink:href="#DejaVuSans-31" x="59.179688"/>
     <use xlink:href="#DejaVuSans-3e" x="122.802734"/>
     <use xlink:href="#DejaVuSans-32" x="206.591797"/>
     <use xlink:href="#DejaVuSans-2e" x="270.214844"/>
     <use xlink:href="#DejaVuSans-31" x="302.001953"/>
    </g>
   </g>
   <g id="text_5">
    <!-- v2&lt;-0.3 -->
    <g style="fill: #0f172a" transform="translate(161.723333 194.756171) scale(0.085 -0.085)">
     <defs>
      <path id="DejaVuSans-2d" d="M 313 2009 
L 1997 2009 
L 1997 1497 
L 313 1497 
L 313 2009 
z
" transform="scale(0.015625)"/>
     </defs>
     <use xlink:href="#DejaVuSans-76"/>
     <use xlink:href="#DejaVuSans-32" x="59.179688"/>
     <use xlink:href="#DejaVuSans-3c" x="122.802734"/>
     <use xlink:href="#DejaVuSans-2d" x="206.591797"/>
     <use xlink:href="#DejaVuSans-30" x="242.675781"/>
     <use xlink:href="#DejaVuSans-2e" x="306.298828"/>
     <use xlink:href="#DejaVuSans-33" x="338.085938"/>
    </g>
   </g>
   <g id="text_6">
    <!-- v3&gt;1.8 -->
    <g style="fill: #0f172a" transform="translate(269.482984 194.756171) scale(0.085 -0.085)">
     <defs>
      <path id="DejaVuSans-38" d="M 2034 2216 
Q 1584 2216 1326 1975 
Q 1069 1734 1069 1313 
Q 1069 891 1326 650 
Q 1584 409 2034 409 
Q 2484 409 2743 651 
Q 3003 894 3003 1313 
Q 3003 1734 2745 1975 
Q 2488 2216 2034 2216 
z
M 1403 2484 
Q 997 2584 770 2862 
Q 544 3141 544 3541 
Q 544 4100 942 4425 
Q 1341 4750 2034 4750 
Q 2731 4750 3128 4425 
Q 3525 4100 3525 3541 
Q 3525 3141 3298 2862 
Q 3072 2584 2669 2484 
Q 3125 2378 3379 2068 
Q 3634 1759 3634 1313 
Q 3634 634 3220 271 
Q 2806 -91 2034 -91 
Q 1263 -91 848 271 
Q 434 634 434 1313 
Q 434 1759 690 2068 
Q 947 2378 1403 2484 
z
M 1172 3481 
Q 1172 3119 1398 2916 
Q 1625 2713 2034 2713 
Q 2441 2713 2670 2916 
Q 2900 3119 2900 3481 
Q 2900 3844 2670 4047 
Q 2441 4250 2034 4250 
Q 1625 4250 1398 4047 
Q 1172 3844 1172 3481 
z
" transform="scale(0.015625)"/>
     </defs>
     <use xlink:href="#DejaVuSans-76"/>
     <use xlink:href="#DejaVuSans-33" x="59.179688"/>
     <use xlink:href="#DejaVuSans-3e" x="122.802734"/>
     <use xlink:href="#DejaVuSans-31" x="206.591797"/>
     <use xlink:href="#DejaVuSans-2e" x="270.214844"/>
     <use xlink:href="#DejaVuSans-38" x="302.001953"/>
    </g>
   </g>
   <g id="text_7">
    <!-- v4&lt;0.9 -->
    <g style="fill: #0f172a" transform="translate(367.538059 194.756171) scale(0.085 -0.085)">
     <defs>
      <path id="DejaVuSans-34" d="M 2419 4116 
L 825 1625 
L 2419 1625 
L 2419 4116 
z
M 2253 4666 
L 3047 4666 
L 3047 1625 
L 3713 1625 
L 3713 1100 
L 3047 1100 
L 3047 0 
L 2419 0 
L 2419 1100 
L 313 1100 
L 313 1709 
L 2253 4666 
z
" transform="scale(0.015625)"/>
      <path id="DejaVuSans-39" d="M 703 97 
L 703 672 
Q 941 559 1184 500 
Q 1428 441 1663 441 
Q 2288 441 2617 861 
Q 2947 1281 2994 2138 
Q 2813 1869 2534 1725 
Q 2256 1581 1919 1581 
Q 1219 1581 811 2004 
Q 403 2428 403 3163 
Q 403 3881 828 4315 
Q 1253 4750 1959 4750 
Q 2769 4750 3195 4129 
Q 3622 3509 3622 2328 
Q 3622 1225 3098 567 
Q 2575 -91 1691 -91 
Q 1453 -91 1209 -44 
Q 966 3 703 97 
z
M 1959 2075 
Q 2384 2075 2632 2365 
Q 2881 2656 2881 3163 
Q 2881 3666 2632 3958 
Q 2384 4250 1959 4250 
Q 1534 4250 1286 3958 
Q 1038 3666 1038 3163 
Q 1038 2656 1286 2365 
Q 1534 2075 1959 2075 
z
" transform="scale(0.015625)"/>
     </defs>
     <use xlink:href="#DejaVuSans-76"/>
     <use xlink:href="#DejaVuSans-34" x="59.179688"/>
     <use xlink:href="#DejaVuSans-3c" x="122.802734"/>
     <use xlink:href="#DejaVuSans-30" x="206.591797"/>
     <use xlink:href="#DejaVuSans-2e" x="270.214844"/>
     <use xlink:href="#DejaVuSans-39" x="302.001953"/>
    </g>
   </g>
   <g id="text_8">
    <!-- v5&gt;0.7 -->
    <g style="fill: #0f172a" transform="translate(40.687811 232.803478) scale(0.085 -0.085)">
     <defs>
      <path id="DejaVuSans-37" d="M 525 4666 
L 3525 4666 
L 3525 4397 
L 1831 0 
L 1172 0 
L 2766 4134 
L 525 4134 
L 525 4666 
z
" transform="scale(0.015625)"/>
     </defs>
     <use xlink:href="#DejaVuSans-76"/>
     <use xlink:href="#DejaVuSans-35" x="59.179688"/>
     <use xlink:href="#DejaVuSans-3e" x="122.802734"/>
     <use xlink:href="#DejaVuSans-30" x="206.591797"/>
     <use xlink:href="#DejaVuSans-2e" x="270.214844"/>
     <use xlink:href="#DejaVuSans-37" x="302.001953"/>
    </g>
   </g>
   <g id="text_9">
    <!-- v6&lt;1.2 -->
    <g style="fill: #0f172a" transform="translate(89.715348 232.803478) scale(0.085 -0.085)">
     <defs>
      <path id="DejaVuSans-36" d="M 2113 2584 
Q 1688 2584 1439 2293 
Q 1191 2003 1191 1497 
Q 1191 994 1439 701 
Q 1688 409 2113 409 
Q 2538 409 2786 701 
Q 3034 994 3034 1497 
Q 3034 2003 2786 2293 
Q 2538 2584 2113 2584 
z
M 3366 4563 
L 3366 3988 
Q 3128 4100 2886 4159 
Q 2644 4219 2406 4219 
Q 1781 4219 1451 3797 
Q 1122 3375 1075 2522 
Q 1259 2794 1537 2939 
Q 1816 3084 2150 3084 
Q 2853 3084 3261 2657 
Q 3669 2231 3669 1497 
Q 3669 778 3244 343 
Q 2819 -91 2113 -91 
Q 1303 -91 875 529 
Q 447 1150 447 2328 
Q 447 3434 972 4092 
Q 1497 4750 2381 4750 
Q 2619 4750 2861 4703 
Q 3103 4656 3366 4563 
z
" transform="scale(0.015625)"/>
     </defs>
     <use xlink:href="#DejaVuSans-76"/>
     <use xlink:href="#DejaVuSans-36" x="59.179688"/>
     <use xlink:href="#DejaVuSans-3c" x="122.802734"/>
     <use xlink:href="#DejaVuSans-31" x="206.591797"/>
     <use xlink:href="#DejaVuSans-2e" x="270.214844"/>
     <use xlink:href="#DejaVuSans-32" x="302.001953"/>
    </g>
   </g>
   <g id="text_10">
    <!-- v7&gt;-0.4 -->
    <g style="fill: #0f172a" transform="translate(137.209565 232.803478) scale(0.085 -0.085)">
     <use xlink:href="#DejaVuSans-76"/>
     <use xlink:href="#DejaVuSans-37" x="59.179688"/>
     <use xlink:href="#DejaVuSans-3e" x="122.802734"/>
     <use xlink:href="#DejaVuSans-2d" x="206.591797"/>
     <use xlink:href="#DejaVuSans-30" x="242.675781"/>
     <use xlink:href="#DejaVuSans-2e" x="306.298828"/>
     <use xlink:href="#DejaVuSans-34" x="338.085938"/>
    </g>
   </g>
   <g id="text_11">
    <!-- v8&gt;2.0 -->
    <g style="fill: #0f172a" transform="translate(187.770422 232.803478) scale(0.085 -0.085)">
     <use xlink:href="#DejaVuSans-76"/>
     <use xlink:href="#DejaVuSans-38" x="59.179688"/>
     <use xlink:href="#DejaVuSans-3e" x="122.802734"/>
     <use xlink:href="#DejaVuSans-32" x="206.591797"/>
     <use xlink:href="#DejaVuSans-2e" x="270.214844"/>
     <use xlink:href="#DejaVuSans-30" x="302.001953"/>
    </g>
   </g>
   <g id="text_12">
    <!-- v9&lt;0.6 -->
    <g style="fill: #0f172a" transform="translate(244.969216 232.803478) scale(0.085 -0.085)">
     <use xlink:href="#DejaVuSans-76"/>
     <use xlink:href="#DejaVuSans-39" x="59.179688"/>
     <use xlink:href="#DejaVuSans-3c" x="122.802734"/>
     <use xlink:href="#DejaVuSans-30" x="206.591797"/>
     <use xlink:href="#DejaVuSans-2e" x="270.214844"/>
     <use xlink:href="#DejaVuSans-36" x="302.001953"/>
    </g>
   </g>
   <g id="text_13">
    <!-- v10&gt;1.1 -->
    <g style="fill: #0f172a" transform="translate(291.29269 232.803478) scale(0.085 -0.085)">
     <use xlink:href="#DejaVuSans-76"/>
     <use xlink:href="#DejaVuSans-31" x="59.179688"/>
     <use xlink:href="#DejaVuSans-30" x="122.802734"/>
     <use xlink:href="#DejaVuSans-3e" x="186.425781"/>
     <use xlink:href="#DejaVuSans-31" x="270.214844"/>
     <use xlink:href="#DejaVuSans-2e" x="333.837891"/>
     <use xlink:href="#DejaVuSans-31" x="365.625"/>
    </g>
   </g>
   <g id="text_14">
    <!-- v11&gt;0.3 -->
    <g style="fill: #0f172a" transform="translate(37.983748 270.850784) scale(0.085 -0.085)">
     <use xlink:href="#DejaVuSans-76"/>
     <use xlink:href="#DejaVuSans-31" x="59.179688"/>
     <use xlink:href="#DejaVuSans-31" x="122.802734"/>
     <use xlink:href="#DejaVuSans-3e" x="186.425781"/>
     <use xlink:href="#DejaVuSans-30" x="270.214844"/>
     <use xlink:href="#DejaVuSans-2e" x="333.837891"/>
     <use xlink:href="#DejaVuSans-33" x="365.625"/>
    </g>
   </g>
   <g id="text_15">
    <!-- v12&lt;1.5 -->
    <g style="fill: #0f172a" transform="translate(87.011285 270.850784) scale(0.085 -0.085)">
     <use xlink:href="#DejaVuSans-76"/>
     <use xlink:href="#DejaVuSans-31" x="59.179688"/>
     <use xlink:href="#DejaVuSans-32" x="122.802734"/>
     <use xlink:href="#DejaVuSans-3c" x="186.425781"/>
     <use xlink:href="#DejaVuSans-31" x="270.214844"/>
     <use xlink:href="#DejaVuSans-2e" x="333.837891"/>
     <use xlink:href="#DejaVuSans-35" x="365.625"/>
    </g>
   </g>
   <g id="text_16">
    <!-- NORMAL ✓ -->
    <g style="fill: #0f172a" transform="translate(32.895037 308.898091) scale(0.085 -0.085)">
     <defs>
      <path id="DejaVuSans-4e" d="M 628 4666 
L 1478 4666 
L 3547 763 
L 3547 4666 
L 4159 4666 
L 4159 0 
L 3309 0 
L 1241 3903 
L 1241 0 
L 628 0 
L 628 4666 
z
" transform="scale(0.015625)"/>
      <path id="DejaVuSans-4f" d="M 2522 4238 
Q 1834 4238 1429 3725 
Q 1025 3213 1025 2328 
Q 1025 1447 1429 934 
Q 1834 422 2522 422 
Q 3209 422 3611 934 
Q 4013 1447 4013 2328 
Q 4013 3213 3611 3725 
Q 3209 4238 2522 4238 
z
M 2522 4750 
Q 3503 4750 4090 4092 
Q 4678 3434 4678 2328 
Q 4678 1225 4090 567 
Q 3503 -91 2522 -91 
Q 1538 -91 948 565 
Q 359 1222 359 2328 
Q 359 3434 948 4092 
Q 1538 4750 2522 4750 
z
" transform="scale(0.015625)"/>
      <path id="DejaVuSans-52" d="M 2841 2188 
Q 3044 2119 3236 1894 
Q 3428 1669 3622 1275 
L 4263 0 
L 3584 0 
L 2988 1197 
Q 2756 1666 2539 1819 
Q 2322 1972 1947 1972 
L 1259 1972 
L 1259 0 
L 628 0 
L 628 4666 
L 2053 4666 
Q 2853 4666 3247 4331 
Q 3641 3997 3641 3322 
Q 3641 2881 3436 2590 
Q 3231 2300 2841 2188 
z
M 1259 4147 
L 1259 2491 
L 2053 2491 
Q 2509 2491 2742 2702 
Q 2975 2913 2975 3322 
Q 2975 3731 2742 3939 
Q 2509 4147 2053 4147 
L 1259 4147 
z
" transform="scale(0.015625)"/>
      <path id="DejaVuSans-4d" d="M 628 4666 
L 1569 4666 
L 2759 1491 
L 3956 4666 
L 4897 4666 
L 4897 0 
L 4281 0 
L 4281 4097 
L 3078 897 
L 2444 897 
L 1241 4097 
L 1241 0 
L 628 0 
L 628 4666 
z
" transform="scale(0.015625)"/>
      <path id="DejaVuSans-41" d="M 2188 4044 
L 1331 1722 
L 3047 1722 
L 2188 4044 
z
M 1831 4666 
L 2547 4666 
L 4325 0 
L 3669 0 
L 3244 1197 
L 1141 1197 
L 716 0 
L 50 0 
L 1831 4666 
z
" transform="scale(0.015625)"/>
      <path id="DejaVuSans-4c" d="M 628 4666 
L 1259 4666 
L 1259 531 
L 3531 531 
L 3531 0 
L 628 0 
L 628 4666 
z
" transform="scale(0.015625)"/>
      <path id="DejaVuSans-20" transform="scale(0.015625)"/>
      <path id="DejaVuSans-2713" d="M 1416 2044 
Q 1538 2044 1600 1844 
Q 1725 1469 1778 1469 
Q 1819 1469 1863 1531 
Q 2741 2938 3488 3806 
Q 3681 4031 4103 4031 
Q 4203 4031 4237 4012 
Q 4272 3994 4272 3966 
Q 4272 3922 4169 3794 
Q 2963 2344 1931 731 
Q 1859 619 1638 619 
Q 1413 619 1372 638 
Q 1266 684 1122 1116 
Q 959 1594 959 1716 
Q 959 1847 1178 1969 
Q 1313 2044 1416 2044 
z
" transform="scale(0.015625)"/>
     </defs>
     <use xlink:href="#DejaVuSans-4e"/>
     <use xlink:href="#DejaVuSans-4f" x="74.804688"/>
     <use xlink:href="#DejaVuSans-52" x="153.515625"/>
     <use xlink:href="#DejaVuSans-4d" x="222.998047"/>
     <use xlink:href="#DejaVuSans-41" x="309.277344"/>
     <use xlink:href="#DejaVuSans-4c" x="377.685547"/>
     <use xlink:href="#DejaVuSans-20" x="433.398438"/>
     <use xlink:href="#DejaVuSans-2713" x="465.185547"/>
    </g>
   </g>
   <g id="text_17">
    <g id="patch_18">
     <path d="M 119.218295 360.444261 
L 344.600795 360.444261 
Q 349.400795 360.444261 349.400795 355.644261 
L 349.400795 343.936761 
Q 349.400795 339.136761 344.600795 339.136761 
L 119.218295 339.136761 
Q 114.418295 339.136761 114.418295 343.936761 
L 114.418295 355.644261 
Q 114.418295 360.444261 119.218295 360.444261 
z
" style="fill: #dcfce7; stroke: #22c55e; stroke-width: 2; stroke-linejoin: miter"/>
    </g>
    <!--   NORMAL  — low anomaly score   -->
    <g style="fill: #0f172a" transform="translate(119.218295 353.054886) scale(0.12 -0.12)">
     <defs>
      <path id="DejaVuSans-Bold-20" transform="scale(0.015625)"/>
      <path id="DejaVuSans-Bold-4e" d="M 588 4666 
L 1931 4666 
L 3628 1466 
L 3628 4666 
L 4769 4666 
L 4769 0 
L 3425 0 
L 1728 3200 
L 1728 0 
L 588 0 
L 588 4666 
z
" transform="scale(0.015625)"/>
      <path id="DejaVuSans-Bold-4f" d="M 2719 3878 
Q 2169 3878 1866 3472 
Q 1563 3066 1563 2328 
Q 1563 1594 1866 1187 
Q 2169 781 2719 781 
Q 3272 781 3575 1187 
Q 3878 1594 3878 2328 
Q 3878 3066 3575 3472 
Q 3272 3878 2719 3878 
z
M 2719 4750 
Q 3844 4750 4481 4106 
Q 5119 3463 5119 2328 
Q 5119 1197 4481 553 
Q 3844 -91 2719 -91 
Q 1597 -91 958 553 
Q 319 1197 319 2328 
Q 319 3463 958 4106 
Q 1597 4750 2719 4750 
z
" transform="scale(0.015625)"/>
      <path id="DejaVuSans-Bold-52" d="M 2297 2597 
Q 2675 2597 2839 2737 
Q 3003 2878 3003 3200 
Q 3003 3519 2839 3656 
Q 2675 3794 2297 3794 
L 1791 3794 
L 1791 2597 
L 2297 2597 
z
M 1791 1766 
L 1791 0 
L 588 0 
L 588 4666 
L 2425 4666 
Q 3347 4666 3776 4356 
Q 4206 4047 4206 3378 
Q 4206 2916 3982 2619 
Q 3759 2322 3309 2181 
Q 3556 2125 3751 1926 
Q 3947 1728 4147 1325 
L 4800 0 
L 3519 0 
L 2950 1159 
Q 2778 1509 2601 1637 
Q 2425 1766 2131 1766 
L 1791 1766 
z
" transform="scale(0.015625)"/>
      <path id="DejaVuSans-Bold-4d" d="M 588 4666 
L 2119 4666 
L 3181 2169 
L 4250 4666 
L 5778 4666 
L 5778 0 
L 4641 0 
L 4641 3413 
L 3566 897 
L 2803 897 
L 1728 3413 
L 1728 0 
L 588 0 
L 588 4666 
z
" transform="scale(0.015625)"/>
      <path id="DejaVuSans-Bold-41" d="M 3419 850 
L 1538 850 
L 1241 0 
L 31 0 
L 1759 4666 
L 3194 4666 
L 4922 0 
L 3713 0 
L 3419 850 
z
M 1838 1716 
L 3116 1716 
L 2478 3572 
L 1838 1716 
z
" transform="scale(0.015625)"/>
      <path id="DejaVuSans-Bold-4c" d="M 588 4666 
L 1791 4666 
L 1791 909 
L 3903 909 
L 3903 0 
L 588 0 
L 588 4666 
z
" transform="scale(0.015625)"/>
      <path id="DejaVuSans-Bold-2014" d="M 344 2156 
L 6056 2156 
L 6056 1350 
L 344 1350 
L 344 2156 
z
" transform="scale(0.015625)"/>
      <path id="DejaVuSans-Bold-6c" d="M 538 4863 
L 1656 4863 
L 1656 0 
L 538 0 
L 538 4863 
z
" transform="scale(0.015625)"/>
      <path id="DejaVuSans-Bold-6f" d="M 2203 2784 
Q 1831 2784 1636 2517 
Q 1441 2250 1441 1747 
Q 1441 1244 1636 976 
Q 1831 709 2203 709 
Q 2569 709 2762 976 
Q 2956 1244 2956 1747 
Q 2956 2250 2762 2517 
Q 2569 2784 2203 2784 
z
M 2203 3584 
Q 3106 3584 3614 3096 
Q 4122 2609 4122 1747 
Q 4122 884 3614 396 
Q 3106 -91 2203 -91 
Q 1297 -91 786 396 
Q 275 884 275 1747 
Q 275 2609 786 3096 
Q 1297 3584 2203 3584 
z
" transform="scale(0.015625)"/>
      <path id="DejaVuSans-Bold-77" d="M 225 3500 
L 1313 3500 
L 1900 1088 
L 2491 3500 
L 3425 3500 
L 4013 1113 
L 4603 3500 
L 5691 3500 
L 4769 0 
L 3547 0 
L 2956 2406 
L 2369 0 
L 1147 0 
L 225 3500 
z
" transform="scale(0.015625)"/>
      <path id="DejaVuSans-Bold-61" d="M 2106 1575 
Q 1756 1575 1579 1456 
Q 1403 1338 1403 1106 
Q 1403 894 1545 773 
Q 1688 653 1941 653 
Q 2256 653 2472 879 
Q 2688 1106 2688 1447 
L 2688 1575 
L 2106 1575 
z
M 3816 1997 
L 3816 0 
L 2688 0 
L 2688 519 
Q 2463 200 2181 54 
Q 1900 -91 1497 -91 
Q 953 -91 614 226 
Q 275 544 275 1050 
Q 275 1666 698 1953 
Q 1122 2241 2028 2241 
L 2688 2241 
L 2688 2328 
Q 2688 2594 2478 2717 
Q 2269 2841 1825 2841 
Q 1466 2841 1156 2769 
Q 847 2697 581 2553 
L 581 3406 
Q 941 3494 1303 3539 
Q 1666 3584 2028 3584 
Q 2975 3584 3395 3211 
Q 3816 2838 3816 1997 
z
" transform="scale(0.015625)"/>
      <path id="DejaVuSans-Bold-6e" d="M 4056 2131 
L 4056 0 
L 2931 0 
L 2931 347 
L 2931 1631 
Q 2931 2084 2911 2256 
Q 2891 2428 2841 2509 
Q 2775 2619 2662 2680 
Q 2550 2741 2406 2741 
Q 2056 2741 1856 2470 
Q 1656 2200 1656 1722 
L 1656 0 
L 538 0 
L 538 3500 
L 1656 3500 
L 1656 2988 
Q 1909 3294 2193 3439 
Q 2478 3584 2822 3584 
Q 3428 3584 3742 3212 
Q 4056 2841 4056 2131 
z
" transform="scale(0.015625)"/>
      <path id="DejaVuSans-Bold-6d" d="M 3781 2919 
Q 3994 3244 4286 3414 
Q 4578 3584 4928 3584 
Q 5531 3584 5847 3212 
Q 6163 2841 6163 2131 
L 6163 0 
L 5038 0 
L 5038 1825 
Q 5041 1866 5042 1909 
Q 5044 1953 5044 2034 
Q 5044 2406 4934 2573 
Q 4825 2741 4581 2741 
Q 4263 2741 4089 2478 
Q 3916 2216 3909 1719 
L 3909 0 
L 2784 0 
L 2784 1825 
Q 2784 2406 2684 2573 
Q 2584 2741 2328 2741 
Q 2006 2741 1831 2477 
Q 1656 2213 1656 1722 
L 1656 0 
L 531 0 
L 531 3500 
L 1656 3500 
L 1656 2988 
Q 1863 3284 2130 3434 
Q 2397 3584 2719 3584 
Q 3081 3584 3359 3409 
Q 3638 3234 3781 2919 
z
" transform="scale(0.015625)"/>
      <path id="DejaVuSans-Bold-79" d="M 78 3500 
L 1197 3500 
L 2138 1125 
L 2938 3500 
L 4056 3500 
L 2584 -331 
Q 2363 -916 2067 -1148 
Q 1772 -1381 1288 -1381 
L 641 -1381 
L 641 -647 
L 991 -647 
Q 1275 -647 1404 -556 
Q 1534 -466 1606 -231 
L 1638 -134 
L 78 3500 
z
" transform="scale(0.015625)"/>
      <path id="DejaVuSans-Bold-73" d="M 3272 3391 
L 3272 2541 
Q 2913 2691 2578 2766 
Q 2244 2841 1947 2841 
Q 1628 2841 1473 2761 
Q 1319 2681 1319 2516 
Q 1319 2381 1436 2309 
Q 1553 2238 1856 2203 
L 2053 2175 
Q 2913 2066 3209 1816 
Q 3506 1566 3506 1031 
Q 3506 472 3093 190 
Q 2681 -91 1863 -91 
Q 1516 -91 1145 -36 
Q 775 19 384 128 
L 384 978 
Q 719 816 1070 734 
Q 1422 653 1784 653 
Q 2113 653 2278 743 
Q 2444 834 2444 1013 
Q 2444 1163 2330 1236 
Q 2216 1309 1875 1350 
L 1678 1375 
Q 931 1469 631 1722 
Q 331 1975 331 2491 
Q 331 3047 712 3315 
Q 1094 3584 1881 3584 
Q 2191 3584 2531 3537 
Q 2872 3491 3272 3391 
z
" transform="scale(0.015625)"/>
      <path id="DejaVuSans-Bold-63" d="M 3366 3391 
L 3366 2478 
Q 3138 2634 2908 2709 
Q 2678 2784 2431 2784 
Q 1963 2784 1702 2511 
Q 1441 2238 1441 1747 
Q 1441 1256 1702 982 
Q 1963 709 2431 709 
Q 2694 709 2930 787 
Q 3166 866 3366 1019 
L 3366 103 
Q 3103 6 2833 -42 
Q 2563 -91 2291 -91 
Q 1344 -91 809 395 
Q 275 881 275 1747 
Q 275 2613 809 3098 
Q 1344 3584 2291 3584 
Q 2566 3584 2833 3536 
Q 3100 3488 3366 3391 
z
" transform="scale(0.015625)"/>
      <path id="DejaVuSans-Bold-72" d="M 3138 2547 
Q 2991 2616 2845 2648 
Q 2700 2681 2553 2681 
Q 2122 2681 1889 2404 
Q 1656 2128 1656 1613 
L 1656 0 
L 538 0 
L 538 3500 
L 1656 3500 
L 1656 2925 
Q 1872 3269 2151 3426 
Q 2431 3584 2822 3584 
Q 2878 3584 2943 3579 
Q 3009 3575 3134 3559 
L 3138 2547 
z
" transform="scale(0.015625)"/>
      <path id="DejaVuSans-Bold-65" d="M 4031 1759 
L 4031 1441 
L 1416 1441 
Q 1456 1047 1700 850 
Q 1944 653 2381 653 
Q 2734 653 3104 758 
Q 3475 863 3866 1075 
L 3866 213 
Q 3469 63 3072 -14 
Q 2675 -91 2278 -91 
Q 1328 -91 801 392 
Q 275 875 275 1747 
Q 275 2603 792 3093 
Q 1309 3584 2216 3584 
Q 3041 3584 3536 3087 
Q 4031 2591 4031 1759 
z
M 2881 2131 
Q 2881 2450 2695 2645 
Q 2509 2841 2209 2841 
Q 1884 2841 1681 2658 
Q 1478 2475 1428 2131 
L 2881 2131 
z
" transform="scale(0.015625)"/>
     </defs>
     <use xlink:href="#DejaVuSans-Bold-20"/>
     <use xlink:href="#DejaVuSans-Bold-20" x="34.814453"/>
     <use xlink:href="#DejaVuSans-Bold-4e" x="69.628906"/>
     <use xlink:href="#DejaVuSans-Bold-4f" x="153.320312"/>
     <use xlink:href="#DejaVuSans-Bold-52" x="238.330078"/>
     <use xlink:href="#DejaVuSans-Bold-4d" x="315.332031"/>
     <use xlink:href="#DejaVuSans-Bold-41" x="414.84375"/>
     <use xlink:href="#DejaVuSans-Bold-4c" x="492.236328"/>
     <use xlink:href="#DejaVuSans-Bold-20" x="555.957031"/>
     <use xlink:href="#DejaVuSans-Bold-20" x="590.771484"/>
     <use xlink:href="#DejaVuSans-Bold-2014" x="625.585938"/>
     <use xlink:href="#DejaVuSans-Bold-20" x="725.585938"/>
     <use xlink:href="#DejaVuSans-Bold-6c" x="760.400391"/>
     <use xlink:href="#DejaVuSans-Bold-6f" x="794.677734"/>
     <use xlink:href="#DejaVuSans-Bold-77" x="863.378906"/>
     <use xlink:href="#DejaVuSans-Bold-20" x="955.761719"/>
     <use xlink:href="#DejaVuSans-Bold-61" x="990.576172"/>
     <use xlink:href="#DejaVuSans-Bold-6e" x="1058.056641"/>
     <use xlink:href="#DejaVuSans-Bold-6f" x="1129.248047"/>
     <use xlink:href="#DejaVuSans-Bold-6d" x="1197.949219"/>
     <use xlink:href="#DejaVuSans-Bold-61" x="1302.148438"/>
     <use xlink:href="#DejaVuSans-Bold-6c" x="1369.628906"/>
     <use xlink:href="#DejaVuSans-Bold-79" x="1403.90625"/>
     <use xlink:href="#DejaVuSans-Bold-20" x="1469.091797"/>
     <use xlink:href="#DejaVuSans-Bold-73" x="1503.90625"/>
     <use xlink:href="#DejaVuSans-Bold-63" x="1563.427734"/>
     <use xlink:href="#DejaVuSans-Bold-6f" x="1622.705078"/>
     <use xlink:href="#DejaVuSans-Bold-72" x="1691.40625"/>
     <use xlink:href="#DejaVuSans-Bold-65" x="1740.722656"/>
     <use xlink:href="#DejaVuSans-Bold-20" x="1808.544922"/>
     <use xlink:href="#DejaVuSans-Bold-20" x="1843.359375"/>
    </g>
   </g>
   <g id="patch_19">
    <path d="M 56.227537 278.957901 
Q 56.227537 284.355725 56.227537 287.517482 
" style="fill: none; stroke: #22c55e; stroke-width: 2; stroke-linecap: round"/>
    <path d="M 58.427537 283.117482 
L 56.227537 287.517482 
L 54.027537 283.117482 
" style="fill: none; stroke: #22c55e; stroke-width: 2; stroke-linecap: round"/>
   </g>
   <g id="text_18">
    <g id="patch_20">
     <path d="M 138.828295 100.258384 
L 324.990795 100.258384 
Q 327.990795 100.258384 327.990795 97.258384 
L 327.990795 76.382446 
Q 327.990795 73.382446 324.990795 73.382446 
L 138.828295 73.382446 
Q 135.828295 73.382446 135.828295 76.382446 
L 135.828295 97.258384 
Q 135.828295 100.258384 138.828295 100.258384 
z
" style="fill: #dcfce7; stroke: #22c55e; stroke-linejoin: miter"/>
    </g>
    <!-- Normal points blend in — need many -->
    <g style="fill: #166534" transform="translate(138.828295 83.980884) scale(0.1 -0.1)">
     <defs>
      <path id="DejaVuSans-6c" d="M 603 4863 
L 1178 4863 
L 1178 0 
L 603 0 
L 603 4863 
z
" transform="scale(0.015625)"/>
      <path id="DejaVuSans-70" d="M 1159 525 
L 1159 -1331 
L 581 -1331 
L 581 3500 
L 1159 3500 
L 1159 2969 
Q 1341 3281 1617 3432 
Q 1894 3584 2278 3584 
Q 2916 3584 3314 3078 
Q 3713 2572 3713 1747 
Q 3713 922 3314 415 
Q 2916 -91 2278 -91 
Q 1894 -91 1617 61 
Q 1341 213 1159 525 
z
M 3116 1747 
Q 3116 2381 2855 2742 
Q 2594 3103 2138 3103 
Q 1681 3103 1420 2742 
Q 1159 2381 1159 1747 
Q 1159 1113 1420 752 
Q 1681 391 2138 391 
Q 2594 391 2855 752 
Q 3116 1113 3116 1747 
z
" transform="scale(0.015625)"/>
      <path id="DejaVuSans-73" d="M 2834 3397 
L 2834 2853 
Q 2591 2978 2328 3040 
Q 2066 3103 1784 3103 
Q 1356 3103 1142 2972 
Q 928 2841 928 2578 
Q 928 2378 1081 2264 
Q 1234 2150 1697 2047 
L 1894 2003 
Q 2506 1872 2764 1633 
Q 3022 1394 3022 966 
Q 3022 478 2636 193 
Q 2250 -91 1575 -91 
Q 1294 -91 989 -36 
Q 684 19 347 128 
L 347 722 
Q 666 556 975 473 
Q 1284 391 1588 391 
Q 1994 391 2212 530 
Q 2431 669 2431 922 
Q 2431 1156 2273 1281 
Q 2116 1406 1581 1522 
L 1381 1569 
Q 847 1681 609 1914 
Q 372 2147 372 2553 
Q 372 3047 722 3315 
Q 1072 3584 1716 3584 
Q 2034 3584 2315 3537 
Q 2597 3491 2834 3397 
z
" transform="scale(0.015625)"/>
      <path id="DejaVuSans-62" d="M 3116 1747 
Q 3116 2381 2855 2742 
Q 2594 3103 2138 3103 
Q 1681 3103 1420 2742 
Q 1159 2381 1159 1747 
Q 1159 1113 1420 752 
Q 1681 391 2138 391 
Q 2594 391 2855 752 
Q 3116 1113 3116 1747 
z
M 1159 2969 
Q 1341 3281 1617 3432 
Q 1894 3584 2278 3584 
Q 2916 3584 3314 3078 
Q 3713 2572 3713 1747 
Q 3713 922 3314 415 
Q 2916 -91 2278 -91 
Q 1894 -91 1617 61 
Q 1341 213 1159 525 
L 1159 0 
L 581 0 
L 581 4863 
L 1159 4863 
L 1159 2969 
z
" transform="scale(0.015625)"/>
      <path id="DejaVuSans-2014" d="M 313 1978 
L 6088 1978 
L 6088 1528 
L 313 1528 
L 313 1978 
z
" transform="scale(0.015625)"/>
      <path id="DejaVuSans-79" d="M 2059 -325 
Q 1816 -950 1584 -1140 
Q 1353 -1331 966 -1331 
L 506 -1331 
L 506 -850 
L 844 -850 
Q 1081 -850 1212 -737 
Q 1344 -625 1503 -206 
L 1606 56 
L 191 3500 
L 800 3500 
L 1894 763 
L 2988 3500 
L 3597 3500 
L 2059 -325 
z
" transform="scale(0.015625)"/>
     </defs>
     <use xlink:href="#DejaVuSans-4e"/>
     <use xlink:href="#DejaVuSans-6f" x="74.804688"/>
     <use xlink:href="#DejaVuSans-72" x="135.986328"/>
     <use xlink:href="#DejaVuSans-6d" x="175.349609"/>
     <use xlink:href="#DejaVuSans-61" x="272.761719"/>
     <use xlink:href="#DejaVuSans-6c" x="334.041016"/>
     <use xlink:href="#DejaVuSans-20" x="361.824219"/>
     <use xlink:href="#DejaVuSans-70" x="393.611328"/>
     <use xlink:href="#DejaVuSans-6f" x="457.087891"/>
     <use xlink:href="#DejaVuSans-69" x="518.269531"/>
     <use xlink:href="#DejaVuSans-6e" x="546.052734"/>
     <use xlink:href="#DejaVuSans-74" x="609.431641"/>
     <use xlink:href="#DejaVuSans-73" x="648.640625"/>
     <use xlink:href="#DejaVuSans-20" x="700.740234"/>
     <use xlink:href="#DejaVuSans-62" x="732.527344"/>
     <use xlink:href="#DejaVuSans-6c" x="796.003906"/>
     <use xlink:href="#DejaVuSans-65" x="823.787109"/>
     <use xlink:href="#DejaVuSans-6e" x="885.310547"/>
     <use xlink:href="#DejaVuSans-64" x="948.689453"/>
     <use xlink:href="#DejaVuSans-20" x="1012.166016"/>
     <use xlink:href="#DejaVuSans-69" x="1043.953125"/>
     <use xlink:href="#DejaVuSans-6e" x="1071.736328"/>
     <use xlink:href="#DejaVuSans-20" x="1135.115234"/>
     <use xlink:href="#DejaVuSans-2014" x="1166.902344"/>
     <use xlink:href="#DejaVuSans-20" x="1266.902344"/>
     <use xlink:href="#DejaVuSans-6e" x="1298.689453"/>
     <use xlink:href="#DejaVuSans-65" x="1362.068359"/>
     <use xlink:href="#DejaVuSans-65" x="1423.591797"/>
     <use xlink:href="#DejaVuSans-64" x="1485.115234"/>
     <use xlink:href="#DejaVuSans-20" x="1548.591797"/>
     <use xlink:href="#DejaVuSans-6d" x="1580.378906"/>
     <use xlink:href="#DejaVuSans-61" x="1677.791016"/>
     <use xlink:href="#DejaVuSans-6e" x="1739.070312"/>
     <use xlink:href="#DejaVuSans-79" x="1802.449219"/>
    </g>
    <!-- splits to isolate them -->
    <g style="fill: #166534" transform="translate(179.382202 95.178696) scale(0.1 -0.1)">
     <defs>
      <path id="DejaVuSans-68" d="M 3513 2113 
L 3513 0 
L 2938 0 
L 2938 2094 
Q 2938 2591 2744 2837 
Q 2550 3084 2163 3084 
Q 1697 3084 1428 2787 
Q 1159 2491 1159 1978 
L 1159 0 
L 581 0 
L 581 4863 
L 1159 4863 
L 1159 2956 
Q 1366 3272 1645 3428 
Q 1925 3584 2291 3584 
Q 2894 3584 3203 3211 
Q 3513 2838 3513 2113 
z
" transform="scale(0.015625)"/>
     </defs>
     <use xlink:href="#DejaVuSans-73"/>
     <use xlink:href="#DejaVuSans-70" x="52.099609"/>
     <use xlink:href="#DejaVuSans-6c" x="115.576172"/>
     <use xlink:href="#DejaVuSans-69" x="143.359375"/>
     <use xlink:href="#DejaVuSans-74" x="171.142578"/>
     <use xlink:href="#DejaVuSans-73" x="210.351562"/>
     <use xlink:href="#DejaVuSans-20" x="262.451172"/>
     <use xlink:href="#DejaVuSans-74" x="294.238281"/>
     <use xlink:href="#DejaVuSans-6f" x="333.447266"/>
     <use xlink:href="#DejaVuSans-20" x="394.628906"/>
     <use xlink:href="#DejaVuSans-69" x="426.416016"/>
     <use xlink:href="#DejaVuSans-73" x="454.199219"/>
     <use xlink:href="#DejaVuSans-6f" x="506.298828"/>
     <use xlink:href="#DejaVuSans-6c" x="567.480469"/>
     <use xlink:href="#DejaVuSans-61" x="595.263672"/>
     <use xlink:href="#DejaVuSans-74" x="656.542969"/>
     <use xlink:href="#DejaVuSans-65" x="695.751953"/>
     <use xlink:href="#DejaVuSans-20" x="757.275391"/>
     <use xlink:href="#DejaVuSans-74" x="789.0625"/>
     <use xlink:href="#DejaVuSans-68" x="828.271484"/>
     <use xlink:href="#DejaVuSans-65" x="891.650391"/>
     <use xlink:href="#DejaVuSans-6d" x="953.173828"/>
    </g>
   </g>
   <g id="text_19">
    <!-- Anomaly score = f(avg path length across 100 trees)  —  shorter path = higher score -->
    <g style="fill: #475569" transform="translate(16.188382 421.328664) scale(0.09 -0.09)">
     <defs>
      <path id="DejaVuSans-Oblique-41" d="M 2356 4666 
L 3072 4666 
L 3938 0 
L 3278 0 
L 3084 1197 
L 984 1197 
L 325 0 
L -341 0 
L 2356 4666 
z
M 2584 4044 
L 1275 1722 
L 2988 1722 
L 2584 4044 
z
" transform="scale(0.015625)"/>
      <path id="DejaVuSans-Oblique-6e" d="M 3566 2113 
L 3156 0 
L 2578 0 
L 2988 2091 
Q 3016 2238 3031 2350 
Q 3047 2463 3047 2528 
Q 3047 2791 2881 2937 
Q 2716 3084 2419 3084 
Q 1956 3084 1622 2776 
Q 1288 2469 1184 1941 
L 800 0 
L 225 0 
L 903 3500 
L 1478 3500 
L 1363 2950 
Q 1603 3253 1940 3418 
Q 2278 3584 2650 3584 
Q 3113 3584 3367 3334 
Q 3622 3084 3622 2631 
Q 3622 2519 3608 2391 
Q 3594 2263 3566 2113 
z
" transform="scale(0.015625)"/>
      <path id="DejaVuSans-Oblique-6f" d="M 1625 -91 
Q 1009 -91 651 289 
Q 294 669 294 1325 
Q 294 1706 417 2101 
Q 541 2497 738 2766 
Q 1047 3184 1428 3384 
Q 1809 3584 2291 3584 
Q 2888 3584 3255 3212 
Q 3622 2841 3622 2241 
Q 3622 1825 3500 1412 
Q 3378 1000 3181 728 
Q 2875 309 2494 109 
Q 2113 -91 1625 -91 
z
M 891 1344 
Q 891 869 1089 633 
Q 1288 397 1691 397 
Q 2269 397 2648 901 
Q 3028 1406 3028 2181 
Q 3028 2634 2825 2865 
Q 2622 3097 2228 3097 
Q 1903 3097 1650 2945 
Q 1397 2794 1197 2484 
Q 1050 2253 970 1956 
Q 891 1659 891 1344 
z
" transform="scale(0.015625)"/>
      <path id="DejaVuSans-Oblique-6d" d="M 5747 2113 
L 5338 0 
L 4763 0 
L 5166 2094 
Q 5191 2228 5203 2325 
Q 5216 2422 5216 2491 
Q 5216 2772 5059 2928 
Q 4903 3084 4622 3084 
Q 4203 3084 3875 2770 
Q 3547 2456 3450 1953 
L 3066 0 
L 2491 0 
L 2900 2094 
Q 2925 2209 2937 2307 
Q 2950 2406 2950 2484 
Q 2950 2769 2794 2926 
Q 2638 3084 2363 3084 
Q 1938 3084 1609 2770 
Q 1281 2456 1184 1953 
L 800 0 
L 225 0 
L 909 3500 
L 1484 3500 
L 1375 2956 
Q 1609 3263 1923 3423 
Q 2238 3584 2597 3584 
Q 2978 3584 3223 3384 
Q 3469 3184 3519 2828 
Q 3781 3197 4126 3390 
Q 4472 3584 4856 3584 
Q 5306 3584 5551 3325 
Q 5797 3066 5797 2591 
Q 5797 2488 5784 2364 
Q 5772 2241 5747 2113 
z
" transform="scale(0.015625)"/>
      <path id="DejaVuSans-Oblique-61" d="M 3438 1997 
L 3047 0 
L 2472 0 
L 2578 531 
Q 2325 219 2001 64 
Q 1678 -91 1281 -91 
Q 834 -91 548 182 
Q 263 456 263 884 
Q 263 1497 752 1853 
Q 1241 2209 2100 2209 
L 2900 2209 
L 2931 2363 
Q 2938 2388 2941 2417 
Q 2944 2447 2944 2509 
Q 2944 2788 2717 2942 
Q 2491 3097 2081 3097 
Q 1800 3097 1504 3025 
Q 1209 2953 897 2809 
L 997 3341 
Q 1322 3463 1633 3523 
Q 1944 3584 2234 3584 
Q 2853 3584 3176 3315 
Q 3500 3047 3500 2534 
Q 3500 2431 3484 2292 
Q 3469 2153 3438 1997 
z
M 2816 1759 
L 2241 1759 
Q 1534 1759 1195 1570 
Q 856 1381 856 984 
Q 856 709 1029 553 
Q 1203 397 1509 397 
Q 1978 397 2328 733 
Q 2678 1069 2791 1631 
L 2816 1759 
z
" transform="scale(0.015625)"/>
      <path id="DejaVuSans-Oblique-6c" d="M 1172 4863 
L 1747 4863 
L 800 0 
L 225 0 
L 1172 4863 
z
" transform="scale(0.015625)"/>
      <path id="DejaVuSans-Oblique-79" d="M 1588 -325 
Q 1188 -997 936 -1164 
Q 684 -1331 294 -1331 
L -159 -1331 
L -63 -850 
L 269 -850 
Q 509 -850 678 -719 
Q 847 -588 1056 -206 
L 1234 128 
L 459 3500 
L 1069 3500 
L 1650 819 
L 3256 3500 
L 3859 3500 
L 1588 -325 
z
" transform="scale(0.015625)"/>
      <path id="DejaVuSans-Oblique-20" transform="scale(0.015625)"/>
      <path id="DejaVuSans-Oblique-73" d="M 3200 3397 
L 3091 2853 
Q 2863 2978 2609 3040 
Q 2356 3103 2088 3103 
Q 1634 3103 1373 2948 
Q 1113 2794 1113 2528 
Q 1113 2219 1719 2053 
Q 1766 2041 1788 2034 
L 1972 1978 
Q 2547 1819 2739 1644 
Q 2931 1469 2931 1166 
Q 2931 609 2489 259 
Q 2047 -91 1331 -91 
Q 1053 -91 747 -37 
Q 441 16 72 128 
L 184 722 
Q 500 559 806 475 
Q 1113 391 1394 391 
Q 1816 391 2080 572 
Q 2344 753 2344 1031 
Q 2344 1331 1650 1516 
L 1591 1531 
L 1394 1581 
Q 956 1697 753 1886 
Q 550 2075 550 2369 
Q 550 2928 970 3256 
Q 1391 3584 2113 3584 
Q 2397 3584 2667 3537 
Q 2938 3491 3200 3397 
z
" transform="scale(0.015625)"/>
      <path id="DejaVuSans-Oblique-63" d="M 3431 3366 
L 3316 2797 
Q 3109 2947 2876 3022 
Q 2644 3097 2394 3097 
Q 2119 3097 1870 3000 
Q 1622 2903 1453 2725 
Q 1184 2453 1037 2087 
Q 891 1722 891 1331 
Q 891 859 1127 628 
Q 1363 397 1844 397 
Q 2081 397 2348 469 
Q 2616 541 2906 684 
L 2797 116 
Q 2547 13 2283 -39 
Q 2019 -91 1741 -91 
Q 1044 -91 669 257 
Q 294 606 294 1253 
Q 294 1797 489 2255 
Q 684 2713 1069 3078 
Q 1331 3328 1684 3456 
Q 2038 3584 2456 3584 
Q 2700 3584 2940 3529 
Q 3181 3475 3431 3366 
z
" transform="scale(0.015625)"/>
      <path id="DejaVuSans-Oblique-72" d="M 2853 2969 
Q 2766 3016 2653 3041 
Q 2541 3066 2413 3066 
Q 1953 3066 1609 2717 
Q 1266 2369 1153 1784 
L 800 0 
L 225 0 
L 909 3500 
L 1484 3500 
L 1375 2956 
Q 1603 3259 1920 3421 
Q 2238 3584 2597 3584 
Q 2691 3584 2781 3573 
Q 2872 3563 2963 3538 
L 2853 2969 
z
" transform="scale(0.015625)"/>
      <path id="DejaVuSans-Oblique-65" d="M 3078 2063 
Q 3088 2113 3092 2166 
Q 3097 2219 3097 2272 
Q 3097 2653 2873 2875 
Q 2650 3097 2266 3097 
Q 1838 3097 1509 2826 
Q 1181 2556 1013 2059 
L 3078 2063 
z
M 3578 1613 
L 903 1613 
Q 884 1494 878 1425 
Q 872 1356 872 1306 
Q 872 872 1139 634 
Q 1406 397 1894 397 
Q 2269 397 2603 481 
Q 2938 566 3225 728 
L 3116 159 
Q 2806 34 2476 -28 
Q 2147 -91 1806 -91 
Q 1078 -91 686 257 
Q 294 606 294 1247 
Q 294 1794 489 2264 
Q 684 2734 1063 3103 
Q 1306 3334 1642 3459 
Q 1978 3584 2356 3584 
Q 2950 3584 3301 3228 
Q 3653 2872 3653 2272 
Q 3653 2128 3634 1964 
Q 3616 1800 3578 1613 
z
" transform="scale(0.015625)"/>
      <path id="DejaVuSans-Oblique-3d" d="M 678 2906 
L 4684 2906 
L 4684 2381 
L 678 2381 
L 678 2906 
z
M 678 1631 
L 4684 1631 
L 4684 1100 
L 678 1100 
L 678 1631 
z
" transform="scale(0.015625)"/>
      <path id="DejaVuSans-Oblique-66" d="M 3059 4863 
L 2969 4384 
L 2419 4384 
Q 2106 4384 1964 4261 
Q 1822 4138 1753 3809 
L 1691 3500 
L 2638 3500 
L 2553 3053 
L 1606 3053 
L 1013 0 
L 434 0 
L 1031 3053 
L 481 3053 
L 563 3500 
L 1113 3500 
L 1159 3744 
Q 1278 4363 1576 4613 
Q 1875 4863 2516 4863 
L 3059 4863 
z
" transform="scale(0.015625)"/>
      <path id="DejaVuSans-Oblique-28" d="M 2731 4856 
Q 1903 3822 1495 2892 
Q 1088 1963 1088 1100 
Q 1088 606 1206 120 
Q 1325 -366 1563 -844 
L 1063 -844 
Q 775 -306 634 201 
Q 494 709 494 1197 
Q 494 2125 923 3036 
Q 1353 3947 2222 4856 
L 2731 4856 
z
" transform="scale(0.015625)"/>
      <path id="DejaVuSans-Oblique-76" d="M 459 3500 
L 1069 3500 
L 1581 525 
L 3256 3500 
L 3866 3500 
L 1875 0 
L 1100 0 
L 459 3500 
z
" transform="scale(0.015625)"/>
      <path id="DejaVuSans-Oblique-67" d="M 3816 3500 
L 3219 434 
Q 3047 -456 2561 -893 
Q 2075 -1331 1253 -1331 
Q 950 -1331 690 -1286 
Q 431 -1241 206 -1147 
L 313 -588 
Q 525 -725 762 -790 
Q 1000 -856 1269 -856 
Q 1816 -856 2167 -557 
Q 2519 -259 2631 300 
L 2681 563 
Q 2441 288 2122 144 
Q 1803 0 1434 0 
Q 903 0 598 351 
Q 294 703 294 1319 
Q 294 1803 478 2267 
Q 663 2731 997 3091 
Q 1219 3328 1514 3456 
Q 1809 3584 2131 3584 
Q 2484 3584 2746 3420 
Q 3009 3256 3138 2956 
L 3238 3500 
L 3816 3500 
z
M 2950 2216 
Q 2950 2641 2750 2872 
Q 2550 3103 2181 3103 
Q 1953 3103 1747 3012 
Q 1541 2922 1394 2759 
Q 1156 2491 1023 2127 
Q 891 1763 891 1375 
Q 891 944 1092 712 
Q 1294 481 1672 481 
Q 2219 481 2584 976 
Q 2950 1472 2950 2216 
z
" transform="scale(0.015625)"/>
      <path id="DejaVuSans-Oblique-70" d="M 3175 2156 
Q 3175 2616 2975 2859 
Q 2775 3103 2400 3103 
Q 2144 3103 1911 2972 
Q 1678 2841 1497 2591 
Q 1319 2344 1212 1994 
Q 1106 1644 1106 1300 
Q 1106 863 1306 627 
Q 1506 391 1875 391 
Q 2147 391 2380 519 
Q 2613 647 2778 891 
Q 2956 1147 3065 1494 
Q 3175 1841 3175 2156 
z
M 1394 2969 
Q 1625 3272 1939 3428 
Q 2253 3584 2638 3584 
Q 3175 3584 3472 3232 
Q 3769 2881 3769 2247 
Q 3769 1728 3584 1258 
Q 3400 788 3053 416 
Q 2822 169 2531 39 
Q 2241 -91 1919 -91 
Q 1547 -91 1294 64 
Q 1041 219 916 525 
L 556 -1331 
L -19 -1331 
L 922 3500 
L 1497 3500 
L 1394 2969 
z
" transform="scale(0.015625)"/>
      <path id="DejaVuSans-Oblique-74" d="M 2706 3500 
L 2619 3053 
L 1472 3053 
L 1100 1153 
Q 1081 1047 1072 975 
Q 1063 903 1063 863 
Q 1063 663 1183 572 
Q 1303 481 1569 481 
L 2150 481 
L 2053 0 
L 1503 0 
Q 991 0 739 200 
Q 488 400 488 806 
Q 488 878 497 964 
Q 506 1050 525 1153 
L 897 3053 
L 409 3053 
L 500 3500 
L 978 3500 
L 1172 4494 
L 1747 4494 
L 1556 3500 
L 2706 3500 
z
" transform="scale(0.015625)"/>
      <path id="DejaVuSans-Oblique-68" d="M 3566 2113 
L 3156 0 
L 2578 0 
L 2988 2091 
Q 3016 2238 3031 2350 
Q 3047 2463 3047 2528 
Q 3047 2791 2881 2937 
Q 2716 3084 2419 3084 
Q 1956 3084 1617 2771 
Q 1278 2459 1178 1941 
L 800 0 
L 225 0 
L 1172 4863 
L 1747 4863 
L 1375 2950 
Q 1594 3244 1934 3414 
Q 2275 3584 2650 3584 
Q 3113 3584 3367 3334 
Q 3622 3084 3622 2631 
Q 3622 2519 3608 2391 
Q 3594 2263 3566 2113 
z
" transform="scale(0.015625)"/>
      <path id="DejaVuSans-Oblique-31" d="M 416 531 
L 1447 531 
L 2144 4122 
L 978 3897 
L 1088 4441 
L 2247 4666 
L 2881 4666 
L 2075 531 
L 3103 531 
L 3003 0 
L 313 0 
L 416 531 
z
" transform="scale(0.015625)"/>
      <path id="DejaVuSans-Oblique-30" d="M 2444 4750 
Q 3078 4750 3414 4328 
Q 3750 3906 3750 3116 
Q 3750 2516 3592 1923 
Q 3434 1331 3150 863 
Q 2859 394 2467 151 
Q 2075 -91 1600 -91 
Q 988 -91 653 334 
Q 319 759 319 1544 
Q 319 2138 480 2733 
Q 641 3328 928 3794 
Q 1216 4263 1602 4506 
Q 1988 4750 2444 4750 
z
M 2406 4250 
Q 2169 4250 1955 4123 
Q 1741 3997 1569 3750 
Q 1281 3338 1111 2720 
Q 941 2103 941 1453 
Q 941 938 1123 673 
Q 1306 409 1663 409 
Q 1913 409 2125 536 
Q 2338 663 2509 909 
Q 2794 1319 2961 1936 
Q 3128 2553 3128 3206 
Q 3128 3722 2945 3986 
Q 2763 4250 2406 4250 
z
" transform="scale(0.015625)"/>
      <path id="DejaVuSans-Oblique-29" d="M -397 -844 
Q 434 191 840 1120 
Q 1247 2050 1247 2913 
Q 1247 3406 1130 3892 
Q 1013 4378 775 4856 
L 1275 4856 
Q 1563 4316 1703 3812 
Q 1844 3309 1844 2822 
Q 1844 1891 1411 973 
Q 978 56 116 -844 
L -397 -844 
z
" transform="scale(0.015625)"/>
      <path id="DejaVuSans-Oblique-2014" d="M 356 1978 
L 6131 1978 
L 6044 1528 
L 269 1528 
L 356 1978 
z
" transform="scale(0.015625)"/>
      <path id="DejaVuSans-Oblique-69" d="M 1172 4863 
L 1747 4863 
L 1606 4134 
L 1031 4134 
L 1172 4863 
z
M 909 3500 
L 1484 3500 
L 800 0 
L 225 0 
L 909 3500 
z
" transform="scale(0.015625)"/>
     </defs>
     <use xlink:href="#DejaVuSans-Oblique-41"/>
     <use xlink:href="#DejaVuSans-Oblique-6e" x="68.408203"/>
     <use xlink:href="#DejaVuSans-Oblique-6f" x="131.787109"/>
     <use xlink:href="#DejaVuSans-Oblique-6d" x="192.96875"/>
     <use xlink:href="#DejaVuSans-Oblique-61" x="290.380859"/>
     <use xlink:href="#DejaVuSans-Oblique-6c" x="351.660156"/>
     <use xlink:href="#DejaVuSans-Oblique-79" x="379.443359"/>
     <use xlink:href="#DejaVuSans-Oblique-20" x="438.623047"/>
     <use xlink:href="#DejaVuSans-Oblique-73" x="470.410156"/>
     <use xlink:href="#DejaVuSans-Oblique-63" x="522.509766"/>
     <use xlink:href="#DejaVuSans-Oblique-6f" x="577.490234"/>
     <use xlink:href="#DejaVuSans-Oblique-72" x="638.671875"/>
     <use xlink:href="#DejaVuSans-Oblique-65" x="679.785156"/>
     <use xlink:href="#DejaVuSans-Oblique-20" x="741.308594"/>
     <use xlink:href="#DejaVuSans-Oblique-3d" x="773.095703"/>
     <use xlink:href="#DejaVuSans-Oblique-20" x="856.884766"/>
     <use xlink:href="#DejaVuSans-Oblique-66" x="888.671875"/>
     <use xlink:href="#DejaVuSans-Oblique-28" x="923.876953"/>
     <use xlink:href="#DejaVuSans-Oblique-61" x="962.890625"/>
     <use xlink:href="#DejaVuSans-Oblique-76" x="1024.169922"/>
     <use xlink:href="#DejaVuSans-Oblique-67" x="1083.349609"/>
     <use xlink:href="#DejaVuSans-Oblique-20" x="1146.826172"/>
     <use xlink:href="#DejaVuSans-Oblique-70" x="1178.613281"/>
     <use xlink:href="#DejaVuSans-Oblique-61" x="1242.089844"/>
     <use xlink:href="#DejaVuSans-Oblique-74" x="1303.369141"/>
     <use xlink:href="#DejaVuSans-Oblique-68" x="1342.578125"/>
     <use xlink:href="#DejaVuSans-Oblique-20" x="1405.957031"/>
     <use xlink:href="#DejaVuSans-Oblique-6c" x="1437.744141"/>
     <use xlink:href="#DejaVuSans-Oblique-65" x="1465.527344"/>
     <use xlink:href="#DejaVuSans-Oblique-6e" x="1527.050781"/>
     <use xlink:href="#DejaVuSans-Oblique-67" x="1590.429688"/>
     <use xlink:href="#DejaVuSans-Oblique-74" x="1653.90625"/>
     <use xlink:href="#DejaVuSans-Oblique-68" x="1693.115234"/>
     <use xlink:href="#DejaVuSans-Oblique-20" x="1756.494141"/>
     <use xlink:href="#DejaVuSans-Oblique-61" x="1788.28125"/>
     <use xlink:href="#DejaVuSans-Oblique-63" x="1849.560547"/>
     <use xlink:href="#DejaVuSans-Oblique-72" x="1904.541016"/>
     <use xlink:href="#DejaVuSans-Oblique-6f" x="1945.654297"/>
     <use xlink:href="#DejaVuSans-Oblique-73" x="2006.835938"/>
     <use xlink:href="#DejaVuSans-Oblique-73" x="2058.935547"/>
     <use xlink:href="#DejaVuSans-Oblique-20" x="2111.035156"/>
     <use xlink:href="#DejaVuSans-Oblique-31" x="2142.822266"/>
     <use xlink:href="#DejaVuSans-Oblique-30" x="2206.445312"/>
     <use xlink:href="#DejaVuSans-Oblique-30" x="2270.068359"/>
     <use xlink:href="#DejaVuSans-Oblique-20" x="2333.691406"/>
     <use xlink:href="#DejaVuSans-Oblique-74" x="2365.478516"/>
     <use xlink:href="#DejaVuSans-Oblique-72" x="2404.6875"/>
     <use xlink:href="#DejaVuSans-Oblique-65" x="2445.800781"/>
     <use xlink:href="#DejaVuSans-Oblique-65" x="2507.324219"/>
     <use xlink:href="#DejaVuSans-Oblique-73" x="2568.847656"/>
     <use xlink:href="#DejaVuSans-Oblique-29" x="2620.947266"/>
     <use xlink:href="#DejaVuSans-Oblique-20" x="2659.960938"/>
     <use xlink:href="#DejaVuSans-Oblique-20" x="2691.748047"/>
     <use xlink:href="#DejaVuSans-Oblique-2014" x="2723.535156"/>
     <use xlink:href="#DejaVuSans-Oblique-20" x="2823.535156"/>
     <use xlink:href="#DejaVuSans-Oblique-20" x="2855.322266"/>
     <use xlink:href="#DejaVuSans-Oblique-73" x="2887.109375"/>
     <use xlink:href="#DejaVuSans-Oblique-68" x="2939.208984"/>
     <use xlink:href="#DejaVuSans-Oblique-6f" x="3002.587891"/>
     <use xlink:href="#DejaVuSans-Oblique-72" x="3063.769531"/>
     <use xlink:href="#DejaVuSans-Oblique-74" x="3104.882812"/>
     <use xlink:href="#DejaVuSans-Oblique-65" x="3144.091797"/>
     <use xlink:href="#DejaVuSans-Oblique-72" x="3205.615234"/>
     <use xlink:href="#DejaVuSans-Oblique-20" x="3246.728516"/>
     <use xlink:href="#DejaVuSans-Oblique-70" x="3278.515625"/>
     <use xlink:href="#DejaVuSans-Oblique-61" x="3341.992188"/>
     <use xlink:href="#DejaVuSans-Oblique-74" x="3403.271484"/>
     <use xlink:href="#DejaVuSans-Oblique-68" x="3442.480469"/>
     <use xlink:href="#DejaVuSans-Oblique-20" x="3505.859375"/>
     <use xlink:href="#DejaVuSans-Oblique-3d" x="3537.646484"/>
     <use xlink:href="#DejaVuSans-Oblique-20" x="3621.435547"/>
     <use xlink:href="#DejaVuSans-Oblique-68" x="3653.222656"/>
     <use xlink:href="#DejaVuSans-Oblique-69" x="3716.601562"/>
     <use xlink:href="#DejaVuSans-Oblique-67" x="3744.384766"/>
     <use xlink:href="#DejaVuSans-Oblique-68" x="3807.861328"/>
     <use xlink:href="#DejaVuSans-Oblique-65" x="3871.240234"/>
     <use xlink:href="#DejaVuSans-Oblique-72" x="3932.763672"/>
     <use xlink:href="#DejaVuSans-Oblique-20" x="3973.876953"/>
     <use xlink:href="#DejaVuSans-Oblique-73" x="4005.664062"/>
     <use xlink:href="#DejaVuSans-Oblique-63" x="4057.763672"/>
     <use xlink:href="#DejaVuSans-Oblique-6f" x="4112.744141"/>
     <use xlink:href="#DejaVuSans-Oblique-72" x="4173.925781"/>
     <use xlink:href="#DejaVuSans-Oblique-65" x="4215.039062"/>
    </g>
   </g>
   <g id="text_20">
    <!-- Normal Point -->
    <g style="fill: #0f172a" transform="translate(183.955795 60.052844) scale(0.13 -0.13)">
     <defs>
      <path id="DejaVuSans-Bold-50" d="M 588 4666 
L 2584 4666 
Q 3475 4666 3951 4270 
Q 4428 3875 4428 3144 
Q 4428 2409 3951 2014 
Q 3475 1619 2584 1619 
L 1791 1619 
L 1791 0 
L 588 0 
L 588 4666 
z
M 1791 3794 
L 1791 2491 
L 2456 2491 
Q 2806 2491 2997 2661 
Q 3188 2831 3188 3144 
Q 3188 3456 2997 3625 
Q 2806 3794 2456 3794 
L 1791 3794 
z
" transform="scale(0.015625)"/>
      <path id="DejaVuSans-Bold-69" d="M 538 3500 
L 1656 3500 
L 1656 0 
L 538 0 
L 538 3500 
z
M 538 4863 
L 1656 4863 
L 1656 3950 
L 538 3950 
L 538 4863 
z
" transform="scale(0.015625)"/>
      <path id="DejaVuSans-Bold-74" d="M 1759 4494 
L 1759 3500 
L 2913 3500 
L 2913 2700 
L 1759 2700 
L 1759 1216 
Q 1759 972 1856 886 
Q 1953 800 2241 800 
L 2816 800 
L 2816 0 
L 1856 0 
Q 1194 0 917 276 
Q 641 553 641 1216 
L 641 2700 
L 84 2700 
L 84 3500 
L 641 3500 
L 641 4494 
L 1759 4494 
z
" transform="scale(0.015625)"/>
     </defs>
     <use xlink:href="#DejaVuSans-Bold-4e"/>
     <use xlink:href="#DejaVuSans-Bold-6f" x="83.691406"/>
     <use xlink:href="#DejaVuSans-Bold-72" x="152.392578"/>
     <use xlink:href="#DejaVuSans-Bold-6d" x="201.708984"/>
     <use xlink:href="#DejaVuSans-Bold-61" x="305.908203"/>
     <use xlink:href="#DejaVuSans-Bold-6c" x="373.388672"/>
     <use xlink:href="#DejaVuSans-Bold-20" x="407.666016"/>
     <use xlink:href="#DejaVuSans-Bold-50" x="442.480469"/>
     <use xlink:href="#DejaVuSans-Bold-6f" x="515.771484"/>
     <use xlink:href="#DejaVuSans-Bold-69" x="584.472656"/>
     <use xlink:href="#DejaVuSans-Bold-6e" x="618.75"/>
     <use xlink:href="#DejaVuSans-Bold-74" x="689.941406"/>
    </g>
    <!-- Path length = 6 splits (long) -->
    <g style="fill: #0f172a" transform="translate(128.392983 74.61) scale(0.13 -0.13)">
     <defs>
      <path id="DejaVuSans-Bold-68" d="M 4056 2131 
L 4056 0 
L 2931 0 
L 2931 347 
L 2931 1625 
Q 2931 2084 2911 2256 
Q 2891 2428 2841 2509 
Q 2775 2619 2662 2680 
Q 2550 2741 2406 2741 
Q 2056 2741 1856 2470 
Q 1656 2200 1656 1722 
L 1656 0 
L 538 0 
L 538 4863 
L 1656 4863 
L 1656 2988 
Q 1909 3294 2193 3439 
Q 2478 3584 2822 3584 
Q 3428 3584 3742 3212 
Q 4056 2841 4056 2131 
z
" transform="scale(0.015625)"/>
      <path id="DejaVuSans-Bold-67" d="M 2919 594 
Q 2688 288 2409 144 
Q 2131 0 1766 0 
Q 1125 0 706 504 
Q 288 1009 288 1791 
Q 288 2575 706 3076 
Q 1125 3578 1766 3578 
Q 2131 3578 2409 3434 
Q 2688 3291 2919 2981 
L 2919 3500 
L 4044 3500 
L 4044 353 
Q 4044 -491 3511 -936 
Q 2978 -1381 1966 -1381 
Q 1638 -1381 1331 -1331 
Q 1025 -1281 716 -1178 
L 716 -306 
Q 1009 -475 1290 -558 
Q 1572 -641 1856 -641 
Q 2406 -641 2662 -400 
Q 2919 -159 2919 353 
L 2919 594 
z
M 2181 2772 
Q 1834 2772 1640 2515 
Q 1447 2259 1447 1791 
Q 1447 1309 1634 1061 
Q 1822 813 2181 813 
Q 2531 813 2725 1069 
Q 2919 1325 2919 1791 
Q 2919 2259 2725 2515 
Q 2531 2772 2181 2772 
z
" transform="scale(0.015625)"/>
      <path id="DejaVuSans-Bold-3d" d="M 678 3084 
L 4684 3084 
L 4684 2350 
L 678 2350 
L 678 3084 
z
M 678 1663 
L 4684 1663 
L 4684 922 
L 678 922 
L 678 1663 
z
" transform="scale(0.015625)"/>
      <path id="DejaVuSans-Bold-36" d="M 2316 2303 
Q 2000 2303 1842 2098 
Q 1684 1894 1684 1484 
Q 1684 1075 1842 870 
Q 2000 666 2316 666 
Q 2634 666 2792 870 
Q 2950 1075 2950 1484 
Q 2950 1894 2792 2098 
Q 2634 2303 2316 2303 
z
M 3803 4544 
L 3803 3681 
Q 3506 3822 3243 3889 
Q 2981 3956 2731 3956 
Q 2194 3956 1894 3657 
Q 1594 3359 1544 2772 
Q 1750 2925 1990 3001 
Q 2231 3078 2516 3078 
Q 3231 3078 3670 2659 
Q 4109 2241 4109 1563 
Q 4109 813 3618 361 
Q 3128 -91 2303 -91 
Q 1394 -91 895 523 
Q 397 1138 397 2266 
Q 397 3422 980 4083 
Q 1563 4744 2578 4744 
Q 2900 4744 3203 4694 
Q 3506 4644 3803 4544 
z
" transform="scale(0.015625)"/>
      <path id="DejaVuSans-Bold-70" d="M 1656 506 
L 1656 -1331 
L 538 -1331 
L 538 3500 
L 1656 3500 
L 1656 2988 
Q 1888 3294 2169 3439 
Q 2450 3584 2816 3584 
Q 3463 3584 3878 3070 
Q 4294 2556 4294 1747 
Q 4294 938 3878 423 
Q 3463 -91 2816 -91 
Q 2450 -91 2169 54 
Q 1888 200 1656 506 
z
M 2400 2772 
Q 2041 2772 1848 2508 
Q 1656 2244 1656 1747 
Q 1656 1250 1848 986 
Q 2041 722 2400 722 
Q 2759 722 2948 984 
Q 3138 1247 3138 1747 
Q 3138 2247 2948 2509 
Q 2759 2772 2400 2772 
z
" transform="scale(0.015625)"/>
      <path id="DejaVuSans-Bold-28" d="M 2413 -844 
L 1484 -844 
Q 1006 -72 778 623 
Q 550 1319 550 2003 
Q 550 2688 779 3389 
Q 1009 4091 1484 4856 
L 2413 4856 
Q 2013 4116 1813 3408 
Q 1613 2700 1613 2009 
Q 1613 1319 1811 609 
Q 2009 -100 2413 -844 
z
" transform="scale(0.015625)"/>
      <path id="DejaVuSans-Bold-29" d="M 513 -844 
Q 913 -100 1113 609 
Q 1313 1319 1313 2009 
Q 1313 2700 1113 3408 
Q 913 4116 513 4856 
L 1441 4856 
Q 1916 4091 2145 3389 
Q 2375 2688 2375 2003 
Q 2375 1319 2147 623 
Q 1919 -72 1441 -844 
L 513 -844 
z
" transform="scale(0.015625)"/>
     </defs>
     <use xlink:href="#DejaVuSans-Bold-50"/>
     <use xlink:href="#DejaVuSans-Bold-61" x="70.666016"/>
     <use xlink:href="#DejaVuSans-Bold-74" x="138.146484"/>
     <use xlink:href="#DejaVuSans-Bold-68" x="185.949219"/>
     <use xlink:href="#DejaVuSans-Bold-20" x="257.140625"/>
     <use xlink:href="#DejaVuSans-Bold-6c" x="291.955078"/>
     <use xlink:href="#DejaVuSans-Bold-65" x="326.232422"/>
     <use xlink:href="#DejaVuSans-Bold-6e" x="394.054688"/>
     <use xlink:href="#DejaVuSans-Bold-67" x="465.246094"/>
     <use xlink:href="#DejaVuSans-Bold-74" x="536.828125"/>
     <use xlink:href="#DejaVuSans-Bold-68" x="584.630859"/>
     <use xlink:href="#DejaVuSans-Bold-20" x="655.822266"/>
     <use xlink:href="#DejaVuSans-Bold-3d" x="690.636719"/>
     <use xlink:href="#DejaVuSans-Bold-20" x="774.425781"/>
     <use xlink:href="#DejaVuSans-Bold-36" x="809.240234"/>
     <use xlink:href="#DejaVuSans-Bold-20" x="878.820312"/>
     <use xlink:href="#DejaVuSans-Bold-73" x="913.634766"/>
     <use xlink:href="#DejaVuSans-Bold-70" x="973.15625"/>
     <use xlink:href="#DejaVuSans-Bold-6c" x="1044.738281"/>
     <use xlink:href="#DejaVuSans-Bold-69" x="1079.015625"/>
     <use xlink:href="#DejaVuSans-Bold-74" x="1113.292969"/>
     <use xlink:href="#DejaVuSans-Bold-73" x="1161.095703"/>
     <use xlink:href="#DejaVuSans-Bold-20" x="1220.617188"/>
     <use xlink:href="#DejaVuSans-Bold-28" x="1255.431641"/>
     <use xlink:href="#DejaVuSans-Bold-6c" x="1301.134766"/>
     <use xlink:href="#DejaVuSans-Bold-6f" x="1335.412109"/>
     <use xlink:href="#DejaVuSans-Bold-6e" x="1404.113281"/>
     <use xlink:href="#DejaVuSans-Bold-67" x="1475.304688"/>
     <use xlink:href="#DejaVuSans-Bold-29" x="1546.886719"/>
    </g>
   </g>
  </g>
  <g id="axes_2">
   <g id="line2d_16">
    <path d="M 729.969545 116.316089 
L 627.828843 175.500788 
" clip-path="url(#p05f8af6ed2)" style="fill: none; stroke: #94a3b8; stroke-width: 1.5; stroke-linecap: square"/>
   </g>
   <g id="line2d_17">
    <path d="M 729.969545 116.316089 
L 832.110248 175.500788 
" clip-path="url(#p05f8af6ed2)" style="fill: none; stroke: #ef4444; stroke-width: 2.5; stroke-linecap: square"/>
   </g>
   <g id="line2d_18">
    <path d="M 832.110248 175.500788 
L 832.110248 234.685487 
" clip-path="url(#p05f8af6ed2)" style="fill: none; stroke: #ef4444; stroke-width: 2.5; stroke-linecap: square"/>
   </g>
   <g id="patch_21">
    <path d="M 701.370149 127.941655 
L 758.568942 127.941655 
Q 764.697384 127.941655 764.697384 124.771046 
L 764.697384 107.861132 
Q 764.697384 104.690523 758.568942 104.690523 
L 701.370149 104.690523 
Q 695.241707 104.690523 695.241707 107.861132 
L 695.241707 124.771046 
Q 695.241707 127.941655 701.370149 127.941655 
z
" clip-path="url(#p05f8af6ed2)" style="fill: #fef08a; stroke: #ca8a04; stroke-width: 2.2; stroke-linejoin: miter"/>
   </g>
   <g id="patch_22">
    <path d="M 599.229446 187.126354 
L 656.42824 187.126354 
Q 662.556682 187.126354 662.556682 183.955745 
L 662.556682 167.045831 
Q 662.556682 163.875222 656.42824 163.875222 
L 599.229446 163.875222 
Q 593.101004 163.875222 593.101004 167.045831 
L 593.101004 183.955745 
Q 593.101004 187.126354 599.229446 187.126354 
z
" clip-path="url(#p05f8af6ed2)" style="fill: #f1f5f9; stroke: #475569; stroke-width: 1.2; stroke-linejoin: miter"/>
   </g>
   <g id="patch_23">
    <path d="M 803.510851 187.126354 
L 860.709645 187.126354 
Q 866.838087 187.126354 866.838087 183.955745 
L 866.838087 167.045831 
Q 866.838087 163.875222 860.709645 163.875222 
L 803.510851 163.875222 
Q 797.382409 163.875222 797.382409 167.045831 
L 797.382409 183.955745 
Q 797.382409 187.126354 803.510851 187.126354 
z
" clip-path="url(#p05f8af6ed2)" style="fill: #fee2e2; stroke: #ef4444; stroke-width: 2.8; stroke-linejoin: miter"/>
   </g>
   <g id="text_21">
    <!-- amt&gt;$500 -->
    <g style="fill: #0f172a" transform="translate(704.500639 118.937495) scale(0.095 -0.095)">
     <use xlink:href="#DejaVuSans-61"/>
     <use xlink:href="#DejaVuSans-6d" x="61.279297"/>
     <use xlink:href="#DejaVuSans-74" x="158.691406"/>
     <use xlink:href="#DejaVuSans-3e" x="197.900391"/>
     <use xlink:href="#DejaVuSans-24" x="281.689453"/>
     <use xlink:href="#DejaVuSans-35" x="345.3125"/>
     <use xlink:href="#DejaVuSans-30" x="408.935547"/>
     <use xlink:href="#DejaVuSans-30" x="472.558594"/>
    </g>
   </g>
   <g id="text_22">
    <!-- foreign? -->
    <g style="fill: #0f172a" transform="translate(608.615093 178.122194) scale(0.095 -0.095)">
     <use xlink:href="#DejaVuSans-66"/>
     <use xlink:href="#DejaVuSans-6f" x="35.205078"/>
     <use xlink:href="#DejaVuSans-72" x="96.386719"/>
     <use xlink:href="#DejaVuSans-65" x="135.25"/>
     <use xlink:href="#DejaVuSans-69" x="196.773438"/>
     <use xlink:href="#DejaVuSans-67" x="224.556641"/>
     <use xlink:href="#DejaVuSans-6e" x="288.033203"/>
     <use xlink:href="#DejaVuSans-3f" x="351.412109"/>
    </g>
   </g>
   <g id="text_23">
    <!-- ANOMALY ✗ -->
    <g style="fill: #0f172a" transform="translate(800.660053 178.122194) scale(0.095 -0.095)">
     <defs>
      <path id="DejaVuSans-Bold-59" d="M -63 4666 
L 1253 4666 
L 2316 3003 
L 3378 4666 
L 4697 4666 
L 2919 1966 
L 2919 0 
L 1716 0 
L 1716 1966 
L -63 4666 
z
" transform="scale(0.015625)"/>
      <path id="DejaVuSans-Bold-2717" d="M 3975 4688 
Q 4006 4688 4056 4638 
Q 4109 4588 4166 4506 
Q 4256 4666 4309 4666 
Q 4356 4666 4438 4581 
Q 4488 4528 4488 4463 
Q 4488 4378 4419 4306 
Q 3769 3600 3156 2753 
Q 3409 2134 3856 1388 
Q 3894 1325 3894 1288 
Q 3894 1216 3800 1138 
L 3700 1069 
Q 3713 1031 3713 969 
Q 3713 875 3644 825 
Q 3563 769 3525 769 
Q 3444 769 3381 850 
Q 3006 1331 2606 1981 
Q 2069 1281 1375 113 
Q 1275 -56 1038 -56 
Q 925 -56 913 75 
Q 753 163 753 353 
Q 753 603 788 700 
Q 803 744 888 875 
Q 1525 1869 2238 2700 
Q 1856 3606 1731 4097 
Q 1703 4206 1703 4238 
Q 1703 4281 1759 4363 
Q 1819 4444 1869 4444 
Q 1916 4444 1988 4353 
Q 2016 4406 2056 4444 
Q 2113 4494 2200 4494 
Q 2300 4494 2331 4400 
Q 2500 3875 2775 3400 
Q 3219 3975 3856 4613 
Q 3931 4688 3975 4688 
z
" transform="scale(0.015625)"/>
     </defs>
     <use xlink:href="#DejaVuSans-Bold-41"/>
     <use xlink:href="#DejaVuSans-Bold-4e" x="77.392578"/>
     <use xlink:href="#DejaVuSans-Bold-4f" x="161.083984"/>
     <use xlink:href="#DejaVuSans-Bold-4d" x="246.09375"/>
     <use xlink:href="#DejaVuSans-Bold-41" x="345.605469"/>
     <use xlink:href="#DejaVuSans-Bold-4c" x="422.998047"/>
     <use xlink:href="#DejaVuSans-Bold-59" x="471.09375"/>
     <use xlink:href="#DejaVuSans-Bold-20" x="543.505859"/>
     <use xlink:href="#DejaVuSans-Bold-2717" x="578.320312"/>
    </g>
   </g>
   <g id="text_24">
    <g id="patch_24">
     <path d="M 645.124233 100.258384 
L 814.814858 100.258384 
Q 817.814858 100.258384 817.814858 97.258384 
L 817.814858 76.382446 
Q 817.814858 73.382446 814.814858 73.382446 
L 645.124233 73.382446 
Q 642.124233 73.382446 642.124233 76.382446 
L 642.124233 97.258384 
Q 642.124233 100.258384 645.124233 100.258384 
z
" style="fill: #fee2e2; stroke: #ef4444; stroke-linejoin: miter"/>
    </g>
    <!-- Anomalies stand alone — isolated -->
    <g style="fill: #991b1b" transform="translate(645.124233 83.980884) scale(0.1 -0.1)">
     <use xlink:href="#DejaVuSans-41"/>
     <use xlink:href="#DejaVuSans-6e" x="68.408203"/>
     <use xlink:href="#DejaVuSans-6f" x="131.787109"/>
     <use xlink:href="#DejaVuSans-6d" x="192.96875"/>
     <use xlink:href="#DejaVuSans-61" x="290.380859"/>
     <use xlink:href="#DejaVuSans-6c" x="351.660156"/>
     <use xlink:href="#DejaVuSans-69" x="379.443359"/>
     <use xlink:href="#DejaVuSans-65" x="407.226562"/>
     <use xlink:href="#DejaVuSans-73" x="468.75"/>
     <use xlink:href="#DejaVuSans-20" x="520.849609"/>
     <use xlink:href="#DejaVuSans-73" x="552.636719"/>
     <use xlink:href="#DejaVuSans-74" x="604.736328"/>
     <use xlink:href="#DejaVuSans-61" x="643.945312"/>
     <use xlink:href="#DejaVuSans-6e" x="705.224609"/>
     <use xlink:href="#DejaVuSans-64" x="768.603516"/>
     <use xlink:href="#DejaVuSans-20" x="832.080078"/>
     <use xlink:href="#DejaVuSans-61" x="863.867188"/>
     <use xlink:href="#DejaVuSans-6c" x="925.146484"/>
     <use xlink:href="#DejaVuSans-6f" x="952.929688"/>
     <use xlink:href="#DejaVuSans-6e" x="1014.111328"/>
     <use xlink:href="#DejaVuSans-65" x="1077.490234"/>
     <use xlink:href="#DejaVuSans-20" x="1139.013672"/>
     <use xlink:href="#DejaVuSans-2014" x="1170.800781"/>
     <use xlink:href="#DejaVuSans-20" x="1270.800781"/>
     <use xlink:href="#DejaVuSans-69" x="1302.587891"/>
     <use xlink:href="#DejaVuSans-73" x="1330.371094"/>
     <use xlink:href="#DejaVuSans-6f" x="1382.470703"/>
     <use xlink:href="#DejaVuSans-6c" x="1443.652344"/>
     <use xlink:href="#DejaVuSans-61" x="1471.435547"/>
     <use xlink:href="#DejaVuSans-74" x="1532.714844"/>
     <use xlink:href="#DejaVuSans-65" x="1571.923828"/>
     <use xlink:href="#DejaVuSans-64" x="1633.447266"/>
    </g>
    <!-- with just a few random cuts -->
    <g style="fill: #991b1b" transform="translate(660.429702 95.178696) scale(0.1 -0.1)">
     <defs>
      <path id="DejaVuSans-77" d="M 269 3500 
L 844 3500 
L 1563 769 
L 2278 3500 
L 2956 3500 
L 3675 769 
L 4391 3500 
L 4966 3500 
L 4050 0 
L 3372 0 
L 2619 2869 
L 1863 0 
L 1184 0 
L 269 3500 
z
" transform="scale(0.015625)"/>
      <path id="DejaVuSans-6a" d="M 603 3500 
L 1178 3500 
L 1178 -63 
Q 1178 -731 923 -1031 
Q 669 -1331 103 -1331 
L -116 -1331 
L -116 -844 
L 38 -844 
Q 366 -844 484 -692 
Q 603 -541 603 -63 
L 603 3500 
z
M 603 4863 
L 1178 4863 
L 1178 4134 
L 603 4134 
L 603 4863 
z
" transform="scale(0.015625)"/>
      <path id="DejaVuSans-75" d="M 544 1381 
L 544 3500 
L 1119 3500 
L 1119 1403 
Q 1119 906 1312 657 
Q 1506 409 1894 409 
Q 2359 409 2629 706 
Q 2900 1003 2900 1516 
L 2900 3500 
L 3475 3500 
L 3475 0 
L 2900 0 
L 2900 538 
Q 2691 219 2414 64 
Q 2138 -91 1772 -91 
Q 1169 -91 856 284 
Q 544 659 544 1381 
z
M 1991 3584 
L 1991 3584 
z
" transform="scale(0.015625)"/>
      <path id="DejaVuSans-63" d="M 3122 3366 
L 3122 2828 
Q 2878 2963 2633 3030 
Q 2388 3097 2138 3097 
Q 1578 3097 1268 2742 
Q 959 2388 959 1747 
Q 959 1106 1268 751 
Q 1578 397 2138 397 
Q 2388 397 2633 464 
Q 2878 531 3122 666 
L 3122 134 
Q 2881 22 2623 -34 
Q 2366 -91 2075 -91 
Q 1284 -91 818 406 
Q 353 903 353 1747 
Q 353 2603 823 3093 
Q 1294 3584 2113 3584 
Q 2378 3584 2631 3529 
Q 2884 3475 3122 3366 
z
" transform="scale(0.015625)"/>
     </defs>
     <use xlink:href="#DejaVuSans-77"/>
     <use xlink:href="#DejaVuSans-69" x="81.787109"/>
     <use xlink:href="#DejaVuSans-74" x="109.570312"/>
     <use xlink:href="#DejaVuSans-68" x="148.779297"/>
     <use xlink:href="#DejaVuSans-20" x="212.158203"/>
     <use xlink:href="#DejaVuSans-6a" x="243.945312"/>
     <use xlink:href="#DejaVuSans-75" x="271.728516"/>
     <use xlink:href="#DejaVuSans-73" x="335.107422"/>
     <use xlink:href="#DejaVuSans-74" x="387.207031"/>
     <use xlink:href="#DejaVuSans-20" x="426.416016"/>
     <use xlink:href="#DejaVuSans-61" x="458.203125"/>
     <use xlink:href="#DejaVuSans-20" x="519.482422"/>
     <use xlink:href="#DejaVuSans-66" x="551.269531"/>
     <use xlink:href="#DejaVuSans-65" x="586.474609"/>
     <use xlink:href="#DejaVuSans-77" x="647.998047"/>
     <use xlink:href="#DejaVuSans-20" x="729.785156"/>
     <use xlink:href="#DejaVuSans-72" x="761.572266"/>
     <use xlink:href="#DejaVuSans-61" x="802.685547"/>
     <use xlink:href="#DejaVuSans-6e" x="863.964844"/>
     <use xlink:href="#DejaVuSans-64" x="927.34375"/>
     <use xlink:href="#DejaVuSans-6f" x="990.820312"/>
     <use xlink:href="#DejaVuSans-6d" x="1052.001953"/>
     <use xlink:href="#DejaVuSans-20" x="1149.414062"/>
     <use xlink:href="#DejaVuSans-63" x="1181.201172"/>
     <use xlink:href="#DejaVuSans-75" x="1236.181641"/>
     <use xlink:href="#DejaVuSans-74" x="1299.560547"/>
     <use xlink:href="#DejaVuSans-73" x="1338.769531"/>
    </g>
   </g>
   <g id="text_25">
    <g id="patch_25">
     <path d="M 610.67642 360.444261 
L 849.26267 360.444261 
Q 854.06267 360.444261 854.06267 355.644261 
L 854.06267 343.936761 
Q 854.06267 339.136761 849.26267 339.136761 
L 610.67642 339.136761 
Q 605.87642 339.136761 605.87642 343.936761 
L 605.87642 355.644261 
Q 605.87642 360.444261 610.67642 360.444261 
z
" style="fill: #fee2e2; stroke: #ef4444; stroke-width: 2; stroke-linejoin: miter"/>
    </g>
    <!--   ANOMALY  — high anomaly score   -->
    <g style="fill: #0f172a" transform="translate(610.67642 353.054886) scale(0.12 -0.12)">
     <use xlink:href="#DejaVuSans-Bold-20"/>
     <use xlink:href="#DejaVuSans-Bold-20" x="34.814453"/>
     <use xlink:href="#DejaVuSans-Bold-41" x="69.628906"/>
     <use xlink:href="#DejaVuSans-Bold-4e" x="147.021484"/>
     <use xlink:href="#DejaVuSans-Bold-4f" x="230.712891"/>
     <use xlink:href="#DejaVuSans-Bold-4d" x="315.722656"/>
     <use xlink:href="#DejaVuSans-Bold-41" x="415.234375"/>
     <use xlink:href="#DejaVuSans-Bold-4c" x="492.626953"/>
     <use xlink:href="#DejaVuSans-Bold-59" x="540.722656"/>
     <use xlink:href="#DejaVuSans-Bold-20" x="613.134766"/>
     <use xlink:href="#DejaVuSans-Bold-20" x="647.949219"/>
     <use xlink:href="#DejaVuSans-Bold-2014" x="682.763672"/>
     <use xlink:href="#DejaVuSans-Bold-20" x="782.763672"/>
     <use xlink:href="#DejaVuSans-Bold-68" x="817.578125"/>
     <use xlink:href="#DejaVuSans-Bold-69" x="888.769531"/>
     <use xlink:href="#DejaVuSans-Bold-67" x="923.046875"/>
     <use xlink:href="#DejaVuSans-Bold-68" x="994.628906"/>
     <use xlink:href="#DejaVuSans-Bold-20" x="1065.820312"/>
     <use xlink:href="#DejaVuSans-Bold-61" x="1100.634766"/>
     <use xlink:href="#DejaVuSans-Bold-6e" x="1168.115234"/>
     <use xlink:href="#DejaVuSans-Bold-6f" x="1239.306641"/>
     <use xlink:href="#DejaVuSans-Bold-6d" x="1308.007812"/>
     <use xlink:href="#DejaVuSans-Bold-61" x="1412.207031"/>
     <use xlink:href="#DejaVuSans-Bold-6c" x="1479.6875"/>
     <use xlink:href="#DejaVuSans-Bold-79" x="1513.964844"/>
     <use xlink:href="#DejaVuSans-Bold-20" x="1579.150391"/>
     <use xlink:href="#DejaVuSans-Bold-73" x="1613.964844"/>
     <use xlink:href="#DejaVuSans-Bold-63" x="1673.486328"/>
     <use xlink:href="#DejaVuSans-Bold-6f" x="1732.763672"/>
     <use xlink:href="#DejaVuSans-Bold-72" x="1801.464844"/>
     <use xlink:href="#DejaVuSans-Bold-65" x="1850.78125"/>
     <use xlink:href="#DejaVuSans-Bold-20" x="1918.603516"/>
     <use xlink:href="#DejaVuSans-Bold-20" x="1953.417969"/>
    </g>
   </g>
   <g id="text_26">
    <!-- Anomaly score = f(avg path length across 100 trees)  —  shorter path = higher score -->
    <g style="fill: #475569" transform="translate(514.248382 421.328664) scale(0.09 -0.09)">
     <use xlink:href="#DejaVuSans-Oblique-41"/>
     <use xlink:href="#DejaVuSans-Oblique-6e" x="68.408203"/>
     <use xlink:href="#DejaVuSans-Oblique-6f" x="131.787109"/>
     <use xlink:href="#DejaVuSans-Oblique-6d" x="192.96875"/>
     <use xlink:href="#DejaVuSans-Oblique-61" x="290.380859"/>
     <use xlink:href="#DejaVuSans-Oblique-6c" x="351.660156"/>
     <use xlink:href="#DejaVuSans-Oblique-79" x="379.443359"/>
     <use xlink:href="#DejaVuSans-Oblique-20" x="438.623047"/>
     <use xlink:href="#DejaVuSans-Oblique-73" x="470.410156"/>
     <use xlink:href="#DejaVuSans-Oblique-63" x="522.509766"/>
     <use xlink:href="#DejaVuSans-Oblique-6f" x="577.490234"/>
     <use xlink:href="#DejaVuSans-Oblique-72" x="638.671875"/>
     <use xlink:href="#DejaVuSans-Oblique-65" x="679.785156"/>
     <use xlink:href="#DejaVuSans-Oblique-20" x="741.308594"/>
     <use xlink:href="#DejaVuSans-Oblique-3d" x="773.095703"/>
     <use xlink:href="#DejaVuSans-Oblique-20" x="856.884766"/>
     <use xlink:href="#DejaVuSans-Oblique-66" x="888.671875"/>
     <use xlink:href="#DejaVuSans-Oblique-28" x="923.876953"/>
     <use xlink:href="#DejaVuSans-Oblique-61" x="962.890625"/>
     <use xlink:href="#DejaVuSans-Oblique-76" x="1024.169922"/>
     <use xlink:href="#DejaVuSans-Oblique-67" x="1083.349609"/>
     <use xlink:href="#DejaVuSans-Oblique-20" x="1146.826172"/>
     <use xlink:href="#DejaVuSans-Oblique-70" x="1178.613281"/>
     <use xlink:href="#DejaVuSans-Oblique-61" x="1242.089844"/>
     <use xlink:href="#DejaVuSans-Oblique-74" x="1303.369141"/>
     <use xlink:href="#DejaVuSans-Oblique-68" x="1342.578125"/>
     <use xlink:href="#DejaVuSans-Oblique-20" x="1405.957031"/>
     <use xlink:href="#DejaVuSans-Oblique-6c" x="1437.744141"/>
     <use xlink:href="#DejaVuSans-Oblique-65" x="1465.527344"/>
     <use xlink:href="#DejaVuSans-Oblique-6e" x="1527.050781"/>
     <use xlink:href="#DejaVuSans-Oblique-67" x="1590.429688"/>
     <use xlink:href="#DejaVuSans-Oblique-74" x="1653.90625"/>
     <use xlink:href="#DejaVuSans-Oblique-68" x="1693.115234"/>
     <use xlink:href="#DejaVuSans-Oblique-20" x="1756.494141"/>
     <use xlink:href="#DejaVuSans-Oblique-61" x="1788.28125"/>
     <use xlink:href="#DejaVuSans-Oblique-63" x="1849.560547"/>
     <use xlink:href="#DejaVuSans-Oblique-72" x="1904.541016"/>
     <use xlink:href="#DejaVuSans-Oblique-6f" x="1945.654297"/>
     <use xlink:href="#DejaVuSans-Oblique-73" x="2006.835938"/>
     <use xlink:href="#DejaVuSans-Oblique-73" x="2058.935547"/>
     <use xlink:href="#DejaVuSans-Oblique-20" x="2111.035156"/>
     <use xlink:href="#DejaVuSans-Oblique-31" x="2142.822266"/>
     <use xlink:href="#DejaVuSans-Oblique-30" x="2206.445312"/>
     <use xlink:href="#DejaVuSans-Oblique-30" x="2270.068359"/>
     <use xlink:href="#DejaVuSans-Oblique-20" x="2333.691406"/>
     <use xlink:href="#DejaVuSans-Oblique-74" x="2365.478516"/>
     <use xlink:href="#DejaVuSans-Oblique-72" x="2404.6875"/>
     <use xlink:href="#DejaVuSans-Oblique-65" x="2445.800781"/>
     <use xlink:href="#DejaVuSans-Oblique-65" x="2507.324219"/>
     <use xlink:href="#DejaVuSans-Oblique-73" x="2568.847656"/>
     <use xlink:href="#DejaVuSans-Oblique-29" x="2620.947266"/>
     <use xlink:href="#DejaVuSans-Oblique-20" x="2659.960938"/>
     <use xlink:href="#DejaVuSans-Oblique-20" x="2691.748047"/>
     <use xlink:href="#DejaVuSans-Oblique-2014" x="2723.535156"/>
     <use xlink:href="#DejaVuSans-Oblique-20" x="2823.535156"/>
     <use xlink:href="#DejaVuSans-Oblique-20" x="2855.322266"/>
     <use xlink:href="#DejaVuSans-Oblique-73" x="2887.109375"/>
     <use xlink:href="#DejaVuSans-Oblique-68" x="2939.208984"/>
     <use xlink:href="#DejaVuSans-Oblique-6f" x="3002.587891"/>
     <use xlink:href="#DejaVuSans-Oblique-72" x="3063.769531"/>
     <use xlink:href="#DejaVuSans-Oblique-74" x="3104.882812"/>
     <use xlink:href="#DejaVuSans-Oblique-65" x="3144.091797"/>
     <use xlink:href="#DejaVuSans-Oblique-72" x="3205.615234"/>
     <use xlink:href="#DejaVuSans-Oblique-20" x="3246.728516"/>
     <use xlink:href="#DejaVuSans-Oblique-70" x="3278.515625"/>
     <use xlink:href="#DejaVuSans-Oblique-61" x="3341.992188"/>
     <use xlink:href="#DejaVuSans-Oblique-74" x="3403.271484"/>
     <use xlink:href="#DejaVuSans-Oblique-68" x="3442.480469"/>
     <use xlink:href="#DejaVuSans-Oblique-20" x="3505.859375"/>
     <use xlink:href="#DejaVuSans-Oblique-3d" x="3537.646484"/>
     <use xlink:href="#DejaVuSans-Oblique-20" x="3621.435547"/>
     <use xlink:href="#DejaVuSans-Oblique-68" x="3653.222656"/>
     <use xlink:href="#DejaVuSans-Oblique-69" x="3716.601562"/>
     <use xlink:href="#DejaVuSans-Oblique-67" x="3744.384766"/>
     <use xlink:href="#DejaVuSans-Oblique-68" x="3807.861328"/>
     <use xlink:href="#DejaVuSans-Oblique-65" x="3871.240234"/>
     <use xlink:href="#DejaVuSans-Oblique-72" x="3932.763672"/>
     <use xlink:href="#DejaVuSans-Oblique-20" x="3973.876953"/>
     <use xlink:href="#DejaVuSans-Oblique-73" x="4005.664062"/>
     <use xlink:href="#DejaVuSans-Oblique-63" x="4057.763672"/>
     <use xlink:href="#DejaVuSans-Oblique-6f" x="4112.744141"/>
     <use xlink:href="#DejaVuSans-Oblique-72" x="4173.925781"/>
     <use xlink:href="#DejaVuSans-Oblique-65" x="4215.039062"/>
    </g>
   </g>
   <g id="text_27">
    <!-- Anomaly -->
    <g style="fill: #0f172a" transform="translate(698.221108 59.951281) scale(0.13 -0.13)">
     <use xlink:href="#DejaVuSans-Bold-41"/>
     <use xlink:href="#DejaVuSans-Bold-6e" x="77.392578"/>
     <use xlink:href="#DejaVuSans-Bold-6f" x="148.583984"/>
     <use xlink:href="#DejaVuSans-Bold-6d" x="217.285156"/>
     <use xlink:href="#DejaVuSans-Bold-61" x="321.484375"/>
     <use xlink:href="#DejaVuSans-Bold-6c" x="388.964844"/>
     <use xlink:href="#DejaVuSans-Bold-79" x="423.242188"/>
    </g>
    <!-- Path length = 2 splits (short) -->
    <g style="fill: #0f172a" transform="translate(623.153217 74.61) scale(0.13 -0.13)">
     <defs>
      <path id="DejaVuSans-Bold-32" d="M 1844 884 
L 3897 884 
L 3897 0 
L 506 0 
L 506 884 
L 2209 2388 
Q 2438 2594 2547 2791 
Q 2656 2988 2656 3200 
Q 2656 3528 2436 3728 
Q 2216 3928 1850 3928 
Q 1569 3928 1234 3808 
Q 900 3688 519 3450 
L 519 4475 
Q 925 4609 1322 4679 
Q 1719 4750 2100 4750 
Q 2938 4750 3402 4381 
Q 3866 4013 3866 3353 
Q 3866 2972 3669 2642 
Q 3472 2313 2841 1759 
L 1844 884 
z
" transform="scale(0.015625)"/>
     </defs>
     <use xlink:href="#DejaVuSans-Bold-50"/>
     <use xlink:href="#DejaVuSans-Bold-61" x="70.666016"/>
     <use xlink:href="#DejaVuSans-Bold-74" x="138.146484"/>
     <use xlink:href="#DejaVuSans-Bold-68" x="185.949219"/>
     <use xlink:href="#DejaVuSans-Bold-20" x="257.140625"/>
     <use xlink:href="#DejaVuSans-Bold-6c" x="291.955078"/>
     <use xlink:href="#DejaVuSans-Bold-65" x="326.232422"/>
     <use xlink:href="#DejaVuSans-Bold-6e" x="394.054688"/>
     <use xlink:href="#DejaVuSans-Bold-67" x="465.246094"/>
     <use xlink:href="#DejaVuSans-Bold-74" x="536.828125"/>
     <use xlink:href="#DejaVuSans-Bold-68" x="584.630859"/>
     <use xlink:href="#DejaVuSans-Bold-20" x="655.822266"/>
     <use xlink:href="#DejaVuSans-Bold-3d" x="690.636719"/>
     <use xlink:href="#DejaVuSans-Bold-20" x="774.425781"/>
     <use xlink:href="#DejaVuSans-Bold-32" x="809.240234"/>
     <use xlink:href="#DejaVuSans-Bold-20" x="878.820312"/>
     <use xlink:href="#DejaVuSans-Bold-73" x="913.634766"/>
     <use xlink:href="#DejaVuSans-Bold-70" x="973.15625"/>
     <use xlink:href="#DejaVuSans-Bold-6c" x="1044.738281"/>
     <use xlink:href="#DejaVuSans-Bold-69" x="1079.015625"/>
     <use xlink:href="#DejaVuSans-Bold-74" x="1113.292969"/>
     <use xlink:href="#DejaVuSans-Bold-73" x="1161.095703"/>
     <use xlink:href="#DejaVuSans-Bold-20" x="1220.617188"/>
     <use xlink:href="#DejaVuSans-Bold-28" x="1255.431641"/>
     <use xlink:href="#DejaVuSans-Bold-73" x="1301.134766"/>
     <use xlink:href="#DejaVuSans-Bold-68" x="1360.65625"/>
     <use xlink:href="#DejaVuSans-Bold-6f" x="1431.847656"/>
     <use xlink:href="#DejaVuSans-Bold-72" x="1500.548828"/>
     <use xlink:href="#DejaVuSans-Bold-74" x="1549.865234"/>
     <use xlink:href="#DejaVuSans-Bold-29" x="1597.667969"/>
    </g>
   </g>
  </g>
  <g id="text_28">
   <!-- Isolation Forest: Anomalies Are Easier to Isolate -->
   <g style="fill: #0f172a" transform="translate(295.249687 18.597656) scale(0.15 -0.15)">
    <defs>
     <path id="DejaVuSans-Bold-49" d="M 588 4666 
L 1791 4666 
L 1791 0 
L 588 0 
L 588 4666 
z
" transform="scale(0.015625)"/>
     <path id="DejaVuSans-Bold-46" d="M 588 4666 
L 3834 4666 
L 3834 3756 
L 1791 3756 
L 1791 2888 
L 3713 2888 
L 3713 1978 
L 1791 1978 
L 1791 0 
L 588 0 
L 588 4666 
z
" transform="scale(0.015625)"/>
     <path id="DejaVuSans-Bold-3a" d="M 716 3500 
L 1844 3500 
L 1844 2291 
L 716 2291 
L 716 3500 
z
M 716 1209 
L 1844 1209 
L 1844 0 
L 716 0 
L 716 1209 
z
" transform="scale(0.015625)"/>
     <path id="DejaVuSans-Bold-45" d="M 588 4666 
L 3834 4666 
L 3834 3756 
L 1791 3756 
L 1791 2888 
L 3713 2888 
L 3713 1978 
L 1791 1978 
L 1791 909 
L 3903 909 
L 3903 0 
L 588 0 
L 588 4666 
z
" transform="scale(0.015625)"/>
    </defs>
    <use xlink:href="#DejaVuSans-Bold-49"/>
    <use xlink:href="#DejaVuSans-Bold-73" x="37.207031"/>
    <use xlink:href="#DejaVuSans-Bold-6f" x="96.728516"/>
    <use xlink:href="#DejaVuSans-Bold-6c" x="165.429688"/>
    <use xlink:href="#DejaVuSans-Bold-61" x="199.707031"/>
    <use xlink:href="#DejaVuSans-Bold-74" x="267.1875"/>
    <use xlink:href="#DejaVuSans-Bold-69" x="314.990234"/>
    <use xlink:href="#DejaVuSans-Bold-6f" x="349.267578"/>
    <use xlink:href="#DejaVuSans-Bold-6e" x="417.96875"/>
    <use xlink:href="#DejaVuSans-Bold-20" x="489.160156"/>
    <use xlink:href="#DejaVuSans-Bold-46" x="523.974609"/>
    <use xlink:href="#DejaVuSans-Bold-6f" x="588.285156"/>
    <use xlink:href="#DejaVuSans-Bold-72" x="656.986328"/>
    <use xlink:href="#DejaVuSans-Bold-65" x="706.302734"/>
    <use xlink:href="#DejaVuSans-Bold-73" x="774.125"/>
    <use xlink:href="#DejaVuSans-Bold-74" x="833.646484"/>
    <use xlink:href="#DejaVuSans-Bold-3a" x="881.449219"/>
    <use xlink:href="#DejaVuSans-Bold-20" x="921.439453"/>
    <use xlink:href="#DejaVuSans-Bold-41" x="956.253906"/>
    <use xlink:href="#DejaVuSans-Bold-6e" x="1033.646484"/>
    <use xlink:href="#DejaVuSans-Bold-6f" x="1104.837891"/>
    <use xlink:href="#DejaVuSans-Bold-6d" x="1173.539062"/>
    <use xlink:href="#DejaVuSans-Bold-61" x="1277.738281"/>
    <use xlink:href="#DejaVuSans-Bold-6c" x="1345.21875"/>
    <use xlink:href="#DejaVuSans-Bold-69" x="1379.496094"/>
    <use xlink:href="#DejaVuSans-Bold-65" x="1413.773438"/>
    <use xlink:href="#DejaVuSans-Bold-73" x="1481.595703"/>
    <use xlink:href="#DejaVuSans-Bold-20" x="1541.117188"/>
    <use xlink:href="#DejaVuSans-Bold-41" x="1575.931641"/>
    <use xlink:href="#DejaVuSans-Bold-72" x="1653.324219"/>
    <use xlink:href="#DejaVuSans-Bold-65" x="1702.640625"/>
    <use xlink:href="#DejaVuSans-Bold-20" x="1770.462891"/>
    <use xlink:href="#DejaVuSans-Bold-45" x="1805.277344"/>
    <use xlink:href="#DejaVuSans-Bold-61" x="1873.587891"/>
    <use xlink:href="#DejaVuSans-Bold-73" x="1941.068359"/>
    <use xlink:href="#DejaVuSans-Bold-69" x="2000.589844"/>
    <use xlink:href="#DejaVuSans-Bold-65" x="2034.867188"/>
    <use xlink:href="#DejaVuSans-Bold-72" x="2102.689453"/>
    <use xlink:href="#DejaVuSans-Bold-20" x="2152.005859"/>
    <use xlink:href="#DejaVuSans-Bold-74" x="2186.820312"/>
    <use xlink:href="#DejaVuSans-Bold-6f" x="2234.623047"/>
    <use xlink:href="#DejaVuSans-Bold-20" x="2303.324219"/>
    <use xlink:href="#DejaVuSans-Bold-49" x="2338.138672"/>
    <use xlink:href="#DejaVuSans-Bold-73" x="2375.345703"/>
    <use xlink:href="#DejaVuSans-Bold-6f" x="2434.867188"/>
    <use xlink:href="#DejaVuSans-Bold-6c" x="2503.568359"/>
    <use xlink:href="#DejaVuSans-Bold-61" x="2537.845703"/>
    <use xlink:href="#DejaVuSans-Bold-74" x="2605.326172"/>
    <use xlink:href="#DejaVuSans-Bold-65" x="2653.128906"/>
   </g>
  </g>
 </g>
 <defs>
  <clipPath id="p24b4be9e4e">
   <rect x="7.2" y="84.61" width="449.419091" height="285.3548"/>
  </clipPath>
  <clipPath id="p05f8af6ed2">
   <rect x="505.26" y="84.61" width="449.419091" height="285.3548"/>
  </clipPath>
 </defs>
</svg>
