<?xml version="1.0" encoding="utf-8" standalone="no"?>
<!DOCTYPE svg PUBLIC "-//W3C//DTD SVG 1.1//EN"
  "http://www.w3.org/Graphics/SVG/1.1/DTD/svg11.dtd">
<svg xmlns:xlink="http://www.w3.org/1999/xlink" width="926.64pt" height="458.957344pt" viewBox="0 0 926.64 458.957344" xmlns="http://www.w3.org/2000/svg" version="1.1">
 <metadata>
  <rdf:RDF xmlns:dc="http://purl.org/dc/elements/1.1/" xmlns:cc="http://creativecommons.org/ns#" xmlns:rdf="http://www.w3.org/1999/02/22-rdf-syntax-ns#">
   <cc:Work>
    <dc:type rdf:resource="http://purl.org/dc/dcmitype/StillImage"/>
    <dc:date>2026-03-20T01:55:32.620664</dc:date>
    <dc:format>image/svg+xml</dc:format>
    <dc:creator>
     <cc:Agent>
      <dc:title>Matplotlib v3.9.0, https://matplotlib.org/</dc:title>
     </cc:Agent>
    </dc:creator>
   </cc:Work>
  </rdf:RDF>
 </metadata>
 <defs>
  <style type="text/css">*{stroke-linejoin: round; stroke-linecap: butt}</style>
 </defs>
 <g id="figure_1">
  <g id="patch_1">
   <path d="M 0 458.957344 
L 926.64 458.957344 
L 926.64 0 
L 0 0 
z
" style="fill: #ffffff"/>
  </g>
  <g id="axes_1">
   <g id="patch_2">
    <path d="M 34.5672 189.904144 
L 198.7704 189.904144 
Q 217.0152 189.904144 217.0152 181.591344 
L 217.0152 140.027344 
Q 217.0152 131.714544 198.7704 131.714544 
L 34.5672 131.714544 
Q 16.3224 131.714544 16.3224 140.027344 
L 16.3224 181.591344 
Q 16.3224 189.904144 34.5672 189.904144 
z
" clip-path="url(#pae712f0931)" style="fill: #dbeafe; stroke: #2563eb; stroke-width: 1.6; stroke-linejoin: miter"/>
   </g>
   <g id="patch_3">
    <path d="M 262.6272 189.904144 
L 426.8304 189.904144 
Q 445.0752 189.904144 445.0752 181.591344 
L 445.0752 140.027344 
Q 445.0752 131.714544 426.8304 131.714544 
L 262.6272 131.714544 
Q 244.3824 131.714544 244.3824 140.027344 
L 244.3824 181.591344 
Q 244.3824 189.904144 262.6272 189.904144 
z
" clip-path="url(#pae712f0931)" style="fill: #dcfce7; stroke: #22c55e; stroke-width: 1.6; stroke-linejoin: miter"/>
   </g>
   <g id="patch_4">
    <path d="M 490.6872 189.904144 
L 654.8904 189.904144 
Q 673.1352 189.904144 673.1352 181.591344 
L 673.1352 140.027344 
Q 673.1352 131.714544 654.8904 131.714544 
L 490.6872 131.714544 
Q 472.4424 131.714544 472.4424 140.027344 
L 472.4424 181.591344 
Q 472.4424 189.904144 490.6872 189.904144 
z
" clip-path="url(#pae712f0931)" style="fill: #ede9fe; stroke: #8b5cf6; stroke-width: 1.6; stroke-linejoin: miter"/>
   </g>
   <g id="patch_5">
    <path d="M 718.7472 189.904144 
L 882.9504 189.904144 
Q 901.1952 189.904144 901.1952 181.591344 
L 901.1952 140.027344 
Q 901.1952 131.714544 882.9504 131.714544 
L 718.7472 131.714544 
Q 700.5024 131.714544 700.5024 140.027344 
L 700.5024 181.591344 
Q 700.5024 189.904144 718.7472 189.904144 
z
" clip-path="url(#pae712f0931)" style="fill: #fef3c7; stroke: #f59e0b; stroke-width: 1.6; stroke-linejoin: miter"/>
   </g>
   <g id="patch_6">
    <path d="M 200.769823 160.809344 
Q 230.699898 160.809344 258.84112 160.809344 
" clip-path="url(#pae712f0931)" style="fill: none; stroke: #475569; stroke-width: 1.6; stroke-linecap: round"/>
    <path d="M 252.84112 157.809344 
L 258.84112 160.809344 
L 252.84112 163.809344 
" clip-path="url(#pae712f0931)" style="fill: none; stroke: #475569; stroke-width: 1.6; stroke-linecap: round"/>
   </g>
   <g id="patch_7">
    <path d="M 428.829823 160.809344 
Q 458.759898 160.809344 486.90112 160.809344 
" clip-path="url(#pae712f0931)" style="fill: none; stroke: #475569; stroke-width: 1.6; stroke-linecap: round"/>
    <path d="M 480.90112 157.809344 
L 486.90112 160.809344 
L 480.90112 163.809344 
" clip-path="url(#pae712f0931)" style="fill: none; stroke: #475569; stroke-width: 1.6; stroke-linecap: round"/>
   </g>
   <g id="patch_8">
    <path d="M 656.889823 160.809344 
Q 686.819898 160.809344 714.96112 160.809344 
" clip-path="url(#pae712f0931)" style="fill: none; stroke: #475569; stroke-width: 1.6; stroke-linecap: round"/>
    <path d="M 708.96112 157.809344 
L 714.96112 160.809344 
L 708.96112 163.809344 
" clip-path="url(#pae712f0931)" style="fill: none; stroke: #475569; stroke-width: 1.6; stroke-linecap: round"/>
   </g>
   <g id="patch_9">
    <path d="M 153.1584 368.629344 
L 773.4816 368.629344 
Q 791.7264 368.629344 791.7264 360.316544 
L 791.7264 268.875744 
Q 791.7264 260.562944 773.4816 260.562944 
L 153.1584 260.562944 
Q 134.9136 260.562944 134.9136 268.875744 
L 134.9136 360.316544 
Q 134.9136 368.629344 153.1584 368.629344 
z
" clip-path="url(#pae712f0931)" style="fill: #f8fafc; stroke: #94a3b8; stroke-width: 1.6; stroke-linejoin: miter"/>
   </g>
   <g id="patch_10">
    <path d="M 461.370828 268.431697 
Q 289.99418 229.389894 120.361699 190.745434 
" clip-path="url(#pae712f0931)" style="fill: none; stroke: #475569; stroke-width: 1.6; stroke-linecap: round"/>
    <path d="M 125.545447 195.003221 
L 120.361699 190.745434 
L 126.878178 189.153108 
" clip-path="url(#pae712f0931)" style="fill: none; stroke: #475569; stroke-width: 1.6; stroke-linecap: round"/>
   </g>
   <g id="patch_11">
    <path d="M 461.658826 267.769544 
Q 404.027039 229.391701 347.884186 192.005361 
" clip-path="url(#pae712f0931)" style="fill: none; stroke: #475569; stroke-width: 1.6; stroke-linecap: round"/>
    <path d="M 351.215421 197.827979 
L 347.884186 192.005361 
L 354.541021 192.833944 
" clip-path="url(#pae712f0931)" style="fill: none; stroke: #475569; stroke-width: 1.6; stroke-linecap: round"/>
   </g>
   <g id="patch_12">
    <path d="M 464.94025 267.706883 
Q 518.053226 229.390791 569.715453 192.121279 
" clip-path="url(#pae712f0931)" style="fill: none; stroke: #475569; stroke-width: 1.6; stroke-linecap: round"/>
    <path d="M 563.094328 193.198638 
L 569.715453 192.121279 
L 566.604665 198.064595 
" clip-path="url(#pae712f0931)" style="fill: none; stroke: #475569; stroke-width: 1.6; stroke-linecap: round"/>
   </g>
   <g id="patch_13">
    <path d="M 465.269381 268.419647 
Q 632.084909 229.389825 797.158622 190.767535 
" clip-path="url(#pae712f0931)" style="fill: none; stroke: #475569; stroke-width: 1.6; stroke-linecap: round"/>
    <path d="M 790.632946 189.213328 
L 797.158622 190.767535 
L 791.999851 195.055551 
" clip-path="url(#pae712f0931)" style="fill: none; stroke: #475569; stroke-width: 1.6; stroke-linecap: round"/>
   </g>
   <g id="text_1">
    <!-- Data -->
    <g style="fill: #0f172a" transform="translate(102.050831 163.844656) scale(0.11 -0.11)">
     <defs>
      <path id="DejaVuSans-Bold-44" d="M 1791 3756 
L 1791 909 
L 2222 909 
Q 2959 909 3348 1275 
Q 3738 1641 3738 2338 
Q 3738 3031 3350 3393 
Q 2963 3756 2222 3756 
L 1791 3756 
z
M 588 4666 
L 1856 4666 
Q 2919 4666 3439 4514 
Q 3959 4363 4331 4000 
Q 4659 3684 4818 3271 
Q 4978 2859 4978 2338 
Q 4978 1809 4818 1395 
Q 4659 981 4331 666 
Q 3956 303 3431 151 
Q 2906 0 1856 0 
L 588 0 
L 588 4666 
z
" transform="scale(0.015625)"/>
      <path id="DejaVuSans-Bold-61" d="M 2106 1575 
Q 1756 1575 1579 1456 
Q 1403 1338 1403 1106 
Q 1403 894 1545 773 
Q 1688 653 1941 653 
Q 2256 653 2472 879 
Q 2688 1106 2688 1447 
L 2688 1575 
L 2106 1575 
z
M 3816 1997 
L 3816 0 
L 2688 0 
L 2688 519 
Q 2463 200 2181 54 
Q 1900 -91 1497 -91 
Q 953 -91 614 226 
Q 275 544 275 1050 
Q 275 1666 698 1953 
Q 1122 2241 2028 2241 
L 2688 2241 
L 2688 2328 
Q 2688 2594 2478 2717 
Q 2269 2841 1825 2841 
Q 1466 2841 1156 2769 
Q 847 2697 581 2553 
L 581 3406 
Q 941 3494 1303 3539 
Q 1666 3584 2028 3584 
Q 2975 3584 3395 3211 
Q 3816 2838 3816 1997 
z
" transform="scale(0.015625)"/>
      <path id="DejaVuSans-Bold-74" d="M 1759 4494 
L 1759 3500 
L 2913 3500 
L 2913 2700 
L 1759 2700 
L 1759 1216 
Q 1759 972 1856 886 
Q 1953 800 2241 800 
L 2816 800 
L 2816 0 
L 1856 0 
Q 1194 0 917 276 
Q 641 553 641 1216 
L 641 2700 
L 84 2700 
L 84 3500 
L 641 3500 
L 641 4494 
L 1759 4494 
z
" transform="scale(0.015625)"/>
     </defs>
     <use xlink:href="#DejaVuSans-Bold-44"/>
     <use xlink:href="#DejaVuSans-Bold-61" x="83.007812"/>
     <use xlink:href="#DejaVuSans-Bold-74" x="150.488281"/>
     <use xlink:href="#DejaVuSans-Bold-61" x="198.291016"/>
    </g>
   </g>
   <g id="text_2">
    <!-- Model -->
    <g style="fill: #0f172a" transform="translate(325.923956 163.844656) scale(0.11 -0.11)">
     <defs>
      <path id="DejaVuSans-Bold-4d" d="M 588 4666 
L 2119 4666 
L 3181 2169 
L 4250 4666 
L 5778 4666 
L 5778 0 
L 4641 0 
L 4641 3413 
L 3566 897 
L 2803 897 
L 1728 3413 
L 1728 0 
L 588 0 
L 588 4666 
z
" transform="scale(0.015625)"/>
      <path id="DejaVuSans-Bold-6f" d="M 2203 2784 
Q 1831 2784 1636 2517 
Q 1441 2250 1441 1747 
Q 1441 1244 1636 976 
Q 1831 709 2203 709 
Q 2569 709 2762 976 
Q 2956 1244 2956 1747 
Q 2956 2250 2762 2517 
Q 2569 2784 2203 2784 
z
M 2203 3584 
Q 3106 3584 3614 3096 
Q 4122 2609 4122 1747 
Q 4122 884 3614 396 
Q 3106 -91 2203 -91 
Q 1297 -91 786 396 
Q 275 884 275 1747 
Q 275 2609 786 3096 
Q 1297 3584 2203 3584 
z
" transform="scale(0.015625)"/>
      <path id="DejaVuSans-Bold-64" d="M 2919 2988 
L 2919 4863 
L 4044 4863 
L 4044 0 
L 2919 0 
L 2919 506 
Q 2688 197 2409 53 
Q 2131 -91 1766 -91 
Q 1119 -91 703 423 
Q 288 938 288 1747 
Q 288 2556 703 3070 
Q 1119 3584 1766 3584 
Q 2128 3584 2408 3439 
Q 2688 3294 2919 2988 
z
M 2181 722 
Q 2541 722 2730 984 
Q 2919 1247 2919 1747 
Q 2919 2247 2730 2509 
Q 2541 2772 2181 2772 
Q 1825 2772 1636 2509 
Q 1447 2247 1447 1747 
Q 1447 1247 1636 984 
Q 1825 722 2181 722 
z
" transform="scale(0.015625)"/>
      <path id="DejaVuSans-Bold-65" d="M 4031 1759 
L 4031 1441 
L 1416 1441 
Q 1456 1047 1700 850 
Q 1944 653 2381 653 
Q 2734 653 3104 758 
Q 3475 863 3866 1075 
L 3866 213 
Q 3469 63 3072 -14 
Q 2675 -91 2278 -91 
Q 1328 -91 801 392 
Q 275 875 275 1747 
Q 275 2603 792 3093 
Q 1309 3584 2216 3584 
Q 3041 3584 3536 3087 
Q 4031 2591 4031 1759 
z
M 2881 2131 
Q 2881 2450 2695 2645 
Q 2509 2841 2209 2841 
Q 1884 2841 1681 2658 
Q 1478 2475 1428 2131 
L 2881 2131 
z
" transform="scale(0.015625)"/>
      <path id="DejaVuSans-Bold-6c" d="M 538 4863 
L 1656 4863 
L 1656 0 
L 538 0 
L 538 4863 
z
" transform="scale(0.015625)"/>
     </defs>
     <use xlink:href="#DejaVuSans-Bold-4d"/>
     <use xlink:href="#DejaVuSans-Bold-6f" x="99.511719"/>
     <use xlink:href="#DejaVuSans-Bold-64" x="168.212891"/>
     <use xlink:href="#DejaVuSans-Bold-65" x="239.794922"/>
     <use xlink:href="#DejaVuSans-Bold-6c" x="307.617188"/>
    </g>
   </g>
   <g id="text_3">
    <!-- Deployment -->
    <g style="fill: #0f172a" transform="translate(535.300284 163.801687) scale(0.11 -0.11)">
     <defs>
      <path id="DejaVuSans-Bold-70" d="M 1656 506 
L 1656 -1331 
L 538 -1331 
L 538 3500 
L 1656 3500 
L 1656 2988 
Q 1888 3294 2169 3439 
Q 2450 3584 2816 3584 
Q 3463 3584 3878 3070 
Q 4294 2556 4294 1747 
Q 4294 938 3878 423 
Q 3463 -91 2816 -91 
Q 2450 -91 2169 54 
Q 1888 200 1656 506 
z
M 2400 2772 
Q 2041 2772 1848 2508 
Q 1656 2244 1656 1747 
Q 1656 1250 1848 986 
Q 2041 722 2400 722 
Q 2759 722 2948 984 
Q 3138 1247 3138 1747 
Q 3138 2247 2948 2509 
Q 2759 2772 2400 2772 
z
" transform="scale(0.015625)"/>
      <path id="DejaVuSans-Bold-79" d="M 78 3500 
L 1197 3500 
L 2138 1125 
L 2938 3500 
L 4056 3500 
L 2584 -331 
Q 2363 -916 2067 -1148 
Q 1772 -1381 1288 -1381 
L 641 -1381 
L 641 -647 
L 991 -647 
Q 1275 -647 1404 -556 
Q 1534 -466 1606 -231 
L 1638 -134 
L 78 3500 
z
" transform="scale(0.015625)"/>
      <path id="DejaVuSans-Bold-6d" d="M 3781 2919 
Q 3994 3244 4286 3414 
Q 4578 3584 4928 3584 
Q 5531 3584 5847 3212 
Q 6163 2841 6163 2131 
L 6163 0 
L 5038 0 
L 5038 1825 
Q 5041 1866 5042 1909 
Q 5044 1953 5044 2034 
Q 5044 2406 4934 2573 
Q 4825 2741 4581 2741 
Q 4263 2741 4089 2478 
Q 3916 2216 3909 1719 
L 3909 0 
L 2784 0 
L 2784 1825 
Q 2784 2406 2684 2573 
Q 2584 2741 2328 2741 
Q 2006 2741 1831 2477 
Q 1656 2213 1656 1722 
L 1656 0 
L 531 0 
L 531 3500 
L 1656 3500 
L 1656 2988 
Q 1863 3284 2130 3434 
Q 2397 3584 2719 3584 
Q 3081 3584 3359 3409 
Q 3638 3234 3781 2919 
z
" transform="scale(0.015625)"/>
      <path id="DejaVuSans-Bold-6e" d="M 4056 2131 
L 4056 0 
L 2931 0 
L 2931 347 
L 2931 1631 
Q 2931 2084 2911 2256 
Q 2891 2428 2841 2509 
Q 2775 2619 2662 2680 
Q 2550 2741 2406 2741 
Q 2056 2741 1856 2470 
Q 1656 2200 1656 1722 
L 1656 0 
L 538 0 
L 538 3500 
L 1656 3500 
L 1656 2988 
Q 1909 3294 2193 3439 
Q 2478 3584 2822 3584 
Q 3428 3584 3742 3212 
Q 4056 2841 4056 2131 
z
" transform="scale(0.015625)"/>
     </defs>
     <use xlink:href="#DejaVuSans-Bold-44"/>
     <use xlink:href="#DejaVuSans-Bold-65" x="83.007812"/>
     <use xlink:href="#DejaVuSans-Bold-70" x="150.830078"/>
     <use xlink:href="#DejaVuSans-Bold-6c" x="222.412109"/>
     <use xlink:href="#DejaVuSans-Bold-6f" x="256.689453"/>
     <use xlink:href="#DejaVuSans-Bold-79" x="325.390625"/>
     <use xlink:href="#DejaVuSans-Bold-6d" x="390.576172"/>
     <use xlink:href="#DejaVuSans-Bold-65" x="494.775391"/>
     <use xlink:href="#DejaVuSans-Bold-6e" x="562.597656"/>
     <use xlink:href="#DejaVuSans-Bold-74" x="633.789062"/>
    </g>
   </g>
   <g id="text_4">
    <!-- Impact -->
    <g style="fill: #0f172a" transform="translate(779.533722 163.844656) scale(0.11 -0.11)">
     <defs>
      <path id="DejaVuSans-Bold-49" d="M 588 4666 
L 1791 4666 
L 1791 0 
L 588 0 
L 588 4666 
z
" transform="scale(0.015625)"/>
      <path id="DejaVuSans-Bold-63" d="M 3366 3391 
L 3366 2478 
Q 3138 2634 2908 2709 
Q 2678 2784 2431 2784 
Q 1963 2784 1702 2511 
Q 1441 2238 1441 1747 
Q 1441 1256 1702 982 
Q 1963 709 2431 709 
Q 2694 709 2930 787 
Q 3166 866 3366 1019 
L 3366 103 
Q 3103 6 2833 -42 
Q 2563 -91 2291 -91 
Q 1344 -91 809 395 
Q 275 881 275 1747 
Q 275 2613 809 3098 
Q 1344 3584 2291 3584 
Q 2566 3584 2833 3536 
Q 3100 3488 3366 3391 
z
" transform="scale(0.015625)"/>
     </defs>
     <use xlink:href="#DejaVuSans-Bold-49"/>
     <use xlink:href="#DejaVuSans-Bold-6d" x="37.207031"/>
     <use xlink:href="#DejaVuSans-Bold-70" x="141.40625"/>
     <use xlink:href="#DejaVuSans-Bold-61" x="212.988281"/>
     <use xlink:href="#DejaVuSans-Bold-63" x="280.46875"/>
     <use xlink:href="#DejaVuSans-Bold-74" x="339.746094"/>
    </g>
   </g>
   <g id="text_5">
    <!-- Cross-cutting concerns -->
    <g style="fill: #0f172a" transform="translate(171.4032 294.619469) scale(0.12 -0.12)">
     <defs>
      <path id="DejaVuSans-Bold-43" d="M 4288 256 
Q 3956 84 3597 -3 
Q 3238 -91 2847 -91 
Q 1681 -91 1000 561 
Q 319 1213 319 2328 
Q 319 3447 1000 4098 
Q 1681 4750 2847 4750 
Q 3238 4750 3597 4662 
Q 3956 4575 4288 4403 
L 4288 3438 
Q 3953 3666 3628 3772 
Q 3303 3878 2944 3878 
Q 2300 3878 1931 3465 
Q 1563 3053 1563 2328 
Q 1563 1606 1931 1193 
Q 2300 781 2944 781 
Q 3303 781 3628 887 
Q 3953 994 4288 1222 
L 4288 256 
z
" transform="scale(0.015625)"/>
      <path id="DejaVuSans-Bold-72" d="M 3138 2547 
Q 2991 2616 2845 2648 
Q 2700 2681 2553 2681 
Q 2122 2681 1889 2404 
Q 1656 2128 1656 1613 
L 1656 0 
L 538 0 
L 538 3500 
L 1656 3500 
L 1656 2925 
Q 1872 3269 2151 3426 
Q 2431 3584 2822 3584 
Q 2878 3584 2943 3579 
Q 3009 3575 3134 3559 
L 3138 2547 
z
" transform="scale(0.015625)"/>
      <path id="DejaVuSans-Bold-73" d="M 3272 3391 
L 3272 2541 
Q 2913 2691 2578 2766 
Q 2244 2841 1947 2841 
Q 1628 2841 1473 2761 
Q 1319 2681 1319 2516 
Q 1319 2381 1436 2309 
Q 1553 2238 1856 2203 
L 2053 2175 
Q 2913 2066 3209 1816 
Q 3506 1566 3506 1031 
Q 3506 472 3093 190 
Q 2681 -91 1863 -91 
Q 1516 -91 1145 -36 
Q 775 19 384 128 
L 384 978 
Q 719 816 1070 734 
Q 1422 653 1784 653 
Q 2113 653 2278 743 
Q 2444 834 2444 1013 
Q 2444 1163 2330 1236 
Q 2216 1309 1875 1350 
L 1678 1375 
Q 931 1469 631 1722 
Q 331 1975 331 2491 
Q 331 3047 712 3315 
Q 1094 3584 1881 3584 
Q 2191 3584 2531 3537 
Q 2872 3491 3272 3391 
z
" transform="scale(0.015625)"/>
      <path id="DejaVuSans-Bold-2d" d="M 347 2297 
L 2309 2297 
L 2309 1388 
L 347 1388 
L 347 2297 
z
" transform="scale(0.015625)"/>
      <path id="DejaVuSans-Bold-75" d="M 500 1363 
L 500 3500 
L 1625 3500 
L 1625 3150 
Q 1625 2866 1622 2436 
Q 1619 2006 1619 1863 
Q 1619 1441 1641 1255 
Q 1663 1069 1716 984 
Q 1784 875 1895 815 
Q 2006 756 2150 756 
Q 2500 756 2700 1025 
Q 2900 1294 2900 1772 
L 2900 3500 
L 4019 3500 
L 4019 0 
L 2900 0 
L 2900 506 
Q 2647 200 2364 54 
Q 2081 -91 1741 -91 
Q 1134 -91 817 281 
Q 500 653 500 1363 
z
" transform="scale(0.015625)"/>
      <path id="DejaVuSans-Bold-69" d="M 538 3500 
L 1656 3500 
L 1656 0 
L 538 0 
L 538 3500 
z
M 538 4863 
L 1656 4863 
L 1656 3950 
L 538 3950 
L 538 4863 
z
" transform="scale(0.015625)"/>
      <path id="DejaVuSans-Bold-67" d="M 2919 594 
Q 2688 288 2409 144 
Q 2131 0 1766 0 
Q 1125 0 706 504 
Q 288 1009 288 1791 
Q 288 2575 706 3076 
Q 1125 3578 1766 3578 
Q 2131 3578 2409 3434 
Q 2688 3291 2919 2981 
L 2919 3500 
L 4044 3500 
L 4044 353 
Q 4044 -491 3511 -936 
Q 2978 -1381 1966 -1381 
Q 1638 -1381 1331 -1331 
Q 1025 -1281 716 -1178 
L 716 -306 
Q 1009 -475 1290 -558 
Q 1572 -641 1856 -641 
Q 2406 -641 2662 -400 
Q 2919 -159 2919 353 
L 2919 594 
z
M 2181 2772 
Q 1834 2772 1640 2515 
Q 1447 2259 1447 1791 
Q 1447 1309 1634 1061 
Q 1822 813 2181 813 
Q 2531 813 2725 1069 
Q 2919 1325 2919 1791 
Q 2919 2259 2725 2515 
Q 2531 2772 2181 2772 
z
" transform="scale(0.015625)"/>
      <path id="DejaVuSans-Bold-20" transform="scale(0.015625)"/>
     </defs>
     <use xlink:href="#DejaVuSans-Bold-43"/>
     <use xlink:href="#DejaVuSans-Bold-72" x="73.388672"/>
     <use xlink:href="#DejaVuSans-Bold-6f" x="122.705078"/>
     <use xlink:href="#DejaVuSans-Bold-73" x="191.40625"/>
     <use xlink:href="#DejaVuSans-Bold-73" x="250.927734"/>
     <use xlink:href="#DejaVuSans-Bold-2d" x="310.449219"/>
     <use xlink:href="#DejaVuSans-Bold-63" x="351.953125"/>
     <use xlink:href="#DejaVuSans-Bold-75" x="411.230469"/>
     <use xlink:href="#DejaVuSans-Bold-74" x="482.421875"/>
     <use xlink:href="#DejaVuSans-Bold-74" x="530.224609"/>
     <use xlink:href="#DejaVuSans-Bold-69" x="578.027344"/>
     <use xlink:href="#DejaVuSans-Bold-6e" x="612.304688"/>
     <use xlink:href="#DejaVuSans-Bold-67" x="683.496094"/>
     <use xlink:href="#DejaVuSans-Bold-20" x="755.078125"/>
     <use xlink:href="#DejaVuSans-Bold-63" x="789.892578"/>
     <use xlink:href="#DejaVuSans-Bold-6f" x="849.169922"/>
     <use xlink:href="#DejaVuSans-Bold-6e" x="917.871094"/>
     <use xlink:href="#DejaVuSans-Bold-63" x="989.0625"/>
     <use xlink:href="#DejaVuSans-Bold-65" x="1048.339844"/>
     <use xlink:href="#DejaVuSans-Bold-72" x="1116.162109"/>
     <use xlink:href="#DejaVuSans-Bold-6e" x="1165.478516"/>
     <use xlink:href="#DejaVuSans-Bold-73" x="1236.669922"/>
    </g>
   </g>
   <g id="text_6">
    <!-- bias and fairness -->
    <g style="fill: #334155" transform="translate(171.4032 326.730903) scale(0.105 -0.105)">
     <defs>
      <path id="DejaVuSans-62" d="M 3116 1747 
Q 3116 2381 2855 2742 
Q 2594 3103 2138 3103 
Q 1681 3103 1420 2742 
Q 1159 2381 1159 1747 
Q 1159 1113 1420 752 
Q 1681 391 2138 391 
Q 2594 391 2855 752 
Q 3116 1113 3116 1747 
z
M 1159 2969 
Q 1341 3281 1617 3432 
Q 1894 3584 2278 3584 
Q 2916 3584 3314 3078 
Q 3713 2572 3713 1747 
Q 3713 922 3314 415 
Q 2916 -91 2278 -91 
Q 1894 -91 1617 61 
Q 1341 213 1159 525 
L 1159 0 
L 581 0 
L 581 4863 
L 1159 4863 
L 1159 2969 
z
" transform="scale(0.015625)"/>
      <path id="DejaVuSans-69" d="M 603 3500 
L 1178 3500 
L 1178 0 
L 603 0 
L 603 3500 
z
M 603 4863 
L 1178 4863 
L 1178 4134 
L 603 4134 
L 603 4863 
z
" transform="scale(0.015625)"/>
      <path id="DejaVuSans-61" d="M 2194 1759 
Q 1497 1759 1228 1600 
Q 959 1441 959 1056 
Q 959 750 1161 570 
Q 1363 391 1709 391 
Q 2188 391 2477 730 
Q 2766 1069 2766 1631 
L 2766 1759 
L 2194 1759 
z
M 3341 1997 
L 3341 0 
L 2766 0 
L 2766 531 
Q 2569 213 2275 61 
Q 1981 -91 1556 -91 
Q 1019 -91 701 211 
Q 384 513 384 1019 
Q 384 1609 779 1909 
Q 1175 2209 1959 2209 
L 2766 2209 
L 2766 2266 
Q 2766 2663 2505 2880 
Q 2244 3097 1772 3097 
Q 1472 3097 1187 3025 
Q 903 2953 641 2809 
L 641 3341 
Q 956 3463 1253 3523 
Q 1550 3584 1831 3584 
Q 2591 3584 2966 3190 
Q 3341 2797 3341 1997 
z
" transform="scale(0.015625)"/>
      <path id="DejaVuSans-73" d="M 2834 3397 
L 2834 2853 
Q 2591 2978 2328 3040 
Q 2066 3103 1784 3103 
Q 1356 3103 1142 2972 
Q 928 2841 928 2578 
Q 928 2378 1081 2264 
Q 1234 2150 1697 2047 
L 1894 2003 
Q 2506 1872 2764 1633 
Q 3022 1394 3022 966 
Q 3022 478 2636 193 
Q 2250 -91 1575 -91 
Q 1294 -91 989 -36 
Q 684 19 347 128 
L 347 722 
Q 666 556 975 473 
Q 1284 391 1588 391 
Q 1994 391 2212 530 
Q 2431 669 2431 922 
Q 2431 1156 2273 1281 
Q 2116 1406 1581 1522 
L 1381 1569 
Q 847 1681 609 1914 
Q 372 2147 372 2553 
Q 372 3047 722 3315 
Q 1072 3584 1716 3584 
Q 2034 3584 2315 3537 
Q 2597 3491 2834 3397 
z
" transform="scale(0.015625)"/>
      <path id="DejaVuSans-20" transform="scale(0.015625)"/>
      <path id="DejaVuSans-6e" d="M 3513 2113 
L 3513 0 
L 2938 0 
L 2938 2094 
Q 2938 2591 2744 2837 
Q 2550 3084 2163 3084 
Q 1697 3084 1428 2787 
Q 1159 2491 1159 1978 
L 1159 0 
L 581 0 
L 581 3500 
L 1159 3500 
L 1159 2956 
Q 1366 3272 1645 3428 
Q 1925 3584 2291 3584 
Q 2894 3584 3203 3211 
Q 3513 2838 3513 2113 
z
" transform="scale(0.015625)"/>
      <path id="DejaVuSans-64" d="M 2906 2969 
L 2906 4863 
L 3481 4863 
L 3481 0 
L 2906 0 
L 2906 525 
Q 2725 213 2448 61 
Q 2172 -91 1784 -91 
Q 1150 -91 751 415 
Q 353 922 353 1747 
Q 353 2572 751 3078 
Q 1150 3584 1784 3584 
Q 2172 3584 2448 3432 
Q 2725 3281 2906 2969 
z
M 947 1747 
Q 947 1113 1208 752 
Q 1469 391 1925 391 
Q 2381 391 2643 752 
Q 2906 1113 2906 1747 
Q 2906 2381 2643 2742 
Q 2381 3103 1925 3103 
Q 1469 3103 1208 2742 
Q 947 2381 947 1747 
z
" transform="scale(0.015625)"/>
      <path id="DejaVuSans-66" d="M 2375 4863 
L 2375 4384 
L 1825 4384 
Q 1516 4384 1395 4259 
Q 1275 4134 1275 3809 
L 1275 3500 
L 2222 3500 
L 2222 3053 
L 1275 3053 
L 1275 0 
L 697 0 
L 697 3053 
L 147 3053 
L 147 3500 
L 697 3500 
L 697 3744 
Q 697 4328 969 4595 
Q 1241 4863 1831 4863 
L 2375 4863 
z
" transform="scale(0.015625)"/>
      <path id="DejaVuSans-72" d="M 2631 2963 
Q 2534 3019 2420 3045 
Q 2306 3072 2169 3072 
Q 1681 3072 1420 2755 
Q 1159 2438 1159 1844 
L 1159 0 
L 581 0 
L 581 3500 
L 1159 3500 
L 1159 2956 
Q 1341 3275 1631 3429 
Q 1922 3584 2338 3584 
Q 2397 3584 2469 3576 
Q 2541 3569 2628 3553 
L 2631 2963 
z
" transform="scale(0.015625)"/>
      <path id="DejaVuSans-65" d="M 3597 1894 
L 3597 1613 
L 953 1613 
Q 991 1019 1311 708 
Q 1631 397 2203 397 
Q 2534 397 2845 478 
Q 3156 559 3463 722 
L 3463 178 
Q 3153 47 2828 -22 
Q 2503 -91 2169 -91 
Q 1331 -91 842 396 
Q 353 884 353 1716 
Q 353 2575 817 3079 
Q 1281 3584 2069 3584 
Q 2775 3584 3186 3129 
Q 3597 2675 3597 1894 
z
M 3022 2063 
Q 3016 2534 2758 2815 
Q 2500 3097 2075 3097 
Q 1594 3097 1305 2825 
Q 1016 2553 972 2059 
L 3022 2063 
z
" transform="scale(0.015625)"/>
     </defs>
     <use xlink:href="#DejaVuSans-62"/>
     <use xlink:href="#DejaVuSans-69" x="63.476562"/>
     <use xlink:href="#DejaVuSans-61" x="91.259766"/>
     <use xlink:href="#DejaVuSans-73" x="152.539062"/>
     <use xlink:href="#DejaVuSans-20" x="204.638672"/>
     <use xlink:href="#DejaVuSans-61" x="236.425781"/>
     <use xlink:href="#DejaVuSans-6e" x="297.705078"/>
     <use xlink:href="#DejaVuSans-64" x="361.083984"/>
     <use xlink:href="#DejaVuSans-20" x="424.560547"/>
     <use xlink:href="#DejaVuSans-66" x="456.347656"/>
     <use xlink:href="#DejaVuSans-61" x="491.552734"/>
     <use xlink:href="#DejaVuSans-69" x="552.832031"/>
     <use xlink:href="#DejaVuSans-72" x="580.615234"/>
     <use xlink:href="#DejaVuSans-6e" x="619.978516"/>
     <use xlink:href="#DejaVuSans-65" x="683.357422"/>
     <use xlink:href="#DejaVuSans-73" x="744.880859"/>
     <use xlink:href="#DejaVuSans-73" x="796.980469"/>
    </g>
    <!-- explainability -->
    <g style="fill: #334155" transform="translate(171.4032 338.488606) scale(0.105 -0.105)">
     <defs>
      <path id="DejaVuSans-78" d="M 3513 3500 
L 2247 1797 
L 3578 0 
L 2900 0 
L 1881 1375 
L 863 0 
L 184 0 
L 1544 1831 
L 300 3500 
L 978 3500 
L 1906 2253 
L 2834 3500 
L 3513 3500 
z
" transform="scale(0.015625)"/>
      <path id="DejaVuSans-70" d="M 1159 525 
L 1159 -1331 
L 581 -1331 
L 581 3500 
L 1159 3500 
L 1159 2969 
Q 1341 3281 1617 3432 
Q 1894 3584 2278 3584 
Q 2916 3584 3314 3078 
Q 3713 2572 3713 1747 
Q 3713 922 3314 415 
Q 2916 -91 2278 -91 
Q 1894 -91 1617 61 
Q 1341 213 1159 525 
z
M 3116 1747 
Q 3116 2381 2855 2742 
Q 2594 3103 2138 3103 
Q 1681 3103 1420 2742 
Q 1159 2381 1159 1747 
Q 1159 1113 1420 752 
Q 1681 391 2138 391 
Q 2594 391 2855 752 
Q 3116 1113 3116 1747 
z
" transform="scale(0.015625)"/>
      <path id="DejaVuSans-6c" d="M 603 4863 
L 1178 4863 
L 1178 0 
L 603 0 
L 603 4863 
z
" transform="scale(0.015625)"/>
      <path id="DejaVuSans-74" d="M 1172 4494 
L 1172 3500 
L 2356 3500 
L 2356 3053 
L 1172 3053 
L 1172 1153 
Q 1172 725 1289 603 
Q 1406 481 1766 481 
L 2356 481 
L 2356 0 
L 1766 0 
Q 1100 0 847 248 
Q 594 497 594 1153 
L 594 3053 
L 172 3053 
L 172 3500 
L 594 3500 
L 594 4494 
L 1172 4494 
z
" transform="scale(0.015625)"/>
      <path id="DejaVuSans-79" d="M 2059 -325 
Q 1816 -950 1584 -1140 
Q 1353 -1331 966 -1331 
L 506 -1331 
L 506 -850 
L 844 -850 
Q 1081 -850 1212 -737 
Q 1344 -625 1503 -206 
L 1606 56 
L 191 3500 
L 800 3500 
L 1894 763 
L 2988 3500 
L 3597 3500 
L 2059 -325 
z
" transform="scale(0.015625)"/>
     </defs>
     <use xlink:href="#DejaVuSans-65"/>
     <use xlink:href="#DejaVuSans-78" x="59.773438"/>
     <use xlink:href="#DejaVuSans-70" x="118.953125"/>
     <use xlink:href="#DejaVuSans-6c" x="182.429688"/>
     <use xlink:href="#DejaVuSans-61" x="210.212891"/>
     <use xlink:href="#DejaVuSans-69" x="271.492188"/>
     <use xlink:href="#DejaVuSans-6e" x="299.275391"/>
     <use xlink:href="#DejaVuSans-61" x="362.654297"/>
     <use xlink:href="#DejaVuSans-62" x="423.933594"/>
     <use xlink:href="#DejaVuSans-69" x="487.410156"/>
     <use xlink:href="#DejaVuSans-6c" x="515.193359"/>
     <use xlink:href="#DejaVuSans-69" x="542.976562"/>
     <use xlink:href="#DejaVuSans-74" x="570.759766"/>
     <use xlink:href="#DejaVuSans-79" x="609.96875"/>
    </g>
    <!-- security and robustness -->
    <g style="fill: #334155" transform="translate(171.4032 350.246309) scale(0.105 -0.105)">
     <defs>
      <path id="DejaVuSans-63" d="M 3122 3366 
L 3122 2828 
Q 2878 2963 2633 3030 
Q 2388 3097 2138 3097 
Q 1578 3097 1268 2742 
Q 959 2388 959 1747 
Q 959 1106 1268 751 
Q 1578 397 2138 397 
Q 2388 397 2633 464 
Q 2878 531 3122 666 
L 3122 134 
Q 2881 22 2623 -34 
Q 2366 -91 2075 -91 
Q 1284 -91 818 406 
Q 353 903 353 1747 
Q 353 2603 823 3093 
Q 1294 3584 2113 3584 
Q 2378 3584 2631 3529 
Q 2884 3475 3122 3366 
z
" transform="scale(0.015625)"/>
      <path id="DejaVuSans-75" d="M 544 1381 
L 544 3500 
L 1119 3500 
L 1119 1403 
Q 1119 906 1312 657 
Q 1506 409 1894 409 
Q 2359 409 2629 706 
Q 2900 1003 2900 1516 
L 2900 3500 
L 3475 3500 
L 3475 0 
L 2900 0 
L 2900 538 
Q 2691 219 2414 64 
Q 2138 -91 1772 -91 
Q 1169 -91 856 284 
Q 544 659 544 1381 
z
M 1991 3584 
L 1991 3584 
z
" transform="scale(0.015625)"/>
      <path id="DejaVuSans-6f" d="M 1959 3097 
Q 1497 3097 1228 2736 
Q 959 2375 959 1747 
Q 959 1119 1226 758 
Q 1494 397 1959 397 
Q 2419 397 2687 759 
Q 2956 1122 2956 1747 
Q 2956 2369 2687 2733 
Q 2419 3097 1959 3097 
z
M 1959 3584 
Q 2709 3584 3137 3096 
Q 3566 2609 3566 1747 
Q 3566 888 3137 398 
Q 2709 -91 1959 -91 
Q 1206 -91 779 398 
Q 353 888 353 1747 
Q 353 2609 779 3096 
Q 1206 3584 1959 3584 
z
" transform="scale(0.015625)"/>
     </defs>
     <use xlink:href="#DejaVuSans-73"/>
     <use xlink:href="#DejaVuSans-65" x="52.099609"/>
     <use xlink:href="#DejaVuSans-63" x="113.623047"/>
     <use xlink:href="#DejaVuSans-75" x="168.603516"/>
     <use xlink:href="#DejaVuSans-72" x="231.982422"/>
     <use xlink:href="#DejaVuSans-69" x="273.095703"/>
     <use xlink:href="#DejaVuSans-74" x="300.878906"/>
     <use xlink:href="#DejaVuSans-79" x="340.087891"/>
     <use xlink:href="#DejaVuSans-20" x="399.267578"/>
     <use xlink:href="#DejaVuSans-61" x="431.054688"/>
     <use xlink:href="#DejaVuSans-6e" x="492.333984"/>
     <use xlink:href="#DejaVuSans-64" x="555.712891"/>
     <use xlink:href="#DejaVuSans-20" x="619.189453"/>
     <use xlink:href="#DejaVuSans-72" x="650.976562"/>
     <use xlink:href="#DejaVuSans-6f" x="689.839844"/>
     <use xlink:href="#DejaVuSans-62" x="751.021484"/>
     <use xlink:href="#DejaVuSans-75" x="814.498047"/>
     <use xlink:href="#DejaVuSans-73" x="877.876953"/>
     <use xlink:href="#DejaVuSans-74" x="929.976562"/>
     <use xlink:href="#DejaVuSans-6e" x="969.185547"/>
     <use xlink:href="#DejaVuSans-65" x="1032.564453"/>
     <use xlink:href="#DejaVuSans-73" x="1094.087891"/>
     <use xlink:href="#DejaVuSans-73" x="1146.1875"/>
    </g>
    <!-- documentation and governance -->
    <g style="fill: #334155" transform="translate(171.4032 362.004012) scale(0.105 -0.105)">
     <defs>
      <path id="DejaVuSans-6d" d="M 3328 2828 
Q 3544 3216 3844 3400 
Q 4144 3584 4550 3584 
Q 5097 3584 5394 3201 
Q 5691 2819 5691 2113 
L 5691 0 
L 5113 0 
L 5113 2094 
Q 5113 2597 4934 2840 
Q 4756 3084 4391 3084 
Q 3944 3084 3684 2787 
Q 3425 2491 3425 1978 
L 3425 0 
L 2847 0 
L 2847 2094 
Q 2847 2600 2669 2842 
Q 2491 3084 2119 3084 
Q 1678 3084 1418 2786 
Q 1159 2488 1159 1978 
L 1159 0 
L 581 0 
L 581 3500 
L 1159 3500 
L 1159 2956 
Q 1356 3278 1631 3431 
Q 1906 3584 2284 3584 
Q 2666 3584 2933 3390 
Q 3200 3197 3328 2828 
z
" transform="scale(0.015625)"/>
      <path id="DejaVuSans-67" d="M 2906 1791 
Q 2906 2416 2648 2759 
Q 2391 3103 1925 3103 
Q 1463 3103 1205 2759 
Q 947 2416 947 1791 
Q 947 1169 1205 825 
Q 1463 481 1925 481 
Q 2391 481 2648 825 
Q 2906 1169 2906 1791 
z
M 3481 434 
Q 3481 -459 3084 -895 
Q 2688 -1331 1869 -1331 
Q 1566 -1331 1297 -1286 
Q 1028 -1241 775 -1147 
L 775 -588 
Q 1028 -725 1275 -790 
Q 1522 -856 1778 -856 
Q 2344 -856 2625 -561 
Q 2906 -266 2906 331 
L 2906 616 
Q 2728 306 2450 153 
Q 2172 0 1784 0 
Q 1141 0 747 490 
Q 353 981 353 1791 
Q 353 2603 747 3093 
Q 1141 3584 1784 3584 
Q 2172 3584 2450 3431 
Q 2728 3278 2906 2969 
L 2906 3500 
L 3481 3500 
L 3481 434 
z
" transform="scale(0.015625)"/>
      <path id="DejaVuSans-76" d="M 191 3500 
L 800 3500 
L 1894 563 
L 2988 3500 
L 3597 3500 
L 2284 0 
L 1503 0 
L 191 3500 
z
" transform="scale(0.015625)"/>
     </defs>
     <use xlink:href="#DejaVuSans-64"/>
     <use xlink:href="#DejaVuSans-6f" x="63.476562"/>
     <use xlink:href="#DejaVuSans-63" x="124.658203"/>
     <use xlink:href="#DejaVuSans-75" x="179.638672"/>
     <use xlink:href="#DejaVuSans-6d" x="243.017578"/>
     <use xlink:href="#DejaVuSans-65" x="340.429688"/>
     <use xlink:href="#DejaVuSans-6e" x="401.953125"/>
     <use xlink:href="#DejaVuSans-74" x="465.332031"/>
     <use xlink:href="#DejaVuSans-61" x="504.541016"/>
     <use xlink:href="#DejaVuSans-74" x="565.820312"/>
     <use xlink:href="#DejaVuSans-69" x="605.029297"/>
     <use xlink:href="#DejaVuSans-6f" x="632.8125"/>
     <use xlink:href="#DejaVuSans-6e" x="693.994141"/>
     <use xlink:href="#DejaVuSans-20" x="757.373047"/>
     <use xlink:href="#DejaVuSans-61" x="789.160156"/>
     <use xlink:href="#DejaVuSans-6e" x="850.439453"/>
     <use xlink:href="#DejaVuSans-64" x="913.818359"/>
     <use xlink:href="#DejaVuSans-20" x="977.294922"/>
     <use xlink:href="#DejaVuSans-67" x="1009.082031"/>
     <use xlink:href="#DejaVuSans-6f" x="1072.558594"/>
     <use xlink:href="#DejaVuSans-76" x="1133.740234"/>
     <use xlink:href="#DejaVuSans-65" x="1192.919922"/>
     <use xlink:href="#DejaVuSans-72" x="1254.443359"/>
     <use xlink:href="#DejaVuSans-6e" x="1293.806641"/>
     <use xlink:href="#DejaVuSans-61" x="1357.185547"/>
     <use xlink:href="#DejaVuSans-6e" x="1418.464844"/>
     <use xlink:href="#DejaVuSans-63" x="1481.84375"/>
     <use xlink:href="#DejaVuSans-65" x="1536.824219"/>
    </g>
   </g>
   <g id="text_7">
    <!-- Responsible AI is not a final checklist. It is a constraint on every stage of the lifecycle. -->
    <g style="fill: #334155" transform="translate(209.696516 410.193344) scale(0.118 -0.118)">
     <defs>
      <path id="DejaVuSans-52" d="M 2841 2188 
Q 3044 2119 3236 1894 
Q 3428 1669 3622 1275 
L 4263 0 
L 3584 0 
L 2988 1197 
Q 2756 1666 2539 1819 
Q 2322 1972 1947 1972 
L 1259 1972 
L 1259 0 
L 628 0 
L 628 4666 
L 2053 4666 
Q 2853 4666 3247 4331 
Q 3641 3997 3641 3322 
Q 3641 2881 3436 2590 
Q 3231 2300 2841 2188 
z
M 1259 4147 
L 1259 2491 
L 2053 2491 
Q 2509 2491 2742 2702 
Q 2975 2913 2975 3322 
Q 2975 3731 2742 3939 
Q 2509 4147 2053 4147 
L 1259 4147 
z
" transform="scale(0.015625)"/>
      <path id="DejaVuSans-41" d="M 2188 4044 
L 1331 1722 
L 3047 1722 
L 2188 4044 
z
M 1831 4666 
L 2547 4666 
L 4325 0 
L 3669 0 
L 3244 1197 
L 1141 1197 
L 716 0 
L 50 0 
L 1831 4666 
z
" transform="scale(0.015625)"/>
      <path id="DejaVuSans-49" d="M 628 4666 
L 1259 4666 
L 1259 0 
L 628 0 
L 628 4666 
z
" transform="scale(0.015625)"/>
      <path id="DejaVuSans-68" d="M 3513 2113 
L 3513 0 
L 2938 0 
L 2938 2094 
Q 2938 2591 2744 2837 
Q 2550 3084 2163 3084 
Q 1697 3084 1428 2787 
Q 1159 2491 1159 1978 
L 1159 0 
L 581 0 
L 581 4863 
L 1159 4863 
L 1159 2956 
Q 1366 3272 1645 3428 
Q 1925 3584 2291 3584 
Q 2894 3584 3203 3211 
Q 3513 2838 3513 2113 
z
" transform="scale(0.015625)"/>
      <path id="DejaVuSans-6b" d="M 581 4863 
L 1159 4863 
L 1159 1991 
L 2875 3500 
L 3609 3500 
L 1753 1863 
L 3688 0 
L 2938 0 
L 1159 1709 
L 1159 0 
L 581 0 
L 581 4863 
z
" transform="scale(0.015625)"/>
      <path id="DejaVuSans-2e" d="M 684 794 
L 1344 794 
L 1344 0 
L 684 0 
L 684 794 
z
" transform="scale(0.015625)"/>
     </defs>
     <use xlink:href="#DejaVuSans-52"/>
     <use xlink:href="#DejaVuSans-65" x="64.982422"/>
     <use xlink:href="#DejaVuSans-73" x="126.505859"/>
     <use xlink:href="#DejaVuSans-70" x="178.605469"/>
     <use xlink:href="#DejaVuSans-6f" x="242.082031"/>
     <use xlink:href="#DejaVuSans-6e" x="303.263672"/>
     <use xlink:href="#DejaVuSans-73" x="366.642578"/>
     <use xlink:href="#DejaVuSans-69" x="418.742188"/>
     <use xlink:href="#DejaVuSans-62" x="446.525391"/>
     <use xlink:href="#DejaVuSans-6c" x="510.001953"/>
     <use xlink:href="#DejaVuSans-65" x="537.785156"/>
     <use xlink:href="#DejaVuSans-20" x="599.308594"/>
     <use xlink:href="#DejaVuSans-41" x="631.095703"/>
     <use xlink:href="#DejaVuSans-49" x="699.503906"/>
     <use xlink:href="#DejaVuSans-20" x="728.996094"/>
     <use xlink:href="#DejaVuSans-69" x="760.783203"/>
     <use xlink:href="#DejaVuSans-73" x="788.566406"/>
     <use xlink:href="#DejaVuSans-20" x="840.666016"/>
     <use xlink:href="#DejaVuSans-6e" x="872.453125"/>
     <use xlink:href="#DejaVuSans-6f" x="935.832031"/>
     <use xlink:href="#DejaVuSans-74" x="997.013672"/>
     <use xlink:href="#DejaVuSans-20" x="1036.222656"/>
     <use xlink:href="#DejaVuSans-61" x="1068.009766"/>
     <use xlink:href="#DejaVuSans-20" x="1129.289062"/>
     <use xlink:href="#DejaVuSans-66" x="1161.076172"/>
     <use xlink:href="#DejaVuSans-69" x="1196.28125"/>
     <use xlink:href="#DejaVuSans-6e" x="1224.064453"/>
     <use xlink:href="#DejaVuSans-61" x="1287.443359"/>
     <use xlink:href="#DejaVuSans-6c" x="1348.722656"/>
     <use xlink:href="#DejaVuSans-20" x="1376.505859"/>
     <use xlink:href="#DejaVuSans-63" x="1408.292969"/>
     <use xlink:href="#DejaVuSans-68" x="1463.273438"/>
     <use xlink:href="#DejaVuSans-65" x="1526.652344"/>
     <use xlink:href="#DejaVuSans-63" x="1588.175781"/>
     <use xlink:href="#DejaVuSans-6b" x="1643.15625"/>
     <use xlink:href="#DejaVuSans-6c" x="1701.066406"/>
     <use xlink:href="#DejaVuSans-69" x="1728.849609"/>
     <use xlink:href="#DejaVuSans-73" x="1756.632812"/>
     <use xlink:href="#DejaVuSans-74" x="1808.732422"/>
     <use xlink:href="#DejaVuSans-2e" x="1847.941406"/>
     <use xlink:href="#DejaVuSans-20" x="1879.728516"/>
     <use xlink:href="#DejaVuSans-49" x="1911.515625"/>
     <use xlink:href="#DejaVuSans-74" x="1941.007812"/>
     <use xlink:href="#DejaVuSans-20" x="1980.216797"/>
     <use xlink:href="#DejaVuSans-69" x="2012.003906"/>
     <use xlink:href="#DejaVuSans-73" x="2039.787109"/>
     <use xlink:href="#DejaVuSans-20" x="2091.886719"/>
     <use xlink:href="#DejaVuSans-61" x="2123.673828"/>
     <use xlink:href="#DejaVuSans-20" x="2184.953125"/>
     <use xlink:href="#DejaVuSans-63" x="2216.740234"/>
     <use xlink:href="#DejaVuSans-6f" x="2271.720703"/>
     <use xlink:href="#DejaVuSans-6e" x="2332.902344"/>
     <use xlink:href="#DejaVuSans-73" x="2396.28125"/>
     <use xlink:href="#DejaVuSans-74" x="2448.380859"/>
     <use xlink:href="#DejaVuSans-72" x="2487.589844"/>
     <use xlink:href="#DejaVuSans-61" x="2528.703125"/>
     <use xlink:href="#DejaVuSans-69" x="2589.982422"/>
     <use xlink:href="#DejaVuSans-6e" x="2617.765625"/>
     <use xlink:href="#DejaVuSans-74" x="2681.144531"/>
     <use xlink:href="#DejaVuSans-20" x="2720.353516"/>
     <use xlink:href="#DejaVuSans-6f" x="2752.140625"/>
     <use xlink:href="#DejaVuSans-6e" x="2813.322266"/>
     <use xlink:href="#DejaVuSans-20" x="2876.701172"/>
     <use xlink:href="#DejaVuSans-65" x="2908.488281"/>
     <use xlink:href="#DejaVuSans-76" x="2970.011719"/>
     <use xlink:href="#DejaVuSans-65" x="3029.191406"/>
     <use xlink:href="#DejaVuSans-72" x="3090.714844"/>
     <use xlink:href="#DejaVuSans-79" x="3131.828125"/>
     <use xlink:href="#DejaVuSans-20" x="3191.007812"/>
     <use xlink:href="#DejaVuSans-73" x="3222.794922"/>
     <use xlink:href="#DejaVuSans-74" x="3274.894531"/>
     <use xlink:href="#DejaVuSans-61" x="3314.103516"/>
     <use xlink:href="#DejaVuSans-67" x="3375.382812"/>
     <use xlink:href="#DejaVuSans-65" x="3438.859375"/>
     <use xlink:href="#DejaVuSans-20" x="3500.382812"/>
     <use xlink:href="#DejaVuSans-6f" x="3532.169922"/>
     <use xlink:href="#DejaVuSans-66" x="3593.351562"/>
     <use xlink:href="#DejaVuSans-20" x="3628.556641"/>
     <use xlink:href="#DejaVuSans-74" x="3660.34375"/>
     <use xlink:href="#DejaVuSans-68" x="3699.552734"/>
     <use xlink:href="#DejaVuSans-65" x="3762.931641"/>
     <use xlink:href="#DejaVuSans-20" x="3824.455078"/>
     <use xlink:href="#DejaVuSans-6c" x="3856.242188"/>
     <use xlink:href="#DejaVuSans-69" x="3884.025391"/>
     <use xlink:href="#DejaVuSans-66" x="3911.808594"/>
     <use xlink:href="#DejaVuSans-65" x="3947.013672"/>
     <use xlink:href="#DejaVuSans-63" x="4008.537109"/>
     <use xlink:href="#DejaVuSans-79" x="4063.517578"/>
     <use xlink:href="#DejaVuSans-63" x="4122.697266"/>
     <use xlink:href="#DejaVuSans-6c" x="4177.677734"/>
     <use xlink:href="#DejaVuSans-65" x="4205.460938"/>
     <use xlink:href="#DejaVuSans-2e" x="4266.984375"/>
    </g>
   </g>
   <g id="text_8">
    <!-- Responsible AI Lifecycle -->
    <g style="fill: #0f172a" transform="translate(347.490234 20.117344) scale(0.17 -0.17)">
     <defs>
      <path id="DejaVuSans-Bold-52" d="M 2297 2597 
Q 2675 2597 2839 2737 
Q 3003 2878 3003 3200 
Q 3003 3519 2839 3656 
Q 2675 3794 2297 3794 
L 1791 3794 
L 1791 2597 
L 2297 2597 
z
M 1791 1766 
L 1791 0 
L 588 0 
L 588 4666 
L 2425 4666 
Q 3347 4666 3776 4356 
Q 4206 4047 4206 3378 
Q 4206 2916 3982 2619 
Q 3759 2322 3309 2181 
Q 3556 2125 3751 1926 
Q 3947 1728 4147 1325 
L 4800 0 
L 3519 0 
L 2950 1159 
Q 2778 1509 2601 1637 
Q 2425 1766 2131 1766 
L 1791 1766 
z
" transform="scale(0.015625)"/>
      <path id="DejaVuSans-Bold-62" d="M 2400 722 
Q 2759 722 2948 984 
Q 3138 1247 3138 1747 
Q 3138 2247 2948 2509 
Q 2759 2772 2400 2772 
Q 2041 2772 1848 2508 
Q 1656 2244 1656 1747 
Q 1656 1250 1848 986 
Q 2041 722 2400 722 
z
M 1656 2988 
Q 1888 3294 2169 3439 
Q 2450 3584 2816 3584 
Q 3463 3584 3878 3070 
Q 4294 2556 4294 1747 
Q 4294 938 3878 423 
Q 3463 -91 2816 -91 
Q 2450 -91 2169 54 
Q 1888 200 1656 506 
L 1656 0 
L 538 0 
L 538 4863 
L 1656 4863 
L 1656 2988 
z
" transform="scale(0.015625)"/>
      <path id="DejaVuSans-Bold-41" d="M 3419 850 
L 1538 850 
L 1241 0 
L 31 0 
L 1759 4666 
L 3194 4666 
L 4922 0 
L 3713 0 
L 3419 850 
z
M 1838 1716 
L 3116 1716 
L 2478 3572 
L 1838 1716 
z
" transform="scale(0.015625)"/>
      <path id="DejaVuSans-Bold-4c" d="M 588 4666 
L 1791 4666 
L 1791 909 
L 3903 909 
L 3903 0 
L 588 0 
L 588 4666 
z
" transform="scale(0.015625)"/>
      <path id="DejaVuSans-Bold-66" d="M 2841 4863 
L 2841 4128 
L 2222 4128 
Q 1984 4128 1890 4042 
Q 1797 3956 1797 3744 
L 1797 3500 
L 2753 3500 
L 2753 2700 
L 1797 2700 
L 1797 0 
L 678 0 
L 678 2700 
L 122 2700 
L 122 3500 
L 678 3500 
L 678 3744 
Q 678 4316 997 4589 
Q 1316 4863 1984 4863 
L 2841 4863 
z
" transform="scale(0.015625)"/>
     </defs>
     <use xlink:href="#DejaVuSans-Bold-52"/>
     <use xlink:href="#DejaVuSans-Bold-65" x="77.001953"/>
     <use xlink:href="#DejaVuSans-Bold-73" x="144.824219"/>
     <use xlink:href="#DejaVuSans-Bold-70" x="204.345703"/>
     <use xlink:href="#DejaVuSans-Bold-6f" x="275.927734"/>
     <use xlink:href="#DejaVuSans-Bold-6e" x="344.628906"/>
     <use xlink:href="#DejaVuSans-Bold-73" x="415.820312"/>
     <use xlink:href="#DejaVuSans-Bold-69" x="475.341797"/>
     <use xlink:href="#DejaVuSans-Bold-62" x="509.619141"/>
     <use xlink:href="#DejaVuSans-Bold-6c" x="581.201172"/>
     <use xlink:href="#DejaVuSans-Bold-65" x="615.478516"/>
     <use xlink:href="#DejaVuSans-Bold-20" x="683.300781"/>
     <use xlink:href="#DejaVuSans-Bold-41" x="718.115234"/>
     <use xlink:href="#DejaVuSans-Bold-49" x="795.507812"/>
     <use xlink:href="#DejaVuSans-Bold-20" x="832.714844"/>
     <use xlink:href="#DejaVuSans-Bold-4c" x="867.529297"/>
     <use xlink:href="#DejaVuSans-Bold-69" x="931.25"/>
     <use xlink:href="#DejaVuSans-Bold-66" x="965.527344"/>
     <use xlink:href="#DejaVuSans-Bold-65" x="1009.033203"/>
     <use xlink:href="#DejaVuSans-Bold-63" x="1076.855469"/>
     <use xlink:href="#DejaVuSans-Bold-79" x="1136.132812"/>
     <use xlink:href="#DejaVuSans-Bold-63" x="1201.318359"/>
     <use xlink:href="#DejaVuSans-Bold-6c" x="1260.595703"/>
     <use xlink:href="#DejaVuSans-Bold-65" x="1294.873047"/>
    </g>
   </g>
  </g>
 </g>
 <defs>
  <clipPath id="pae712f0931">
   <rect x="7.2" y="36.117344" width="912.24" height="415.64"/>
  </clipPath>
 </defs>
</svg>
