<?xml version="1.0" encoding="utf-8" standalone="no"?>
<!DOCTYPE svg PUBLIC "-//W3C//DTD SVG 1.1//EN"
  "http://www.w3.org/Graphics/SVG/1.1/DTD/svg11.dtd">
<svg xmlns:xlink="http://www.w3.org/1999/xlink" width="926.64pt" height="566.337656pt" viewBox="0 0 926.64 566.337656" xmlns="http://www.w3.org/2000/svg" version="1.1">
 <metadata>
  <rdf:RDF xmlns:dc="http://purl.org/dc/elements/1.1/" xmlns:cc="http://creativecommons.org/ns#" xmlns:rdf="http://www.w3.org/1999/02/22-rdf-syntax-ns#">
   <cc:Work>
    <dc:type rdf:resource="http://purl.org/dc/dcmitype/StillImage"/>
    <dc:date>2026-03-20T01:55:29.063866</dc:date>
    <dc:format>image/svg+xml</dc:format>
    <dc:creator>
     <cc:Agent>
      <dc:title>Matplotlib v3.9.0, https://matplotlib.org/</dc:title>
     </cc:Agent>
    </dc:creator>
   </cc:Work>
  </rdf:RDF>
 </metadata>
 <defs>
  <style type="text/css">*{stroke-linejoin: round; stroke-linecap: butt}</style>
 </defs>
 <g id="figure_1">
  <g id="patch_1">
   <path d="M 0 566.337656 
L 926.64 566.337656 
L 926.64 0 
L 0 0 
z
" style="fill: #ffffff"/>
  </g>
  <g id="axes_1">
   <g id="patch_2">
    <path d="M 308.2392 151.069156 
L 618.4008 151.069156 
Q 641.2068 151.069156 641.2068 137.905656 
L 641.2068 64.190056 
Q 641.2068 51.026556 618.4008 51.026556 
L 308.2392 51.026556 
Q 285.4332 51.026556 285.4332 64.190056 
L 285.4332 137.905656 
Q 285.4332 151.069156 308.2392 151.069156 
z
" clip-path="url(#p719438c722)" style="fill: #fef3c7; stroke: #f59e0b; stroke-width: 1.8; stroke-linejoin: miter"/>
   </g>
   <g id="patch_3">
    <path d="M 71.0568 280.071456 
L 344.7288 280.071456 
Q 367.5348 280.071456 367.5348 266.907956 
L 367.5348 198.457756 
Q 367.5348 185.294256 344.7288 185.294256 
L 71.0568 185.294256 
Q 48.2508 185.294256 48.2508 198.457756 
L 48.2508 266.907956 
Q 48.2508 280.071456 71.0568 280.071456 
z
" clip-path="url(#p719438c722)" style="fill: #dbeafe; stroke: #2563eb; stroke-width: 1.8; stroke-linejoin: miter"/>
   </g>
   <g id="patch_4">
    <path d="M 581.9112 280.071456 
L 855.5832 280.071456 
Q 878.3892 280.071456 878.3892 266.907956 
L 878.3892 198.457756 
Q 878.3892 185.294256 855.5832 185.294256 
L 581.9112 185.294256 
Q 559.1052 185.294256 559.1052 198.457756 
L 559.1052 266.907956 
Q 559.1052 280.071456 581.9112 280.071456 
z
" clip-path="url(#p719438c722)" style="fill: #dbeafe; stroke: #2563eb; stroke-width: 1.8; stroke-linejoin: miter"/>
   </g>
   <g id="patch_5">
    <path d="M 334.233363 139.35859 
Q 308.238263 166.866348 283.471821 193.073952 
" clip-path="url(#p719438c722)" style="fill: none; stroke: #475569; stroke-width: 1.6; stroke-linecap: round"/>
    <path d="M 289.773289 190.773626 
L 283.471821 193.073952 
L 285.412441 186.652581 
" clip-path="url(#p719438c722)" style="fill: none; stroke: #475569; stroke-width: 1.6; stroke-linecap: round"/>
   </g>
   <g id="patch_6">
    <path d="M 592.406637 139.35859 
Q 618.401737 166.866348 643.168179 193.073952 
" clip-path="url(#p719438c722)" style="fill: none; stroke: #475569; stroke-width: 1.6; stroke-linecap: round"/>
    <path d="M 641.227559 186.652581 
L 643.168179 193.073952 
L 636.866711 190.773626 
" clip-path="url(#p719438c722)" style="fill: none; stroke: #475569; stroke-width: 1.6; stroke-linecap: round"/>
   </g>
   <g id="patch_7">
    <path d="M 16.3224 416.971856 
L 162.2808 416.971856 
Q 185.0868 416.971856 185.0868 403.808356 
L 185.0868 335.358156 
Q 185.0868 322.194656 162.2808 322.194656 
L 16.3224 322.194656 
Q -6.4836 322.194656 -6.4836 335.358156 
L -6.4836 403.808356 
Q -6.4836 416.971856 16.3224 416.971856 
z
" clip-path="url(#p719438c722)" style="fill: #fee2e2; stroke: #ef4444; stroke-width: 2; stroke-linejoin: miter"/>
   </g>
   <g id="patch_8">
    <path d="M 253.5048 416.971856 
L 399.4632 416.971856 
Q 422.2692 416.971856 422.2692 403.808356 
L 422.2692 335.358156 
Q 422.2692 322.194656 399.4632 322.194656 
L 253.5048 322.194656 
Q 230.6988 322.194656 230.6988 335.358156 
L 230.6988 403.808356 
Q 230.6988 416.971856 253.5048 416.971856 
z
" clip-path="url(#p719438c722)" style="fill: #dcfce7; stroke: #22c55e; stroke-width: 2; stroke-linejoin: miter"/>
   </g>
   <g id="patch_9">
    <path d="M 527.1768 416.971856 
L 673.1352 416.971856 
Q 695.9412 416.971856 695.9412 403.808356 
L 695.9412 335.358156 
Q 695.9412 322.194656 673.1352 322.194656 
L 527.1768 322.194656 
Q 504.3708 322.194656 504.3708 335.358156 
L 504.3708 403.808356 
Q 504.3708 416.971856 527.1768 416.971856 
z
" clip-path="url(#p719438c722)" style="fill: #fee2e2; stroke: #ef4444; stroke-width: 2; stroke-linejoin: miter"/>
   </g>
   <g id="patch_10">
    <path d="M 764.3592 416.971856 
L 910.3176 416.971856 
Q 933.1236 416.971856 933.1236 403.808356 
L 933.1236 335.358156 
Q 933.1236 322.194656 910.3176 322.194656 
L 764.3592 322.194656 
Q 741.5532 322.194656 741.5532 335.358156 
L 741.5532 403.808356 
Q 741.5532 416.971856 764.3592 416.971856 
z
" clip-path="url(#p719438c722)" style="fill: #dcfce7; stroke: #22c55e; stroke-width: 2; stroke-linejoin: miter"/>
   </g>
   <g id="patch_11">
    <path d="M 125.526726 266.259744 
Q 121.229951 298.500726 117.169488 328.968531 
" clip-path="url(#p719438c722)" style="fill: none; stroke: #475569; stroke-width: 1.6; stroke-linecap: round"/>
    <path d="M 120.935812 323.417423 
L 117.169488 328.968531 
L 114.988395 322.624807 
" clip-path="url(#p719438c722)" style="fill: none; stroke: #475569; stroke-width: 1.6; stroke-linecap: round"/>
   </g>
   <g id="patch_12">
    <path d="M 290.258874 266.259744 
Q 294.555649 298.500726 298.616112 328.968531 
" clip-path="url(#p719438c722)" style="fill: none; stroke: #475569; stroke-width: 1.6; stroke-linecap: round"/>
    <path d="M 300.797205 322.624807 
L 298.616112 328.968531 
L 294.849788 323.417423 
" clip-path="url(#p719438c722)" style="fill: none; stroke: #475569; stroke-width: 1.6; stroke-linecap: round"/>
   </g>
   <g id="patch_13">
    <path d="M 636.381126 266.259744 
Q 632.084351 298.500726 628.023888 328.968531 
" clip-path="url(#p719438c722)" style="fill: none; stroke: #475569; stroke-width: 1.6; stroke-linecap: round"/>
    <path d="M 631.790212 323.417423 
L 628.023888 328.968531 
L 625.842795 322.624807 
" clip-path="url(#p719438c722)" style="fill: none; stroke: #475569; stroke-width: 1.6; stroke-linecap: round"/>
   </g>
   <g id="patch_14">
    <path d="M 801.113274 266.259744 
Q 805.410049 298.500726 809.470512 328.968531 
" clip-path="url(#p719438c722)" style="fill: none; stroke: #475569; stroke-width: 1.6; stroke-linecap: round"/>
    <path d="M 811.651605 322.624807 
L 809.470512 328.968531 
L 805.704188 323.417423 
" clip-path="url(#p719438c722)" style="fill: none; stroke: #475569; stroke-width: 1.6; stroke-linecap: round"/>
   </g>
   <g id="text_1">
    <!-- amount &gt; $500? -->
    <g style="fill: #0f172a" transform="translate(412.702812 93.762985) scale(0.11 -0.11)">
     <defs>
      <path id="DejaVuSans-Bold-61" d="M 2106 1575 
Q 1756 1575 1579 1456 
Q 1403 1338 1403 1106 
Q 1403 894 1545 773 
Q 1688 653 1941 653 
Q 2256 653 2472 879 
Q 2688 1106 2688 1447 
L 2688 1575 
L 2106 1575 
z
M 3816 1997 
L 3816 0 
L 2688 0 
L 2688 519 
Q 2463 200 2181 54 
Q 1900 -91 1497 -91 
Q 953 -91 614 226 
Q 275 544 275 1050 
Q 275 1666 698 1953 
Q 1122 2241 2028 2241 
L 2688 2241 
L 2688 2328 
Q 2688 2594 2478 2717 
Q 2269 2841 1825 2841 
Q 1466 2841 1156 2769 
Q 847 2697 581 2553 
L 581 3406 
Q 941 3494 1303 3539 
Q 1666 3584 2028 3584 
Q 2975 3584 3395 3211 
Q 3816 2838 3816 1997 
z
" transform="scale(0.015625)"/>
      <path id="DejaVuSans-Bold-6d" d="M 3781 2919 
Q 3994 3244 4286 3414 
Q 4578 3584 4928 3584 
Q 5531 3584 5847 3212 
Q 6163 2841 6163 2131 
L 6163 0 
L 5038 0 
L 5038 1825 
Q 5041 1866 5042 1909 
Q 5044 1953 5044 2034 
Q 5044 2406 4934 2573 
Q 4825 2741 4581 2741 
Q 4263 2741 4089 2478 
Q 3916 2216 3909 1719 
L 3909 0 
L 2784 0 
L 2784 1825 
Q 2784 2406 2684 2573 
Q 2584 2741 2328 2741 
Q 2006 2741 1831 2477 
Q 1656 2213 1656 1722 
L 1656 0 
L 531 0 
L 531 3500 
L 1656 3500 
L 1656 2988 
Q 1863 3284 2130 3434 
Q 2397 3584 2719 3584 
Q 3081 3584 3359 3409 
Q 3638 3234 3781 2919 
z
" transform="scale(0.015625)"/>
      <path id="DejaVuSans-Bold-6f" d="M 2203 2784 
Q 1831 2784 1636 2517 
Q 1441 2250 1441 1747 
Q 1441 1244 1636 976 
Q 1831 709 2203 709 
Q 2569 709 2762 976 
Q 2956 1244 2956 1747 
Q 2956 2250 2762 2517 
Q 2569 2784 2203 2784 
z
M 2203 3584 
Q 3106 3584 3614 3096 
Q 4122 2609 4122 1747 
Q 4122 884 3614 396 
Q 3106 -91 2203 -91 
Q 1297 -91 786 396 
Q 275 884 275 1747 
Q 275 2609 786 3096 
Q 1297 3584 2203 3584 
z
" transform="scale(0.015625)"/>
      <path id="DejaVuSans-Bold-75" d="M 500 1363 
L 500 3500 
L 1625 3500 
L 1625 3150 
Q 1625 2866 1622 2436 
Q 1619 2006 1619 1863 
Q 1619 1441 1641 1255 
Q 1663 1069 1716 984 
Q 1784 875 1895 815 
Q 2006 756 2150 756 
Q 2500 756 2700 1025 
Q 2900 1294 2900 1772 
L 2900 3500 
L 4019 3500 
L 4019 0 
L 2900 0 
L 2900 506 
Q 2647 200 2364 54 
Q 2081 -91 1741 -91 
Q 1134 -91 817 281 
Q 500 653 500 1363 
z
" transform="scale(0.015625)"/>
      <path id="DejaVuSans-Bold-6e" d="M 4056 2131 
L 4056 0 
L 2931 0 
L 2931 347 
L 2931 1631 
Q 2931 2084 2911 2256 
Q 2891 2428 2841 2509 
Q 2775 2619 2662 2680 
Q 2550 2741 2406 2741 
Q 2056 2741 1856 2470 
Q 1656 2200 1656 1722 
L 1656 0 
L 538 0 
L 538 3500 
L 1656 3500 
L 1656 2988 
Q 1909 3294 2193 3439 
Q 2478 3584 2822 3584 
Q 3428 3584 3742 3212 
Q 4056 2841 4056 2131 
z
" transform="scale(0.015625)"/>
      <path id="DejaVuSans-Bold-74" d="M 1759 4494 
L 1759 3500 
L 2913 3500 
L 2913 2700 
L 1759 2700 
L 1759 1216 
Q 1759 972 1856 886 
Q 1953 800 2241 800 
L 2816 800 
L 2816 0 
L 1856 0 
Q 1194 0 917 276 
Q 641 553 641 1216 
L 641 2700 
L 84 2700 
L 84 3500 
L 641 3500 
L 641 4494 
L 1759 4494 
z
" transform="scale(0.015625)"/>
      <path id="DejaVuSans-Bold-20" transform="scale(0.015625)"/>
      <path id="DejaVuSans-Bold-3e" d="M 678 3041 
L 678 3822 
L 4684 2375 
L 4684 1638 
L 678 191 
L 678 972 
L 3694 2003 
L 678 3041 
z
" transform="scale(0.015625)"/>
      <path id="DejaVuSans-Bold-24" d="M 2484 -941 
L 1978 -941 
L 1975 0 
Q 1584 16 1218 87 
Q 853 159 506 288 
L 506 1106 
Q 866 922 1233 823 
Q 1600 725 1978 713 
L 1978 1684 
L 1875 1703 
Q 1128 1834 814 2115 
Q 500 2397 500 2925 
Q 500 3484 883 3798 
Q 1266 4113 1975 4141 
L 1978 4863 
L 2484 4863 
L 2484 4153 
Q 2797 4128 3109 4075 
Q 3422 4022 3738 3938 
L 3738 3144 
Q 3425 3275 3112 3348 
Q 2800 3422 2484 3438 
L 2484 2541 
L 2584 2522 
Q 3378 2397 3698 2105 
Q 4019 1813 4019 1241 
Q 4019 666 3637 358 
Q 3256 50 2484 6 
L 2484 -941 
z
M 1978 2613 
L 1978 3428 
Q 1756 3416 1623 3308 
Q 1491 3200 1491 3034 
Q 1491 2850 1612 2745 
Q 1734 2641 1978 2613 
z
M 2484 1594 
L 2484 725 
Q 2756 728 2892 831 
Q 3028 934 3028 1141 
Q 3028 1353 2903 1458 
Q 2778 1563 2484 1594 
z
" transform="scale(0.015625)"/>
      <path id="DejaVuSans-Bold-35" d="M 678 4666 
L 3669 4666 
L 3669 3781 
L 1638 3781 
L 1638 3059 
Q 1775 3097 1914 3117 
Q 2053 3138 2203 3138 
Q 3056 3138 3531 2711 
Q 4006 2284 4006 1522 
Q 4006 766 3489 337 
Q 2972 -91 2053 -91 
Q 1656 -91 1267 -14 
Q 878 63 494 219 
L 494 1166 
Q 875 947 1217 837 
Q 1559 728 1863 728 
Q 2300 728 2551 942 
Q 2803 1156 2803 1522 
Q 2803 1891 2551 2103 
Q 2300 2316 1863 2316 
Q 1603 2316 1309 2248 
Q 1016 2181 678 2041 
L 678 4666 
z
" transform="scale(0.015625)"/>
      <path id="DejaVuSans-Bold-30" d="M 2944 2338 
Q 2944 3213 2780 3570 
Q 2616 3928 2228 3928 
Q 1841 3928 1675 3570 
Q 1509 3213 1509 2338 
Q 1509 1453 1675 1090 
Q 1841 728 2228 728 
Q 2613 728 2778 1090 
Q 2944 1453 2944 2338 
z
M 4147 2328 
Q 4147 1169 3647 539 
Q 3147 -91 2228 -91 
Q 1306 -91 806 539 
Q 306 1169 306 2328 
Q 306 3491 806 4120 
Q 1306 4750 2228 4750 
Q 3147 4750 3647 4120 
Q 4147 3491 4147 2328 
z
" transform="scale(0.015625)"/>
      <path id="DejaVuSans-Bold-3f" d="M 2216 1575 
L 1088 1575 
L 1088 1728 
Q 1088 1984 1191 2182 
Q 1294 2381 1625 2688 
L 1825 2869 
Q 2003 3031 2086 3175 
Q 2169 3319 2169 3463 
Q 2169 3681 2019 3804 
Q 1869 3928 1600 3928 
Q 1347 3928 1053 3823 
Q 759 3719 441 3513 
L 441 4494 
Q 819 4625 1131 4687 
Q 1444 4750 1734 4750 
Q 2497 4750 2897 4439 
Q 3297 4128 3297 3531 
Q 3297 3225 3175 2983 
Q 3053 2741 2759 2463 
L 2559 2284 
Q 2347 2091 2281 1973 
Q 2216 1856 2216 1716 
L 2216 1575 
z
M 1088 1113 
L 2216 1113 
L 2216 0 
L 1088 0 
L 1088 1113 
z
" transform="scale(0.015625)"/>
     </defs>
     <use xlink:href="#DejaVuSans-Bold-61"/>
     <use xlink:href="#DejaVuSans-Bold-6d" x="67.480469"/>
     <use xlink:href="#DejaVuSans-Bold-6f" x="171.679688"/>
     <use xlink:href="#DejaVuSans-Bold-75" x="240.380859"/>
     <use xlink:href="#DejaVuSans-Bold-6e" x="311.572266"/>
     <use xlink:href="#DejaVuSans-Bold-74" x="382.763672"/>
     <use xlink:href="#DejaVuSans-Bold-20" x="430.566406"/>
     <use xlink:href="#DejaVuSans-Bold-3e" x="465.380859"/>
     <use xlink:href="#DejaVuSans-Bold-20" x="549.169922"/>
     <use xlink:href="#DejaVuSans-Bold-24" x="583.984375"/>
     <use xlink:href="#DejaVuSans-Bold-35" x="653.564453"/>
     <use xlink:href="#DejaVuSans-Bold-30" x="723.144531"/>
     <use xlink:href="#DejaVuSans-Bold-30" x="792.724609"/>
     <use xlink:href="#DejaVuSans-Bold-3f" x="862.304688"/>
    </g>
   </g>
   <g id="text_2">
    <!-- Gini = 0.44  |  N=1000 -->
    <g style="fill: #475569" transform="translate(403.451133 117.090961) scale(0.105 -0.105)">
     <defs>
      <path id="DejaVuSans-47" d="M 3809 666 
L 3809 1919 
L 2778 1919 
L 2778 2438 
L 4434 2438 
L 4434 434 
Q 4069 175 3628 42 
Q 3188 -91 2688 -91 
Q 1594 -91 976 548 
Q 359 1188 359 2328 
Q 359 3472 976 4111 
Q 1594 4750 2688 4750 
Q 3144 4750 3555 4637 
Q 3966 4525 4313 4306 
L 4313 3634 
Q 3963 3931 3569 4081 
Q 3175 4231 2741 4231 
Q 1884 4231 1454 3753 
Q 1025 3275 1025 2328 
Q 1025 1384 1454 906 
Q 1884 428 2741 428 
Q 3075 428 3337 486 
Q 3600 544 3809 666 
z
" transform="scale(0.015625)"/>
      <path id="DejaVuSans-69" d="M 603 3500 
L 1178 3500 
L 1178 0 
L 603 0 
L 603 3500 
z
M 603 4863 
L 1178 4863 
L 1178 4134 
L 603 4134 
L 603 4863 
z
" transform="scale(0.015625)"/>
      <path id="DejaVuSans-6e" d="M 3513 2113 
L 3513 0 
L 2938 0 
L 2938 2094 
Q 2938 2591 2744 2837 
Q 2550 3084 2163 3084 
Q 1697 3084 1428 2787 
Q 1159 2491 1159 1978 
L 1159 0 
L 581 0 
L 581 3500 
L 1159 3500 
L 1159 2956 
Q 1366 3272 1645 3428 
Q 1925 3584 2291 3584 
Q 2894 3584 3203 3211 
Q 3513 2838 3513 2113 
z
" transform="scale(0.015625)"/>
      <path id="DejaVuSans-20" transform="scale(0.015625)"/>
      <path id="DejaVuSans-3d" d="M 678 2906 
L 4684 2906 
L 4684 2381 
L 678 2381 
L 678 2906 
z
M 678 1631 
L 4684 1631 
L 4684 1100 
L 678 1100 
L 678 1631 
z
" transform="scale(0.015625)"/>
      <path id="DejaVuSans-30" d="M 2034 4250 
Q 1547 4250 1301 3770 
Q 1056 3291 1056 2328 
Q 1056 1369 1301 889 
Q 1547 409 2034 409 
Q 2525 409 2770 889 
Q 3016 1369 3016 2328 
Q 3016 3291 2770 3770 
Q 2525 4250 2034 4250 
z
M 2034 4750 
Q 2819 4750 3233 4129 
Q 3647 3509 3647 2328 
Q 3647 1150 3233 529 
Q 2819 -91 2034 -91 
Q 1250 -91 836 529 
Q 422 1150 422 2328 
Q 422 3509 836 4129 
Q 1250 4750 2034 4750 
z
" transform="scale(0.015625)"/>
      <path id="DejaVuSans-2e" d="M 684 794 
L 1344 794 
L 1344 0 
L 684 0 
L 684 794 
z
" transform="scale(0.015625)"/>
      <path id="DejaVuSans-34" d="M 2419 4116 
L 825 1625 
L 2419 1625 
L 2419 4116 
z
M 2253 4666 
L 3047 4666 
L 3047 1625 
L 3713 1625 
L 3713 1100 
L 3047 1100 
L 3047 0 
L 2419 0 
L 2419 1100 
L 313 1100 
L 313 1709 
L 2253 4666 
z
" transform="scale(0.015625)"/>
      <path id="DejaVuSans-7c" d="M 1344 4891 
L 1344 -1509 
L 813 -1509 
L 813 4891 
L 1344 4891 
z
" transform="scale(0.015625)"/>
      <path id="DejaVuSans-4e" d="M 628 4666 
L 1478 4666 
L 3547 763 
L 3547 4666 
L 4159 4666 
L 4159 0 
L 3309 0 
L 1241 3903 
L 1241 0 
L 628 0 
L 628 4666 
z
" transform="scale(0.015625)"/>
      <path id="DejaVuSans-31" d="M 794 531 
L 1825 531 
L 1825 4091 
L 703 3866 
L 703 4441 
L 1819 4666 
L 2450 4666 
L 2450 531 
L 3481 531 
L 3481 0 
L 794 0 
L 794 531 
z
" transform="scale(0.015625)"/>
     </defs>
     <use xlink:href="#DejaVuSans-47"/>
     <use xlink:href="#DejaVuSans-69" x="77.490234"/>
     <use xlink:href="#DejaVuSans-6e" x="105.273438"/>
     <use xlink:href="#DejaVuSans-69" x="168.652344"/>
     <use xlink:href="#DejaVuSans-20" x="196.435547"/>
     <use xlink:href="#DejaVuSans-3d" x="228.222656"/>
     <use xlink:href="#DejaVuSans-20" x="312.011719"/>
     <use xlink:href="#DejaVuSans-30" x="343.798828"/>
     <use xlink:href="#DejaVuSans-2e" x="407.421875"/>
     <use xlink:href="#DejaVuSans-34" x="439.208984"/>
     <use xlink:href="#DejaVuSans-34" x="502.832031"/>
     <use xlink:href="#DejaVuSans-20" x="566.455078"/>
     <use xlink:href="#DejaVuSans-20" x="598.242188"/>
     <use xlink:href="#DejaVuSans-7c" x="630.029297"/>
     <use xlink:href="#DejaVuSans-20" x="663.720703"/>
     <use xlink:href="#DejaVuSans-20" x="695.507812"/>
     <use xlink:href="#DejaVuSans-4e" x="727.294922"/>
     <use xlink:href="#DejaVuSans-3d" x="802.099609"/>
     <use xlink:href="#DejaVuSans-31" x="885.888672"/>
     <use xlink:href="#DejaVuSans-30" x="949.511719"/>
     <use xlink:href="#DejaVuSans-30" x="1013.134766"/>
     <use xlink:href="#DejaVuSans-30" x="1076.757812"/>
    </g>
   </g>
   <g id="text_3">
    <!-- is_foreign == Yes? -->
    <g style="fill: #0f172a" transform="translate(156.090456 225.720141) scale(0.1 -0.1)">
     <defs>
      <path id="DejaVuSans-Bold-69" d="M 538 3500 
L 1656 3500 
L 1656 0 
L 538 0 
L 538 3500 
z
M 538 4863 
L 1656 4863 
L 1656 3950 
L 538 3950 
L 538 4863 
z
" transform="scale(0.015625)"/>
      <path id="DejaVuSans-Bold-73" d="M 3272 3391 
L 3272 2541 
Q 2913 2691 2578 2766 
Q 2244 2841 1947 2841 
Q 1628 2841 1473 2761 
Q 1319 2681 1319 2516 
Q 1319 2381 1436 2309 
Q 1553 2238 1856 2203 
L 2053 2175 
Q 2913 2066 3209 1816 
Q 3506 1566 3506 1031 
Q 3506 472 3093 190 
Q 2681 -91 1863 -91 
Q 1516 -91 1145 -36 
Q 775 19 384 128 
L 384 978 
Q 719 816 1070 734 
Q 1422 653 1784 653 
Q 2113 653 2278 743 
Q 2444 834 2444 1013 
Q 2444 1163 2330 1236 
Q 2216 1309 1875 1350 
L 1678 1375 
Q 931 1469 631 1722 
Q 331 1975 331 2491 
Q 331 3047 712 3315 
Q 1094 3584 1881 3584 
Q 2191 3584 2531 3537 
Q 2872 3491 3272 3391 
z
" transform="scale(0.015625)"/>
      <path id="DejaVuSans-Bold-5f" d="M 3200 -916 
L 3200 -1509 
L 0 -1509 
L 0 -916 
L 3200 -916 
z
" transform="scale(0.015625)"/>
      <path id="DejaVuSans-Bold-66" d="M 2841 4863 
L 2841 4128 
L 2222 4128 
Q 1984 4128 1890 4042 
Q 1797 3956 1797 3744 
L 1797 3500 
L 2753 3500 
L 2753 2700 
L 1797 2700 
L 1797 0 
L 678 0 
L 678 2700 
L 122 2700 
L 122 3500 
L 678 3500 
L 678 3744 
Q 678 4316 997 4589 
Q 1316 4863 1984 4863 
L 2841 4863 
z
" transform="scale(0.015625)"/>
      <path id="DejaVuSans-Bold-72" d="M 3138 2547 
Q 2991 2616 2845 2648 
Q 2700 2681 2553 2681 
Q 2122 2681 1889 2404 
Q 1656 2128 1656 1613 
L 1656 0 
L 538 0 
L 538 3500 
L 1656 3500 
L 1656 2925 
Q 1872 3269 2151 3426 
Q 2431 3584 2822 3584 
Q 2878 3584 2943 3579 
Q 3009 3575 3134 3559 
L 3138 2547 
z
" transform="scale(0.015625)"/>
      <path id="DejaVuSans-Bold-65" d="M 4031 1759 
L 4031 1441 
L 1416 1441 
Q 1456 1047 1700 850 
Q 1944 653 2381 653 
Q 2734 653 3104 758 
Q 3475 863 3866 1075 
L 3866 213 
Q 3469 63 3072 -14 
Q 2675 -91 2278 -91 
Q 1328 -91 801 392 
Q 275 875 275 1747 
Q 275 2603 792 3093 
Q 1309 3584 2216 3584 
Q 3041 3584 3536 3087 
Q 4031 2591 4031 1759 
z
M 2881 2131 
Q 2881 2450 2695 2645 
Q 2509 2841 2209 2841 
Q 1884 2841 1681 2658 
Q 1478 2475 1428 2131 
L 2881 2131 
z
" transform="scale(0.015625)"/>
      <path id="DejaVuSans-Bold-67" d="M 2919 594 
Q 2688 288 2409 144 
Q 2131 0 1766 0 
Q 1125 0 706 504 
Q 288 1009 288 1791 
Q 288 2575 706 3076 
Q 1125 3578 1766 3578 
Q 2131 3578 2409 3434 
Q 2688 3291 2919 2981 
L 2919 3500 
L 4044 3500 
L 4044 353 
Q 4044 -491 3511 -936 
Q 2978 -1381 1966 -1381 
Q 1638 -1381 1331 -1331 
Q 1025 -1281 716 -1178 
L 716 -306 
Q 1009 -475 1290 -558 
Q 1572 -641 1856 -641 
Q 2406 -641 2662 -400 
Q 2919 -159 2919 353 
L 2919 594 
z
M 2181 2772 
Q 1834 2772 1640 2515 
Q 1447 2259 1447 1791 
Q 1447 1309 1634 1061 
Q 1822 813 2181 813 
Q 2531 813 2725 1069 
Q 2919 1325 2919 1791 
Q 2919 2259 2725 2515 
Q 2531 2772 2181 2772 
z
" transform="scale(0.015625)"/>
      <path id="DejaVuSans-Bold-3d" d="M 678 3084 
L 4684 3084 
L 4684 2350 
L 678 2350 
L 678 3084 
z
M 678 1663 
L 4684 1663 
L 4684 922 
L 678 922 
L 678 1663 
z
" transform="scale(0.015625)"/>
      <path id="DejaVuSans-Bold-59" d="M -63 4666 
L 1253 4666 
L 2316 3003 
L 3378 4666 
L 4697 4666 
L 2919 1966 
L 2919 0 
L 1716 0 
L 1716 1966 
L -63 4666 
z
" transform="scale(0.015625)"/>
     </defs>
     <use xlink:href="#DejaVuSans-Bold-69"/>
     <use xlink:href="#DejaVuSans-Bold-73" x="34.277344"/>
     <use xlink:href="#DejaVuSans-Bold-5f" x="93.798828"/>
     <use xlink:href="#DejaVuSans-Bold-66" x="143.798828"/>
     <use xlink:href="#DejaVuSans-Bold-6f" x="187.304688"/>
     <use xlink:href="#DejaVuSans-Bold-72" x="256.005859"/>
     <use xlink:href="#DejaVuSans-Bold-65" x="305.322266"/>
     <use xlink:href="#DejaVuSans-Bold-69" x="373.144531"/>
     <use xlink:href="#DejaVuSans-Bold-67" x="407.421875"/>
     <use xlink:href="#DejaVuSans-Bold-6e" x="479.003906"/>
     <use xlink:href="#DejaVuSans-Bold-20" x="550.195312"/>
     <use xlink:href="#DejaVuSans-Bold-3d" x="585.009766"/>
     <use xlink:href="#DejaVuSans-Bold-3d" x="668.798828"/>
     <use xlink:href="#DejaVuSans-Bold-20" x="752.587891"/>
     <use xlink:href="#DejaVuSans-Bold-59" x="787.402344"/>
     <use xlink:href="#DejaVuSans-Bold-65" x="850.689453"/>
     <use xlink:href="#DejaVuSans-Bold-73" x="918.511719"/>
     <use xlink:href="#DejaVuSans-Bold-3f" x="978.033203"/>
    </g>
   </g>
   <g id="text_4">
    <!-- Gini = 0.37  |  N=420 -->
    <g style="fill: #475569" transform="translate(156.747917 247.51397) scale(0.095 -0.095)">
     <defs>
      <path id="DejaVuSans-33" d="M 2597 2516 
Q 3050 2419 3304 2112 
Q 3559 1806 3559 1356 
Q 3559 666 3084 287 
Q 2609 -91 1734 -91 
Q 1441 -91 1130 -33 
Q 819 25 488 141 
L 488 750 
Q 750 597 1062 519 
Q 1375 441 1716 441 
Q 2309 441 2620 675 
Q 2931 909 2931 1356 
Q 2931 1769 2642 2001 
Q 2353 2234 1838 2234 
L 1294 2234 
L 1294 2753 
L 1863 2753 
Q 2328 2753 2575 2939 
Q 2822 3125 2822 3475 
Q 2822 3834 2567 4026 
Q 2313 4219 1838 4219 
Q 1578 4219 1281 4162 
Q 984 4106 628 3988 
L 628 4550 
Q 988 4650 1302 4700 
Q 1616 4750 1894 4750 
Q 2613 4750 3031 4423 
Q 3450 4097 3450 3541 
Q 3450 3153 3228 2886 
Q 3006 2619 2597 2516 
z
" transform="scale(0.015625)"/>
      <path id="DejaVuSans-37" d="M 525 4666 
L 3525 4666 
L 3525 4397 
L 1831 0 
L 1172 0 
L 2766 4134 
L 525 4134 
L 525 4666 
z
" transform="scale(0.015625)"/>
      <path id="DejaVuSans-32" d="M 1228 531 
L 3431 531 
L 3431 0 
L 469 0 
L 469 531 
Q 828 903 1448 1529 
Q 2069 2156 2228 2338 
Q 2531 2678 2651 2914 
Q 2772 3150 2772 3378 
Q 2772 3750 2511 3984 
Q 2250 4219 1831 4219 
Q 1534 4219 1204 4116 
Q 875 4013 500 3803 
L 500 4441 
Q 881 4594 1212 4672 
Q 1544 4750 1819 4750 
Q 2544 4750 2975 4387 
Q 3406 4025 3406 3419 
Q 3406 3131 3298 2873 
Q 3191 2616 2906 2266 
Q 2828 2175 2409 1742 
Q 1991 1309 1228 531 
z
" transform="scale(0.015625)"/>
     </defs>
     <use xlink:href="#DejaVuSans-47"/>
     <use xlink:href="#DejaVuSans-69" x="77.490234"/>
     <use xlink:href="#DejaVuSans-6e" x="105.273438"/>
     <use xlink:href="#DejaVuSans-69" x="168.652344"/>
     <use xlink:href="#DejaVuSans-20" x="196.435547"/>
     <use xlink:href="#DejaVuSans-3d" x="228.222656"/>
     <use xlink:href="#DejaVuSans-20" x="312.011719"/>
     <use xlink:href="#DejaVuSans-30" x="343.798828"/>
     <use xlink:href="#DejaVuSans-2e" x="407.421875"/>
     <use xlink:href="#DejaVuSans-33" x="439.208984"/>
     <use xlink:href="#DejaVuSans-37" x="502.832031"/>
     <use xlink:href="#DejaVuSans-20" x="566.455078"/>
     <use xlink:href="#DejaVuSans-20" x="598.242188"/>
     <use xlink:href="#DejaVuSans-7c" x="630.029297"/>
     <use xlink:href="#DejaVuSans-20" x="663.720703"/>
     <use xlink:href="#DejaVuSans-20" x="695.507812"/>
     <use xlink:href="#DejaVuSans-4e" x="727.294922"/>
     <use xlink:href="#DejaVuSans-3d" x="802.099609"/>
     <use xlink:href="#DejaVuSans-34" x="885.888672"/>
     <use xlink:href="#DejaVuSans-32" x="949.511719"/>
     <use xlink:href="#DejaVuSans-30" x="1013.134766"/>
    </g>
   </g>
   <g id="text_5">
    <!-- account_age &lt; 30d? -->
    <g style="fill: #0f172a" transform="translate(662.547981 225.720141) scale(0.1 -0.1)">
     <defs>
      <path id="DejaVuSans-Bold-63" d="M 3366 3391 
L 3366 2478 
Q 3138 2634 2908 2709 
Q 2678 2784 2431 2784 
Q 1963 2784 1702 2511 
Q 1441 2238 1441 1747 
Q 1441 1256 1702 982 
Q 1963 709 2431 709 
Q 2694 709 2930 787 
Q 3166 866 3366 1019 
L 3366 103 
Q 3103 6 2833 -42 
Q 2563 -91 2291 -91 
Q 1344 -91 809 395 
Q 275 881 275 1747 
Q 275 2613 809 3098 
Q 1344 3584 2291 3584 
Q 2566 3584 2833 3536 
Q 3100 3488 3366 3391 
z
" transform="scale(0.015625)"/>
      <path id="DejaVuSans-Bold-3c" d="M 4684 3041 
L 1672 2003 
L 4684 972 
L 4684 191 
L 678 1638 
L 678 2375 
L 4684 3822 
L 4684 3041 
z
" transform="scale(0.015625)"/>
      <path id="DejaVuSans-Bold-33" d="M 2981 2516 
Q 3453 2394 3698 2092 
Q 3944 1791 3944 1325 
Q 3944 631 3412 270 
Q 2881 -91 1863 -91 
Q 1503 -91 1142 -33 
Q 781 25 428 141 
L 428 1069 
Q 766 900 1098 814 
Q 1431 728 1753 728 
Q 2231 728 2486 893 
Q 2741 1059 2741 1369 
Q 2741 1688 2480 1852 
Q 2219 2016 1709 2016 
L 1228 2016 
L 1228 2791 
L 1734 2791 
Q 2188 2791 2409 2933 
Q 2631 3075 2631 3366 
Q 2631 3634 2415 3781 
Q 2200 3928 1806 3928 
Q 1516 3928 1219 3862 
Q 922 3797 628 3669 
L 628 4550 
Q 984 4650 1334 4700 
Q 1684 4750 2022 4750 
Q 2931 4750 3382 4451 
Q 3834 4153 3834 3553 
Q 3834 3144 3618 2883 
Q 3403 2622 2981 2516 
z
" transform="scale(0.015625)"/>
      <path id="DejaVuSans-Bold-64" d="M 2919 2988 
L 2919 4863 
L 4044 4863 
L 4044 0 
L 2919 0 
L 2919 506 
Q 2688 197 2409 53 
Q 2131 -91 1766 -91 
Q 1119 -91 703 423 
Q 288 938 288 1747 
Q 288 2556 703 3070 
Q 1119 3584 1766 3584 
Q 2128 3584 2408 3439 
Q 2688 3294 2919 2988 
z
M 2181 722 
Q 2541 722 2730 984 
Q 2919 1247 2919 1747 
Q 2919 2247 2730 2509 
Q 2541 2772 2181 2772 
Q 1825 2772 1636 2509 
Q 1447 2247 1447 1747 
Q 1447 1247 1636 984 
Q 1825 722 2181 722 
z
" transform="scale(0.015625)"/>
     </defs>
     <use xlink:href="#DejaVuSans-Bold-61"/>
     <use xlink:href="#DejaVuSans-Bold-63" x="67.480469"/>
     <use xlink:href="#DejaVuSans-Bold-63" x="126.757812"/>
     <use xlink:href="#DejaVuSans-Bold-6f" x="186.035156"/>
     <use xlink:href="#DejaVuSans-Bold-75" x="254.736328"/>
     <use xlink:href="#DejaVuSans-Bold-6e" x="325.927734"/>
     <use xlink:href="#DejaVuSans-Bold-74" x="397.119141"/>
     <use xlink:href="#DejaVuSans-Bold-5f" x="444.921875"/>
     <use xlink:href="#DejaVuSans-Bold-61" x="494.921875"/>
     <use xlink:href="#DejaVuSans-Bold-67" x="562.402344"/>
     <use xlink:href="#DejaVuSans-Bold-65" x="633.984375"/>
     <use xlink:href="#DejaVuSans-Bold-20" x="701.806641"/>
     <use xlink:href="#DejaVuSans-Bold-3c" x="736.621094"/>
     <use xlink:href="#DejaVuSans-Bold-20" x="820.410156"/>
     <use xlink:href="#DejaVuSans-Bold-33" x="855.224609"/>
     <use xlink:href="#DejaVuSans-Bold-30" x="924.804688"/>
     <use xlink:href="#DejaVuSans-Bold-64" x="994.384766"/>
     <use xlink:href="#DejaVuSans-Bold-3f" x="1065.966797"/>
    </g>
   </g>
   <g id="text_6">
    <!-- Gini = 0.28  |  N=580 -->
    <g style="fill: #475569" transform="translate(667.602317 247.51397) scale(0.095 -0.095)">
     <defs>
      <path id="DejaVuSans-38" d="M 2034 2216 
Q 1584 2216 1326 1975 
Q 1069 1734 1069 1313 
Q 1069 891 1326 650 
Q 1584 409 2034 409 
Q 2484 409 2743 651 
Q 3003 894 3003 1313 
Q 3003 1734 2745 1975 
Q 2488 2216 2034 2216 
z
M 1403 2484 
Q 997 2584 770 2862 
Q 544 3141 544 3541 
Q 544 4100 942 4425 
Q 1341 4750 2034 4750 
Q 2731 4750 3128 4425 
Q 3525 4100 3525 3541 
Q 3525 3141 3298 2862 
Q 3072 2584 2669 2484 
Q 3125 2378 3379 2068 
Q 3634 1759 3634 1313 
Q 3634 634 3220 271 
Q 2806 -91 2034 -91 
Q 1263 -91 848 271 
Q 434 634 434 1313 
Q 434 1759 690 2068 
Q 947 2378 1403 2484 
z
M 1172 3481 
Q 1172 3119 1398 2916 
Q 1625 2713 2034 2713 
Q 2441 2713 2670 2916 
Q 2900 3119 2900 3481 
Q 2900 3844 2670 4047 
Q 2441 4250 2034 4250 
Q 1625 4250 1398 4047 
Q 1172 3844 1172 3481 
z
" transform="scale(0.015625)"/>
      <path id="DejaVuSans-35" d="M 691 4666 
L 3169 4666 
L 3169 4134 
L 1269 4134 
L 1269 2991 
Q 1406 3038 1543 3061 
Q 1681 3084 1819 3084 
Q 2600 3084 3056 2656 
Q 3513 2228 3513 1497 
Q 3513 744 3044 326 
Q 2575 -91 1722 -91 
Q 1428 -91 1123 -41 
Q 819 9 494 109 
L 494 744 
Q 775 591 1075 516 
Q 1375 441 1709 441 
Q 2250 441 2565 725 
Q 2881 1009 2881 1497 
Q 2881 1984 2565 2268 
Q 2250 2553 1709 2553 
Q 1456 2553 1204 2497 
Q 953 2441 691 2322 
L 691 4666 
z
" transform="scale(0.015625)"/>
     </defs>
     <use xlink:href="#DejaVuSans-47"/>
     <use xlink:href="#DejaVuSans-69" x="77.490234"/>
     <use xlink:href="#DejaVuSans-6e" x="105.273438"/>
     <use xlink:href="#DejaVuSans-69" x="168.652344"/>
     <use xlink:href="#DejaVuSans-20" x="196.435547"/>
     <use xlink:href="#DejaVuSans-3d" x="228.222656"/>
     <use xlink:href="#DejaVuSans-20" x="312.011719"/>
     <use xlink:href="#DejaVuSans-30" x="343.798828"/>
     <use xlink:href="#DejaVuSans-2e" x="407.421875"/>
     <use xlink:href="#DejaVuSans-32" x="439.208984"/>
     <use xlink:href="#DejaVuSans-38" x="502.832031"/>
     <use xlink:href="#DejaVuSans-20" x="566.455078"/>
     <use xlink:href="#DejaVuSans-20" x="598.242188"/>
     <use xlink:href="#DejaVuSans-7c" x="630.029297"/>
     <use xlink:href="#DejaVuSans-20" x="663.720703"/>
     <use xlink:href="#DejaVuSans-20" x="695.507812"/>
     <use xlink:href="#DejaVuSans-4e" x="727.294922"/>
     <use xlink:href="#DejaVuSans-3d" x="802.099609"/>
     <use xlink:href="#DejaVuSans-35" x="885.888672"/>
     <use xlink:href="#DejaVuSans-38" x="949.511719"/>
     <use xlink:href="#DejaVuSans-30" x="1013.134766"/>
    </g>
   </g>
   <g id="text_7">
    <!-- Yes -->
    <g style="fill: #dc2626" transform="translate(271.7496 158.967256) scale(0.1 -0.1)">
     <use xlink:href="#DejaVuSans-Bold-59"/>
     <use xlink:href="#DejaVuSans-Bold-65" x="63.287109"/>
     <use xlink:href="#DejaVuSans-Bold-73" x="131.109375"/>
    </g>
   </g>
   <g id="text_8">
    <!-- No -->
    <g style="fill: #16a34a" transform="translate(618.4008 158.967256) scale(0.1 -0.1)">
     <defs>
      <path id="DejaVuSans-Bold-4e" d="M 588 4666 
L 1931 4666 
L 3628 1466 
L 3628 4666 
L 4769 4666 
L 4769 0 
L 3425 0 
L 1728 3200 
L 1728 0 
L 588 0 
L 588 4666 
z
" transform="scale(0.015625)"/>
     </defs>
     <use xlink:href="#DejaVuSans-Bold-4e"/>
     <use xlink:href="#DejaVuSans-Bold-6f" x="83.691406"/>
    </g>
   </g>
   <g id="text_9">
    <!-- FRAUD -->
    <g style="fill: #0f172a" transform="translate(68.192772 364.404545) scale(0.11 -0.11)">
     <defs>
      <path id="DejaVuSans-Bold-46" d="M 588 4666 
L 3834 4666 
L 3834 3756 
L 1791 3756 
L 1791 2888 
L 3713 2888 
L 3713 1978 
L 1791 1978 
L 1791 0 
L 588 0 
L 588 4666 
z
" transform="scale(0.015625)"/>
      <path id="DejaVuSans-Bold-52" d="M 2297 2597 
Q 2675 2597 2839 2737 
Q 3003 2878 3003 3200 
Q 3003 3519 2839 3656 
Q 2675 3794 2297 3794 
L 1791 3794 
L 1791 2597 
L 2297 2597 
z
M 1791 1766 
L 1791 0 
L 588 0 
L 588 4666 
L 2425 4666 
Q 3347 4666 3776 4356 
Q 4206 4047 4206 3378 
Q 4206 2916 3982 2619 
Q 3759 2322 3309 2181 
Q 3556 2125 3751 1926 
Q 3947 1728 4147 1325 
L 4800 0 
L 3519 0 
L 2950 1159 
Q 2778 1509 2601 1637 
Q 2425 1766 2131 1766 
L 1791 1766 
z
" transform="scale(0.015625)"/>
      <path id="DejaVuSans-Bold-41" d="M 3419 850 
L 1538 850 
L 1241 0 
L 31 0 
L 1759 4666 
L 3194 4666 
L 4922 0 
L 3713 0 
L 3419 850 
z
M 1838 1716 
L 3116 1716 
L 2478 3572 
L 1838 1716 
z
" transform="scale(0.015625)"/>
      <path id="DejaVuSans-Bold-55" d="M 588 4666 
L 1791 4666 
L 1791 1869 
Q 1791 1291 1980 1042 
Q 2169 794 2597 794 
Q 3028 794 3217 1042 
Q 3406 1291 3406 1869 
L 3406 4666 
L 4609 4666 
L 4609 1869 
Q 4609 878 4112 393 
Q 3616 -91 2597 -91 
Q 1581 -91 1084 393 
Q 588 878 588 1869 
L 588 4666 
z
" transform="scale(0.015625)"/>
      <path id="DejaVuSans-Bold-44" d="M 1791 3756 
L 1791 909 
L 2222 909 
Q 2959 909 3348 1275 
Q 3738 1641 3738 2338 
Q 3738 3031 3350 3393 
Q 2963 3756 2222 3756 
L 1791 3756 
z
M 588 4666 
L 1856 4666 
Q 2919 4666 3439 4514 
Q 3959 4363 4331 4000 
Q 4659 3684 4818 3271 
Q 4978 2859 4978 2338 
Q 4978 1809 4818 1395 
Q 4659 981 4331 666 
Q 3956 303 3431 151 
Q 2906 0 1856 0 
L 588 0 
L 588 4666 
z
" transform="scale(0.015625)"/>
     </defs>
     <use xlink:href="#DejaVuSans-Bold-46"/>
     <use xlink:href="#DejaVuSans-Bold-52" x="68.310547"/>
     <use xlink:href="#DejaVuSans-Bold-41" x="145.3125"/>
     <use xlink:href="#DejaVuSans-Bold-55" x="219.580078"/>
     <use xlink:href="#DejaVuSans-Bold-44" x="300.78125"/>
    </g>
   </g>
   <g id="text_10">
    <!-- 72% fraud | N=190 -->
    <g style="fill: #475569" transform="translate(43.452967 387.152378) scale(0.095 -0.095)">
     <defs>
      <path id="DejaVuSans-25" d="M 4653 2053 
Q 4381 2053 4226 1822 
Q 4072 1591 4072 1178 
Q 4072 772 4226 539 
Q 4381 306 4653 306 
Q 4919 306 5073 539 
Q 5228 772 5228 1178 
Q 5228 1588 5073 1820 
Q 4919 2053 4653 2053 
z
M 4653 2450 
Q 5147 2450 5437 2106 
Q 5728 1763 5728 1178 
Q 5728 594 5436 251 
Q 5144 -91 4653 -91 
Q 4153 -91 3862 251 
Q 3572 594 3572 1178 
Q 3572 1766 3864 2108 
Q 4156 2450 4653 2450 
z
M 1428 4353 
Q 1159 4353 1004 4120 
Q 850 3888 850 3481 
Q 850 3069 1003 2837 
Q 1156 2606 1428 2606 
Q 1700 2606 1854 2837 
Q 2009 3069 2009 3481 
Q 2009 3884 1853 4118 
Q 1697 4353 1428 4353 
z
M 4250 4750 
L 4750 4750 
L 1831 -91 
L 1331 -91 
L 4250 4750 
z
M 1428 4750 
Q 1922 4750 2215 4408 
Q 2509 4066 2509 3481 
Q 2509 2891 2217 2550 
Q 1925 2209 1428 2209 
Q 931 2209 642 2551 
Q 353 2894 353 3481 
Q 353 4063 643 4406 
Q 934 4750 1428 4750 
z
" transform="scale(0.015625)"/>
      <path id="DejaVuSans-66" d="M 2375 4863 
L 2375 4384 
L 1825 4384 
Q 1516 4384 1395 4259 
Q 1275 4134 1275 3809 
L 1275 3500 
L 2222 3500 
L 2222 3053 
L 1275 3053 
L 1275 0 
L 697 0 
L 697 3053 
L 147 3053 
L 147 3500 
L 697 3500 
L 697 3744 
Q 697 4328 969 4595 
Q 1241 4863 1831 4863 
L 2375 4863 
z
" transform="scale(0.015625)"/>
      <path id="DejaVuSans-72" d="M 2631 2963 
Q 2534 3019 2420 3045 
Q 2306 3072 2169 3072 
Q 1681 3072 1420 2755 
Q 1159 2438 1159 1844 
L 1159 0 
L 581 0 
L 581 3500 
L 1159 3500 
L 1159 2956 
Q 1341 3275 1631 3429 
Q 1922 3584 2338 3584 
Q 2397 3584 2469 3576 
Q 2541 3569 2628 3553 
L 2631 2963 
z
" transform="scale(0.015625)"/>
      <path id="DejaVuSans-61" d="M 2194 1759 
Q 1497 1759 1228 1600 
Q 959 1441 959 1056 
Q 959 750 1161 570 
Q 1363 391 1709 391 
Q 2188 391 2477 730 
Q 2766 1069 2766 1631 
L 2766 1759 
L 2194 1759 
z
M 3341 1997 
L 3341 0 
L 2766 0 
L 2766 531 
Q 2569 213 2275 61 
Q 1981 -91 1556 -91 
Q 1019 -91 701 211 
Q 384 513 384 1019 
Q 384 1609 779 1909 
Q 1175 2209 1959 2209 
L 2766 2209 
L 2766 2266 
Q 2766 2663 2505 2880 
Q 2244 3097 1772 3097 
Q 1472 3097 1187 3025 
Q 903 2953 641 2809 
L 641 3341 
Q 956 3463 1253 3523 
Q 1550 3584 1831 3584 
Q 2591 3584 2966 3190 
Q 3341 2797 3341 1997 
z
" transform="scale(0.015625)"/>
      <path id="DejaVuSans-75" d="M 544 1381 
L 544 3500 
L 1119 3500 
L 1119 1403 
Q 1119 906 1312 657 
Q 1506 409 1894 409 
Q 2359 409 2629 706 
Q 2900 1003 2900 1516 
L 2900 3500 
L 3475 3500 
L 3475 0 
L 2900 0 
L 2900 538 
Q 2691 219 2414 64 
Q 2138 -91 1772 -91 
Q 1169 -91 856 284 
Q 544 659 544 1381 
z
M 1991 3584 
L 1991 3584 
z
" transform="scale(0.015625)"/>
      <path id="DejaVuSans-64" d="M 2906 2969 
L 2906 4863 
L 3481 4863 
L 3481 0 
L 2906 0 
L 2906 525 
Q 2725 213 2448 61 
Q 2172 -91 1784 -91 
Q 1150 -91 751 415 
Q 353 922 353 1747 
Q 353 2572 751 3078 
Q 1150 3584 1784 3584 
Q 2172 3584 2448 3432 
Q 2725 3281 2906 2969 
z
M 947 1747 
Q 947 1113 1208 752 
Q 1469 391 1925 391 
Q 2381 391 2643 752 
Q 2906 1113 2906 1747 
Q 2906 2381 2643 2742 
Q 2381 3103 1925 3103 
Q 1469 3103 1208 2742 
Q 947 2381 947 1747 
z
" transform="scale(0.015625)"/>
      <path id="DejaVuSans-39" d="M 703 97 
L 703 672 
Q 941 559 1184 500 
Q 1428 441 1663 441 
Q 2288 441 2617 861 
Q 2947 1281 2994 2138 
Q 2813 1869 2534 1725 
Q 2256 1581 1919 1581 
Q 1219 1581 811 2004 
Q 403 2428 403 3163 
Q 403 3881 828 4315 
Q 1253 4750 1959 4750 
Q 2769 4750 3195 4129 
Q 3622 3509 3622 2328 
Q 3622 1225 3098 567 
Q 2575 -91 1691 -91 
Q 1453 -91 1209 -44 
Q 966 3 703 97 
z
M 1959 2075 
Q 2384 2075 2632 2365 
Q 2881 2656 2881 3163 
Q 2881 3666 2632 3958 
Q 2384 4250 1959 4250 
Q 1534 4250 1286 3958 
Q 1038 3666 1038 3163 
Q 1038 2656 1286 2365 
Q 1534 2075 1959 2075 
z
" transform="scale(0.015625)"/>
     </defs>
     <use xlink:href="#DejaVuSans-37"/>
     <use xlink:href="#DejaVuSans-32" x="63.623047"/>
     <use xlink:href="#DejaVuSans-25" x="127.246094"/>
     <use xlink:href="#DejaVuSans-20" x="222.265625"/>
     <use xlink:href="#DejaVuSans-66" x="254.052734"/>
     <use xlink:href="#DejaVuSans-72" x="289.257812"/>
     <use xlink:href="#DejaVuSans-61" x="330.371094"/>
     <use xlink:href="#DejaVuSans-75" x="391.650391"/>
     <use xlink:href="#DejaVuSans-64" x="455.029297"/>
     <use xlink:href="#DejaVuSans-20" x="518.505859"/>
     <use xlink:href="#DejaVuSans-7c" x="550.292969"/>
     <use xlink:href="#DejaVuSans-20" x="583.984375"/>
     <use xlink:href="#DejaVuSans-4e" x="615.771484"/>
     <use xlink:href="#DejaVuSans-3d" x="690.576172"/>
     <use xlink:href="#DejaVuSans-31" x="774.365234"/>
     <use xlink:href="#DejaVuSans-39" x="837.988281"/>
     <use xlink:href="#DejaVuSans-30" x="901.611328"/>
    </g>
   </g>
   <g id="text_11">
    <!-- Legit -->
    <g style="fill: #0f172a" transform="translate(310.797828 364.361576) scale(0.11 -0.11)">
     <defs>
      <path id="DejaVuSans-Bold-4c" d="M 588 4666 
L 1791 4666 
L 1791 909 
L 3903 909 
L 3903 0 
L 588 0 
L 588 4666 
z
" transform="scale(0.015625)"/>
     </defs>
     <use xlink:href="#DejaVuSans-Bold-4c"/>
     <use xlink:href="#DejaVuSans-Bold-65" x="63.720703"/>
     <use xlink:href="#DejaVuSans-Bold-67" x="131.542969"/>
     <use xlink:href="#DejaVuSans-Bold-69" x="203.125"/>
     <use xlink:href="#DejaVuSans-Bold-74" x="237.402344"/>
    </g>
   </g>
   <g id="text_12">
    <!-- 88% legit | N=230 -->
    <g style="fill: #475569" transform="translate(282.757281 387.152378) scale(0.095 -0.095)">
     <defs>
      <path id="DejaVuSans-6c" d="M 603 4863 
L 1178 4863 
L 1178 0 
L 603 0 
L 603 4863 
z
" transform="scale(0.015625)"/>
      <path id="DejaVuSans-65" d="M 3597 1894 
L 3597 1613 
L 953 1613 
Q 991 1019 1311 708 
Q 1631 397 2203 397 
Q 2534 397 2845 478 
Q 3156 559 3463 722 
L 3463 178 
Q 3153 47 2828 -22 
Q 2503 -91 2169 -91 
Q 1331 -91 842 396 
Q 353 884 353 1716 
Q 353 2575 817 3079 
Q 1281 3584 2069 3584 
Q 2775 3584 3186 3129 
Q 3597 2675 3597 1894 
z
M 3022 2063 
Q 3016 2534 2758 2815 
Q 2500 3097 2075 3097 
Q 1594 3097 1305 2825 
Q 1016 2553 972 2059 
L 3022 2063 
z
" transform="scale(0.015625)"/>
      <path id="DejaVuSans-67" d="M 2906 1791 
Q 2906 2416 2648 2759 
Q 2391 3103 1925 3103 
Q 1463 3103 1205 2759 
Q 947 2416 947 1791 
Q 947 1169 1205 825 
Q 1463 481 1925 481 
Q 2391 481 2648 825 
Q 2906 1169 2906 1791 
z
M 3481 434 
Q 3481 -459 3084 -895 
Q 2688 -1331 1869 -1331 
Q 1566 -1331 1297 -1286 
Q 1028 -1241 775 -1147 
L 775 -588 
Q 1028 -725 1275 -790 
Q 1522 -856 1778 -856 
Q 2344 -856 2625 -561 
Q 2906 -266 2906 331 
L 2906 616 
Q 2728 306 2450 153 
Q 2172 0 1784 0 
Q 1141 0 747 490 
Q 353 981 353 1791 
Q 353 2603 747 3093 
Q 1141 3584 1784 3584 
Q 2172 3584 2450 3431 
Q 2728 3278 2906 2969 
L 2906 3500 
L 3481 3500 
L 3481 434 
z
" transform="scale(0.015625)"/>
      <path id="DejaVuSans-74" d="M 1172 4494 
L 1172 3500 
L 2356 3500 
L 2356 3053 
L 1172 3053 
L 1172 1153 
Q 1172 725 1289 603 
Q 1406 481 1766 481 
L 2356 481 
L 2356 0 
L 1766 0 
Q 1100 0 847 248 
Q 594 497 594 1153 
L 594 3053 
L 172 3053 
L 172 3500 
L 594 3500 
L 594 4494 
L 1172 4494 
z
" transform="scale(0.015625)"/>
     </defs>
     <use xlink:href="#DejaVuSans-38"/>
     <use xlink:href="#DejaVuSans-38" x="63.623047"/>
     <use xlink:href="#DejaVuSans-25" x="127.246094"/>
     <use xlink:href="#DejaVuSans-20" x="222.265625"/>
     <use xlink:href="#DejaVuSans-6c" x="254.052734"/>
     <use xlink:href="#DejaVuSans-65" x="281.835938"/>
     <use xlink:href="#DejaVuSans-67" x="343.359375"/>
     <use xlink:href="#DejaVuSans-69" x="406.835938"/>
     <use xlink:href="#DejaVuSans-74" x="434.619141"/>
     <use xlink:href="#DejaVuSans-20" x="473.828125"/>
     <use xlink:href="#DejaVuSans-7c" x="505.615234"/>
     <use xlink:href="#DejaVuSans-20" x="539.306641"/>
     <use xlink:href="#DejaVuSans-4e" x="571.09375"/>
     <use xlink:href="#DejaVuSans-3d" x="645.898438"/>
     <use xlink:href="#DejaVuSans-32" x="729.6875"/>
     <use xlink:href="#DejaVuSans-33" x="793.310547"/>
     <use xlink:href="#DejaVuSans-30" x="856.933594"/>
    </g>
   </g>
   <g id="text_13">
    <!-- FRAUD -->
    <g style="fill: #0f172a" transform="translate(579.047172 364.404545) scale(0.11 -0.11)">
     <use xlink:href="#DejaVuSans-Bold-46"/>
     <use xlink:href="#DejaVuSans-Bold-52" x="68.310547"/>
     <use xlink:href="#DejaVuSans-Bold-41" x="145.3125"/>
     <use xlink:href="#DejaVuSans-Bold-55" x="219.580078"/>
     <use xlink:href="#DejaVuSans-Bold-44" x="300.78125"/>
    </g>
   </g>
   <g id="text_14">
    <!-- 61% fraud | N=165 -->
    <g style="fill: #475569" transform="translate(554.307367 387.152378) scale(0.095 -0.095)">
     <defs>
      <path id="DejaVuSans-36" d="M 2113 2584 
Q 1688 2584 1439 2293 
Q 1191 2003 1191 1497 
Q 1191 994 1439 701 
Q 1688 409 2113 409 
Q 2538 409 2786 701 
Q 3034 994 3034 1497 
Q 3034 2003 2786 2293 
Q 2538 2584 2113 2584 
z
M 3366 4563 
L 3366 3988 
Q 3128 4100 2886 4159 
Q 2644 4219 2406 4219 
Q 1781 4219 1451 3797 
Q 1122 3375 1075 2522 
Q 1259 2794 1537 2939 
Q 1816 3084 2150 3084 
Q 2853 3084 3261 2657 
Q 3669 2231 3669 1497 
Q 3669 778 3244 343 
Q 2819 -91 2113 -91 
Q 1303 -91 875 529 
Q 447 1150 447 2328 
Q 447 3434 972 4092 
Q 1497 4750 2381 4750 
Q 2619 4750 2861 4703 
Q 3103 4656 3366 4563 
z
" transform="scale(0.015625)"/>
     </defs>
     <use xlink:href="#DejaVuSans-36"/>
     <use xlink:href="#DejaVuSans-31" x="63.623047"/>
     <use xlink:href="#DejaVuSans-25" x="127.246094"/>
     <use xlink:href="#DejaVuSans-20" x="222.265625"/>
     <use xlink:href="#DejaVuSans-66" x="254.052734"/>
     <use xlink:href="#DejaVuSans-72" x="289.257812"/>
     <use xlink:href="#DejaVuSans-61" x="330.371094"/>
     <use xlink:href="#DejaVuSans-75" x="391.650391"/>
     <use xlink:href="#DejaVuSans-64" x="455.029297"/>
     <use xlink:href="#DejaVuSans-20" x="518.505859"/>
     <use xlink:href="#DejaVuSans-7c" x="550.292969"/>
     <use xlink:href="#DejaVuSans-20" x="583.984375"/>
     <use xlink:href="#DejaVuSans-4e" x="615.771484"/>
     <use xlink:href="#DejaVuSans-3d" x="690.576172"/>
     <use xlink:href="#DejaVuSans-31" x="774.365234"/>
     <use xlink:href="#DejaVuSans-36" x="837.988281"/>
     <use xlink:href="#DejaVuSans-35" x="901.611328"/>
    </g>
   </g>
   <g id="text_15">
    <!-- Legit -->
    <g style="fill: #0f172a" transform="translate(821.652228 364.361576) scale(0.11 -0.11)">
     <use xlink:href="#DejaVuSans-Bold-4c"/>
     <use xlink:href="#DejaVuSans-Bold-65" x="63.720703"/>
     <use xlink:href="#DejaVuSans-Bold-67" x="131.542969"/>
     <use xlink:href="#DejaVuSans-Bold-69" x="203.125"/>
     <use xlink:href="#DejaVuSans-Bold-74" x="237.402344"/>
    </g>
   </g>
   <g id="text_16">
    <!-- 94% legit | N=415 -->
    <g style="fill: #475569" transform="translate(793.611681 387.152378) scale(0.095 -0.095)">
     <use xlink:href="#DejaVuSans-39"/>
     <use xlink:href="#DejaVuSans-34" x="63.623047"/>
     <use xlink:href="#DejaVuSans-25" x="127.246094"/>
     <use xlink:href="#DejaVuSans-20" x="222.265625"/>
     <use xlink:href="#DejaVuSans-6c" x="254.052734"/>
     <use xlink:href="#DejaVuSans-65" x="281.835938"/>
     <use xlink:href="#DejaVuSans-67" x="343.359375"/>
     <use xlink:href="#DejaVuSans-69" x="406.835938"/>
     <use xlink:href="#DejaVuSans-74" x="434.619141"/>
     <use xlink:href="#DejaVuSans-20" x="473.828125"/>
     <use xlink:href="#DejaVuSans-7c" x="505.615234"/>
     <use xlink:href="#DejaVuSans-20" x="539.306641"/>
     <use xlink:href="#DejaVuSans-4e" x="571.09375"/>
     <use xlink:href="#DejaVuSans-3d" x="645.898438"/>
     <use xlink:href="#DejaVuSans-34" x="729.6875"/>
     <use xlink:href="#DejaVuSans-31" x="793.310547"/>
     <use xlink:href="#DejaVuSans-35" x="856.933594"/>
    </g>
   </g>
   <g id="text_17">
    <!-- Yes -->
    <g style="fill: #dc2626" transform="translate(80.1792 295.867656) scale(0.095 -0.095)">
     <use xlink:href="#DejaVuSans-Bold-59"/>
     <use xlink:href="#DejaVuSans-Bold-65" x="63.287109"/>
     <use xlink:href="#DejaVuSans-Bold-73" x="131.109375"/>
    </g>
   </g>
   <g id="text_18">
    <!-- No -->
    <g style="fill: #16a34a" transform="translate(308.2392 295.867656) scale(0.095 -0.095)">
     <use xlink:href="#DejaVuSans-Bold-4e"/>
     <use xlink:href="#DejaVuSans-Bold-6f" x="83.691406"/>
    </g>
   </g>
   <g id="text_19">
    <!-- Yes -->
    <g style="fill: #dc2626" transform="translate(563.6664 295.867656) scale(0.095 -0.095)">
     <use xlink:href="#DejaVuSans-Bold-59"/>
     <use xlink:href="#DejaVuSans-Bold-65" x="63.287109"/>
     <use xlink:href="#DejaVuSans-Bold-73" x="131.109375"/>
    </g>
   </g>
   <g id="text_20">
    <!-- No -->
    <g style="fill: #16a34a" transform="translate(819.0936 295.867656) scale(0.095 -0.095)">
     <use xlink:href="#DejaVuSans-Bold-4e"/>
     <use xlink:href="#DejaVuSans-Bold-6f" x="83.691406"/>
    </g>
   </g>
   <g id="text_21">
    <g id="patch_15">
     <path d="M 248.640117 465.478728 
L 677.999883 465.478728 
Q 682.199883 465.478728 682.199883 461.278728 
L 682.199883 439.358994 
Q 682.199883 435.158994 677.999883 435.158994 
L 248.640117 435.158994 
Q 244.440117 435.158994 244.440117 439.358994 
L 244.440117 461.278728 
Q 244.440117 465.478728 248.640117 465.478728 
z
" style="fill: #f8fafc; stroke: #94a3b8; stroke-linejoin: miter"/>
    </g>
    <!-- Each internal node splits on the feature + threshold with the lowest Gini impurity. -->
    <g style="fill: #334155" transform="translate(248.640117 447.337353) scale(0.105 -0.105)">
     <defs>
      <path id="DejaVuSans-45" d="M 628 4666 
L 3578 4666 
L 3578 4134 
L 1259 4134 
L 1259 2753 
L 3481 2753 
L 3481 2222 
L 1259 2222 
L 1259 531 
L 3634 531 
L 3634 0 
L 628 0 
L 628 4666 
z
" transform="scale(0.015625)"/>
      <path id="DejaVuSans-63" d="M 3122 3366 
L 3122 2828 
Q 2878 2963 2633 3030 
Q 2388 3097 2138 3097 
Q 1578 3097 1268 2742 
Q 959 2388 959 1747 
Q 959 1106 1268 751 
Q 1578 397 2138 397 
Q 2388 397 2633 464 
Q 2878 531 3122 666 
L 3122 134 
Q 2881 22 2623 -34 
Q 2366 -91 2075 -91 
Q 1284 -91 818 406 
Q 353 903 353 1747 
Q 353 2603 823 3093 
Q 1294 3584 2113 3584 
Q 2378 3584 2631 3529 
Q 2884 3475 3122 3366 
z
" transform="scale(0.015625)"/>
      <path id="DejaVuSans-68" d="M 3513 2113 
L 3513 0 
L 2938 0 
L 2938 2094 
Q 2938 2591 2744 2837 
Q 2550 3084 2163 3084 
Q 1697 3084 1428 2787 
Q 1159 2491 1159 1978 
L 1159 0 
L 581 0 
L 581 4863 
L 1159 4863 
L 1159 2956 
Q 1366 3272 1645 3428 
Q 1925 3584 2291 3584 
Q 2894 3584 3203 3211 
Q 3513 2838 3513 2113 
z
" transform="scale(0.015625)"/>
      <path id="DejaVuSans-6f" d="M 1959 3097 
Q 1497 3097 1228 2736 
Q 959 2375 959 1747 
Q 959 1119 1226 758 
Q 1494 397 1959 397 
Q 2419 397 2687 759 
Q 2956 1122 2956 1747 
Q 2956 2369 2687 2733 
Q 2419 3097 1959 3097 
z
M 1959 3584 
Q 2709 3584 3137 3096 
Q 3566 2609 3566 1747 
Q 3566 888 3137 398 
Q 2709 -91 1959 -91 
Q 1206 -91 779 398 
Q 353 888 353 1747 
Q 353 2609 779 3096 
Q 1206 3584 1959 3584 
z
" transform="scale(0.015625)"/>
      <path id="DejaVuSans-73" d="M 2834 3397 
L 2834 2853 
Q 2591 2978 2328 3040 
Q 2066 3103 1784 3103 
Q 1356 3103 1142 2972 
Q 928 2841 928 2578 
Q 928 2378 1081 2264 
Q 1234 2150 1697 2047 
L 1894 2003 
Q 2506 1872 2764 1633 
Q 3022 1394 3022 966 
Q 3022 478 2636 193 
Q 2250 -91 1575 -91 
Q 1294 -91 989 -36 
Q 684 19 347 128 
L 347 722 
Q 666 556 975 473 
Q 1284 391 1588 391 
Q 1994 391 2212 530 
Q 2431 669 2431 922 
Q 2431 1156 2273 1281 
Q 2116 1406 1581 1522 
L 1381 1569 
Q 847 1681 609 1914 
Q 372 2147 372 2553 
Q 372 3047 722 3315 
Q 1072 3584 1716 3584 
Q 2034 3584 2315 3537 
Q 2597 3491 2834 3397 
z
" transform="scale(0.015625)"/>
      <path id="DejaVuSans-70" d="M 1159 525 
L 1159 -1331 
L 581 -1331 
L 581 3500 
L 1159 3500 
L 1159 2969 
Q 1341 3281 1617 3432 
Q 1894 3584 2278 3584 
Q 2916 3584 3314 3078 
Q 3713 2572 3713 1747 
Q 3713 922 3314 415 
Q 2916 -91 2278 -91 
Q 1894 -91 1617 61 
Q 1341 213 1159 525 
z
M 3116 1747 
Q 3116 2381 2855 2742 
Q 2594 3103 2138 3103 
Q 1681 3103 1420 2742 
Q 1159 2381 1159 1747 
Q 1159 1113 1420 752 
Q 1681 391 2138 391 
Q 2594 391 2855 752 
Q 3116 1113 3116 1747 
z
" transform="scale(0.015625)"/>
      <path id="DejaVuSans-2b" d="M 2944 4013 
L 2944 2272 
L 4684 2272 
L 4684 1741 
L 2944 1741 
L 2944 0 
L 2419 0 
L 2419 1741 
L 678 1741 
L 678 2272 
L 2419 2272 
L 2419 4013 
L 2944 4013 
z
" transform="scale(0.015625)"/>
      <path id="DejaVuSans-77" d="M 269 3500 
L 844 3500 
L 1563 769 
L 2278 3500 
L 2956 3500 
L 3675 769 
L 4391 3500 
L 4966 3500 
L 4050 0 
L 3372 0 
L 2619 2869 
L 1863 0 
L 1184 0 
L 269 3500 
z
" transform="scale(0.015625)"/>
      <path id="DejaVuSans-6d" d="M 3328 2828 
Q 3544 3216 3844 3400 
Q 4144 3584 4550 3584 
Q 5097 3584 5394 3201 
Q 5691 2819 5691 2113 
L 5691 0 
L 5113 0 
L 5113 2094 
Q 5113 2597 4934 2840 
Q 4756 3084 4391 3084 
Q 3944 3084 3684 2787 
Q 3425 2491 3425 1978 
L 3425 0 
L 2847 0 
L 2847 2094 
Q 2847 2600 2669 2842 
Q 2491 3084 2119 3084 
Q 1678 3084 1418 2786 
Q 1159 2488 1159 1978 
L 1159 0 
L 581 0 
L 581 3500 
L 1159 3500 
L 1159 2956 
Q 1356 3278 1631 3431 
Q 1906 3584 2284 3584 
Q 2666 3584 2933 3390 
Q 3200 3197 3328 2828 
z
" transform="scale(0.015625)"/>
      <path id="DejaVuSans-79" d="M 2059 -325 
Q 1816 -950 1584 -1140 
Q 1353 -1331 966 -1331 
L 506 -1331 
L 506 -850 
L 844 -850 
Q 1081 -850 1212 -737 
Q 1344 -625 1503 -206 
L 1606 56 
L 191 3500 
L 800 3500 
L 1894 763 
L 2988 3500 
L 3597 3500 
L 2059 -325 
z
" transform="scale(0.015625)"/>
     </defs>
     <use xlink:href="#DejaVuSans-45"/>
     <use xlink:href="#DejaVuSans-61" x="63.183594"/>
     <use xlink:href="#DejaVuSans-63" x="124.462891"/>
     <use xlink:href="#DejaVuSans-68" x="179.443359"/>
     <use xlink:href="#DejaVuSans-20" x="242.822266"/>
     <use xlink:href="#DejaVuSans-69" x="274.609375"/>
     <use xlink:href="#DejaVuSans-6e" x="302.392578"/>
     <use xlink:href="#DejaVuSans-74" x="365.771484"/>
     <use xlink:href="#DejaVuSans-65" x="404.980469"/>
     <use xlink:href="#DejaVuSans-72" x="466.503906"/>
     <use xlink:href="#DejaVuSans-6e" x="505.867188"/>
     <use xlink:href="#DejaVuSans-61" x="569.246094"/>
     <use xlink:href="#DejaVuSans-6c" x="630.525391"/>
     <use xlink:href="#DejaVuSans-20" x="658.308594"/>
     <use xlink:href="#DejaVuSans-6e" x="690.095703"/>
     <use xlink:href="#DejaVuSans-6f" x="753.474609"/>
     <use xlink:href="#DejaVuSans-64" x="814.65625"/>
     <use xlink:href="#DejaVuSans-65" x="878.132812"/>
     <use xlink:href="#DejaVuSans-20" x="939.65625"/>
     <use xlink:href="#DejaVuSans-73" x="971.443359"/>
     <use xlink:href="#DejaVuSans-70" x="1023.542969"/>
     <use xlink:href="#DejaVuSans-6c" x="1087.019531"/>
     <use xlink:href="#DejaVuSans-69" x="1114.802734"/>
     <use xlink:href="#DejaVuSans-74" x="1142.585938"/>
     <use xlink:href="#DejaVuSans-73" x="1181.794922"/>
     <use xlink:href="#DejaVuSans-20" x="1233.894531"/>
     <use xlink:href="#DejaVuSans-6f" x="1265.681641"/>
     <use xlink:href="#DejaVuSans-6e" x="1326.863281"/>
     <use xlink:href="#DejaVuSans-20" x="1390.242188"/>
     <use xlink:href="#DejaVuSans-74" x="1422.029297"/>
     <use xlink:href="#DejaVuSans-68" x="1461.238281"/>
     <use xlink:href="#DejaVuSans-65" x="1524.617188"/>
     <use xlink:href="#DejaVuSans-20" x="1586.140625"/>
     <use xlink:href="#DejaVuSans-66" x="1617.927734"/>
     <use xlink:href="#DejaVuSans-65" x="1653.132812"/>
     <use xlink:href="#DejaVuSans-61" x="1714.65625"/>
     <use xlink:href="#DejaVuSans-74" x="1775.935547"/>
     <use xlink:href="#DejaVuSans-75" x="1815.144531"/>
     <use xlink:href="#DejaVuSans-72" x="1878.523438"/>
     <use xlink:href="#DejaVuSans-65" x="1917.386719"/>
     <use xlink:href="#DejaVuSans-20" x="1978.910156"/>
     <use xlink:href="#DejaVuSans-2b" x="2010.697266"/>
     <use xlink:href="#DejaVuSans-20" x="2094.486328"/>
     <use xlink:href="#DejaVuSans-74" x="2126.273438"/>
     <use xlink:href="#DejaVuSans-68" x="2165.482422"/>
     <use xlink:href="#DejaVuSans-72" x="2228.861328"/>
     <use xlink:href="#DejaVuSans-65" x="2267.724609"/>
     <use xlink:href="#DejaVuSans-73" x="2329.248047"/>
     <use xlink:href="#DejaVuSans-68" x="2381.347656"/>
     <use xlink:href="#DejaVuSans-6f" x="2444.726562"/>
     <use xlink:href="#DejaVuSans-6c" x="2505.908203"/>
     <use xlink:href="#DejaVuSans-64" x="2533.691406"/>
     <use xlink:href="#DejaVuSans-20" x="2597.167969"/>
     <use xlink:href="#DejaVuSans-77" x="2628.955078"/>
     <use xlink:href="#DejaVuSans-69" x="2710.742188"/>
     <use xlink:href="#DejaVuSans-74" x="2738.525391"/>
     <use xlink:href="#DejaVuSans-68" x="2777.734375"/>
     <use xlink:href="#DejaVuSans-20" x="2841.113281"/>
     <use xlink:href="#DejaVuSans-74" x="2872.900391"/>
     <use xlink:href="#DejaVuSans-68" x="2912.109375"/>
     <use xlink:href="#DejaVuSans-65" x="2975.488281"/>
     <use xlink:href="#DejaVuSans-20" x="3037.011719"/>
     <use xlink:href="#DejaVuSans-6c" x="3068.798828"/>
     <use xlink:href="#DejaVuSans-6f" x="3096.582031"/>
     <use xlink:href="#DejaVuSans-77" x="3157.763672"/>
     <use xlink:href="#DejaVuSans-65" x="3239.550781"/>
     <use xlink:href="#DejaVuSans-73" x="3301.074219"/>
     <use xlink:href="#DejaVuSans-74" x="3353.173828"/>
     <use xlink:href="#DejaVuSans-20" x="3392.382812"/>
     <use xlink:href="#DejaVuSans-47" x="3424.169922"/>
     <use xlink:href="#DejaVuSans-69" x="3501.660156"/>
     <use xlink:href="#DejaVuSans-6e" x="3529.443359"/>
     <use xlink:href="#DejaVuSans-69" x="3592.822266"/>
     <use xlink:href="#DejaVuSans-20" x="3620.605469"/>
     <use xlink:href="#DejaVuSans-69" x="3652.392578"/>
     <use xlink:href="#DejaVuSans-6d" x="3680.175781"/>
     <use xlink:href="#DejaVuSans-70" x="3777.587891"/>
     <use xlink:href="#DejaVuSans-75" x="3841.064453"/>
     <use xlink:href="#DejaVuSans-72" x="3904.443359"/>
     <use xlink:href="#DejaVuSans-69" x="3945.556641"/>
     <use xlink:href="#DejaVuSans-74" x="3973.339844"/>
     <use xlink:href="#DejaVuSans-79" x="4012.548828"/>
     <use xlink:href="#DejaVuSans-2e" x="4057.478516"/>
    </g>
    <!-- Leaves output the majority class and its proportion in that partition. -->
    <g style="fill: #334155" transform="translate(284.6625 459.095056) scale(0.105 -0.105)">
     <defs>
      <path id="DejaVuSans-4c" d="M 628 4666 
L 1259 4666 
L 1259 531 
L 3531 531 
L 3531 0 
L 628 0 
L 628 4666 
z
" transform="scale(0.015625)"/>
      <path id="DejaVuSans-76" d="M 191 3500 
L 800 3500 
L 1894 563 
L 2988 3500 
L 3597 3500 
L 2284 0 
L 1503 0 
L 191 3500 
z
" transform="scale(0.015625)"/>
      <path id="DejaVuSans-6a" d="M 603 3500 
L 1178 3500 
L 1178 -63 
Q 1178 -731 923 -1031 
Q 669 -1331 103 -1331 
L -116 -1331 
L -116 -844 
L 38 -844 
Q 366 -844 484 -692 
Q 603 -541 603 -63 
L 603 3500 
z
M 603 4863 
L 1178 4863 
L 1178 4134 
L 603 4134 
L 603 4863 
z
" transform="scale(0.015625)"/>
     </defs>
     <use xlink:href="#DejaVuSans-4c"/>
     <use xlink:href="#DejaVuSans-65" x="53.962891"/>
     <use xlink:href="#DejaVuSans-61" x="115.486328"/>
     <use xlink:href="#DejaVuSans-76" x="176.765625"/>
     <use xlink:href="#DejaVuSans-65" x="235.945312"/>
     <use xlink:href="#DejaVuSans-73" x="297.46875"/>
     <use xlink:href="#DejaVuSans-20" x="349.568359"/>
     <use xlink:href="#DejaVuSans-6f" x="381.355469"/>
     <use xlink:href="#DejaVuSans-75" x="442.537109"/>
     <use xlink:href="#DejaVuSans-74" x="505.916016"/>
     <use xlink:href="#DejaVuSans-70" x="545.125"/>
     <use xlink:href="#DejaVuSans-75" x="608.601562"/>
     <use xlink:href="#DejaVuSans-74" x="671.980469"/>
     <use xlink:href="#DejaVuSans-20" x="711.189453"/>
     <use xlink:href="#DejaVuSans-74" x="742.976562"/>
     <use xlink:href="#DejaVuSans-68" x="782.185547"/>
     <use xlink:href="#DejaVuSans-65" x="845.564453"/>
     <use xlink:href="#DejaVuSans-20" x="907.087891"/>
     <use xlink:href="#DejaVuSans-6d" x="938.875"/>
     <use xlink:href="#DejaVuSans-61" x="1036.287109"/>
     <use xlink:href="#DejaVuSans-6a" x="1097.566406"/>
     <use xlink:href="#DejaVuSans-6f" x="1125.349609"/>
     <use xlink:href="#DejaVuSans-72" x="1186.53125"/>
     <use xlink:href="#DejaVuSans-69" x="1227.644531"/>
     <use xlink:href="#DejaVuSans-74" x="1255.427734"/>
     <use xlink:href="#DejaVuSans-79" x="1294.636719"/>
     <use xlink:href="#DejaVuSans-20" x="1353.816406"/>
     <use xlink:href="#DejaVuSans-63" x="1385.603516"/>
     <use xlink:href="#DejaVuSans-6c" x="1440.583984"/>
     <use xlink:href="#DejaVuSans-61" x="1468.367188"/>
     <use xlink:href="#DejaVuSans-73" x="1529.646484"/>
     <use xlink:href="#DejaVuSans-73" x="1581.746094"/>
     <use xlink:href="#DejaVuSans-20" x="1633.845703"/>
     <use xlink:href="#DejaVuSans-61" x="1665.632812"/>
     <use xlink:href="#DejaVuSans-6e" x="1726.912109"/>
     <use xlink:href="#DejaVuSans-64" x="1790.291016"/>
     <use xlink:href="#DejaVuSans-20" x="1853.767578"/>
     <use xlink:href="#DejaVuSans-69" x="1885.554688"/>
     <use xlink:href="#DejaVuSans-74" x="1913.337891"/>
     <use xlink:href="#DejaVuSans-73" x="1952.546875"/>
     <use xlink:href="#DejaVuSans-20" x="2004.646484"/>
     <use xlink:href="#DejaVuSans-70" x="2036.433594"/>
     <use xlink:href="#DejaVuSans-72" x="2099.910156"/>
     <use xlink:href="#DejaVuSans-6f" x="2138.773438"/>
     <use xlink:href="#DejaVuSans-70" x="2199.955078"/>
     <use xlink:href="#DejaVuSans-6f" x="2263.431641"/>
     <use xlink:href="#DejaVuSans-72" x="2324.613281"/>
     <use xlink:href="#DejaVuSans-74" x="2365.726562"/>
     <use xlink:href="#DejaVuSans-69" x="2404.935547"/>
     <use xlink:href="#DejaVuSans-6f" x="2432.71875"/>
     <use xlink:href="#DejaVuSans-6e" x="2493.900391"/>
     <use xlink:href="#DejaVuSans-20" x="2557.279297"/>
     <use xlink:href="#DejaVuSans-69" x="2589.066406"/>
     <use xlink:href="#DejaVuSans-6e" x="2616.849609"/>
     <use xlink:href="#DejaVuSans-20" x="2680.228516"/>
     <use xlink:href="#DejaVuSans-74" x="2712.015625"/>
     <use xlink:href="#DejaVuSans-68" x="2751.224609"/>
     <use xlink:href="#DejaVuSans-61" x="2814.603516"/>
     <use xlink:href="#DejaVuSans-74" x="2875.882812"/>
     <use xlink:href="#DejaVuSans-20" x="2915.091797"/>
     <use xlink:href="#DejaVuSans-70" x="2946.878906"/>
     <use xlink:href="#DejaVuSans-61" x="3010.355469"/>
     <use xlink:href="#DejaVuSans-72" x="3071.634766"/>
     <use xlink:href="#DejaVuSans-74" x="3112.748047"/>
     <use xlink:href="#DejaVuSans-69" x="3151.957031"/>
     <use xlink:href="#DejaVuSans-74" x="3179.740234"/>
     <use xlink:href="#DejaVuSans-69" x="3218.949219"/>
     <use xlink:href="#DejaVuSans-6f" x="3246.732422"/>
     <use xlink:href="#DejaVuSans-6e" x="3307.914062"/>
     <use xlink:href="#DejaVuSans-2e" x="3371.292969"/>
    </g>
   </g>
   <g id="text_22">
    <!-- Decision Tree: Recursive Feature Splits → Leaf Predictions -->
    <g style="fill: #0f172a" transform="translate(217.771172 18.597656) scale(0.15 -0.15)">
     <defs>
      <path id="DejaVuSans-Bold-54" d="M 31 4666 
L 4331 4666 
L 4331 3756 
L 2784 3756 
L 2784 0 
L 1581 0 
L 1581 3756 
L 31 3756 
L 31 4666 
z
" transform="scale(0.015625)"/>
      <path id="DejaVuSans-Bold-3a" d="M 716 3500 
L 1844 3500 
L 1844 2291 
L 716 2291 
L 716 3500 
z
M 716 1209 
L 1844 1209 
L 1844 0 
L 716 0 
L 716 1209 
z
" transform="scale(0.015625)"/>
      <path id="DejaVuSans-Bold-76" d="M 97 3500 
L 1216 3500 
L 2088 1081 
L 2956 3500 
L 4078 3500 
L 2700 0 
L 1472 0 
L 97 3500 
z
" transform="scale(0.015625)"/>
      <path id="DejaVuSans-Bold-53" d="M 3834 4519 
L 3834 3531 
Q 3450 3703 3084 3790 
Q 2719 3878 2394 3878 
Q 1963 3878 1756 3759 
Q 1550 3641 1550 3391 
Q 1550 3203 1689 3098 
Q 1828 2994 2194 2919 
L 2706 2816 
Q 3484 2659 3812 2340 
Q 4141 2022 4141 1434 
Q 4141 663 3683 286 
Q 3225 -91 2284 -91 
Q 1841 -91 1394 -6 
Q 947 78 500 244 
L 500 1259 
Q 947 1022 1364 901 
Q 1781 781 2169 781 
Q 2563 781 2772 912 
Q 2981 1044 2981 1288 
Q 2981 1506 2839 1625 
Q 2697 1744 2272 1838 
L 1806 1941 
Q 1106 2091 782 2419 
Q 459 2747 459 3303 
Q 459 4000 909 4375 
Q 1359 4750 2203 4750 
Q 2588 4750 2994 4692 
Q 3400 4634 3834 4519 
z
" transform="scale(0.015625)"/>
      <path id="DejaVuSans-Bold-70" d="M 1656 506 
L 1656 -1331 
L 538 -1331 
L 538 3500 
L 1656 3500 
L 1656 2988 
Q 1888 3294 2169 3439 
Q 2450 3584 2816 3584 
Q 3463 3584 3878 3070 
Q 4294 2556 4294 1747 
Q 4294 938 3878 423 
Q 3463 -91 2816 -91 
Q 2450 -91 2169 54 
Q 1888 200 1656 506 
z
M 2400 2772 
Q 2041 2772 1848 2508 
Q 1656 2244 1656 1747 
Q 1656 1250 1848 986 
Q 2041 722 2400 722 
Q 2759 722 2948 984 
Q 3138 1247 3138 1747 
Q 3138 2247 2948 2509 
Q 2759 2772 2400 2772 
z
" transform="scale(0.015625)"/>
      <path id="DejaVuSans-Bold-6c" d="M 538 4863 
L 1656 4863 
L 1656 0 
L 538 0 
L 538 4863 
z
" transform="scale(0.015625)"/>
      <path id="DejaVuSans-Bold-2192" d="M 5050 2225 
L 5050 1788 
L 3822 559 
L 3369 1013 
L 3988 1631 
L 366 1631 
L 366 2381 
L 3988 2381 
L 3369 3000 
L 3822 3453 
L 5050 2225 
z
" transform="scale(0.015625)"/>
      <path id="DejaVuSans-Bold-50" d="M 588 4666 
L 2584 4666 
Q 3475 4666 3951 4270 
Q 4428 3875 4428 3144 
Q 4428 2409 3951 2014 
Q 3475 1619 2584 1619 
L 1791 1619 
L 1791 0 
L 588 0 
L 588 4666 
z
M 1791 3794 
L 1791 2491 
L 2456 2491 
Q 2806 2491 2997 2661 
Q 3188 2831 3188 3144 
Q 3188 3456 2997 3625 
Q 2806 3794 2456 3794 
L 1791 3794 
z
" transform="scale(0.015625)"/>
     </defs>
     <use xlink:href="#DejaVuSans-Bold-44"/>
     <use xlink:href="#DejaVuSans-Bold-65" x="83.007812"/>
     <use xlink:href="#DejaVuSans-Bold-63" x="150.830078"/>
     <use xlink:href="#DejaVuSans-Bold-69" x="210.107422"/>
     <use xlink:href="#DejaVuSans-Bold-73" x="244.384766"/>
     <use xlink:href="#DejaVuSans-Bold-69" x="303.90625"/>
     <use xlink:href="#DejaVuSans-Bold-6f" x="338.183594"/>
     <use xlink:href="#DejaVuSans-Bold-6e" x="406.884766"/>
     <use xlink:href="#DejaVuSans-Bold-20" x="478.076172"/>
     <use xlink:href="#DejaVuSans-Bold-54" x="512.890625"/>
     <use xlink:href="#DejaVuSans-Bold-72" x="570.103516"/>
     <use xlink:href="#DejaVuSans-Bold-65" x="619.419922"/>
     <use xlink:href="#DejaVuSans-Bold-65" x="687.242188"/>
     <use xlink:href="#DejaVuSans-Bold-3a" x="755.064453"/>
     <use xlink:href="#DejaVuSans-Bold-20" x="795.054688"/>
     <use xlink:href="#DejaVuSans-Bold-52" x="829.869141"/>
     <use xlink:href="#DejaVuSans-Bold-65" x="906.871094"/>
     <use xlink:href="#DejaVuSans-Bold-63" x="974.693359"/>
     <use xlink:href="#DejaVuSans-Bold-75" x="1033.970703"/>
     <use xlink:href="#DejaVuSans-Bold-72" x="1105.162109"/>
     <use xlink:href="#DejaVuSans-Bold-73" x="1154.478516"/>
     <use xlink:href="#DejaVuSans-Bold-69" x="1214"/>
     <use xlink:href="#DejaVuSans-Bold-76" x="1248.277344"/>
     <use xlink:href="#DejaVuSans-Bold-65" x="1313.462891"/>
     <use xlink:href="#DejaVuSans-Bold-20" x="1381.285156"/>
     <use xlink:href="#DejaVuSans-Bold-46" x="1416.099609"/>
     <use xlink:href="#DejaVuSans-Bold-65" x="1480.410156"/>
     <use xlink:href="#DejaVuSans-Bold-61" x="1548.232422"/>
     <use xlink:href="#DejaVuSans-Bold-74" x="1615.712891"/>
     <use xlink:href="#DejaVuSans-Bold-75" x="1663.515625"/>
     <use xlink:href="#DejaVuSans-Bold-72" x="1734.707031"/>
     <use xlink:href="#DejaVuSans-Bold-65" x="1784.023438"/>
     <use xlink:href="#DejaVuSans-Bold-20" x="1851.845703"/>
     <use xlink:href="#DejaVuSans-Bold-53" x="1886.660156"/>
     <use xlink:href="#DejaVuSans-Bold-70" x="1958.681641"/>
     <use xlink:href="#DejaVuSans-Bold-6c" x="2030.263672"/>
     <use xlink:href="#DejaVuSans-Bold-69" x="2064.541016"/>
     <use xlink:href="#DejaVuSans-Bold-74" x="2098.818359"/>
     <use xlink:href="#DejaVuSans-Bold-73" x="2146.621094"/>
     <use xlink:href="#DejaVuSans-Bold-20" x="2206.142578"/>
     <use xlink:href="#DejaVuSans-Bold-2192" x="2240.957031"/>
     <use xlink:href="#DejaVuSans-Bold-20" x="2324.746094"/>
     <use xlink:href="#DejaVuSans-Bold-4c" x="2359.560547"/>
     <use xlink:href="#DejaVuSans-Bold-65" x="2423.28125"/>
     <use xlink:href="#DejaVuSans-Bold-61" x="2491.103516"/>
     <use xlink:href="#DejaVuSans-Bold-66" x="2558.583984"/>
     <use xlink:href="#DejaVuSans-Bold-20" x="2602.089844"/>
     <use xlink:href="#DejaVuSans-Bold-50" x="2636.904297"/>
     <use xlink:href="#DejaVuSans-Bold-72" x="2710.195312"/>
     <use xlink:href="#DejaVuSans-Bold-65" x="2759.511719"/>
     <use xlink:href="#DejaVuSans-Bold-64" x="2827.333984"/>
     <use xlink:href="#DejaVuSans-Bold-69" x="2898.916016"/>
     <use xlink:href="#DejaVuSans-Bold-63" x="2933.193359"/>
     <use xlink:href="#DejaVuSans-Bold-74" x="2992.470703"/>
     <use xlink:href="#DejaVuSans-Bold-69" x="3040.273438"/>
     <use xlink:href="#DejaVuSans-Bold-6f" x="3074.550781"/>
     <use xlink:href="#DejaVuSans-Bold-6e" x="3143.251953"/>
     <use xlink:href="#DejaVuSans-Bold-73" x="3214.443359"/>
    </g>
   </g>
  </g>
 </g>
 <defs>
  <clipPath id="p719438c722">
   <rect x="7.2" y="32.597656" width="912.24" height="526.54"/>
  </clipPath>
 </defs>
</svg>
