<?xml version="1.0" encoding="utf-8" standalone="no"?>
<!DOCTYPE svg PUBLIC "-//W3C//DTD SVG 1.1//EN"
  "http://www.w3.org/Graphics/SVG/1.1/DTD/svg11.dtd">
<svg xmlns:xlink="http://www.w3.org/1999/xlink" width="818.44125pt" height="364.739375pt" viewBox="0 0 818.44125 364.739375" xmlns="http://www.w3.org/2000/svg" version="1.1">
 <metadata>
  <rdf:RDF xmlns:dc="http://purl.org/dc/elements/1.1/" xmlns:cc="http://creativecommons.org/ns#" xmlns:rdf="http://www.w3.org/1999/02/22-rdf-syntax-ns#">
   <cc:Work>
    <dc:type rdf:resource="http://purl.org/dc/dcmitype/StillImage"/>
    <dc:date>2026-03-20T01:55:27.569156</dc:date>
    <dc:format>image/svg+xml</dc:format>
    <dc:creator>
     <cc:Agent>
      <dc:title>Matplotlib v3.9.0, https://matplotlib.org/</dc:title>
     </cc:Agent>
    </dc:creator>
   </cc:Work>
  </rdf:RDF>
 </metadata>
 <defs>
  <style type="text/css">*{stroke-linejoin: round; stroke-linecap: butt}</style>
 </defs>
 <g id="figure_1">
  <g id="patch_1">
   <path d="M 0 364.739375 
L 818.44125 364.739375 
L 818.44125 0 
L 0 0 
z
" style="fill: #ffffff"/>
  </g>
  <g id="axes_1">
   <g id="patch_2">
    <path d="M 46.339375 325.2475 
L 807.741875 325.2475 
L 807.741875 33.3575 
L 46.339375 33.3575 
z
" style="fill: #ffffff"/>
   </g>
   <g id="PolyCollection_1">
    <defs>
     <path id="md98a4a2484" d="M 46.339375 -39.491875 
L 46.339375 -39.587841 
L 47.610498 -39.590438 
L 48.88162 -39.593105 
L 50.152743 -39.595845 
L 51.423866 -39.598658 
L 52.694989 -39.601548 
L 53.966111 -39.604516 
L 55.237234 -39.607564 
L 56.508357 -39.610694 
L 57.779479 -39.61391 
L 59.050602 -39.617212 
L 60.321725 -39.620603 
L 61.592847 -39.624086 
L 62.86397 -39.627664 
L 64.135093 -39.631338 
L 65.406216 -39.635111 
L 66.677338 -39.638987 
L 67.948461 -39.642967 
L 69.219584 -39.647055 
L 70.490706 -39.651254 
L 71.761829 -39.655566 
L 73.032952 -39.659995 
L 74.304074 -39.664543 
L 75.575197 -39.669215 
L 76.84632 -39.674012 
L 78.117443 -39.67894 
L 79.388565 -39.684001 
L 80.659688 -39.689198 
L 81.930811 -39.694536 
L 83.201933 -39.700018 
L 84.473056 -39.705649 
L 85.744179 -39.711431 
L 87.015302 -39.71737 
L 88.286424 -39.72347 
L 89.557547 -39.729734 
L 90.82867 -39.736168 
L 92.099792 -39.742775 
L 93.370915 -39.749561 
L 94.642038 -39.756531 
L 95.91316 -39.763688 
L 97.184283 -39.771039 
L 98.455406 -39.778589 
L 99.726529 -39.786343 
L 100.997651 -39.794306 
L 102.268774 -39.802484 
L 103.539897 -39.810883 
L 104.811019 -39.819509 
L 106.082142 -39.828368 
L 107.353265 -39.837467 
L 108.624388 -39.846811 
L 109.89551 -39.856407 
L 111.166633 -39.866262 
L 112.437756 -39.876384 
L 113.708878 -39.886779 
L 114.980001 -39.897454 
L 116.251124 -39.908417 
L 117.522246 -39.919677 
L 118.793369 -39.93124 
L 120.064492 -39.943115 
L 121.335615 -39.955311 
L 122.606737 -39.967836 
L 123.87786 -39.980699 
L 125.148983 -39.993909 
L 126.420105 -40.007475 
L 127.691228 -40.021407 
L 128.962351 -40.035715 
L 130.233473 -40.050408 
L 131.504596 -40.065498 
L 132.775719 -40.080995 
L 134.046842 -40.096909 
L 135.317964 -40.113253 
L 136.589087 -40.130036 
L 137.86021 -40.147273 
L 139.131332 -40.164973 
L 140.402455 -40.183151 
L 141.673578 -40.201818 
L 142.944701 -40.220988 
L 144.215823 -40.240674 
L 145.486946 -40.260891 
L 146.758069 -40.281651 
L 148.029191 -40.302971 
L 149.300314 -40.324864 
L 150.571437 -40.347347 
L 151.842559 -40.370434 
L 153.113682 -40.394143 
L 154.384805 -40.418489 
L 155.655928 -40.44349 
L 156.92705 -40.469163 
L 158.198173 -40.495527 
L 159.469296 -40.522599 
L 160.740418 -40.550399 
L 162.011541 -40.578945 
L 163.282664 -40.608259 
L 164.553787 -40.638359 
L 165.824909 -40.669268 
L 167.096032 -40.701007 
L 168.367155 -40.733598 
L 169.638277 -40.767063 
L 170.9094 -40.801425 
L 172.180523 -40.83671 
L 173.451645 -40.87294 
L 174.722768 -40.910142 
L 175.993891 -40.948341 
L 177.265014 -40.987563 
L 178.536136 -41.027835 
L 179.807259 -41.069186 
L 181.078382 -41.111644 
L 182.349504 -41.155238 
L 183.620627 -41.199999 
L 184.89175 -41.245956 
L 186.162872 -41.293142 
L 187.433995 -41.341589 
L 188.705118 -41.391331 
L 189.976241 -41.442401 
L 191.247363 -41.494834 
L 192.518486 -41.548667 
L 193.789609 -41.603935 
L 195.060731 -41.660678 
L 196.331854 -41.718933 
L 197.602977 -41.77874 
L 198.8741 -41.84014 
L 200.145222 -41.903175 
L 201.416345 -41.967887 
L 202.687468 -42.034319 
L 203.95859 -42.102518 
L 205.229713 -42.172529 
L 206.500836 -42.2444 
L 207.771958 -42.318178 
L 209.043081 -42.393913 
L 210.314204 -42.471656 
L 211.585327 -42.55146 
L 212.856449 -42.633377 
L 214.127572 -42.717463 
L 215.398695 -42.803772 
L 216.669817 -42.892364 
L 217.94094 -42.983296 
L 219.212063 -43.076628 
L 220.483186 -43.172424 
L 221.754308 -43.270744 
L 223.025431 -43.371656 
L 224.296554 -43.475224 
L 225.567676 -43.581516 
L 226.838799 -43.690603 
L 228.109922 -43.802555 
L 229.381044 -43.917446 
L 230.652167 -44.035349 
L 231.92329 -44.156341 
L 233.194413 -44.2805 
L 234.465535 -44.407907 
L 235.736658 -44.538642 
L 237.007781 -44.67279 
L 238.278903 -44.810437 
L 239.550026 -44.951669 
L 240.821149 -45.096577 
L 242.092271 -45.245253 
L 243.363394 -45.397789 
L 244.634517 -45.554281 
L 245.90564 -45.714829 
L 247.176762 -45.879531 
L 248.447885 -46.04849 
L 249.719008 -46.22181 
L 250.99013 -46.3996 
L 252.261253 -46.581966 
L 253.532376 -46.769022 
L 254.803499 -46.960881 
L 256.074621 -47.157659 
L 257.345744 -47.359475 
L 258.616867 -47.56645 
L 259.887989 -47.778708 
L 261.159112 -47.996375 
L 262.430235 -48.21958 
L 263.701357 -48.448454 
L 264.97248 -48.683131 
L 266.243603 -48.923748 
L 267.514726 -49.170444 
L 268.785848 -49.42336 
L 270.056971 -49.682642 
L 271.328094 -49.948437 
L 272.599216 -50.220895 
L 273.870339 -50.500169 
L 275.141462 -50.786414 
L 276.412585 -51.079789 
L 277.683707 -51.380455 
L 278.95483 -51.688575 
L 280.225953 -52.004316 
L 281.497075 -52.327849 
L 282.768198 -52.659344 
L 284.039321 -52.998977 
L 285.310443 -53.346926 
L 286.581566 -53.703372 
L 287.852689 -54.068496 
L 289.123812 -54.442486 
L 290.394934 -54.825529 
L 291.666057 -55.217817 
L 292.93718 -55.619543 
L 294.208302 -56.030905 
L 295.479425 -56.452099 
L 296.750548 -56.883328 
L 298.02167 -57.324796 
L 299.292793 -57.776707 
L 300.563916 -58.23927 
L 301.835039 -58.712695 
L 303.106161 -59.197195 
L 304.377284 -59.692983 
L 305.648407 -60.200276 
L 306.919529 -60.719291 
L 308.190652 -61.250248 
L 309.461775 -61.793368 
L 310.732898 -62.348873 
L 312.00402 -62.916987 
L 313.275143 -63.497934 
L 314.546266 -64.091939 
L 315.817388 -64.699229 
L 317.088511 -65.320031 
L 318.359634 -65.954572 
L 319.630756 -66.603078 
L 320.901879 -67.265777 
L 322.173002 -67.942896 
L 323.444125 -68.634661 
L 324.715247 -69.341298 
L 325.98637 -70.06303 
L 327.257493 -70.800082 
L 328.528615 -71.552675 
L 329.799738 -72.321029 
L 331.070861 -73.105361 
L 332.341984 -73.905886 
L 333.613106 -74.722816 
L 334.884229 -75.556361 
L 336.155352 -76.406726 
L 337.426474 -77.274113 
L 338.697597 -78.158719 
L 339.96872 -79.060737 
L 341.239842 -79.980355 
L 342.510965 -80.917755 
L 343.782088 -81.873115 
L 345.053211 -82.846603 
L 346.324333 -83.838386 
L 347.595456 -84.848618 
L 348.866579 -85.877449 
L 350.137701 -86.92502 
L 351.408824 -87.991464 
L 352.679947 -89.076906 
L 353.951069 -90.181459 
L 355.222192 -91.305228 
L 356.493315 -92.448308 
L 357.764438 -93.610782 
L 359.03556 -94.792724 
L 360.306683 -95.994193 
L 361.577806 -97.215239 
L 362.848928 -98.455897 
L 364.120051 -99.716192 
L 365.391174 -100.996132 
L 366.662297 -102.295713 
L 367.933419 -103.614916 
L 369.204542 -104.953709 
L 370.475665 -106.312041 
L 371.746787 -107.68985 
L 373.01791 -109.087055 
L 374.289033 -110.503559 
L 375.560155 -111.93925 
L 376.831278 -113.393996 
L 378.102401 -114.867652 
L 379.373524 -116.360052 
L 380.644646 -117.871013 
L 381.915769 -119.400335 
L 383.186892 -120.9478 
L 384.458014 -122.513169 
L 385.729137 -124.096189 
L 387.00026 -125.696584 
L 388.271383 -127.314062 
L 389.542505 -128.948312 
L 390.813628 -130.599004 
L 392.084751 -132.26579 
L 393.355873 -133.948303 
L 394.626996 -135.646158 
L 395.898119 -137.358953 
L 397.169241 -139.086266 
L 398.440364 -140.827659 
L 399.711487 -142.582675 
L 400.98261 -144.350843 
L 402.253732 -146.131672 
L 403.524855 -147.924658 
L 404.795978 -149.729279 
L 406.0671 -151.544998 
L 407.338223 -153.371266 
L 408.609346 -155.207517 
L 409.880468 -157.053173 
L 411.151591 -158.907643 
L 412.422714 -160.770325 
L 413.693837 -162.640603 
L 414.964959 -164.517855 
L 416.236082 -166.401445 
L 417.507205 -168.29073 
L 418.778327 -170.18506 
L 420.04945 -172.083776 
L 421.320573 -173.986215 
L 422.591696 -175.891706 
L 423.862818 -177.799576 
L 425.133941 -179.709148 
L 426.405064 -181.619741 
L 427.676186 -183.530675 
L 428.947309 -185.441269 
L 430.218432 -187.350841 
L 431.489554 -189.258711 
L 432.760677 -191.164202 
L 434.0318 -193.06664 
L 435.302923 -194.965357 
L 436.574045 -196.859687 
L 437.845168 -198.748972 
L 439.116291 -200.632562 
L 440.387413 -202.509813 
L 441.658536 -204.380092 
L 442.929659 -206.242773 
L 444.200782 -208.097243 
L 445.471904 -209.942899 
L 446.743027 -211.77915 
L 448.01415 -213.605418 
L 449.285272 -215.421138 
L 450.556395 -217.225759 
L 451.827518 -219.018744 
L 453.09864 -220.799574 
L 454.369763 -222.567742 
L 455.640886 -224.322758 
L 456.912009 -226.064151 
L 458.183131 -227.791464 
L 459.454254 -229.504258 
L 460.725377 -231.202114 
L 461.996499 -232.884627 
L 463.267622 -234.551413 
L 464.538745 -236.202105 
L 465.809867 -237.836355 
L 467.08099 -239.453833 
L 468.352113 -241.054228 
L 469.623236 -242.637247 
L 470.894358 -244.202617 
L 472.165481 -245.750081 
L 473.436604 -247.279404 
L 474.707726 -248.790365 
L 475.978849 -250.282765 
L 477.249972 -251.75642 
L 478.521095 -253.211167 
L 479.792217 -254.646858 
L 481.06334 -256.063362 
L 482.334463 -257.460567 
L 483.605585 -258.838375 
L 484.876708 -260.196708 
L 486.147831 -261.5355 
L 487.418953 -262.854704 
L 488.690076 -264.154285 
L 489.961199 -265.434225 
L 491.232322 -266.694519 
L 492.503444 -267.935178 
L 493.774567 -269.156224 
L 495.04569 -270.357693 
L 496.316812 -271.539634 
L 497.587935 -272.702109 
L 498.859058 -273.845189 
L 500.130181 -274.968958 
L 501.401303 -276.073511 
L 502.672426 -277.158952 
L 503.943549 -278.225397 
L 505.214671 -279.272968 
L 506.485794 -280.301799 
L 507.756917 -281.312031 
L 509.028039 -282.303813 
L 510.299162 -283.277302 
L 511.570285 -284.232661 
L 512.841408 -285.170062 
L 514.11253 -286.08968 
L 515.383653 -286.991698 
L 516.654776 -287.876304 
L 517.925898 -288.74369 
L 519.197021 -289.594055 
L 520.468144 -290.4276 
L 521.739266 -291.244531 
L 523.010389 -292.045056 
L 524.281512 -292.829388 
L 525.552635 -293.597741 
L 526.823757 -294.350334 
L 528.09488 -295.087386 
L 529.366003 -295.809119 
L 530.637125 -296.515756 
L 531.908248 -297.207521 
L 533.179371 -297.88464 
L 534.450494 -298.547339 
L 535.721616 -299.195845 
L 536.992739 -299.830386 
L 538.263862 -300.451187 
L 539.534984 -301.058478 
L 540.806107 -301.652483 
L 542.07723 -302.23343 
L 543.348352 -302.801544 
L 544.619475 -303.357049 
L 545.890598 -303.900169 
L 547.161721 -304.431126 
L 548.432843 -304.950141 
L 549.703966 -305.457434 
L 550.975089 -305.953222 
L 552.246211 -306.437722 
L 553.517334 -306.911147 
L 554.788457 -307.37371 
L 556.05958 -307.825621 
L 557.330702 -308.267088 
L 558.601825 -308.698317 
L 559.872948 -309.119512 
L 561.14407 -309.530873 
L 562.415193 -309.9326 
L 563.686316 -310.324888 
L 564.957438 -310.707931 
L 566.228561 -311.081921 
L 567.499684 -311.447045 
L 568.770807 -311.80349 
L 570.041929 -312.151439 
L 571.313052 -312.491073 
L 572.584175 -312.822568 
L 573.855297 -313.1461 
L 575.12642 -313.461842 
L 576.397543 -313.769962 
L 577.668665 -314.070628 
L 578.939788 -314.364002 
L 580.210911 -314.650248 
L 581.482034 -314.929521 
L 582.753156 -315.201979 
L 584.024279 -315.467774 
L 585.295402 -315.727056 
L 586.566524 -315.979973 
L 587.837647 -316.226669 
L 589.10877 -316.467286 
L 590.379893 -316.701963 
L 591.651015 -316.930837 
L 592.922138 -317.154041 
L 594.193261 -317.371708 
L 595.464383 -317.583966 
L 596.735506 -317.790942 
L 598.006629 -317.992758 
L 599.277751 -318.189536 
L 600.548874 -318.381394 
L 601.819997 -318.56845 
L 603.09112 -318.750817 
L 604.362242 -318.928606 
L 605.633365 -319.101927 
L 606.904488 -319.270886 
L 608.17561 -319.435588 
L 609.446733 -319.596135 
L 610.717856 -319.752628 
L 611.988979 -319.905164 
L 613.260101 -320.053839 
L 614.531224 -320.198747 
L 615.802347 -320.33998 
L 617.073469 -320.477626 
L 618.344592 -320.611774 
L 619.615715 -320.74251 
L 620.886837 -320.869916 
L 622.15796 -320.994076 
L 623.429083 -321.115068 
L 624.700206 -321.232971 
L 625.971328 -321.347861 
L 627.242451 -321.459813 
L 628.513574 -321.5689 
L 629.784696 -321.675193 
L 631.055819 -321.778761 
L 632.326942 -321.879672 
L 633.598064 -321.977993 
L 634.869187 -322.073788 
L 636.14031 -322.167121 
L 637.411433 -322.258053 
L 638.682555 -322.346644 
L 639.953678 -322.432954 
L 641.224801 -322.517039 
L 642.495923 -322.598957 
L 643.767046 -322.67876 
L 645.038169 -322.756504 
L 646.309292 -322.832239 
L 647.580414 -322.906017 
L 648.851537 -322.977887 
L 650.12266 -323.047898 
L 651.393782 -323.116097 
L 652.664905 -323.18253 
L 653.936028 -323.247242 
L 655.20715 -323.310276 
L 656.478273 -323.371676 
L 657.749396 -323.431484 
L 659.020519 -323.489739 
L 660.291641 -323.546481 
L 661.562764 -323.60175 
L 662.833887 -323.655583 
L 664.105009 -323.708016 
L 665.376132 -323.759086 
L 666.647255 -323.808827 
L 667.918378 -323.857274 
L 669.1895 -323.904461 
L 670.460623 -323.950418 
L 671.731746 -323.995178 
L 673.002868 -324.038772 
L 674.273991 -324.08123 
L 675.545114 -324.122581 
L 676.816236 -324.162854 
L 678.087359 -324.202076 
L 679.358482 -324.240275 
L 680.629605 -324.277476 
L 681.900727 -324.313707 
L 683.17185 -324.348991 
L 684.442973 -324.383354 
L 685.714095 -324.416819 
L 686.985218 -324.44941 
L 688.256341 -324.481148 
L 689.527463 -324.512057 
L 690.798586 -324.542158 
L 692.069709 -324.571471 
L 693.340832 -324.600018 
L 694.611954 -324.627818 
L 695.883077 -324.65489 
L 697.1542 -324.681253 
L 698.425322 -324.706927 
L 699.696445 -324.731928 
L 700.967568 -324.756274 
L 702.238691 -324.779983 
L 703.509813 -324.80307 
L 704.780936 -324.825553 
L 706.052059 -324.847446 
L 707.323181 -324.868765 
L 708.594304 -324.889526 
L 709.865427 -324.909742 
L 711.136549 -324.929429 
L 712.407672 -324.948599 
L 713.678795 -324.967266 
L 714.949918 -324.985443 
L 716.22104 -325.003144 
L 717.492163 -325.02038 
L 718.763286 -325.037164 
L 720.034408 -325.053507 
L 721.305531 -325.069422 
L 722.576654 -325.084919 
L 723.847777 -325.100008 
L 725.118899 -325.114702 
L 726.390022 -325.12901 
L 727.661145 -325.142942 
L 728.932267 -325.156508 
L 730.20339 -325.169718 
L 731.474513 -325.182581 
L 732.745635 -325.195105 
L 734.016758 -325.207301 
L 735.287881 -325.219177 
L 736.559004 -325.23074 
L 737.830126 -325.241999 
L 739.101249 -325.252963 
L 740.372372 -325.263638 
L 741.643494 -325.274033 
L 742.914617 -325.284154 
L 744.18574 -325.29401 
L 745.456862 -325.303606 
L 746.727985 -325.31295 
L 747.999108 -325.322048 
L 749.270231 -325.330907 
L 750.541353 -325.339533 
L 751.812476 -325.347932 
L 753.083599 -325.356111 
L 754.354721 -325.364074 
L 755.625844 -325.371827 
L 756.896967 -325.379377 
L 758.16809 -325.386728 
L 759.439212 -325.393886 
L 760.710335 -325.400855 
L 761.981458 -325.407641 
L 763.25258 -325.414249 
L 764.523703 -325.420683 
L 765.794826 -325.426947 
L 767.065948 -325.433046 
L 768.337071 -325.438985 
L 769.608194 -325.444768 
L 770.879317 -325.450398 
L 772.150439 -325.455881 
L 773.421562 -325.461219 
L 774.692685 -325.466416 
L 775.963807 -325.471477 
L 777.23493 -325.476404 
L 778.506053 -325.481202 
L 779.777176 -325.485873 
L 781.048298 -325.490422 
L 782.319421 -325.494851 
L 783.590544 -325.499163 
L 784.861666 -325.503361 
L 786.132789 -325.507449 
L 787.403912 -325.51143 
L 788.675034 -325.515305 
L 789.946157 -325.519079 
L 791.21728 -325.522753 
L 792.488403 -325.52633 
L 793.759525 -325.529814 
L 795.030648 -325.533205 
L 796.301771 -325.536507 
L 797.572893 -325.539722 
L 798.844016 -325.542853 
L 800.115139 -325.545901 
L 801.386261 -325.548869 
L 802.657384 -325.551758 
L 803.928507 -325.554572 
L 805.19963 -325.557311 
L 806.470752 -325.559979 
L 807.741875 -325.562576 
L 807.741875 -39.491875 
L 807.741875 -39.491875 
L 806.470752 -39.491875 
L 805.19963 -39.491875 
L 803.928507 -39.491875 
L 802.657384 -39.491875 
L 801.386261 -39.491875 
L 800.115139 -39.491875 
L 798.844016 -39.491875 
L 797.572893 -39.491875 
L 796.301771 -39.491875 
L 795.030648 -39.491875 
L 793.759525 -39.491875 
L 792.488403 -39.491875 
L 791.21728 -39.491875 
L 789.946157 -39.491875 
L 788.675034 -39.491875 
L 787.403912 -39.491875 
L 786.132789 -39.491875 
L 784.861666 -39.491875 
L 783.590544 -39.491875 
L 782.319421 -39.491875 
L 781.048298 -39.491875 
L 779.777176 -39.491875 
L 778.506053 -39.491875 
L 777.23493 -39.491875 
L 775.963807 -39.491875 
L 774.692685 -39.491875 
L 773.421562 -39.491875 
L 772.150439 -39.491875 
L 770.879317 -39.491875 
L 769.608194 -39.491875 
L 768.337071 -39.491875 
L 767.065948 -39.491875 
L 765.794826 -39.491875 
L 764.523703 -39.491875 
L 763.25258 -39.491875 
L 761.981458 -39.491875 
L 760.710335 -39.491875 
L 759.439212 -39.491875 
L 758.16809 -39.491875 
L 756.896967 -39.491875 
L 755.625844 -39.491875 
L 754.354721 -39.491875 
L 753.083599 -39.491875 
L 751.812476 -39.491875 
L 750.541353 -39.491875 
L 749.270231 -39.491875 
L 747.999108 -39.491875 
L 746.727985 -39.491875 
L 745.456862 -39.491875 
L 744.18574 -39.491875 
L 742.914617 -39.491875 
L 741.643494 -39.491875 
L 740.372372 -39.491875 
L 739.101249 -39.491875 
L 737.830126 -39.491875 
L 736.559004 -39.491875 
L 735.287881 -39.491875 
L 734.016758 -39.491875 
L 732.745635 -39.491875 
L 731.474513 -39.491875 
L 730.20339 -39.491875 
L 728.932267 -39.491875 
L 727.661145 -39.491875 
L 726.390022 -39.491875 
L 725.118899 -39.491875 
L 723.847777 -39.491875 
L 722.576654 -39.491875 
L 721.305531 -39.491875 
L 720.034408 -39.491875 
L 718.763286 -39.491875 
L 717.492163 -39.491875 
L 716.22104 -39.491875 
L 714.949918 -39.491875 
L 713.678795 -39.491875 
L 712.407672 -39.491875 
L 711.136549 -39.491875 
L 709.865427 -39.491875 
L 708.594304 -39.491875 
L 707.323181 -39.491875 
L 706.052059 -39.491875 
L 704.780936 -39.491875 
L 703.509813 -39.491875 
L 702.238691 -39.491875 
L 700.967568 -39.491875 
L 699.696445 -39.491875 
L 698.425322 -39.491875 
L 697.1542 -39.491875 
L 695.883077 -39.491875 
L 694.611954 -39.491875 
L 693.340832 -39.491875 
L 692.069709 -39.491875 
L 690.798586 -39.491875 
L 689.527463 -39.491875 
L 688.256341 -39.491875 
L 686.985218 -39.491875 
L 685.714095 -39.491875 
L 684.442973 -39.491875 
L 683.17185 -39.491875 
L 681.900727 -39.491875 
L 680.629605 -39.491875 
L 679.358482 -39.491875 
L 678.087359 -39.491875 
L 676.816236 -39.491875 
L 675.545114 -39.491875 
L 674.273991 -39.491875 
L 673.002868 -39.491875 
L 671.731746 -39.491875 
L 670.460623 -39.491875 
L 669.1895 -39.491875 
L 667.918378 -39.491875 
L 666.647255 -39.491875 
L 665.376132 -39.491875 
L 664.105009 -39.491875 
L 662.833887 -39.491875 
L 661.562764 -39.491875 
L 660.291641 -39.491875 
L 659.020519 -39.491875 
L 657.749396 -39.491875 
L 656.478273 -39.491875 
L 655.20715 -39.491875 
L 653.936028 -39.491875 
L 652.664905 -39.491875 
L 651.393782 -39.491875 
L 650.12266 -39.491875 
L 648.851537 -39.491875 
L 647.580414 -39.491875 
L 646.309292 -39.491875 
L 645.038169 -39.491875 
L 643.767046 -39.491875 
L 642.495923 -39.491875 
L 641.224801 -39.491875 
L 639.953678 -39.491875 
L 638.682555 -39.491875 
L 637.411433 -39.491875 
L 636.14031 -39.491875 
L 634.869187 -39.491875 
L 633.598064 -39.491875 
L 632.326942 -39.491875 
L 631.055819 -39.491875 
L 629.784696 -39.491875 
L 628.513574 -39.491875 
L 627.242451 -39.491875 
L 625.971328 -39.491875 
L 624.700206 -39.491875 
L 623.429083 -39.491875 
L 622.15796 -39.491875 
L 620.886837 -39.491875 
L 619.615715 -39.491875 
L 618.344592 -39.491875 
L 617.073469 -39.491875 
L 615.802347 -39.491875 
L 614.531224 -39.491875 
L 613.260101 -39.491875 
L 611.988979 -39.491875 
L 610.717856 -39.491875 
L 609.446733 -39.491875 
L 608.17561 -39.491875 
L 606.904488 -39.491875 
L 605.633365 -39.491875 
L 604.362242 -39.491875 
L 603.09112 -39.491875 
L 601.819997 -39.491875 
L 600.548874 -39.491875 
L 599.277751 -39.491875 
L 598.006629 -39.491875 
L 596.735506 -39.491875 
L 595.464383 -39.491875 
L 594.193261 -39.491875 
L 592.922138 -39.491875 
L 591.651015 -39.491875 
L 590.379893 -39.491875 
L 589.10877 -39.491875 
L 587.837647 -39.491875 
L 586.566524 -39.491875 
L 585.295402 -39.491875 
L 584.024279 -39.491875 
L 582.753156 -39.491875 
L 581.482034 -39.491875 
L 580.210911 -39.491875 
L 578.939788 -39.491875 
L 577.668665 -39.491875 
L 576.397543 -39.491875 
L 575.12642 -39.491875 
L 573.855297 -39.491875 
L 572.584175 -39.491875 
L 571.313052 -39.491875 
L 570.041929 -39.491875 
L 568.770807 -39.491875 
L 567.499684 -39.491875 
L 566.228561 -39.491875 
L 564.957438 -39.491875 
L 563.686316 -39.491875 
L 562.415193 -39.491875 
L 561.14407 -39.491875 
L 559.872948 -39.491875 
L 558.601825 -39.491875 
L 557.330702 -39.491875 
L 556.05958 -39.491875 
L 554.788457 -39.491875 
L 553.517334 -39.491875 
L 552.246211 -39.491875 
L 550.975089 -39.491875 
L 549.703966 -39.491875 
L 548.432843 -39.491875 
L 547.161721 -39.491875 
L 545.890598 -39.491875 
L 544.619475 -39.491875 
L 543.348352 -39.491875 
L 542.07723 -39.491875 
L 540.806107 -39.491875 
L 539.534984 -39.491875 
L 538.263862 -39.491875 
L 536.992739 -39.491875 
L 535.721616 -39.491875 
L 534.450494 -39.491875 
L 533.179371 -39.491875 
L 531.908248 -39.491875 
L 530.637125 -39.491875 
L 529.366003 -39.491875 
L 528.09488 -39.491875 
L 526.823757 -39.491875 
L 525.552635 -39.491875 
L 524.281512 -39.491875 
L 523.010389 -39.491875 
L 521.739266 -39.491875 
L 520.468144 -39.491875 
L 519.197021 -39.491875 
L 517.925898 -39.491875 
L 516.654776 -39.491875 
L 515.383653 -39.491875 
L 514.11253 -39.491875 
L 512.841408 -39.491875 
L 511.570285 -39.491875 
L 510.299162 -39.491875 
L 509.028039 -39.491875 
L 507.756917 -39.491875 
L 506.485794 -39.491875 
L 505.214671 -39.491875 
L 503.943549 -39.491875 
L 502.672426 -39.491875 
L 501.401303 -39.491875 
L 500.130181 -39.491875 
L 498.859058 -39.491875 
L 497.587935 -39.491875 
L 496.316812 -39.491875 
L 495.04569 -39.491875 
L 493.774567 -39.491875 
L 492.503444 -39.491875 
L 491.232322 -39.491875 
L 489.961199 -39.491875 
L 488.690076 -39.491875 
L 487.418953 -39.491875 
L 486.147831 -39.491875 
L 484.876708 -39.491875 
L 483.605585 -39.491875 
L 482.334463 -39.491875 
L 481.06334 -39.491875 
L 479.792217 -39.491875 
L 478.521095 -39.491875 
L 477.249972 -39.491875 
L 475.978849 -39.491875 
L 474.707726 -39.491875 
L 473.436604 -39.491875 
L 472.165481 -39.491875 
L 470.894358 -39.491875 
L 469.623236 -39.491875 
L 468.352113 -39.491875 
L 467.08099 -39.491875 
L 465.809867 -39.491875 
L 464.538745 -39.491875 
L 463.267622 -39.491875 
L 461.996499 -39.491875 
L 460.725377 -39.491875 
L 459.454254 -39.491875 
L 458.183131 -39.491875 
L 456.912009 -39.491875 
L 455.640886 -39.491875 
L 454.369763 -39.491875 
L 453.09864 -39.491875 
L 451.827518 -39.491875 
L 450.556395 -39.491875 
L 449.285272 -39.491875 
L 448.01415 -39.491875 
L 446.743027 -39.491875 
L 445.471904 -39.491875 
L 444.200782 -39.491875 
L 442.929659 -39.491875 
L 441.658536 -39.491875 
L 440.387413 -39.491875 
L 439.116291 -39.491875 
L 437.845168 -39.491875 
L 436.574045 -39.491875 
L 435.302923 -39.491875 
L 434.0318 -39.491875 
L 432.760677 -39.491875 
L 431.489554 -39.491875 
L 430.218432 -39.491875 
L 428.947309 -39.491875 
L 427.676186 -39.491875 
L 426.405064 -39.491875 
L 425.133941 -39.491875 
L 423.862818 -39.491875 
L 422.591696 -39.491875 
L 421.320573 -39.491875 
L 420.04945 -39.491875 
L 418.778327 -39.491875 
L 417.507205 -39.491875 
L 416.236082 -39.491875 
L 414.964959 -39.491875 
L 413.693837 -39.491875 
L 412.422714 -39.491875 
L 411.151591 -39.491875 
L 409.880468 -39.491875 
L 408.609346 -39.491875 
L 407.338223 -39.491875 
L 406.0671 -39.491875 
L 404.795978 -39.491875 
L 403.524855 -39.491875 
L 402.253732 -39.491875 
L 400.98261 -39.491875 
L 399.711487 -39.491875 
L 398.440364 -39.491875 
L 397.169241 -39.491875 
L 395.898119 -39.491875 
L 394.626996 -39.491875 
L 393.355873 -39.491875 
L 392.084751 -39.491875 
L 390.813628 -39.491875 
L 389.542505 -39.491875 
L 388.271383 -39.491875 
L 387.00026 -39.491875 
L 385.729137 -39.491875 
L 384.458014 -39.491875 
L 383.186892 -39.491875 
L 381.915769 -39.491875 
L 380.644646 -39.491875 
L 379.373524 -39.491875 
L 378.102401 -39.491875 
L 376.831278 -39.491875 
L 375.560155 -39.491875 
L 374.289033 -39.491875 
L 373.01791 -39.491875 
L 371.746787 -39.491875 
L 370.475665 -39.491875 
L 369.204542 -39.491875 
L 367.933419 -39.491875 
L 366.662297 -39.491875 
L 365.391174 -39.491875 
L 364.120051 -39.491875 
L 362.848928 -39.491875 
L 361.577806 -39.491875 
L 360.306683 -39.491875 
L 359.03556 -39.491875 
L 357.764438 -39.491875 
L 356.493315 -39.491875 
L 355.222192 -39.491875 
L 353.951069 -39.491875 
L 352.679947 -39.491875 
L 351.408824 -39.491875 
L 350.137701 -39.491875 
L 348.866579 -39.491875 
L 347.595456 -39.491875 
L 346.324333 -39.491875 
L 345.053211 -39.491875 
L 343.782088 -39.491875 
L 342.510965 -39.491875 
L 341.239842 -39.491875 
L 339.96872 -39.491875 
L 338.697597 -39.491875 
L 337.426474 -39.491875 
L 336.155352 -39.491875 
L 334.884229 -39.491875 
L 333.613106 -39.491875 
L 332.341984 -39.491875 
L 331.070861 -39.491875 
L 329.799738 -39.491875 
L 328.528615 -39.491875 
L 327.257493 -39.491875 
L 325.98637 -39.491875 
L 324.715247 -39.491875 
L 323.444125 -39.491875 
L 322.173002 -39.491875 
L 320.901879 -39.491875 
L 319.630756 -39.491875 
L 318.359634 -39.491875 
L 317.088511 -39.491875 
L 315.817388 -39.491875 
L 314.546266 -39.491875 
L 313.275143 -39.491875 
L 312.00402 -39.491875 
L 310.732898 -39.491875 
L 309.461775 -39.491875 
L 308.190652 -39.491875 
L 306.919529 -39.491875 
L 305.648407 -39.491875 
L 304.377284 -39.491875 
L 303.106161 -39.491875 
L 301.835039 -39.491875 
L 300.563916 -39.491875 
L 299.292793 -39.491875 
L 298.02167 -39.491875 
L 296.750548 -39.491875 
L 295.479425 -39.491875 
L 294.208302 -39.491875 
L 292.93718 -39.491875 
L 291.666057 -39.491875 
L 290.394934 -39.491875 
L 289.123812 -39.491875 
L 287.852689 -39.491875 
L 286.581566 -39.491875 
L 285.310443 -39.491875 
L 284.039321 -39.491875 
L 282.768198 -39.491875 
L 281.497075 -39.491875 
L 280.225953 -39.491875 
L 278.95483 -39.491875 
L 277.683707 -39.491875 
L 276.412585 -39.491875 
L 275.141462 -39.491875 
L 273.870339 -39.491875 
L 272.599216 -39.491875 
L 271.328094 -39.491875 
L 270.056971 -39.491875 
L 268.785848 -39.491875 
L 267.514726 -39.491875 
L 266.243603 -39.491875 
L 264.97248 -39.491875 
L 263.701357 -39.491875 
L 262.430235 -39.491875 
L 261.159112 -39.491875 
L 259.887989 -39.491875 
L 258.616867 -39.491875 
L 257.345744 -39.491875 
L 256.074621 -39.491875 
L 254.803499 -39.491875 
L 253.532376 -39.491875 
L 252.261253 -39.491875 
L 250.99013 -39.491875 
L 249.719008 -39.491875 
L 248.447885 -39.491875 
L 247.176762 -39.491875 
L 245.90564 -39.491875 
L 244.634517 -39.491875 
L 243.363394 -39.491875 
L 242.092271 -39.491875 
L 240.821149 -39.491875 
L 239.550026 -39.491875 
L 238.278903 -39.491875 
L 237.007781 -39.491875 
L 235.736658 -39.491875 
L 234.465535 -39.491875 
L 233.194413 -39.491875 
L 231.92329 -39.491875 
L 230.652167 -39.491875 
L 229.381044 -39.491875 
L 228.109922 -39.491875 
L 226.838799 -39.491875 
L 225.567676 -39.491875 
L 224.296554 -39.491875 
L 223.025431 -39.491875 
L 221.754308 -39.491875 
L 220.483186 -39.491875 
L 219.212063 -39.491875 
L 217.94094 -39.491875 
L 216.669817 -39.491875 
L 215.398695 -39.491875 
L 214.127572 -39.491875 
L 212.856449 -39.491875 
L 211.585327 -39.491875 
L 210.314204 -39.491875 
L 209.043081 -39.491875 
L 207.771958 -39.491875 
L 206.500836 -39.491875 
L 205.229713 -39.491875 
L 203.95859 -39.491875 
L 202.687468 -39.491875 
L 201.416345 -39.491875 
L 200.145222 -39.491875 
L 198.8741 -39.491875 
L 197.602977 -39.491875 
L 196.331854 -39.491875 
L 195.060731 -39.491875 
L 193.789609 -39.491875 
L 192.518486 -39.491875 
L 191.247363 -39.491875 
L 189.976241 -39.491875 
L 188.705118 -39.491875 
L 187.433995 -39.491875 
L 186.162872 -39.491875 
L 184.89175 -39.491875 
L 183.620627 -39.491875 
L 182.349504 -39.491875 
L 181.078382 -39.491875 
L 179.807259 -39.491875 
L 178.536136 -39.491875 
L 177.265014 -39.491875 
L 175.993891 -39.491875 
L 174.722768 -39.491875 
L 173.451645 -39.491875 
L 172.180523 -39.491875 
L 170.9094 -39.491875 
L 169.638277 -39.491875 
L 168.367155 -39.491875 
L 167.096032 -39.491875 
L 165.824909 -39.491875 
L 164.553787 -39.491875 
L 163.282664 -39.491875 
L 162.011541 -39.491875 
L 160.740418 -39.491875 
L 159.469296 -39.491875 
L 158.198173 -39.491875 
L 156.92705 -39.491875 
L 155.655928 -39.491875 
L 154.384805 -39.491875 
L 153.113682 -39.491875 
L 151.842559 -39.491875 
L 150.571437 -39.491875 
L 149.300314 -39.491875 
L 148.029191 -39.491875 
L 146.758069 -39.491875 
L 145.486946 -39.491875 
L 144.215823 -39.491875 
L 142.944701 -39.491875 
L 141.673578 -39.491875 
L 140.402455 -39.491875 
L 139.131332 -39.491875 
L 137.86021 -39.491875 
L 136.589087 -39.491875 
L 135.317964 -39.491875 
L 134.046842 -39.491875 
L 132.775719 -39.491875 
L 131.504596 -39.491875 
L 130.233473 -39.491875 
L 128.962351 -39.491875 
L 127.691228 -39.491875 
L 126.420105 -39.491875 
L 125.148983 -39.491875 
L 123.87786 -39.491875 
L 122.606737 -39.491875 
L 121.335615 -39.491875 
L 120.064492 -39.491875 
L 118.793369 -39.491875 
L 117.522246 -39.491875 
L 116.251124 -39.491875 
L 114.980001 -39.491875 
L 113.708878 -39.491875 
L 112.437756 -39.491875 
L 111.166633 -39.491875 
L 109.89551 -39.491875 
L 108.624388 -39.491875 
L 107.353265 -39.491875 
L 106.082142 -39.491875 
L 104.811019 -39.491875 
L 103.539897 -39.491875 
L 102.268774 -39.491875 
L 100.997651 -39.491875 
L 99.726529 -39.491875 
L 98.455406 -39.491875 
L 97.184283 -39.491875 
L 95.91316 -39.491875 
L 94.642038 -39.491875 
L 93.370915 -39.491875 
L 92.099792 -39.491875 
L 90.82867 -39.491875 
L 89.557547 -39.491875 
L 88.286424 -39.491875 
L 87.015302 -39.491875 
L 85.744179 -39.491875 
L 84.473056 -39.491875 
L 83.201933 -39.491875 
L 81.930811 -39.491875 
L 80.659688 -39.491875 
L 79.388565 -39.491875 
L 78.117443 -39.491875 
L 76.84632 -39.491875 
L 75.575197 -39.491875 
L 74.304074 -39.491875 
L 73.032952 -39.491875 
L 71.761829 -39.491875 
L 70.490706 -39.491875 
L 69.219584 -39.491875 
L 67.948461 -39.491875 
L 66.677338 -39.491875 
L 65.406216 -39.491875 
L 64.135093 -39.491875 
L 62.86397 -39.491875 
L 61.592847 -39.491875 
L 60.321725 -39.491875 
L 59.050602 -39.491875 
L 57.779479 -39.491875 
L 56.508357 -39.491875 
L 55.237234 -39.491875 
L 53.966111 -39.491875 
L 52.694989 -39.491875 
L 51.423866 -39.491875 
L 50.152743 -39.491875 
L 48.88162 -39.491875 
L 47.610498 -39.491875 
L 46.339375 -39.491875 
z
" style="stroke: #93c5fd; stroke-opacity: 0.22"/>
    </defs>
    <g clip-path="url(#p7e3d9be9e4)">
     <use xlink:href="#md98a4a2484" x="0" y="364.739375" style="fill: #93c5fd; fill-opacity: 0.22; stroke: #93c5fd; stroke-opacity: 0.22"/>
    </g>
   </g>
   <g id="matplotlib.axis_1">
    <g id="xtick_1">
     <g id="line2d_1">
      <path d="M 46.339375 325.2475 
L 46.339375 33.3575 
" clip-path="url(#p7e3d9be9e4)" style="fill: none; stroke: #94a3b8; stroke-opacity: 0.22; stroke-width: 0.8; stroke-linecap: square"/>
     </g>
     <g id="line2d_2">
      <defs>
       <path id="m62e41ee621" d="M 0 0 
L 0 3.5 
" style="stroke: #475569; stroke-width: 0.8"/>
      </defs>
      <g>
       <use xlink:href="#m62e41ee621" x="46.339375" y="325.2475" style="fill: #475569; stroke: #475569; stroke-width: 0.8"/>
      </g>
     </g>
     <g id="text_1">
      <!-- −8 -->
      <g style="fill: #475569" transform="translate(38.231172 340.605781) scale(0.11 -0.11)">
       <defs>
        <path id="DejaVuSans-2212" d="M 678 2272 
L 4684 2272 
L 4684 1741 
L 678 1741 
L 678 2272 
z
" transform="scale(0.015625)"/>
        <path id="DejaVuSans-38" d="M 2034 2216 
Q 1584 2216 1326 1975 
Q 1069 1734 1069 1313 
Q 1069 891 1326 650 
Q 1584 409 2034 409 
Q 2484 409 2743 651 
Q 3003 894 3003 1313 
Q 3003 1734 2745 1975 
Q 2488 2216 2034 2216 
z
M 1403 2484 
Q 997 2584 770 2862 
Q 544 3141 544 3541 
Q 544 4100 942 4425 
Q 1341 4750 2034 4750 
Q 2731 4750 3128 4425 
Q 3525 4100 3525 3541 
Q 3525 3141 3298 2862 
Q 3072 2584 2669 2484 
Q 3125 2378 3379 2068 
Q 3634 1759 3634 1313 
Q 3634 634 3220 271 
Q 2806 -91 2034 -91 
Q 1263 -91 848 271 
Q 434 634 434 1313 
Q 434 1759 690 2068 
Q 947 2378 1403 2484 
z
M 1172 3481 
Q 1172 3119 1398 2916 
Q 1625 2713 2034 2713 
Q 2441 2713 2670 2916 
Q 2900 3119 2900 3481 
Q 2900 3844 2670 4047 
Q 2441 4250 2034 4250 
Q 1625 4250 1398 4047 
Q 1172 3844 1172 3481 
z
" transform="scale(0.015625)"/>
       </defs>
       <use xlink:href="#DejaVuSans-2212"/>
       <use xlink:href="#DejaVuSans-38" x="83.789062"/>
      </g>
     </g>
    </g>
    <g id="xtick_2">
     <g id="line2d_3">
      <path d="M 141.514688 325.2475 
L 141.514688 33.3575 
" clip-path="url(#p7e3d9be9e4)" style="fill: none; stroke: #94a3b8; stroke-opacity: 0.22; stroke-width: 0.8; stroke-linecap: square"/>
     </g>
     <g id="line2d_4">
      <g>
       <use xlink:href="#m62e41ee621" x="141.514688" y="325.2475" style="fill: #475569; stroke: #475569; stroke-width: 0.8"/>
      </g>
     </g>
     <g id="text_2">
      <!-- −6 -->
      <g style="fill: #475569" transform="translate(133.406484 340.605781) scale(0.11 -0.11)">
       <defs>
        <path id="DejaVuSans-36" d="M 2113 2584 
Q 1688 2584 1439 2293 
Q 1191 2003 1191 1497 
Q 1191 994 1439 701 
Q 1688 409 2113 409 
Q 2538 409 2786 701 
Q 3034 994 3034 1497 
Q 3034 2003 2786 2293 
Q 2538 2584 2113 2584 
z
M 3366 4563 
L 3366 3988 
Q 3128 4100 2886 4159 
Q 2644 4219 2406 4219 
Q 1781 4219 1451 3797 
Q 1122 3375 1075 2522 
Q 1259 2794 1537 2939 
Q 1816 3084 2150 3084 
Q 2853 3084 3261 2657 
Q 3669 2231 3669 1497 
Q 3669 778 3244 343 
Q 2819 -91 2113 -91 
Q 1303 -91 875 529 
Q 447 1150 447 2328 
Q 447 3434 972 4092 
Q 1497 4750 2381 4750 
Q 2619 4750 2861 4703 
Q 3103 4656 3366 4563 
z
" transform="scale(0.015625)"/>
       </defs>
       <use xlink:href="#DejaVuSans-2212"/>
       <use xlink:href="#DejaVuSans-36" x="83.789062"/>
      </g>
     </g>
    </g>
    <g id="xtick_3">
     <g id="line2d_5">
      <path d="M 236.69 325.2475 
L 236.69 33.3575 
" clip-path="url(#p7e3d9be9e4)" style="fill: none; stroke: #94a3b8; stroke-opacity: 0.22; stroke-width: 0.8; stroke-linecap: square"/>
     </g>
     <g id="line2d_6">
      <g>
       <use xlink:href="#m62e41ee621" x="236.69" y="325.2475" style="fill: #475569; stroke: #475569; stroke-width: 0.8"/>
      </g>
     </g>
     <g id="text_3">
      <!-- −4 -->
      <g style="fill: #475569" transform="translate(228.581797 340.605781) scale(0.11 -0.11)">
       <defs>
        <path id="DejaVuSans-34" d="M 2419 4116 
L 825 1625 
L 2419 1625 
L 2419 4116 
z
M 2253 4666 
L 3047 4666 
L 3047 1625 
L 3713 1625 
L 3713 1100 
L 3047 1100 
L 3047 0 
L 2419 0 
L 2419 1100 
L 313 1100 
L 313 1709 
L 2253 4666 
z
" transform="scale(0.015625)"/>
       </defs>
       <use xlink:href="#DejaVuSans-2212"/>
       <use xlink:href="#DejaVuSans-34" x="83.789062"/>
      </g>
     </g>
    </g>
    <g id="xtick_4">
     <g id="line2d_7">
      <path d="M 331.865313 325.2475 
L 331.865313 33.3575 
" clip-path="url(#p7e3d9be9e4)" style="fill: none; stroke: #94a3b8; stroke-opacity: 0.22; stroke-width: 0.8; stroke-linecap: square"/>
     </g>
     <g id="line2d_8">
      <g>
       <use xlink:href="#m62e41ee621" x="331.865313" y="325.2475" style="fill: #475569; stroke: #475569; stroke-width: 0.8"/>
      </g>
     </g>
     <g id="text_4">
      <!-- −2 -->
      <g style="fill: #475569" transform="translate(323.757109 340.605781) scale(0.11 -0.11)">
       <defs>
        <path id="DejaVuSans-32" d="M 1228 531 
L 3431 531 
L 3431 0 
L 469 0 
L 469 531 
Q 828 903 1448 1529 
Q 2069 2156 2228 2338 
Q 2531 2678 2651 2914 
Q 2772 3150 2772 3378 
Q 2772 3750 2511 3984 
Q 2250 4219 1831 4219 
Q 1534 4219 1204 4116 
Q 875 4013 500 3803 
L 500 4441 
Q 881 4594 1212 4672 
Q 1544 4750 1819 4750 
Q 2544 4750 2975 4387 
Q 3406 4025 3406 3419 
Q 3406 3131 3298 2873 
Q 3191 2616 2906 2266 
Q 2828 2175 2409 1742 
Q 1991 1309 1228 531 
z
" transform="scale(0.015625)"/>
       </defs>
       <use xlink:href="#DejaVuSans-2212"/>
       <use xlink:href="#DejaVuSans-32" x="83.789062"/>
      </g>
     </g>
    </g>
    <g id="xtick_5">
     <g id="line2d_9">
      <path d="M 427.040625 325.2475 
L 427.040625 33.3575 
" clip-path="url(#p7e3d9be9e4)" style="fill: none; stroke: #94a3b8; stroke-opacity: 0.22; stroke-width: 0.8; stroke-linecap: square"/>
     </g>
     <g id="line2d_10">
      <g>
       <use xlink:href="#m62e41ee621" x="427.040625" y="325.2475" style="fill: #475569; stroke: #475569; stroke-width: 0.8"/>
      </g>
     </g>
     <g id="text_5">
      <!-- 0 -->
      <g style="fill: #475569" transform="translate(423.54125 340.605781) scale(0.11 -0.11)">
       <defs>
        <path id="DejaVuSans-30" d="M 2034 4250 
Q 1547 4250 1301 3770 
Q 1056 3291 1056 2328 
Q 1056 1369 1301 889 
Q 1547 409 2034 409 
Q 2525 409 2770 889 
Q 3016 1369 3016 2328 
Q 3016 3291 2770 3770 
Q 2525 4250 2034 4250 
z
M 2034 4750 
Q 2819 4750 3233 4129 
Q 3647 3509 3647 2328 
Q 3647 1150 3233 529 
Q 2819 -91 2034 -91 
Q 1250 -91 836 529 
Q 422 1150 422 2328 
Q 422 3509 836 4129 
Q 1250 4750 2034 4750 
z
" transform="scale(0.015625)"/>
       </defs>
       <use xlink:href="#DejaVuSans-30"/>
      </g>
     </g>
    </g>
    <g id="xtick_6">
     <g id="line2d_11">
      <path d="M 522.215937 325.2475 
L 522.215937 33.3575 
" clip-path="url(#p7e3d9be9e4)" style="fill: none; stroke: #94a3b8; stroke-opacity: 0.22; stroke-width: 0.8; stroke-linecap: square"/>
     </g>
     <g id="line2d_12">
      <g>
       <use xlink:href="#m62e41ee621" x="522.215937" y="325.2475" style="fill: #475569; stroke: #475569; stroke-width: 0.8"/>
      </g>
     </g>
     <g id="text_6">
      <!-- 2 -->
      <g style="fill: #475569" transform="translate(518.716563 340.605781) scale(0.11 -0.11)">
       <use xlink:href="#DejaVuSans-32"/>
      </g>
     </g>
    </g>
    <g id="xtick_7">
     <g id="line2d_13">
      <path d="M 617.39125 325.2475 
L 617.39125 33.3575 
" clip-path="url(#p7e3d9be9e4)" style="fill: none; stroke: #94a3b8; stroke-opacity: 0.22; stroke-width: 0.8; stroke-linecap: square"/>
     </g>
     <g id="line2d_14">
      <g>
       <use xlink:href="#m62e41ee621" x="617.39125" y="325.2475" style="fill: #475569; stroke: #475569; stroke-width: 0.8"/>
      </g>
     </g>
     <g id="text_7">
      <!-- 4 -->
      <g style="fill: #475569" transform="translate(613.891875 340.605781) scale(0.11 -0.11)">
       <use xlink:href="#DejaVuSans-34"/>
      </g>
     </g>
    </g>
    <g id="xtick_8">
     <g id="line2d_15">
      <path d="M 712.566563 325.2475 
L 712.566563 33.3575 
" clip-path="url(#p7e3d9be9e4)" style="fill: none; stroke: #94a3b8; stroke-opacity: 0.22; stroke-width: 0.8; stroke-linecap: square"/>
     </g>
     <g id="line2d_16">
      <g>
       <use xlink:href="#m62e41ee621" x="712.566563" y="325.2475" style="fill: #475569; stroke: #475569; stroke-width: 0.8"/>
      </g>
     </g>
     <g id="text_8">
      <!-- 6 -->
      <g style="fill: #475569" transform="translate(709.067188 340.605781) scale(0.11 -0.11)">
       <use xlink:href="#DejaVuSans-36"/>
      </g>
     </g>
    </g>
    <g id="xtick_9">
     <g id="line2d_17">
      <path d="M 807.741875 325.2475 
L 807.741875 33.3575 
" clip-path="url(#p7e3d9be9e4)" style="fill: none; stroke: #94a3b8; stroke-opacity: 0.22; stroke-width: 0.8; stroke-linecap: square"/>
     </g>
     <g id="line2d_18">
      <g>
       <use xlink:href="#m62e41ee621" x="807.741875" y="325.2475" style="fill: #475569; stroke: #475569; stroke-width: 0.8"/>
      </g>
     </g>
     <g id="text_9">
      <!-- 8 -->
      <g style="fill: #475569" transform="translate(804.2425 340.605781) scale(0.11 -0.11)">
       <use xlink:href="#DejaVuSans-38"/>
      </g>
     </g>
    </g>
    <g id="text_10">
     <!-- Linear score z = w.x + b -->
     <g style="fill: #334155" transform="translate(360.087578 355.251719) scale(0.11 -0.11)">
      <defs>
       <path id="DejaVuSans-4c" d="M 628 4666 
L 1259 4666 
L 1259 531 
L 3531 531 
L 3531 0 
L 628 0 
L 628 4666 
z
" transform="scale(0.015625)"/>
       <path id="DejaVuSans-69" d="M 603 3500 
L 1178 3500 
L 1178 0 
L 603 0 
L 603 3500 
z
M 603 4863 
L 1178 4863 
L 1178 4134 
L 603 4134 
L 603 4863 
z
" transform="scale(0.015625)"/>
       <path id="DejaVuSans-6e" d="M 3513 2113 
L 3513 0 
L 2938 0 
L 2938 2094 
Q 2938 2591 2744 2837 
Q 2550 3084 2163 3084 
Q 1697 3084 1428 2787 
Q 1159 2491 1159 1978 
L 1159 0 
L 581 0 
L 581 3500 
L 1159 3500 
L 1159 2956 
Q 1366 3272 1645 3428 
Q 1925 3584 2291 3584 
Q 2894 3584 3203 3211 
Q 3513 2838 3513 2113 
z
" transform="scale(0.015625)"/>
       <path id="DejaVuSans-65" d="M 3597 1894 
L 3597 1613 
L 953 1613 
Q 991 1019 1311 708 
Q 1631 397 2203 397 
Q 2534 397 2845 478 
Q 3156 559 3463 722 
L 3463 178 
Q 3153 47 2828 -22 
Q 2503 -91 2169 -91 
Q 1331 -91 842 396 
Q 353 884 353 1716 
Q 353 2575 817 3079 
Q 1281 3584 2069 3584 
Q 2775 3584 3186 3129 
Q 3597 2675 3597 1894 
z
M 3022 2063 
Q 3016 2534 2758 2815 
Q 2500 3097 2075 3097 
Q 1594 3097 1305 2825 
Q 1016 2553 972 2059 
L 3022 2063 
z
" transform="scale(0.015625)"/>
       <path id="DejaVuSans-61" d="M 2194 1759 
Q 1497 1759 1228 1600 
Q 959 1441 959 1056 
Q 959 750 1161 570 
Q 1363 391 1709 391 
Q 2188 391 2477 730 
Q 2766 1069 2766 1631 
L 2766 1759 
L 2194 1759 
z
M 3341 1997 
L 3341 0 
L 2766 0 
L 2766 531 
Q 2569 213 2275 61 
Q 1981 -91 1556 -91 
Q 1019 -91 701 211 
Q 384 513 384 1019 
Q 384 1609 779 1909 
Q 1175 2209 1959 2209 
L 2766 2209 
L 2766 2266 
Q 2766 2663 2505 2880 
Q 2244 3097 1772 3097 
Q 1472 3097 1187 3025 
Q 903 2953 641 2809 
L 641 3341 
Q 956 3463 1253 3523 
Q 1550 3584 1831 3584 
Q 2591 3584 2966 3190 
Q 3341 2797 3341 1997 
z
" transform="scale(0.015625)"/>
       <path id="DejaVuSans-72" d="M 2631 2963 
Q 2534 3019 2420 3045 
Q 2306 3072 2169 3072 
Q 1681 3072 1420 2755 
Q 1159 2438 1159 1844 
L 1159 0 
L 581 0 
L 581 3500 
L 1159 3500 
L 1159 2956 
Q 1341 3275 1631 3429 
Q 1922 3584 2338 3584 
Q 2397 3584 2469 3576 
Q 2541 3569 2628 3553 
L 2631 2963 
z
" transform="scale(0.015625)"/>
       <path id="DejaVuSans-20" transform="scale(0.015625)"/>
       <path id="DejaVuSans-73" d="M 2834 3397 
L 2834 2853 
Q 2591 2978 2328 3040 
Q 2066 3103 1784 3103 
Q 1356 3103 1142 2972 
Q 928 2841 928 2578 
Q 928 2378 1081 2264 
Q 1234 2150 1697 2047 
L 1894 2003 
Q 2506 1872 2764 1633 
Q 3022 1394 3022 966 
Q 3022 478 2636 193 
Q 2250 -91 1575 -91 
Q 1294 -91 989 -36 
Q 684 19 347 128 
L 347 722 
Q 666 556 975 473 
Q 1284 391 1588 391 
Q 1994 391 2212 530 
Q 2431 669 2431 922 
Q 2431 1156 2273 1281 
Q 2116 1406 1581 1522 
L 1381 1569 
Q 847 1681 609 1914 
Q 372 2147 372 2553 
Q 372 3047 722 3315 
Q 1072 3584 1716 3584 
Q 2034 3584 2315 3537 
Q 2597 3491 2834 3397 
z
" transform="scale(0.015625)"/>
       <path id="DejaVuSans-63" d="M 3122 3366 
L 3122 2828 
Q 2878 2963 2633 3030 
Q 2388 3097 2138 3097 
Q 1578 3097 1268 2742 
Q 959 2388 959 1747 
Q 959 1106 1268 751 
Q 1578 397 2138 397 
Q 2388 397 2633 464 
Q 2878 531 3122 666 
L 3122 134 
Q 2881 22 2623 -34 
Q 2366 -91 2075 -91 
Q 1284 -91 818 406 
Q 353 903 353 1747 
Q 353 2603 823 3093 
Q 1294 3584 2113 3584 
Q 2378 3584 2631 3529 
Q 2884 3475 3122 3366 
z
" transform="scale(0.015625)"/>
       <path id="DejaVuSans-6f" d="M 1959 3097 
Q 1497 3097 1228 2736 
Q 959 2375 959 1747 
Q 959 1119 1226 758 
Q 1494 397 1959 397 
Q 2419 397 2687 759 
Q 2956 1122 2956 1747 
Q 2956 2369 2687 2733 
Q 2419 3097 1959 3097 
z
M 1959 3584 
Q 2709 3584 3137 3096 
Q 3566 2609 3566 1747 
Q 3566 888 3137 398 
Q 2709 -91 1959 -91 
Q 1206 -91 779 398 
Q 353 888 353 1747 
Q 353 2609 779 3096 
Q 1206 3584 1959 3584 
z
" transform="scale(0.015625)"/>
       <path id="DejaVuSans-7a" d="M 353 3500 
L 3084 3500 
L 3084 2975 
L 922 459 
L 3084 459 
L 3084 0 
L 275 0 
L 275 525 
L 2438 3041 
L 353 3041 
L 353 3500 
z
" transform="scale(0.015625)"/>
       <path id="DejaVuSans-3d" d="M 678 2906 
L 4684 2906 
L 4684 2381 
L 678 2381 
L 678 2906 
z
M 678 1631 
L 4684 1631 
L 4684 1100 
L 678 1100 
L 678 1631 
z
" transform="scale(0.015625)"/>
       <path id="DejaVuSans-77" d="M 269 3500 
L 844 3500 
L 1563 769 
L 2278 3500 
L 2956 3500 
L 3675 769 
L 4391 3500 
L 4966 3500 
L 4050 0 
L 3372 0 
L 2619 2869 
L 1863 0 
L 1184 0 
L 269 3500 
z
" transform="scale(0.015625)"/>
       <path id="DejaVuSans-2e" d="M 684 794 
L 1344 794 
L 1344 0 
L 684 0 
L 684 794 
z
" transform="scale(0.015625)"/>
       <path id="DejaVuSans-78" d="M 3513 3500 
L 2247 1797 
L 3578 0 
L 2900 0 
L 1881 1375 
L 863 0 
L 184 0 
L 1544 1831 
L 300 3500 
L 978 3500 
L 1906 2253 
L 2834 3500 
L 3513 3500 
z
" transform="scale(0.015625)"/>
       <path id="DejaVuSans-2b" d="M 2944 4013 
L 2944 2272 
L 4684 2272 
L 4684 1741 
L 2944 1741 
L 2944 0 
L 2419 0 
L 2419 1741 
L 678 1741 
L 678 2272 
L 2419 2272 
L 2419 4013 
L 2944 4013 
z
" transform="scale(0.015625)"/>
       <path id="DejaVuSans-62" d="M 3116 1747 
Q 3116 2381 2855 2742 
Q 2594 3103 2138 3103 
Q 1681 3103 1420 2742 
Q 1159 2381 1159 1747 
Q 1159 1113 1420 752 
Q 1681 391 2138 391 
Q 2594 391 2855 752 
Q 3116 1113 3116 1747 
z
M 1159 2969 
Q 1341 3281 1617 3432 
Q 1894 3584 2278 3584 
Q 2916 3584 3314 3078 
Q 3713 2572 3713 1747 
Q 3713 922 3314 415 
Q 2916 -91 2278 -91 
Q 1894 -91 1617 61 
Q 1341 213 1159 525 
L 1159 0 
L 581 0 
L 581 4863 
L 1159 4863 
L 1159 2969 
z
" transform="scale(0.015625)"/>
      </defs>
      <use xlink:href="#DejaVuSans-4c"/>
      <use xlink:href="#DejaVuSans-69" x="55.712891"/>
      <use xlink:href="#DejaVuSans-6e" x="83.496094"/>
      <use xlink:href="#DejaVuSans-65" x="146.875"/>
      <use xlink:href="#DejaVuSans-61" x="208.398438"/>
      <use xlink:href="#DejaVuSans-72" x="269.677734"/>
      <use xlink:href="#DejaVuSans-20" x="310.791016"/>
      <use xlink:href="#DejaVuSans-73" x="342.578125"/>
      <use xlink:href="#DejaVuSans-63" x="394.677734"/>
      <use xlink:href="#DejaVuSans-6f" x="449.658203"/>
      <use xlink:href="#DejaVuSans-72" x="510.839844"/>
      <use xlink:href="#DejaVuSans-65" x="549.703125"/>
      <use xlink:href="#DejaVuSans-20" x="611.226562"/>
      <use xlink:href="#DejaVuSans-7a" x="643.013672"/>
      <use xlink:href="#DejaVuSans-20" x="695.503906"/>
      <use xlink:href="#DejaVuSans-3d" x="727.291016"/>
      <use xlink:href="#DejaVuSans-20" x="811.080078"/>
      <use xlink:href="#DejaVuSans-77" x="842.867188"/>
      <use xlink:href="#DejaVuSans-2e" x="915.529297"/>
      <use xlink:href="#DejaVuSans-78" x="947.316406"/>
      <use xlink:href="#DejaVuSans-20" x="1006.496094"/>
      <use xlink:href="#DejaVuSans-2b" x="1038.283203"/>
      <use xlink:href="#DejaVuSans-20" x="1122.072266"/>
      <use xlink:href="#DejaVuSans-62" x="1153.859375"/>
     </g>
    </g>
   </g>
   <g id="matplotlib.axis_2">
    <g id="ytick_1">
     <g id="line2d_19">
      <path d="M 46.339375 325.2475 
L 807.741875 325.2475 
" clip-path="url(#p7e3d9be9e4)" style="fill: none; stroke: #94a3b8; stroke-opacity: 0.22; stroke-width: 0.8; stroke-linecap: square"/>
     </g>
     <g id="line2d_20">
      <defs>
       <path id="m41b8fca866" d="M 0 0 
L -3.5 0 
" style="stroke: #475569; stroke-width: 0.8"/>
      </defs>
      <g>
       <use xlink:href="#m41b8fca866" x="46.339375" y="325.2475" style="fill: #475569; stroke: #475569; stroke-width: 0.8"/>
      </g>
     </g>
     <g id="text_11">
      <!-- 0.0 -->
      <g style="fill: #475569" transform="translate(21.845938 329.426641) scale(0.11 -0.11)">
       <use xlink:href="#DejaVuSans-30"/>
       <use xlink:href="#DejaVuSans-2e" x="63.623047"/>
       <use xlink:href="#DejaVuSans-30" x="95.410156"/>
      </g>
     </g>
    </g>
    <g id="ytick_2">
     <g id="line2d_21">
      <path d="M 46.339375 268.014167 
L 807.741875 268.014167 
" clip-path="url(#p7e3d9be9e4)" style="fill: none; stroke: #94a3b8; stroke-opacity: 0.22; stroke-width: 0.8; stroke-linecap: square"/>
     </g>
     <g id="line2d_22">
      <g>
       <use xlink:href="#m41b8fca866" x="46.339375" y="268.014167" style="fill: #475569; stroke: #475569; stroke-width: 0.8"/>
      </g>
     </g>
     <g id="text_12">
      <!-- 0.2 -->
      <g style="fill: #475569" transform="translate(21.845938 272.193307) scale(0.11 -0.11)">
       <use xlink:href="#DejaVuSans-30"/>
       <use xlink:href="#DejaVuSans-2e" x="63.623047"/>
       <use xlink:href="#DejaVuSans-32" x="95.410156"/>
      </g>
     </g>
    </g>
    <g id="ytick_3">
     <g id="line2d_23">
      <path d="M 46.339375 210.780833 
L 807.741875 210.780833 
" clip-path="url(#p7e3d9be9e4)" style="fill: none; stroke: #94a3b8; stroke-opacity: 0.22; stroke-width: 0.8; stroke-linecap: square"/>
     </g>
     <g id="line2d_24">
      <g>
       <use xlink:href="#m41b8fca866" x="46.339375" y="210.780833" style="fill: #475569; stroke: #475569; stroke-width: 0.8"/>
      </g>
     </g>
     <g id="text_13">
      <!-- 0.4 -->
      <g style="fill: #475569" transform="translate(21.845938 214.959974) scale(0.11 -0.11)">
       <use xlink:href="#DejaVuSans-30"/>
       <use xlink:href="#DejaVuSans-2e" x="63.623047"/>
       <use xlink:href="#DejaVuSans-34" x="95.410156"/>
      </g>
     </g>
    </g>
    <g id="ytick_4">
     <g id="line2d_25">
      <path d="M 46.339375 153.5475 
L 807.741875 153.5475 
" clip-path="url(#p7e3d9be9e4)" style="fill: none; stroke: #94a3b8; stroke-opacity: 0.22; stroke-width: 0.8; stroke-linecap: square"/>
     </g>
     <g id="line2d_26">
      <g>
       <use xlink:href="#m41b8fca866" x="46.339375" y="153.5475" style="fill: #475569; stroke: #475569; stroke-width: 0.8"/>
      </g>
     </g>
     <g id="text_14">
      <!-- 0.6 -->
      <g style="fill: #475569" transform="translate(21.845938 157.726641) scale(0.11 -0.11)">
       <use xlink:href="#DejaVuSans-30"/>
       <use xlink:href="#DejaVuSans-2e" x="63.623047"/>
       <use xlink:href="#DejaVuSans-36" x="95.410156"/>
      </g>
     </g>
    </g>
    <g id="ytick_5">
     <g id="line2d_27">
      <path d="M 46.339375 96.314167 
L 807.741875 96.314167 
" clip-path="url(#p7e3d9be9e4)" style="fill: none; stroke: #94a3b8; stroke-opacity: 0.22; stroke-width: 0.8; stroke-linecap: square"/>
     </g>
     <g id="line2d_28">
      <g>
       <use xlink:href="#m41b8fca866" x="46.339375" y="96.314167" style="fill: #475569; stroke: #475569; stroke-width: 0.8"/>
      </g>
     </g>
     <g id="text_15">
      <!-- 0.8 -->
      <g style="fill: #475569" transform="translate(21.845938 100.493307) scale(0.11 -0.11)">
       <use xlink:href="#DejaVuSans-30"/>
       <use xlink:href="#DejaVuSans-2e" x="63.623047"/>
       <use xlink:href="#DejaVuSans-38" x="95.410156"/>
      </g>
     </g>
    </g>
    <g id="ytick_6">
     <g id="line2d_29">
      <path d="M 46.339375 39.080833 
L 807.741875 39.080833 
" clip-path="url(#p7e3d9be9e4)" style="fill: none; stroke: #94a3b8; stroke-opacity: 0.22; stroke-width: 0.8; stroke-linecap: square"/>
     </g>
     <g id="line2d_30">
      <g>
       <use xlink:href="#m41b8fca866" x="46.339375" y="39.080833" style="fill: #475569; stroke: #475569; stroke-width: 0.8"/>
      </g>
     </g>
     <g id="text_16">
      <!-- 1.0 -->
      <g style="fill: #475569" transform="translate(21.845938 43.259974) scale(0.11 -0.11)">
       <defs>
        <path id="DejaVuSans-31" d="M 794 531 
L 1825 531 
L 1825 4091 
L 703 3866 
L 703 4441 
L 1819 4666 
L 2450 4666 
L 2450 531 
L 3481 531 
L 3481 0 
L 794 0 
L 794 531 
z
" transform="scale(0.015625)"/>
       </defs>
       <use xlink:href="#DejaVuSans-31"/>
       <use xlink:href="#DejaVuSans-2e" x="63.623047"/>
       <use xlink:href="#DejaVuSans-30" x="95.410156"/>
      </g>
     </g>
    </g>
    <g id="text_17">
     <!-- Predicted probability -->
     <g style="fill: #334155" transform="translate(15.558281 236.211172) rotate(-90) scale(0.11 -0.11)">
      <defs>
       <path id="DejaVuSans-50" d="M 1259 4147 
L 1259 2394 
L 2053 2394 
Q 2494 2394 2734 2622 
Q 2975 2850 2975 3272 
Q 2975 3691 2734 3919 
Q 2494 4147 2053 4147 
L 1259 4147 
z
M 628 4666 
L 2053 4666 
Q 2838 4666 3239 4311 
Q 3641 3956 3641 3272 
Q 3641 2581 3239 2228 
Q 2838 1875 2053 1875 
L 1259 1875 
L 1259 0 
L 628 0 
L 628 4666 
z
" transform="scale(0.015625)"/>
       <path id="DejaVuSans-64" d="M 2906 2969 
L 2906 4863 
L 3481 4863 
L 3481 0 
L 2906 0 
L 2906 525 
Q 2725 213 2448 61 
Q 2172 -91 1784 -91 
Q 1150 -91 751 415 
Q 353 922 353 1747 
Q 353 2572 751 3078 
Q 1150 3584 1784 3584 
Q 2172 3584 2448 3432 
Q 2725 3281 2906 2969 
z
M 947 1747 
Q 947 1113 1208 752 
Q 1469 391 1925 391 
Q 2381 391 2643 752 
Q 2906 1113 2906 1747 
Q 2906 2381 2643 2742 
Q 2381 3103 1925 3103 
Q 1469 3103 1208 2742 
Q 947 2381 947 1747 
z
" transform="scale(0.015625)"/>
       <path id="DejaVuSans-74" d="M 1172 4494 
L 1172 3500 
L 2356 3500 
L 2356 3053 
L 1172 3053 
L 1172 1153 
Q 1172 725 1289 603 
Q 1406 481 1766 481 
L 2356 481 
L 2356 0 
L 1766 0 
Q 1100 0 847 248 
Q 594 497 594 1153 
L 594 3053 
L 172 3053 
L 172 3500 
L 594 3500 
L 594 4494 
L 1172 4494 
z
" transform="scale(0.015625)"/>
       <path id="DejaVuSans-70" d="M 1159 525 
L 1159 -1331 
L 581 -1331 
L 581 3500 
L 1159 3500 
L 1159 2969 
Q 1341 3281 1617 3432 
Q 1894 3584 2278 3584 
Q 2916 3584 3314 3078 
Q 3713 2572 3713 1747 
Q 3713 922 3314 415 
Q 2916 -91 2278 -91 
Q 1894 -91 1617 61 
Q 1341 213 1159 525 
z
M 3116 1747 
Q 3116 2381 2855 2742 
Q 2594 3103 2138 3103 
Q 1681 3103 1420 2742 
Q 1159 2381 1159 1747 
Q 1159 1113 1420 752 
Q 1681 391 2138 391 
Q 2594 391 2855 752 
Q 3116 1113 3116 1747 
z
" transform="scale(0.015625)"/>
       <path id="DejaVuSans-6c" d="M 603 4863 
L 1178 4863 
L 1178 0 
L 603 0 
L 603 4863 
z
" transform="scale(0.015625)"/>
       <path id="DejaVuSans-79" d="M 2059 -325 
Q 1816 -950 1584 -1140 
Q 1353 -1331 966 -1331 
L 506 -1331 
L 506 -850 
L 844 -850 
Q 1081 -850 1212 -737 
Q 1344 -625 1503 -206 
L 1606 56 
L 191 3500 
L 800 3500 
L 1894 763 
L 2988 3500 
L 3597 3500 
L 2059 -325 
z
" transform="scale(0.015625)"/>
      </defs>
      <use xlink:href="#DejaVuSans-50"/>
      <use xlink:href="#DejaVuSans-72" x="58.552734"/>
      <use xlink:href="#DejaVuSans-65" x="97.416016"/>
      <use xlink:href="#DejaVuSans-64" x="158.939453"/>
      <use xlink:href="#DejaVuSans-69" x="222.416016"/>
      <use xlink:href="#DejaVuSans-63" x="250.199219"/>
      <use xlink:href="#DejaVuSans-74" x="305.179688"/>
      <use xlink:href="#DejaVuSans-65" x="344.388672"/>
      <use xlink:href="#DejaVuSans-64" x="405.912109"/>
      <use xlink:href="#DejaVuSans-20" x="469.388672"/>
      <use xlink:href="#DejaVuSans-70" x="501.175781"/>
      <use xlink:href="#DejaVuSans-72" x="564.652344"/>
      <use xlink:href="#DejaVuSans-6f" x="603.515625"/>
      <use xlink:href="#DejaVuSans-62" x="664.697266"/>
      <use xlink:href="#DejaVuSans-61" x="728.173828"/>
      <use xlink:href="#DejaVuSans-62" x="789.453125"/>
      <use xlink:href="#DejaVuSans-69" x="852.929688"/>
      <use xlink:href="#DejaVuSans-6c" x="880.712891"/>
      <use xlink:href="#DejaVuSans-69" x="908.496094"/>
      <use xlink:href="#DejaVuSans-74" x="936.279297"/>
      <use xlink:href="#DejaVuSans-79" x="975.488281"/>
     </g>
    </g>
   </g>
   <g id="line2d_31">
    <path d="M 46.339375 325.151534 
L 103.539897 324.928492 
L 137.86021 324.592102 
L 163.282664 324.131116 
L 183.620627 323.539376 
L 200.145222 322.8362 
L 214.127572 322.021912 
L 226.838799 321.048772 
L 237.007781 320.066585 
L 247.176762 318.859844 
L 256.074621 317.581716 
L 263.701357 316.290921 
L 271.328094 314.790938 
L 278.95483 313.0508 
L 285.310443 311.392449 
L 291.666057 309.521558 
L 298.02167 307.414579 
L 304.377284 305.046392 
L 310.732898 302.390502 
L 315.817388 300.040146 
L 320.901879 297.473598 
L 325.98637 294.676345 
L 331.070861 291.634014 
L 336.155352 288.332649 
L 341.239842 284.75902 
L 346.324333 280.900989 
L 351.408824 276.747911 
L 356.493315 272.291067 
L 361.577806 267.524136 
L 366.662297 262.443662 
L 371.746787 257.049525 
L 376.831278 251.345379 
L 381.915769 245.33904 
L 387.00026 239.042791 
L 393.355873 230.791072 
L 399.711487 222.1567 
L 407.338223 211.368109 
L 416.236082 198.33793 
L 431.489554 175.480664 
L 442.929659 158.496602 
L 450.556395 147.513616 
L 456.912009 138.675224 
L 463.267622 130.187962 
L 469.623236 122.102128 
L 474.707726 115.94901 
L 479.792217 110.092517 
L 484.876708 104.542667 
L 489.961199 99.30515 
L 495.04569 94.381682 
L 500.130181 89.770417 
L 505.214671 85.466407 
L 510.299162 81.462073 
L 515.383653 77.747677 
L 520.468144 74.311775 
L 525.552635 71.141634 
L 530.637125 68.223619 
L 535.721616 65.54353 
L 540.806107 63.086892 
L 545.890598 60.839206 
L 552.246211 58.301653 
L 558.601825 56.041058 
L 564.957438 54.031444 
L 571.313052 52.248302 
L 577.668665 50.668747 
L 585.295402 49.012319 
L 592.922138 47.585334 
L 601.819997 46.170925 
L 610.717856 44.986747 
L 620.886837 43.869459 
L 632.326942 42.859703 
L 645.038169 41.982871 
L 659.020519 41.249636 
L 675.545114 40.616794 
L 694.611954 40.111557 
L 718.763286 39.702211 
L 750.541353 39.399842 
L 797.572893 39.199653 
L 807.741875 39.176799 
L 807.741875 39.176799 
" clip-path="url(#p7e3d9be9e4)" style="fill: none; stroke: #2563eb; stroke-width: 3; stroke-linecap: square"/>
   </g>
   <g id="line2d_32">
    <path d="M 427.040625 325.2475 
L 427.040625 33.3575 
" clip-path="url(#p7e3d9be9e4)" style="fill: none; stroke-dasharray: 4.81,2.08; stroke-dashoffset: 0; stroke: #475569; stroke-width: 1.3"/>
   </g>
   <g id="line2d_33">
    <path d="M 46.339375 182.164167 
L 807.741875 182.164167 
" clip-path="url(#p7e3d9be9e4)" style="fill: none; stroke-dasharray: 4.81,2.08; stroke-dashoffset: 0; stroke: #475569; stroke-width: 1.3"/>
   </g>
   <g id="patch_3">
    <path d="M 46.339375 325.2475 
L 46.339375 33.3575 
" style="fill: none; stroke: #94a3b8; stroke-width: 0.8; stroke-linejoin: miter; stroke-linecap: square"/>
   </g>
   <g id="patch_4">
    <path d="M 46.339375 325.2475 
L 807.741875 325.2475 
" style="fill: none; stroke: #94a3b8; stroke-width: 0.8; stroke-linejoin: miter; stroke-linecap: square"/>
   </g>
   <g id="patch_5">
    <path d="M 560.057896 231.715124 
Q 494.484944 207.288202 430.483544 183.446706 
" style="fill: none; stroke: #1d4ed8; stroke-width: 1.5; stroke-linecap: round"/>
    <path d="M 433.838772 187.044267 
L 430.483544 183.446706 
L 435.37473 182.92106 
" style="fill: none; stroke: #1d4ed8; stroke-width: 1.5; stroke-linecap: round"/>
   </g>
   <g id="text_18">
    <g id="patch_6">
     <path d="M 507.939641 251.25849 
L 667.853859 251.25849 
Q 671.703859 251.25849 671.703859 247.40849 
L 671.703859 236.762552 
Q 671.703859 232.912552 667.853859 232.912552 
L 507.939641 232.912552 
Q 504.089641 232.912552 504.089641 236.762552 
L 504.089641 247.40849 
Q 504.089641 251.25849 507.939641 251.25849 
z
" style="fill: #eff6ff; stroke: #93c5fd; stroke-linejoin: miter"/>
    </g>
    <!-- logit = 0 -&gt; probability = 0.5 -->
    <g style="fill: #1e3a8a" transform="translate(507.939641 245.120833) scale(0.11 -0.11)">
     <defs>
      <path id="DejaVuSans-67" d="M 2906 1791 
Q 2906 2416 2648 2759 
Q 2391 3103 1925 3103 
Q 1463 3103 1205 2759 
Q 947 2416 947 1791 
Q 947 1169 1205 825 
Q 1463 481 1925 481 
Q 2391 481 2648 825 
Q 2906 1169 2906 1791 
z
M 3481 434 
Q 3481 -459 3084 -895 
Q 2688 -1331 1869 -1331 
Q 1566 -1331 1297 -1286 
Q 1028 -1241 775 -1147 
L 775 -588 
Q 1028 -725 1275 -790 
Q 1522 -856 1778 -856 
Q 2344 -856 2625 -561 
Q 2906 -266 2906 331 
L 2906 616 
Q 2728 306 2450 153 
Q 2172 0 1784 0 
Q 1141 0 747 490 
Q 353 981 353 1791 
Q 353 2603 747 3093 
Q 1141 3584 1784 3584 
Q 2172 3584 2450 3431 
Q 2728 3278 2906 2969 
L 2906 3500 
L 3481 3500 
L 3481 434 
z
" transform="scale(0.015625)"/>
      <path id="DejaVuSans-2d" d="M 313 2009 
L 1997 2009 
L 1997 1497 
L 313 1497 
L 313 2009 
z
" transform="scale(0.015625)"/>
      <path id="DejaVuSans-3e" d="M 678 3150 
L 678 3719 
L 4684 2266 
L 4684 1747 
L 678 294 
L 678 863 
L 3897 2003 
L 678 3150 
z
" transform="scale(0.015625)"/>
      <path id="DejaVuSans-35" d="M 691 4666 
L 3169 4666 
L 3169 4134 
L 1269 4134 
L 1269 2991 
Q 1406 3038 1543 3061 
Q 1681 3084 1819 3084 
Q 2600 3084 3056 2656 
Q 3513 2228 3513 1497 
Q 3513 744 3044 326 
Q 2575 -91 1722 -91 
Q 1428 -91 1123 -41 
Q 819 9 494 109 
L 494 744 
Q 775 591 1075 516 
Q 1375 441 1709 441 
Q 2250 441 2565 725 
Q 2881 1009 2881 1497 
Q 2881 1984 2565 2268 
Q 2250 2553 1709 2553 
Q 1456 2553 1204 2497 
Q 953 2441 691 2322 
L 691 4666 
z
" transform="scale(0.015625)"/>
     </defs>
     <use xlink:href="#DejaVuSans-6c"/>
     <use xlink:href="#DejaVuSans-6f" x="27.783203"/>
     <use xlink:href="#DejaVuSans-67" x="88.964844"/>
     <use xlink:href="#DejaVuSans-69" x="152.441406"/>
     <use xlink:href="#DejaVuSans-74" x="180.224609"/>
     <use xlink:href="#DejaVuSans-20" x="219.433594"/>
     <use xlink:href="#DejaVuSans-3d" x="251.220703"/>
     <use xlink:href="#DejaVuSans-20" x="335.009766"/>
     <use xlink:href="#DejaVuSans-30" x="366.796875"/>
     <use xlink:href="#DejaVuSans-20" x="430.419922"/>
     <use xlink:href="#DejaVuSans-2d" x="462.207031"/>
     <use xlink:href="#DejaVuSans-3e" x="498.291016"/>
     <use xlink:href="#DejaVuSans-20" x="582.080078"/>
     <use xlink:href="#DejaVuSans-70" x="613.867188"/>
     <use xlink:href="#DejaVuSans-72" x="677.34375"/>
     <use xlink:href="#DejaVuSans-6f" x="716.207031"/>
     <use xlink:href="#DejaVuSans-62" x="777.388672"/>
     <use xlink:href="#DejaVuSans-61" x="840.865234"/>
     <use xlink:href="#DejaVuSans-62" x="902.144531"/>
     <use xlink:href="#DejaVuSans-69" x="965.621094"/>
     <use xlink:href="#DejaVuSans-6c" x="993.404297"/>
     <use xlink:href="#DejaVuSans-69" x="1021.1875"/>
     <use xlink:href="#DejaVuSans-74" x="1048.970703"/>
     <use xlink:href="#DejaVuSans-79" x="1088.179688"/>
     <use xlink:href="#DejaVuSans-20" x="1147.359375"/>
     <use xlink:href="#DejaVuSans-3d" x="1179.146484"/>
     <use xlink:href="#DejaVuSans-20" x="1262.935547"/>
     <use xlink:href="#DejaVuSans-30" x="1294.722656"/>
     <use xlink:href="#DejaVuSans-2e" x="1358.345703"/>
     <use xlink:href="#DejaVuSans-35" x="1390.132812"/>
    </g>
   </g>
   <g id="text_19">
    <!-- Very negative score -->
    <g style="fill: #334155" transform="translate(103.444563 290.036573) scale(0.11 -0.11)">
     <defs>
      <path id="DejaVuSans-56" d="M 1831 0 
L 50 4666 
L 709 4666 
L 2188 738 
L 3669 4666 
L 4325 4666 
L 2547 0 
L 1831 0 
z
" transform="scale(0.015625)"/>
      <path id="DejaVuSans-76" d="M 191 3500 
L 800 3500 
L 1894 563 
L 2988 3500 
L 3597 3500 
L 2284 0 
L 1503 0 
L 191 3500 
z
" transform="scale(0.015625)"/>
     </defs>
     <use xlink:href="#DejaVuSans-56"/>
     <use xlink:href="#DejaVuSans-65" x="60.658203"/>
     <use xlink:href="#DejaVuSans-72" x="122.181641"/>
     <use xlink:href="#DejaVuSans-79" x="163.294922"/>
     <use xlink:href="#DejaVuSans-20" x="222.474609"/>
     <use xlink:href="#DejaVuSans-6e" x="254.261719"/>
     <use xlink:href="#DejaVuSans-65" x="317.640625"/>
     <use xlink:href="#DejaVuSans-67" x="379.164062"/>
     <use xlink:href="#DejaVuSans-61" x="442.640625"/>
     <use xlink:href="#DejaVuSans-74" x="503.919922"/>
     <use xlink:href="#DejaVuSans-69" x="543.128906"/>
     <use xlink:href="#DejaVuSans-76" x="570.912109"/>
     <use xlink:href="#DejaVuSans-65" x="630.091797"/>
     <use xlink:href="#DejaVuSans-20" x="691.615234"/>
     <use xlink:href="#DejaVuSans-73" x="723.402344"/>
     <use xlink:href="#DejaVuSans-63" x="775.501953"/>
     <use xlink:href="#DejaVuSans-6f" x="830.482422"/>
     <use xlink:href="#DejaVuSans-72" x="891.664062"/>
     <use xlink:href="#DejaVuSans-65" x="930.527344"/>
    </g>
    <!-- -&gt; near-certain class 0 -->
    <g style="fill: #334155" transform="translate(103.444563 302.354167) scale(0.11 -0.11)">
     <use xlink:href="#DejaVuSans-2d"/>
     <use xlink:href="#DejaVuSans-3e" x="36.083984"/>
     <use xlink:href="#DejaVuSans-20" x="119.873047"/>
     <use xlink:href="#DejaVuSans-6e" x="151.660156"/>
     <use xlink:href="#DejaVuSans-65" x="215.039062"/>
     <use xlink:href="#DejaVuSans-61" x="276.5625"/>
     <use xlink:href="#DejaVuSans-72" x="337.841797"/>
     <use xlink:href="#DejaVuSans-2d" x="372.580078"/>
     <use xlink:href="#DejaVuSans-63" x="408.664062"/>
     <use xlink:href="#DejaVuSans-65" x="463.644531"/>
     <use xlink:href="#DejaVuSans-72" x="525.167969"/>
     <use xlink:href="#DejaVuSans-74" x="566.28125"/>
     <use xlink:href="#DejaVuSans-61" x="605.490234"/>
     <use xlink:href="#DejaVuSans-69" x="666.769531"/>
     <use xlink:href="#DejaVuSans-6e" x="694.552734"/>
     <use xlink:href="#DejaVuSans-20" x="757.931641"/>
     <use xlink:href="#DejaVuSans-63" x="789.71875"/>
     <use xlink:href="#DejaVuSans-6c" x="844.699219"/>
     <use xlink:href="#DejaVuSans-61" x="872.482422"/>
     <use xlink:href="#DejaVuSans-73" x="933.761719"/>
     <use xlink:href="#DejaVuSans-73" x="985.861328"/>
     <use xlink:href="#DejaVuSans-20" x="1037.960938"/>
     <use xlink:href="#DejaVuSans-30" x="1069.748047"/>
    </g>
   </g>
   <g id="text_20">
    <!-- Very positive score -->
    <g style="fill: #334155" transform="translate(636.426312 55.379906) scale(0.11 -0.11)">
     <use xlink:href="#DejaVuSans-56"/>
     <use xlink:href="#DejaVuSans-65" x="60.658203"/>
     <use xlink:href="#DejaVuSans-72" x="122.181641"/>
     <use xlink:href="#DejaVuSans-79" x="163.294922"/>
     <use xlink:href="#DejaVuSans-20" x="222.474609"/>
     <use xlink:href="#DejaVuSans-70" x="254.261719"/>
     <use xlink:href="#DejaVuSans-6f" x="317.738281"/>
     <use xlink:href="#DejaVuSans-73" x="378.919922"/>
     <use xlink:href="#DejaVuSans-69" x="431.019531"/>
     <use xlink:href="#DejaVuSans-74" x="458.802734"/>
     <use xlink:href="#DejaVuSans-69" x="498.011719"/>
     <use xlink:href="#DejaVuSans-76" x="525.794922"/>
     <use xlink:href="#DejaVuSans-65" x="584.974609"/>
     <use xlink:href="#DejaVuSans-20" x="646.498047"/>
     <use xlink:href="#DejaVuSans-73" x="678.285156"/>
     <use xlink:href="#DejaVuSans-63" x="730.384766"/>
     <use xlink:href="#DejaVuSans-6f" x="785.365234"/>
     <use xlink:href="#DejaVuSans-72" x="846.546875"/>
     <use xlink:href="#DejaVuSans-65" x="885.410156"/>
    </g>
    <!-- -&gt; near-certain class 1 -->
    <g style="fill: #334155" transform="translate(636.426312 67.6975) scale(0.11 -0.11)">
     <use xlink:href="#DejaVuSans-2d"/>
     <use xlink:href="#DejaVuSans-3e" x="36.083984"/>
     <use xlink:href="#DejaVuSans-20" x="119.873047"/>
     <use xlink:href="#DejaVuSans-6e" x="151.660156"/>
     <use xlink:href="#DejaVuSans-65" x="215.039062"/>
     <use xlink:href="#DejaVuSans-61" x="276.5625"/>
     <use xlink:href="#DejaVuSans-72" x="337.841797"/>
     <use xlink:href="#DejaVuSans-2d" x="372.580078"/>
     <use xlink:href="#DejaVuSans-63" x="408.664062"/>
     <use xlink:href="#DejaVuSans-65" x="463.644531"/>
     <use xlink:href="#DejaVuSans-72" x="525.167969"/>
     <use xlink:href="#DejaVuSans-74" x="566.28125"/>
     <use xlink:href="#DejaVuSans-61" x="605.490234"/>
     <use xlink:href="#DejaVuSans-69" x="666.769531"/>
     <use xlink:href="#DejaVuSans-6e" x="694.552734"/>
     <use xlink:href="#DejaVuSans-20" x="757.931641"/>
     <use xlink:href="#DejaVuSans-63" x="789.71875"/>
     <use xlink:href="#DejaVuSans-6c" x="844.699219"/>
     <use xlink:href="#DejaVuSans-61" x="872.482422"/>
     <use xlink:href="#DejaVuSans-73" x="933.761719"/>
     <use xlink:href="#DejaVuSans-73" x="985.861328"/>
     <use xlink:href="#DejaVuSans-20" x="1037.960938"/>
     <use xlink:href="#DejaVuSans-31" x="1069.748047"/>
    </g>
   </g>
   <g id="text_21">
    <!-- p(y=1 | x) = sigma(w.x + b) -->
    <g style="fill: #0f172a" transform="translate(61.567425 50.8709) scale(0.125 -0.125)">
     <defs>
      <path id="DejaVuSans-Bold-70" d="M 1656 506 
L 1656 -1331 
L 538 -1331 
L 538 3500 
L 1656 3500 
L 1656 2988 
Q 1888 3294 2169 3439 
Q 2450 3584 2816 3584 
Q 3463 3584 3878 3070 
Q 4294 2556 4294 1747 
Q 4294 938 3878 423 
Q 3463 -91 2816 -91 
Q 2450 -91 2169 54 
Q 1888 200 1656 506 
z
M 2400 2772 
Q 2041 2772 1848 2508 
Q 1656 2244 1656 1747 
Q 1656 1250 1848 986 
Q 2041 722 2400 722 
Q 2759 722 2948 984 
Q 3138 1247 3138 1747 
Q 3138 2247 2948 2509 
Q 2759 2772 2400 2772 
z
" transform="scale(0.015625)"/>
      <path id="DejaVuSans-Bold-28" d="M 2413 -844 
L 1484 -844 
Q 1006 -72 778 623 
Q 550 1319 550 2003 
Q 550 2688 779 3389 
Q 1009 4091 1484 4856 
L 2413 4856 
Q 2013 4116 1813 3408 
Q 1613 2700 1613 2009 
Q 1613 1319 1811 609 
Q 2009 -100 2413 -844 
z
" transform="scale(0.015625)"/>
      <path id="DejaVuSans-Bold-79" d="M 78 3500 
L 1197 3500 
L 2138 1125 
L 2938 3500 
L 4056 3500 
L 2584 -331 
Q 2363 -916 2067 -1148 
Q 1772 -1381 1288 -1381 
L 641 -1381 
L 641 -647 
L 991 -647 
Q 1275 -647 1404 -556 
Q 1534 -466 1606 -231 
L 1638 -134 
L 78 3500 
z
" transform="scale(0.015625)"/>
      <path id="DejaVuSans-Bold-3d" d="M 678 3084 
L 4684 3084 
L 4684 2350 
L 678 2350 
L 678 3084 
z
M 678 1663 
L 4684 1663 
L 4684 922 
L 678 922 
L 678 1663 
z
" transform="scale(0.015625)"/>
      <path id="DejaVuSans-Bold-31" d="M 750 831 
L 1813 831 
L 1813 3847 
L 722 3622 
L 722 4441 
L 1806 4666 
L 2950 4666 
L 2950 831 
L 4013 831 
L 4013 0 
L 750 0 
L 750 831 
z
" transform="scale(0.015625)"/>
      <path id="DejaVuSans-Bold-20" transform="scale(0.015625)"/>
      <path id="DejaVuSans-Bold-7c" d="M 1522 4891 
L 1522 -1509 
L 813 -1509 
L 813 4891 
L 1522 4891 
z
" transform="scale(0.015625)"/>
      <path id="DejaVuSans-Bold-78" d="M 1422 1791 
L 159 3500 
L 1344 3500 
L 2059 2463 
L 2784 3500 
L 3969 3500 
L 2706 1797 
L 4031 0 
L 2847 0 
L 2059 1106 
L 1281 0 
L 97 0 
L 1422 1791 
z
" transform="scale(0.015625)"/>
      <path id="DejaVuSans-Bold-29" d="M 513 -844 
Q 913 -100 1113 609 
Q 1313 1319 1313 2009 
Q 1313 2700 1113 3408 
Q 913 4116 513 4856 
L 1441 4856 
Q 1916 4091 2145 3389 
Q 2375 2688 2375 2003 
Q 2375 1319 2147 623 
Q 1919 -72 1441 -844 
L 513 -844 
z
" transform="scale(0.015625)"/>
      <path id="DejaVuSans-Bold-73" d="M 3272 3391 
L 3272 2541 
Q 2913 2691 2578 2766 
Q 2244 2841 1947 2841 
Q 1628 2841 1473 2761 
Q 1319 2681 1319 2516 
Q 1319 2381 1436 2309 
Q 1553 2238 1856 2203 
L 2053 2175 
Q 2913 2066 3209 1816 
Q 3506 1566 3506 1031 
Q 3506 472 3093 190 
Q 2681 -91 1863 -91 
Q 1516 -91 1145 -36 
Q 775 19 384 128 
L 384 978 
Q 719 816 1070 734 
Q 1422 653 1784 653 
Q 2113 653 2278 743 
Q 2444 834 2444 1013 
Q 2444 1163 2330 1236 
Q 2216 1309 1875 1350 
L 1678 1375 
Q 931 1469 631 1722 
Q 331 1975 331 2491 
Q 331 3047 712 3315 
Q 1094 3584 1881 3584 
Q 2191 3584 2531 3537 
Q 2872 3491 3272 3391 
z
" transform="scale(0.015625)"/>
      <path id="DejaVuSans-Bold-69" d="M 538 3500 
L 1656 3500 
L 1656 0 
L 538 0 
L 538 3500 
z
M 538 4863 
L 1656 4863 
L 1656 3950 
L 538 3950 
L 538 4863 
z
" transform="scale(0.015625)"/>
      <path id="DejaVuSans-Bold-67" d="M 2919 594 
Q 2688 288 2409 144 
Q 2131 0 1766 0 
Q 1125 0 706 504 
Q 288 1009 288 1791 
Q 288 2575 706 3076 
Q 1125 3578 1766 3578 
Q 2131 3578 2409 3434 
Q 2688 3291 2919 2981 
L 2919 3500 
L 4044 3500 
L 4044 353 
Q 4044 -491 3511 -936 
Q 2978 -1381 1966 -1381 
Q 1638 -1381 1331 -1331 
Q 1025 -1281 716 -1178 
L 716 -306 
Q 1009 -475 1290 -558 
Q 1572 -641 1856 -641 
Q 2406 -641 2662 -400 
Q 2919 -159 2919 353 
L 2919 594 
z
M 2181 2772 
Q 1834 2772 1640 2515 
Q 1447 2259 1447 1791 
Q 1447 1309 1634 1061 
Q 1822 813 2181 813 
Q 2531 813 2725 1069 
Q 2919 1325 2919 1791 
Q 2919 2259 2725 2515 
Q 2531 2772 2181 2772 
z
" transform="scale(0.015625)"/>
      <path id="DejaVuSans-Bold-6d" d="M 3781 2919 
Q 3994 3244 4286 3414 
Q 4578 3584 4928 3584 
Q 5531 3584 5847 3212 
Q 6163 2841 6163 2131 
L 6163 0 
L 5038 0 
L 5038 1825 
Q 5041 1866 5042 1909 
Q 5044 1953 5044 2034 
Q 5044 2406 4934 2573 
Q 4825 2741 4581 2741 
Q 4263 2741 4089 2478 
Q 3916 2216 3909 1719 
L 3909 0 
L 2784 0 
L 2784 1825 
Q 2784 2406 2684 2573 
Q 2584 2741 2328 2741 
Q 2006 2741 1831 2477 
Q 1656 2213 1656 1722 
L 1656 0 
L 531 0 
L 531 3500 
L 1656 3500 
L 1656 2988 
Q 1863 3284 2130 3434 
Q 2397 3584 2719 3584 
Q 3081 3584 3359 3409 
Q 3638 3234 3781 2919 
z
" transform="scale(0.015625)"/>
      <path id="DejaVuSans-Bold-61" d="M 2106 1575 
Q 1756 1575 1579 1456 
Q 1403 1338 1403 1106 
Q 1403 894 1545 773 
Q 1688 653 1941 653 
Q 2256 653 2472 879 
Q 2688 1106 2688 1447 
L 2688 1575 
L 2106 1575 
z
M 3816 1997 
L 3816 0 
L 2688 0 
L 2688 519 
Q 2463 200 2181 54 
Q 1900 -91 1497 -91 
Q 953 -91 614 226 
Q 275 544 275 1050 
Q 275 1666 698 1953 
Q 1122 2241 2028 2241 
L 2688 2241 
L 2688 2328 
Q 2688 2594 2478 2717 
Q 2269 2841 1825 2841 
Q 1466 2841 1156 2769 
Q 847 2697 581 2553 
L 581 3406 
Q 941 3494 1303 3539 
Q 1666 3584 2028 3584 
Q 2975 3584 3395 3211 
Q 3816 2838 3816 1997 
z
" transform="scale(0.015625)"/>
      <path id="DejaVuSans-Bold-77" d="M 225 3500 
L 1313 3500 
L 1900 1088 
L 2491 3500 
L 3425 3500 
L 4013 1113 
L 4603 3500 
L 5691 3500 
L 4769 0 
L 3547 0 
L 2956 2406 
L 2369 0 
L 1147 0 
L 225 3500 
z
" transform="scale(0.015625)"/>
      <path id="DejaVuSans-Bold-2e" d="M 653 1209 
L 1778 1209 
L 1778 0 
L 653 0 
L 653 1209 
z
" transform="scale(0.015625)"/>
      <path id="DejaVuSans-Bold-2b" d="M 3053 4013 
L 3053 2375 
L 4684 2375 
L 4684 1638 
L 3053 1638 
L 3053 0 
L 2309 0 
L 2309 1638 
L 678 1638 
L 678 2375 
L 2309 2375 
L 2309 4013 
L 3053 4013 
z
" transform="scale(0.015625)"/>
      <path id="DejaVuSans-Bold-62" d="M 2400 722 
Q 2759 722 2948 984 
Q 3138 1247 3138 1747 
Q 3138 2247 2948 2509 
Q 2759 2772 2400 2772 
Q 2041 2772 1848 2508 
Q 1656 2244 1656 1747 
Q 1656 1250 1848 986 
Q 2041 722 2400 722 
z
M 1656 2988 
Q 1888 3294 2169 3439 
Q 2450 3584 2816 3584 
Q 3463 3584 3878 3070 
Q 4294 2556 4294 1747 
Q 4294 938 3878 423 
Q 3463 -91 2816 -91 
Q 2450 -91 2169 54 
Q 1888 200 1656 506 
L 1656 0 
L 538 0 
L 538 4863 
L 1656 4863 
L 1656 2988 
z
" transform="scale(0.015625)"/>
     </defs>
     <use xlink:href="#DejaVuSans-Bold-70"/>
     <use xlink:href="#DejaVuSans-Bold-28" x="71.582031"/>
     <use xlink:href="#DejaVuSans-Bold-79" x="117.285156"/>
     <use xlink:href="#DejaVuSans-Bold-3d" x="182.470703"/>
     <use xlink:href="#DejaVuSans-Bold-31" x="266.259766"/>
     <use xlink:href="#DejaVuSans-Bold-20" x="335.839844"/>
     <use xlink:href="#DejaVuSans-Bold-7c" x="370.654297"/>
     <use xlink:href="#DejaVuSans-Bold-20" x="407.177734"/>
     <use xlink:href="#DejaVuSans-Bold-78" x="441.992188"/>
     <use xlink:href="#DejaVuSans-Bold-29" x="506.494141"/>
     <use xlink:href="#DejaVuSans-Bold-20" x="552.197266"/>
     <use xlink:href="#DejaVuSans-Bold-3d" x="587.011719"/>
     <use xlink:href="#DejaVuSans-Bold-20" x="670.800781"/>
     <use xlink:href="#DejaVuSans-Bold-73" x="705.615234"/>
     <use xlink:href="#DejaVuSans-Bold-69" x="765.136719"/>
     <use xlink:href="#DejaVuSans-Bold-67" x="799.414062"/>
     <use xlink:href="#DejaVuSans-Bold-6d" x="870.996094"/>
     <use xlink:href="#DejaVuSans-Bold-61" x="975.195312"/>
     <use xlink:href="#DejaVuSans-Bold-28" x="1042.675781"/>
     <use xlink:href="#DejaVuSans-Bold-77" x="1088.378906"/>
     <use xlink:href="#DejaVuSans-Bold-2e" x="1174.386719"/>
     <use xlink:href="#DejaVuSans-Bold-78" x="1212.375"/>
     <use xlink:href="#DejaVuSans-Bold-20" x="1276.876953"/>
     <use xlink:href="#DejaVuSans-Bold-2b" x="1311.691406"/>
     <use xlink:href="#DejaVuSans-Bold-20" x="1395.480469"/>
     <use xlink:href="#DejaVuSans-Bold-62" x="1430.294922"/>
     <use xlink:href="#DejaVuSans-Bold-29" x="1501.876953"/>
    </g>
   </g>
   <g id="text_22">
    <!-- Sigmoid Function: Turning a Linear Score into a Probability -->
    <g style="fill: #0f172a" transform="translate(160.345625 19.3575) scale(0.16 -0.16)">
     <defs>
      <path id="DejaVuSans-Bold-53" d="M 3834 4519 
L 3834 3531 
Q 3450 3703 3084 3790 
Q 2719 3878 2394 3878 
Q 1963 3878 1756 3759 
Q 1550 3641 1550 3391 
Q 1550 3203 1689 3098 
Q 1828 2994 2194 2919 
L 2706 2816 
Q 3484 2659 3812 2340 
Q 4141 2022 4141 1434 
Q 4141 663 3683 286 
Q 3225 -91 2284 -91 
Q 1841 -91 1394 -6 
Q 947 78 500 244 
L 500 1259 
Q 947 1022 1364 901 
Q 1781 781 2169 781 
Q 2563 781 2772 912 
Q 2981 1044 2981 1288 
Q 2981 1506 2839 1625 
Q 2697 1744 2272 1838 
L 1806 1941 
Q 1106 2091 782 2419 
Q 459 2747 459 3303 
Q 459 4000 909 4375 
Q 1359 4750 2203 4750 
Q 2588 4750 2994 4692 
Q 3400 4634 3834 4519 
z
" transform="scale(0.015625)"/>
      <path id="DejaVuSans-Bold-6f" d="M 2203 2784 
Q 1831 2784 1636 2517 
Q 1441 2250 1441 1747 
Q 1441 1244 1636 976 
Q 1831 709 2203 709 
Q 2569 709 2762 976 
Q 2956 1244 2956 1747 
Q 2956 2250 2762 2517 
Q 2569 2784 2203 2784 
z
M 2203 3584 
Q 3106 3584 3614 3096 
Q 4122 2609 4122 1747 
Q 4122 884 3614 396 
Q 3106 -91 2203 -91 
Q 1297 -91 786 396 
Q 275 884 275 1747 
Q 275 2609 786 3096 
Q 1297 3584 2203 3584 
z
" transform="scale(0.015625)"/>
      <path id="DejaVuSans-Bold-64" d="M 2919 2988 
L 2919 4863 
L 4044 4863 
L 4044 0 
L 2919 0 
L 2919 506 
Q 2688 197 2409 53 
Q 2131 -91 1766 -91 
Q 1119 -91 703 423 
Q 288 938 288 1747 
Q 288 2556 703 3070 
Q 1119 3584 1766 3584 
Q 2128 3584 2408 3439 
Q 2688 3294 2919 2988 
z
M 2181 722 
Q 2541 722 2730 984 
Q 2919 1247 2919 1747 
Q 2919 2247 2730 2509 
Q 2541 2772 2181 2772 
Q 1825 2772 1636 2509 
Q 1447 2247 1447 1747 
Q 1447 1247 1636 984 
Q 1825 722 2181 722 
z
" transform="scale(0.015625)"/>
      <path id="DejaVuSans-Bold-46" d="M 588 4666 
L 3834 4666 
L 3834 3756 
L 1791 3756 
L 1791 2888 
L 3713 2888 
L 3713 1978 
L 1791 1978 
L 1791 0 
L 588 0 
L 588 4666 
z
" transform="scale(0.015625)"/>
      <path id="DejaVuSans-Bold-75" d="M 500 1363 
L 500 3500 
L 1625 3500 
L 1625 3150 
Q 1625 2866 1622 2436 
Q 1619 2006 1619 1863 
Q 1619 1441 1641 1255 
Q 1663 1069 1716 984 
Q 1784 875 1895 815 
Q 2006 756 2150 756 
Q 2500 756 2700 1025 
Q 2900 1294 2900 1772 
L 2900 3500 
L 4019 3500 
L 4019 0 
L 2900 0 
L 2900 506 
Q 2647 200 2364 54 
Q 2081 -91 1741 -91 
Q 1134 -91 817 281 
Q 500 653 500 1363 
z
" transform="scale(0.015625)"/>
      <path id="DejaVuSans-Bold-6e" d="M 4056 2131 
L 4056 0 
L 2931 0 
L 2931 347 
L 2931 1631 
Q 2931 2084 2911 2256 
Q 2891 2428 2841 2509 
Q 2775 2619 2662 2680 
Q 2550 2741 2406 2741 
Q 2056 2741 1856 2470 
Q 1656 2200 1656 1722 
L 1656 0 
L 538 0 
L 538 3500 
L 1656 3500 
L 1656 2988 
Q 1909 3294 2193 3439 
Q 2478 3584 2822 3584 
Q 3428 3584 3742 3212 
Q 4056 2841 4056 2131 
z
" transform="scale(0.015625)"/>
      <path id="DejaVuSans-Bold-63" d="M 3366 3391 
L 3366 2478 
Q 3138 2634 2908 2709 
Q 2678 2784 2431 2784 
Q 1963 2784 1702 2511 
Q 1441 2238 1441 1747 
Q 1441 1256 1702 982 
Q 1963 709 2431 709 
Q 2694 709 2930 787 
Q 3166 866 3366 1019 
L 3366 103 
Q 3103 6 2833 -42 
Q 2563 -91 2291 -91 
Q 1344 -91 809 395 
Q 275 881 275 1747 
Q 275 2613 809 3098 
Q 1344 3584 2291 3584 
Q 2566 3584 2833 3536 
Q 3100 3488 3366 3391 
z
" transform="scale(0.015625)"/>
      <path id="DejaVuSans-Bold-74" d="M 1759 4494 
L 1759 3500 
L 2913 3500 
L 2913 2700 
L 1759 2700 
L 1759 1216 
Q 1759 972 1856 886 
Q 1953 800 2241 800 
L 2816 800 
L 2816 0 
L 1856 0 
Q 1194 0 917 276 
Q 641 553 641 1216 
L 641 2700 
L 84 2700 
L 84 3500 
L 641 3500 
L 641 4494 
L 1759 4494 
z
" transform="scale(0.015625)"/>
      <path id="DejaVuSans-Bold-3a" d="M 716 3500 
L 1844 3500 
L 1844 2291 
L 716 2291 
L 716 3500 
z
M 716 1209 
L 1844 1209 
L 1844 0 
L 716 0 
L 716 1209 
z
" transform="scale(0.015625)"/>
      <path id="DejaVuSans-Bold-54" d="M 31 4666 
L 4331 4666 
L 4331 3756 
L 2784 3756 
L 2784 0 
L 1581 0 
L 1581 3756 
L 31 3756 
L 31 4666 
z
" transform="scale(0.015625)"/>
      <path id="DejaVuSans-Bold-72" d="M 3138 2547 
Q 2991 2616 2845 2648 
Q 2700 2681 2553 2681 
Q 2122 2681 1889 2404 
Q 1656 2128 1656 1613 
L 1656 0 
L 538 0 
L 538 3500 
L 1656 3500 
L 1656 2925 
Q 1872 3269 2151 3426 
Q 2431 3584 2822 3584 
Q 2878 3584 2943 3579 
Q 3009 3575 3134 3559 
L 3138 2547 
z
" transform="scale(0.015625)"/>
      <path id="DejaVuSans-Bold-4c" d="M 588 4666 
L 1791 4666 
L 1791 909 
L 3903 909 
L 3903 0 
L 588 0 
L 588 4666 
z
" transform="scale(0.015625)"/>
      <path id="DejaVuSans-Bold-65" d="M 4031 1759 
L 4031 1441 
L 1416 1441 
Q 1456 1047 1700 850 
Q 1944 653 2381 653 
Q 2734 653 3104 758 
Q 3475 863 3866 1075 
L 3866 213 
Q 3469 63 3072 -14 
Q 2675 -91 2278 -91 
Q 1328 -91 801 392 
Q 275 875 275 1747 
Q 275 2603 792 3093 
Q 1309 3584 2216 3584 
Q 3041 3584 3536 3087 
Q 4031 2591 4031 1759 
z
M 2881 2131 
Q 2881 2450 2695 2645 
Q 2509 2841 2209 2841 
Q 1884 2841 1681 2658 
Q 1478 2475 1428 2131 
L 2881 2131 
z
" transform="scale(0.015625)"/>
      <path id="DejaVuSans-Bold-50" d="M 588 4666 
L 2584 4666 
Q 3475 4666 3951 4270 
Q 4428 3875 4428 3144 
Q 4428 2409 3951 2014 
Q 3475 1619 2584 1619 
L 1791 1619 
L 1791 0 
L 588 0 
L 588 4666 
z
M 1791 3794 
L 1791 2491 
L 2456 2491 
Q 2806 2491 2997 2661 
Q 3188 2831 3188 3144 
Q 3188 3456 2997 3625 
Q 2806 3794 2456 3794 
L 1791 3794 
z
" transform="scale(0.015625)"/>
      <path id="DejaVuSans-Bold-6c" d="M 538 4863 
L 1656 4863 
L 1656 0 
L 538 0 
L 538 4863 
z
" transform="scale(0.015625)"/>
     </defs>
     <use xlink:href="#DejaVuSans-Bold-53"/>
     <use xlink:href="#DejaVuSans-Bold-69" x="72.021484"/>
     <use xlink:href="#DejaVuSans-Bold-67" x="106.298828"/>
     <use xlink:href="#DejaVuSans-Bold-6d" x="177.880859"/>
     <use xlink:href="#DejaVuSans-Bold-6f" x="282.080078"/>
     <use xlink:href="#DejaVuSans-Bold-69" x="350.78125"/>
     <use xlink:href="#DejaVuSans-Bold-64" x="385.058594"/>
     <use xlink:href="#DejaVuSans-Bold-20" x="456.640625"/>
     <use xlink:href="#DejaVuSans-Bold-46" x="491.455078"/>
     <use xlink:href="#DejaVuSans-Bold-75" x="554.765625"/>
     <use xlink:href="#DejaVuSans-Bold-6e" x="625.957031"/>
     <use xlink:href="#DejaVuSans-Bold-63" x="697.148438"/>
     <use xlink:href="#DejaVuSans-Bold-74" x="756.425781"/>
     <use xlink:href="#DejaVuSans-Bold-69" x="804.228516"/>
     <use xlink:href="#DejaVuSans-Bold-6f" x="838.505859"/>
     <use xlink:href="#DejaVuSans-Bold-6e" x="907.207031"/>
     <use xlink:href="#DejaVuSans-Bold-3a" x="978.398438"/>
     <use xlink:href="#DejaVuSans-Bold-20" x="1018.388672"/>
     <use xlink:href="#DejaVuSans-Bold-54" x="1053.203125"/>
     <use xlink:href="#DejaVuSans-Bold-75" x="1110.416016"/>
     <use xlink:href="#DejaVuSans-Bold-72" x="1181.607422"/>
     <use xlink:href="#DejaVuSans-Bold-6e" x="1230.923828"/>
     <use xlink:href="#DejaVuSans-Bold-69" x="1302.115234"/>
     <use xlink:href="#DejaVuSans-Bold-6e" x="1336.392578"/>
     <use xlink:href="#DejaVuSans-Bold-67" x="1407.583984"/>
     <use xlink:href="#DejaVuSans-Bold-20" x="1479.166016"/>
     <use xlink:href="#DejaVuSans-Bold-61" x="1513.980469"/>
     <use xlink:href="#DejaVuSans-Bold-20" x="1581.460938"/>
     <use xlink:href="#DejaVuSans-Bold-4c" x="1616.275391"/>
     <use xlink:href="#DejaVuSans-Bold-69" x="1679.996094"/>
     <use xlink:href="#DejaVuSans-Bold-6e" x="1714.273438"/>
     <use xlink:href="#DejaVuSans-Bold-65" x="1785.464844"/>
     <use xlink:href="#DejaVuSans-Bold-61" x="1853.287109"/>
     <use xlink:href="#DejaVuSans-Bold-72" x="1920.767578"/>
     <use xlink:href="#DejaVuSans-Bold-20" x="1970.083984"/>
     <use xlink:href="#DejaVuSans-Bold-53" x="2004.898438"/>
     <use xlink:href="#DejaVuSans-Bold-63" x="2076.919922"/>
     <use xlink:href="#DejaVuSans-Bold-6f" x="2136.197266"/>
     <use xlink:href="#DejaVuSans-Bold-72" x="2204.898438"/>
     <use xlink:href="#DejaVuSans-Bold-65" x="2254.214844"/>
     <use xlink:href="#DejaVuSans-Bold-20" x="2322.037109"/>
     <use xlink:href="#DejaVuSans-Bold-69" x="2356.851562"/>
     <use xlink:href="#DejaVuSans-Bold-6e" x="2391.128906"/>
     <use xlink:href="#DejaVuSans-Bold-74" x="2462.320312"/>
     <use xlink:href="#DejaVuSans-Bold-6f" x="2510.123047"/>
     <use xlink:href="#DejaVuSans-Bold-20" x="2578.824219"/>
     <use xlink:href="#DejaVuSans-Bold-61" x="2613.638672"/>
     <use xlink:href="#DejaVuSans-Bold-20" x="2681.119141"/>
     <use xlink:href="#DejaVuSans-Bold-50" x="2715.933594"/>
     <use xlink:href="#DejaVuSans-Bold-72" x="2789.224609"/>
     <use xlink:href="#DejaVuSans-Bold-6f" x="2838.541016"/>
     <use xlink:href="#DejaVuSans-Bold-62" x="2907.242188"/>
     <use xlink:href="#DejaVuSans-Bold-61" x="2978.824219"/>
     <use xlink:href="#DejaVuSans-Bold-62" x="3046.304688"/>
     <use xlink:href="#DejaVuSans-Bold-69" x="3117.886719"/>
     <use xlink:href="#DejaVuSans-Bold-6c" x="3152.164062"/>
     <use xlink:href="#DejaVuSans-Bold-69" x="3186.441406"/>
     <use xlink:href="#DejaVuSans-Bold-74" x="3220.71875"/>
     <use xlink:href="#DejaVuSans-Bold-79" x="3268.521484"/>
    </g>
   </g>
   <g id="PathCollection_1">
    <defs>
     <path id="m3918d8622b" d="M 0 4.031129 
C 1.069068 4.031129 2.094493 3.606384 2.850439 2.850439 
C 3.606384 2.094493 4.031129 1.069068 4.031129 0 
C 4.031129 -1.069068 3.606384 -2.094493 2.850439 -2.850439 
C 2.094493 -3.606384 1.069068 -4.031129 0 -4.031129 
C -1.069068 -4.031129 -2.094493 -3.606384 -2.850439 -2.850439 
C -3.606384 -2.094493 -4.031129 -1.069068 -4.031129 0 
C -4.031129 1.069068 -3.606384 2.094493 -2.850439 2.850439 
C -2.094493 3.606384 -1.069068 4.031129 0 4.031129 
z
" style="stroke: #1d4ed8"/>
    </defs>
    <g clip-path="url(#p7e3d9be9e4)">
     <use xlink:href="#m3918d8622b" x="427.040625" y="182.164167" style="fill: #1d4ed8; stroke: #1d4ed8"/>
    </g>
   </g>
  </g>
 </g>
 <defs>
  <clipPath id="p7e3d9be9e4">
   <rect x="46.339375" y="33.3575" width="761.4025" height="291.89"/>
  </clipPath>
 </defs>
</svg>
