<?xml version="1.0" encoding="utf-8" standalone="no"?>
<!DOCTYPE svg PUBLIC "-//W3C//DTD SVG 1.1//EN"
  "http://www.w3.org/Graphics/SVG/1.1/DTD/svg11.dtd">
<svg xmlns:xlink="http://www.w3.org/1999/xlink" width="740.505pt" height="425.285453pt" viewBox="0 0 740.505 425.285453" xmlns="http://www.w3.org/2000/svg" version="1.1">
 <metadata>
  <rdf:RDF xmlns:dc="http://purl.org/dc/elements/1.1/" xmlns:cc="http://creativecommons.org/ns#" xmlns:rdf="http://www.w3.org/1999/02/22-rdf-syntax-ns#">
   <cc:Work>
    <dc:type rdf:resource="http://purl.org/dc/dcmitype/StillImage"/>
    <dc:date>2026-03-20T01:55:29.384590</dc:date>
    <dc:format>image/svg+xml</dc:format>
    <dc:creator>
     <cc:Agent>
      <dc:title>Matplotlib v3.9.0, https://matplotlib.org/</dc:title>
     </cc:Agent>
    </dc:creator>
   </cc:Work>
  </rdf:RDF>
 </metadata>
 <defs>
  <style type="text/css">*{stroke-linejoin: round; stroke-linecap: butt}</style>
 </defs>
 <g id="figure_1">
  <g id="patch_1">
   <path d="M 0 425.285453 
L 740.505 425.285453 
L 740.505 0 
L 0 0 
z
" style="fill: #ffffff"/>
  </g>
  <g id="axes_1">
   <g id="patch_2">
    <path d="M 49.842188 303.912963 
L 708.282187 303.912963 
L 708.282187 30.977578 
L 49.842188 30.977578 
z
" style="fill: #ffffff"/>
   </g>
   <g id="PolyCollection_1">
    <defs>
     <path id="mc665f2e9de" d="M 79.771278 -89.262445 
L 79.771278 -149.982733 
L 82.504529 -150.453976 
L 85.237779 -151.011015 
L 87.971029 -151.668108 
L 90.70428 -152.440837 
L 93.43753 -153.34571 
L 96.17078 -154.399516 
L 98.904031 -155.618334 
L 101.637281 -157.016211 
L 104.370531 -158.603497 
L 107.103782 -160.384968 
L 109.837032 -162.357939 
L 112.570282 -164.510696 
L 115.303532 -166.821629 
L 118.036783 -169.259425 
L 120.770033 -171.784553 
L 123.503283 -174.351987 
L 126.236534 -176.914849 
L 128.969784 -179.428373 
L 131.703034 -181.853525 
L 134.436285 -184.159688 
L 137.169535 -186.326103 
L 139.902785 -188.342016 
L 142.636036 -190.205774 
L 145.369286 -191.923227 
L 148.102536 -193.505827 
L 150.835787 -194.968733 
L 153.569037 -196.32914 
L 156.302287 -197.604931 
L 159.035537 -198.813689 
L 161.768788 -199.972014 
L 164.502038 -201.095114 
L 167.235288 -202.196586 
L 169.968539 -203.288341 
L 172.701789 -204.380623 
L 175.435039 -205.482076 
L 178.16829 -206.599843 
L 180.90154 -207.739675 
L 183.63479 -208.906036 
L 186.368041 -210.102209 
L 189.101291 -211.330385 
L 191.834541 -212.59175 
L 194.567791 -213.88656 
L 197.301042 -215.214219 
L 200.034292 -216.573346 
L 202.767542 -217.961845 
L 205.500793 -219.376981 
L 208.234043 -220.815452 
L 210.967293 -222.27347 
L 213.700544 -223.746846 
L 216.433794 -225.231075 
L 219.167044 -226.721427 
L 221.900295 -228.213041 
L 224.633545 -229.701013 
L 227.366795 -231.180488 
L 230.100046 -232.64674 
L 232.833296 -234.095254 
L 235.566546 -235.521792 
L 238.299796 -236.922451 
L 241.033047 -238.293716 
L 243.766297 -239.632492 
L 246.499547 -240.936129 
L 249.232798 -242.202438 
L 251.966048 -243.429693 
L 254.699298 -244.61662 
L 257.432549 -245.762386 
L 260.165799 -246.866573 
L 262.899049 -247.929151 
L 265.6323 -248.950443 
L 268.36555 -249.931091 
L 271.0988 -250.872016 
L 273.832051 -251.774384 
L 276.565301 -252.639565 
L 279.298551 -253.469101 
L 282.031801 -254.264667 
L 284.765052 -255.028044 
L 287.498302 -255.761087 
L 290.231552 -256.465702 
L 292.964803 -257.143819 
L 295.698053 -257.797377 
L 298.431303 -258.428302 
L 301.164554 -259.038497 
L 303.897804 -259.629825 
L 306.631054 -260.204103 
L 309.364305 -260.763093 
L 312.097555 -261.308496 
L 314.830805 -261.841947 
L 317.564055 -262.365011 
L 320.297306 -262.879186 
L 323.030556 -263.385895 
L 325.763806 -263.886491 
L 328.497057 -264.382256 
L 331.230307 -264.874403 
L 333.963557 -265.364073 
L 336.696808 -265.852343 
L 339.430058 -266.340224 
L 342.163308 -266.828665 
L 344.896559 -267.318553 
L 347.629809 -267.810717 
L 350.363059 -268.305931 
L 353.09631 -268.804911 
L 355.82956 -269.308326 
L 358.56281 -269.81679 
L 361.29606 -270.330872 
L 364.029311 -270.851094 
L 366.762561 -271.37793 
L 369.495811 -271.911816 
L 372.229062 -272.45314 
L 374.962312 -273.002255 
L 377.695562 -273.55947 
L 380.428813 -274.125058 
L 383.162063 -274.699253 
L 385.895313 -275.282255 
L 388.628564 -275.874226 
L 391.361814 -276.475294 
L 394.095064 -277.085552 
L 396.828315 -277.70506 
L 399.561565 -278.333844 
L 402.294815 -278.971901 
L 405.028065 -279.619191 
L 407.761316 -280.275648 
L 410.494566 -280.941171 
L 413.227816 -281.615632 
L 415.961067 -282.298872 
L 418.694317 -282.990703 
L 421.427567 -283.69091 
L 424.160818 -284.399251 
L 426.894068 -285.115457 
L 429.627318 -285.839231 
L 432.360569 -286.570254 
L 435.093819 -287.308183 
L 437.827069 -288.05265 
L 440.56032 -288.803268 
L 443.29357 -289.559627 
L 446.02682 -290.321299 
L 448.76007 -291.087838 
L 451.493321 -291.858781 
L 454.226571 -292.633649 
L 456.959821 -293.41195 
L 459.693072 -294.19318 
L 462.426322 -294.976823 
L 465.159572 -295.762355 
L 467.892823 -296.549245 
L 470.626073 -297.336955 
L 473.359323 -298.124942 
L 476.092574 -298.912663 
L 478.825824 -299.699573 
L 481.559074 -300.485128 
L 484.292324 -301.268786 
L 487.025575 -302.050009 
L 489.758825 -302.828267 
L 492.492075 -303.603034 
L 495.225326 -304.373796 
L 497.958576 -305.140046 
L 500.691826 -305.901292 
L 503.425077 -306.657052 
L 506.158327 -307.406859 
L 508.891577 -308.150263 
L 511.624828 -308.886827 
L 514.358078 -309.616133 
L 517.091328 -310.337782 
L 519.824579 -311.051391 
L 522.557829 -311.7566 
L 525.291079 -312.453066 
L 528.024329 -313.140468 
L 530.75758 -313.818504 
L 533.49083 -314.486896 
L 536.22408 -315.145384 
L 538.957331 -315.793733 
L 541.690581 -316.431725 
L 544.423831 -317.059166 
L 547.157082 -317.675883 
L 549.890332 -318.281723 
L 552.623582 -318.876552 
L 555.356833 -319.460259 
L 558.090083 -320.03275 
L 560.823333 -320.593952 
L 563.556584 -321.143809 
L 566.289834 -321.682284 
L 569.023084 -322.209357 
L 571.756334 -322.725024 
L 574.489585 -323.229298 
L 577.222835 -323.722206 
L 579.956085 -324.203791 
L 582.689336 -324.674109 
L 585.422586 -325.133229 
L 588.155836 -325.581231 
L 590.889087 -326.018209 
L 593.622337 -326.444266 
L 596.355587 -326.859515 
L 599.088838 -327.264079 
L 601.822088 -327.658089 
L 604.555338 -328.041685 
L 607.288588 -328.415012 
L 610.021839 -328.778223 
L 612.755089 -329.131477 
L 615.488339 -329.474936 
L 618.22159 -329.808769 
L 620.95484 -330.133149 
L 623.68809 -330.44825 
L 626.421341 -330.754251 
L 629.154591 -331.051333 
L 631.887841 -331.339678 
L 634.621092 -331.619472 
L 637.354342 -331.890898 
L 640.087592 -332.154143 
L 642.820843 -332.409392 
L 645.554093 -332.656832 
L 648.287343 -332.896647 
L 651.020593 -333.129023 
L 653.753844 -333.354143 
L 656.487094 -333.57219 
L 659.220344 -333.783343 
L 661.953595 -333.987783 
L 664.686845 -334.185685 
L 667.420095 -334.377226 
L 670.153346 -334.562576 
L 672.886596 -334.741907 
L 675.619846 -334.915386 
L 678.353097 -335.083177 
L 678.353097 -89.262445 
L 678.353097 -89.262445 
L 675.619846 -89.262445 
L 672.886596 -89.262445 
L 670.153346 -89.262445 
L 667.420095 -89.262445 
L 664.686845 -89.262445 
L 661.953595 -89.262445 
L 659.220344 -89.262445 
L 656.487094 -89.262445 
L 653.753844 -89.262445 
L 651.020593 -89.262445 
L 648.287343 -89.262445 
L 645.554093 -89.262445 
L 642.820843 -89.262445 
L 640.087592 -89.262445 
L 637.354342 -89.262445 
L 634.621092 -89.262445 
L 631.887841 -89.262445 
L 629.154591 -89.262445 
L 626.421341 -89.262445 
L 623.68809 -89.262445 
L 620.95484 -89.262445 
L 618.22159 -89.262445 
L 615.488339 -89.262445 
L 612.755089 -89.262445 
L 610.021839 -89.262445 
L 607.288588 -89.262445 
L 604.555338 -89.262445 
L 601.822088 -89.262445 
L 599.088838 -89.262445 
L 596.355587 -89.262445 
L 593.622337 -89.262445 
L 590.889087 -89.262445 
L 588.155836 -89.262445 
L 585.422586 -89.262445 
L 582.689336 -89.262445 
L 579.956085 -89.262445 
L 577.222835 -89.262445 
L 574.489585 -89.262445 
L 571.756334 -89.262445 
L 569.023084 -89.262445 
L 566.289834 -89.262445 
L 563.556584 -89.262445 
L 560.823333 -89.262445 
L 558.090083 -89.262445 
L 555.356833 -89.262445 
L 552.623582 -89.262445 
L 549.890332 -89.262445 
L 547.157082 -89.262445 
L 544.423831 -89.262445 
L 541.690581 -89.262445 
L 538.957331 -89.262445 
L 536.22408 -89.262445 
L 533.49083 -89.262445 
L 530.75758 -89.262445 
L 528.024329 -89.262445 
L 525.291079 -89.262445 
L 522.557829 -89.262445 
L 519.824579 -89.262445 
L 517.091328 -89.262445 
L 514.358078 -89.262445 
L 511.624828 -89.262445 
L 508.891577 -89.262445 
L 506.158327 -89.262445 
L 503.425077 -89.262445 
L 500.691826 -89.262445 
L 497.958576 -89.262445 
L 495.225326 -89.262445 
L 492.492075 -89.262445 
L 489.758825 -89.262445 
L 487.025575 -89.262445 
L 484.292324 -89.262445 
L 481.559074 -89.262445 
L 478.825824 -89.262445 
L 476.092574 -89.262445 
L 473.359323 -89.262445 
L 470.626073 -89.262445 
L 467.892823 -89.262445 
L 465.159572 -89.262445 
L 462.426322 -89.262445 
L 459.693072 -89.262445 
L 456.959821 -89.262445 
L 454.226571 -89.262445 
L 451.493321 -89.262445 
L 448.76007 -89.262445 
L 446.02682 -89.262445 
L 443.29357 -89.262445 
L 440.56032 -89.262445 
L 437.827069 -89.262445 
L 435.093819 -89.262445 
L 432.360569 -89.262445 
L 429.627318 -89.262445 
L 426.894068 -89.262445 
L 424.160818 -89.262445 
L 421.427567 -89.262445 
L 418.694317 -89.262445 
L 415.961067 -89.262445 
L 413.227816 -89.262445 
L 410.494566 -89.262445 
L 407.761316 -89.262445 
L 405.028065 -89.262445 
L 402.294815 -89.262445 
L 399.561565 -89.262445 
L 396.828315 -89.262445 
L 394.095064 -89.262445 
L 391.361814 -89.262445 
L 388.628564 -89.262445 
L 385.895313 -89.262445 
L 383.162063 -89.262445 
L 380.428813 -89.262445 
L 377.695562 -89.262445 
L 374.962312 -89.262445 
L 372.229062 -89.262445 
L 369.495811 -89.262445 
L 366.762561 -89.262445 
L 364.029311 -89.262445 
L 361.29606 -89.262445 
L 358.56281 -89.262445 
L 355.82956 -89.262445 
L 353.09631 -89.262445 
L 350.363059 -89.262445 
L 347.629809 -89.262445 
L 344.896559 -89.262445 
L 342.163308 -89.262445 
L 339.430058 -89.262445 
L 336.696808 -89.262445 
L 333.963557 -89.262445 
L 331.230307 -89.262445 
L 328.497057 -89.262445 
L 325.763806 -89.262445 
L 323.030556 -89.262445 
L 320.297306 -89.262445 
L 317.564055 -89.262445 
L 314.830805 -89.262445 
L 312.097555 -89.262445 
L 309.364305 -89.262445 
L 306.631054 -89.262445 
L 303.897804 -89.262445 
L 301.164554 -89.262445 
L 298.431303 -89.262445 
L 295.698053 -89.262445 
L 292.964803 -89.262445 
L 290.231552 -89.262445 
L 287.498302 -89.262445 
L 284.765052 -89.262445 
L 282.031801 -89.262445 
L 279.298551 -89.262445 
L 276.565301 -89.262445 
L 273.832051 -89.262445 
L 271.0988 -89.262445 
L 268.36555 -89.262445 
L 265.6323 -89.262445 
L 262.899049 -89.262445 
L 260.165799 -89.262445 
L 257.432549 -89.262445 
L 254.699298 -89.262445 
L 251.966048 -89.262445 
L 249.232798 -89.262445 
L 246.499547 -89.262445 
L 243.766297 -89.262445 
L 241.033047 -89.262445 
L 238.299796 -89.262445 
L 235.566546 -89.262445 
L 232.833296 -89.262445 
L 230.100046 -89.262445 
L 227.366795 -89.262445 
L 224.633545 -89.262445 
L 221.900295 -89.262445 
L 219.167044 -89.262445 
L 216.433794 -89.262445 
L 213.700544 -89.262445 
L 210.967293 -89.262445 
L 208.234043 -89.262445 
L 205.500793 -89.262445 
L 202.767542 -89.262445 
L 200.034292 -89.262445 
L 197.301042 -89.262445 
L 194.567791 -89.262445 
L 191.834541 -89.262445 
L 189.101291 -89.262445 
L 186.368041 -89.262445 
L 183.63479 -89.262445 
L 180.90154 -89.262445 
L 178.16829 -89.262445 
L 175.435039 -89.262445 
L 172.701789 -89.262445 
L 169.968539 -89.262445 
L 167.235288 -89.262445 
L 164.502038 -89.262445 
L 161.768788 -89.262445 
L 159.035537 -89.262445 
L 156.302287 -89.262445 
L 153.569037 -89.262445 
L 150.835787 -89.262445 
L 148.102536 -89.262445 
L 145.369286 -89.262445 
L 142.636036 -89.262445 
L 139.902785 -89.262445 
L 137.169535 -89.262445 
L 134.436285 -89.262445 
L 131.703034 -89.262445 
L 128.969784 -89.262445 
L 126.236534 -89.262445 
L 123.503283 -89.262445 
L 120.770033 -89.262445 
L 118.036783 -89.262445 
L 115.303532 -89.262445 
L 112.570282 -89.262445 
L 109.837032 -89.262445 
L 107.103782 -89.262445 
L 104.370531 -89.262445 
L 101.637281 -89.262445 
L 98.904031 -89.262445 
L 96.17078 -89.262445 
L 93.43753 -89.262445 
L 90.70428 -89.262445 
L 87.971029 -89.262445 
L 85.237779 -89.262445 
L 82.504529 -89.262445 
L 79.771278 -89.262445 
z
" style="stroke: #ddd6fe; stroke-opacity: 0.35"/>
    </defs>
    <g clip-path="url(#p9e75c7f7f2)">
     <use xlink:href="#mc665f2e9de" x="0" y="425.285453" style="fill: #ddd6fe; fill-opacity: 0.35; stroke: #ddd6fe; stroke-opacity: 0.35"/>
    </g>
   </g>
   <g id="matplotlib.axis_1">
    <g id="xtick_1">
     <g id="line2d_1">
      <path d="M 73.724997 303.912963 
L 73.724997 30.977578 
" clip-path="url(#p9e75c7f7f2)" style="fill: none; stroke: #94a3b8; stroke-opacity: 0.22; stroke-width: 0.8; stroke-linecap: square"/>
     </g>
     <g id="line2d_2">
      <defs>
       <path id="m016134b959" d="M 0 0 
L 0 3.5 
" style="stroke: #475569; stroke-width: 0.8"/>
      </defs>
      <g>
       <use xlink:href="#m016134b959" x="73.724997" y="303.912963" style="fill: #475569; stroke: #475569; stroke-width: 0.8"/>
      </g>
     </g>
    </g>
    <g id="xtick_2">
     <g id="line2d_3">
      <path d="M 194.650617 303.912963 
L 194.650617 30.977578 
" clip-path="url(#p9e75c7f7f2)" style="fill: none; stroke: #94a3b8; stroke-opacity: 0.22; stroke-width: 0.8; stroke-linecap: square"/>
     </g>
     <g id="line2d_4">
      <g>
       <use xlink:href="#m016134b959" x="194.650617" y="303.912963" style="fill: #475569; stroke: #475569; stroke-width: 0.8"/>
      </g>
     </g>
    </g>
    <g id="xtick_3">
     <g id="line2d_5">
      <path d="M 315.576237 303.912963 
L 315.576237 30.977578 
" clip-path="url(#p9e75c7f7f2)" style="fill: none; stroke: #94a3b8; stroke-opacity: 0.22; stroke-width: 0.8; stroke-linecap: square"/>
     </g>
     <g id="line2d_6">
      <g>
       <use xlink:href="#m016134b959" x="315.576237" y="303.912963" style="fill: #475569; stroke: #475569; stroke-width: 0.8"/>
      </g>
     </g>
    </g>
    <g id="xtick_4">
     <g id="line2d_7">
      <path d="M 436.501857 303.912963 
L 436.501857 30.977578 
" clip-path="url(#p9e75c7f7f2)" style="fill: none; stroke: #94a3b8; stroke-opacity: 0.22; stroke-width: 0.8; stroke-linecap: square"/>
     </g>
     <g id="line2d_8">
      <g>
       <use xlink:href="#m016134b959" x="436.501857" y="303.912963" style="fill: #475569; stroke: #475569; stroke-width: 0.8"/>
      </g>
     </g>
    </g>
    <g id="xtick_5">
     <g id="line2d_9">
      <path d="M 557.427477 303.912963 
L 557.427477 30.977578 
" clip-path="url(#p9e75c7f7f2)" style="fill: none; stroke: #94a3b8; stroke-opacity: 0.22; stroke-width: 0.8; stroke-linecap: square"/>
     </g>
     <g id="line2d_10">
      <g>
       <use xlink:href="#m016134b959" x="557.427477" y="303.912963" style="fill: #475569; stroke: #475569; stroke-width: 0.8"/>
      </g>
     </g>
    </g>
    <g id="xtick_6">
     <g id="line2d_11">
      <path d="M 678.353097 303.912963 
L 678.353097 30.977578 
" clip-path="url(#p9e75c7f7f2)" style="fill: none; stroke: #94a3b8; stroke-opacity: 0.22; stroke-width: 0.8; stroke-linecap: square"/>
     </g>
     <g id="line2d_12">
      <g>
       <use xlink:href="#m016134b959" x="678.353097" y="303.912963" style="fill: #475569; stroke: #475569; stroke-width: 0.8"/>
      </g>
     </g>
    </g>
   </g>
   <g id="matplotlib.axis_2">
    <g id="ytick_1">
     <g id="line2d_13">
      <path d="M 49.842188 303.912963 
L 708.282187 303.912963 
" clip-path="url(#p9e75c7f7f2)" style="fill: none; stroke: #94a3b8; stroke-opacity: 0.22; stroke-width: 0.8; stroke-linecap: square"/>
     </g>
     <g id="line2d_14">
      <defs>
       <path id="me6066bbe20" d="M 0 0 
L -3.5 0 
" style="stroke: #475569; stroke-width: 0.8"/>
      </defs>
      <g>
       <use xlink:href="#me6066bbe20" x="49.842188" y="303.912963" style="fill: #475569; stroke: #475569; stroke-width: 0.8"/>
      </g>
     </g>
     <g id="text_1">
      <!-- 0.1 -->
      <g style="fill: #475569" transform="translate(25.34875 308.092103) scale(0.11 -0.11)">
       <defs>
        <path id="DejaVuSans-30" d="M 2034 4250 
Q 1547 4250 1301 3770 
Q 1056 3291 1056 2328 
Q 1056 1369 1301 889 
Q 1547 409 2034 409 
Q 2525 409 2770 889 
Q 3016 1369 3016 2328 
Q 3016 3291 2770 3770 
Q 2525 4250 2034 4250 
z
M 2034 4750 
Q 2819 4750 3233 4129 
Q 3647 3509 3647 2328 
Q 3647 1150 3233 529 
Q 2819 -91 2034 -91 
Q 1250 -91 836 529 
Q 422 1150 422 2328 
Q 422 3509 836 4129 
Q 1250 4750 2034 4750 
z
" transform="scale(0.015625)"/>
        <path id="DejaVuSans-2e" d="M 684 794 
L 1344 794 
L 1344 0 
L 684 0 
L 684 794 
z
" transform="scale(0.015625)"/>
        <path id="DejaVuSans-31" d="M 794 531 
L 1825 531 
L 1825 4091 
L 703 3866 
L 703 4441 
L 1819 4666 
L 2450 4666 
L 2450 531 
L 3481 531 
L 3481 0 
L 794 0 
L 794 531 
z
" transform="scale(0.015625)"/>
       </defs>
       <use xlink:href="#DejaVuSans-30"/>
       <use xlink:href="#DejaVuSans-2e" x="63.623047"/>
       <use xlink:href="#DejaVuSans-31" x="95.410156"/>
      </g>
     </g>
    </g>
    <g id="ytick_2">
     <g id="line2d_15">
      <path d="M 49.842188 271.802917 
L 708.282187 271.802917 
" clip-path="url(#p9e75c7f7f2)" style="fill: none; stroke: #94a3b8; stroke-opacity: 0.22; stroke-width: 0.8; stroke-linecap: square"/>
     </g>
     <g id="line2d_16">
      <g>
       <use xlink:href="#me6066bbe20" x="49.842188" y="271.802917" style="fill: #475569; stroke: #475569; stroke-width: 0.8"/>
      </g>
     </g>
     <g id="text_2">
      <!-- 0.2 -->
      <g style="fill: #475569" transform="translate(25.34875 275.982058) scale(0.11 -0.11)">
       <defs>
        <path id="DejaVuSans-32" d="M 1228 531 
L 3431 531 
L 3431 0 
L 469 0 
L 469 531 
Q 828 903 1448 1529 
Q 2069 2156 2228 2338 
Q 2531 2678 2651 2914 
Q 2772 3150 2772 3378 
Q 2772 3750 2511 3984 
Q 2250 4219 1831 4219 
Q 1534 4219 1204 4116 
Q 875 4013 500 3803 
L 500 4441 
Q 881 4594 1212 4672 
Q 1544 4750 1819 4750 
Q 2544 4750 2975 4387 
Q 3406 4025 3406 3419 
Q 3406 3131 3298 2873 
Q 3191 2616 2906 2266 
Q 2828 2175 2409 1742 
Q 1991 1309 1228 531 
z
" transform="scale(0.015625)"/>
       </defs>
       <use xlink:href="#DejaVuSans-30"/>
       <use xlink:href="#DejaVuSans-2e" x="63.623047"/>
       <use xlink:href="#DejaVuSans-32" x="95.410156"/>
      </g>
     </g>
    </g>
    <g id="ytick_3">
     <g id="line2d_17">
      <path d="M 49.842188 239.692872 
L 708.282187 239.692872 
" clip-path="url(#p9e75c7f7f2)" style="fill: none; stroke: #94a3b8; stroke-opacity: 0.22; stroke-width: 0.8; stroke-linecap: square"/>
     </g>
     <g id="line2d_18">
      <g>
       <use xlink:href="#me6066bbe20" x="49.842188" y="239.692872" style="fill: #475569; stroke: #475569; stroke-width: 0.8"/>
      </g>
     </g>
     <g id="text_3">
      <!-- 0.3 -->
      <g style="fill: #475569" transform="translate(25.34875 243.872013) scale(0.11 -0.11)">
       <defs>
        <path id="DejaVuSans-33" d="M 2597 2516 
Q 3050 2419 3304 2112 
Q 3559 1806 3559 1356 
Q 3559 666 3084 287 
Q 2609 -91 1734 -91 
Q 1441 -91 1130 -33 
Q 819 25 488 141 
L 488 750 
Q 750 597 1062 519 
Q 1375 441 1716 441 
Q 2309 441 2620 675 
Q 2931 909 2931 1356 
Q 2931 1769 2642 2001 
Q 2353 2234 1838 2234 
L 1294 2234 
L 1294 2753 
L 1863 2753 
Q 2328 2753 2575 2939 
Q 2822 3125 2822 3475 
Q 2822 3834 2567 4026 
Q 2313 4219 1838 4219 
Q 1578 4219 1281 4162 
Q 984 4106 628 3988 
L 628 4550 
Q 988 4650 1302 4700 
Q 1616 4750 1894 4750 
Q 2613 4750 3031 4423 
Q 3450 4097 3450 3541 
Q 3450 3153 3228 2886 
Q 3006 2619 2597 2516 
z
" transform="scale(0.015625)"/>
       </defs>
       <use xlink:href="#DejaVuSans-30"/>
       <use xlink:href="#DejaVuSans-2e" x="63.623047"/>
       <use xlink:href="#DejaVuSans-33" x="95.410156"/>
      </g>
     </g>
    </g>
    <g id="ytick_4">
     <g id="line2d_19">
      <path d="M 49.842188 207.582827 
L 708.282187 207.582827 
" clip-path="url(#p9e75c7f7f2)" style="fill: none; stroke: #94a3b8; stroke-opacity: 0.22; stroke-width: 0.8; stroke-linecap: square"/>
     </g>
     <g id="line2d_20">
      <g>
       <use xlink:href="#me6066bbe20" x="49.842188" y="207.582827" style="fill: #475569; stroke: #475569; stroke-width: 0.8"/>
      </g>
     </g>
     <g id="text_4">
      <!-- 0.4 -->
      <g style="fill: #475569" transform="translate(25.34875 211.761968) scale(0.11 -0.11)">
       <defs>
        <path id="DejaVuSans-34" d="M 2419 4116 
L 825 1625 
L 2419 1625 
L 2419 4116 
z
M 2253 4666 
L 3047 4666 
L 3047 1625 
L 3713 1625 
L 3713 1100 
L 3047 1100 
L 3047 0 
L 2419 0 
L 2419 1100 
L 313 1100 
L 313 1709 
L 2253 4666 
z
" transform="scale(0.015625)"/>
       </defs>
       <use xlink:href="#DejaVuSans-30"/>
       <use xlink:href="#DejaVuSans-2e" x="63.623047"/>
       <use xlink:href="#DejaVuSans-34" x="95.410156"/>
      </g>
     </g>
    </g>
    <g id="ytick_5">
     <g id="line2d_21">
      <path d="M 49.842188 175.472782 
L 708.282187 175.472782 
" clip-path="url(#p9e75c7f7f2)" style="fill: none; stroke: #94a3b8; stroke-opacity: 0.22; stroke-width: 0.8; stroke-linecap: square"/>
     </g>
     <g id="line2d_22">
      <g>
       <use xlink:href="#me6066bbe20" x="49.842188" y="175.472782" style="fill: #475569; stroke: #475569; stroke-width: 0.8"/>
      </g>
     </g>
     <g id="text_5">
      <!-- 0.5 -->
      <g style="fill: #475569" transform="translate(25.34875 179.651922) scale(0.11 -0.11)">
       <defs>
        <path id="DejaVuSans-35" d="M 691 4666 
L 3169 4666 
L 3169 4134 
L 1269 4134 
L 1269 2991 
Q 1406 3038 1543 3061 
Q 1681 3084 1819 3084 
Q 2600 3084 3056 2656 
Q 3513 2228 3513 1497 
Q 3513 744 3044 326 
Q 2575 -91 1722 -91 
Q 1428 -91 1123 -41 
Q 819 9 494 109 
L 494 744 
Q 775 591 1075 516 
Q 1375 441 1709 441 
Q 2250 441 2565 725 
Q 2881 1009 2881 1497 
Q 2881 1984 2565 2268 
Q 2250 2553 1709 2553 
Q 1456 2553 1204 2497 
Q 953 2441 691 2322 
L 691 4666 
z
" transform="scale(0.015625)"/>
       </defs>
       <use xlink:href="#DejaVuSans-30"/>
       <use xlink:href="#DejaVuSans-2e" x="63.623047"/>
       <use xlink:href="#DejaVuSans-35" x="95.410156"/>
      </g>
     </g>
    </g>
    <g id="ytick_6">
     <g id="line2d_23">
      <path d="M 49.842188 143.362736 
L 708.282187 143.362736 
" clip-path="url(#p9e75c7f7f2)" style="fill: none; stroke: #94a3b8; stroke-opacity: 0.22; stroke-width: 0.8; stroke-linecap: square"/>
     </g>
     <g id="line2d_24">
      <g>
       <use xlink:href="#me6066bbe20" x="49.842188" y="143.362736" style="fill: #475569; stroke: #475569; stroke-width: 0.8"/>
      </g>
     </g>
     <g id="text_6">
      <!-- 0.6 -->
      <g style="fill: #475569" transform="translate(25.34875 147.541877) scale(0.11 -0.11)">
       <defs>
        <path id="DejaVuSans-36" d="M 2113 2584 
Q 1688 2584 1439 2293 
Q 1191 2003 1191 1497 
Q 1191 994 1439 701 
Q 1688 409 2113 409 
Q 2538 409 2786 701 
Q 3034 994 3034 1497 
Q 3034 2003 2786 2293 
Q 2538 2584 2113 2584 
z
M 3366 4563 
L 3366 3988 
Q 3128 4100 2886 4159 
Q 2644 4219 2406 4219 
Q 1781 4219 1451 3797 
Q 1122 3375 1075 2522 
Q 1259 2794 1537 2939 
Q 1816 3084 2150 3084 
Q 2853 3084 3261 2657 
Q 3669 2231 3669 1497 
Q 3669 778 3244 343 
Q 2819 -91 2113 -91 
Q 1303 -91 875 529 
Q 447 1150 447 2328 
Q 447 3434 972 4092 
Q 1497 4750 2381 4750 
Q 2619 4750 2861 4703 
Q 3103 4656 3366 4563 
z
" transform="scale(0.015625)"/>
       </defs>
       <use xlink:href="#DejaVuSans-30"/>
       <use xlink:href="#DejaVuSans-2e" x="63.623047"/>
       <use xlink:href="#DejaVuSans-36" x="95.410156"/>
      </g>
     </g>
    </g>
    <g id="ytick_7">
     <g id="line2d_25">
      <path d="M 49.842188 111.252691 
L 708.282187 111.252691 
" clip-path="url(#p9e75c7f7f2)" style="fill: none; stroke: #94a3b8; stroke-opacity: 0.22; stroke-width: 0.8; stroke-linecap: square"/>
     </g>
     <g id="line2d_26">
      <g>
       <use xlink:href="#me6066bbe20" x="49.842188" y="111.252691" style="fill: #475569; stroke: #475569; stroke-width: 0.8"/>
      </g>
     </g>
     <g id="text_7">
      <!-- 0.7 -->
      <g style="fill: #475569" transform="translate(25.34875 115.431832) scale(0.11 -0.11)">
       <defs>
        <path id="DejaVuSans-37" d="M 525 4666 
L 3525 4666 
L 3525 4397 
L 1831 0 
L 1172 0 
L 2766 4134 
L 525 4134 
L 525 4666 
z
" transform="scale(0.015625)"/>
       </defs>
       <use xlink:href="#DejaVuSans-30"/>
       <use xlink:href="#DejaVuSans-2e" x="63.623047"/>
       <use xlink:href="#DejaVuSans-37" x="95.410156"/>
      </g>
     </g>
    </g>
    <g id="ytick_8">
     <g id="line2d_27">
      <path d="M 49.842188 79.142646 
L 708.282187 79.142646 
" clip-path="url(#p9e75c7f7f2)" style="fill: none; stroke: #94a3b8; stroke-opacity: 0.22; stroke-width: 0.8; stroke-linecap: square"/>
     </g>
     <g id="line2d_28">
      <g>
       <use xlink:href="#me6066bbe20" x="49.842188" y="79.142646" style="fill: #475569; stroke: #475569; stroke-width: 0.8"/>
      </g>
     </g>
     <g id="text_8">
      <!-- 0.8 -->
      <g style="fill: #475569" transform="translate(25.34875 83.321787) scale(0.11 -0.11)">
       <defs>
        <path id="DejaVuSans-38" d="M 2034 2216 
Q 1584 2216 1326 1975 
Q 1069 1734 1069 1313 
Q 1069 891 1326 650 
Q 1584 409 2034 409 
Q 2484 409 2743 651 
Q 3003 894 3003 1313 
Q 3003 1734 2745 1975 
Q 2488 2216 2034 2216 
z
M 1403 2484 
Q 997 2584 770 2862 
Q 544 3141 544 3541 
Q 544 4100 942 4425 
Q 1341 4750 2034 4750 
Q 2731 4750 3128 4425 
Q 3525 4100 3525 3541 
Q 3525 3141 3298 2862 
Q 3072 2584 2669 2484 
Q 3125 2378 3379 2068 
Q 3634 1759 3634 1313 
Q 3634 634 3220 271 
Q 2806 -91 2034 -91 
Q 1263 -91 848 271 
Q 434 634 434 1313 
Q 434 1759 690 2068 
Q 947 2378 1403 2484 
z
M 1172 3481 
Q 1172 3119 1398 2916 
Q 1625 2713 2034 2713 
Q 2441 2713 2670 2916 
Q 2900 3119 2900 3481 
Q 2900 3844 2670 4047 
Q 2441 4250 2034 4250 
Q 1625 4250 1398 4047 
Q 1172 3844 1172 3481 
z
" transform="scale(0.015625)"/>
       </defs>
       <use xlink:href="#DejaVuSans-30"/>
       <use xlink:href="#DejaVuSans-2e" x="63.623047"/>
       <use xlink:href="#DejaVuSans-38" x="95.410156"/>
      </g>
     </g>
    </g>
    <g id="ytick_9">
     <g id="line2d_29">
      <path d="M 49.842188 47.032601 
L 708.282187 47.032601 
" clip-path="url(#p9e75c7f7f2)" style="fill: none; stroke: #94a3b8; stroke-opacity: 0.22; stroke-width: 0.8; stroke-linecap: square"/>
     </g>
     <g id="line2d_30">
      <g>
       <use xlink:href="#me6066bbe20" x="49.842188" y="47.032601" style="fill: #475569; stroke: #475569; stroke-width: 0.8"/>
      </g>
     </g>
     <g id="text_9">
      <!-- 0.9 -->
      <g style="fill: #475569" transform="translate(25.34875 51.211741) scale(0.11 -0.11)">
       <defs>
        <path id="DejaVuSans-39" d="M 703 97 
L 703 672 
Q 941 559 1184 500 
Q 1428 441 1663 441 
Q 2288 441 2617 861 
Q 2947 1281 2994 2138 
Q 2813 1869 2534 1725 
Q 2256 1581 1919 1581 
Q 1219 1581 811 2004 
Q 403 2428 403 3163 
Q 403 3881 828 4315 
Q 1253 4750 1959 4750 
Q 2769 4750 3195 4129 
Q 3622 3509 3622 2328 
Q 3622 1225 3098 567 
Q 2575 -91 1691 -91 
Q 1453 -91 1209 -44 
Q 966 3 703 97 
z
M 1959 2075 
Q 2384 2075 2632 2365 
Q 2881 2656 2881 3163 
Q 2881 3666 2632 3958 
Q 2384 4250 1959 4250 
Q 1534 4250 1286 3958 
Q 1038 3666 1038 3163 
Q 1038 2656 1286 2365 
Q 1534 2075 1959 2075 
z
" transform="scale(0.015625)"/>
       </defs>
       <use xlink:href="#DejaVuSans-30"/>
       <use xlink:href="#DejaVuSans-2e" x="63.623047"/>
       <use xlink:href="#DejaVuSans-39" x="95.410156"/>
      </g>
     </g>
    </g>
    <g id="text_10">
     <!-- Average predicted fraud risk -->
     <g style="fill: #334155" transform="translate(19.061094 245.748083) rotate(-90) scale(0.11 -0.11)">
      <defs>
       <path id="DejaVuSans-41" d="M 2188 4044 
L 1331 1722 
L 3047 1722 
L 2188 4044 
z
M 1831 4666 
L 2547 4666 
L 4325 0 
L 3669 0 
L 3244 1197 
L 1141 1197 
L 716 0 
L 50 0 
L 1831 4666 
z
" transform="scale(0.015625)"/>
       <path id="DejaVuSans-76" d="M 191 3500 
L 800 3500 
L 1894 563 
L 2988 3500 
L 3597 3500 
L 2284 0 
L 1503 0 
L 191 3500 
z
" transform="scale(0.015625)"/>
       <path id="DejaVuSans-65" d="M 3597 1894 
L 3597 1613 
L 953 1613 
Q 991 1019 1311 708 
Q 1631 397 2203 397 
Q 2534 397 2845 478 
Q 3156 559 3463 722 
L 3463 178 
Q 3153 47 2828 -22 
Q 2503 -91 2169 -91 
Q 1331 -91 842 396 
Q 353 884 353 1716 
Q 353 2575 817 3079 
Q 1281 3584 2069 3584 
Q 2775 3584 3186 3129 
Q 3597 2675 3597 1894 
z
M 3022 2063 
Q 3016 2534 2758 2815 
Q 2500 3097 2075 3097 
Q 1594 3097 1305 2825 
Q 1016 2553 972 2059 
L 3022 2063 
z
" transform="scale(0.015625)"/>
       <path id="DejaVuSans-72" d="M 2631 2963 
Q 2534 3019 2420 3045 
Q 2306 3072 2169 3072 
Q 1681 3072 1420 2755 
Q 1159 2438 1159 1844 
L 1159 0 
L 581 0 
L 581 3500 
L 1159 3500 
L 1159 2956 
Q 1341 3275 1631 3429 
Q 1922 3584 2338 3584 
Q 2397 3584 2469 3576 
Q 2541 3569 2628 3553 
L 2631 2963 
z
" transform="scale(0.015625)"/>
       <path id="DejaVuSans-61" d="M 2194 1759 
Q 1497 1759 1228 1600 
Q 959 1441 959 1056 
Q 959 750 1161 570 
Q 1363 391 1709 391 
Q 2188 391 2477 730 
Q 2766 1069 2766 1631 
L 2766 1759 
L 2194 1759 
z
M 3341 1997 
L 3341 0 
L 2766 0 
L 2766 531 
Q 2569 213 2275 61 
Q 1981 -91 1556 -91 
Q 1019 -91 701 211 
Q 384 513 384 1019 
Q 384 1609 779 1909 
Q 1175 2209 1959 2209 
L 2766 2209 
L 2766 2266 
Q 2766 2663 2505 2880 
Q 2244 3097 1772 3097 
Q 1472 3097 1187 3025 
Q 903 2953 641 2809 
L 641 3341 
Q 956 3463 1253 3523 
Q 1550 3584 1831 3584 
Q 2591 3584 2966 3190 
Q 3341 2797 3341 1997 
z
" transform="scale(0.015625)"/>
       <path id="DejaVuSans-67" d="M 2906 1791 
Q 2906 2416 2648 2759 
Q 2391 3103 1925 3103 
Q 1463 3103 1205 2759 
Q 947 2416 947 1791 
Q 947 1169 1205 825 
Q 1463 481 1925 481 
Q 2391 481 2648 825 
Q 2906 1169 2906 1791 
z
M 3481 434 
Q 3481 -459 3084 -895 
Q 2688 -1331 1869 -1331 
Q 1566 -1331 1297 -1286 
Q 1028 -1241 775 -1147 
L 775 -588 
Q 1028 -725 1275 -790 
Q 1522 -856 1778 -856 
Q 2344 -856 2625 -561 
Q 2906 -266 2906 331 
L 2906 616 
Q 2728 306 2450 153 
Q 2172 0 1784 0 
Q 1141 0 747 490 
Q 353 981 353 1791 
Q 353 2603 747 3093 
Q 1141 3584 1784 3584 
Q 2172 3584 2450 3431 
Q 2728 3278 2906 2969 
L 2906 3500 
L 3481 3500 
L 3481 434 
z
" transform="scale(0.015625)"/>
       <path id="DejaVuSans-20" transform="scale(0.015625)"/>
       <path id="DejaVuSans-70" d="M 1159 525 
L 1159 -1331 
L 581 -1331 
L 581 3500 
L 1159 3500 
L 1159 2969 
Q 1341 3281 1617 3432 
Q 1894 3584 2278 3584 
Q 2916 3584 3314 3078 
Q 3713 2572 3713 1747 
Q 3713 922 3314 415 
Q 2916 -91 2278 -91 
Q 1894 -91 1617 61 
Q 1341 213 1159 525 
z
M 3116 1747 
Q 3116 2381 2855 2742 
Q 2594 3103 2138 3103 
Q 1681 3103 1420 2742 
Q 1159 2381 1159 1747 
Q 1159 1113 1420 752 
Q 1681 391 2138 391 
Q 2594 391 2855 752 
Q 3116 1113 3116 1747 
z
" transform="scale(0.015625)"/>
       <path id="DejaVuSans-64" d="M 2906 2969 
L 2906 4863 
L 3481 4863 
L 3481 0 
L 2906 0 
L 2906 525 
Q 2725 213 2448 61 
Q 2172 -91 1784 -91 
Q 1150 -91 751 415 
Q 353 922 353 1747 
Q 353 2572 751 3078 
Q 1150 3584 1784 3584 
Q 2172 3584 2448 3432 
Q 2725 3281 2906 2969 
z
M 947 1747 
Q 947 1113 1208 752 
Q 1469 391 1925 391 
Q 2381 391 2643 752 
Q 2906 1113 2906 1747 
Q 2906 2381 2643 2742 
Q 2381 3103 1925 3103 
Q 1469 3103 1208 2742 
Q 947 2381 947 1747 
z
" transform="scale(0.015625)"/>
       <path id="DejaVuSans-69" d="M 603 3500 
L 1178 3500 
L 1178 0 
L 603 0 
L 603 3500 
z
M 603 4863 
L 1178 4863 
L 1178 4134 
L 603 4134 
L 603 4863 
z
" transform="scale(0.015625)"/>
       <path id="DejaVuSans-63" d="M 3122 3366 
L 3122 2828 
Q 2878 2963 2633 3030 
Q 2388 3097 2138 3097 
Q 1578 3097 1268 2742 
Q 959 2388 959 1747 
Q 959 1106 1268 751 
Q 1578 397 2138 397 
Q 2388 397 2633 464 
Q 2878 531 3122 666 
L 3122 134 
Q 2881 22 2623 -34 
Q 2366 -91 2075 -91 
Q 1284 -91 818 406 
Q 353 903 353 1747 
Q 353 2603 823 3093 
Q 1294 3584 2113 3584 
Q 2378 3584 2631 3529 
Q 2884 3475 3122 3366 
z
" transform="scale(0.015625)"/>
       <path id="DejaVuSans-74" d="M 1172 4494 
L 1172 3500 
L 2356 3500 
L 2356 3053 
L 1172 3053 
L 1172 1153 
Q 1172 725 1289 603 
Q 1406 481 1766 481 
L 2356 481 
L 2356 0 
L 1766 0 
Q 1100 0 847 248 
Q 594 497 594 1153 
L 594 3053 
L 172 3053 
L 172 3500 
L 594 3500 
L 594 4494 
L 1172 4494 
z
" transform="scale(0.015625)"/>
       <path id="DejaVuSans-66" d="M 2375 4863 
L 2375 4384 
L 1825 4384 
Q 1516 4384 1395 4259 
Q 1275 4134 1275 3809 
L 1275 3500 
L 2222 3500 
L 2222 3053 
L 1275 3053 
L 1275 0 
L 697 0 
L 697 3053 
L 147 3053 
L 147 3500 
L 697 3500 
L 697 3744 
Q 697 4328 969 4595 
Q 1241 4863 1831 4863 
L 2375 4863 
z
" transform="scale(0.015625)"/>
       <path id="DejaVuSans-75" d="M 544 1381 
L 544 3500 
L 1119 3500 
L 1119 1403 
Q 1119 906 1312 657 
Q 1506 409 1894 409 
Q 2359 409 2629 706 
Q 2900 1003 2900 1516 
L 2900 3500 
L 3475 3500 
L 3475 0 
L 2900 0 
L 2900 538 
Q 2691 219 2414 64 
Q 2138 -91 1772 -91 
Q 1169 -91 856 284 
Q 544 659 544 1381 
z
M 1991 3584 
L 1991 3584 
z
" transform="scale(0.015625)"/>
       <path id="DejaVuSans-73" d="M 2834 3397 
L 2834 2853 
Q 2591 2978 2328 3040 
Q 2066 3103 1784 3103 
Q 1356 3103 1142 2972 
Q 928 2841 928 2578 
Q 928 2378 1081 2264 
Q 1234 2150 1697 2047 
L 1894 2003 
Q 2506 1872 2764 1633 
Q 3022 1394 3022 966 
Q 3022 478 2636 193 
Q 2250 -91 1575 -91 
Q 1294 -91 989 -36 
Q 684 19 347 128 
L 347 722 
Q 666 556 975 473 
Q 1284 391 1588 391 
Q 1994 391 2212 530 
Q 2431 669 2431 922 
Q 2431 1156 2273 1281 
Q 2116 1406 1581 1522 
L 1381 1569 
Q 847 1681 609 1914 
Q 372 2147 372 2553 
Q 372 3047 722 3315 
Q 1072 3584 1716 3584 
Q 2034 3584 2315 3537 
Q 2597 3491 2834 3397 
z
" transform="scale(0.015625)"/>
       <path id="DejaVuSans-6b" d="M 581 4863 
L 1159 4863 
L 1159 1991 
L 2875 3500 
L 3609 3500 
L 1753 1863 
L 3688 0 
L 2938 0 
L 1159 1709 
L 1159 0 
L 581 0 
L 581 4863 
z
" transform="scale(0.015625)"/>
      </defs>
      <use xlink:href="#DejaVuSans-41"/>
      <use xlink:href="#DejaVuSans-76" x="62.533203"/>
      <use xlink:href="#DejaVuSans-65" x="121.712891"/>
      <use xlink:href="#DejaVuSans-72" x="183.236328"/>
      <use xlink:href="#DejaVuSans-61" x="224.349609"/>
      <use xlink:href="#DejaVuSans-67" x="285.628906"/>
      <use xlink:href="#DejaVuSans-65" x="349.105469"/>
      <use xlink:href="#DejaVuSans-20" x="410.628906"/>
      <use xlink:href="#DejaVuSans-70" x="442.416016"/>
      <use xlink:href="#DejaVuSans-72" x="505.892578"/>
      <use xlink:href="#DejaVuSans-65" x="544.755859"/>
      <use xlink:href="#DejaVuSans-64" x="606.279297"/>
      <use xlink:href="#DejaVuSans-69" x="669.755859"/>
      <use xlink:href="#DejaVuSans-63" x="697.539062"/>
      <use xlink:href="#DejaVuSans-74" x="752.519531"/>
      <use xlink:href="#DejaVuSans-65" x="791.728516"/>
      <use xlink:href="#DejaVuSans-64" x="853.251953"/>
      <use xlink:href="#DejaVuSans-20" x="916.728516"/>
      <use xlink:href="#DejaVuSans-66" x="948.515625"/>
      <use xlink:href="#DejaVuSans-72" x="983.720703"/>
      <use xlink:href="#DejaVuSans-61" x="1024.833984"/>
      <use xlink:href="#DejaVuSans-75" x="1086.113281"/>
      <use xlink:href="#DejaVuSans-64" x="1149.492188"/>
      <use xlink:href="#DejaVuSans-20" x="1212.96875"/>
      <use xlink:href="#DejaVuSans-72" x="1244.755859"/>
      <use xlink:href="#DejaVuSans-69" x="1285.869141"/>
      <use xlink:href="#DejaVuSans-73" x="1313.652344"/>
      <use xlink:href="#DejaVuSans-6b" x="1365.751953"/>
     </g>
    </g>
   </g>
   <g id="line2d_31">
    <path d="M 79.771278 275.30272 
L 85.237779 274.274438 
L 87.971029 273.617345 
L 90.70428 272.844616 
L 93.43753 271.939743 
L 96.17078 270.885938 
L 98.904031 269.667119 
L 101.637281 268.269242 
L 104.370531 266.681956 
L 107.103782 264.900485 
L 109.837032 262.927514 
L 112.570282 260.774757 
L 118.036783 256.026028 
L 131.703034 243.431929 
L 137.169535 238.95935 
L 139.902785 236.943437 
L 142.636036 235.079679 
L 145.369286 233.362226 
L 150.835787 230.31672 
L 156.302287 227.680522 
L 161.768788 225.313439 
L 186.368041 215.183244 
L 194.567791 211.398893 
L 202.767542 207.323608 
L 213.700544 201.538607 
L 235.566546 189.763661 
L 243.766297 185.652961 
L 251.966048 181.85576 
L 257.432549 179.523067 
L 262.899049 177.356302 
L 268.36555 175.354363 
L 276.565301 172.645888 
L 284.765052 170.257409 
L 292.964803 168.141634 
L 301.164554 166.246956 
L 312.097555 163.976957 
L 325.763806 161.398962 
L 369.495811 153.373637 
L 383.162063 150.5862 
L 396.828315 147.580393 
L 410.494566 144.344282 
L 424.160818 140.886202 
L 440.56032 136.482185 
L 459.693072 131.092273 
L 506.158327 117.878594 
L 522.557829 113.528853 
L 536.22408 110.140069 
L 549.890332 107.003731 
L 563.556584 104.141644 
L 574.489585 102.056155 
L 588.155836 99.704222 
L 601.822088 97.627364 
L 615.488339 95.810517 
L 629.154591 94.23412 
L 642.820843 92.876061 
L 659.220344 91.50211 
L 675.619846 90.370067 
L 678.353097 90.202276 
L 678.353097 90.202276 
" clip-path="url(#p9e75c7f7f2)" style="fill: none; stroke: #7c3aed; stroke-width: 2.8; stroke-linecap: square"/>
   </g>
   <g id="patch_3">
    <path d="M 49.842188 303.912963 
L 49.842188 30.977578 
" style="fill: none; stroke: #94a3b8; stroke-width: 0.8; stroke-linejoin: miter; stroke-linecap: square"/>
   </g>
   <g id="patch_4">
    <path d="M 49.842188 303.912963 
L 708.282187 303.912963 
" style="fill: none; stroke: #94a3b8; stroke-width: 0.8; stroke-linejoin: miter; stroke-linecap: square"/>
   </g>
   <g id="patch_5">
    <path d="M 387.831575 186.024427 
Q 319.45088 184.57495 252.746859 183.161014 
" style="fill: none; stroke: #6d28d9; stroke-width: 1.5; stroke-linecap: round"/>
    <path d="M 257.099248 185.453767 
L 252.746859 183.161014 
L 257.192494 181.054755 
" style="fill: none; stroke: #6d28d9; stroke-width: 1.5; stroke-linecap: round"/>
   </g>
   <g id="text_11">
    <g id="patch_6">
     <path d="M 394.17789 204.08747 
L 639.187421 204.08747 
Q 643.037421 204.08747 643.037421 200.23747 
L 643.037421 177.273938 
Q 643.037421 173.423938 639.187421 173.423938 
L 394.17789 173.423938 
Q 390.32789 173.423938 390.32789 177.273938 
L 390.32789 200.23747 
Q 390.32789 204.08747 394.17789 204.08747 
z
" style="fill: #faf5ff; stroke: #c4b5fd; stroke-linejoin: miter"/>
    </g>
    <!-- Steeper rise where the model starts treating -->
    <g style="fill: #5b21b6" transform="translate(394.17789 185.63222) scale(0.11 -0.11)">
     <defs>
      <path id="DejaVuSans-53" d="M 3425 4513 
L 3425 3897 
Q 3066 4069 2747 4153 
Q 2428 4238 2131 4238 
Q 1616 4238 1336 4038 
Q 1056 3838 1056 3469 
Q 1056 3159 1242 3001 
Q 1428 2844 1947 2747 
L 2328 2669 
Q 3034 2534 3370 2195 
Q 3706 1856 3706 1288 
Q 3706 609 3251 259 
Q 2797 -91 1919 -91 
Q 1588 -91 1214 -16 
Q 841 59 441 206 
L 441 856 
Q 825 641 1194 531 
Q 1563 422 1919 422 
Q 2459 422 2753 634 
Q 3047 847 3047 1241 
Q 3047 1584 2836 1778 
Q 2625 1972 2144 2069 
L 1759 2144 
Q 1053 2284 737 2584 
Q 422 2884 422 3419 
Q 422 4038 858 4394 
Q 1294 4750 2059 4750 
Q 2388 4750 2728 4690 
Q 3069 4631 3425 4513 
z
" transform="scale(0.015625)"/>
      <path id="DejaVuSans-77" d="M 269 3500 
L 844 3500 
L 1563 769 
L 2278 3500 
L 2956 3500 
L 3675 769 
L 4391 3500 
L 4966 3500 
L 4050 0 
L 3372 0 
L 2619 2869 
L 1863 0 
L 1184 0 
L 269 3500 
z
" transform="scale(0.015625)"/>
      <path id="DejaVuSans-68" d="M 3513 2113 
L 3513 0 
L 2938 0 
L 2938 2094 
Q 2938 2591 2744 2837 
Q 2550 3084 2163 3084 
Q 1697 3084 1428 2787 
Q 1159 2491 1159 1978 
L 1159 0 
L 581 0 
L 581 4863 
L 1159 4863 
L 1159 2956 
Q 1366 3272 1645 3428 
Q 1925 3584 2291 3584 
Q 2894 3584 3203 3211 
Q 3513 2838 3513 2113 
z
" transform="scale(0.015625)"/>
      <path id="DejaVuSans-6d" d="M 3328 2828 
Q 3544 3216 3844 3400 
Q 4144 3584 4550 3584 
Q 5097 3584 5394 3201 
Q 5691 2819 5691 2113 
L 5691 0 
L 5113 0 
L 5113 2094 
Q 5113 2597 4934 2840 
Q 4756 3084 4391 3084 
Q 3944 3084 3684 2787 
Q 3425 2491 3425 1978 
L 3425 0 
L 2847 0 
L 2847 2094 
Q 2847 2600 2669 2842 
Q 2491 3084 2119 3084 
Q 1678 3084 1418 2786 
Q 1159 2488 1159 1978 
L 1159 0 
L 581 0 
L 581 3500 
L 1159 3500 
L 1159 2956 
Q 1356 3278 1631 3431 
Q 1906 3584 2284 3584 
Q 2666 3584 2933 3390 
Q 3200 3197 3328 2828 
z
" transform="scale(0.015625)"/>
      <path id="DejaVuSans-6f" d="M 1959 3097 
Q 1497 3097 1228 2736 
Q 959 2375 959 1747 
Q 959 1119 1226 758 
Q 1494 397 1959 397 
Q 2419 397 2687 759 
Q 2956 1122 2956 1747 
Q 2956 2369 2687 2733 
Q 2419 3097 1959 3097 
z
M 1959 3584 
Q 2709 3584 3137 3096 
Q 3566 2609 3566 1747 
Q 3566 888 3137 398 
Q 2709 -91 1959 -91 
Q 1206 -91 779 398 
Q 353 888 353 1747 
Q 353 2609 779 3096 
Q 1206 3584 1959 3584 
z
" transform="scale(0.015625)"/>
      <path id="DejaVuSans-6c" d="M 603 4863 
L 1178 4863 
L 1178 0 
L 603 0 
L 603 4863 
z
" transform="scale(0.015625)"/>
      <path id="DejaVuSans-6e" d="M 3513 2113 
L 3513 0 
L 2938 0 
L 2938 2094 
Q 2938 2591 2744 2837 
Q 2550 3084 2163 3084 
Q 1697 3084 1428 2787 
Q 1159 2491 1159 1978 
L 1159 0 
L 581 0 
L 581 3500 
L 1159 3500 
L 1159 2956 
Q 1366 3272 1645 3428 
Q 1925 3584 2291 3584 
Q 2894 3584 3203 3211 
Q 3513 2838 3513 2113 
z
" transform="scale(0.015625)"/>
     </defs>
     <use xlink:href="#DejaVuSans-53"/>
     <use xlink:href="#DejaVuSans-74" x="63.476562"/>
     <use xlink:href="#DejaVuSans-65" x="102.685547"/>
     <use xlink:href="#DejaVuSans-65" x="164.208984"/>
     <use xlink:href="#DejaVuSans-70" x="225.732422"/>
     <use xlink:href="#DejaVuSans-65" x="289.208984"/>
     <use xlink:href="#DejaVuSans-72" x="350.732422"/>
     <use xlink:href="#DejaVuSans-20" x="391.845703"/>
     <use xlink:href="#DejaVuSans-72" x="423.632812"/>
     <use xlink:href="#DejaVuSans-69" x="464.746094"/>
     <use xlink:href="#DejaVuSans-73" x="492.529297"/>
     <use xlink:href="#DejaVuSans-65" x="544.628906"/>
     <use xlink:href="#DejaVuSans-20" x="606.152344"/>
     <use xlink:href="#DejaVuSans-77" x="637.939453"/>
     <use xlink:href="#DejaVuSans-68" x="719.726562"/>
     <use xlink:href="#DejaVuSans-65" x="783.105469"/>
     <use xlink:href="#DejaVuSans-72" x="844.628906"/>
     <use xlink:href="#DejaVuSans-65" x="883.492188"/>
     <use xlink:href="#DejaVuSans-20" x="945.015625"/>
     <use xlink:href="#DejaVuSans-74" x="976.802734"/>
     <use xlink:href="#DejaVuSans-68" x="1016.011719"/>
     <use xlink:href="#DejaVuSans-65" x="1079.390625"/>
     <use xlink:href="#DejaVuSans-20" x="1140.914062"/>
     <use xlink:href="#DejaVuSans-6d" x="1172.701172"/>
     <use xlink:href="#DejaVuSans-6f" x="1270.113281"/>
     <use xlink:href="#DejaVuSans-64" x="1331.294922"/>
     <use xlink:href="#DejaVuSans-65" x="1394.771484"/>
     <use xlink:href="#DejaVuSans-6c" x="1456.294922"/>
     <use xlink:href="#DejaVuSans-20" x="1484.078125"/>
     <use xlink:href="#DejaVuSans-73" x="1515.865234"/>
     <use xlink:href="#DejaVuSans-74" x="1567.964844"/>
     <use xlink:href="#DejaVuSans-61" x="1607.173828"/>
     <use xlink:href="#DejaVuSans-72" x="1668.453125"/>
     <use xlink:href="#DejaVuSans-74" x="1709.566406"/>
     <use xlink:href="#DejaVuSans-73" x="1748.775391"/>
     <use xlink:href="#DejaVuSans-20" x="1800.875"/>
     <use xlink:href="#DejaVuSans-74" x="1832.662109"/>
     <use xlink:href="#DejaVuSans-72" x="1871.871094"/>
     <use xlink:href="#DejaVuSans-65" x="1910.734375"/>
     <use xlink:href="#DejaVuSans-61" x="1972.257812"/>
     <use xlink:href="#DejaVuSans-74" x="2033.537109"/>
     <use xlink:href="#DejaVuSans-69" x="2072.746094"/>
     <use xlink:href="#DejaVuSans-6e" x="2100.529297"/>
     <use xlink:href="#DejaVuSans-67" x="2163.908203"/>
    </g>
    <!-- amount as a strong fraud signal -->
    <g style="fill: #5b21b6" transform="translate(394.17789 197.949813) scale(0.11 -0.11)">
     <use xlink:href="#DejaVuSans-61"/>
     <use xlink:href="#DejaVuSans-6d" x="61.279297"/>
     <use xlink:href="#DejaVuSans-6f" x="158.691406"/>
     <use xlink:href="#DejaVuSans-75" x="219.873047"/>
     <use xlink:href="#DejaVuSans-6e" x="283.251953"/>
     <use xlink:href="#DejaVuSans-74" x="346.630859"/>
     <use xlink:href="#DejaVuSans-20" x="385.839844"/>
     <use xlink:href="#DejaVuSans-61" x="417.626953"/>
     <use xlink:href="#DejaVuSans-73" x="478.90625"/>
     <use xlink:href="#DejaVuSans-20" x="531.005859"/>
     <use xlink:href="#DejaVuSans-61" x="562.792969"/>
     <use xlink:href="#DejaVuSans-20" x="624.072266"/>
     <use xlink:href="#DejaVuSans-73" x="655.859375"/>
     <use xlink:href="#DejaVuSans-74" x="707.958984"/>
     <use xlink:href="#DejaVuSans-72" x="747.167969"/>
     <use xlink:href="#DejaVuSans-6f" x="786.03125"/>
     <use xlink:href="#DejaVuSans-6e" x="847.212891"/>
     <use xlink:href="#DejaVuSans-67" x="910.591797"/>
     <use xlink:href="#DejaVuSans-20" x="974.068359"/>
     <use xlink:href="#DejaVuSans-66" x="1005.855469"/>
     <use xlink:href="#DejaVuSans-72" x="1041.060547"/>
     <use xlink:href="#DejaVuSans-61" x="1082.173828"/>
     <use xlink:href="#DejaVuSans-75" x="1143.453125"/>
     <use xlink:href="#DejaVuSans-64" x="1206.832031"/>
     <use xlink:href="#DejaVuSans-20" x="1270.308594"/>
     <use xlink:href="#DejaVuSans-73" x="1302.095703"/>
     <use xlink:href="#DejaVuSans-69" x="1354.195312"/>
     <use xlink:href="#DejaVuSans-67" x="1381.978516"/>
     <use xlink:href="#DejaVuSans-6e" x="1445.455078"/>
     <use xlink:href="#DejaVuSans-61" x="1508.833984"/>
     <use xlink:href="#DejaVuSans-6c" x="1570.113281"/>
    </g>
   </g>
   <g id="text_12">
    <!-- Partial Dependence: Larger Transaction Amounts Push Fraud Risk Up on Average -->
    <g style="fill: #0f172a" transform="translate(24.819375 18.977578) scale(0.155 -0.155)">
     <defs>
      <path id="DejaVuSans-Bold-50" d="M 588 4666 
L 2584 4666 
Q 3475 4666 3951 4270 
Q 4428 3875 4428 3144 
Q 4428 2409 3951 2014 
Q 3475 1619 2584 1619 
L 1791 1619 
L 1791 0 
L 588 0 
L 588 4666 
z
M 1791 3794 
L 1791 2491 
L 2456 2491 
Q 2806 2491 2997 2661 
Q 3188 2831 3188 3144 
Q 3188 3456 2997 3625 
Q 2806 3794 2456 3794 
L 1791 3794 
z
" transform="scale(0.015625)"/>
      <path id="DejaVuSans-Bold-61" d="M 2106 1575 
Q 1756 1575 1579 1456 
Q 1403 1338 1403 1106 
Q 1403 894 1545 773 
Q 1688 653 1941 653 
Q 2256 653 2472 879 
Q 2688 1106 2688 1447 
L 2688 1575 
L 2106 1575 
z
M 3816 1997 
L 3816 0 
L 2688 0 
L 2688 519 
Q 2463 200 2181 54 
Q 1900 -91 1497 -91 
Q 953 -91 614 226 
Q 275 544 275 1050 
Q 275 1666 698 1953 
Q 1122 2241 2028 2241 
L 2688 2241 
L 2688 2328 
Q 2688 2594 2478 2717 
Q 2269 2841 1825 2841 
Q 1466 2841 1156 2769 
Q 847 2697 581 2553 
L 581 3406 
Q 941 3494 1303 3539 
Q 1666 3584 2028 3584 
Q 2975 3584 3395 3211 
Q 3816 2838 3816 1997 
z
" transform="scale(0.015625)"/>
      <path id="DejaVuSans-Bold-72" d="M 3138 2547 
Q 2991 2616 2845 2648 
Q 2700 2681 2553 2681 
Q 2122 2681 1889 2404 
Q 1656 2128 1656 1613 
L 1656 0 
L 538 0 
L 538 3500 
L 1656 3500 
L 1656 2925 
Q 1872 3269 2151 3426 
Q 2431 3584 2822 3584 
Q 2878 3584 2943 3579 
Q 3009 3575 3134 3559 
L 3138 2547 
z
" transform="scale(0.015625)"/>
      <path id="DejaVuSans-Bold-74" d="M 1759 4494 
L 1759 3500 
L 2913 3500 
L 2913 2700 
L 1759 2700 
L 1759 1216 
Q 1759 972 1856 886 
Q 1953 800 2241 800 
L 2816 800 
L 2816 0 
L 1856 0 
Q 1194 0 917 276 
Q 641 553 641 1216 
L 641 2700 
L 84 2700 
L 84 3500 
L 641 3500 
L 641 4494 
L 1759 4494 
z
" transform="scale(0.015625)"/>
      <path id="DejaVuSans-Bold-69" d="M 538 3500 
L 1656 3500 
L 1656 0 
L 538 0 
L 538 3500 
z
M 538 4863 
L 1656 4863 
L 1656 3950 
L 538 3950 
L 538 4863 
z
" transform="scale(0.015625)"/>
      <path id="DejaVuSans-Bold-6c" d="M 538 4863 
L 1656 4863 
L 1656 0 
L 538 0 
L 538 4863 
z
" transform="scale(0.015625)"/>
      <path id="DejaVuSans-Bold-20" transform="scale(0.015625)"/>
      <path id="DejaVuSans-Bold-44" d="M 1791 3756 
L 1791 909 
L 2222 909 
Q 2959 909 3348 1275 
Q 3738 1641 3738 2338 
Q 3738 3031 3350 3393 
Q 2963 3756 2222 3756 
L 1791 3756 
z
M 588 4666 
L 1856 4666 
Q 2919 4666 3439 4514 
Q 3959 4363 4331 4000 
Q 4659 3684 4818 3271 
Q 4978 2859 4978 2338 
Q 4978 1809 4818 1395 
Q 4659 981 4331 666 
Q 3956 303 3431 151 
Q 2906 0 1856 0 
L 588 0 
L 588 4666 
z
" transform="scale(0.015625)"/>
      <path id="DejaVuSans-Bold-65" d="M 4031 1759 
L 4031 1441 
L 1416 1441 
Q 1456 1047 1700 850 
Q 1944 653 2381 653 
Q 2734 653 3104 758 
Q 3475 863 3866 1075 
L 3866 213 
Q 3469 63 3072 -14 
Q 2675 -91 2278 -91 
Q 1328 -91 801 392 
Q 275 875 275 1747 
Q 275 2603 792 3093 
Q 1309 3584 2216 3584 
Q 3041 3584 3536 3087 
Q 4031 2591 4031 1759 
z
M 2881 2131 
Q 2881 2450 2695 2645 
Q 2509 2841 2209 2841 
Q 1884 2841 1681 2658 
Q 1478 2475 1428 2131 
L 2881 2131 
z
" transform="scale(0.015625)"/>
      <path id="DejaVuSans-Bold-70" d="M 1656 506 
L 1656 -1331 
L 538 -1331 
L 538 3500 
L 1656 3500 
L 1656 2988 
Q 1888 3294 2169 3439 
Q 2450 3584 2816 3584 
Q 3463 3584 3878 3070 
Q 4294 2556 4294 1747 
Q 4294 938 3878 423 
Q 3463 -91 2816 -91 
Q 2450 -91 2169 54 
Q 1888 200 1656 506 
z
M 2400 2772 
Q 2041 2772 1848 2508 
Q 1656 2244 1656 1747 
Q 1656 1250 1848 986 
Q 2041 722 2400 722 
Q 2759 722 2948 984 
Q 3138 1247 3138 1747 
Q 3138 2247 2948 2509 
Q 2759 2772 2400 2772 
z
" transform="scale(0.015625)"/>
      <path id="DejaVuSans-Bold-6e" d="M 4056 2131 
L 4056 0 
L 2931 0 
L 2931 347 
L 2931 1631 
Q 2931 2084 2911 2256 
Q 2891 2428 2841 2509 
Q 2775 2619 2662 2680 
Q 2550 2741 2406 2741 
Q 2056 2741 1856 2470 
Q 1656 2200 1656 1722 
L 1656 0 
L 538 0 
L 538 3500 
L 1656 3500 
L 1656 2988 
Q 1909 3294 2193 3439 
Q 2478 3584 2822 3584 
Q 3428 3584 3742 3212 
Q 4056 2841 4056 2131 
z
" transform="scale(0.015625)"/>
      <path id="DejaVuSans-Bold-64" d="M 2919 2988 
L 2919 4863 
L 4044 4863 
L 4044 0 
L 2919 0 
L 2919 506 
Q 2688 197 2409 53 
Q 2131 -91 1766 -91 
Q 1119 -91 703 423 
Q 288 938 288 1747 
Q 288 2556 703 3070 
Q 1119 3584 1766 3584 
Q 2128 3584 2408 3439 
Q 2688 3294 2919 2988 
z
M 2181 722 
Q 2541 722 2730 984 
Q 2919 1247 2919 1747 
Q 2919 2247 2730 2509 
Q 2541 2772 2181 2772 
Q 1825 2772 1636 2509 
Q 1447 2247 1447 1747 
Q 1447 1247 1636 984 
Q 1825 722 2181 722 
z
" transform="scale(0.015625)"/>
      <path id="DejaVuSans-Bold-63" d="M 3366 3391 
L 3366 2478 
Q 3138 2634 2908 2709 
Q 2678 2784 2431 2784 
Q 1963 2784 1702 2511 
Q 1441 2238 1441 1747 
Q 1441 1256 1702 982 
Q 1963 709 2431 709 
Q 2694 709 2930 787 
Q 3166 866 3366 1019 
L 3366 103 
Q 3103 6 2833 -42 
Q 2563 -91 2291 -91 
Q 1344 -91 809 395 
Q 275 881 275 1747 
Q 275 2613 809 3098 
Q 1344 3584 2291 3584 
Q 2566 3584 2833 3536 
Q 3100 3488 3366 3391 
z
" transform="scale(0.015625)"/>
      <path id="DejaVuSans-Bold-3a" d="M 716 3500 
L 1844 3500 
L 1844 2291 
L 716 2291 
L 716 3500 
z
M 716 1209 
L 1844 1209 
L 1844 0 
L 716 0 
L 716 1209 
z
" transform="scale(0.015625)"/>
      <path id="DejaVuSans-Bold-4c" d="M 588 4666 
L 1791 4666 
L 1791 909 
L 3903 909 
L 3903 0 
L 588 0 
L 588 4666 
z
" transform="scale(0.015625)"/>
      <path id="DejaVuSans-Bold-67" d="M 2919 594 
Q 2688 288 2409 144 
Q 2131 0 1766 0 
Q 1125 0 706 504 
Q 288 1009 288 1791 
Q 288 2575 706 3076 
Q 1125 3578 1766 3578 
Q 2131 3578 2409 3434 
Q 2688 3291 2919 2981 
L 2919 3500 
L 4044 3500 
L 4044 353 
Q 4044 -491 3511 -936 
Q 2978 -1381 1966 -1381 
Q 1638 -1381 1331 -1331 
Q 1025 -1281 716 -1178 
L 716 -306 
Q 1009 -475 1290 -558 
Q 1572 -641 1856 -641 
Q 2406 -641 2662 -400 
Q 2919 -159 2919 353 
L 2919 594 
z
M 2181 2772 
Q 1834 2772 1640 2515 
Q 1447 2259 1447 1791 
Q 1447 1309 1634 1061 
Q 1822 813 2181 813 
Q 2531 813 2725 1069 
Q 2919 1325 2919 1791 
Q 2919 2259 2725 2515 
Q 2531 2772 2181 2772 
z
" transform="scale(0.015625)"/>
      <path id="DejaVuSans-Bold-54" d="M 31 4666 
L 4331 4666 
L 4331 3756 
L 2784 3756 
L 2784 0 
L 1581 0 
L 1581 3756 
L 31 3756 
L 31 4666 
z
" transform="scale(0.015625)"/>
      <path id="DejaVuSans-Bold-73" d="M 3272 3391 
L 3272 2541 
Q 2913 2691 2578 2766 
Q 2244 2841 1947 2841 
Q 1628 2841 1473 2761 
Q 1319 2681 1319 2516 
Q 1319 2381 1436 2309 
Q 1553 2238 1856 2203 
L 2053 2175 
Q 2913 2066 3209 1816 
Q 3506 1566 3506 1031 
Q 3506 472 3093 190 
Q 2681 -91 1863 -91 
Q 1516 -91 1145 -36 
Q 775 19 384 128 
L 384 978 
Q 719 816 1070 734 
Q 1422 653 1784 653 
Q 2113 653 2278 743 
Q 2444 834 2444 1013 
Q 2444 1163 2330 1236 
Q 2216 1309 1875 1350 
L 1678 1375 
Q 931 1469 631 1722 
Q 331 1975 331 2491 
Q 331 3047 712 3315 
Q 1094 3584 1881 3584 
Q 2191 3584 2531 3537 
Q 2872 3491 3272 3391 
z
" transform="scale(0.015625)"/>
      <path id="DejaVuSans-Bold-6f" d="M 2203 2784 
Q 1831 2784 1636 2517 
Q 1441 2250 1441 1747 
Q 1441 1244 1636 976 
Q 1831 709 2203 709 
Q 2569 709 2762 976 
Q 2956 1244 2956 1747 
Q 2956 2250 2762 2517 
Q 2569 2784 2203 2784 
z
M 2203 3584 
Q 3106 3584 3614 3096 
Q 4122 2609 4122 1747 
Q 4122 884 3614 396 
Q 3106 -91 2203 -91 
Q 1297 -91 786 396 
Q 275 884 275 1747 
Q 275 2609 786 3096 
Q 1297 3584 2203 3584 
z
" transform="scale(0.015625)"/>
      <path id="DejaVuSans-Bold-41" d="M 3419 850 
L 1538 850 
L 1241 0 
L 31 0 
L 1759 4666 
L 3194 4666 
L 4922 0 
L 3713 0 
L 3419 850 
z
M 1838 1716 
L 3116 1716 
L 2478 3572 
L 1838 1716 
z
" transform="scale(0.015625)"/>
      <path id="DejaVuSans-Bold-6d" d="M 3781 2919 
Q 3994 3244 4286 3414 
Q 4578 3584 4928 3584 
Q 5531 3584 5847 3212 
Q 6163 2841 6163 2131 
L 6163 0 
L 5038 0 
L 5038 1825 
Q 5041 1866 5042 1909 
Q 5044 1953 5044 2034 
Q 5044 2406 4934 2573 
Q 4825 2741 4581 2741 
Q 4263 2741 4089 2478 
Q 3916 2216 3909 1719 
L 3909 0 
L 2784 0 
L 2784 1825 
Q 2784 2406 2684 2573 
Q 2584 2741 2328 2741 
Q 2006 2741 1831 2477 
Q 1656 2213 1656 1722 
L 1656 0 
L 531 0 
L 531 3500 
L 1656 3500 
L 1656 2988 
Q 1863 3284 2130 3434 
Q 2397 3584 2719 3584 
Q 3081 3584 3359 3409 
Q 3638 3234 3781 2919 
z
" transform="scale(0.015625)"/>
      <path id="DejaVuSans-Bold-75" d="M 500 1363 
L 500 3500 
L 1625 3500 
L 1625 3150 
Q 1625 2866 1622 2436 
Q 1619 2006 1619 1863 
Q 1619 1441 1641 1255 
Q 1663 1069 1716 984 
Q 1784 875 1895 815 
Q 2006 756 2150 756 
Q 2500 756 2700 1025 
Q 2900 1294 2900 1772 
L 2900 3500 
L 4019 3500 
L 4019 0 
L 2900 0 
L 2900 506 
Q 2647 200 2364 54 
Q 2081 -91 1741 -91 
Q 1134 -91 817 281 
Q 500 653 500 1363 
z
" transform="scale(0.015625)"/>
      <path id="DejaVuSans-Bold-68" d="M 4056 2131 
L 4056 0 
L 2931 0 
L 2931 347 
L 2931 1625 
Q 2931 2084 2911 2256 
Q 2891 2428 2841 2509 
Q 2775 2619 2662 2680 
Q 2550 2741 2406 2741 
Q 2056 2741 1856 2470 
Q 1656 2200 1656 1722 
L 1656 0 
L 538 0 
L 538 4863 
L 1656 4863 
L 1656 2988 
Q 1909 3294 2193 3439 
Q 2478 3584 2822 3584 
Q 3428 3584 3742 3212 
Q 4056 2841 4056 2131 
z
" transform="scale(0.015625)"/>
      <path id="DejaVuSans-Bold-46" d="M 588 4666 
L 3834 4666 
L 3834 3756 
L 1791 3756 
L 1791 2888 
L 3713 2888 
L 3713 1978 
L 1791 1978 
L 1791 0 
L 588 0 
L 588 4666 
z
" transform="scale(0.015625)"/>
      <path id="DejaVuSans-Bold-52" d="M 2297 2597 
Q 2675 2597 2839 2737 
Q 3003 2878 3003 3200 
Q 3003 3519 2839 3656 
Q 2675 3794 2297 3794 
L 1791 3794 
L 1791 2597 
L 2297 2597 
z
M 1791 1766 
L 1791 0 
L 588 0 
L 588 4666 
L 2425 4666 
Q 3347 4666 3776 4356 
Q 4206 4047 4206 3378 
Q 4206 2916 3982 2619 
Q 3759 2322 3309 2181 
Q 3556 2125 3751 1926 
Q 3947 1728 4147 1325 
L 4800 0 
L 3519 0 
L 2950 1159 
Q 2778 1509 2601 1637 
Q 2425 1766 2131 1766 
L 1791 1766 
z
" transform="scale(0.015625)"/>
      <path id="DejaVuSans-Bold-6b" d="M 538 4863 
L 1656 4863 
L 1656 2216 
L 2944 3500 
L 4244 3500 
L 2534 1894 
L 4378 0 
L 3022 0 
L 1656 1459 
L 1656 0 
L 538 0 
L 538 4863 
z
" transform="scale(0.015625)"/>
      <path id="DejaVuSans-Bold-55" d="M 588 4666 
L 1791 4666 
L 1791 1869 
Q 1791 1291 1980 1042 
Q 2169 794 2597 794 
Q 3028 794 3217 1042 
Q 3406 1291 3406 1869 
L 3406 4666 
L 4609 4666 
L 4609 1869 
Q 4609 878 4112 393 
Q 3616 -91 2597 -91 
Q 1581 -91 1084 393 
Q 588 878 588 1869 
L 588 4666 
z
" transform="scale(0.015625)"/>
      <path id="DejaVuSans-Bold-76" d="M 97 3500 
L 1216 3500 
L 2088 1081 
L 2956 3500 
L 4078 3500 
L 2700 0 
L 1472 0 
L 97 3500 
z
" transform="scale(0.015625)"/>
     </defs>
     <use xlink:href="#DejaVuSans-Bold-50"/>
     <use xlink:href="#DejaVuSans-Bold-61" x="70.666016"/>
     <use xlink:href="#DejaVuSans-Bold-72" x="138.146484"/>
     <use xlink:href="#DejaVuSans-Bold-74" x="187.462891"/>
     <use xlink:href="#DejaVuSans-Bold-69" x="235.265625"/>
     <use xlink:href="#DejaVuSans-Bold-61" x="269.542969"/>
     <use xlink:href="#DejaVuSans-Bold-6c" x="337.023438"/>
     <use xlink:href="#DejaVuSans-Bold-20" x="371.300781"/>
     <use xlink:href="#DejaVuSans-Bold-44" x="406.115234"/>
     <use xlink:href="#DejaVuSans-Bold-65" x="489.123047"/>
     <use xlink:href="#DejaVuSans-Bold-70" x="556.945312"/>
     <use xlink:href="#DejaVuSans-Bold-65" x="628.527344"/>
     <use xlink:href="#DejaVuSans-Bold-6e" x="696.349609"/>
     <use xlink:href="#DejaVuSans-Bold-64" x="767.541016"/>
     <use xlink:href="#DejaVuSans-Bold-65" x="839.123047"/>
     <use xlink:href="#DejaVuSans-Bold-6e" x="906.945312"/>
     <use xlink:href="#DejaVuSans-Bold-63" x="978.136719"/>
     <use xlink:href="#DejaVuSans-Bold-65" x="1037.414062"/>
     <use xlink:href="#DejaVuSans-Bold-3a" x="1105.236328"/>
     <use xlink:href="#DejaVuSans-Bold-20" x="1145.226562"/>
     <use xlink:href="#DejaVuSans-Bold-4c" x="1180.041016"/>
     <use xlink:href="#DejaVuSans-Bold-61" x="1243.761719"/>
     <use xlink:href="#DejaVuSans-Bold-72" x="1311.242188"/>
     <use xlink:href="#DejaVuSans-Bold-67" x="1360.558594"/>
     <use xlink:href="#DejaVuSans-Bold-65" x="1432.140625"/>
     <use xlink:href="#DejaVuSans-Bold-72" x="1499.962891"/>
     <use xlink:href="#DejaVuSans-Bold-20" x="1549.279297"/>
     <use xlink:href="#DejaVuSans-Bold-54" x="1584.09375"/>
     <use xlink:href="#DejaVuSans-Bold-72" x="1641.306641"/>
     <use xlink:href="#DejaVuSans-Bold-61" x="1690.623047"/>
     <use xlink:href="#DejaVuSans-Bold-6e" x="1758.103516"/>
     <use xlink:href="#DejaVuSans-Bold-73" x="1829.294922"/>
     <use xlink:href="#DejaVuSans-Bold-61" x="1888.816406"/>
     <use xlink:href="#DejaVuSans-Bold-63" x="1956.296875"/>
     <use xlink:href="#DejaVuSans-Bold-74" x="2015.574219"/>
     <use xlink:href="#DejaVuSans-Bold-69" x="2063.376953"/>
     <use xlink:href="#DejaVuSans-Bold-6f" x="2097.654297"/>
     <use xlink:href="#DejaVuSans-Bold-6e" x="2166.355469"/>
     <use xlink:href="#DejaVuSans-Bold-20" x="2237.546875"/>
     <use xlink:href="#DejaVuSans-Bold-41" x="2272.361328"/>
     <use xlink:href="#DejaVuSans-Bold-6d" x="2349.753906"/>
     <use xlink:href="#DejaVuSans-Bold-6f" x="2453.953125"/>
     <use xlink:href="#DejaVuSans-Bold-75" x="2522.654297"/>
     <use xlink:href="#DejaVuSans-Bold-6e" x="2593.845703"/>
     <use xlink:href="#DejaVuSans-Bold-74" x="2665.037109"/>
     <use xlink:href="#DejaVuSans-Bold-73" x="2712.839844"/>
     <use xlink:href="#DejaVuSans-Bold-20" x="2772.361328"/>
     <use xlink:href="#DejaVuSans-Bold-50" x="2807.175781"/>
     <use xlink:href="#DejaVuSans-Bold-75" x="2880.466797"/>
     <use xlink:href="#DejaVuSans-Bold-73" x="2951.658203"/>
     <use xlink:href="#DejaVuSans-Bold-68" x="3011.179688"/>
     <use xlink:href="#DejaVuSans-Bold-20" x="3082.371094"/>
     <use xlink:href="#DejaVuSans-Bold-46" x="3117.185547"/>
     <use xlink:href="#DejaVuSans-Bold-72" x="3179.121094"/>
     <use xlink:href="#DejaVuSans-Bold-61" x="3228.4375"/>
     <use xlink:href="#DejaVuSans-Bold-75" x="3295.917969"/>
     <use xlink:href="#DejaVuSans-Bold-64" x="3367.109375"/>
     <use xlink:href="#DejaVuSans-Bold-20" x="3438.691406"/>
     <use xlink:href="#DejaVuSans-Bold-52" x="3473.505859"/>
     <use xlink:href="#DejaVuSans-Bold-69" x="3550.507812"/>
     <use xlink:href="#DejaVuSans-Bold-73" x="3584.785156"/>
     <use xlink:href="#DejaVuSans-Bold-6b" x="3644.306641"/>
     <use xlink:href="#DejaVuSans-Bold-20" x="3710.810547"/>
     <use xlink:href="#DejaVuSans-Bold-55" x="3745.625"/>
     <use xlink:href="#DejaVuSans-Bold-70" x="3826.826172"/>
     <use xlink:href="#DejaVuSans-Bold-20" x="3898.408203"/>
     <use xlink:href="#DejaVuSans-Bold-6f" x="3933.222656"/>
     <use xlink:href="#DejaVuSans-Bold-6e" x="4001.923828"/>
     <use xlink:href="#DejaVuSans-Bold-20" x="4073.115234"/>
     <use xlink:href="#DejaVuSans-Bold-41" x="4107.929688"/>
     <use xlink:href="#DejaVuSans-Bold-76" x="4181.697266"/>
     <use xlink:href="#DejaVuSans-Bold-65" x="4246.882812"/>
     <use xlink:href="#DejaVuSans-Bold-72" x="4314.705078"/>
     <use xlink:href="#DejaVuSans-Bold-61" x="4364.021484"/>
     <use xlink:href="#DejaVuSans-Bold-67" x="4431.501953"/>
     <use xlink:href="#DejaVuSans-Bold-65" x="4503.083984"/>
    </g>
   </g>
  </g>
  <g id="axes_2">
   <g id="patch_7">
    <path d="M 49.842188 385.793578 
L 708.282187 385.793578 
L 708.282187 317.559732 
L 49.842188 317.559732 
z
" style="fill: #ffffff"/>
   </g>
   <g id="patch_8">
    <path d="M 82.152276 385.793578 
L 100.014717 385.793578 
L 100.014717 320.808963 
L 82.152276 320.808963 
z
" clip-path="url(#pe237af4f8e)" style="fill: #cbd5e1; stroke: #ffffff; stroke-linejoin: miter"/>
   </g>
   <g id="patch_9">
    <path d="M 100.014717 385.793578 
L 117.877159 385.793578 
L 117.877159 330.655117 
L 100.014717 330.655117 
z
" clip-path="url(#pe237af4f8e)" style="fill: #cbd5e1; stroke: #ffffff; stroke-linejoin: miter"/>
   </g>
   <g id="patch_10">
    <path d="M 117.877159 385.793578 
L 135.7396 385.793578 
L 135.7396 380.378194 
L 117.877159 380.378194 
z
" clip-path="url(#pe237af4f8e)" style="fill: #cbd5e1; stroke: #ffffff; stroke-linejoin: miter"/>
   </g>
   <g id="patch_11">
    <path d="M 135.7396 385.793578 
L 153.602041 385.793578 
L 153.602041 379.885886 
L 135.7396 379.885886 
z
" clip-path="url(#pe237af4f8e)" style="fill: #cbd5e1; stroke: #ffffff; stroke-linejoin: miter"/>
   </g>
   <g id="patch_12">
    <path d="M 153.602041 385.793578 
L 171.464483 385.793578 
L 171.464483 366.593578 
L 153.602041 366.593578 
z
" clip-path="url(#pe237af4f8e)" style="fill: #cbd5e1; stroke: #ffffff; stroke-linejoin: miter"/>
   </g>
   <g id="patch_13">
    <path d="M 171.464483 385.793578 
L 189.326924 385.793578 
L 189.326924 360.685886 
L 171.464483 360.685886 
z
" clip-path="url(#pe237af4f8e)" style="fill: #cbd5e1; stroke: #ffffff; stroke-linejoin: miter"/>
   </g>
   <g id="patch_14">
    <path d="M 189.326924 385.793578 
L 207.189366 385.793578 
L 207.189366 359.70127 
L 189.326924 359.70127 
z
" clip-path="url(#pe237af4f8e)" style="fill: #cbd5e1; stroke: #ffffff; stroke-linejoin: miter"/>
   </g>
   <g id="patch_15">
    <path d="M 207.189366 385.793578 
L 225.051807 385.793578 
L 225.051807 372.50127 
L 207.189366 372.50127 
z
" clip-path="url(#pe237af4f8e)" style="fill: #cbd5e1; stroke: #ffffff; stroke-linejoin: miter"/>
   </g>
   <g id="patch_16">
    <path d="M 225.051807 385.793578 
L 242.914248 385.793578 
L 242.914248 380.870501 
L 225.051807 380.870501 
z
" clip-path="url(#pe237af4f8e)" style="fill: #cbd5e1; stroke: #ffffff; stroke-linejoin: miter"/>
   </g>
   <g id="patch_17">
    <path d="M 242.914248 385.793578 
L 260.77669 385.793578 
L 260.77669 384.316655 
L 242.914248 384.316655 
z
" clip-path="url(#pe237af4f8e)" style="fill: #cbd5e1; stroke: #ffffff; stroke-linejoin: miter"/>
   </g>
   <g id="patch_18">
    <path d="M 260.77669 385.793578 
L 278.639131 385.793578 
L 278.639131 385.793578 
L 260.77669 385.793578 
z
" clip-path="url(#pe237af4f8e)" style="fill: #cbd5e1; stroke: #ffffff; stroke-linejoin: miter"/>
   </g>
   <g id="patch_19">
    <path d="M 278.639131 385.793578 
L 296.501573 385.793578 
L 296.501573 385.793578 
L 278.639131 385.793578 
z
" clip-path="url(#pe237af4f8e)" style="fill: #cbd5e1; stroke: #ffffff; stroke-linejoin: miter"/>
   </g>
   <g id="patch_20">
    <path d="M 296.501573 385.793578 
L 314.364014 385.793578 
L 314.364014 385.30127 
L 296.501573 385.30127 
z
" clip-path="url(#pe237af4f8e)" style="fill: #cbd5e1; stroke: #ffffff; stroke-linejoin: miter"/>
   </g>
   <g id="patch_21">
    <path d="M 314.364014 385.793578 
L 332.226455 385.793578 
L 332.226455 384.316655 
L 314.364014 384.316655 
z
" clip-path="url(#pe237af4f8e)" style="fill: #cbd5e1; stroke: #ffffff; stroke-linejoin: miter"/>
   </g>
   <g id="patch_22">
    <path d="M 332.226455 385.793578 
L 350.088897 385.793578 
L 350.088897 385.30127 
L 332.226455 385.30127 
z
" clip-path="url(#pe237af4f8e)" style="fill: #cbd5e1; stroke: #ffffff; stroke-linejoin: miter"/>
   </g>
   <g id="patch_23">
    <path d="M 350.088897 385.793578 
L 367.951338 385.793578 
L 367.951338 384.808963 
L 350.088897 384.808963 
z
" clip-path="url(#pe237af4f8e)" style="fill: #cbd5e1; stroke: #ffffff; stroke-linejoin: miter"/>
   </g>
   <g id="patch_24">
    <path d="M 367.951338 385.793578 
L 385.813779 385.793578 
L 385.813779 381.855117 
L 367.951338 381.855117 
z
" clip-path="url(#pe237af4f8e)" style="fill: #cbd5e1; stroke: #ffffff; stroke-linejoin: miter"/>
   </g>
   <g id="patch_25">
    <path d="M 385.813779 385.793578 
L 403.676221 385.793578 
L 403.676221 380.870501 
L 385.813779 380.870501 
z
" clip-path="url(#pe237af4f8e)" style="fill: #cbd5e1; stroke: #ffffff; stroke-linejoin: miter"/>
   </g>
   <g id="patch_26">
    <path d="M 403.676221 385.793578 
L 421.538662 385.793578 
L 421.538662 380.378194 
L 403.676221 380.378194 
z
" clip-path="url(#pe237af4f8e)" style="fill: #cbd5e1; stroke: #ffffff; stroke-linejoin: miter"/>
   </g>
   <g id="patch_27">
    <path d="M 421.538662 385.793578 
L 439.401104 385.793578 
L 439.401104 381.855117 
L 421.538662 381.855117 
z
" clip-path="url(#pe237af4f8e)" style="fill: #cbd5e1; stroke: #ffffff; stroke-linejoin: miter"/>
   </g>
   <g id="patch_28">
    <path d="M 439.401104 385.793578 
L 457.263545 385.793578 
L 457.263545 381.855117 
L 439.401104 381.855117 
z
" clip-path="url(#pe237af4f8e)" style="fill: #cbd5e1; stroke: #ffffff; stroke-linejoin: miter"/>
   </g>
   <g id="patch_29">
    <path d="M 457.263545 385.793578 
L 475.125986 385.793578 
L 475.125986 375.947424 
L 457.263545 375.947424 
z
" clip-path="url(#pe237af4f8e)" style="fill: #cbd5e1; stroke: #ffffff; stroke-linejoin: miter"/>
   </g>
   <g id="patch_30">
    <path d="M 475.125986 385.793578 
L 492.988428 385.793578 
L 492.988428 380.378194 
L 475.125986 380.378194 
z
" clip-path="url(#pe237af4f8e)" style="fill: #cbd5e1; stroke: #ffffff; stroke-linejoin: miter"/>
   </g>
   <g id="patch_31">
    <path d="M 492.988428 385.793578 
L 510.850869 385.793578 
L 510.850869 381.362809 
L 492.988428 381.362809 
z
" clip-path="url(#pe237af4f8e)" style="fill: #cbd5e1; stroke: #ffffff; stroke-linejoin: miter"/>
   </g>
   <g id="patch_32">
    <path d="M 510.850869 385.793578 
L 528.713311 385.793578 
L 528.713311 382.347424 
L 510.850869 382.347424 
z
" clip-path="url(#pe237af4f8e)" style="fill: #cbd5e1; stroke: #ffffff; stroke-linejoin: miter"/>
   </g>
   <g id="patch_33">
    <path d="M 528.713311 385.793578 
L 546.575752 385.793578 
L 546.575752 383.33204 
L 528.713311 383.33204 
z
" clip-path="url(#pe237af4f8e)" style="fill: #cbd5e1; stroke: #ffffff; stroke-linejoin: miter"/>
   </g>
   <g id="patch_34">
    <path d="M 546.575752 385.793578 
L 564.438193 385.793578 
L 564.438193 384.808963 
L 546.575752 384.808963 
z
" clip-path="url(#pe237af4f8e)" style="fill: #cbd5e1; stroke: #ffffff; stroke-linejoin: miter"/>
   </g>
   <g id="patch_35">
    <path d="M 564.438193 385.793578 
L 582.300635 385.793578 
L 582.300635 383.824347 
L 564.438193 383.824347 
z
" clip-path="url(#pe237af4f8e)" style="fill: #cbd5e1; stroke: #ffffff; stroke-linejoin: miter"/>
   </g>
   <g id="matplotlib.axis_3">
    <g id="xtick_7">
     <g id="line2d_32">
      <path d="M 73.724997 385.793578 
L 73.724997 317.559732 
" clip-path="url(#pe237af4f8e)" style="fill: none; stroke: #94a3b8; stroke-opacity: 0.22; stroke-width: 0.8; stroke-linecap: square"/>
     </g>
     <g id="line2d_33">
      <g>
       <use xlink:href="#m016134b959" x="73.724997" y="385.793578" style="fill: #475569; stroke: #475569; stroke-width: 0.8"/>
      </g>
     </g>
     <g id="text_13">
      <!-- 0 -->
      <g style="fill: #475569" transform="translate(70.225622 401.151859) scale(0.11 -0.11)">
       <use xlink:href="#DejaVuSans-30"/>
      </g>
     </g>
    </g>
    <g id="xtick_8">
     <g id="line2d_34">
      <path d="M 194.650617 385.793578 
L 194.650617 317.559732 
" clip-path="url(#pe237af4f8e)" style="fill: none; stroke: #94a3b8; stroke-opacity: 0.22; stroke-width: 0.8; stroke-linecap: square"/>
     </g>
     <g id="line2d_35">
      <g>
       <use xlink:href="#m016134b959" x="194.650617" y="385.793578" style="fill: #475569; stroke: #475569; stroke-width: 0.8"/>
      </g>
     </g>
     <g id="text_14">
      <!-- 1000 -->
      <g style="fill: #475569" transform="translate(180.653117 401.151859) scale(0.11 -0.11)">
       <use xlink:href="#DejaVuSans-31"/>
       <use xlink:href="#DejaVuSans-30" x="63.623047"/>
       <use xlink:href="#DejaVuSans-30" x="127.246094"/>
       <use xlink:href="#DejaVuSans-30" x="190.869141"/>
      </g>
     </g>
    </g>
    <g id="xtick_9">
     <g id="line2d_36">
      <path d="M 315.576237 385.793578 
L 315.576237 317.559732 
" clip-path="url(#pe237af4f8e)" style="fill: none; stroke: #94a3b8; stroke-opacity: 0.22; stroke-width: 0.8; stroke-linecap: square"/>
     </g>
     <g id="line2d_37">
      <g>
       <use xlink:href="#m016134b959" x="315.576237" y="385.793578" style="fill: #475569; stroke: #475569; stroke-width: 0.8"/>
      </g>
     </g>
     <g id="text_15">
      <!-- 2000 -->
      <g style="fill: #475569" transform="translate(301.578737 401.151859) scale(0.11 -0.11)">
       <use xlink:href="#DejaVuSans-32"/>
       <use xlink:href="#DejaVuSans-30" x="63.623047"/>
       <use xlink:href="#DejaVuSans-30" x="127.246094"/>
       <use xlink:href="#DejaVuSans-30" x="190.869141"/>
      </g>
     </g>
    </g>
    <g id="xtick_10">
     <g id="line2d_38">
      <path d="M 436.501857 385.793578 
L 436.501857 317.559732 
" clip-path="url(#pe237af4f8e)" style="fill: none; stroke: #94a3b8; stroke-opacity: 0.22; stroke-width: 0.8; stroke-linecap: square"/>
     </g>
     <g id="line2d_39">
      <g>
       <use xlink:href="#m016134b959" x="436.501857" y="385.793578" style="fill: #475569; stroke: #475569; stroke-width: 0.8"/>
      </g>
     </g>
     <g id="text_16">
      <!-- 3000 -->
      <g style="fill: #475569" transform="translate(422.504357 401.151859) scale(0.11 -0.11)">
       <use xlink:href="#DejaVuSans-33"/>
       <use xlink:href="#DejaVuSans-30" x="63.623047"/>
       <use xlink:href="#DejaVuSans-30" x="127.246094"/>
       <use xlink:href="#DejaVuSans-30" x="190.869141"/>
      </g>
     </g>
    </g>
    <g id="xtick_11">
     <g id="line2d_40">
      <path d="M 557.427477 385.793578 
L 557.427477 317.559732 
" clip-path="url(#pe237af4f8e)" style="fill: none; stroke: #94a3b8; stroke-opacity: 0.22; stroke-width: 0.8; stroke-linecap: square"/>
     </g>
     <g id="line2d_41">
      <g>
       <use xlink:href="#m016134b959" x="557.427477" y="385.793578" style="fill: #475569; stroke: #475569; stroke-width: 0.8"/>
      </g>
     </g>
     <g id="text_17">
      <!-- 4000 -->
      <g style="fill: #475569" transform="translate(543.429977 401.151859) scale(0.11 -0.11)">
       <use xlink:href="#DejaVuSans-34"/>
       <use xlink:href="#DejaVuSans-30" x="63.623047"/>
       <use xlink:href="#DejaVuSans-30" x="127.246094"/>
       <use xlink:href="#DejaVuSans-30" x="190.869141"/>
      </g>
     </g>
    </g>
    <g id="xtick_12">
     <g id="line2d_42">
      <path d="M 678.353097 385.793578 
L 678.353097 317.559732 
" clip-path="url(#pe237af4f8e)" style="fill: none; stroke: #94a3b8; stroke-opacity: 0.22; stroke-width: 0.8; stroke-linecap: square"/>
     </g>
     <g id="line2d_43">
      <g>
       <use xlink:href="#m016134b959" x="678.353097" y="385.793578" style="fill: #475569; stroke: #475569; stroke-width: 0.8"/>
      </g>
     </g>
     <g id="text_18">
      <!-- 5000 -->
      <g style="fill: #475569" transform="translate(664.355597 401.151859) scale(0.11 -0.11)">
       <use xlink:href="#DejaVuSans-35"/>
       <use xlink:href="#DejaVuSans-30" x="63.623047"/>
       <use xlink:href="#DejaVuSans-30" x="127.246094"/>
       <use xlink:href="#DejaVuSans-30" x="190.869141"/>
      </g>
     </g>
    </g>
    <g id="text_19">
     <!-- Transaction amount ($) -->
     <g style="fill: #334155" transform="translate(315.094609 415.797797) scale(0.11 -0.11)">
      <defs>
       <path id="DejaVuSans-54" d="M -19 4666 
L 3928 4666 
L 3928 4134 
L 2272 4134 
L 2272 0 
L 1638 0 
L 1638 4134 
L -19 4134 
L -19 4666 
z
" transform="scale(0.015625)"/>
       <path id="DejaVuSans-28" d="M 1984 4856 
Q 1566 4138 1362 3434 
Q 1159 2731 1159 2009 
Q 1159 1288 1364 580 
Q 1569 -128 1984 -844 
L 1484 -844 
Q 1016 -109 783 600 
Q 550 1309 550 2009 
Q 550 2706 781 3412 
Q 1013 4119 1484 4856 
L 1984 4856 
z
" transform="scale(0.015625)"/>
       <path id="DejaVuSans-24" d="M 2163 -941 
L 1850 -941 
L 1847 0 
Q 1519 6 1191 76 
Q 863 147 531 288 
L 531 850 
Q 850 650 1176 548 
Q 1503 447 1850 444 
L 1850 1869 
Q 1159 1981 845 2250 
Q 531 2519 531 2988 
Q 531 3497 872 3790 
Q 1213 4084 1850 4128 
L 1850 4863 
L 2163 4863 
L 2163 4138 
Q 2453 4125 2725 4076 
Q 2997 4028 3256 3944 
L 3256 3397 
Q 2997 3528 2723 3600 
Q 2450 3672 2163 3684 
L 2163 2350 
Q 2872 2241 3206 1959 
Q 3541 1678 3541 1191 
Q 3541 663 3186 358 
Q 2831 53 2163 6 
L 2163 -941 
z
M 1850 2406 
L 1850 3688 
Q 1488 3647 1297 3481 
Q 1106 3316 1106 3041 
Q 1106 2772 1282 2622 
Q 1459 2472 1850 2406 
z
M 2163 1806 
L 2163 453 
Q 2559 506 2761 678 
Q 2963 850 2963 1131 
Q 2963 1406 2770 1568 
Q 2578 1731 2163 1806 
z
" transform="scale(0.015625)"/>
       <path id="DejaVuSans-29" d="M 513 4856 
L 1013 4856 
Q 1481 4119 1714 3412 
Q 1947 2706 1947 2009 
Q 1947 1309 1714 600 
Q 1481 -109 1013 -844 
L 513 -844 
Q 928 -128 1133 580 
Q 1338 1288 1338 2009 
Q 1338 2731 1133 3434 
Q 928 4138 513 4856 
z
" transform="scale(0.015625)"/>
      </defs>
      <use xlink:href="#DejaVuSans-54"/>
      <use xlink:href="#DejaVuSans-72" x="46.333984"/>
      <use xlink:href="#DejaVuSans-61" x="87.447266"/>
      <use xlink:href="#DejaVuSans-6e" x="148.726562"/>
      <use xlink:href="#DejaVuSans-73" x="212.105469"/>
      <use xlink:href="#DejaVuSans-61" x="264.205078"/>
      <use xlink:href="#DejaVuSans-63" x="325.484375"/>
      <use xlink:href="#DejaVuSans-74" x="380.464844"/>
      <use xlink:href="#DejaVuSans-69" x="419.673828"/>
      <use xlink:href="#DejaVuSans-6f" x="447.457031"/>
      <use xlink:href="#DejaVuSans-6e" x="508.638672"/>
      <use xlink:href="#DejaVuSans-20" x="572.017578"/>
      <use xlink:href="#DejaVuSans-61" x="603.804688"/>
      <use xlink:href="#DejaVuSans-6d" x="665.083984"/>
      <use xlink:href="#DejaVuSans-6f" x="762.496094"/>
      <use xlink:href="#DejaVuSans-75" x="823.677734"/>
      <use xlink:href="#DejaVuSans-6e" x="887.056641"/>
      <use xlink:href="#DejaVuSans-74" x="950.435547"/>
      <use xlink:href="#DejaVuSans-20" x="989.644531"/>
      <use xlink:href="#DejaVuSans-28" x="1021.431641"/>
      <use xlink:href="#DejaVuSans-24" x="1060.445312"/>
      <use xlink:href="#DejaVuSans-29" x="1124.068359"/>
     </g>
    </g>
   </g>
   <g id="matplotlib.axis_4">
    <g id="ytick_10">
     <g id="line2d_44">
      <path d="M 49.842188 385.793578 
L 708.282187 385.793578 
" clip-path="url(#pe237af4f8e)" style="fill: none; stroke: #94a3b8; stroke-opacity: 0.22; stroke-width: 0.8; stroke-linecap: square"/>
     </g>
     <g id="line2d_45">
      <g>
       <use xlink:href="#me6066bbe20" x="49.842188" y="385.793578" style="fill: #475569; stroke: #475569; stroke-width: 0.8"/>
      </g>
     </g>
     <g id="text_20">
      <!-- 0 -->
      <g style="fill: #475569" transform="translate(35.843438 389.972719) scale(0.11 -0.11)">
       <use xlink:href="#DejaVuSans-30"/>
      </g>
     </g>
    </g>
    <g id="ytick_11">
     <g id="line2d_46">
      <path d="M 49.842188 361.178194 
L 708.282187 361.178194 
" clip-path="url(#pe237af4f8e)" style="fill: none; stroke: #94a3b8; stroke-opacity: 0.22; stroke-width: 0.8; stroke-linecap: square"/>
     </g>
     <g id="line2d_47">
      <g>
       <use xlink:href="#me6066bbe20" x="49.842188" y="361.178194" style="fill: #475569; stroke: #475569; stroke-width: 0.8"/>
      </g>
     </g>
     <g id="text_21">
      <!-- 50 -->
      <g style="fill: #475569" transform="translate(28.844688 365.357334) scale(0.11 -0.11)">
       <use xlink:href="#DejaVuSans-35"/>
       <use xlink:href="#DejaVuSans-30" x="63.623047"/>
      </g>
     </g>
    </g>
    <g id="ytick_12">
     <g id="line2d_48">
      <path d="M 49.842188 336.562809 
L 708.282187 336.562809 
" clip-path="url(#pe237af4f8e)" style="fill: none; stroke: #94a3b8; stroke-opacity: 0.22; stroke-width: 0.8; stroke-linecap: square"/>
     </g>
     <g id="line2d_49">
      <g>
       <use xlink:href="#me6066bbe20" x="49.842188" y="336.562809" style="fill: #475569; stroke: #475569; stroke-width: 0.8"/>
      </g>
     </g>
     <g id="text_22">
      <!-- 100 -->
      <g style="fill: #475569" transform="translate(21.845938 340.74195) scale(0.11 -0.11)">
       <use xlink:href="#DejaVuSans-31"/>
       <use xlink:href="#DejaVuSans-30" x="63.623047"/>
       <use xlink:href="#DejaVuSans-30" x="127.246094"/>
      </g>
     </g>
    </g>
    <g id="text_23">
     <!-- Rows -->
     <g style="fill: #334155" transform="translate(15.558281 365.979233) rotate(-90) scale(0.11 -0.11)">
      <defs>
       <path id="DejaVuSans-52" d="M 2841 2188 
Q 3044 2119 3236 1894 
Q 3428 1669 3622 1275 
L 4263 0 
L 3584 0 
L 2988 1197 
Q 2756 1666 2539 1819 
Q 2322 1972 1947 1972 
L 1259 1972 
L 1259 0 
L 628 0 
L 628 4666 
L 2053 4666 
Q 2853 4666 3247 4331 
Q 3641 3997 3641 3322 
Q 3641 2881 3436 2590 
Q 3231 2300 2841 2188 
z
M 1259 4147 
L 1259 2491 
L 2053 2491 
Q 2509 2491 2742 2702 
Q 2975 2913 2975 3322 
Q 2975 3731 2742 3939 
Q 2509 4147 2053 4147 
L 1259 4147 
z
" transform="scale(0.015625)"/>
      </defs>
      <use xlink:href="#DejaVuSans-52"/>
      <use xlink:href="#DejaVuSans-6f" x="64.982422"/>
      <use xlink:href="#DejaVuSans-77" x="126.164062"/>
      <use xlink:href="#DejaVuSans-73" x="207.951172"/>
     </g>
    </g>
   </g>
   <g id="patch_36">
    <path d="M 49.842188 385.793578 
L 49.842188 317.559732 
" style="fill: none; stroke: #94a3b8; stroke-width: 0.8; stroke-linejoin: miter; stroke-linecap: square"/>
   </g>
   <g id="patch_37">
    <path d="M 49.842188 385.793578 
L 708.282187 385.793578 
" style="fill: none; stroke: #94a3b8; stroke-width: 0.8; stroke-linejoin: miter; stroke-linecap: square"/>
   </g>
   <g id="text_24">
    <!-- Bottom histogram = data density -->
    <g style="fill: #475569" transform="translate(519.075966 329.841824) scale(0.105 -0.105)">
     <defs>
      <path id="DejaVuSans-42" d="M 1259 2228 
L 1259 519 
L 2272 519 
Q 2781 519 3026 730 
Q 3272 941 3272 1375 
Q 3272 1813 3026 2020 
Q 2781 2228 2272 2228 
L 1259 2228 
z
M 1259 4147 
L 1259 2741 
L 2194 2741 
Q 2656 2741 2882 2914 
Q 3109 3088 3109 3444 
Q 3109 3797 2882 3972 
Q 2656 4147 2194 4147 
L 1259 4147 
z
M 628 4666 
L 2241 4666 
Q 2963 4666 3353 4366 
Q 3744 4066 3744 3513 
Q 3744 3084 3544 2831 
Q 3344 2578 2956 2516 
Q 3422 2416 3680 2098 
Q 3938 1781 3938 1306 
Q 3938 681 3513 340 
Q 3088 0 2303 0 
L 628 0 
L 628 4666 
z
" transform="scale(0.015625)"/>
      <path id="DejaVuSans-3d" d="M 678 2906 
L 4684 2906 
L 4684 2381 
L 678 2381 
L 678 2906 
z
M 678 1631 
L 4684 1631 
L 4684 1100 
L 678 1100 
L 678 1631 
z
" transform="scale(0.015625)"/>
      <path id="DejaVuSans-79" d="M 2059 -325 
Q 1816 -950 1584 -1140 
Q 1353 -1331 966 -1331 
L 506 -1331 
L 506 -850 
L 844 -850 
Q 1081 -850 1212 -737 
Q 1344 -625 1503 -206 
L 1606 56 
L 191 3500 
L 800 3500 
L 1894 763 
L 2988 3500 
L 3597 3500 
L 2059 -325 
z
" transform="scale(0.015625)"/>
     </defs>
     <use xlink:href="#DejaVuSans-42"/>
     <use xlink:href="#DejaVuSans-6f" x="68.603516"/>
     <use xlink:href="#DejaVuSans-74" x="129.785156"/>
     <use xlink:href="#DejaVuSans-74" x="168.994141"/>
     <use xlink:href="#DejaVuSans-6f" x="208.203125"/>
     <use xlink:href="#DejaVuSans-6d" x="269.384766"/>
     <use xlink:href="#DejaVuSans-20" x="366.796875"/>
     <use xlink:href="#DejaVuSans-68" x="398.583984"/>
     <use xlink:href="#DejaVuSans-69" x="461.962891"/>
     <use xlink:href="#DejaVuSans-73" x="489.746094"/>
     <use xlink:href="#DejaVuSans-74" x="541.845703"/>
     <use xlink:href="#DejaVuSans-6f" x="581.054688"/>
     <use xlink:href="#DejaVuSans-67" x="642.236328"/>
     <use xlink:href="#DejaVuSans-72" x="705.712891"/>
     <use xlink:href="#DejaVuSans-61" x="746.826172"/>
     <use xlink:href="#DejaVuSans-6d" x="808.105469"/>
     <use xlink:href="#DejaVuSans-20" x="905.517578"/>
     <use xlink:href="#DejaVuSans-3d" x="937.304688"/>
     <use xlink:href="#DejaVuSans-20" x="1021.09375"/>
     <use xlink:href="#DejaVuSans-64" x="1052.880859"/>
     <use xlink:href="#DejaVuSans-61" x="1116.357422"/>
     <use xlink:href="#DejaVuSans-74" x="1177.636719"/>
     <use xlink:href="#DejaVuSans-61" x="1216.845703"/>
     <use xlink:href="#DejaVuSans-20" x="1278.125"/>
     <use xlink:href="#DejaVuSans-64" x="1309.912109"/>
     <use xlink:href="#DejaVuSans-65" x="1373.388672"/>
     <use xlink:href="#DejaVuSans-6e" x="1434.912109"/>
     <use xlink:href="#DejaVuSans-73" x="1498.291016"/>
     <use xlink:href="#DejaVuSans-69" x="1550.390625"/>
     <use xlink:href="#DejaVuSans-74" x="1578.173828"/>
     <use xlink:href="#DejaVuSans-79" x="1617.382812"/>
    </g>
   </g>
  </g>
 </g>
 <defs>
  <clipPath id="p9e75c7f7f2">
   <rect x="49.842188" y="30.977578" width="658.44" height="272.935385"/>
  </clipPath>
  <clipPath id="pe237af4f8e">
   <rect x="49.842188" y="317.559732" width="658.44" height="68.233846"/>
  </clipPath>
 </defs>
</svg>
