<?xml version="1.0" encoding="utf-8" standalone="no"?>
<!DOCTYPE svg PUBLIC "-//W3C//DTD SVG 1.1//EN"
  "http://www.w3.org/Graphics/SVG/1.1/DTD/svg11.dtd">
<svg xmlns:xlink="http://www.w3.org/1999/xlink" width="743.517031pt" height="467.637453pt" viewBox="0 0 743.517031 467.637453" xmlns="http://www.w3.org/2000/svg" version="1.1">
 <metadata>
  <rdf:RDF xmlns:dc="http://purl.org/dc/elements/1.1/" xmlns:cc="http://creativecommons.org/ns#" xmlns:rdf="http://www.w3.org/1999/02/22-rdf-syntax-ns#">
   <cc:Work>
    <dc:type rdf:resource="http://purl.org/dc/dcmitype/StillImage"/>
    <dc:date>2026-03-20T01:55:32.114035</dc:date>
    <dc:format>image/svg+xml</dc:format>
    <dc:creator>
     <cc:Agent>
      <dc:title>Matplotlib v3.9.0, https://matplotlib.org/</dc:title>
     </cc:Agent>
    </dc:creator>
   </cc:Work>
  </rdf:RDF>
 </metadata>
 <defs>
  <style type="text/css">*{stroke-linejoin: round; stroke-linecap: butt}</style>
 </defs>
 <g id="figure_1">
  <g id="patch_1">
   <path d="M 0 467.637453 
L 743.517031 467.637453 
L 743.517031 0 
L 0 0 
z
" style="fill: #ffffff"/>
  </g>
  <g id="axes_1">
   <g id="patch_2">
    <path d="M 55.557031 121.807346 
L 736.317031 121.807346 
L 736.317031 28.977578 
L 55.557031 28.977578 
z
" style="fill: #ffffff"/>
   </g>
   <g id="matplotlib.axis_1">
    <g id="xtick_1">
     <g id="line2d_1">
      <path d="M 86.500668 121.807346 
L 86.500668 28.977578 
" clip-path="url(#pd0df71deeb)" style="fill: none; stroke: #94a3b8; stroke-opacity: 0.18; stroke-width: 0.8; stroke-linecap: square"/>
     </g>
     <g id="line2d_2">
      <defs>
       <path id="m67656dd05b" d="M 0 0 
L 0 3.5 
" style="stroke: #475569; stroke-width: 0.8"/>
      </defs>
      <g>
       <use xlink:href="#m67656dd05b" x="86.500668" y="121.807346" style="fill: #475569; stroke: #475569; stroke-width: 0.8"/>
      </g>
     </g>
    </g>
    <g id="xtick_2">
     <g id="line2d_3">
      <path d="M 190.512891 121.807346 
L 190.512891 28.977578 
" clip-path="url(#pd0df71deeb)" style="fill: none; stroke: #94a3b8; stroke-opacity: 0.18; stroke-width: 0.8; stroke-linecap: square"/>
     </g>
     <g id="line2d_4">
      <g>
       <use xlink:href="#m67656dd05b" x="190.512891" y="121.807346" style="fill: #475569; stroke: #475569; stroke-width: 0.8"/>
      </g>
     </g>
    </g>
    <g id="xtick_3">
     <g id="line2d_5">
      <path d="M 294.525114 121.807346 
L 294.525114 28.977578 
" clip-path="url(#pd0df71deeb)" style="fill: none; stroke: #94a3b8; stroke-opacity: 0.18; stroke-width: 0.8; stroke-linecap: square"/>
     </g>
     <g id="line2d_6">
      <g>
       <use xlink:href="#m67656dd05b" x="294.525114" y="121.807346" style="fill: #475569; stroke: #475569; stroke-width: 0.8"/>
      </g>
     </g>
    </g>
    <g id="xtick_4">
     <g id="line2d_7">
      <path d="M 398.537337 121.807346 
L 398.537337 28.977578 
" clip-path="url(#pd0df71deeb)" style="fill: none; stroke: #94a3b8; stroke-opacity: 0.18; stroke-width: 0.8; stroke-linecap: square"/>
     </g>
     <g id="line2d_8">
      <g>
       <use xlink:href="#m67656dd05b" x="398.537337" y="121.807346" style="fill: #475569; stroke: #475569; stroke-width: 0.8"/>
      </g>
     </g>
    </g>
    <g id="xtick_5">
     <g id="line2d_9">
      <path d="M 502.54956 121.807346 
L 502.54956 28.977578 
" clip-path="url(#pd0df71deeb)" style="fill: none; stroke: #94a3b8; stroke-opacity: 0.18; stroke-width: 0.8; stroke-linecap: square"/>
     </g>
     <g id="line2d_10">
      <g>
       <use xlink:href="#m67656dd05b" x="502.54956" y="121.807346" style="fill: #475569; stroke: #475569; stroke-width: 0.8"/>
      </g>
     </g>
    </g>
    <g id="xtick_6">
     <g id="line2d_11">
      <path d="M 606.561783 121.807346 
L 606.561783 28.977578 
" clip-path="url(#pd0df71deeb)" style="fill: none; stroke: #94a3b8; stroke-opacity: 0.18; stroke-width: 0.8; stroke-linecap: square"/>
     </g>
     <g id="line2d_12">
      <g>
       <use xlink:href="#m67656dd05b" x="606.561783" y="121.807346" style="fill: #475569; stroke: #475569; stroke-width: 0.8"/>
      </g>
     </g>
    </g>
    <g id="xtick_7">
     <g id="line2d_13">
      <path d="M 710.574006 121.807346 
L 710.574006 28.977578 
" clip-path="url(#pd0df71deeb)" style="fill: none; stroke: #94a3b8; stroke-opacity: 0.18; stroke-width: 0.8; stroke-linecap: square"/>
     </g>
     <g id="line2d_14">
      <g>
       <use xlink:href="#m67656dd05b" x="710.574006" y="121.807346" style="fill: #475569; stroke: #475569; stroke-width: 0.8"/>
      </g>
     </g>
    </g>
   </g>
   <g id="matplotlib.axis_2">
    <g id="ytick_1">
     <g id="line2d_15">
      <path d="M 55.557031 106.414186 
L 736.317031 106.414186 
" clip-path="url(#pd0df71deeb)" style="fill: none; stroke: #94a3b8; stroke-opacity: 0.18; stroke-width: 0.8; stroke-linecap: square"/>
     </g>
     <g id="line2d_16">
      <defs>
       <path id="m5f30ce3abb" d="M 0 0 
L -3.5 0 
" style="stroke: #475569; stroke-width: 0.8"/>
      </defs>
      <g>
       <use xlink:href="#m5f30ce3abb" x="55.557031" y="106.414186" style="fill: #475569; stroke: #475569; stroke-width: 0.8"/>
      </g>
     </g>
     <g id="text_1">
      <!-- 60 -->
      <g style="fill: #475569" transform="translate(34.559531 110.593327) scale(0.11 -0.11)">
       <defs>
        <path id="DejaVuSans-36" d="M 2113 2584 
Q 1688 2584 1439 2293 
Q 1191 2003 1191 1497 
Q 1191 994 1439 701 
Q 1688 409 2113 409 
Q 2538 409 2786 701 
Q 3034 994 3034 1497 
Q 3034 2003 2786 2293 
Q 2538 2584 2113 2584 
z
M 3366 4563 
L 3366 3988 
Q 3128 4100 2886 4159 
Q 2644 4219 2406 4219 
Q 1781 4219 1451 3797 
Q 1122 3375 1075 2522 
Q 1259 2794 1537 2939 
Q 1816 3084 2150 3084 
Q 2853 3084 3261 2657 
Q 3669 2231 3669 1497 
Q 3669 778 3244 343 
Q 2819 -91 2113 -91 
Q 1303 -91 875 529 
Q 447 1150 447 2328 
Q 447 3434 972 4092 
Q 1497 4750 2381 4750 
Q 2619 4750 2861 4703 
Q 3103 4656 3366 4563 
z
" transform="scale(0.015625)"/>
        <path id="DejaVuSans-30" d="M 2034 4250 
Q 1547 4250 1301 3770 
Q 1056 3291 1056 2328 
Q 1056 1369 1301 889 
Q 1547 409 2034 409 
Q 2525 409 2770 889 
Q 3016 1369 3016 2328 
Q 3016 3291 2770 3770 
Q 2525 4250 2034 4250 
z
M 2034 4750 
Q 2819 4750 3233 4129 
Q 3647 3509 3647 2328 
Q 3647 1150 3233 529 
Q 2819 -91 2034 -91 
Q 1250 -91 836 529 
Q 422 1150 422 2328 
Q 422 3509 836 4129 
Q 1250 4750 2034 4750 
z
" transform="scale(0.015625)"/>
       </defs>
       <use xlink:href="#DejaVuSans-36"/>
       <use xlink:href="#DejaVuSans-30" x="63.623047"/>
      </g>
     </g>
    </g>
    <g id="ytick_2">
     <g id="line2d_17">
      <path d="M 55.557031 73.676183 
L 736.317031 73.676183 
" clip-path="url(#pd0df71deeb)" style="fill: none; stroke: #94a3b8; stroke-opacity: 0.18; stroke-width: 0.8; stroke-linecap: square"/>
     </g>
     <g id="line2d_18">
      <g>
       <use xlink:href="#m5f30ce3abb" x="55.557031" y="73.676183" style="fill: #475569; stroke: #475569; stroke-width: 0.8"/>
      </g>
     </g>
     <g id="text_2">
      <!-- 80 -->
      <g style="fill: #475569" transform="translate(34.559531 77.855324) scale(0.11 -0.11)">
       <defs>
        <path id="DejaVuSans-38" d="M 2034 2216 
Q 1584 2216 1326 1975 
Q 1069 1734 1069 1313 
Q 1069 891 1326 650 
Q 1584 409 2034 409 
Q 2484 409 2743 651 
Q 3003 894 3003 1313 
Q 3003 1734 2745 1975 
Q 2488 2216 2034 2216 
z
M 1403 2484 
Q 997 2584 770 2862 
Q 544 3141 544 3541 
Q 544 4100 942 4425 
Q 1341 4750 2034 4750 
Q 2731 4750 3128 4425 
Q 3525 4100 3525 3541 
Q 3525 3141 3298 2862 
Q 3072 2584 2669 2484 
Q 3125 2378 3379 2068 
Q 3634 1759 3634 1313 
Q 3634 634 3220 271 
Q 2806 -91 2034 -91 
Q 1263 -91 848 271 
Q 434 634 434 1313 
Q 434 1759 690 2068 
Q 947 2378 1403 2484 
z
M 1172 3481 
Q 1172 3119 1398 2916 
Q 1625 2713 2034 2713 
Q 2441 2713 2670 2916 
Q 2900 3119 2900 3481 
Q 2900 3844 2670 4047 
Q 2441 4250 2034 4250 
Q 1625 4250 1398 4047 
Q 1172 3844 1172 3481 
z
" transform="scale(0.015625)"/>
       </defs>
       <use xlink:href="#DejaVuSans-38"/>
       <use xlink:href="#DejaVuSans-30" x="63.623047"/>
      </g>
     </g>
    </g>
    <g id="ytick_3">
     <g id="line2d_19">
      <path d="M 55.557031 40.93818 
L 736.317031 40.93818 
" clip-path="url(#pd0df71deeb)" style="fill: none; stroke: #94a3b8; stroke-opacity: 0.18; stroke-width: 0.8; stroke-linecap: square"/>
     </g>
     <g id="line2d_20">
      <g>
       <use xlink:href="#m5f30ce3abb" x="55.557031" y="40.93818" style="fill: #475569; stroke: #475569; stroke-width: 0.8"/>
      </g>
     </g>
     <g id="text_3">
      <!-- 100 -->
      <g style="fill: #475569" transform="translate(27.560781 45.11732) scale(0.11 -0.11)">
       <defs>
        <path id="DejaVuSans-31" d="M 794 531 
L 1825 531 
L 1825 4091 
L 703 3866 
L 703 4441 
L 1819 4666 
L 2450 4666 
L 2450 531 
L 3481 531 
L 3481 0 
L 794 0 
L 794 531 
z
" transform="scale(0.015625)"/>
       </defs>
       <use xlink:href="#DejaVuSans-31"/>
       <use xlink:href="#DejaVuSans-30" x="63.623047"/>
       <use xlink:href="#DejaVuSans-30" x="127.246094"/>
      </g>
     </g>
    </g>
    <g id="text_4">
     <!-- Observed -->
     <g style="fill: #334155" transform="translate(21.273125 101.855196) rotate(-90) scale(0.11 -0.11)">
      <defs>
       <path id="DejaVuSans-4f" d="M 2522 4238 
Q 1834 4238 1429 3725 
Q 1025 3213 1025 2328 
Q 1025 1447 1429 934 
Q 1834 422 2522 422 
Q 3209 422 3611 934 
Q 4013 1447 4013 2328 
Q 4013 3213 3611 3725 
Q 3209 4238 2522 4238 
z
M 2522 4750 
Q 3503 4750 4090 4092 
Q 4678 3434 4678 2328 
Q 4678 1225 4090 567 
Q 3503 -91 2522 -91 
Q 1538 -91 948 565 
Q 359 1222 359 2328 
Q 359 3434 948 4092 
Q 1538 4750 2522 4750 
z
" transform="scale(0.015625)"/>
       <path id="DejaVuSans-62" d="M 3116 1747 
Q 3116 2381 2855 2742 
Q 2594 3103 2138 3103 
Q 1681 3103 1420 2742 
Q 1159 2381 1159 1747 
Q 1159 1113 1420 752 
Q 1681 391 2138 391 
Q 2594 391 2855 752 
Q 3116 1113 3116 1747 
z
M 1159 2969 
Q 1341 3281 1617 3432 
Q 1894 3584 2278 3584 
Q 2916 3584 3314 3078 
Q 3713 2572 3713 1747 
Q 3713 922 3314 415 
Q 2916 -91 2278 -91 
Q 1894 -91 1617 61 
Q 1341 213 1159 525 
L 1159 0 
L 581 0 
L 581 4863 
L 1159 4863 
L 1159 2969 
z
" transform="scale(0.015625)"/>
       <path id="DejaVuSans-73" d="M 2834 3397 
L 2834 2853 
Q 2591 2978 2328 3040 
Q 2066 3103 1784 3103 
Q 1356 3103 1142 2972 
Q 928 2841 928 2578 
Q 928 2378 1081 2264 
Q 1234 2150 1697 2047 
L 1894 2003 
Q 2506 1872 2764 1633 
Q 3022 1394 3022 966 
Q 3022 478 2636 193 
Q 2250 -91 1575 -91 
Q 1294 -91 989 -36 
Q 684 19 347 128 
L 347 722 
Q 666 556 975 473 
Q 1284 391 1588 391 
Q 1994 391 2212 530 
Q 2431 669 2431 922 
Q 2431 1156 2273 1281 
Q 2116 1406 1581 1522 
L 1381 1569 
Q 847 1681 609 1914 
Q 372 2147 372 2553 
Q 372 3047 722 3315 
Q 1072 3584 1716 3584 
Q 2034 3584 2315 3537 
Q 2597 3491 2834 3397 
z
" transform="scale(0.015625)"/>
       <path id="DejaVuSans-65" d="M 3597 1894 
L 3597 1613 
L 953 1613 
Q 991 1019 1311 708 
Q 1631 397 2203 397 
Q 2534 397 2845 478 
Q 3156 559 3463 722 
L 3463 178 
Q 3153 47 2828 -22 
Q 2503 -91 2169 -91 
Q 1331 -91 842 396 
Q 353 884 353 1716 
Q 353 2575 817 3079 
Q 1281 3584 2069 3584 
Q 2775 3584 3186 3129 
Q 3597 2675 3597 1894 
z
M 3022 2063 
Q 3016 2534 2758 2815 
Q 2500 3097 2075 3097 
Q 1594 3097 1305 2825 
Q 1016 2553 972 2059 
L 3022 2063 
z
" transform="scale(0.015625)"/>
       <path id="DejaVuSans-72" d="M 2631 2963 
Q 2534 3019 2420 3045 
Q 2306 3072 2169 3072 
Q 1681 3072 1420 2755 
Q 1159 2438 1159 1844 
L 1159 0 
L 581 0 
L 581 3500 
L 1159 3500 
L 1159 2956 
Q 1341 3275 1631 3429 
Q 1922 3584 2338 3584 
Q 2397 3584 2469 3576 
Q 2541 3569 2628 3553 
L 2631 2963 
z
" transform="scale(0.015625)"/>
       <path id="DejaVuSans-76" d="M 191 3500 
L 800 3500 
L 1894 563 
L 2988 3500 
L 3597 3500 
L 2284 0 
L 1503 0 
L 191 3500 
z
" transform="scale(0.015625)"/>
       <path id="DejaVuSans-64" d="M 2906 2969 
L 2906 4863 
L 3481 4863 
L 3481 0 
L 2906 0 
L 2906 525 
Q 2725 213 2448 61 
Q 2172 -91 1784 -91 
Q 1150 -91 751 415 
Q 353 922 353 1747 
Q 353 2572 751 3078 
Q 1150 3584 1784 3584 
Q 2172 3584 2448 3432 
Q 2725 3281 2906 2969 
z
M 947 1747 
Q 947 1113 1208 752 
Q 1469 391 1925 391 
Q 2381 391 2643 752 
Q 2906 1113 2906 1747 
Q 2906 2381 2643 2742 
Q 2381 3103 1925 3103 
Q 1469 3103 1208 2742 
Q 947 2381 947 1747 
z
" transform="scale(0.015625)"/>
      </defs>
      <use xlink:href="#DejaVuSans-4f"/>
      <use xlink:href="#DejaVuSans-62" x="78.710938"/>
      <use xlink:href="#DejaVuSans-73" x="142.1875"/>
      <use xlink:href="#DejaVuSans-65" x="194.287109"/>
      <use xlink:href="#DejaVuSans-72" x="255.810547"/>
      <use xlink:href="#DejaVuSans-76" x="296.923828"/>
      <use xlink:href="#DejaVuSans-65" x="356.103516"/>
      <use xlink:href="#DejaVuSans-64" x="417.626953"/>
     </g>
    </g>
   </g>
   <g id="line2d_21">
    <path d="M 86.500668 105.416603 
L 91.701279 99.912284 
L 96.90189 88.733772 
L 102.102501 88.66834 
L 107.303112 102.200671 
L 112.503723 104.345815 
L 117.704335 102.852814 
L 122.904946 107.495251 
L 128.105557 110.784308 
L 133.306168 117.587811 
L 138.506779 112.473104 
L 143.70739 107.488757 
L 148.908001 99.912318 
L 154.108613 86.531524 
L 159.309224 83.37437 
L 164.509835 88.275016 
L 169.710446 88.320458 
L 174.911057 96.936233 
L 180.111668 94.109771 
L 185.31228 100.337687 
L 190.512891 105.048811 
L 195.713502 110.738646 
L 200.914113 105.064024 
L 206.114724 104.255295 
L 211.315335 95.245053 
L 216.515946 85.089005 
L 221.716558 76.876532 
L 226.917169 77.979777 
L 232.11778 81.890774 
L 237.318391 86.100924 
L 242.519002 83.688618 
L 247.719613 95.219065 
L 252.920225 99.834892 
L 258.120836 104.887851 
L 263.321447 100.76409 
L 268.522058 93.76767 
L 273.722669 87.930138 
L 278.92328 80.400998 
L 284.123891 75.032696 
L 289.324503 70.76056 
L 294.525114 74.523016 
L 299.725725 79.447471 
L 304.926336 86.592994 
L 310.126947 86.842797 
L 315.327558 91.490209 
L 320.52817 95.222082 
L 325.728781 93.642103 
L 330.929392 90.445996 
L 336.130003 79.048772 
L 341.330614 71.143556 
L 346.531225 65.101293 
L 351.731836 64.538063 
L 356.932448 75.441022 
L 362.133059 75.986493 
L 367.33367 79.668458 
L 372.534281 83.408708 
L 377.734892 86.487279 
L 382.935503 84.758189 
L 388.136115 93.043849 
L 393.336726 81.722356 
L 398.537337 80.495083 
L 403.737948 66.175447 
L 408.938559 59.229295 
L 414.13917 58.399903 
L 419.339781 62.056474 
L 424.540393 66.056996 
L 429.741004 72.984511 
L 434.941615 76.545101 
L 440.142226 76.49198 
L 445.342837 83.992924 
L 450.543448 88.099936 
L 455.74406 82.316766 
L 460.944671 71.71011 
L 466.145282 57.165799 
L 471.345893 53.010146 
L 476.546504 51.77287 
L 481.747115 59.497931 
L 486.947726 61.849533 
L 492.148338 63.5091 
L 497.348949 69.758495 
L 502.54956 71.519734 
L 507.750171 79.247949 
L 512.950782 78.826463 
L 518.151393 73.570647 
L 523.352005 66.32925 
L 528.552616 50.913456 
L 533.753227 48.727452 
L 538.953838 47.706781 
L 544.154449 50.239626 
L 549.35506 54.621009 
L 554.555671 57.093124 
L 559.756283 62.782482 
L 564.956894 68.115222 
L 570.157505 71.05622 
L 575.358116 76.876197 
L 580.558727 70.772774 
L 585.759338 60.458868 
L 590.95995 49.486797 
L 596.160561 39.596245 
L 601.361172 44.426345 
L 606.561783 46.765827 
L 611.762394 45.543753 
L 616.963005 54.152102 
L 622.163616 53.759885 
L 627.364228 63.500209 
L 632.564839 65.182104 
L 637.76545 68.176687 
L 642.966061 60.859446 
L 648.166672 47.091916 
L 653.367283 45.591216 
L 658.567895 33.197113 
L 663.768506 34.397992 
L 668.969117 41.18723 
L 674.169728 48.245575 
L 679.370339 46.463931 
L 684.57095 51.62212 
L 689.771561 53.3963 
L 694.972173 58.152306 
L 700.172784 53.536903 
L 705.373395 54.247426 
" clip-path="url(#pd0df71deeb)" style="fill: none; stroke: #2563eb; stroke-width: 2; stroke-linecap: square"/>
   </g>
   <g id="patch_3">
    <path d="M 55.557031 121.807346 
L 55.557031 28.977578 
" style="fill: none; stroke: #94a3b8; stroke-width: 0.8; stroke-linejoin: miter; stroke-linecap: square"/>
   </g>
   <g id="patch_4">
    <path d="M 55.557031 121.807346 
L 736.317031 121.807346 
" style="fill: none; stroke: #94a3b8; stroke-width: 0.8; stroke-linejoin: miter; stroke-linecap: square"/>
   </g>
   <g id="text_5">
    <!-- Time-Series Decomposition: Observed Signal = Trend + Seasonality + Noise -->
    <g style="fill: #0f172a" transform="translate(63.759922 18.977578) scale(0.155 -0.155)">
     <defs>
      <path id="DejaVuSans-Bold-54" d="M 31 4666 
L 4331 4666 
L 4331 3756 
L 2784 3756 
L 2784 0 
L 1581 0 
L 1581 3756 
L 31 3756 
L 31 4666 
z
" transform="scale(0.015625)"/>
      <path id="DejaVuSans-Bold-69" d="M 538 3500 
L 1656 3500 
L 1656 0 
L 538 0 
L 538 3500 
z
M 538 4863 
L 1656 4863 
L 1656 3950 
L 538 3950 
L 538 4863 
z
" transform="scale(0.015625)"/>
      <path id="DejaVuSans-Bold-6d" d="M 3781 2919 
Q 3994 3244 4286 3414 
Q 4578 3584 4928 3584 
Q 5531 3584 5847 3212 
Q 6163 2841 6163 2131 
L 6163 0 
L 5038 0 
L 5038 1825 
Q 5041 1866 5042 1909 
Q 5044 1953 5044 2034 
Q 5044 2406 4934 2573 
Q 4825 2741 4581 2741 
Q 4263 2741 4089 2478 
Q 3916 2216 3909 1719 
L 3909 0 
L 2784 0 
L 2784 1825 
Q 2784 2406 2684 2573 
Q 2584 2741 2328 2741 
Q 2006 2741 1831 2477 
Q 1656 2213 1656 1722 
L 1656 0 
L 531 0 
L 531 3500 
L 1656 3500 
L 1656 2988 
Q 1863 3284 2130 3434 
Q 2397 3584 2719 3584 
Q 3081 3584 3359 3409 
Q 3638 3234 3781 2919 
z
" transform="scale(0.015625)"/>
      <path id="DejaVuSans-Bold-65" d="M 4031 1759 
L 4031 1441 
L 1416 1441 
Q 1456 1047 1700 850 
Q 1944 653 2381 653 
Q 2734 653 3104 758 
Q 3475 863 3866 1075 
L 3866 213 
Q 3469 63 3072 -14 
Q 2675 -91 2278 -91 
Q 1328 -91 801 392 
Q 275 875 275 1747 
Q 275 2603 792 3093 
Q 1309 3584 2216 3584 
Q 3041 3584 3536 3087 
Q 4031 2591 4031 1759 
z
M 2881 2131 
Q 2881 2450 2695 2645 
Q 2509 2841 2209 2841 
Q 1884 2841 1681 2658 
Q 1478 2475 1428 2131 
L 2881 2131 
z
" transform="scale(0.015625)"/>
      <path id="DejaVuSans-Bold-2d" d="M 347 2297 
L 2309 2297 
L 2309 1388 
L 347 1388 
L 347 2297 
z
" transform="scale(0.015625)"/>
      <path id="DejaVuSans-Bold-53" d="M 3834 4519 
L 3834 3531 
Q 3450 3703 3084 3790 
Q 2719 3878 2394 3878 
Q 1963 3878 1756 3759 
Q 1550 3641 1550 3391 
Q 1550 3203 1689 3098 
Q 1828 2994 2194 2919 
L 2706 2816 
Q 3484 2659 3812 2340 
Q 4141 2022 4141 1434 
Q 4141 663 3683 286 
Q 3225 -91 2284 -91 
Q 1841 -91 1394 -6 
Q 947 78 500 244 
L 500 1259 
Q 947 1022 1364 901 
Q 1781 781 2169 781 
Q 2563 781 2772 912 
Q 2981 1044 2981 1288 
Q 2981 1506 2839 1625 
Q 2697 1744 2272 1838 
L 1806 1941 
Q 1106 2091 782 2419 
Q 459 2747 459 3303 
Q 459 4000 909 4375 
Q 1359 4750 2203 4750 
Q 2588 4750 2994 4692 
Q 3400 4634 3834 4519 
z
" transform="scale(0.015625)"/>
      <path id="DejaVuSans-Bold-72" d="M 3138 2547 
Q 2991 2616 2845 2648 
Q 2700 2681 2553 2681 
Q 2122 2681 1889 2404 
Q 1656 2128 1656 1613 
L 1656 0 
L 538 0 
L 538 3500 
L 1656 3500 
L 1656 2925 
Q 1872 3269 2151 3426 
Q 2431 3584 2822 3584 
Q 2878 3584 2943 3579 
Q 3009 3575 3134 3559 
L 3138 2547 
z
" transform="scale(0.015625)"/>
      <path id="DejaVuSans-Bold-73" d="M 3272 3391 
L 3272 2541 
Q 2913 2691 2578 2766 
Q 2244 2841 1947 2841 
Q 1628 2841 1473 2761 
Q 1319 2681 1319 2516 
Q 1319 2381 1436 2309 
Q 1553 2238 1856 2203 
L 2053 2175 
Q 2913 2066 3209 1816 
Q 3506 1566 3506 1031 
Q 3506 472 3093 190 
Q 2681 -91 1863 -91 
Q 1516 -91 1145 -36 
Q 775 19 384 128 
L 384 978 
Q 719 816 1070 734 
Q 1422 653 1784 653 
Q 2113 653 2278 743 
Q 2444 834 2444 1013 
Q 2444 1163 2330 1236 
Q 2216 1309 1875 1350 
L 1678 1375 
Q 931 1469 631 1722 
Q 331 1975 331 2491 
Q 331 3047 712 3315 
Q 1094 3584 1881 3584 
Q 2191 3584 2531 3537 
Q 2872 3491 3272 3391 
z
" transform="scale(0.015625)"/>
      <path id="DejaVuSans-Bold-20" transform="scale(0.015625)"/>
      <path id="DejaVuSans-Bold-44" d="M 1791 3756 
L 1791 909 
L 2222 909 
Q 2959 909 3348 1275 
Q 3738 1641 3738 2338 
Q 3738 3031 3350 3393 
Q 2963 3756 2222 3756 
L 1791 3756 
z
M 588 4666 
L 1856 4666 
Q 2919 4666 3439 4514 
Q 3959 4363 4331 4000 
Q 4659 3684 4818 3271 
Q 4978 2859 4978 2338 
Q 4978 1809 4818 1395 
Q 4659 981 4331 666 
Q 3956 303 3431 151 
Q 2906 0 1856 0 
L 588 0 
L 588 4666 
z
" transform="scale(0.015625)"/>
      <path id="DejaVuSans-Bold-63" d="M 3366 3391 
L 3366 2478 
Q 3138 2634 2908 2709 
Q 2678 2784 2431 2784 
Q 1963 2784 1702 2511 
Q 1441 2238 1441 1747 
Q 1441 1256 1702 982 
Q 1963 709 2431 709 
Q 2694 709 2930 787 
Q 3166 866 3366 1019 
L 3366 103 
Q 3103 6 2833 -42 
Q 2563 -91 2291 -91 
Q 1344 -91 809 395 
Q 275 881 275 1747 
Q 275 2613 809 3098 
Q 1344 3584 2291 3584 
Q 2566 3584 2833 3536 
Q 3100 3488 3366 3391 
z
" transform="scale(0.015625)"/>
      <path id="DejaVuSans-Bold-6f" d="M 2203 2784 
Q 1831 2784 1636 2517 
Q 1441 2250 1441 1747 
Q 1441 1244 1636 976 
Q 1831 709 2203 709 
Q 2569 709 2762 976 
Q 2956 1244 2956 1747 
Q 2956 2250 2762 2517 
Q 2569 2784 2203 2784 
z
M 2203 3584 
Q 3106 3584 3614 3096 
Q 4122 2609 4122 1747 
Q 4122 884 3614 396 
Q 3106 -91 2203 -91 
Q 1297 -91 786 396 
Q 275 884 275 1747 
Q 275 2609 786 3096 
Q 1297 3584 2203 3584 
z
" transform="scale(0.015625)"/>
      <path id="DejaVuSans-Bold-70" d="M 1656 506 
L 1656 -1331 
L 538 -1331 
L 538 3500 
L 1656 3500 
L 1656 2988 
Q 1888 3294 2169 3439 
Q 2450 3584 2816 3584 
Q 3463 3584 3878 3070 
Q 4294 2556 4294 1747 
Q 4294 938 3878 423 
Q 3463 -91 2816 -91 
Q 2450 -91 2169 54 
Q 1888 200 1656 506 
z
M 2400 2772 
Q 2041 2772 1848 2508 
Q 1656 2244 1656 1747 
Q 1656 1250 1848 986 
Q 2041 722 2400 722 
Q 2759 722 2948 984 
Q 3138 1247 3138 1747 
Q 3138 2247 2948 2509 
Q 2759 2772 2400 2772 
z
" transform="scale(0.015625)"/>
      <path id="DejaVuSans-Bold-74" d="M 1759 4494 
L 1759 3500 
L 2913 3500 
L 2913 2700 
L 1759 2700 
L 1759 1216 
Q 1759 972 1856 886 
Q 1953 800 2241 800 
L 2816 800 
L 2816 0 
L 1856 0 
Q 1194 0 917 276 
Q 641 553 641 1216 
L 641 2700 
L 84 2700 
L 84 3500 
L 641 3500 
L 641 4494 
L 1759 4494 
z
" transform="scale(0.015625)"/>
      <path id="DejaVuSans-Bold-6e" d="M 4056 2131 
L 4056 0 
L 2931 0 
L 2931 347 
L 2931 1631 
Q 2931 2084 2911 2256 
Q 2891 2428 2841 2509 
Q 2775 2619 2662 2680 
Q 2550 2741 2406 2741 
Q 2056 2741 1856 2470 
Q 1656 2200 1656 1722 
L 1656 0 
L 538 0 
L 538 3500 
L 1656 3500 
L 1656 2988 
Q 1909 3294 2193 3439 
Q 2478 3584 2822 3584 
Q 3428 3584 3742 3212 
Q 4056 2841 4056 2131 
z
" transform="scale(0.015625)"/>
      <path id="DejaVuSans-Bold-3a" d="M 716 3500 
L 1844 3500 
L 1844 2291 
L 716 2291 
L 716 3500 
z
M 716 1209 
L 1844 1209 
L 1844 0 
L 716 0 
L 716 1209 
z
" transform="scale(0.015625)"/>
      <path id="DejaVuSans-Bold-4f" d="M 2719 3878 
Q 2169 3878 1866 3472 
Q 1563 3066 1563 2328 
Q 1563 1594 1866 1187 
Q 2169 781 2719 781 
Q 3272 781 3575 1187 
Q 3878 1594 3878 2328 
Q 3878 3066 3575 3472 
Q 3272 3878 2719 3878 
z
M 2719 4750 
Q 3844 4750 4481 4106 
Q 5119 3463 5119 2328 
Q 5119 1197 4481 553 
Q 3844 -91 2719 -91 
Q 1597 -91 958 553 
Q 319 1197 319 2328 
Q 319 3463 958 4106 
Q 1597 4750 2719 4750 
z
" transform="scale(0.015625)"/>
      <path id="DejaVuSans-Bold-62" d="M 2400 722 
Q 2759 722 2948 984 
Q 3138 1247 3138 1747 
Q 3138 2247 2948 2509 
Q 2759 2772 2400 2772 
Q 2041 2772 1848 2508 
Q 1656 2244 1656 1747 
Q 1656 1250 1848 986 
Q 2041 722 2400 722 
z
M 1656 2988 
Q 1888 3294 2169 3439 
Q 2450 3584 2816 3584 
Q 3463 3584 3878 3070 
Q 4294 2556 4294 1747 
Q 4294 938 3878 423 
Q 3463 -91 2816 -91 
Q 2450 -91 2169 54 
Q 1888 200 1656 506 
L 1656 0 
L 538 0 
L 538 4863 
L 1656 4863 
L 1656 2988 
z
" transform="scale(0.015625)"/>
      <path id="DejaVuSans-Bold-76" d="M 97 3500 
L 1216 3500 
L 2088 1081 
L 2956 3500 
L 4078 3500 
L 2700 0 
L 1472 0 
L 97 3500 
z
" transform="scale(0.015625)"/>
      <path id="DejaVuSans-Bold-64" d="M 2919 2988 
L 2919 4863 
L 4044 4863 
L 4044 0 
L 2919 0 
L 2919 506 
Q 2688 197 2409 53 
Q 2131 -91 1766 -91 
Q 1119 -91 703 423 
Q 288 938 288 1747 
Q 288 2556 703 3070 
Q 1119 3584 1766 3584 
Q 2128 3584 2408 3439 
Q 2688 3294 2919 2988 
z
M 2181 722 
Q 2541 722 2730 984 
Q 2919 1247 2919 1747 
Q 2919 2247 2730 2509 
Q 2541 2772 2181 2772 
Q 1825 2772 1636 2509 
Q 1447 2247 1447 1747 
Q 1447 1247 1636 984 
Q 1825 722 2181 722 
z
" transform="scale(0.015625)"/>
      <path id="DejaVuSans-Bold-67" d="M 2919 594 
Q 2688 288 2409 144 
Q 2131 0 1766 0 
Q 1125 0 706 504 
Q 288 1009 288 1791 
Q 288 2575 706 3076 
Q 1125 3578 1766 3578 
Q 2131 3578 2409 3434 
Q 2688 3291 2919 2981 
L 2919 3500 
L 4044 3500 
L 4044 353 
Q 4044 -491 3511 -936 
Q 2978 -1381 1966 -1381 
Q 1638 -1381 1331 -1331 
Q 1025 -1281 716 -1178 
L 716 -306 
Q 1009 -475 1290 -558 
Q 1572 -641 1856 -641 
Q 2406 -641 2662 -400 
Q 2919 -159 2919 353 
L 2919 594 
z
M 2181 2772 
Q 1834 2772 1640 2515 
Q 1447 2259 1447 1791 
Q 1447 1309 1634 1061 
Q 1822 813 2181 813 
Q 2531 813 2725 1069 
Q 2919 1325 2919 1791 
Q 2919 2259 2725 2515 
Q 2531 2772 2181 2772 
z
" transform="scale(0.015625)"/>
      <path id="DejaVuSans-Bold-61" d="M 2106 1575 
Q 1756 1575 1579 1456 
Q 1403 1338 1403 1106 
Q 1403 894 1545 773 
Q 1688 653 1941 653 
Q 2256 653 2472 879 
Q 2688 1106 2688 1447 
L 2688 1575 
L 2106 1575 
z
M 3816 1997 
L 3816 0 
L 2688 0 
L 2688 519 
Q 2463 200 2181 54 
Q 1900 -91 1497 -91 
Q 953 -91 614 226 
Q 275 544 275 1050 
Q 275 1666 698 1953 
Q 1122 2241 2028 2241 
L 2688 2241 
L 2688 2328 
Q 2688 2594 2478 2717 
Q 2269 2841 1825 2841 
Q 1466 2841 1156 2769 
Q 847 2697 581 2553 
L 581 3406 
Q 941 3494 1303 3539 
Q 1666 3584 2028 3584 
Q 2975 3584 3395 3211 
Q 3816 2838 3816 1997 
z
" transform="scale(0.015625)"/>
      <path id="DejaVuSans-Bold-6c" d="M 538 4863 
L 1656 4863 
L 1656 0 
L 538 0 
L 538 4863 
z
" transform="scale(0.015625)"/>
      <path id="DejaVuSans-Bold-3d" d="M 678 3084 
L 4684 3084 
L 4684 2350 
L 678 2350 
L 678 3084 
z
M 678 1663 
L 4684 1663 
L 4684 922 
L 678 922 
L 678 1663 
z
" transform="scale(0.015625)"/>
      <path id="DejaVuSans-Bold-2b" d="M 3053 4013 
L 3053 2375 
L 4684 2375 
L 4684 1638 
L 3053 1638 
L 3053 0 
L 2309 0 
L 2309 1638 
L 678 1638 
L 678 2375 
L 2309 2375 
L 2309 4013 
L 3053 4013 
z
" transform="scale(0.015625)"/>
      <path id="DejaVuSans-Bold-79" d="M 78 3500 
L 1197 3500 
L 2138 1125 
L 2938 3500 
L 4056 3500 
L 2584 -331 
Q 2363 -916 2067 -1148 
Q 1772 -1381 1288 -1381 
L 641 -1381 
L 641 -647 
L 991 -647 
Q 1275 -647 1404 -556 
Q 1534 -466 1606 -231 
L 1638 -134 
L 78 3500 
z
" transform="scale(0.015625)"/>
      <path id="DejaVuSans-Bold-4e" d="M 588 4666 
L 1931 4666 
L 3628 1466 
L 3628 4666 
L 4769 4666 
L 4769 0 
L 3425 0 
L 1728 3200 
L 1728 0 
L 588 0 
L 588 4666 
z
" transform="scale(0.015625)"/>
     </defs>
     <use xlink:href="#DejaVuSans-Bold-54"/>
     <use xlink:href="#DejaVuSans-Bold-69" x="68.212891"/>
     <use xlink:href="#DejaVuSans-Bold-6d" x="102.490234"/>
     <use xlink:href="#DejaVuSans-Bold-65" x="206.689453"/>
     <use xlink:href="#DejaVuSans-Bold-2d" x="274.511719"/>
     <use xlink:href="#DejaVuSans-Bold-53" x="316.015625"/>
     <use xlink:href="#DejaVuSans-Bold-65" x="388.037109"/>
     <use xlink:href="#DejaVuSans-Bold-72" x="455.859375"/>
     <use xlink:href="#DejaVuSans-Bold-69" x="505.175781"/>
     <use xlink:href="#DejaVuSans-Bold-65" x="539.453125"/>
     <use xlink:href="#DejaVuSans-Bold-73" x="607.275391"/>
     <use xlink:href="#DejaVuSans-Bold-20" x="666.796875"/>
     <use xlink:href="#DejaVuSans-Bold-44" x="701.611328"/>
     <use xlink:href="#DejaVuSans-Bold-65" x="784.619141"/>
     <use xlink:href="#DejaVuSans-Bold-63" x="852.441406"/>
     <use xlink:href="#DejaVuSans-Bold-6f" x="911.71875"/>
     <use xlink:href="#DejaVuSans-Bold-6d" x="980.419922"/>
     <use xlink:href="#DejaVuSans-Bold-70" x="1084.619141"/>
     <use xlink:href="#DejaVuSans-Bold-6f" x="1156.201172"/>
     <use xlink:href="#DejaVuSans-Bold-73" x="1224.902344"/>
     <use xlink:href="#DejaVuSans-Bold-69" x="1284.423828"/>
     <use xlink:href="#DejaVuSans-Bold-74" x="1318.701172"/>
     <use xlink:href="#DejaVuSans-Bold-69" x="1366.503906"/>
     <use xlink:href="#DejaVuSans-Bold-6f" x="1400.78125"/>
     <use xlink:href="#DejaVuSans-Bold-6e" x="1469.482422"/>
     <use xlink:href="#DejaVuSans-Bold-3a" x="1540.673828"/>
     <use xlink:href="#DejaVuSans-Bold-20" x="1580.664062"/>
     <use xlink:href="#DejaVuSans-Bold-4f" x="1615.478516"/>
     <use xlink:href="#DejaVuSans-Bold-62" x="1700.488281"/>
     <use xlink:href="#DejaVuSans-Bold-73" x="1772.070312"/>
     <use xlink:href="#DejaVuSans-Bold-65" x="1831.591797"/>
     <use xlink:href="#DejaVuSans-Bold-72" x="1899.414062"/>
     <use xlink:href="#DejaVuSans-Bold-76" x="1948.730469"/>
     <use xlink:href="#DejaVuSans-Bold-65" x="2013.916016"/>
     <use xlink:href="#DejaVuSans-Bold-64" x="2081.738281"/>
     <use xlink:href="#DejaVuSans-Bold-20" x="2153.320312"/>
     <use xlink:href="#DejaVuSans-Bold-53" x="2188.134766"/>
     <use xlink:href="#DejaVuSans-Bold-69" x="2260.15625"/>
     <use xlink:href="#DejaVuSans-Bold-67" x="2294.433594"/>
     <use xlink:href="#DejaVuSans-Bold-6e" x="2366.015625"/>
     <use xlink:href="#DejaVuSans-Bold-61" x="2437.207031"/>
     <use xlink:href="#DejaVuSans-Bold-6c" x="2504.6875"/>
     <use xlink:href="#DejaVuSans-Bold-20" x="2538.964844"/>
     <use xlink:href="#DejaVuSans-Bold-3d" x="2573.779297"/>
     <use xlink:href="#DejaVuSans-Bold-20" x="2657.568359"/>
     <use xlink:href="#DejaVuSans-Bold-54" x="2692.382812"/>
     <use xlink:href="#DejaVuSans-Bold-72" x="2749.595703"/>
     <use xlink:href="#DejaVuSans-Bold-65" x="2798.912109"/>
     <use xlink:href="#DejaVuSans-Bold-6e" x="2866.734375"/>
     <use xlink:href="#DejaVuSans-Bold-64" x="2937.925781"/>
     <use xlink:href="#DejaVuSans-Bold-20" x="3009.507812"/>
     <use xlink:href="#DejaVuSans-Bold-2b" x="3044.322266"/>
     <use xlink:href="#DejaVuSans-Bold-20" x="3128.111328"/>
     <use xlink:href="#DejaVuSans-Bold-53" x="3162.925781"/>
     <use xlink:href="#DejaVuSans-Bold-65" x="3234.947266"/>
     <use xlink:href="#DejaVuSans-Bold-61" x="3302.769531"/>
     <use xlink:href="#DejaVuSans-Bold-73" x="3370.25"/>
     <use xlink:href="#DejaVuSans-Bold-6f" x="3429.771484"/>
     <use xlink:href="#DejaVuSans-Bold-6e" x="3498.472656"/>
     <use xlink:href="#DejaVuSans-Bold-61" x="3569.664062"/>
     <use xlink:href="#DejaVuSans-Bold-6c" x="3637.144531"/>
     <use xlink:href="#DejaVuSans-Bold-69" x="3671.421875"/>
     <use xlink:href="#DejaVuSans-Bold-74" x="3705.699219"/>
     <use xlink:href="#DejaVuSans-Bold-79" x="3753.501953"/>
     <use xlink:href="#DejaVuSans-Bold-20" x="3818.6875"/>
     <use xlink:href="#DejaVuSans-Bold-2b" x="3853.501953"/>
     <use xlink:href="#DejaVuSans-Bold-20" x="3937.291016"/>
     <use xlink:href="#DejaVuSans-Bold-4e" x="3972.105469"/>
     <use xlink:href="#DejaVuSans-Bold-6f" x="4055.796875"/>
     <use xlink:href="#DejaVuSans-Bold-69" x="4124.498047"/>
     <use xlink:href="#DejaVuSans-Bold-73" x="4158.775391"/>
     <use xlink:href="#DejaVuSans-Bold-65" x="4218.296875"/>
    </g>
   </g>
  </g>
  <g id="axes_2">
   <g id="patch_5">
    <path d="M 55.557031 223.92009 
L 736.317031 223.92009 
L 736.317031 131.090322 
L 55.557031 131.090322 
z
" style="fill: #ffffff"/>
   </g>
   <g id="matplotlib.axis_3">
    <g id="xtick_8">
     <g id="line2d_22">
      <path d="M 86.500668 223.92009 
L 86.500668 131.090322 
" clip-path="url(#pa254499f0c)" style="fill: none; stroke: #94a3b8; stroke-opacity: 0.18; stroke-width: 0.8; stroke-linecap: square"/>
     </g>
     <g id="line2d_23">
      <g>
       <use xlink:href="#m67656dd05b" x="86.500668" y="223.92009" style="fill: #475569; stroke: #475569; stroke-width: 0.8"/>
      </g>
     </g>
    </g>
    <g id="xtick_9">
     <g id="line2d_24">
      <path d="M 190.512891 223.92009 
L 190.512891 131.090322 
" clip-path="url(#pa254499f0c)" style="fill: none; stroke: #94a3b8; stroke-opacity: 0.18; stroke-width: 0.8; stroke-linecap: square"/>
     </g>
     <g id="line2d_25">
      <g>
       <use xlink:href="#m67656dd05b" x="190.512891" y="223.92009" style="fill: #475569; stroke: #475569; stroke-width: 0.8"/>
      </g>
     </g>
    </g>
    <g id="xtick_10">
     <g id="line2d_26">
      <path d="M 294.525114 223.92009 
L 294.525114 131.090322 
" clip-path="url(#pa254499f0c)" style="fill: none; stroke: #94a3b8; stroke-opacity: 0.18; stroke-width: 0.8; stroke-linecap: square"/>
     </g>
     <g id="line2d_27">
      <g>
       <use xlink:href="#m67656dd05b" x="294.525114" y="223.92009" style="fill: #475569; stroke: #475569; stroke-width: 0.8"/>
      </g>
     </g>
    </g>
    <g id="xtick_11">
     <g id="line2d_28">
      <path d="M 398.537337 223.92009 
L 398.537337 131.090322 
" clip-path="url(#pa254499f0c)" style="fill: none; stroke: #94a3b8; stroke-opacity: 0.18; stroke-width: 0.8; stroke-linecap: square"/>
     </g>
     <g id="line2d_29">
      <g>
       <use xlink:href="#m67656dd05b" x="398.537337" y="223.92009" style="fill: #475569; stroke: #475569; stroke-width: 0.8"/>
      </g>
     </g>
    </g>
    <g id="xtick_12">
     <g id="line2d_30">
      <path d="M 502.54956 223.92009 
L 502.54956 131.090322 
" clip-path="url(#pa254499f0c)" style="fill: none; stroke: #94a3b8; stroke-opacity: 0.18; stroke-width: 0.8; stroke-linecap: square"/>
     </g>
     <g id="line2d_31">
      <g>
       <use xlink:href="#m67656dd05b" x="502.54956" y="223.92009" style="fill: #475569; stroke: #475569; stroke-width: 0.8"/>
      </g>
     </g>
    </g>
    <g id="xtick_13">
     <g id="line2d_32">
      <path d="M 606.561783 223.92009 
L 606.561783 131.090322 
" clip-path="url(#pa254499f0c)" style="fill: none; stroke: #94a3b8; stroke-opacity: 0.18; stroke-width: 0.8; stroke-linecap: square"/>
     </g>
     <g id="line2d_33">
      <g>
       <use xlink:href="#m67656dd05b" x="606.561783" y="223.92009" style="fill: #475569; stroke: #475569; stroke-width: 0.8"/>
      </g>
     </g>
    </g>
    <g id="xtick_14">
     <g id="line2d_34">
      <path d="M 710.574006 223.92009 
L 710.574006 131.090322 
" clip-path="url(#pa254499f0c)" style="fill: none; stroke: #94a3b8; stroke-opacity: 0.18; stroke-width: 0.8; stroke-linecap: square"/>
     </g>
     <g id="line2d_35">
      <g>
       <use xlink:href="#m67656dd05b" x="710.574006" y="223.92009" style="fill: #475569; stroke: #475569; stroke-width: 0.8"/>
      </g>
     </g>
    </g>
   </g>
   <g id="matplotlib.axis_4">
    <g id="ytick_4">
     <g id="line2d_36">
      <path d="M 55.557031 219.700555 
L 736.317031 219.700555 
" clip-path="url(#pa254499f0c)" style="fill: none; stroke: #94a3b8; stroke-opacity: 0.18; stroke-width: 0.8; stroke-linecap: square"/>
     </g>
     <g id="line2d_37">
      <g>
       <use xlink:href="#m5f30ce3abb" x="55.557031" y="219.700555" style="fill: #475569; stroke: #475569; stroke-width: 0.8"/>
      </g>
     </g>
     <g id="text_6">
      <!-- 60 -->
      <g style="fill: #475569" transform="translate(34.559531 223.879695) scale(0.11 -0.11)">
       <use xlink:href="#DejaVuSans-36"/>
       <use xlink:href="#DejaVuSans-30" x="63.623047"/>
      </g>
     </g>
    </g>
    <g id="ytick_5">
     <g id="line2d_38">
      <path d="M 55.557031 175.377709 
L 736.317031 175.377709 
" clip-path="url(#pa254499f0c)" style="fill: none; stroke: #94a3b8; stroke-opacity: 0.18; stroke-width: 0.8; stroke-linecap: square"/>
     </g>
     <g id="line2d_39">
      <g>
       <use xlink:href="#m5f30ce3abb" x="55.557031" y="175.377709" style="fill: #475569; stroke: #475569; stroke-width: 0.8"/>
      </g>
     </g>
     <g id="text_7">
      <!-- 80 -->
      <g style="fill: #475569" transform="translate(34.559531 179.55685) scale(0.11 -0.11)">
       <use xlink:href="#DejaVuSans-38"/>
       <use xlink:href="#DejaVuSans-30" x="63.623047"/>
      </g>
     </g>
    </g>
    <g id="text_8">
     <!-- Trend -->
     <g style="fill: #334155" transform="translate(28.271875 192.552003) rotate(-90) scale(0.11 -0.11)">
      <defs>
       <path id="DejaVuSans-54" d="M -19 4666 
L 3928 4666 
L 3928 4134 
L 2272 4134 
L 2272 0 
L 1638 0 
L 1638 4134 
L -19 4134 
L -19 4666 
z
" transform="scale(0.015625)"/>
       <path id="DejaVuSans-6e" d="M 3513 2113 
L 3513 0 
L 2938 0 
L 2938 2094 
Q 2938 2591 2744 2837 
Q 2550 3084 2163 3084 
Q 1697 3084 1428 2787 
Q 1159 2491 1159 1978 
L 1159 0 
L 581 0 
L 581 3500 
L 1159 3500 
L 1159 2956 
Q 1366 3272 1645 3428 
Q 1925 3584 2291 3584 
Q 2894 3584 3203 3211 
Q 3513 2838 3513 2113 
z
" transform="scale(0.015625)"/>
      </defs>
      <use xlink:href="#DejaVuSans-54"/>
      <use xlink:href="#DejaVuSans-72" x="46.333984"/>
      <use xlink:href="#DejaVuSans-65" x="85.197266"/>
      <use xlink:href="#DejaVuSans-6e" x="146.720703"/>
      <use xlink:href="#DejaVuSans-64" x="210.099609"/>
     </g>
    </g>
   </g>
   <g id="line2d_40">
    <path d="M 86.500668 219.700555 
L 91.701279 218.991389 
L 96.90189 218.282224 
L 102.102501 217.573058 
L 107.303112 216.863893 
L 112.503723 216.154727 
L 117.704335 215.445562 
L 122.904946 214.736396 
L 128.105557 214.027231 
L 133.306168 213.318065 
L 138.506779 212.6089 
L 143.70739 211.899734 
L 148.908001 211.190569 
L 154.108613 210.481403 
L 159.309224 209.772237 
L 164.509835 209.063072 
L 169.710446 208.353906 
L 174.911057 207.644741 
L 180.111668 206.935575 
L 185.31228 206.22641 
L 190.512891 205.517244 
L 195.713502 204.808079 
L 200.914113 204.098913 
L 206.114724 203.389748 
L 211.315335 202.680582 
L 216.515946 201.971417 
L 221.716558 201.262251 
L 226.917169 200.553086 
L 232.11778 199.84392 
L 237.318391 199.134755 
L 242.519002 198.425589 
L 247.719613 197.716424 
L 252.920225 197.007258 
L 258.120836 196.298092 
L 263.321447 195.588927 
L 268.522058 194.879761 
L 273.722669 194.170596 
L 278.92328 193.46143 
L 284.123891 192.752265 
L 289.324503 192.043099 
L 294.525114 191.333934 
L 299.725725 190.624768 
L 304.926336 189.915603 
L 310.126947 189.206437 
L 315.327558 188.497272 
L 320.52817 187.788106 
L 325.728781 187.078941 
L 330.929392 186.369775 
L 336.130003 185.66061 
L 341.330614 184.951444 
L 346.531225 184.242279 
L 351.731836 183.533113 
L 356.932448 182.823947 
L 362.133059 182.114782 
L 367.33367 181.405616 
L 372.534281 180.696451 
L 377.734892 179.987285 
L 382.935503 179.27812 
L 388.136115 178.568954 
L 393.336726 177.859789 
L 398.537337 177.150623 
L 403.737948 176.441458 
L 408.938559 175.732292 
L 414.13917 175.023127 
L 419.339781 174.313961 
L 424.540393 173.604796 
L 429.741004 172.89563 
L 434.941615 172.186465 
L 440.142226 171.477299 
L 445.342837 170.768134 
L 450.543448 170.058968 
L 455.74406 169.349802 
L 460.944671 168.640637 
L 466.145282 167.931471 
L 471.345893 167.222306 
L 476.546504 166.51314 
L 481.747115 165.803975 
L 486.947726 165.094809 
L 492.148338 164.385644 
L 497.348949 163.676478 
L 502.54956 162.967313 
L 507.750171 162.258147 
L 512.950782 161.548982 
L 518.151393 160.839816 
L 523.352005 160.130651 
L 528.552616 159.421485 
L 533.753227 158.71232 
L 538.953838 158.003154 
L 544.154449 157.293989 
L 549.35506 156.584823 
L 554.555671 155.875657 
L 559.756283 155.166492 
L 564.956894 154.457326 
L 570.157505 153.748161 
L 575.358116 153.038995 
L 580.558727 152.32983 
L 585.759338 151.620664 
L 590.95995 150.911499 
L 596.160561 150.202333 
L 601.361172 149.493168 
L 606.561783 148.784002 
L 611.762394 148.074837 
L 616.963005 147.365671 
L 622.163616 146.656506 
L 627.364228 145.94734 
L 632.564839 145.238175 
L 637.76545 144.529009 
L 642.966061 143.819844 
L 648.166672 143.110678 
L 653.367283 142.401512 
L 658.567895 141.692347 
L 663.768506 140.983181 
L 668.969117 140.274016 
L 674.169728 139.56485 
L 679.370339 138.855685 
L 684.57095 138.146519 
L 689.771561 137.437354 
L 694.972173 136.728188 
L 700.172784 136.019023 
L 705.373395 135.309857 
" clip-path="url(#pa254499f0c)" style="fill: none; stroke: #0f766e; stroke-width: 2; stroke-linecap: square"/>
   </g>
   <g id="patch_6">
    <path d="M 55.557031 223.92009 
L 55.557031 131.090322 
" style="fill: none; stroke: #94a3b8; stroke-width: 0.8; stroke-linejoin: miter; stroke-linecap: square"/>
   </g>
   <g id="patch_7">
    <path d="M 55.557031 223.92009 
L 736.317031 223.92009 
" style="fill: none; stroke: #94a3b8; stroke-width: 0.8; stroke-linejoin: miter; stroke-linecap: square"/>
   </g>
  </g>
  <g id="axes_3">
   <g id="patch_8">
    <path d="M 55.557031 326.032834 
L 736.317031 326.032834 
L 736.317031 233.203066 
L 55.557031 233.203066 
z
" style="fill: #ffffff"/>
   </g>
   <g id="matplotlib.axis_5">
    <g id="xtick_15">
     <g id="line2d_41">
      <path d="M 86.500668 326.032834 
L 86.500668 233.203066 
" clip-path="url(#p414bddf153)" style="fill: none; stroke: #94a3b8; stroke-opacity: 0.18; stroke-width: 0.8; stroke-linecap: square"/>
     </g>
     <g id="line2d_42">
      <g>
       <use xlink:href="#m67656dd05b" x="86.500668" y="326.032834" style="fill: #475569; stroke: #475569; stroke-width: 0.8"/>
      </g>
     </g>
    </g>
    <g id="xtick_16">
     <g id="line2d_43">
      <path d="M 190.512891 326.032834 
L 190.512891 233.203066 
" clip-path="url(#p414bddf153)" style="fill: none; stroke: #94a3b8; stroke-opacity: 0.18; stroke-width: 0.8; stroke-linecap: square"/>
     </g>
     <g id="line2d_44">
      <g>
       <use xlink:href="#m67656dd05b" x="190.512891" y="326.032834" style="fill: #475569; stroke: #475569; stroke-width: 0.8"/>
      </g>
     </g>
    </g>
    <g id="xtick_17">
     <g id="line2d_45">
      <path d="M 294.525114 326.032834 
L 294.525114 233.203066 
" clip-path="url(#p414bddf153)" style="fill: none; stroke: #94a3b8; stroke-opacity: 0.18; stroke-width: 0.8; stroke-linecap: square"/>
     </g>
     <g id="line2d_46">
      <g>
       <use xlink:href="#m67656dd05b" x="294.525114" y="326.032834" style="fill: #475569; stroke: #475569; stroke-width: 0.8"/>
      </g>
     </g>
    </g>
    <g id="xtick_18">
     <g id="line2d_47">
      <path d="M 398.537337 326.032834 
L 398.537337 233.203066 
" clip-path="url(#p414bddf153)" style="fill: none; stroke: #94a3b8; stroke-opacity: 0.18; stroke-width: 0.8; stroke-linecap: square"/>
     </g>
     <g id="line2d_48">
      <g>
       <use xlink:href="#m67656dd05b" x="398.537337" y="326.032834" style="fill: #475569; stroke: #475569; stroke-width: 0.8"/>
      </g>
     </g>
    </g>
    <g id="xtick_19">
     <g id="line2d_49">
      <path d="M 502.54956 326.032834 
L 502.54956 233.203066 
" clip-path="url(#p414bddf153)" style="fill: none; stroke: #94a3b8; stroke-opacity: 0.18; stroke-width: 0.8; stroke-linecap: square"/>
     </g>
     <g id="line2d_50">
      <g>
       <use xlink:href="#m67656dd05b" x="502.54956" y="326.032834" style="fill: #475569; stroke: #475569; stroke-width: 0.8"/>
      </g>
     </g>
    </g>
    <g id="xtick_20">
     <g id="line2d_51">
      <path d="M 606.561783 326.032834 
L 606.561783 233.203066 
" clip-path="url(#p414bddf153)" style="fill: none; stroke: #94a3b8; stroke-opacity: 0.18; stroke-width: 0.8; stroke-linecap: square"/>
     </g>
     <g id="line2d_52">
      <g>
       <use xlink:href="#m67656dd05b" x="606.561783" y="326.032834" style="fill: #475569; stroke: #475569; stroke-width: 0.8"/>
      </g>
     </g>
    </g>
    <g id="xtick_21">
     <g id="line2d_53">
      <path d="M 710.574006 326.032834 
L 710.574006 233.203066 
" clip-path="url(#p414bddf153)" style="fill: none; stroke: #94a3b8; stroke-opacity: 0.18; stroke-width: 0.8; stroke-linecap: square"/>
     </g>
     <g id="line2d_54">
      <g>
       <use xlink:href="#m67656dd05b" x="710.574006" y="326.032834" style="fill: #475569; stroke: #475569; stroke-width: 0.8"/>
      </g>
     </g>
    </g>
   </g>
   <g id="matplotlib.axis_6">
    <g id="ytick_6">
     <g id="line2d_55">
      <path d="M 55.557031 303.979446 
L 736.317031 303.979446 
" clip-path="url(#p414bddf153)" style="fill: none; stroke: #94a3b8; stroke-opacity: 0.18; stroke-width: 0.8; stroke-linecap: square"/>
     </g>
     <g id="line2d_56">
      <g>
       <use xlink:href="#m5f30ce3abb" x="55.557031" y="303.979446" style="fill: #475569; stroke: #475569; stroke-width: 0.8"/>
      </g>
     </g>
     <g id="text_9">
      <!-- −5 -->
      <g style="fill: #475569" transform="translate(32.340625 308.158587) scale(0.11 -0.11)">
       <defs>
        <path id="DejaVuSans-2212" d="M 678 2272 
L 4684 2272 
L 4684 1741 
L 678 1741 
L 678 2272 
z
" transform="scale(0.015625)"/>
        <path id="DejaVuSans-35" d="M 691 4666 
L 3169 4666 
L 3169 4134 
L 1269 4134 
L 1269 2991 
Q 1406 3038 1543 3061 
Q 1681 3084 1819 3084 
Q 2600 3084 3056 2656 
Q 3513 2228 3513 1497 
Q 3513 744 3044 326 
Q 2575 -91 1722 -91 
Q 1428 -91 1123 -41 
Q 819 9 494 109 
L 494 744 
Q 775 591 1075 516 
Q 1375 441 1709 441 
Q 2250 441 2565 725 
Q 2881 1009 2881 1497 
Q 2881 1984 2565 2268 
Q 2250 2553 1709 2553 
Q 1456 2553 1204 2497 
Q 953 2441 691 2322 
L 691 4666 
z
" transform="scale(0.015625)"/>
       </defs>
       <use xlink:href="#DejaVuSans-2212"/>
       <use xlink:href="#DejaVuSans-35" x="83.789062"/>
      </g>
     </g>
    </g>
    <g id="ytick_7">
     <g id="line2d_57">
      <path d="M 55.557031 279.61795 
L 736.317031 279.61795 
" clip-path="url(#p414bddf153)" style="fill: none; stroke: #94a3b8; stroke-opacity: 0.18; stroke-width: 0.8; stroke-linecap: square"/>
     </g>
     <g id="line2d_58">
      <g>
       <use xlink:href="#m5f30ce3abb" x="55.557031" y="279.61795" style="fill: #475569; stroke: #475569; stroke-width: 0.8"/>
      </g>
     </g>
     <g id="text_10">
      <!-- 0 -->
      <g style="fill: #475569" transform="translate(41.558281 283.797091) scale(0.11 -0.11)">
       <use xlink:href="#DejaVuSans-30"/>
      </g>
     </g>
    </g>
    <g id="ytick_8">
     <g id="line2d_59">
      <path d="M 55.557031 255.256454 
L 736.317031 255.256454 
" clip-path="url(#p414bddf153)" style="fill: none; stroke: #94a3b8; stroke-opacity: 0.18; stroke-width: 0.8; stroke-linecap: square"/>
     </g>
     <g id="line2d_60">
      <g>
       <use xlink:href="#m5f30ce3abb" x="55.557031" y="255.256454" style="fill: #475569; stroke: #475569; stroke-width: 0.8"/>
      </g>
     </g>
     <g id="text_11">
      <!-- 5 -->
      <g style="fill: #475569" transform="translate(41.558281 259.435595) scale(0.11 -0.11)">
       <use xlink:href="#DejaVuSans-35"/>
      </g>
     </g>
    </g>
    <g id="text_12">
     <!-- Seasonality -->
     <g style="fill: #334155" transform="translate(26.052969 311.418263) rotate(-90) scale(0.11 -0.11)">
      <defs>
       <path id="DejaVuSans-53" d="M 3425 4513 
L 3425 3897 
Q 3066 4069 2747 4153 
Q 2428 4238 2131 4238 
Q 1616 4238 1336 4038 
Q 1056 3838 1056 3469 
Q 1056 3159 1242 3001 
Q 1428 2844 1947 2747 
L 2328 2669 
Q 3034 2534 3370 2195 
Q 3706 1856 3706 1288 
Q 3706 609 3251 259 
Q 2797 -91 1919 -91 
Q 1588 -91 1214 -16 
Q 841 59 441 206 
L 441 856 
Q 825 641 1194 531 
Q 1563 422 1919 422 
Q 2459 422 2753 634 
Q 3047 847 3047 1241 
Q 3047 1584 2836 1778 
Q 2625 1972 2144 2069 
L 1759 2144 
Q 1053 2284 737 2584 
Q 422 2884 422 3419 
Q 422 4038 858 4394 
Q 1294 4750 2059 4750 
Q 2388 4750 2728 4690 
Q 3069 4631 3425 4513 
z
" transform="scale(0.015625)"/>
       <path id="DejaVuSans-61" d="M 2194 1759 
Q 1497 1759 1228 1600 
Q 959 1441 959 1056 
Q 959 750 1161 570 
Q 1363 391 1709 391 
Q 2188 391 2477 730 
Q 2766 1069 2766 1631 
L 2766 1759 
L 2194 1759 
z
M 3341 1997 
L 3341 0 
L 2766 0 
L 2766 531 
Q 2569 213 2275 61 
Q 1981 -91 1556 -91 
Q 1019 -91 701 211 
Q 384 513 384 1019 
Q 384 1609 779 1909 
Q 1175 2209 1959 2209 
L 2766 2209 
L 2766 2266 
Q 2766 2663 2505 2880 
Q 2244 3097 1772 3097 
Q 1472 3097 1187 3025 
Q 903 2953 641 2809 
L 641 3341 
Q 956 3463 1253 3523 
Q 1550 3584 1831 3584 
Q 2591 3584 2966 3190 
Q 3341 2797 3341 1997 
z
" transform="scale(0.015625)"/>
       <path id="DejaVuSans-6f" d="M 1959 3097 
Q 1497 3097 1228 2736 
Q 959 2375 959 1747 
Q 959 1119 1226 758 
Q 1494 397 1959 397 
Q 2419 397 2687 759 
Q 2956 1122 2956 1747 
Q 2956 2369 2687 2733 
Q 2419 3097 1959 3097 
z
M 1959 3584 
Q 2709 3584 3137 3096 
Q 3566 2609 3566 1747 
Q 3566 888 3137 398 
Q 2709 -91 1959 -91 
Q 1206 -91 779 398 
Q 353 888 353 1747 
Q 353 2609 779 3096 
Q 1206 3584 1959 3584 
z
" transform="scale(0.015625)"/>
       <path id="DejaVuSans-6c" d="M 603 4863 
L 1178 4863 
L 1178 0 
L 603 0 
L 603 4863 
z
" transform="scale(0.015625)"/>
       <path id="DejaVuSans-69" d="M 603 3500 
L 1178 3500 
L 1178 0 
L 603 0 
L 603 3500 
z
M 603 4863 
L 1178 4863 
L 1178 4134 
L 603 4134 
L 603 4863 
z
" transform="scale(0.015625)"/>
       <path id="DejaVuSans-74" d="M 1172 4494 
L 1172 3500 
L 2356 3500 
L 2356 3053 
L 1172 3053 
L 1172 1153 
Q 1172 725 1289 603 
Q 1406 481 1766 481 
L 2356 481 
L 2356 0 
L 1766 0 
Q 1100 0 847 248 
Q 594 497 594 1153 
L 594 3053 
L 172 3053 
L 172 3500 
L 594 3500 
L 594 4494 
L 1172 4494 
z
" transform="scale(0.015625)"/>
       <path id="DejaVuSans-79" d="M 2059 -325 
Q 1816 -950 1584 -1140 
Q 1353 -1331 966 -1331 
L 506 -1331 
L 506 -850 
L 844 -850 
Q 1081 -850 1212 -737 
Q 1344 -625 1503 -206 
L 1606 56 
L 191 3500 
L 800 3500 
L 1894 763 
L 2988 3500 
L 3597 3500 
L 2059 -325 
z
" transform="scale(0.015625)"/>
      </defs>
      <use xlink:href="#DejaVuSans-53"/>
      <use xlink:href="#DejaVuSans-65" x="63.476562"/>
      <use xlink:href="#DejaVuSans-61" x="125"/>
      <use xlink:href="#DejaVuSans-73" x="186.279297"/>
      <use xlink:href="#DejaVuSans-6f" x="238.378906"/>
      <use xlink:href="#DejaVuSans-6e" x="299.560547"/>
      <use xlink:href="#DejaVuSans-61" x="362.939453"/>
      <use xlink:href="#DejaVuSans-6c" x="424.21875"/>
      <use xlink:href="#DejaVuSans-69" x="452.001953"/>
      <use xlink:href="#DejaVuSans-74" x="479.785156"/>
      <use xlink:href="#DejaVuSans-79" x="518.994141"/>
     </g>
    </g>
   </g>
   <g id="line2d_61">
    <path d="M 86.500668 279.61795 
L 91.701279 251.689684 
L 96.90189 237.422601 
L 102.102501 240.639557 
L 107.303112 254.300741 
L 112.503723 268.567823 
L 117.704335 279.61795 
L 122.904946 290.668077 
L 128.105557 304.93516 
L 133.306168 318.596344 
L 138.506779 321.813299 
L 143.70739 307.546217 
L 148.908001 279.61795 
L 154.108613 251.689684 
L 159.309224 237.422601 
L 164.509835 240.639557 
L 169.710446 254.300741 
L 174.911057 268.567823 
L 180.111668 279.61795 
L 185.31228 290.668077 
L 190.512891 304.93516 
L 195.713502 318.596344 
L 200.914113 321.813299 
L 206.114724 307.546217 
L 211.315335 279.61795 
L 216.515946 251.689684 
L 221.716558 237.422601 
L 226.917169 240.639557 
L 232.11778 254.300741 
L 237.318391 268.567823 
L 242.519002 279.61795 
L 247.719613 290.668077 
L 252.920225 304.93516 
L 258.120836 318.596344 
L 263.321447 321.813299 
L 268.522058 307.546217 
L 273.722669 279.61795 
L 278.92328 251.689684 
L 284.123891 237.422601 
L 289.324503 240.639557 
L 294.525114 254.300741 
L 299.725725 268.567823 
L 304.926336 279.61795 
L 310.126947 290.668077 
L 315.327558 304.93516 
L 320.52817 318.596344 
L 325.728781 321.813299 
L 330.929392 307.546217 
L 336.130003 279.61795 
L 341.330614 251.689684 
L 346.531225 237.422601 
L 351.731836 240.639557 
L 356.932448 254.300741 
L 362.133059 268.567823 
L 367.33367 279.61795 
L 372.534281 290.668077 
L 377.734892 304.93516 
L 382.935503 318.596344 
L 388.136115 321.813299 
L 393.336726 307.546217 
L 398.537337 279.61795 
L 403.737948 251.689684 
L 408.938559 237.422601 
L 414.13917 240.639557 
L 419.339781 254.300741 
L 424.540393 268.567823 
L 429.741004 279.61795 
L 434.941615 290.668077 
L 440.142226 304.93516 
L 445.342837 318.596344 
L 450.543448 321.813299 
L 455.74406 307.546217 
L 460.944671 279.61795 
L 466.145282 251.689684 
L 471.345893 237.422601 
L 476.546504 240.639557 
L 481.747115 254.300741 
L 486.947726 268.567823 
L 492.148338 279.61795 
L 497.348949 290.668077 
L 502.54956 304.93516 
L 507.750171 318.596344 
L 512.950782 321.813299 
L 518.151393 307.546217 
L 523.352005 279.61795 
L 528.552616 251.689684 
L 533.753227 237.422601 
L 538.953838 240.639557 
L 544.154449 254.300741 
L 549.35506 268.567823 
L 554.555671 279.61795 
L 559.756283 290.668077 
L 564.956894 304.93516 
L 570.157505 318.596344 
L 575.358116 321.813299 
L 580.558727 307.546217 
L 585.759338 279.61795 
L 590.95995 251.689684 
L 596.160561 237.422601 
L 601.361172 240.639557 
L 606.561783 254.300741 
L 611.762394 268.567823 
L 616.963005 279.61795 
L 622.163616 290.668077 
L 627.364228 304.93516 
L 632.564839 318.596344 
L 637.76545 321.813299 
L 642.966061 307.546217 
L 648.166672 279.61795 
L 653.367283 251.689684 
L 658.567895 237.422601 
L 663.768506 240.639557 
L 668.969117 254.300741 
L 674.169728 268.567823 
L 679.370339 279.61795 
L 684.57095 290.668077 
L 689.771561 304.93516 
L 694.972173 318.596344 
L 700.172784 321.813299 
L 705.373395 307.546217 
" clip-path="url(#p414bddf153)" style="fill: none; stroke: #7c3aed; stroke-width: 2; stroke-linecap: square"/>
   </g>
   <g id="patch_9">
    <path d="M 55.557031 326.032834 
L 55.557031 233.203066 
" style="fill: none; stroke: #94a3b8; stroke-width: 0.8; stroke-linejoin: miter; stroke-linecap: square"/>
   </g>
   <g id="patch_10">
    <path d="M 55.557031 326.032834 
L 736.317031 326.032834 
" style="fill: none; stroke: #94a3b8; stroke-width: 0.8; stroke-linejoin: miter; stroke-linecap: square"/>
   </g>
  </g>
  <g id="axes_4">
   <g id="patch_11">
    <path d="M 55.557031 428.145578 
L 736.317031 428.145578 
L 736.317031 335.315811 
L 55.557031 335.315811 
z
" style="fill: #ffffff"/>
   </g>
   <g id="matplotlib.axis_7">
    <g id="xtick_22">
     <g id="line2d_62">
      <path d="M 86.500668 428.145578 
L 86.500668 335.315811 
" clip-path="url(#pbecc030fa9)" style="fill: none; stroke: #94a3b8; stroke-opacity: 0.18; stroke-width: 0.8; stroke-linecap: square"/>
     </g>
     <g id="line2d_63">
      <g>
       <use xlink:href="#m67656dd05b" x="86.500668" y="428.145578" style="fill: #475569; stroke: #475569; stroke-width: 0.8"/>
      </g>
     </g>
     <g id="text_13">
      <!-- 0 -->
      <g style="fill: #475569" transform="translate(83.001293 443.503859) scale(0.11 -0.11)">
       <use xlink:href="#DejaVuSans-30"/>
      </g>
     </g>
    </g>
    <g id="xtick_23">
     <g id="line2d_64">
      <path d="M 190.512891 428.145578 
L 190.512891 335.315811 
" clip-path="url(#pbecc030fa9)" style="fill: none; stroke: #94a3b8; stroke-opacity: 0.18; stroke-width: 0.8; stroke-linecap: square"/>
     </g>
     <g id="line2d_65">
      <g>
       <use xlink:href="#m67656dd05b" x="190.512891" y="428.145578" style="fill: #475569; stroke: #475569; stroke-width: 0.8"/>
      </g>
     </g>
     <g id="text_14">
      <!-- 20 -->
      <g style="fill: #475569" transform="translate(183.514141 443.503859) scale(0.11 -0.11)">
       <defs>
        <path id="DejaVuSans-32" d="M 1228 531 
L 3431 531 
L 3431 0 
L 469 0 
L 469 531 
Q 828 903 1448 1529 
Q 2069 2156 2228 2338 
Q 2531 2678 2651 2914 
Q 2772 3150 2772 3378 
Q 2772 3750 2511 3984 
Q 2250 4219 1831 4219 
Q 1534 4219 1204 4116 
Q 875 4013 500 3803 
L 500 4441 
Q 881 4594 1212 4672 
Q 1544 4750 1819 4750 
Q 2544 4750 2975 4387 
Q 3406 4025 3406 3419 
Q 3406 3131 3298 2873 
Q 3191 2616 2906 2266 
Q 2828 2175 2409 1742 
Q 1991 1309 1228 531 
z
" transform="scale(0.015625)"/>
       </defs>
       <use xlink:href="#DejaVuSans-32"/>
       <use xlink:href="#DejaVuSans-30" x="63.623047"/>
      </g>
     </g>
    </g>
    <g id="xtick_24">
     <g id="line2d_66">
      <path d="M 294.525114 428.145578 
L 294.525114 335.315811 
" clip-path="url(#pbecc030fa9)" style="fill: none; stroke: #94a3b8; stroke-opacity: 0.18; stroke-width: 0.8; stroke-linecap: square"/>
     </g>
     <g id="line2d_67">
      <g>
       <use xlink:href="#m67656dd05b" x="294.525114" y="428.145578" style="fill: #475569; stroke: #475569; stroke-width: 0.8"/>
      </g>
     </g>
     <g id="text_15">
      <!-- 40 -->
      <g style="fill: #475569" transform="translate(287.526364 443.503859) scale(0.11 -0.11)">
       <defs>
        <path id="DejaVuSans-34" d="M 2419 4116 
L 825 1625 
L 2419 1625 
L 2419 4116 
z
M 2253 4666 
L 3047 4666 
L 3047 1625 
L 3713 1625 
L 3713 1100 
L 3047 1100 
L 3047 0 
L 2419 0 
L 2419 1100 
L 313 1100 
L 313 1709 
L 2253 4666 
z
" transform="scale(0.015625)"/>
       </defs>
       <use xlink:href="#DejaVuSans-34"/>
       <use xlink:href="#DejaVuSans-30" x="63.623047"/>
      </g>
     </g>
    </g>
    <g id="xtick_25">
     <g id="line2d_68">
      <path d="M 398.537337 428.145578 
L 398.537337 335.315811 
" clip-path="url(#pbecc030fa9)" style="fill: none; stroke: #94a3b8; stroke-opacity: 0.18; stroke-width: 0.8; stroke-linecap: square"/>
     </g>
     <g id="line2d_69">
      <g>
       <use xlink:href="#m67656dd05b" x="398.537337" y="428.145578" style="fill: #475569; stroke: #475569; stroke-width: 0.8"/>
      </g>
     </g>
     <g id="text_16">
      <!-- 60 -->
      <g style="fill: #475569" transform="translate(391.538587 443.503859) scale(0.11 -0.11)">
       <use xlink:href="#DejaVuSans-36"/>
       <use xlink:href="#DejaVuSans-30" x="63.623047"/>
      </g>
     </g>
    </g>
    <g id="xtick_26">
     <g id="line2d_70">
      <path d="M 502.54956 428.145578 
L 502.54956 335.315811 
" clip-path="url(#pbecc030fa9)" style="fill: none; stroke: #94a3b8; stroke-opacity: 0.18; stroke-width: 0.8; stroke-linecap: square"/>
     </g>
     <g id="line2d_71">
      <g>
       <use xlink:href="#m67656dd05b" x="502.54956" y="428.145578" style="fill: #475569; stroke: #475569; stroke-width: 0.8"/>
      </g>
     </g>
     <g id="text_17">
      <!-- 80 -->
      <g style="fill: #475569" transform="translate(495.55081 443.503859) scale(0.11 -0.11)">
       <use xlink:href="#DejaVuSans-38"/>
       <use xlink:href="#DejaVuSans-30" x="63.623047"/>
      </g>
     </g>
    </g>
    <g id="xtick_27">
     <g id="line2d_72">
      <path d="M 606.561783 428.145578 
L 606.561783 335.315811 
" clip-path="url(#pbecc030fa9)" style="fill: none; stroke: #94a3b8; stroke-opacity: 0.18; stroke-width: 0.8; stroke-linecap: square"/>
     </g>
     <g id="line2d_73">
      <g>
       <use xlink:href="#m67656dd05b" x="606.561783" y="428.145578" style="fill: #475569; stroke: #475569; stroke-width: 0.8"/>
      </g>
     </g>
     <g id="text_18">
      <!-- 100 -->
      <g style="fill: #475569" transform="translate(596.063658 443.503859) scale(0.11 -0.11)">
       <use xlink:href="#DejaVuSans-31"/>
       <use xlink:href="#DejaVuSans-30" x="63.623047"/>
       <use xlink:href="#DejaVuSans-30" x="127.246094"/>
      </g>
     </g>
    </g>
    <g id="xtick_28">
     <g id="line2d_74">
      <path d="M 710.574006 428.145578 
L 710.574006 335.315811 
" clip-path="url(#pbecc030fa9)" style="fill: none; stroke: #94a3b8; stroke-opacity: 0.18; stroke-width: 0.8; stroke-linecap: square"/>
     </g>
     <g id="line2d_75">
      <g>
       <use xlink:href="#m67656dd05b" x="710.574006" y="428.145578" style="fill: #475569; stroke: #475569; stroke-width: 0.8"/>
      </g>
     </g>
     <g id="text_19">
      <!-- 120 -->
      <g style="fill: #475569" transform="translate(700.075881 443.503859) scale(0.11 -0.11)">
       <use xlink:href="#DejaVuSans-31"/>
       <use xlink:href="#DejaVuSans-32" x="63.623047"/>
       <use xlink:href="#DejaVuSans-30" x="127.246094"/>
      </g>
     </g>
    </g>
    <g id="text_20">
     <!-- Time -->
     <g style="fill: #334155" transform="translate(382.480078 458.149797) scale(0.11 -0.11)">
      <defs>
       <path id="DejaVuSans-6d" d="M 3328 2828 
Q 3544 3216 3844 3400 
Q 4144 3584 4550 3584 
Q 5097 3584 5394 3201 
Q 5691 2819 5691 2113 
L 5691 0 
L 5113 0 
L 5113 2094 
Q 5113 2597 4934 2840 
Q 4756 3084 4391 3084 
Q 3944 3084 3684 2787 
Q 3425 2491 3425 1978 
L 3425 0 
L 2847 0 
L 2847 2094 
Q 2847 2600 2669 2842 
Q 2491 3084 2119 3084 
Q 1678 3084 1418 2786 
Q 1159 2488 1159 1978 
L 1159 0 
L 581 0 
L 581 3500 
L 1159 3500 
L 1159 2956 
Q 1356 3278 1631 3431 
Q 1906 3584 2284 3584 
Q 2666 3584 2933 3390 
Q 3200 3197 3328 2828 
z
" transform="scale(0.015625)"/>
      </defs>
      <use xlink:href="#DejaVuSans-54"/>
      <use xlink:href="#DejaVuSans-69" x="57.958984"/>
      <use xlink:href="#DejaVuSans-6d" x="85.742188"/>
      <use xlink:href="#DejaVuSans-65" x="183.154297"/>
     </g>
    </g>
   </g>
   <g id="matplotlib.axis_8">
    <g id="ytick_9">
     <g id="line2d_76">
      <path d="M 55.557031 409.47077 
L 736.317031 409.47077 
" clip-path="url(#pbecc030fa9)" style="fill: none; stroke: #94a3b8; stroke-opacity: 0.18; stroke-width: 0.8; stroke-linecap: square"/>
     </g>
     <g id="line2d_77">
      <g>
       <use xlink:href="#m5f30ce3abb" x="55.557031" y="409.47077" style="fill: #475569; stroke: #475569; stroke-width: 0.8"/>
      </g>
     </g>
     <g id="text_21">
      <!-- −2.5 -->
      <g style="fill: #475569" transform="translate(21.845938 413.64991) scale(0.11 -0.11)">
       <defs>
        <path id="DejaVuSans-2e" d="M 684 794 
L 1344 794 
L 1344 0 
L 684 0 
L 684 794 
z
" transform="scale(0.015625)"/>
       </defs>
       <use xlink:href="#DejaVuSans-2212"/>
       <use xlink:href="#DejaVuSans-32" x="83.789062"/>
       <use xlink:href="#DejaVuSans-2e" x="147.412109"/>
       <use xlink:href="#DejaVuSans-35" x="179.199219"/>
      </g>
     </g>
    </g>
    <g id="ytick_10">
     <g id="line2d_78">
      <path d="M 55.557031 383.695899 
L 736.317031 383.695899 
" clip-path="url(#pbecc030fa9)" style="fill: none; stroke: #94a3b8; stroke-opacity: 0.18; stroke-width: 0.8; stroke-linecap: square"/>
     </g>
     <g id="line2d_79">
      <g>
       <use xlink:href="#m5f30ce3abb" x="55.557031" y="383.695899" style="fill: #475569; stroke: #475569; stroke-width: 0.8"/>
      </g>
     </g>
     <g id="text_22">
      <!-- 0.0 -->
      <g style="fill: #475569" transform="translate(31.063594 387.875039) scale(0.11 -0.11)">
       <use xlink:href="#DejaVuSans-30"/>
       <use xlink:href="#DejaVuSans-2e" x="63.623047"/>
       <use xlink:href="#DejaVuSans-30" x="95.410156"/>
      </g>
     </g>
    </g>
    <g id="ytick_11">
     <g id="line2d_80">
      <path d="M 55.557031 357.921027 
L 736.317031 357.921027 
" clip-path="url(#pbecc030fa9)" style="fill: none; stroke: #94a3b8; stroke-opacity: 0.18; stroke-width: 0.8; stroke-linecap: square"/>
     </g>
     <g id="line2d_81">
      <g>
       <use xlink:href="#m5f30ce3abb" x="55.557031" y="357.921027" style="fill: #475569; stroke: #475569; stroke-width: 0.8"/>
      </g>
     </g>
     <g id="text_23">
      <!-- 2.5 -->
      <g style="fill: #475569" transform="translate(31.063594 362.100168) scale(0.11 -0.11)">
       <use xlink:href="#DejaVuSans-32"/>
       <use xlink:href="#DejaVuSans-2e" x="63.623047"/>
       <use xlink:href="#DejaVuSans-35" x="95.410156"/>
      </g>
     </g>
    </g>
    <g id="text_24">
     <!-- Residual -->
     <g style="fill: #334155" transform="translate(15.558281 404.957882) rotate(-90) scale(0.11 -0.11)">
      <defs>
       <path id="DejaVuSans-52" d="M 2841 2188 
Q 3044 2119 3236 1894 
Q 3428 1669 3622 1275 
L 4263 0 
L 3584 0 
L 2988 1197 
Q 2756 1666 2539 1819 
Q 2322 1972 1947 1972 
L 1259 1972 
L 1259 0 
L 628 0 
L 628 4666 
L 2053 4666 
Q 2853 4666 3247 4331 
Q 3641 3997 3641 3322 
Q 3641 2881 3436 2590 
Q 3231 2300 2841 2188 
z
M 1259 4147 
L 1259 2491 
L 2053 2491 
Q 2509 2491 2742 2702 
Q 2975 2913 2975 3322 
Q 2975 3731 2742 3939 
Q 2509 4147 2053 4147 
L 1259 4147 
z
" transform="scale(0.015625)"/>
       <path id="DejaVuSans-75" d="M 544 1381 
L 544 3500 
L 1119 3500 
L 1119 1403 
Q 1119 906 1312 657 
Q 1506 409 1894 409 
Q 2359 409 2629 706 
Q 2900 1003 2900 1516 
L 2900 3500 
L 3475 3500 
L 3475 0 
L 2900 0 
L 2900 538 
Q 2691 219 2414 64 
Q 2138 -91 1772 -91 
Q 1169 -91 856 284 
Q 544 659 544 1381 
z
M 1991 3584 
L 1991 3584 
z
" transform="scale(0.015625)"/>
      </defs>
      <use xlink:href="#DejaVuSans-52"/>
      <use xlink:href="#DejaVuSans-65" x="64.982422"/>
      <use xlink:href="#DejaVuSans-73" x="126.505859"/>
      <use xlink:href="#DejaVuSans-69" x="178.605469"/>
      <use xlink:href="#DejaVuSans-64" x="206.388672"/>
      <use xlink:href="#DejaVuSans-75" x="269.865234"/>
      <use xlink:href="#DejaVuSans-61" x="333.244141"/>
      <use xlink:href="#DejaVuSans-6c" x="394.523438"/>
     </g>
    </g>
   </g>
   <g id="line2d_82">
    <path d="M 86.500668 377.412664 
L 91.701279 405.140264 
L 96.90189 368.221672 
L 102.102501 364.301551 
L 107.303112 423.926043 
L 112.503723 410.546706 
L 117.704335 381.059843 
L 122.904946 390.216788 
L 128.105557 384.042337 
L 133.306168 401.285577 
L 138.506779 365.562803 
L 143.70739 367.657909 
L 148.908001 382.334352 
L 154.108613 360.452301 
L 159.309224 374.055904 
L 164.509835 401.414421 
L 169.710446 376.092295 
L 174.911057 403.467959 
L 180.111668 365.582344 
L 185.31228 384.725366 
L 190.512891 387.507741 
L 195.713502 397.736596 
L 200.914113 358.487222 
L 206.114724 386.882281 
L 211.315335 392.527974 
L 216.515946 390.956856 
L 221.716558 372.719738 
L 226.917169 376.16048 
L 232.11778 375.185395 
L 237.318391 374.812414 
L 242.519002 339.535346 
L 247.719613 392.076134 
L 252.920225 394.258291 
L 258.120836 400.475808 
L 263.321447 370.994466 
L 268.522058 360.416606 
L 273.722669 386.045483 
L 278.92328 401.019839 
L 284.123891 400.696616 
L 289.324503 370.280742 
L 294.525114 368.370074 
L 299.725725 372.496113 
L 304.926336 397.41864 
L 310.126947 378.908756 
L 315.327558 381.289849 
L 320.52817 379.186562 
L 325.728781 365.727127 
L 330.929392 379.085381 
L 336.130003 369.696771 
L 341.330614 382.302425 
L 346.531225 377.734286 
L 351.731836 370.6788 
L 356.932448 413.742302 
L 362.133059 390.287486 
L 367.33367 393.394934 
L 372.534281 396.869494 
L 377.734892 389.369303 
L 382.935503 352.870363 
L 388.136115 401.549247 
L 393.336726 363.730099 
L 398.537337 418.3965 
L 403.737948 390.601193 
L 408.938559 380.339947 
L 414.13917 371.608054 
L 419.339781 369.03048 
L 424.540393 367.33716 
L 429.741004 390.886574 
L 434.941615 393.229545 
L 440.142226 366.004524 
L 445.342837 387.640574 
L 450.543448 410.000419 
L 455.74406 407.064164 
L 460.944671 402.65491 
L 466.145282 373.444495 
L 471.345893 380.759095 
L 476.546504 369.458162 
L 481.747115 392.505804 
L 486.947726 380.426826 
L 492.148338 370.796289 
L 497.348949 390.074592 
L 502.54956 374.27724 
L 507.750171 397.344743 
L 512.950782 391.182031 
L 518.151393 391.567295 
L 523.352005 408.353989 
L 528.552616 373.654576 
L 533.753227 393.374926 
L 538.953838 383.438271 
L 544.154449 373.782952 
L 549.35506 374.488472 
L 554.555671 369.975726 
L 559.756283 385.726659 
L 564.956894 392.424266 
L 570.157505 385.33968 
L 575.358116 418.488561 
L 580.558727 413.535209 
L 585.759338 410.969828 
L 590.95995 404.259025 
L 596.160561 375.452595 
L 601.361172 402.366783 
L 606.561783 391.493571 
L 611.762394 356.905945 
L 616.963005 391.042025 
L 622.163616 368.488403 
L 627.364228 402.946999 
L 632.564839 387.932 
L 637.76545 403.285256 
L 642.966061 390.686726 
L 648.166672 366.368831 
L 653.367283 419.313068 
L 658.567895 374.738128 
L 663.768506 378.793815 
L 668.969117 395.947209 
L 674.169728 413.513463 
L 679.370339 382.208596 
L 684.57095 394.613984 
L 689.771561 378.898139 
L 694.972173 383.24531 
L 700.172784 350.667383 
L 705.373395 388.631387 
" clip-path="url(#pbecc030fa9)" style="fill: none; stroke: #ef4444; stroke-width: 2; stroke-linecap: square"/>
   </g>
   <g id="patch_12">
    <path d="M 55.557031 428.145578 
L 55.557031 335.315811 
" style="fill: none; stroke: #94a3b8; stroke-width: 0.8; stroke-linejoin: miter; stroke-linecap: square"/>
   </g>
   <g id="patch_13">
    <path d="M 55.557031 428.145578 
L 736.317031 428.145578 
" style="fill: none; stroke: #94a3b8; stroke-width: 0.8; stroke-linejoin: miter; stroke-linecap: square"/>
   </g>
  </g>
 </g>
 <defs>
  <clipPath id="pd0df71deeb">
   <rect x="55.557031" y="28.977578" width="680.76" height="92.829767"/>
  </clipPath>
  <clipPath id="pa254499f0c">
   <rect x="55.557031" y="131.090322" width="680.76" height="92.829767"/>
  </clipPath>
  <clipPath id="p414bddf153">
   <rect x="55.557031" y="233.203066" width="680.76" height="92.829767"/>
  </clipPath>
  <clipPath id="pbecc030fa9">
   <rect x="55.557031" y="335.315811" width="680.76" height="92.829767"/>
  </clipPath>
 </defs>
</svg>
